<?xml version="1.0" encoding="UTF-8" standalone="no"?>
<!-- Created with Inkscape (http://www.inkscape.org/) -->

<svg
   xmlns:dc="http://purl.org/dc/elements/1.1/"
   xmlns:cc="http://creativecommons.org/ns#"
   xmlns:rdf="http://www.w3.org/1999/02/22-rdf-syntax-ns#"
   xmlns:svg="http://www.w3.org/2000/svg"
   xmlns="http://www.w3.org/2000/svg"
   xmlns:sodipodi="http://sodipodi.sourceforge.net/DTD/sodipodi-0.dtd"
   xmlns:inkscape="http://www.inkscape.org/namespaces/inkscape"
   id="svg7384"
   height="16"
   width="16"
   version="1.1"
   inkscape:version="0.48.4 r9939"
   sodipodi:docname="on-screen-keyboard-disabled-symbolic.svg">
  <defs
     id="defs9" />
  <sodipodi:namedview
     pagecolor="#ffffff"
     bordercolor="#666666"
     borderopacity="1"
     objecttolerance="10"
     gridtolerance="10"
     guidetolerance="10"
     inkscape:pageopacity="0"
     inkscape:pageshadow="2"
     inkscape:window-width="1920"
     inkscape:window-height="1146"
     id="namedview7"
     showgrid="false"
     inkscape:zoom="14.75"
     inkscape:cx="-2.7118644"
     inkscape:cy="8"
     inkscape:window-x="0"
     inkscape:window-y="0"
     inkscape:window-maximized="1"
     inkscape:current-layer="svg7384" />
  <metadata
     id="metadata90">
    <rdf:RDF>
      <cc:Work
         rdf:about="">
        <dc:format>image/svg+xml</dc:format>
        <dc:type
           rdf:resource="http://purl.org/dc/dcmitype/StillImage" />
        <dc:title>Gnome Symbolic Icon Theme</dc:title>
      </cc:Work>
    </rdf:RDF>
  </metadata>
  <title
     id="title9167">Gnome Symbolic Icon Theme</title>
  <path
     style="color:#bebebe;fill:#bebebe"
     d="M 1 2 C 0.446 2 0 2.446 0 3 L 0 13 C 0 13.554 0.446 14 1 14 L 8.40625 14 L 8.40625 12.03125 L 5 12.03125 L 5 10.03125 L 8.40625 10.03125 L 8.40625 8.21875 L 9 8.21875 L 9 7.03125 L 11 7.03125 L 11 8.21875 L 12 8.21875 L 12 7.03125 L 14 7.03125 L 14 8.21875 L 16 8.21875 L 16 3 C 16 2.446 15.554 2 15 2 L 1 2 z M 2 4 L 4 4 L 4 6 L 2 6 L 2 4 z M 5 4 L 7 4 L 7 6 L 5 6 L 5 4 z M 8 4 L 10 4 L 10 6 L 8 6 L 8 4 z M 11 4 L 13 4 L 13 6 L 11 6 L 11 4 z M 3 7.03125 L 5 7.03125 L 5 9.03125 L 3 9.03125 L 3 7.03125 z M 6 7.03125 L 8 7.03125 L 8 9.03125 L 6 9.03125 L 6 7.03125 z M 2 10.03125 L 4 10.03125 L 4 12.03125 L 2 12.03125 L 2 10.03125 z "
     id="rect4890" />
  <path
     inkscape:connector-curvature="0"
     id="path3482-5"
     d="m 12.406783,8.8728812 c -1.933003,0 -3.5000042,1.5670028 -3.5000042,3.5000028 0,1.932999 1.5670012,3.499999 3.5000042,3.499999 1.933,0 3.5,-1.567 3.5,-3.499999 0,-1.933 -1.567,-3.5000028 -3.5,-3.5000028 z M 9.9067778,11.841684 h 5.0000052 v 1.0312 H 9.9067778 v -1.0312 z"
     style="color:#bebebe;fill:#ef2929"
     class="error" />
</svg>
