<?xml version="1.0" encoding="UTF-8" standalone="no"?>
<!-- Created with Inkscape (http://www.inkscape.org/) -->

<svg
   xmlns:dc="http://purl.org/dc/elements/1.1/"
   xmlns:cc="http://creativecommons.org/ns#"
   xmlns:rdf="http://www.w3.org/1999/02/22-rdf-syntax-ns#"
   xmlns:svg="http://www.w3.org/2000/svg"
   xmlns="http://www.w3.org/2000/svg"
   xmlns:sodipodi="http://sodipodi.sourceforge.net/DTD/sodipodi-0.dtd"
   xmlns:inkscape="http://www.inkscape.org/namespaces/inkscape"
   id="svg7384"
   height="16.001"
   width="16"
   version="1.1"
   inkscape:version="0.48.4 r9939"
   sodipodi:docname="video-display-symbolic.svg">
  <defs
     id="defs10" />
  <sodipodi:namedview
     pagecolor="#ffffff"
     bordercolor="#666666"
     borderopacity="1"
     objecttolerance="10"
     gridtolerance="10"
     guidetolerance="10"
     inkscape:pageopacity="0"
     inkscape:pageshadow="2"
     inkscape:window-width="1472"
     inkscape:window-height="922"
     id="namedview8"
     showgrid="true"
     inkscape:snap-bbox="true"
     inkscape:zoom="41.716694"
     inkscape:cx="8.0610968"
     inkscape:cy="8.1482271"
     inkscape:window-x="393"
     inkscape:window-y="0"
     inkscape:window-maximized="0"
     inkscape:current-layer="svg7384">
    <inkscape:grid
       type="xygrid"
       id="grid3757" />
  </sodipodi:namedview>
  <title
     id="title9167">Gnome Symbolic Icon Theme</title>
  <metadata
     id="metadata90">
    <rdf:RDF>
      <cc:Work
         rdf:about="">
        <dc:format>image/svg+xml</dc:format>
        <dc:type
           rdf:resource="http://purl.org/dc/dcmitype/StillImage" />
        <dc:title>Gnome Symbolic Icon Theme</dc:title>
      </cc:Work>
    </rdf:RDF>
  </metadata>
  <path
     inkscape:connector-curvature="0"
     d="M 2.19,0 C 0.99,0 0,0.99 0,2.19 v 8.625 c 0,1.1999 0.9859,2.1875 2.1875,2.1875 h 11.625 C 15.0141,13.0025 16,12.01492 16,10.815 V 2.19 c -0.01,-1.21 -1,-2.2 -2.2,-2.2 H 2.175 z m 0,2 h 11.625 c 0.1238,0 0.1875,0.0566 0.1875,0.1875 v 8.625 C 14.0025,10.9434 13.9388,11 13.815,11 H 2.19 C 2.05,10.99 1.99,10.93 1.99,10.8 V 2.175 c 0,-0.12 0.06,-0.18 0.19,-0.18 z"
     style="text-indent:0;text-transform:none;block-progression:tb;color:#bebebe;fill:#bebebe"
     id="rect11749-5" />
  <path
     inkscape:connector-curvature="0"
     d="M 4.91,14 A 1.0011,1.0011 0 1 0 5,16 h 6 a 1.0001,1.0001 0 1 0 0,-2 H 5 a 1.0001,1.0001 0 0 0 -0.0937,0 z"
     style="text-indent:0;text-transform:none;block-progression:tb;color:#bebebe;fill:#bebebe"
     id="path11751-2" />
  <g
     id="g3945"
     transform="translate(3.9299927,-4.0616007)">
    <path
       id="path10403"
       style="text-indent:0;text-transform:none;block-progression:tb;color:#000000;fill:#bebebe"
       d="m 4.03,6.94 c -1.0888,0 -2,0.87892 -2,1.9688 v 1.5938 h 1 V 8.9088 c 0,-0.55143 0.45371,-0.96875 1,-0.96875 0.54629,0 0.96875,0.41732 0.96875,0.96875 v 1.5625 h 1 V 8.9088 C 5.99875,7.819 5.11877,6.94 4.02995,6.94 z"
       inkscape:connector-curvature="0" />
    <rect
       id="rect11173"
       style="color:#000000;fill:#bebebe"
       height="4.0626001"
       width="5.9661999"
       y="10"
       x="1.0700073" />
  </g>
</svg>
