<?xml version="1.0" encoding="UTF-8" standalone="no"?>
<!-- Created with Inkscape (http://www.inkscape.org/) -->

<svg
   xmlns:dc="http://purl.org/dc/elements/1.1/"
   xmlns:cc="http://creativecommons.org/ns#"
   xmlns:rdf="http://www.w3.org/1999/02/22-rdf-syntax-ns#"
   xmlns:svg="http://www.w3.org/2000/svg"
   xmlns="http://www.w3.org/2000/svg"
   xmlns:sodipodi="http://sodipodi.sourceforge.net/DTD/sodipodi-0.dtd"
   xmlns:inkscape="http://www.inkscape.org/namespaces/inkscape"
   id="svg7384"
   height="16"
   width="16"
   version="1.1"
   inkscape:version="0.48.3.1 r9886"
   sodipodi:docname="scale.svg">
  <defs
     id="defs9" />
  <sodipodi:namedview
     pagecolor="#ffffff"
     bordercolor="#666666"
     borderopacity="1"
     objecttolerance="10"
     gridtolerance="10"
     guidetolerance="10"
     inkscape:pageopacity="0"
     inkscape:pageshadow="2"
     inkscape:window-width="1769"
     inkscape:window-height="923"
     id="namedview7"
     showgrid="false"
     inkscape:zoom="20.85965"
     inkscape:cx="18.555886"
     inkscape:cy="5.182902"
     inkscape:window-x="0"
     inkscape:window-y="25"
     inkscape:window-maximized="0"
     inkscape:current-layer="layer9" />
  <title
     id="title9167">Gnome Symbolic Icon Theme</title>
  <metadata
     id="metadata90">
    <rdf:RDF>
      <cc:Work
         rdf:about="">
        <dc:format>image/svg+xml</dc:format>
        <dc:type
           rdf:resource="http://purl.org/dc/dcmitype/StillImage" />
        <dc:title>Gnome Symbolic Icon Theme</dc:title>
      </cc:Work>
    </rdf:RDF>
  </metadata>
  <g
     id="layer9"
     transform="translate(-61 -237)">
    <path
       style="color:#bebebe;fill:#bebebe"
       d="M 3.125 2.71875 C 3.075002 2.70875 3.0102525 2.736166 2.96875 2.75 C 2.951801 2.75565 2.95445 2.7756 2.9375 2.78125 C 2.904396 2.831212 2.8241625 2.770522 2.78125 2.78125 C 2.763917 2.78558 2.736083 2.808167 2.71875 2.8125 C 2.68115 2.8219 2.6625996 2.8031 2.625 2.8125 C 2.614038 2.81524 2.604712 2.841009 2.59375 2.84375 C 2.570496 2.84956 2.55522 2.84375 2.53125 2.84375 L 2.46875 2.84375 C 2.45277 2.84375 2.421409 2.8387 2.40625 2.84375 C 2.384811 2.8509 2.395214 2.864893 2.375 2.875 C 2.36785 2.87857 2.3494 2.86935 2.34375 2.875 C 2.331117 2.887633 2.32241 2.922635 2.3125 2.9375 C 2.30593 2.94735 2.259847 2.993435 2.25 3 C 2.235135 3.00991 2.231383 3.018617 2.21875 3.03125 C 2.2131 3.0369 2.22232 3.055353 2.21875 3.0625 C 2.168872 3.162256 2.20584 3.044156 2.15625 3.09375 C 2.106372 3.193506 2.143339 3.075406 2.09375 3.125 C 2.044156 3.174594 2.193506 3.137621 2.09375 3.1875 C 2.0866 3.19107 2.06815 3.18185 2.0625 3.1875 C 2.05745 3.197607 2.036304 3.208643 2.03125 3.21875 C 2.02768 3.2259 2.03482 3.242853 2.03125 3.25 C 2.0262 3.260107 2.002741 3.270288 2 3.28125 C 2 3.4512607 2.040919 3.293162 2 3.375 C 1.988015 3.39897 2.02397 3.413531 2 3.4375 C 1.9887 3.448799 1.9488 3.426201 1.9375 3.4375 C 1.926201 3.448799 1.94636 3.486704 1.9375 3.5 C 1.92759 3.514865 1.918883 3.487367 1.90625 3.5 C 1.9006 3.50565 1.90625 3.52326 1.90625 3.53125 C 1.90625 3.55522 1.91515 3.571495 1.90625 3.59375 C 1.89786 3.614733 1.856286 3.637446 1.84375 3.65625 C 1.84137 3.65982 1.84375 3.710878 1.84375 3.71875 C 1.84375 3.71875 1.84375 3.71875 1.84375 3.71875 C 1.84375 3.72674 1.8381 3.755649 1.84375 3.75 C 1.829457 3.75715 1.826792 3.74285 1.8125 3.75 C 1.7805 3.766 1.8445 3.7965 1.8125 3.8125 C 1.798207 3.81965 1.765159 3.80745 1.75 3.8125 C 1.73928 3.81607 1.728152 3.806232 1.71875 3.8125 C 1.703885 3.82241 1.702365 3.83384 1.6875 3.84375 C 1.6781 3.85002 1.662518 3.865598 1.65625 3.875 C 1.64634 3.889865 1.63987 3.89634 1.625 3.90625 C 1.5866486 3.9318178 1.5952843 3.9395456 1.59375 3.9375 C 1.59375 3.9375 1.59375 3.9375 1.59375 3.9375 C 1.5952843 3.9395456 1.5866486 3.9318178 1.625 3.90625 C 1.4727396 3.90625 1.7702447 4.0536956 1.46875 3.8125 C 1.543674 3.848818 1.483819 3.9525687 1.53125 4 C 1.55162 4.02037 1.571878 4.012502 1.59375 4.03125 C 1.9470679 4.3340939 1.3860877 3.8859047 1.84375 4.21875 C 1.885125 4.248841 1.9273743 4.282409 1.96875 4.3125 C 2.015346 4.346388 2.0471537 4.403612 2.09375 4.4375 C 2.135125 4.467591 2.1738364 4.506752 2.21875 4.53125 C 2.2193013 4.5315507 2.527435 4.623613 2.53125 4.625 C 2.571687 4.639704 2.5876423 4.634902 2.625 4.65625 C 2.644621 4.667462 2.668697 4.706215 2.6875 4.71875 C 2.69415 4.72318 2.71076 4.71875 2.71875 4.71875 C 2.73473 4.71875 2.73484 4.7238 2.75 4.71875 C 2.760719 4.71518 2.771143 4.692554 2.78125 4.6875 C 2.7884 4.68393 2.805353 4.69107 2.8125 4.6875 C 2.832713 4.677393 2.823537 4.635107 2.84375 4.625 C 2.8509 4.62143 2.86935 4.63065 2.875 4.625 C 2.887633 4.612367 2.893617 4.606383 2.90625 4.59375 C 2.9119 4.5881 2.93185 4.5994 2.9375 4.59375 C 2.950133 4.581117 2.924867 4.543883 2.9375 4.53125 C 2.94315 4.5256 2.96117 4.53378 2.96875 4.53125 C 3.002648 4.519951 3.027835 4.508667 3.0625 4.5 C 3.078003 4.49612 3.110707 4.50715 3.125 4.5 C 3.145213 4.489893 3.136037 4.447606 3.15625 4.4375 C 3.170543 4.43035 3.20745 4.448799 3.21875 4.4375 C 3.230049 4.426201 3.207451 4.41755 3.21875 4.40625 C 3.230049 4.394951 3.234841 4.4113 3.25 4.40625 C 3.274438 4.3981 3.302711 4.325552 3.3125 4.3125 C 3.326059 4.294421 3.333644 4.301464 3.34375 4.28125 C 3.3509 4.266957 3.33987 4.234252 3.34375 4.21875 C 3.34808 4.201417 3.368364 4.204089 3.375 4.1875 C 3.400994 4.122516 3.383625 4.0851253 3.4375 4.03125 C 3.5487807 3.97561 3.456131 4.05649 3.5 3.96875 C 3.520213 3.928324 3.573537 3.915426 3.59375 3.875 C 3.6009 3.860707 3.582451 3.8238 3.59375 3.8125 C 3.605049 3.801201 3.649103 3.826793 3.65625 3.8125 C 3.670543 3.783914 3.641957 3.747336 3.65625 3.71875 C 3.6634 3.704457 3.674204 3.72761 3.6875 3.71875 C 3.702365 3.70884 3.71076 3.703479 3.71875 3.6875 C 3.72674 3.67152 3.745667 3.642333 3.75 3.625 C 3.75471 3.606145 3.75 3.5249267 3.75 3.5 L 3.75 3.4375 C 3.75 3.42152 3.75505 3.42141 3.75 3.40625 C 3.74643 3.395531 3.722324 3.38572 3.71875 3.375 C 3.7137 3.35984 3.71875 3.328479 3.71875 3.3125 L 3.71875 3.28125 L 3.71875 3.125 C 3.71875 3.10902 3.7137 3.108909 3.71875 3.09375 C 3.72232 3.08303 3.744947 3.072607 3.75 3.0625 C 3.75357 3.05535 3.75 3.03924 3.75 3.03125 C 3.75 3.01527 3.7613 3.011299 3.75 3 C 3.738701 2.988701 3.700796 3.00886 3.6875 3 C 3.672635 2.99009 3.668883 2.950134 3.65625 2.9375 C 3.639301 2.93185 3.610339 2.912886 3.59375 2.90625 C 3.4456528 2.847011 3.5811786 2.931209 3.46875 2.875 L 3.4375 2.84375 C 3.4375 2.83576 3.44315 2.81815 3.4375 2.8125 C 3.42989 2.80489 3.2949481 2.754566 3.28125 2.75 C 3.25851 2.74242 3.242254 2.7547 3.21875 2.75 C 3.193974 2.74504 3.149776 2.723705 3.125 2.71875 z "
       id="path3763"
       transform="translate(61,237)" />
    <path
       style="color:#bebebe;fill:#bebebe"
       d="M 2.0625 0 C 0.9118 0 0 0.91177 0 2.0625 L 0 13.9375 C 0 15.0882 0.91177 16 2.0625 16 L 13.9375 16 C 15.0882 16 16 15.08823 16 13.9375 L 16 2.0625 C 16 0.9118 15.08823 0 13.9375 0 L 2.0625 0 z M 0.75 6.1875 L 4.6875 6.1875 L 4.6875 9.90625 L 0.75 9.90625 L 0.75 6.1875 z M 6.0625 6.21875 L 9.96875 6.21875 L 9.96875 9.9375 L 6.0625 9.9375 L 6.0625 6.21875 z M 11.3125 6.21875 L 15.25 6.21875 L 15.25 9.96875 L 11.3125 9.96875 L 11.3125 6.21875 z "
       transform="translate(61,237)"
       id="rect7011" />
  </g>
</svg>
