<?xml version="1.0" encoding="UTF-8" standalone="no"?>
<!-- Created with Inkscape (http://www.inkscape.org/) -->

<svg
   xmlns:dc="http://purl.org/dc/elements/1.1/"
   xmlns:cc="http://creativecommons.org/ns#"
   xmlns:rdf="http://www.w3.org/1999/02/22-rdf-syntax-ns#"
   xmlns:svg="http://www.w3.org/2000/svg"
   xmlns="http://www.w3.org/2000/svg"
   xmlns:xlink="http://www.w3.org/1999/xlink"
   xmlns:sodipodi="http://sodipodi.sourceforge.net/DTD/sodipodi-0.dtd"
   xmlns:inkscape="http://www.inkscape.org/namespaces/inkscape"
   width="96"
   height="96"
   id="svg2"
   version="1.1"
   inkscape:version="0.48.3.1 r9886"
   sodipodi:docname="drawing.svg">
  <defs
     id="defs4">
    <linearGradient
       id="linearGradient4526">
      <stop
         style="stop-color:#ffffff;stop-opacity:0.75294119;"
         offset="0"
         id="stop4528" />
      <stop
         style="stop-color:#000000;stop-opacity:0.14901961;"
         offset="1"
         id="stop4530" />
    </linearGradient>
    <linearGradient
       id="linearGradient4518">
      <stop
         style="stop-color:#000000;stop-opacity:0.14901961;"
         offset="0"
         id="stop4520" />
      <stop
         style="stop-color:#ffffff;stop-opacity:0.74901962;"
         offset="1"
         id="stop4522" />
    </linearGradient>
    <linearGradient
       id="linearGradient4510">
      <stop
         style="stop-color:#ffffff;stop-opacity:0.75294119;"
         offset="0"
         id="stop4512" />
      <stop
         style="stop-color:#000000;stop-opacity:0.14901961;"
         offset="1"
         id="stop4514" />
    </linearGradient>
    <linearGradient
       id="linearGradient4454">
      <stop
         style="stop-color:#ffffff;stop-opacity:0.75294119;"
         offset="0"
         id="stop4456" />
      <stop
         style="stop-color:#000000;stop-opacity:0.14901961;"
         offset="1"
         id="stop4458" />
    </linearGradient>
    <linearGradient
       id="linearGradient4446">
      <stop
         style="stop-color:#000000;stop-opacity:0.14901961;"
         offset="0"
         id="stop4448" />
      <stop
         style="stop-color:#ffffff;stop-opacity:0.75294119;"
         offset="1"
         id="stop4450" />
    </linearGradient>
    <linearGradient
       id="linearGradient4434">
      <stop
         style="stop-color:#ffffff;stop-opacity:0.75294119;"
         offset="0"
         id="stop4436" />
      <stop
         style="stop-color:#000000;stop-opacity:0.14901961;"
         offset="1"
         id="stop4438" />
    </linearGradient>
    <linearGradient
       id="linearGradient4192">
      <stop
         style="stop-color:#000000;stop-opacity:0.07843138;"
         offset="0"
         id="stop4204" />
      <stop
         id="stop4210"
         offset="0.48580441"
         style="stop-color:#fafafa;stop-opacity:0.78431373;" />
      <stop
         id="stop4208"
         offset="0.56030256"
         style="stop-color:#000000;stop-opacity:0.07843138;" />
      <stop
         id="stop4200"
         offset="1"
         style="stop-color:#fafafa;stop-opacity:0.78431374;" />
    </linearGradient>
    <linearGradient
       id="linearGradient4081">
      <stop
         id="stop4083"
         style="stop-color:#aaaaaa;stop-opacity:1"
         offset="0" />
      <stop
         id="stop4085"
         style="stop-color:#f0f0f0;stop-opacity:1"
         offset="1" />
    </linearGradient>
    <linearGradient
       inkscape:collect="always"
       xlink:href="#linearGradient4081"
       id="linearGradient3434"
       gradientUnits="userSpaceOnUse"
       gradientTransform="matrix(1.5650203,0,0,1.5858525,54.783349,723.50144)"
       x1="48"
       y1="72"
       x2="48"
       y2="24" />
    <linearGradient
       inkscape:collect="always"
       xlink:href="#linearGradient4081-9"
       id="linearGradient3434-1"
       gradientUnits="userSpaceOnUse"
       gradientTransform="matrix(1.5650203,0,0,1.5858525,-35.021841,830.74084)"
       x1="48"
       y1="72"
       x2="48"
       y2="24" />
    <linearGradient
       id="linearGradient4081-9">
      <stop
         id="stop4083-7"
         style="stop-color:#aaaaaa;stop-opacity:1"
         offset="0" />
      <stop
         id="stop4085-4"
         style="stop-color:#f0f0f0;stop-opacity:1"
         offset="1" />
    </linearGradient>
    <linearGradient
       y2="24"
       x2="48"
       y1="72"
       x1="48"
       gradientTransform="matrix(1.5650203,0,0,1.5858525,-27.115596,926.86279)"
       gradientUnits="userSpaceOnUse"
       id="linearGradient4004"
       xlink:href="#linearGradient4081-9"
       inkscape:collect="always" />
    <linearGradient
       inkscape:collect="always"
       xlink:href="#linearGradient4434"
       id="linearGradient4444"
       x1="32.328125"
       y1="1097.8564"
       x2="32.328125"
       y2="1078.5342"
       gradientUnits="userSpaceOnUse"
       gradientTransform="translate(32.1875,18.5468)" />
    <linearGradient
       inkscape:collect="always"
       xlink:href="#linearGradient4446"
       id="linearGradient4452"
       x1="64.515625"
       y1="112.96875"
       x2="64.515625"
       y2="134.79749"
       gradientUnits="userSpaceOnUse" />
    <linearGradient
       inkscape:collect="always"
       xlink:href="#linearGradient4454"
       id="linearGradient4460"
       x1="85.4375"
       y1="1083.8623"
       x2="85.4375"
       y2="1071.8123"
       gradientUnits="userSpaceOnUse" />
    <linearGradient
       inkscape:collect="always"
       xlink:href="#linearGradient4434"
       id="linearGradient4467"
       gradientUnits="userSpaceOnUse"
       gradientTransform="translate(32.1875,18.5468)"
       x1="32.328125"
       y1="1097.8564"
       x2="32.328125"
       y2="1078.5342" />
    <linearGradient
       inkscape:collect="always"
       xlink:href="#linearGradient4454"
       id="linearGradient4469"
       gradientUnits="userSpaceOnUse"
       x1="85.4375"
       y1="1083.8623"
       x2="85.4375"
       y2="1071.8123" />
    <linearGradient
       inkscape:collect="always"
       xlink:href="#linearGradient4446"
       id="linearGradient4471"
       gradientUnits="userSpaceOnUse"
       x1="64.515625"
       y1="112.96875"
       x2="64.515625"
       y2="134.79749" />
    <linearGradient
       inkscape:collect="always"
       xlink:href="#linearGradient4510"
       id="linearGradient4516"
       x1="156.96875"
       y1="140.0625"
       x2="156.96875"
       y2="119.71875"
       gradientUnits="userSpaceOnUse" />
    <linearGradient
       inkscape:collect="always"
       xlink:href="#linearGradient4518"
       id="linearGradient4524"
       x1="137.9375"
       y1="1096.4247"
       x2="137.9375"
       y2="1124.1096"
       gradientUnits="userSpaceOnUse" />
    <linearGradient
       inkscape:collect="always"
       xlink:href="#linearGradient4526"
       id="linearGradient4532"
       x1="136.0625"
       y1="1124.1747"
       x2="136.0625"
       y2="1096.4247"
       gradientUnits="userSpaceOnUse" />
    <linearGradient
       inkscape:collect="always"
       xlink:href="#linearGradient4510"
       id="linearGradient4539"
       gradientUnits="userSpaceOnUse"
       x1="156.96875"
       y1="140.0625"
       x2="156.96875"
       y2="119.71875" />
    <linearGradient
       inkscape:collect="always"
       xlink:href="#linearGradient4526"
       id="linearGradient4541"
       gradientUnits="userSpaceOnUse"
       x1="136.0625"
       y1="1124.1747"
       x2="136.0625"
       y2="1096.4247" />
    <linearGradient
       inkscape:collect="always"
       xlink:href="#linearGradient4518"
       id="linearGradient4543"
       gradientUnits="userSpaceOnUse"
       x1="137.9375"
       y1="1096.4247"
       x2="137.9375"
       y2="1124.1807" />
  </defs>
  <sodipodi:namedview
     id="base"
     pagecolor="#834e90"
     bordercolor="#666666"
     borderopacity="1.0"
     inkscape:pageopacity="1"
     inkscape:pageshadow="2"
     inkscape:zoom="5.6568543"
     inkscape:cx="53.441491"
     inkscape:cy="62.964541"
     inkscape:document-units="px"
     inkscape:current-layer="layer1"
     showgrid="false"
     inkscape:showpageshadow="false"
     inkscape:window-width="1280"
     inkscape:window-height="974"
     inkscape:window-x="0"
     inkscape:window-y="0"
     inkscape:window-maximized="1"
     inkscape:snap-bbox="true"
     inkscape:bbox-paths="true"
     inkscape:bbox-nodes="true"
     inkscape:snap-bbox-edge-midpoints="true"
     inkscape:snap-bbox-midpoints="true"
     inkscape:object-paths="true"
     inkscape:snap-intersection-paths="true"
     inkscape:object-nodes="true"
     inkscape:snap-smooth-nodes="true"
     inkscape:snap-midpoints="true"
     inkscape:snap-object-midpoints="true"
     inkscape:snap-page="true"
     showguides="false"
     inkscape:guide-bbox="true"
     guidecolor="#ffffff"
     guideopacity="1"
     inkscape:snap-global="false">
    <sodipodi:guide
       orientation="1,0"
       position="48,48"
       id="guide3336" />
    <sodipodi:guide
       orientation="1,0"
       position="-107.12668,98.994949"
       id="guide3162" />
    <sodipodi:guide
       orientation="0,1"
       position="47.999999,46.565017"
       id="guide4124" />
    <sodipodi:guide
       orientation="0,1"
       position="47.999998,49.435015"
       id="guide4126" />
    <sodipodi:guide
       orientation="0,1"
       position="48,77.1875"
       id="guide4212" />
    <sodipodi:guide
       orientation="0,1"
       position="56.25,58.1875"
       id="guide4214" />
  </sodipodi:namedview>
  <metadata
     id="metadata7">
    <rdf:RDF>
      <cc:Work
         rdf:about="">
        <dc:format>image/svg+xml</dc:format>
        <dc:type
           rdf:resource="http://purl.org/dc/dcmitype/StillImage" />
        <dc:title />
      </cc:Work>
    </rdf:RDF>
  </metadata>
  <g
     inkscape:label="Layer 1"
     inkscape:groupmode="layer"
     id="layer1"
     transform="translate(0,-956.3622)">
    <path
       sodipodi:type="arc"
       style="fill:#ff6600;fill-opacity:1;stroke:none"
       id="path3985"
       sodipodi:cx="48"
       sodipodi:cy="48"
       sodipodi:rx="35"
       sodipodi:ry="35"
       d="m 83,48 a 35,35 0 1 1 -70,0 35,35 0 1 1 70,0 z"
       transform="translate(0,956.3622)" />
    <path
       style="opacity:0.08999999;fill:#000000;fill-opacity:1;stroke:none;display:inline"
       d="m 48,962.0497 c -23.32695,0 -42.3125,18.9855 -42.3125,42.3125 0,23.327 18.98555,42.3125 42.3125,42.3125 23.32695,0 42.3125,-18.9855 42.3125,-42.3125 0,-23.327 -18.98555,-42.3125 -42.3125,-42.3125 z m 0,19.3125 c 2.28492,0 4.4952,0.34344 6.5625,1 l -0.8125,1.28125 c -1.8253,-0.54256 -3.74871,-0.84375 -5.75,-0.84375 -11.14785,0 -20.1875,9.03964 -20.1875,20.1875 l 0,5.75 0.71875,0 -1.45325,1.9999 -1.453,-1.9999 0.75,0 0,-5.75 c 0,-11.94453 9.68047,-21.625 21.625,-21.625 z m 20.923045,13.87655 1.451955,1.99845 -0.744995,0.005 -0.005,5.7445 c 0,11.9445 -9.68047,21.625 -21.625,21.625 -2.28491,0 -4.4952,-0.3434 -6.5625,-1 l 0.8125,-1.2812 c 1.8253,0.5425 3.74871,0.8437 5.75,0.8437 11.14785,0 20.1875,-9.0396 20.1875,-20.1875 l 0.02374,-5.74249 -0.745621,3e-5 z"
       id="path5333"
       inkscape:connector-curvature="0"
       sodipodi:nodetypes="ssssssccscccccccsccccsccscccc" />
    <path
       style="opacity:0.1;fill:#000000;fill-opacity:1;stroke:none;display:inline"
       d="m 48,963.7684 c -22.39236,0 -40.59375,18.20136 -40.59375,40.5938 0,22.3923 18.20139,40.5938 40.59375,40.5938 22.392351,0 40.59375,-18.2015 40.59375,-40.5938 0,-22.39243 -18.201399,-40.59379 -40.59375,-40.59379 z m 0,16.15625 c 3.099175,0 6.050555,0.61046 8.75,1.71875 l -2.40625,3.71875 c -1.984429,-0.71493 -4.113221,-1.125 -6.34375,-1.125 -10.35399,0 -18.75,8.39602 -18.75,18.75005 l -0.0315,4.3047 2.343739,0 -4.484239,6.1798 -4.48425,-6.172 2.34375,0 0,-4.3125 c 0,-12.73852 10.32405,-23.06255 23.0625,-23.06255 z m 20.921879,12.57779 4.484371,6.17221 -2.341248,0.003 -0.0025,4.31005 c 0,12.7385 -10.32405,23.0625 -23.0625,23.0625 -3.099175,0 -6.050555,-0.6105 -8.75,-1.7187 l 2.40625,-3.7188 c 1.984429,0.7149 4.113221,1.125 6.34375,1.125 10.35399,0 18.75,-8.396 18.75,-18.75 l 0.02624,-4.30801 -2.340199,-0.002 z"
       id="path5329"
       inkscape:connector-curvature="0"
       sodipodi:nodetypes="csssccsccscccccccsccccsccscccc" />
    <path
       style="opacity:0.15;fill:#000000;fill-opacity:1;stroke:none;display:inline"
       d="m 47.999999,965.3309 c -21.53403,0 -39.031248,17.49725 -39.031248,39.0313 0,21.534 17.497218,39.0313 39.031248,39.0313 21.53405,0 39.03125,-17.4973 39.03125,-39.0313 0,-21.53404 -17.4972,-39.03129 -39.03125,-39.03129 z m 0,13.15625 c 3.90382,0 7.59955,0.90701 10.875,2.53125 l -3.9375,6.09375 c -2.12592,-0.9299 -4.469014,-1.46875 -6.9375,-1.46875 -9.577309,0 -17.3125,7.76644 -17.3125,17.3438 l -0.03125,2.875 3.78125,0 -7.359499,10.1295 -7.359251,-10.1295 3.78125,0 c 0,0 3.19e-4,-2.875 0,-2.875 0,-13.53085 10.9692,-24.50005 24.5,-24.50005 z m 20.921875,11.49572 7.359375,10.12933 -3.78125,0 c 0,0 0.005,2.875 0,2.875 0,13.5308 -10.9692,24.5 -24.5,24.5 -3.903819,0 -7.599553,-0.907 -10.875,-2.5312 l 3.9375,-6.0938 c 2.123285,0.9273 4.46835,1.4375 6.9375,1.4375 9.57731,0 17.34375,-7.7352 17.34375,-17.3125 l 0,-2.875 -3.781249,0 z"
       id="path5325"
       inkscape:connector-curvature="0"
       sodipodi:nodetypes="ssssssccscccccccsccccsccscccc" />
    <path
       style="opacity:0.3;fill:#000000;fill-opacity:1;stroke:none;display:inline"
       d="m 48.000001,966.79971 c -20.744085,0 -37.562502,16.8184 -37.562502,37.56249 0,20.7441 16.818417,37.5625 37.562502,37.5625 20.74409,0 37.5625,-16.8184 37.5625,-37.5625 0,-20.74409 -16.81841,-37.56249 -37.5625,-37.56249 z m 0,10.25 c 4.699791,0 9.10437,1.2512 12.90625,3.4375 l -5.46875,8.4375 c -2.21876,-1.17602 -4.753609,-1.84375 -7.4375,-1.84375 -8.778565,0 -15.906255,7.12765 -15.906255,15.90624 l 0,1.4375 5.15625,0 -10.171875,14.0004 -10.171875,-14.0004 5.15625,0 0,-1.4375 c 0,-14.32321 11.61434,-25.93749 25.937505,-25.93749 z m 20.921875,10.49959 10.171875,14.0004 -5.15625,0 0,1.4375 c 0,14.3232 -11.61434,25.9375 -25.9375,25.9375 -4.715325,0 -9.127084,-1.269 -12.937505,-3.4687 l 5.46875,-8.4063 c 2.2247,1.1842 4.77484,1.8438 7.468755,1.8438 8.77856,0 15.90625,-7.1277 15.90625,-15.9063 l 0,-1.4375 -5.156251,0 z"
       id="path5321"
       inkscape:connector-curvature="0"
       sodipodi:nodetypes="ssssssccscccccccsccccsccscccc" />
    <path
       style="fill:url(#linearGradient3434);fill-opacity:1;stroke:none;display:inline"
       d="m 129.89894,761.56335 c -20.74408,0 -37.562501,17.04225 -37.562501,38.0625 0,21.0202 16.818421,38.0625 37.562501,38.0625 20.74408,0 37.5625,-17.0423 37.5625,-38.0625 0,-21.02025 -16.81842,-38.0625 -37.5625,-38.0625 z m 0,10.32311 c 5.51006,0 10.6426,1.65814 14.9375,4.49657 l -7.03125,10.95641 c -2.27169,-1.5039 -4.99244,-2.37495 -7.90625,-2.37495 -7.98604,0 -14.46875,6.56898 -14.46875,14.66136 l 6.5625,0 -13.01575,17.9143 -13.015501,-17.9143 6.562501,0 c 0,-15.32006 12.25619,-27.7394 27.375,-27.7394 z m 20.92188,9.82492 13.01562,17.91447 -6.5625,0 c 0,15.3201 -12.25622,27.7394 -27.375,27.7394 -5.50077,0 -10.6158,-1.667 -14.90625,-4.4966 l 7,-10.9564 c 2.27168,1.504 4.99243,2.3749 7.90625,2.3749 7.98603,0 14.46875,-6.569 14.46875,-14.6613 l -6.5625,0 z"
       id="path5317"
       inkscape:connector-curvature="0"
       sodipodi:nodetypes="ssssscccsccccccccccsccsccc" />
    <path
       style="fill:url(#linearGradient4004);fill-opacity:1;stroke:none;display:inline"
       d="m 48,964.9247 c -20.74408,0 -37.5625,17.04225 -37.5625,38.0625 0,21.0202 16.81842,38.0625 37.5625,38.0625 20.74408,0 37.5625,-17.0423 37.5625,-38.0625 0,-21.02025 -16.81842,-38.0625 -37.5625,-38.0625 z m 0,10.32311 c 5.51006,0 10.6426,1.65814 14.9375,4.49657 l -7.03125,10.95641 c -2.27169,-1.5039 -4.99244,-2.37495 -7.90625,-2.37495 -7.98604,0 -14.46875,6.56898 -14.46875,14.66136 l 6.5625,0 -13.01575,17.9143 -13.0155,-17.9143 6.5625,0 c 0,-15.32006 12.25619,-27.7394 27.375,-27.7394 z m 20.92188,9.82492 13.01562,17.91447 -6.5625,0 c 0,15.3201 -12.25622,27.7394 -27.375,27.7394 -5.50077,0 -10.6158,-1.667 -14.90625,-4.4966 l 7,-10.9564 c 2.27168,1.504 4.99243,2.3749 7.90625,2.3749 7.98603,0 14.46875,-6.569 14.46875,-14.6613 l -6.5625,0 z"
       id="path5317-9"
       inkscape:connector-curvature="0"
       sodipodi:nodetypes="ssssscccsccccccccccsccsccc" />
    <path
       style="fill:#ffffff;fill-opacity:0.74901961;stroke:none;display:inline"
       d="m 48,964.9247 c -20.723192,0 -37.528678,16.8472 -37.5625,37.5625 0.445668,-20.3571 17.098496,-36.7813 37.5625,-36.7813 20.464007,0 37.116838,16.4242 37.5625,36.7813 C 85.52868,981.7719 68.723194,964.9247 48,964.9247 z"
       id="path3838"
       inkscape:connector-curvature="0"
       sodipodi:nodetypes="scscs" />
    <path
       style="fill:#000000;fill-opacity:0.14901961;stroke:none;display:inline"
       d="m 10.4375,1003.4872 c 0.03383,20.7153 16.839308,37.5625 37.5625,37.5625 20.723194,0 37.528678,-16.8472 37.5625,-37.5625 -0.445667,20.3555 -17.098493,36 -37.5625,36 -20.464004,0 -37.116837,-15.6445 -37.5625,-36 z"
       id="path3758"
       inkscape:connector-curvature="0"
       sodipodi:nodetypes="cscsc" />
    <g
       id="g4462"
       transform="translate(-37.422,-95.5232)">
      <path
         sodipodi:nodetypes="ccccccccccc"
         inkscape:connector-curvature="0"
         id="path4156-4"
         d="m 56.65625,1097.081 -7.96875,0 15.8125,21.7812 15.84375,-21.7812 -7.875,0 -1.5155,1.4294 6.5625,0 -13.01575,17.9143 -13.0155,-17.9143 6.5625,0 z"
         style="fill:url(#linearGradient4467);fill-opacity:1;stroke:none" />
      <path
         sodipodi:nodetypes="ccsccsccc"
         inkscape:connector-curvature="0"
         id="path4156-7"
         d="m 100.3595,1075.2676 -7.03125,10.9564 c -2.26753,-1.5073 -4.98368,-2.3617 -7.89075,-2.3617 -7.99087,0 -14.48425,6.6572 -14.48425,14.6481 l 1.5155,-1.4294 c 0.71031,-6.5487 6.25253,-11.7812 12.96875,-11.7812 3.13372,0 6.00242,1.1487 8.25,3.0312 l 8.625,-13.4063 z"
         style="fill:url(#linearGradient4469);fill-opacity:1;stroke:none" />
      <path
         sodipodi:nodetypes="sccsccs"
         inkscape:connector-curvature="0"
         id="path4156-7-5"
         transform="translate(0,956.3622)"
         d="m 85.4375,112.96875 c -15.42467,0 -28.02518,12.4912 -28.78125,27.75 l 1.390751,1.42171 c 0,-15.1188 12.271699,-27.70296 27.390499,-27.70296 5.51008,0 10.6271,1.60338 14.922,4.46788 l 1.953,-0.34288 c -4.74269,-3.5033 -10.57385,-5.59375 -16.875,-5.59375 z"
         style="fill:url(#linearGradient4471);fill-opacity:1;stroke:none" />
    </g>
    <g
       id="g4534"
       transform="translate(-88.04687,-93.44572)">
      <path
         sodipodi:nodetypes="ccccccccccc"
         inkscape:connector-curvature="0"
         id="path4023-2"
         transform="translate(0,956.3622)"
         d="M 156.96875,119.71875 141.125,141.5 l 7.875,0 1.51562,-1.42928 -6.5625,0 13.01563,-17.91425 13.01562,17.91425 -6.5625,0 1.39063,1.4295 7.96875,0 z"
         style="fill:url(#linearGradient4539);fill-opacity:1;stroke:none" />
      <path
         sodipodi:nodetypes="csccscc"
         inkscape:connector-curvature="0"
         id="path4023-22"
         d="m 163.42187,1096.4329 c 0,15.1188 -12.24058,27.7418 -27.35937,27.7418 -5.50076,0 -10.63143,-1.6435 -14.92188,-4.499 l -1.95312,0.374 c 4.73649,3.488 10.58901,5.5625 16.875,5.5625 15.42467,0 27.99394,-12.4913 28.75,-27.75 z"
         style="fill:url(#linearGradient4541);fill-opacity:1;stroke:none" />
      <path
         sodipodi:nodetypes="csccccscc"
         inkscape:connector-curvature="0"
         id="path4023-7"
         d="m 149,1097.8622 c -0.71031,6.5487 -6.22129,11.7813 -12.9375,11.7813 -3.13372,0 -6.00243,-1.1488 -8.25,-3.0313 l -8.625,13.4375 1.95312,-0.374 7,-10.9564 c 2.26753,1.5072 5.0148,2.3929 7.92188,2.3929 7.99087,0 14.45312,-6.6884 14.45312,-14.6793 z"
         style="fill:url(#linearGradient4543);fill-opacity:1;stroke:none" />
    </g>
  </g>
</svg>
