<?xml version="1.0" encoding="UTF-8" standalone="no"?>
<!-- Created with Inkscape (http://www.inkscape.org/) -->

<svg
   xmlns:dc="http://purl.org/dc/elements/1.1/"
   xmlns:cc="http://creativecommons.org/ns#"
   xmlns:rdf="http://www.w3.org/1999/02/22-rdf-syntax-ns#"
   xmlns:svg="http://www.w3.org/2000/svg"
   xmlns="http://www.w3.org/2000/svg"
   version="1.1"
   width="16"
   height="16"
   id="svg7384">
  <title
     id="title9167">Gnome Symbolic Icon Theme</title>
  <defs
     id="defs11" />
  <metadata
     id="metadata90">
    <rdf:RDF>
      <cc:Work
         rdf:about="">
        <dc:format>image/svg+xml</dc:format>
        <dc:type
           rdf:resource="http://purl.org/dc/dcmitype/StillImage" />
        <dc:title>Gnome Symbolic Icon Theme</dc:title>
      </cc:Work>
    </rdf:RDF>
  </metadata>
  <g
     transform="translate(-241,-667)"
     id="layer12" />
  <g
     transform="translate(-261,-666.99955)"
     id="layer12-7">
    <path
       d="m 268,668.99955 v 12 h 2 v -12 h -2 z"
       id="path15417"
       style="text-indent:0;text-transform:none;block-progression:tb;color:#000000;fill:#bebebe" />
    <path
       d="m 265.81356,671.99955 v -0.75064 c 0,-0.19913 0.0733,-0.39826 0.22167,-0.53952 l 2.93092,-2.79146 2.93093,2.79146 c 0.14828,0.14125 0.22164,0.34037 0.22166,0.53952 v 0.75064 h -0.78813 c -0.2091,0 -0.41818,-0.0699 -0.56648,-0.21112 l -1.7979,-1.71235 -1.7979,1.71235 c -0.14831,0.1412 -0.35738,0.21115 -0.56647,0.21112 z"
       id="path3613-6-6-5-4-5"
       style="text-indent:0;text-transform:none;block-progression:tb;color:#000000;fill:#bebebe" />
    <path
       d="m 272.11918,678.21297 v 0.75064 c 0,0.19913 -0.0733,0.39826 -0.22167,0.53952 l -2.93092,2.79146 -2.93093,-2.79146 c -0.14828,-0.14125 -0.22164,-0.34037 -0.22166,-0.53952 v -0.75064 h 0.78813 c 0.2091,0 0.41818,0.0699 0.56648,0.21112 l 1.7979,1.71235 1.7979,-1.71235 c 0.14831,-0.1412 0.35738,-0.21115 0.56647,-0.21112 z"
       id="path3613-6-6-5-4-5-0"
       style="text-indent:0;text-transform:none;block-progression:tb;color:#000000;fill:#bebebe" />
    <path
       d="m 274.97112,674.10098 -12,0 0,2 12,0 0,-2 z"
       id="path15417-0"
       style="text-indent:0;text-transform:none;block-progression:tb;color:#000000;fill:#bebebe" />
    <path
       d="m 271.97112,671.91454 0.75064,0 c 0.19913,0 0.39826,0.0733 0.53952,0.22167 l 2.79146,2.93092 -2.79146,2.93093 c -0.14125,0.14828 -0.34037,0.22164 -0.53952,0.22166 l -0.75064,0 0,-0.78813 c 0,-0.2091 0.0699,-0.41818 0.21112,-0.56648 l 1.71235,-1.7979 -1.71235,-1.7979 c -0.1412,-0.14831 -0.21115,-0.35738 -0.21112,-0.56647 z"
       id="path3613-6-6-5-4-5-5"
       style="text-indent:0;text-transform:none;block-progression:tb;color:#000000;fill:#bebebe" />
    <path
       d="m 265.7577,678.22016 -0.75064,0 c -0.19913,0 -0.39826,-0.0733 -0.53952,-0.22167 l -2.79146,-2.93092 2.79146,-2.93093 c 0.14125,-0.14828 0.34037,-0.22164 0.53952,-0.22166 l 0.75064,0 0,0.78813 c 0,0.2091 -0.0699,0.41818 -0.21112,0.56648 l -1.71235,1.7979 1.71235,1.7979 c 0.1412,0.14831 0.21115,0.35738 0.21112,0.56647 z"
       id="path3613-6-6-5-4-5-0-5"
       style="text-indent:0;text-transform:none;block-progression:tb;color:#000000;fill:#bebebe" />
  </g>
</svg>
