<?xml version="1.0" encoding="UTF-8" standalone="no"?>
<svg xmlns="http://www.w3.org/2000/svg" height="16" width="16" version="1.1">
 <path d="m8 0.34375-2.9375 2.7812c-0.1484 0.1413-0.2187 0.3634-0.2187 0.5625v0.75h0.78125c0.20909 0 0.41419-0.07755 0.5625-0.21875l0.8125-0.7813v3.5625h-3.5625l0.7813-0.8125c0.1412-0.1483 0.2187-0.3534 0.2187-0.5625v-0.78125h-0.75c-0.1991 0-0.4213 0.0704-0.5625 0.2187l-2.7812 2.9375 2.7812 2.938c0.14126 0.14837 0.36337 0.21875 0.5625 0.21875h0.75v-0.78125c0-0.21-0.0775-0.4152-0.2187-0.5635l-0.7813-0.8125h3.5625v3.562l-0.8125-0.781c-0.1483-0.141-0.3534-0.219-0.5625-0.219h-0.78125v0.75c0 0.19915 0.07047 0.42125 0.21875 0.5625l2.9374 2.782 2.938-2.781c0.14837-0.14126 0.21875-0.36337 0.21875-0.5625v-0.75h-0.78125c-0.20909-0-0.41419 0.07755-0.5625 0.21875l-0.8135 0.781v-3.562h3.562l-0.781 0.8125c-0.141 0.1483-0.219 0.3535-0.219 0.5625v0.78125h0.75c0.19915-0 0.42125-0.07047 0.5625-0.21875l2.782-2.937-2.781-2.9375c-0.141-0.1484-0.363-0.2187-0.563-0.2187h-0.75v0.78125c-0 0.20909 0.07755 0.41419 0.21875 0.5625l0.781 0.8125h-3.562v-3.5625l0.8125 0.7813c0.1483 0.1412 0.3535 0.2187 0.5625 0.2187h0.78125v-0.75c0-0.1991-0.07-0.4213-0.218-0.5625l-2.938-2.7812z" fill="#bebebe"/>
</svg>
