<?xml version="1.0" encoding="UTF-8" standalone="no"?>
<!-- Created with Inkscape (http://www.inkscape.org/) -->

<svg
   xmlns:dc="http://purl.org/dc/elements/1.1/"
   xmlns:cc="http://creativecommons.org/ns#"
   xmlns:rdf="http://www.w3.org/1999/02/22-rdf-syntax-ns#"
   xmlns:svg="http://www.w3.org/2000/svg"
   xmlns="http://www.w3.org/2000/svg"
   xmlns:xlink="http://www.w3.org/1999/xlink"
   xmlns:sodipodi="http://sodipodi.sourceforge.net/DTD/sodipodi-0.dtd"
   xmlns:inkscape="http://www.inkscape.org/namespaces/inkscape"
   version="1.0"
   width="96"
   height="96"
   id="svg2408"
   style="display:inline"
   inkscape:version="0.48.3.1 r9886"
   sodipodi:docname="installed.svg">
  <metadata
     id="metadata55">
    <rdf:RDF>
      <cc:Work
         rdf:about="">
        <dc:format>image/svg+xml</dc:format>
        <dc:type
           rdf:resource="http://purl.org/dc/dcmitype/StillImage" />
      </cc:Work>
    </rdf:RDF>
  </metadata>
  <sodipodi:namedview
     pagecolor="#ffffff"
     bordercolor="#666666"
     borderopacity="1"
     objecttolerance="10"
     gridtolerance="10"
     guidetolerance="10"
     inkscape:pageopacity="0"
     inkscape:pageshadow="2"
     inkscape:window-width="1280"
     inkscape:window-height="974"
     id="namedview53"
     showgrid="false"
     inkscape:zoom="2.8284271"
     inkscape:cx="86.727488"
     inkscape:cy="47.321369"
     inkscape:window-x="0"
     inkscape:window-y="0"
     inkscape:window-maximized="1"
     inkscape:current-layer="svg2408"
     inkscape:snap-bbox="true"
     inkscape:bbox-paths="true"
     inkscape:bbox-nodes="true"
     inkscape:snap-bbox-edge-midpoints="true"
     inkscape:snap-bbox-midpoints="true"
     inkscape:object-paths="true"
     inkscape:snap-intersection-paths="true"
     inkscape:object-nodes="true"
     inkscape:snap-smooth-nodes="true"
     inkscape:snap-midpoints="true"
     inkscape:snap-object-midpoints="true"
     inkscape:snap-page="true"
     showguides="true"
     inkscape:guide-bbox="true">
    <inkscape:grid
       type="xygrid"
       id="grid5670" />
  </sodipodi:namedview>
  <defs
     id="defs2410">
    <linearGradient
       id="linearGradient3637">
      <stop
         id="stop3639"
         style="stop-color:#f0f0f0;stop-opacity:1"
         offset="0" />
      <stop
         id="stop3641"
         style="stop-color:#dcdcdc;stop-opacity:1"
         offset="1" />
    </linearGradient>
    <linearGradient
       x1="45.447727"
       y1="92.539597"
       x2="45.447727"
       y2="7.0165396"
       id="ButtonShadow"
       gradientUnits="userSpaceOnUse"
       gradientTransform="scale(1.0058652,0.994169)">
      <stop
         id="stop3750"
         style="stop-color:#000000;stop-opacity:1"
         offset="0" />
      <stop
         id="stop3752"
         style="stop-color:#000000;stop-opacity:0.58823532"
         offset="1" />
    </linearGradient>
    <linearGradient
       id="linearGradient3737">
      <stop
         id="stop3739"
         style="stop-color:#ffffff;stop-opacity:1"
         offset="0" />
      <stop
         id="stop3741"
         style="stop-color:#ffffff;stop-opacity:0"
         offset="1" />
    </linearGradient>
    <linearGradient
       id="linearGradient3700">
      <stop
         id="stop3702"
         style="stop-color:#2276c5;stop-opacity:1"
         offset="0" />
      <stop
         id="stop3704"
         style="stop-color:#68baf4;stop-opacity:1"
         offset="1" />
    </linearGradient>
    <filter
       color-interpolation-filters="sRGB"
       id="filter3174">
      <feGaussianBlur
         id="feGaussianBlur3176"
         stdDeviation="1.71" />
    </filter>
    <linearGradient
       x1="36.357143"
       y1="6"
       x2="36.357143"
       y2="63.893143"
       id="linearGradient3188"
       xlink:href="#linearGradient3737"
       gradientUnits="userSpaceOnUse" />
    <radialGradient
       cx="48"
       cy="90.171875"
       r="42"
       fx="48"
       fy="90.171875"
       id="radialGradient3619"
       xlink:href="#linearGradient3737"
       gradientUnits="userSpaceOnUse"
       gradientTransform="matrix(1.1573129,0,0,0.99590774,-7.5510206,0.19713193)" />
    <linearGradient
       x1="48"
       y1="90"
       x2="48"
       y2="5.9877172"
       id="linearGradient2843"
       xlink:href="#linearGradient3700"
       gradientUnits="userSpaceOnUse"
       gradientTransform="translate(0,100)" />
    <clipPath
       id="clipPath3625">
      <path
         d="M 0,0 0,96 96,96 96,0 0,0 z m 12,6 72,0 c 3.324,0 6,2.676 6,6 l 0,72 c 0,3.324 -2.676,6 -6,6 L 12,90 C 8.676,90 6,87.324 6,84 L 6,12 C 6,8.676 8.676,6 12,6 z"
         id="path3627"
         style="fill:#ffffff;fill-opacity:1;stroke:none" />
    </clipPath>
    <linearGradient
       x1="44.512066"
       y1="6"
       x2="44.512066"
       y2="90.015434"
       id="linearGradient3643"
       xlink:href="#linearGradient3637"
       gradientUnits="userSpaceOnUse" />
    <clipPath
       id="clipPath3649">
      <rect
         width="76"
         height="76"
         rx="4"
         ry="4"
         x="10"
         y="10"
         id="rect3651"
         style="fill:#ffffff;fill-opacity:1;fill-rule:nonzero;stroke:none" />
    </clipPath>
    <filter
       color-interpolation-filters="sRGB"
       id="filter3657">
      <feGaussianBlur
         id="feGaussianBlur3659"
         stdDeviation="1.14" />
    </filter>
    <linearGradient
       id="linearGradient4081">
      <stop
         id="stop4083"
         style="stop-color:#aaaaaa;stop-opacity:1"
         offset="0" />
      <stop
         id="stop4085"
         style="stop-color:#f0f0f0;stop-opacity:1"
         offset="1" />
    </linearGradient>
    <linearGradient
       x1="48"
       y1="72"
       x2="48"
       y2="24"
       id="linearGradient2950"
       xlink:href="#linearGradient4081"
       gradientUnits="userSpaceOnUse" />
    <linearGradient
       inkscape:collect="always"
       xlink:href="#linearGradient3700"
       id="linearGradient3037"
       gradientUnits="userSpaceOnUse"
       gradientTransform="translate(0,100)"
       x1="48"
       y1="90"
       x2="48"
       y2="5.9877172" />
    <radialGradient
       inkscape:collect="always"
       xlink:href="#linearGradient3737"
       id="radialGradient3040"
       gradientUnits="userSpaceOnUse"
       gradientTransform="matrix(1.1573129,0,0,0.99590774,-7.5510206,0.19713193)"
       cx="48"
       cy="90.171875"
       fx="48"
       fy="90.171875"
       r="42" />
    <linearGradient
       inkscape:collect="always"
       xlink:href="#linearGradient3737"
       id="linearGradient3043"
       gradientUnits="userSpaceOnUse"
       x1="36.357143"
       y1="6"
       x2="36.357143"
       y2="63.893143" />
    <linearGradient
       inkscape:collect="always"
       xlink:href="#linearGradient3637"
       id="linearGradient3046"
       gradientUnits="userSpaceOnUse"
       x1="44.512066"
       y1="6"
       x2="44.512066"
       y2="90.015434" />
    <linearGradient
       inkscape:collect="always"
       xlink:href="#linearGradient3904"
       id="linearGradient3003"
       gradientUnits="userSpaceOnUse"
       gradientTransform="matrix(4.5355736,0,0,3.5276684,4,4)"
       x1="8.7404661"
       y1="4.5355735"
       x2="8.7404661"
       y2="20.492353" />
    <linearGradient
       x1="11"
       y1="3.9374998"
       x2="11"
       y2="18.083122"
       id="linearGradient3904"
       gradientUnits="userSpaceOnUse">
      <stop
         id="stop3906"
         style="stop-color:#323232;stop-opacity:1"
         offset="0" />
      <stop
         id="stop3908"
         style="stop-color:#787878;stop-opacity:1"
         offset="1" />
    </linearGradient>
    <linearGradient
       y2="20.492353"
       x2="8.7404661"
       y1="4.5355735"
       x1="8.7404661"
       gradientTransform="matrix(4.5355736,0,0,3.5276684,90.757773,20.791423)"
       gradientUnits="userSpaceOnUse"
       id="linearGradient3041"
       xlink:href="#linearGradient3904"
       inkscape:collect="always" />
    <linearGradient
       inkscape:collect="always"
       xlink:href="#linearGradient4081"
       id="linearGradient5680"
       gradientUnits="userSpaceOnUse"
       x1="48"
       y1="72"
       x2="48"
       y2="24" />
    <linearGradient
       inkscape:collect="always"
       xlink:href="#linearGradient3904-8"
       id="linearGradient3003-3"
       gradientUnits="userSpaceOnUse"
       gradientTransform="matrix(4.5355736,0,0,3.5276684,4,4)"
       x1="8.7404661"
       y1="4.5355735"
       x2="8.7404661"
       y2="20.492353" />
    <linearGradient
       x1="11"
       y1="3.9374998"
       x2="11"
       y2="18.083122"
       id="linearGradient3904-8"
       gradientUnits="userSpaceOnUse">
      <stop
         id="stop3906-3"
         style="stop-color:#323232;stop-opacity:1"
         offset="0" />
      <stop
         id="stop3908-7"
         style="stop-color:#787878;stop-opacity:1"
         offset="1" />
    </linearGradient>
    <linearGradient
       inkscape:collect="always"
       xlink:href="#linearGradient3904-2"
       id="linearGradient3003-2"
       gradientUnits="userSpaceOnUse"
       gradientTransform="matrix(4.5355736,0,0,3.5276684,4,4)"
       x1="8.7404661"
       y1="4.5355735"
       x2="8.7404661"
       y2="20.492353" />
    <linearGradient
       x1="11"
       y1="3.9374998"
       x2="11"
       y2="18.083122"
       id="linearGradient3904-2"
       gradientUnits="userSpaceOnUse">
      <stop
         id="stop3906-5"
         style="stop-color:#323232;stop-opacity:1"
         offset="0" />
      <stop
         id="stop3908-0"
         style="stop-color:#787878;stop-opacity:1"
         offset="1" />
    </linearGradient>
    <linearGradient
       inkscape:collect="always"
       xlink:href="#linearGradient4081-0"
       id="linearGradient3885"
       gradientUnits="userSpaceOnUse"
       gradientTransform="matrix(1.5650203,0,0,1.5650203,-27.12097,-28.499428)"
       x1="48"
       y1="72"
       x2="48"
       y2="24" />
    <linearGradient
       id="linearGradient4081-0">
      <stop
         id="stop4083-0"
         style="stop-color:#aaaaaa;stop-opacity:1"
         offset="0" />
      <stop
         id="stop4085-7"
         style="stop-color:#f0f0f0;stop-opacity:1"
         offset="1" />
    </linearGradient>
    <linearGradient
       inkscape:collect="always"
       xlink:href="#linearGradient4081-0"
       id="linearGradient3089"
       gradientUnits="userSpaceOnUse"
       gradientTransform="matrix(1.5650203,0,0,1.5650203,-27.120971,-28.49943)"
       x1="48"
       y1="72"
       x2="48"
       y2="24" />
    <linearGradient
       inkscape:collect="always"
       xlink:href="#linearGradient3830"
       id="linearGradient3836"
       x1="47.999996"
       y1="67.438095"
       x2="47.999996"
       y2="-14.752663"
       gradientUnits="userSpaceOnUse"
       spreadMethod="pad" />
    <linearGradient
       id="linearGradient3830">
      <stop
         style="stop-color:#fafafa;stop-opacity:0.78431374;"
         offset="0"
         id="stop3832" />
      <stop
         style="stop-color:#000000;stop-opacity:0.07843138;"
         offset="1"
         id="stop3834" />
    </linearGradient>
    <linearGradient
       gradientTransform="translate(-6.3151351,3.683285)"
       y2="20.778963"
       x2="47.999992"
       y1="65.762291"
       x1="47.999992"
       spreadMethod="pad"
       gradientUnits="userSpaceOnUse"
       id="linearGradient3070"
       xlink:href="#linearGradient3830"
       inkscape:collect="always" />
    <linearGradient
       inkscape:collect="always"
       xlink:href="#linearGradient3830"
       id="linearGradient3141"
       gradientUnits="userSpaceOnUse"
       gradientTransform="translate(-6.3151351,3.683285)"
       spreadMethod="pad"
       x1="47.999992"
       y1="65.762291"
       x2="47.999992"
       y2="20.778963" />
    <linearGradient
       inkscape:collect="always"
       xlink:href="#linearGradient4081-0"
       id="linearGradient3146"
       gradientUnits="userSpaceOnUse"
       gradientTransform="matrix(1.5650203,0,0,1.5650203,-27.120971,-28.49943)"
       x1="48"
       y1="72"
       x2="48"
       y2="24" />
  </defs>
  <rect
     y="26.495178"
     x="21.29191"
     height="40.917469"
     width="52.65976"
     id="rect3099"
     style="fill:#5aa02c;fill-opacity:1;stroke:none" />
  <path
     sodipodi:nodetypes="sssssccccccc"
     inkscape:connector-curvature="0"
     id="path5333"
     d="M 48,5.6875002 C 24.67305,5.6875002 5.6875,24.673051 5.6875,48 5.6875,71.32695 24.67305,90.3125 48,90.3125 71.32695,90.3125 90.3125,71.32695 90.3125,48 90.3125,24.673051 71.32695,5.6875002 48,5.6875002 z m 17.432718,28.9394048 0.387222,0.420152 -24.135082,24.233861 -12.261221,-12.32701 0.387264,-0.42015 11.873962,11.906851 z"
     style="opacity:0.09;fill:#000000;fill-opacity:1;stroke:none;display:inline" />
  <path
     sodipodi:nodetypes="sssssccccccc"
     inkscape:connector-curvature="0"
     id="path5329"
     d="M 47.999998,7.40625 C 25.607648,7.40625 7.406252,25.607654 7.406252,48 c 0,22.392346 18.201396,40.59375 40.593746,40.59375 22.39235,0 40.59375,-18.201404 40.59375,-40.59375 0,-22.392346 -18.2014,-40.59375 -40.59375,-40.59375 z M 41.684863,56.407677 65.432718,32.593973 67.852872,35.047057 41.684858,61.31385 27.390705,46.953908 29.810901,44.500826 z"
     style="opacity:0.1;fill:#000000;fill-opacity:1;stroke:none;display:inline" />
  <path
     sodipodi:nodetypes="sssssccccccc"
     inkscape:connector-curvature="0"
     id="path5325"
     d="M 47.999998,8.96875 C 26.465958,8.96875 8.968752,26.46596 8.968752,48 c 0,21.53404 17.497206,39.03125 39.031246,39.03125 21.53404,0 39.03125,-17.49721 39.03125,-39.03125 0,-21.53404 -17.49721,-39.03125 -39.03125,-39.03125 z M 41.684863,54.374745 65.432718,30.561041 69.885804,35.047057 41.684858,63.346782 25.357773,46.953908 29.810901,42.467894 z"
     style="opacity:0.15;fill:#000000;fill-opacity:1;stroke:none;display:inline" />
  <path
     sodipodi:nodetypes="sssssccccccc"
     inkscape:connector-curvature="0"
     id="path5321"
     d="M 48,10.4375 C 27.25592,10.4375 10.4375,27.255916 10.4375,48 10.4375,68.744084 27.25592,85.5625 48,85.5625 68.74408,85.5625 85.5625,68.744084 85.5625,48 85.5625,27.255916 68.74408,10.4375 48,10.4375 z m -6.315137,41.904313 23.747855,-23.813704 6.486018,6.518948 -30.233878,30.332657 -18.360017,-18.425806 6.48606,-6.518946 z"
     style="opacity:0.3;fill:#000000;fill-opacity:1;stroke:none;display:inline" />
  <path
     sodipodi:nodetypes="sssssccccccc"
     inkscape:connector-curvature="0"
     id="path5317"
     d="m 48,9.0625 c -20.74408,0 -37.5625,16.81842 -37.5625,37.5625 0,20.744079 16.81842,37.5625 37.5625,37.5625 20.74408,0 37.5625,-16.818421 37.5625,-37.5625 C 85.5625,25.88092 68.74408,9.0625 48,9.0625 z m -6.31514,41.246379 23.74786,-23.8137 8.51895,8.55188 -32.26681,32.36559 -20.39295,-20.45874 8.51899,-8.55188 z"
     style="fill:url(#linearGradient3146);fill-opacity:1;stroke:none;display:inline" />
  <path
     sodipodi:nodetypes="cscsc"
     inkscape:connector-curvature="0"
     id="path3758"
     d="M 10.4375,46.624999 C 10.47133,67.340279 27.276807,84.1875 48,84.1875 68.723194,84.1875 85.528677,67.340275 85.5625,46.624999 85.116832,66.980454 68.464006,82.625 48,82.625 27.535995,82.625 10.883162,66.980459 10.4375,46.624999 z"
     style="opacity:0.15;fill:#000000;fill-opacity:1;stroke:none;display:inline" />
  <path
     sodipodi:nodetypes="scscs"
     inkscape:connector-curvature="0"
     id="path3838"
     d="M 48,9.0625 C 27.276808,9.0625 10.471322,25.909721 10.4375,46.625 10.883168,26.267954 27.535996,9.84375 48,9.84375 68.464007,9.84375 85.116838,26.267954 85.5625,46.625 85.52868,25.909721 68.723194,9.0625 48,9.0625 z"
     style="opacity:0.75;fill:#ffffff;fill-opacity:1;stroke:none;display:inline" />
  <path
     sodipodi:nodetypes="cccccccccccccc"
     inkscape:connector-curvature="0"
     id="path3057"
     d="M 65.432721,24.462248 41.68486,48.275947 29.8109,36.369098 19.258977,46.953908 41.684859,69.445578 75.9846,35.047057 z m -10e-7,2.032931 8.51895,8.55188 -32.266808,32.365588 -20.392952,-20.458738 8.51899,-8.55188 11.87396,11.90685 z"
     style="fill:url(#linearGradient3141);fill-opacity:1;stroke:none;display:inline" />
</svg>
