<?xml version="1.0" encoding="UTF-8" standalone="no"?>
<!-- Created with Inkscape (http://www.inkscape.org/) -->

<svg
   xmlns:dc="http://purl.org/dc/elements/1.1/"
   xmlns:cc="http://creativecommons.org/ns#"
   xmlns:rdf="http://www.w3.org/1999/02/22-rdf-syntax-ns#"
   xmlns:svg="http://www.w3.org/2000/svg"
   xmlns="http://www.w3.org/2000/svg"
   xmlns:xlink="http://www.w3.org/1999/xlink"
   xmlns:sodipodi="http://sodipodi.sourceforge.net/DTD/sodipodi-0.dtd"
   xmlns:inkscape="http://www.inkscape.org/namespaces/inkscape"
   sodipodi:docname="hicolor_emblems_scalable_cs-xlet-danger.svg"
   inkscape:version="0.91 r13725"
   style="display:inline"
   id="svg2408"
   height="96"
   width="96"
   version="1.0">
  <metadata
     id="metadata55">
    <rdf:RDF>
      <cc:Work
         rdf:about="">
        <dc:format>image/svg+xml</dc:format>
        <dc:type
           rdf:resource="http://purl.org/dc/dcmitype/StillImage" />
        <dc:title />
      </cc:Work>
    </rdf:RDF>
  </metadata>
  <sodipodi:namedview
     pagecolor="#ffffff"
     bordercolor="#666666"
     borderopacity="1"
     objecttolerance="10"
     gridtolerance="10"
     guidetolerance="10"
     inkscape:pageopacity="0"
     inkscape:pageshadow="2"
     inkscape:window-width="1920"
     inkscape:window-height="1007"
     id="namedview53"
     showgrid="true"
     inkscape:zoom="5.6568543"
     inkscape:cx="33.600327"
     inkscape:cy="35.752872"
     inkscape:window-x="0"
     inkscape:window-y="25"
     inkscape:window-maximized="1"
     inkscape:current-layer="svg2408"
     showguides="true"
     inkscape:snap-bbox="true"
     inkscape:bbox-paths="true"
     inkscape:bbox-nodes="true"
     inkscape:snap-bbox-edge-midpoints="true"
     inkscape:snap-bbox-midpoints="true"
     inkscape:object-paths="true"
     inkscape:snap-intersection-paths="true"
     inkscape:object-nodes="true"
     inkscape:snap-smooth-nodes="true"
     inkscape:snap-midpoints="true"
     inkscape:snap-object-midpoints="true"
     inkscape:guide-bbox="true"
     inkscape:snap-page="true" />
  <defs
     id="defs2410">
    <linearGradient
       id="linearGradient3830">
      <stop
         style="stop-color:#fafafa;stop-opacity:0.78431374;"
         offset="0"
         id="stop3832" />
      <stop
         style="stop-color:#000000;stop-opacity:0.07843138;"
         offset="1"
         id="stop3834" />
    </linearGradient>
    <linearGradient
       id="linearGradient3637">
      <stop
         id="stop3639"
         style="stop-color:#f0f0f0;stop-opacity:1"
         offset="0" />
      <stop
         id="stop3641"
         style="stop-color:#dcdcdc;stop-opacity:1"
         offset="1" />
    </linearGradient>
    <linearGradient
       x1="45.447727"
       y1="92.539597"
       x2="45.447727"
       y2="7.0165396"
       id="ButtonShadow"
       gradientUnits="userSpaceOnUse"
       gradientTransform="scale(1.0058652,0.994169)">
      <stop
         id="stop3750"
         style="stop-color:#000000;stop-opacity:1"
         offset="0" />
      <stop
         id="stop3752"
         style="stop-color:#000000;stop-opacity:0.58823532"
         offset="1" />
    </linearGradient>
    <linearGradient
       id="linearGradient3737">
      <stop
         id="stop3739"
         style="stop-color:#ffffff;stop-opacity:1"
         offset="0" />
      <stop
         id="stop3741"
         style="stop-color:#ffffff;stop-opacity:0"
         offset="1" />
    </linearGradient>
    <linearGradient
       id="linearGradient3700">
      <stop
         id="stop3702"
         style="stop-color:#2276c5;stop-opacity:1"
         offset="0" />
      <stop
         id="stop3704"
         style="stop-color:#68baf4;stop-opacity:1"
         offset="1" />
    </linearGradient>
    <filter
       color-interpolation-filters="sRGB"
       id="filter3174">
      <feGaussianBlur
         id="feGaussianBlur3176"
         stdDeviation="1.71" />
    </filter>
    <linearGradient
       x1="36.357143"
       y1="6"
       x2="36.357143"
       y2="63.893143"
       id="linearGradient3188"
       xlink:href="#linearGradient3737"
       gradientUnits="userSpaceOnUse" />
    <radialGradient
       cx="48"
       cy="90.171875"
       r="42"
       fx="48"
       fy="90.171875"
       id="radialGradient3619"
       xlink:href="#linearGradient3737"
       gradientUnits="userSpaceOnUse"
       gradientTransform="matrix(1.1573129,0,0,0.99590774,-7.5510206,0.19713193)" />
    <linearGradient
       x1="48"
       y1="90"
       x2="48"
       y2="5.9877172"
       id="linearGradient2843"
       xlink:href="#linearGradient3700"
       gradientUnits="userSpaceOnUse"
       gradientTransform="translate(0,100)" />
    <clipPath
       id="clipPath3625">
      <path
         d="M 0,0 0,96 96,96 96,0 0,0 z m 12,6 72,0 c 3.324,0 6,2.676 6,6 l 0,72 c 0,3.324 -2.676,6 -6,6 L 12,90 C 8.676,90 6,87.324 6,84 L 6,12 C 6,8.676 8.676,6 12,6 z"
         id="path3627"
         style="fill:#ffffff;fill-opacity:1;stroke:none"
         inkscape:connector-curvature="0" />
    </clipPath>
    <linearGradient
       x1="44.512066"
       y1="6"
       x2="44.512066"
       y2="90.015434"
       id="linearGradient3643"
       xlink:href="#linearGradient3637"
       gradientUnits="userSpaceOnUse" />
    <clipPath
       id="clipPath3649">
      <rect
         width="76"
         height="76"
         rx="4"
         ry="4"
         x="10"
         y="10"
         id="rect3651"
         style="fill:#ffffff;fill-opacity:1;fill-rule:nonzero;stroke:none" />
    </clipPath>
    <filter
       color-interpolation-filters="sRGB"
       id="filter3657">
      <feGaussianBlur
         id="feGaussianBlur3659"
         stdDeviation="1.14" />
    </filter>
    <linearGradient
       id="linearGradient4081">
      <stop
         id="stop4083"
         style="stop-color:#aaaaaa;stop-opacity:1"
         offset="0" />
      <stop
         id="stop4085"
         style="stop-color:#f0f0f0;stop-opacity:1"
         offset="1" />
    </linearGradient>
    <linearGradient
       x1="48"
       y1="72"
       x2="48"
       y2="24"
       id="linearGradient3747"
       xlink:href="#linearGradient4081"
       gradientUnits="userSpaceOnUse" />
    <linearGradient
       inkscape:collect="always"
       xlink:href="#linearGradient3737"
       id="linearGradient3043"
       gradientUnits="userSpaceOnUse"
       x1="36.357143"
       y1="6"
       x2="36.357143"
       y2="63.893143" />
    <linearGradient
       inkscape:collect="always"
       xlink:href="#linearGradient4081"
       id="linearGradient3022"
       gradientUnits="userSpaceOnUse"
       x1="48"
       y1="72"
       x2="48"
       y2="24"
       gradientTransform="matrix(1.7613571,0,0,1.7613571,-36.545139,-38.120052)" />
    <linearGradient
       inkscape:collect="always"
       xlink:href="#linearGradient4081"
       id="linearGradient4954"
       gradientUnits="userSpaceOnUse"
       gradientTransform="matrix(1.7613571,0,0,1.7613571,-36.545139,-38.120052)"
       x1="48"
       y1="72"
       x2="48"
       y2="24" />
    <filter
       id="filter5299"
       y="-0.25"
       height="1.5"
       inkscape:menu-tooltip="Darkens the edge with an inner blur and adds a flexible glow"
       inkscape:menu="Shadows and Glows"
       inkscape:label="Dark and Glow"
       color-interpolation-filters="sRGB">
      <feGaussianBlur
         id="feGaussianBlur5301"
         stdDeviation="5"
         result="result6" />
      <feComposite
         id="feComposite5303"
         in2="result6"
         result="result8"
         in="SourceGraphic"
         operator="atop" />
      <feComposite
         id="feComposite5305"
         in2="SourceAlpha"
         result="result9"
         operator="over"
         in="result8" />
      <feColorMatrix
         id="feColorMatrix5307"
         values="1 0 0 0 0 0 1 0 0 0 0 0 1 0 0 0 0 0 1 0 "
         result="result10" />
      <feBlend
         id="feBlend5309"
         in2="result6"
         in="result10"
         mode="normal" />
    </filter>
    <linearGradient
       inkscape:collect="always"
       xlink:href="#linearGradient4081"
       id="linearGradient3885"
       gradientUnits="userSpaceOnUse"
       gradientTransform="matrix(1.5650203,0,0,1.5650203,-27.12097,-28.499428)"
       x1="48"
       y1="72"
       x2="48"
       y2="24" />
    <filter
       style="color-interpolation-filters:sRGB"
       id="filter3899">
      <feGaussianBlur
         id="feGaussianBlur3901"
         stdDeviation="0.57" />
    </filter>
    <linearGradient
       x1="12"
       y1="4.5"
       x2="12"
       y2="20.5"
       id="linearGradient3182"
       xlink:href="#linearGradient3655"
       gradientUnits="userSpaceOnUse"
       gradientTransform="matrix(4,0,0,4,0,-82)" />
    <linearGradient
       id="linearGradient3655">
      <stop
         id="stop3657"
         style="stop-color:#ad0707;stop-opacity:1"
         offset="0" />
      <stop
         id="stop3659"
         style="stop-color:#f75535;stop-opacity:1"
         offset="1" />
    </linearGradient>
  </defs>
  <path
     style="opacity:0.08999999;fill:#000000;fill-opacity:1;stroke:none"
     d="M 47.999998,5.6875 C 24.673048,5.6875 5.6875011,24.673051 5.6875011,48 c 0,23.32695 18.9855469,42.3125 42.3124969,42.3125 23.32695,0 42.312501,-18.98555 42.312501,-42.3125 0,-23.326949 -18.985551,-42.3125 -42.312501,-42.3125 z M 48,32.989998 c 7.168266,0 13.635,6.402157 13.635,13.635002 0,7.232845 -6.466734,13.634998 -13.635,13.634998 -7.168266,0 -13.634998,-6.402151 -13.634998,-13.634996 0,-7.232845 6.466732,-13.635004 13.634998,-13.635004 z"
     id="path5333"
     inkscape:connector-curvature="0"
     sodipodi:nodetypes="ssssssssss" />
  <path
     style="opacity:0.1;fill:#000000;fill-opacity:1;stroke:none"
     d="M 48,7.40625 C 25.60765,7.40625 7.40625,25.607654 7.40625,48 7.40625,70.392346 25.60765,88.59375 48,88.59375 70.392346,88.59375 88.59375,70.392346 88.59375,48 88.59375,25.607654 70.392346,7.40625 48,7.40625 z m 0,24.148749 c 7.749477,0 15.069996,7.255948 15.069996,15.070003 0,7.814055 -7.320517,15.069998 -15.069994,15.069998 C 40.250525,61.695 32.93,54.439057 32.93,46.625002 32.93,38.810947 40.250523,31.554999 48,31.554999 z"
     id="path5329"
     inkscape:connector-curvature="0"
     sodipodi:nodetypes="ssssssssss" />
  <path
     style="opacity:0.15;fill:#000000;fill-opacity:1;stroke:none"
     d="M 48,8.96875 C 26.46596,8.96875 8.96875,26.46596 8.96875,48 8.96875,69.53404 26.46596,87.03125 48,87.03125 69.53404,87.03125 87.03125,69.53404 87.03125,48 87.03125,26.46596 69.53404,8.96875 48,8.96875 z m 0,21.151249 c 8.78274,0 16.504997,7.722263 16.504997,16.505003 0,8.78274 -7.722257,16.504999 -16.504997,16.504999 -8.78274,0 -16.505001,-7.722261 -16.505001,-16.505001 0,-8.78274 7.722261,-16.505001 16.505001,-16.505001 z"
     id="path5325"
     inkscape:connector-curvature="0"
     sodipodi:nodetypes="ssssssssss" />
  <path
     style="opacity:0.3;fill:#000000;fill-opacity:1;stroke:none"
     d="M 48,10.4375 C 27.25592,10.4375 10.4375,27.255916 10.4375,48 10.4375,68.744084 27.25592,85.5625 48,85.5625 68.744084,85.5625 85.5625,68.744084 85.5625,48 85.5625,27.255916 68.744084,10.4375 48,10.4375 z m 0,18.25 c 9.751425,0 17.94,8.315233 17.94,17.9375 0,9.622267 -8.188575,17.94 -17.94,17.94 -9.751425,0 -17.94,-8.317733 -17.94,-17.94 0,-9.622267 8.188575,-17.9375 17.94,-17.9375 z"
     id="path5321"
     inkscape:connector-curvature="0"
     sodipodi:nodetypes="ssssssssss" />
  <path
     style="fill:url(#linearGradient3885);fill-opacity:1;stroke:none"
     d="m 48,9.0625 c -20.74408,0 -37.5625,16.818416 -37.5625,37.5625 0,20.744083 16.81842,37.5625 37.5625,37.5625 20.74408,0 37.5625,-16.818417 37.5625,-37.5625 C 85.5625,25.880916 68.74408,9.0625 48,9.0625 Z"
     id="path5317"
     inkscape:connector-curvature="0"
     sodipodi:nodetypes="sssss" />
  <path
     style="opacity:0.75;fill:#ffffff;fill-opacity:1;stroke:none"
     d="M 48,9.0625 C 27.276808,9.0625 10.471322,25.909721 10.4375,46.625 10.883168,26.267954 27.535996,9.84375 48,9.84375 68.464007,9.84375 85.116838,26.267954 85.5625,46.625 85.528678,25.909721 68.723194,9.0625 48,9.0625 z"
     id="path3838"
     inkscape:connector-curvature="0"
     sodipodi:nodetypes="scscs" />
  <path
     style="opacity:0.15;fill:#000000;fill-opacity:1;stroke:none"
     d="M 10.4375,46.625 C 10.47133,67.34028 27.276808,84.1875 48,84.1875 c 20.723194,0 37.528678,-16.847224 37.5625,-37.5625 -0.445667,20.355455 -17.098493,36 -37.5625,36 -20.464004,0 -37.116837,-15.64454 -37.5625,-36 z"
     id="path3758"
     inkscape:connector-curvature="0"
     sodipodi:nodetypes="cscsc" />
  <g
     inkscape:groupmode="layer"
     id="layer1"
     inkscape:label="1" />
  <g
     transform="translate(0,78.259998)"
     id="layer2"
     style="display:inline">
    <path
       d="m 43,-62 c -1.662,0 -3,1.338 -3,3 l 0,3 0,24 0,3 c 0,1.662 1.338,3 3,3 l 3,0 4,0 3,0 c 1.662,0 3,-1.338 3,-3 l 0,-3 0,-24 0,-3 c 0,-1.662 -1.423288,-2.474429 -3,-3 l -3,0 -4,0 z m 0,44 c -1.662,0 -3,1.338 -3,3 l 0,3 0,4 0,3 c 0,1.662 1.423288,2.4744295 3,3 l 3,0 4,0 3,0 c 1.662,0 3,-1.338 3,-3 l 0,-3 0,-4 0,-3 c 0,-1.662 -1.338,-3 -3,-3 l -3,0 -4,0 z"
       inkscape:connector-curvature="0"
       id="path3129"
       style="color:#000000;display:inline;overflow:visible;visibility:visible;opacity:0.2;fill:none;stroke:#ffffff;stroke-width:4;stroke-miterlimit:4;stroke-dasharray:none;marker:none;filter:url(#filter3899);enable-background:accumulate" />
    <path
       d="m 43,-62 c -1.662,0 -3,1.338 -3,3 l 0,3 0,24 0,3 c 0,1.662 1.338,3 3,3 l 3,0 4,0 3,0 c 1.662,0 3,-1.338 3,-3 l 0,-3 0,-24 0,-3 c 0,-1.662 -1.423288,-2.474429 -3,-3 l -3,0 -4,0 z m 0,44 c -1.662,0 -3,1.338 -3,3 l 0,3 0,4 0,3 c 0,1.662 1.423288,2.4744295 3,3 l 3,0 4,0 3,0 c 1.662,0 3,-1.338 3,-3 l 0,-3 0,-4 0,-3 c 0,-1.662 -1.338,-3 -3,-3 l -3,0 -4,0 z"
       inkscape:connector-curvature="0"
       id="rect3734"
       style="color:#000000;display:inline;overflow:visible;visibility:visible;fill:url(#linearGradient3182);fill-opacity:1;stroke:none;stroke-width:1;marker:none;enable-background:accumulate" />
    <rect
       width="96"
       height="96"
       x="-100"
       y="-80"
       id="rect3682"
       style="color:#000000;display:inline;overflow:visible;visibility:visible;opacity:0.3;fill:#ff0000;fill-opacity:1;fill-rule:nonzero;stroke:none;stroke-width:4;marker:none;enable-background:accumulate" />
    <path
       d="m 43,18 c -1.662,0 -3,1.338 -3,3 l 0,3 0,24 0,3 c 0,1.662 1.338,3 3,3 l 3,0 4,0 3,0 c 1.662,0 3,-1.338 3,-3 l 0,-3 0,-24 0,-3 c 0,-1.662 -1.423288,-2.474429 -3,-3 l -3,0 -4,0 -3,0 z m 0,2 3,0 4,0 2.5625,0 c 0.542298,0.202571 1.022365,0.424486 1.21875,0.59375 C 54.008001,20.789186 54,20.738595 54,21 l 0,3 0,24 0,3 c 0,0.591074 -0.408926,1 -1,1 l -3,0 -4,0 -3,0 c -0.591074,0 -1,-0.408926 -1,-1 l 0,-3 0,-24 0,-3 c 0,-0.591074 0.408926,-1 1,-1 z m 0,42 c -1.662,0 -3,1.338 -3,3 l 0,3 0,4 0,3 c 0,1.662 1.423288,2.474429 3,3 l 3,0 4,0 3,0 c 1.662,0 3,-1.338 3,-3 l 0,-3 0,-4 0,-3 c 0,-1.662 -1.338,-3 -3,-3 l -3,0 -4,0 -3,0 z m 0,2 3,0 4,0 3,0 c 0.591074,0 1,0.408926 1,1 l 0,3 0,4 0,3 c 0,0.591074 -0.408926,1 -1,1 l -3,0 -4,0 -2.5625,0 C 42.895202,75.797429 42.415135,75.575514 42.21875,75.40625 41.991999,75.210814 42,75.261405 42,75 l 0,-3 0,-4 0,-3 c 0,-0.591074 0.408926,-1 1,-1 z"
       inkscape:connector-curvature="0"
       transform="translate(0,-80)"
       id="path3956"
       style="color:#000000;display:inline;overflow:visible;visibility:visible;opacity:0.1;fill:#550000;fill-opacity:1;stroke:none;stroke-width:1;marker:none;enable-background:accumulate" />
    <path
       d="m 43,18 c -1.662,0 -3,1.338 -3,3 l 0,3 0,24 0,3 c 0,1.662 1.338,3 3,3 l 3,0 4,0 3,0 c 1.662,0 3,-1.338 3,-3 l 0,-3 0,-24 0,-3 c 0,-1.662 -1.423288,-2.474429 -3,-3 l -3,0 -4,0 -3,0 z m 0,0.96875 3,0 4,0 2.75,0 c 0.697125,0.238635 1.338807,0.516278 1.71875,0.84375 0.393808,0.339423 0.5625,0.634351 0.5625,1.1875 l 0,3 0,24 0,3 c 0,1.139597 -0.891653,2.03125 -2.03125,2.03125 l -3,0 -4,0 -3,0 c -1.139597,0 -2.03125,-0.891653 -2.03125,-2.03125 l 0,-3 0,-24 0,-3 c 0,-1.139597 0.891653,-2.03125 2.03125,-2.03125 z M 43,62 c -1.662,0 -3,1.338 -3,3 l 0,3 0,4 0,3 c 0,1.662 1.423288,2.474429 3,3 l 3,0 4,0 3,0 c 1.662,0 3,-1.338 3,-3 l 0,-3 0,-4 0,-3 c 0,-1.662 -1.338,-3 -3,-3 l -3,0 -4,0 -3,0 z m 0,0.96875 3,0 4,0 3,0 c 1.139597,0 2.03125,0.891653 2.03125,2.03125 l 0,3 0,4 0,3 c 0,1.139597 -0.891653,2.03125 -2.03125,2.03125 l -3,0 -4,0 -2.75,0 C 42.552875,76.792615 41.911193,76.514972 41.53125,76.1875 41.137442,75.848077 40.96875,75.553149 40.96875,75 l 0,-3 0,-4 0,-3 c 0,-1.139597 0.891653,-2.03125 2.03125,-2.03125 z"
       inkscape:connector-curvature="0"
       transform="translate(0,-80)"
       id="path3184"
       style="color:#000000;display:inline;overflow:visible;visibility:visible;opacity:0.2;fill:#550000;fill-opacity:1;stroke:none;stroke-width:1;marker:none;enable-background:accumulate" />
    <path
       d="m 43,18 c -1.662,0 -3,1.338 -3,3 l 0,1 c 0,-1.662 1.338,-3 3,-3 l 3,0 4,0 3,0 c 1.576712,0.525571 3,1.338 3,3 l 0,-1 c 0,-1.662 -1.423288,-2.474429 -3,-3 l -3,0 -4,0 -3,0 z m 0,44 c -1.662,0 -3,1.338 -3,3 l 0,1 c 0,-1.662 1.338,-3 3,-3 l 3,0 4,0 3,0 c 1.662,0 3,1.338 3,3 l 0,-1 c 0,-1.662 -1.338,-3 -3,-3 l -3,0 -4,0 -3,0 z"
       inkscape:connector-curvature="0"
       transform="translate(0,-80)"
       id="path3966"
       style="color:#000000;display:inline;overflow:visible;visibility:visible;opacity:0.3;fill:#550000;fill-opacity:1;stroke:none;stroke-width:1;marker:none;enable-background:accumulate" />
    <path
       d="m 40,51 0,1 c 0,1.662 1.338,3 3,3 l 3,0 4,0 3,0 c 1.662,0 3,-1.338 3,-3 l 0,-1 c 0,1.662 -1.338,3 -3,3 l -3,0 -4,0 -3,0 c -1.662,0 -3,-1.338 -3,-3 z m 0,24 0,1 c 0,1.662 1.423288,2.474429 3,3 l 3,0 4,0 3,0 c 1.662,0 3,-1.338 3,-3 l 0,-1 c 0,1.662 -1.338,3 -3,3 l -3,0 -4,0 -3,0 c -1.576712,-0.525571 -3,-1.338 -3,-3 z"
       inkscape:connector-curvature="0"
       transform="translate(0,-80)"
       id="path3975"
       style="color:#000000;display:inline;overflow:visible;visibility:visible;opacity:0.8;fill:#ffffff;fill-opacity:1;stroke:none;stroke-width:1;marker:none;enable-background:accumulate" />
  </g>
</svg>
