<?xml version="1.0" encoding="UTF-8" standalone="no"?>
<svg xmlns="http://www.w3.org/2000/svg" height="96" width="96" version="1.1" xmlns:xlink="http://www.w3.org/1999/xlink">
 <defs>
  <linearGradient id="c" stop-color="#fff">
   <stop offset="0"/>
   <stop stop-opacity="0" offset="1"/>
  </linearGradient>
  <filter id="o" height="1.384" width="1.384" color-interpolation-filters="sRGB" y="-.192" x="-.192">
   <feGaussianBlur stdDeviation="5.28"/>
  </filter>
  <linearGradient id="p" y2="138.66" xlink:href="#c" gradientUnits="userSpaceOnUse" x2="48" y1="20.221" x1="48"/>
  <clipPath id="f">
   <rect rx="6" ry="6" height="84" width="84" y="6" x="6" fill="#fff"/>
  </clipPath>
  <radialGradient id="q" gradientUnits="userSpaceOnUse" cy="47.906" cx="47.844" r="59.406">
   <stop offset="0"/>
   <stop stop-opacity="0" offset="1"/>
  </radialGradient>
  <clipPath id="g">
   <rect rx="6" ry="6" height="84" width="84" y="6" x="6" fill="#fff"/>
  </clipPath>
  <linearGradient id="b" y2="7.0165" gradientUnits="userSpaceOnUse" x2="45.448" gradientTransform="matrix(1.0059 0 0 .99417 100 0)" y1="92.54" x1="45.448">
   <stop offset="0"/>
   <stop stop-opacity=".58824" offset="1"/>
  </linearGradient>
  <radialGradient id="e" xlink:href="#c" gradientUnits="userSpaceOnUse" cy="90.172" cx="48" gradientTransform="matrix(1.1573 0 0 .99591 -7.551 .19713)" r="42"/>
  <linearGradient id="n" y2="63.893" xlink:href="#c" gradientUnits="userSpaceOnUse" x2="36.357" y1="6" x1="36.357"/>
  <linearGradient id="m" y2="6" gradientUnits="userSpaceOnUse" x2="48" y1="90" x1="48">
   <stop stop-opacity=".19608" offset="0"/>
   <stop stop-color="#808080" stop-opacity="0" offset=".5"/>
   <stop stop-color="#fff" stop-opacity=".39216" offset="1"/>
  </linearGradient>
  <linearGradient id="k" y2="6" xlink:href="#b" gradientUnits="userSpaceOnUse" x2="32.251" gradientTransform="translate(0,1)" y1="90" x1="32.251"/>
  <linearGradient id="i" y2="5.9996" xlink:href="#b" gradientUnits="userSpaceOnUse" x2="32.251" gradientTransform="matrix(1.0238 0 0 1.0119 -1.1429 .929)" y1="90" x1="32.251"/>
  <linearGradient id="h" y2="90.239" xlink:href="#b" gradientUnits="userSpaceOnUse" x2="32.251" gradientTransform="matrix(1.0238,0,0,-1.0119,-1.1429,98.071)" y1="6.1317" x1="32.251"/>
 </defs>
 <g fill="url(#h)">
  <path opacity="0.08" d="m12 95.031c-5.5111 0-10.031-4.52-10.031-10.031v-71c0-5.5111 4.5202-10.031 10.031-10.031h72c5.5111 0 10.031 4.5202 10.031 10.031v71c0 5.5111-4.5202 10.031-10.031 10.031h-72z"/>
  <path opacity=".1" d="m12 94.031c-4.9716 0-9.0312-4.0596-9.0312-9.0312v-71c0-4.9718 4.0596-9.0314 9.0312-9.0314h72c4.9716 0 9.0312 4.0596 9.0312 9.0312v71c0 4.9716-4.0596 9.0312-9.0312 9.0312h-72z"/>
  <path opacity=".2" d="m12 93c-4.4091 0-8-3.591-8-8v-71c0-4.4091 3.5909-8 8-8h72c4.4091 0 8 3.5909 8 8v71c0 4.4091-3.5909 8-8 8h-72z"/>
 </g>
 <rect opacity=".3" rx="7" ry="7" height="85" width="86" y="7" x="5" fill="url(#i)"/>
 <rect opacity=".45" rx="6" ry="6" height="84" width="84" y="7" x="6" fill="url(#k)"/>
 <path d="m48.156 48c-7.6342 13.223-9.639 28.131-6.8125 42h23.968c-10.608-10.827-17.156-25.639-17.156-42z" fill="#00df16"/>
 <path d="m48.156 48.094c-16.103 9.297-26.278 24.91-29.187 41.906h22.312c-2.809-13.844-0.747-28.705 6.875-41.906z" fill="#04abcf"/>
 <path d="m48.094 48.156c-16.393 0-31.256 6.543-42.094 17.188v18.656c0 3.324 2.676 6 6 6h6.9375c2.92-16.972 13.072-32.558 29.156-41.844z" fill="#1a36d8"/>
 <path d="m17.469 40.125c-3.868 0.035-7.7011 0.451-11.469 1.219v23.968c10.827-10.607 25.639-17.156 42-17.156-9.63-5.56-20.162-8.126-30.531-8.031z" fill="#370099"/>
 <path d="m6 18.969v22.312c13.844-2.809 28.705-0.747 41.906 6.875-9.297-16.103-24.91-26.278-41.906-29.187z" fill="#650199"/>
 <path d="m12 6c-3.324 0-6 2.676-6 6v6.9375c16.972 2.92 32.558 13.072 41.844 29.156 0-16.393-6.543-31.256-17.188-42.094h-18.656z" fill="#9c009b"/>
 <path d="m30.688 6c10.607 10.827 17.156 25.639 17.156 42 7.634-13.223 9.639-28.131 6.812-42h-23.968z" fill="#d10737"/>
 <path d="m54.719 6c2.809 13.844 0.747 28.705-6.875 41.906 16.103-9.297 26.278-24.91 29.187-41.906h-22.312z" fill="#fd0005"/>
 <path d="m77.062 6c-2.92 16.972-13.072 32.558-29.156 41.844 16.393 0 31.256-6.543 42.094-17.188v-18.656c0-3.324-2.676-6-6-6h-6.9375z" fill="#ff6500"/>
 <path d="m90 30.688c-10.827 10.607-25.639 17.156-42 17.156 13.223 7.6342 28.131 9.639 42 6.8125v-23.968z" fill="#fdad00"/>
 <path d="m48.094 47.844c9.297 16.103 24.91 26.278 41.906 29.187v-22.312c-13.844 2.809-28.705 0.747-41.906-6.875z" fill="#fffd01"/>
 <path d="m48.156 47.906c0 16.393 6.5432 31.256 17.188 42.094h18.656c3.324 0 6-2.676 6-6v-6.938c-16.972-2.92-32.558-13.072-41.844-29.156z" fill="#b6fd00"/>
 <path opacity=".5" d="m12 6c-3.324 0-6 2.676-6 6v72c0 0.33472 0.04135 0.6507 0.09375 0.96875 0.0487 0.2956 0.09704 0.59692 0.1875 0.875 0.00988 0.03038 0.020892 0.0636 0.03125 0.09375 0.098865 0.28777 0.23488 0.54745 0.375 0.8125 0.14459 0.27351 0.31562 0.53562 0.5 0.78125 0.18438 0.24564 0.37378 0.47347 0.59375 0.6875 0.43995 0.42806 0.94291 0.81453 1.5 1.0938 0.27854 0.13961 0.57347 0.24695 0.875 0.34375-0.2562-0.10022-0.48671-0.23627-0.71875-0.375-0.00741-0.0044-0.023866 0.0045-0.03125 0-0.0319-0.019-0.0622-0.042-0.0937-0.062-0.1204-0.077-0.231-0.164-0.3437-0.25-0.1062-0.081-0.2133-0.161-0.3126-0.25-0.1778-0.162-0.3473-0.346-0.4999-0.531-0.1075-0.131-0.2183-0.266-0.3124-0.407-0.0251-0.038-0.0385-0.086-0.0626-0.125-0.0647-0.103-0.1302-0.204-0.1874-0.312-0.1011-0.195-0.2057-0.416-0.2813-0.625-0.008-0.022-0.0236-0.041-0.0313-0.063-0.0318-0.092-0.0358-0.187-0.0624-0.281-0.0304-0.107-0.0704-0.203-0.0938-0.313-0.0729-0.341-0.125-0.698-0.125-1.062v-72c0-2.782 2.2182-5 5-5h72c2.7818 0 5 2.2182 5 5v72c0 0.3643-0.05212 0.72099-0.125 1.0625-0.04415 0.20689-0.08838 0.39766-0.15625 0.59375-0.0077 0.02195-0.0233 0.04069-0.03125 0.0625-0.06274 0.17374-0.13838 0.36745-0.21875 0.53125-0.04158 0.0828-0.07904 0.16995-0.125 0.25-0.0546 0.09721-0.12677 0.18835-0.1875 0.28125-0.09411 0.14096-0.20492 0.276-0.3125 0.40625-0.14317 0.17445-0.30314 0.347-0.46875 0.5-0.01117 0.0102-0.01998 0.02115-0.03125 0.03125-0.13839 0.12556-0.28509 0.23444-0.4375 0.34375-0.10257 0.07315-0.20432 0.15336-0.3125 0.21875-0.0074 0.0045-0.02384-0.0044-0.03125 0-0.23204 0.13873-0.46255 0.27478-0.71875 0.375 0.30153-0.0968 0.59646-0.20414 0.875-0.34375 0.55709-0.27922 1.0601-0.66569 1.5-1.0938 0.21997-0.21403 0.40937-0.44186 0.59375-0.6875s0.35541-0.50774 0.5-0.78125c0.14012-0.26505 0.27614-0.52473 0.375-0.8125 0.01041-0.03078 0.02133-0.06274 0.03125-0.09375 0.09046-0.27808 0.1388-0.5794 0.1875-0.875 0.053-0.318 0.094-0.634 0.094-0.969v-72c0-3.324-2.676-6-6-6h-72z" fill="url(#n)"/>
 <path opacity=".3" d="m12 90c-3.324 0-6-2.676-6-6v-72c0-0.33472 0.04135-0.6507 0.09375-0.96875 0.0487-0.2956 0.09704-0.59692 0.1875-0.875 0.0099-0.03 0.0209-0.063 0.0313-0.094 0.0989-0.2873 0.2349-0.547 0.375-0.812 0.1446-0.2735 0.3156-0.5356 0.5-0.7812 0.1844-0.2457 0.3738-0.4735 0.5937-0.6876 0.44-0.428 0.943-0.8145 1.5-1.0937 0.2786-0.1396 0.5735-0.2469 0.8748-0.3437-0.256 0.1002-0.4865 0.2362-0.7185 0.375-0.00741 0.0044-0.023866-0.0045-0.03125 0-0.031933 0.0193-0.062293 0.04251-0.09375 0.0625-0.1204 0.0767-0.23102 0.16351-0.34375 0.25-0.10617 0.0808-0.21328 0.16111-0.3125 0.25-0.1779 0.1614-0.3474 0.3453-0.5 0.5312-0.1075 0.1303-0.2183 0.2653-0.3124 0.4063-0.0251 0.0383-0.0385 0.0858-0.0626 0.125-0.0647 0.103-0.1302 0.2045-0.1874 0.3124-0.1011 0.1948-0.2057 0.4158-0.2813 0.625-0.008 0.0219-0.0236 0.0406-0.0313 0.0626-0.0318 0.0919-0.0358 0.1868-0.0624 0.2812-0.0304 0.1066-0.0704 0.203-0.0938 0.3125-0.0729 0.3415-0.125 0.6985-0.125 1.0625v72c0 2.7818 2.2182 5 5 5h72c2.7818 0 5-2.2182 5-5v-72c0-0.364-0.052-0.721-0.125-1.0625-0.044-0.2069-0.088-0.3977-0.156-0.5937-0.008-0.022-0.024-0.0407-0.031-0.0626-0.063-0.1737-0.139-0.3674-0.219-0.5312-0.042-0.0828-0.079-0.17-0.125-0.25-0.055-0.0972-0.127-0.1884-0.188-0.2812-0.094-0.141-0.205-0.276-0.312-0.4063-0.143-0.1745-0.303-0.347-0.469-0.5-0.011-0.0102-0.02-0.0211-0.031-0.0313-0.139-0.1255-0.285-0.2344-0.438-0.3437-0.102-0.0731-0.204-0.1534-0.312-0.2187-0.0074-0.0045-0.02384 0.0044-0.03125 0-0.23204-0.13873-0.46255-0.27478-0.71875-0.375 0.30153 0.0968 0.59646 0.20414 0.875 0.34375 0.55709 0.27922 1.0601 0.66569 1.5 1.0938 0.21997 0.21403 0.40937 0.44186 0.59375 0.6875s0.35541 0.50774 0.5 0.78125c0.14012 0.26505 0.27614 0.52473 0.375 0.8125 0.01041 0.03078 0.02133 0.06274 0.03125 0.09375 0.09046 0.27808 0.1388 0.5794 0.1875 0.875 0.053 0.318 0.094 0.634 0.094 0.969v72c0 3.324-2.676 6-6 6h-72z" fill="url(#e)"/>
 <path clip-path="url(#g)" d="m48.094-11.5c11.422 22.582 4.881 45.949 0.531 57.031-1.981-20.057-13.155-39.582-30.281-49.187 21.207 13.861 27.265 37.397 29.031 49.156-11.74-16.405-31.19-27.745-50.844-27.5 25.271 1.399 42.236 18.723 49.657 28.031-18.363-8.318-40.866-8.375-57.75 1.657 22.599-11.432 45.99-4.913 57.062-0.563-20.068 1.972-39.609 13.146-49.219 30.281 13.873-21.225 37.438-27.271 49.188-29.031-16.423 11.738-27.777 31.178-27.531 50.844 1.398-25.271 18.723-42.236 28.031-49.657-8.319 18.363-8.375 40.866 1.656 57.748-11.431-22.597-4.913-45.988-0.563-57.06 1.971 20.071 13.144 39.607 30.282 49.219-21.241-13.883-27.277-37.447-29.032-49.188 11.738 16.426 31.176 27.777 50.844 27.531-25.285-1.399-42.274-18.727-49.687-28.031 18.367 8.33 40.888 8.411 57.781-1.625-22.582 11.423-45.949 4.882-57.031 0.532 20.059-1.979 39.581-13.154 49.187-30.282-13.871 21.224-37.406 27.271-49.156 29.032 16.408-11.741 27.745-31.189 27.5-50.844-1.4 25.285-18.727 42.274-28.031 49.687 8.33-18.367 8.411-40.888-1.625-57.781zm-0.282 59.281c0.0346 0.000257 0.0621-0.004 0.0937 0 0.0338 0.02204 0.0347 0.06938 0.0625 0.09375-0.00027 0.03662-0.0268 0.06043-0.0312 0.09375-0.014 0.02029-0.0164 0.04453-0.0312 0.0625-0.0482-0.000358-0.0824-0.0239-0.125-0.03125-0.007-0.0048-0.0245 0.005-0.0312 0-0.0128-0.02324-0.0213-0.03969-0.0312-0.0625 0.002-0.03567 0.0256-0.06125 0.0312-0.09375 0.003-0.0082-0.004-0.02305 0-0.03125 0.0232-0.01278 0.0397-0.02128 0.0625-0.03125zm0.188 0.188c0.0329 0.10819 0.0662 0.21021 0.0625 0.3125-0.012-0.1-0.05-0.217-0.062-0.313z" fill="url(#q)"/>
 <rect opacity=".1" clip-path="url(#f)" rx="12" ry="12" height="66" filter="url(#o)" width="66" stroke="#fff" stroke-linecap="round" y="15" x="15" stroke-width=".5" fill="url(#p)"/>
 <rect rx="6" ry="6" height="84" width="84" y="6" x="6" fill="url(#m)"/>
</svg>
