<?xml version="1.0" encoding="UTF-8" standalone="no"?>
<svg xmlns="http://www.w3.org/2000/svg" height="96" width="96" version="1.1" xmlns:xlink="http://www.w3.org/1999/xlink">
 <defs>
  <linearGradient id="d" stop-color="#fff">
   <stop offset="0"/>
   <stop stop-opacity="0" offset="1"/>
  </linearGradient>
  <filter id="v" height="1.384" width="1.384" color-interpolation-filters="sRGB" y="-.192" x="-.192">
   <feGaussianBlur stdDeviation="5.28"/>
  </filter>
  <clipPath id="ao">
   <rect rx="6" ry="6" height="84" width="84" y="6" x="6" fill="#fff"/>
  </clipPath>
  <linearGradient id="c" y2="7.0165" gradientUnits="userSpaceOnUse" x2="45.448" gradientTransform="matrix(1.0059 0 0 .99417 100 0)" y1="92.54" x1="45.448">
   <stop offset="0"/>
   <stop stop-opacity=".58824" offset="1"/>
  </linearGradient>
  <clipPath id="ap">
   <path fill="#eeeeec" d="m184.12 701.5a2.2363 2.2363 0 0 0 -1.4688 0.90625s-3.328 4.7671-4.0312 11.156c-5.0181-4.0229-10.75-5.0625-10.75-5.0625a2.2363 2.2363 0 0 0 -2.5938 2.5625s1.034 5.7649 5.0625 10.781c-6.3978 0.70283-11.188 4.0312-11.188 4.0312a2.2363 2.2363 0 0 0 0 3.625s4.7948 3.3031 11.188 4c-4.0285 5.0164-5.0625 10.781-5.0625 10.781a2.2363 2.2363 0 0 0 2.5938 2.5625s5.7319-1.0396 10.75-5.0625c0.70267 6.3934 4.0312 11.188 4.0312 11.188a2.2363 2.2363 0 0 0 3.625 0s3.3111-4.8145 4-11.219c5.0262 4.0467 10.781 5.0938 10.781 5.0938a2.2363 2.2363 0 0 0 2.5938 -2.5938s-1.0624-5.7373-5.0938-10.75c6.397-0.69632 11.219-4 11.219-4a2.2363 2.2363 0 0 0 0 -3.625s-4.8167-3.329-11.219-4.0312c4.0313-5.0127 5.0938-10.75 5.0938-10.75a2.2363 2.2363 0 0 0 -2.59 -2.6s-5.755 1.047-10.781 5.0938c-0.69265-6.3936-4-11.188-4-11.188a2.2363 2.2363 0 0 0 -2.16 -0.91z" fill-rule="evenodd"/>
  </clipPath>
  <clipPath id="i">
   <path fill="#edd400" d="m471.43 685.93c0 22.097-12.842 40.01-12.842 40.01s-12.842-17.913-12.842-40.01 12.842-40.01 12.842-40.01 12.842 17.913 12.842 40.01z" fill-rule="evenodd"/>
  </clipPath>
  <filter id="al" height="1.1585" width="1.4939" color-interpolation-filters="sRGB" y="-.079258" x="-.24693">
   <feGaussianBlur stdDeviation="2.642588"/>
  </filter>
  <clipPath id="g">
   <path fill="#3465a4" d="m401.43 865.8c0 22.097-12.842 40.01-12.842 40.01s-12.842-17.913-12.842-40.01 12.842-40.01 12.842-40.01 12.842 17.913 12.842 40.01z" fill-rule="evenodd"/>
  </clipPath>
  <filter id="z" height="1.1585" width="1.4939" color-interpolation-filters="sRGB" y="-.079258" x="-.24693">
   <feGaussianBlur stdDeviation="2.642588"/>
  </filter>
  <clipPath id="s">
   <path fill="#ef2929" d="m348.71 698.73c-22.064 0-39.951-12.861-39.951-12.861s17.887-12.861 39.951-12.861 39.951 12.861 39.951 12.861-17.887 12.861-39.951 12.861z" fill-rule="evenodd"/>
  </clipPath>
  <filter id="am" height="1.4928" width="1.1586" color-interpolation-filters="sRGB" y="-.24639" x="-.079315">
   <feGaussianBlur stdDeviation="2.6406013"/>
  </filter>
  <clipPath id="t">
   <path fill="#75507b" d="m299.47 763.2c-15.602 15.625-37.33 19.197-37.33 19.197s3.5672-21.76 19.169-37.385 37.33-19.197 37.33-19.197-3.5672 21.76-19.169 37.385z" fill-rule="evenodd"/>
  </clipPath>
  <filter id="an" height="1.2398" width="1.2402" color-interpolation-filters="sRGB" y="-.11991" x="-.12009">
   <feGaussianBlur stdDeviation="2.8270453"/>
  </filter>
  <clipPath id="f">
   <path fill="#65c808" d="m538.47 738.73c-22.064 0-39.951-12.861-39.951-12.861s17.887-12.861 39.951-12.861 39.951 12.861 39.951 12.861-17.887 12.861-39.951 12.861z" fill-rule="evenodd"/>
  </clipPath>
  <filter id="y" height="1.4928" width="1.1586" color-interpolation-filters="sRGB" y="-.24639" x="-.079315">
   <feGaussianBlur stdDeviation="2.6406015"/>
  </filter>
  <clipPath id="aq">
   <path fill="#afea2c" d="m515.87 706.72c-15.602 15.625-37.33 19.197-37.33 19.197s3.5672-21.76 19.169-37.385 37.33-19.197 37.33-19.197-3.5672 21.76-19.169 37.385z" fill-rule="evenodd"/>
  </clipPath>
  <filter id="w" height="1.2398" width="1.2402" color-interpolation-filters="sRGB" y="-.11991" x="-.12009">
   <feGaussianBlur stdDeviation="2.8270455"/>
  </filter>
  <clipPath id="e">
   <path fill="#729fcf" d="m515.87 745.01c15.602 15.625 19.169 37.385 19.169 37.385s-21.729-3.5724-37.33-19.197c-15.602-15.625-19.169-37.385-19.169-37.385s21.729 3.5724 37.33 19.197z" fill-rule="evenodd"/>
  </clipPath>
  <filter id="x" height="1.2398" width="1.2402" color-interpolation-filters="sRGB" y="-.11991" x="-.12009">
   <feGaussianBlur stdDeviation="2.8270455"/>
  </filter>
  <clipPath id="h">
   <path fill="#f57900" d="m269.47 688.53c15.602 15.625 19.169 37.385 19.169 37.385s-21.729-3.5724-37.33-19.197c-15.602-15.625-19.169-37.385-19.169-37.385s21.729 3.5724 37.33 19.197z" fill-rule="evenodd"/>
  </clipPath>
  <filter id="ad" height="1.2398" width="1.2402" color-interpolation-filters="sRGB" y="-.11991" x="-.12009">
   <feGaussianBlur stdDeviation="2.8270453"/>
  </filter>
  <linearGradient id="ak" stop-color="#f9f9f9" y2="804.8" gradientUnits="userSpaceOnUse" x2="184.46" y1="711.15" x1="184.46">
   <stop offset="0"/>
   <stop stop-opacity="0" offset="1"/>
  </linearGradient>
  <linearGradient id="aj" y2="138.66" xlink:href="#d" gradientUnits="userSpaceOnUse" x2="48" y1="20.221" x1="48"/>
  <linearGradient id="ai" y2="63.893" xlink:href="#d" gradientUnits="userSpaceOnUse" x2="36.357" y1="6" x1="36.357"/>
  <radialGradient id="u" xlink:href="#d" gradientUnits="userSpaceOnUse" cy="90.172" cx="48" gradientTransform="matrix(1.1573 0 0 .99591 -7.551 .19713)" r="42"/>
  <linearGradient id="ah" y2="5.9877" gradientUnits="userSpaceOnUse" x2="48" y1="90" x1="48">
   <stop stop-color="#b4b4b4" offset="0"/>
   <stop stop-color="#e6e6e6" offset="1"/>
  </linearGradient>
  <linearGradient id="ag" y2="6" xlink:href="#c" gradientUnits="userSpaceOnUse" x2="32.251" gradientTransform="translate(0,1)" y1="90" x1="32.251"/>
  <linearGradient id="af" y2="5.9996" xlink:href="#c" gradientUnits="userSpaceOnUse" x2="32.251" gradientTransform="matrix(1.0238 0 0 1.0119 -1.1429 .929)" y1="90" x1="32.251"/>
  <linearGradient id="ae" y2="90.239" xlink:href="#c" gradientUnits="userSpaceOnUse" x2="32.251" gradientTransform="matrix(1.0238,0,0,-1.0119,-1.1429,98.071)" y1="6.1317" x1="32.251"/>
 </defs>
 <g fill="url(#ae)">
  <path opacity="0.08" d="m12 95.031c-5.5111 0-10.031-4.52-10.031-10.031v-71c0-5.5111 4.5202-10.031 10.031-10.031h72c5.5111 0 10.031 4.5202 10.031 10.031v71c0 5.5111-4.5202 10.031-10.031 10.031h-72z"/>
  <path opacity=".1" d="m12 94.031c-4.9716 0-9.0312-4.0596-9.0312-9.0312v-71c0-4.9718 4.0596-9.0314 9.0312-9.0314h72c4.9716 0 9.0312 4.0596 9.0312 9.0312v71c0 4.9716-4.0596 9.0312-9.0312 9.0312h-72z"/>
  <path opacity=".2" d="m12 93c-4.4091 0-8-3.591-8-8v-71c0-4.4091 3.5909-8 8-8h72c4.4091 0 8 3.5909 8 8v71c0 4.4091-3.5909 8-8 8h-72z"/>
 </g>
 <rect opacity=".3" rx="7" ry="7" height="85" width="86" y="7" x="5" fill="url(#af)"/>
 <rect opacity=".45" rx="6" ry="6" height="84" width="84" y="7" x="6" fill="url(#ag)"/>
 <rect rx="6" ry="6" height="84" width="84" y="6" x="6" fill="url(#ah)"/>
 <path opacity=".2" d="m12 90c-3.324 0-6-2.676-6-6v-72c0-0.33472 0.04135-0.6507 0.09375-0.96875 0.0487-0.2956 0.09704-0.59692 0.1875-0.875 0.0099-0.03 0.0209-0.063 0.0313-0.094 0.0989-0.2873 0.2349-0.547 0.375-0.812 0.1446-0.2735 0.3156-0.5356 0.5-0.7812 0.1844-0.2457 0.3738-0.4735 0.5937-0.6876 0.44-0.428 0.943-0.8145 1.5-1.0937 0.2786-0.1396 0.5735-0.2469 0.8748-0.3437-0.256 0.1002-0.4865 0.2362-0.7185 0.375-0.00741 0.0044-0.023866-0.0045-0.03125 0-0.031933 0.0193-0.062293 0.04251-0.09375 0.0625-0.1204 0.0767-0.23102 0.16351-0.34375 0.25-0.10617 0.0808-0.21328 0.16111-0.3125 0.25-0.1779 0.1614-0.3474 0.3453-0.5 0.5312-0.1075 0.1303-0.2183 0.2653-0.3124 0.4063-0.0251 0.0383-0.0385 0.0858-0.0626 0.125-0.0647 0.103-0.1302 0.2045-0.1874 0.3124-0.1011 0.1948-0.2057 0.4158-0.2813 0.625-0.008 0.0219-0.0236 0.0406-0.0313 0.0626-0.0318 0.0919-0.0358 0.1868-0.0624 0.2812-0.0304 0.1066-0.0704 0.203-0.0938 0.3125-0.0729 0.3415-0.125 0.6985-0.125 1.0625v72c0 2.7818 2.2182 5 5 5h72c2.7818 0 5-2.2182 5-5v-72c0-0.364-0.052-0.721-0.125-1.0625-0.044-0.2069-0.088-0.3977-0.156-0.5937-0.008-0.022-0.024-0.0407-0.031-0.0626-0.063-0.1737-0.139-0.3674-0.219-0.5312-0.042-0.0828-0.079-0.17-0.125-0.25-0.055-0.0972-0.127-0.1884-0.188-0.2812-0.094-0.141-0.205-0.276-0.312-0.4063-0.143-0.1745-0.303-0.347-0.469-0.5-0.011-0.0102-0.02-0.0211-0.031-0.0313-0.139-0.1255-0.285-0.2344-0.438-0.3437-0.102-0.0731-0.204-0.1534-0.312-0.2187-0.0074-0.0045-0.02384 0.0044-0.03125 0-0.23204-0.13873-0.46255-0.27478-0.71875-0.375 0.30153 0.0968 0.59646 0.20414 0.875 0.34375 0.55709 0.27922 1.0601 0.66569 1.5 1.0938 0.21997 0.21403 0.40937 0.44186 0.59375 0.6875s0.35541 0.50774 0.5 0.78125c0.14012 0.26505 0.27614 0.52473 0.375 0.8125 0.01041 0.03078 0.02133 0.06274 0.03125 0.09375 0.09046 0.27808 0.1388 0.5794 0.1875 0.875 0.053 0.318 0.094 0.634 0.094 0.969v72c0 3.324-2.676 6-6 6h-72z" fill="url(#u)"/>
 <path opacity=".4" d="m12 6c-3.324 0-6 2.676-6 6v72c0 0.33472 0.04135 0.6507 0.09375 0.96875 0.0487 0.2956 0.09704 0.59692 0.1875 0.875 0.00988 0.03038 0.020892 0.0636 0.03125 0.09375 0.098865 0.28777 0.23488 0.54745 0.375 0.8125 0.14459 0.27351 0.31562 0.53562 0.5 0.78125 0.18438 0.24564 0.37378 0.47347 0.59375 0.6875 0.43995 0.42806 0.94291 0.81453 1.5 1.0938 0.27854 0.13961 0.57347 0.24695 0.875 0.34375-0.2562-0.10022-0.48671-0.23627-0.71875-0.375-0.00741-0.0044-0.023866 0.0045-0.03125 0-0.0319-0.019-0.0622-0.042-0.0937-0.062-0.1204-0.077-0.231-0.164-0.3437-0.25-0.1062-0.081-0.2133-0.161-0.3126-0.25-0.1778-0.162-0.3473-0.346-0.4999-0.531-0.1075-0.131-0.2183-0.266-0.3124-0.407-0.0251-0.038-0.0385-0.086-0.0626-0.125-0.0647-0.103-0.1302-0.204-0.1874-0.312-0.1011-0.195-0.2057-0.416-0.2813-0.625-0.008-0.022-0.0236-0.041-0.0313-0.063-0.0318-0.092-0.0358-0.187-0.0624-0.281-0.0304-0.107-0.0704-0.203-0.0938-0.313-0.0729-0.341-0.125-0.698-0.125-1.062v-72c0-2.782 2.2182-5 5-5h72c2.7818 0 5 2.2182 5 5v72c0 0.3643-0.05212 0.72099-0.125 1.0625-0.04415 0.20689-0.08838 0.39766-0.15625 0.59375-0.0077 0.02195-0.0233 0.04069-0.03125 0.0625-0.06274 0.17374-0.13838 0.36745-0.21875 0.53125-0.04158 0.0828-0.07904 0.16995-0.125 0.25-0.0546 0.09721-0.12677 0.18835-0.1875 0.28125-0.09411 0.14096-0.20492 0.276-0.3125 0.40625-0.14317 0.17445-0.30314 0.347-0.46875 0.5-0.01117 0.0102-0.01998 0.02115-0.03125 0.03125-0.13839 0.12556-0.28509 0.23444-0.4375 0.34375-0.10257 0.07315-0.20432 0.15336-0.3125 0.21875-0.0074 0.0045-0.02384-0.0044-0.03125 0-0.23204 0.13873-0.46255 0.27478-0.71875 0.375 0.30153-0.0968 0.59646-0.20414 0.875-0.34375 0.55709-0.27922 1.0601-0.66569 1.5-1.0938 0.21997-0.21403 0.40937-0.44186 0.59375-0.6875s0.35541-0.50774 0.5-0.78125c0.14012-0.26505 0.27614-0.52473 0.375-0.8125 0.01041-0.03078 0.02133-0.06274 0.03125-0.09375 0.09046-0.27808 0.1388-0.5794 0.1875-0.875 0.053-0.318 0.094-0.634 0.094-0.969v-72c0-3.324-2.676-6-6-6h-72z" fill="url(#ai)"/>
 <g fill-rule="evenodd">
  <path opacity=".1" d="m45.136 9.4563s-5.2143 6.1422-6.6371 15.605c-7.6975-5.6853-15.728-6.3414-15.728-6.3414-2.1265-0.31331-4.364 1.9242-4.0507 4.0507 0 0 0.65613 8.0303 6.3414 15.728-9.463 1.4228-15.605 6.6371-15.605 6.6371-1.7252 1.2821-1.7252 4.4465-3e-7 5.7286 0 0 6.1422 5.2143 15.605 6.6371-5.6853 7.6975-6.3414 15.728-6.3414 15.728-0.31331 2.1265 1.9242 4.364 4.0507 4.0507 0 0 8.0303-0.65613 15.728-6.3414 1.4228 9.463 6.7314 15.612 6.7314 15.612 1.1878 1.7182 4.3522 1.7182 5.5359 0.000309 0 0 5.3127-6.1495 6.7356-15.613 7.6974 5.6853 15.728 6.3415 15.728 6.3415 2.1265 0.31331 4.364-1.9242 4.0507-4.0507 0 0-0.65614-8.0303-6.3283-15.72 9.4499-1.4308 15.592-6.6451 15.592-6.6451 1.7252-1.2821 1.7252-4.4465 0.000005-5.7286 0 0-6.1422-5.2143-15.605-6.6372 5.6853-7.6974 6.3157-15.758 6.3157-15.758 0.33904-2.0966-1.8985-4.3342-4.025-4.0209 0 0-8.0303 0.65613-15.728 6.3414-1.424-9.462-6.639-15.604-6.639-15.604-1.2821-1.7252-4.4465-1.7252-5.7286 2e-7z" fill="#f9f9f9"/>
  <path opacity=".2" d="m45.21 10.454s-4.9487 6.5075-6.1701 15.915c-7.5154-5.7882-15.616-6.8904-15.616-6.8904-2.1005-0.33655-4.2825 1.8455-3.9459 3.9459 0 0 1.1022 8.1007 6.8904 15.616-9.4071 1.2214-15.915 6.17-15.915 6.17-1.7232 1.2473-1.7232 4.3331-0.000001 5.5804 0 0 6.5075 4.9487 15.915 6.17-5.7882 7.5154-6.8904 15.616-6.8904 15.616-0.33655 2.1005 1.8455 4.2825 3.9459 3.9459 0 0 8.1007-1.1022 15.616-6.8904 1.2213 9.4071 6.17 15.915 6.17 15.915 1.2473 1.7232 4.3331 1.7232 5.5804 0.000001 0 0 4.9487-6.5075 6.1701-15.915 7.5154 5.7882 15.616 6.8905 15.616 6.8905 2.1005 0.33655 4.2825-1.8455 3.9459-3.9459 0 0-1.1022-8.1007-6.8773-15.608 9.394-1.2293 15.901-6.178 15.901-6.178 1.7232-1.2473 1.7232-4.3331 0.000004-5.5804 0 0-6.5075-4.9487-15.915-6.1701 5.7882-7.5154 6.8904-15.616 6.8904-15.616 0.33655-2.1005-1.8455-4.2825-3.9459-3.9459 0 0-8.1008 1.1022-15.616 6.8904-1.2214-9.407-6.17-15.915-6.17-15.915-1.2473-1.7232-4.3331-1.7232-5.5804 0z" fill="#f9f9f9"/>
  <path d="m182.58 702.41s-3.2444 4.757-3.953 11.214c-5.0795-4.0659-10.747-5.142-10.747-5.142-1.4379-0.24868-2.9118 1.2211-2.6624 2.6549 0 0 1.0791 5.6513 5.1566 10.716-6.475 0.70658-11.245 3.9418-11.245 3.9418-1.1931 0.838-1.1931 2.9166 0.00001 3.7546 0 0 4.7705 3.2352 11.245 3.9418-4.0774 5.0652-5.1566 10.716-5.1566 10.716-0.2494 1.4338 1.2246 2.9036 2.6624 2.6549 0 0 5.6674-1.0761 10.747-5.142 0.47143 7.4051 3.953 11.214 3.953 11.214 0.84039 1.1897 2.9249 1.1897 3.7653-0.00003 0 0 3.2444-4.757 3.953-11.214 5.0795 4.0659 10.747 5.142 10.747 5.142 1.4379 0.24871 2.9118-1.2211 2.6624-2.6549 0 0-1.0791-5.6513-5.1566-10.716 6.475-0.70657 11.245-3.9418 11.245-3.9418 1.1931-0.83798 1.1931-2.9166 0.00001-3.7546 0 0-4.7705-3.2352-11.246-3.9418 4.0775-5.0651 5.1566-10.716 5.1566-10.716 0.24938-1.4338-1.2246-2.9036-2.6624-2.6549 0 0-5.6674 1.0761-10.747 5.142-0.70858-6.4566-3.953-11.214-3.953-11.214-0.8404-1.1897-2.9249-1.1897-3.7653 0.00003z" clip-path="url(#ap)" transform="matrix(1.4427,0,0,1.4468,-218.12,-1004.8)" fill="url(#ak)"/>
 </g>
 <rect opacity=".1" clip-path="url(#ao)" rx="12" ry="12" height="66" filter="url(#v)" width="66" stroke="#fff" stroke-linecap="round" y="15" x="15" stroke-width=".5" fill="url(#aj)"/>
 <g fill-rule="evenodd">
  <path d="m53.57 30.685c0 9.5849-5.5699 17.355-5.5699 17.355s-5.5699-7.7701-5.5699-17.355 5.5699-17.355 5.5699-17.355 5.5699 7.7701 5.5699 17.355z" fill="#d5be00"/>
  <path d="m471.43 685.93c0 22.097-12.842 40.01-12.842 40.01s-12.842-17.913-12.842-40.01 12.842-40.01 12.842-40.01 12.842 17.913 12.842 40.01z" clip-path="url(#i)" transform="matrix(.43372 0 0 .43379 -150.9 -266.85)" filter="url(#al)" fill="#edd400"/>
  <path d="m53.57 65.331c0 9.5849-5.5699 17.355-5.5699 17.355s-5.5699-7.7701-5.5699-17.355 5.5699-17.355 5.5699-17.355 5.5699 7.7701 5.5699 17.355z" fill="#23446e"/>
  <path d="m65.295 53.59c-9.5699 0-17.328-5.5787-17.328-5.5787s7.7579-5.5787 17.328-5.5787c9.5699 0 17.328 5.5787 17.328 5.5787s-7.7579 5.5787-17.328 5.5787z" fill="#56aa07"/>
  <path d="m30.703 53.59c-9.5699 0-17.328-5.5787-17.328-5.5787s7.7579-5.5787 17.328-5.5787c9.5699 0 17.328 5.5787 17.328 5.5787s-7.7579 5.5787-17.328 5.5787z" fill="#ca0f0f"/>
  <path d="m64.168 39.703c-6.7668 6.7776-16.191 8.327-16.191 8.327s1.5472-9.4391 8.3141-16.217c6.7669-6.7776 16.191-8.3274 16.191-8.3274s-1.5472 9.4391-8.3141 16.217z" fill="#85b912"/>
  <path d="m401.43 865.8c0 22.097-12.842 40.01-12.842 40.01s-12.842-17.913-12.842-40.01 12.842-40.01 12.842-40.01 12.842 17.913 12.842 40.01z" clip-path="url(#g)" transform="matrix(.43372 0 0 .43379 -120.54 -310.23)" filter="url(#z)" fill="#3465a4"/>
  <path d="m348.71 698.73c-22.064 0-39.951-12.861-39.951-12.861s17.887-12.861 39.951-12.861 39.951 12.861 39.951 12.861-17.887 12.861-39.951 12.861z" clip-path="url(#s)" transform="matrix(.43372 0 0 .43379 -120.54 -249.5)" filter="url(#am)" fill="#ef2929"/>
  <path d="m39.708 64.205c-6.7668 6.7776-16.191 8.327-16.191 8.327s1.5472-9.4391 8.3141-16.217c6.7669-6.7776 16.191-8.3274 16.191-8.3274s-1.5472 9.4391-8.3141 16.217z" fill="#593d5e"/>
  <path d="m39.708 31.815c6.7668 6.7776 8.3141 16.217 8.3141 16.217s-9.4241-1.5496-16.191-8.327c-6.768-6.776-8.315-16.215-8.315-16.215s9.4241 1.5496 16.191 8.3274z" fill="#c96300"/>
  <path d="m299.47 763.2c-15.602 15.625-37.33 19.197-37.33 19.197s3.5672-21.76 19.169-37.385 37.33-19.197 37.33-19.197-3.5672 21.76-19.169 37.385z" clip-path="url(#t)" transform="matrix(.43372 0 0 .43379 -90.18 -266.85)" filter="url(#an)" fill="#75507b"/>
  <path d="m64.168 56.313c6.7668 6.7776 8.3141 16.217 8.3141 16.217s-9.4241-1.5496-16.191-8.327c-6.7668-6.7776-8.3141-16.217-8.3141-16.217s9.4241 1.5496 16.191 8.3274z" fill="#3f7bba"/>
  <path d="m538.47 738.73c-22.064 0-39.951-12.861-39.951-12.861s17.887-12.861 39.951-12.861 39.951 12.861 39.951 12.861-17.887 12.861-39.951 12.861z" clip-path="url(#f)" transform="matrix(.43372 0 0 .43379 -168.25 -266.85)" filter="url(#y)" fill="#65c808"/>
  <path d="m515.87 706.72c-15.602 15.625-37.33 19.197-37.33 19.197s3.5672-21.76 19.169-37.385 37.33-19.197 37.33-19.197-3.5672 21.76-19.169 37.385z" clip-path="url(#aq)" transform="matrix(.43372 0 0 .43379 -159.58 -266.85)" filter="url(#w)" fill="#afea2c"/>
  <path d="m515.87 745.01c15.602 15.625 19.169 37.385 19.169 37.385s-21.729-3.5724-37.33-19.197c-15.602-15.625-19.169-37.385-19.169-37.385s21.729 3.5724 37.33 19.197z" clip-path="url(#e)" transform="matrix(.43372 0 0 .43379 -159.58 -266.85)" filter="url(#x)" fill="#729fcf"/>
  <path d="m269.47 688.53c15.602 15.625 19.169 37.385 19.169 37.385s-21.729-3.5724-37.33-19.197c-15.602-15.625-19.169-37.385-19.169-37.385s21.729 3.5724 37.33 19.197z" clip-path="url(#h)" transform="matrix(.43372 0 0 .43379 -77.169 -266.85)" filter="url(#ad)" fill="#f57900"/>
 </g>
 <g fill-rule="evenodd" fill="#fff">
  <path opacity=".1" d="m55.393 47.912c0 4.2686-3.4504 7.7289-7.7068 7.7289s-7.7068-3.4603-7.7068-7.7289 3.4504-7.7289 7.7068-7.7289 7.7068 3.4603 7.7068 7.7289z"/>
  <path opacity=".1" d="m64.27 47.816c0 9.1889-7.4276 16.638-16.591 16.638-9.1629 0-16.591-7.4487-16.591-16.638 0-9.1889 7.4276-16.638 16.591-16.638 9.1629 0 16.591 7.4487 16.591 16.638z"/>
  <path opacity=".1" d="m47.691 23c-1.4473 0-2.8597 0.13234-4.2392 0.37053-0.60268 2.2231-1.0244 4.6978-1.0244 7.3125 0 1.7576 0.18452 3.4578 0.49038 5.0566-0.91259-1.3475-1.9737-2.6802-3.2149-3.9232-1.8732-1.8761-3.9487-3.348-5.972-4.5007-2.5067 1.7122-4.6838 3.8713-6.4187 6.3643 1.1548 2.0407 2.6363 4.1373 4.5227 6.0264 1.2388 1.2408 2.5586 2.302 3.9016 3.2149-1.5928-0.305-3.2844-0.49038-5.035-0.49038-2.6705 0-5.195 0.44149-7.4541 1.068-0.25623 1.435-0.4032 2.9157-0.4032 4.4247 0 1.5778 0.15629 3.1133 0.43591 4.6099 2.2507 0.62158 4.764 1.0571 7.4213 1.0571 1.7465 0 3.4342-0.1866 5.0238-0.49039-1.3388 0.91113-2.6553 1.9777-3.8904 3.2149-1.8565 1.8594-3.3214 3.9183-4.4679 5.9284 1.7586 2.5057 3.9668 4.6667 6.5059 6.3752 1.9776-1.1405 4.0017-2.582 5.8304-4.4135 1.2411-1.2431 2.3023-2.5758 3.2149-3.9232-0.30588 1.5988-0.49038 3.299-0.49038 5.0566 0 2.5375 0.39598 4.9443 0.96989 7.1162 1.3968 0.2444 2.8272 0.38144 4.2936 0.38144 1.6889 0 3.3424-0.17926 4.9366-0.5013 0.55654-2.1403 0.93721-4.506 0.93721-6.9962 0-1.7576-0.1845-3.4577-0.49038-5.0566 0.9127 1.3477 1.9736 2.68 3.2149 3.9232 1.7257 1.7284 3.6212 3.1191 5.4925 4.2284 2.5864-1.7896 4.8223-4.0498 6.5715-6.6695-1.1023-1.8558-2.4762-3.7377-4.1848-5.4489-1.2352-1.2372-2.5626-2.3037-3.9016-3.2149 1.5928 0.305 3.2735 0.49038 5.0238 0.49038 2.4095 0 4.7044-0.35344 6.7894-0.88271 0.30132-1.5509 0.45771-3.1448 0.45771-4.7842 0-1.5704-0.14796-3.1091-0.42503-4.5991-2.0938-0.53405-4.3996-0.89362-6.8219-0.89362-1.7582 0-3.4467 0.183-5.0458 0.49039 1.3453-0.91402 2.6821-1.9718 3.9232-3.2149 1.7384-1.7411 3.1275-3.6599 4.2392-5.5469-1.724-2.6051-3.9225-4.8658-6.4731-6.6587-1.9205 1.124-3.8723 2.5401-5.6453 4.3155-1.2413 1.2432-2.3022 2.5756-3.2149 3.9232 0.30591-1.5989 0.49039-3.299 0.49039-5.0566 0-2.5675-0.40659-5.0005-0.99172-7.1926-1.5776-0.31501-3.2124-0.49039-4.8822-0.49039z"/>
 </g>
</svg>
