<?xml version="1.0" encoding="UTF-8" standalone="no"?>
<svg xmlns="http://www.w3.org/2000/svg" height="128" width="128" version="1.1" xmlns:xlink="http://www.w3.org/1999/xlink">
 <defs>
  <linearGradient id="a">
   <stop offset="0"/>
   <stop stop-opacity="0" offset="1"/>
  </linearGradient>
  <radialGradient id="d" xlink:href="#a" gradientUnits="userSpaceOnUse" cy="486.65" cx="605.71" gradientTransform="matrix(-.14458 0 0 .053529 105.13 91.374)" r="117.14"/>
  <radialGradient id="c" xlink:href="#a" gradientUnits="userSpaceOnUse" cy="486.65" cx="605.71" gradientTransform="matrix(.14458 0 0 .053529 22.866 91.374)" r="117.14"/>
  <linearGradient id="k" y2="609.51" gradientUnits="userSpaceOnUse" x2="302.86" gradientTransform="matrix(.19053 0 0 .053529 -4.8639 91.374)" y1="366.65" x1="302.86">
   <stop stop-opacity="0" offset="0"/>
   <stop offset=".5"/>
   <stop stop-opacity="0" offset="1"/>
  </linearGradient>
  <linearGradient id="j" y2="16.323" gradientUnits="userSpaceOnUse" x2="33.579" gradientTransform="matrix(2.191,0,0,1.7592,-6.6088,8.121)" y1="5.7086" x1="33.579">
   <stop stop-color="#fafafa" offset="0"/>
   <stop stop-color="#c5c5c5" offset="1"/>
  </linearGradient>
  <linearGradient id="i" y2="14" gradientUnits="userSpaceOnUse" x2="16.916" gradientTransform="matrix(2.6889 0 0 2.667 -.53334 -.50385)" y1="7.0006" x1="16.916">
   <stop stop-color="#a1a1a1" offset="0"/>
   <stop stop-color="#4d4d4d" offset="1"/>
  </linearGradient>
  <linearGradient id="h" y2="13.523" gradientUnits="userSpaceOnUse" x2="24.683" gradientTransform="matrix(2.6081 0 0 .93602 1.4228 27.35)" y1="9.2417" x1="24.683">
   <stop offset="0"/>
   <stop stop-opacity="0" offset="1"/>
  </linearGradient>
  <linearGradient id="g" y2="24.628" stop-color="#fff" gradientUnits="userSpaceOnUse" x2="20.055" gradientTransform="matrix(2.6122,0,0,2.7869,1.3061,3.3658)" y1="15.298" x1="16.626">
   <stop offset="0"/>
   <stop stop-opacity="0" offset="1"/>
  </linearGradient>
  <radialGradient id="b" gradientUnits="userSpaceOnUse" cy="-2.0645" cx="26.617" gradientTransform="matrix(-4.8906e-8,-2.8515,3.7557,0,96.174,156.12)" r="23">
   <stop stop-color="#b0cf85" offset="0"/>
   <stop stop-color="#9bbe74" offset=".26238"/>
   <stop stop-color="#7da051" offset=".70495"/>
   <stop stop-color="#5d892c" offset="1"/>
  </radialGradient>
  <linearGradient id="f" y2="2.8765" gradientUnits="userSpaceOnUse" x2="10.014" gradientTransform="matrix(2.5746,0,0,2.4175,2.2107,10.951)" y1="44.96" x1="10.014">
   <stop stop-color="#466c1a" offset="0"/>
   <stop stop-color="#929c78" offset="1"/>
  </linearGradient>
  <linearGradient id="e" stop-color="#fff" y2="43.811" gradientUnits="userSpaceOnUse" x2="12.579" gradientTransform="matrix(2.6421 0 0 2.4848 .58735 11.864)" y1="2.9137" x1="12.579">
   <stop offset="0"/>
   <stop stop-opacity="0" offset="1"/>
  </linearGradient>
 </defs>
 <rect opacity=".3" height="13" width="92" y="111" x="18" fill="url(#k)"/>
 <path opacity=".3" d="m110 111v12.999c7.4457 0.0245 18-2.9125 18-6.5005s-8.3088-6.4988-18-6.4988z" fill="url(#c)"/>
 <path opacity=".3" d="m18 111v12.999c-7.4457 0.0245-18-2.9125-18-6.5005s8.3088-6.4988 18-6.4988z" fill="url(#d)"/>
 <g fill-rule="evenodd">
  <rect stroke-linejoin="round" rx="7" ry="7" height="99" width="121" stroke="url(#f)" stroke-linecap="round" y="19.5" x="3.5" fill="url(#b)"/>
  <path opacity=".2" d="m9.7143 20c-3.1563 0-5.7143 2.729-5.7143 6.096v44.59c0.00724 0.37512 0.16143 0.72986 0.42514 0.9781s0.61283 0.36729 0.96261 0.32824l117.55-19.856c0.60468-0.10174 1.0528-0.65334 1.0612-1.3064v-24.734c0-3.367-2.56-6.096-5.71-6.096h-108.58z" fill="url(#g)"/>
  <rect opacity=".2" rx="0" ry="0" height="4" width="120" y="36" x="4" fill="url(#h)"/>
  <path d="m11.567 19.5 105.77 0.0229c4.2079 0 7.1626 3.3635 7.1626 7.0855v8.892h-121s-3e-7 -8.8916-3e-7 -8.8916c0-3.9671 3.2503-7.1084 8.0667-7.1084z" stroke="url(#i)" fill="url(#j)"/>
 </g>
 <rect opacity=".4" stroke-linejoin="round" rx="6" ry="6" height="97" width="119" stroke="url(#e)" stroke-linecap="round" y="20.5" x="4.5" fill="none"/>
 <rect opacity=".5" rx="0" ry="0" height="19" width="83" stroke="#000" y="99.5" x="22.5" fill="#1a1a1a"/>
 <path opacity=".2" d="m21.5 119v-20.5h85v20.5" stroke="#fff" fill="none"/>
</svg>
