<?xml version="1.0" encoding="UTF-8" standalone="no"?>
<svg xmlns="http://www.w3.org/2000/svg" height="96" width="96" version="1.1" xmlns:xlink="http://www.w3.org/1999/xlink">
 <defs>
  <linearGradient id="b">
   <stop stop-color="#ffe375" offset="0"/>
   <stop stop-color="#ffa600" offset="1"/>
  </linearGradient>
  <linearGradient id="a" stop-color="#ffb800">
   <stop offset="0"/>
   <stop stop-opacity="0" offset="1"/>
  </linearGradient>
  <linearGradient id="f">
   <stop stop-color="#1a1a1a" offset="0"/>
   <stop stop-color="#666" offset=".30357"/>
   <stop offset="1"/>
  </linearGradient>
  <linearGradient id="c">
   <stop offset="0"/>
   <stop stop-opacity="0" offset="1"/>
  </linearGradient>
  <linearGradient id="e" stop-color="#fff">
   <stop offset="0"/>
   <stop stop-opacity="0" offset="1"/>
  </linearGradient>
  <filter id="bi" height="1.0514" width="1.72" color-interpolation-filters="sRGB" y="-.025714" x="-0.36">
   <feGaussianBlur stdDeviation="0.3"/>
  </filter>
  <clipPath id="bg">
   <rect rx="6" ry="6" height="84" width="84" y="6" x="6" fill="#fff"/>
  </clipPath>
  <filter id="bh" height="1.384" width="1.384" color-interpolation-filters="sRGB" y="-.192" x="-.192">
   <feGaussianBlur stdDeviation="5.28"/>
  </filter>
  <linearGradient id="bj" stop-color="#fff" y2="138.66" gradientUnits="userSpaceOnUse" x2="48" y1="20.221" x1="48">
   <stop offset="0"/>
   <stop stop-opacity="0" offset="1"/>
  </linearGradient>
  <linearGradient id="d" y2="7.0165" gradientUnits="userSpaceOnUse" x2="45.448" gradientTransform="matrix(1.0059 0 0 .99417 100 0)" y1="92.54" x1="45.448">
   <stop offset="0"/>
   <stop stop-opacity=".58824" offset="1"/>
  </linearGradient>
  <linearGradient id="bf" y2="51.636" xlink:href="#c" gradientUnits="userSpaceOnUse" x2="89.898" gradientTransform="translate(0,15)" y1="51.636" x1="23.205"/>
  <linearGradient id="be" y2="44.224" xlink:href="#c" gradientUnits="userSpaceOnUse" x2="94.681" gradientTransform="matrix(.98006 -.19871 .19871 .98006 -12.276 20.87)" y1="64.485" x1="24.79"/>
  <radialGradient id="aj" xlink:href="#b" gradientUnits="userSpaceOnUse" cy="31.602" cx="29.095" gradientTransform="matrix(1.0072 .5815 -.5815 1.0072 35.971 14.151)" r="7.2449"/>
  <radialGradient id="ai" xlink:href="#a" gradientUnits="userSpaceOnUse" cy="32" cx="32" gradientTransform="matrix(1.163,0,0,1.163,9.621,25.621)" r="8"/>
  <radialGradient id="ah" xlink:href="#b" gradientUnits="userSpaceOnUse" cy="31.602" cx="29.095" gradientTransform="matrix(1.5933 .9199 -.9199 1.5933 35.453 -33.859)" r="7.2449"/>
  <radialGradient id="ag" xlink:href="#a" gradientUnits="userSpaceOnUse" cy="32" cx="32" gradientTransform="matrix(1.8398 0 0 1.8398 -6.2318 -15.715)" r="8"/>
  <radialGradient id="af" xlink:href="#b" gradientUnits="userSpaceOnUse" cy="31.602" cx="29.095" gradientTransform="matrix(.81937 .47306 -.47306 .81937 43.084 -27.524)" r="7.2449"/>
  <radialGradient id="ae" xlink:href="#a" gradientUnits="userSpaceOnUse" cy="32" cx="32" gradientTransform="matrix(.94612 0 0 .94612 21.648 -18.193)" r="8"/>
  <radialGradient id="ad" xlink:href="#b" gradientUnits="userSpaceOnUse" cy="31.602" cx="29.095" gradientTransform="matrix(.74704 .4313 -.4313 .74704 53 -8.633)" r="7.2449"/>
  <radialGradient id="ac" xlink:href="#a" gradientUnits="userSpaceOnUse" cy="32" cx="32" gradientTransform="matrix(.8626 0 0 .8626 33.456 -.12601)" r="8"/>
  <radialGradient id="ab" xlink:href="#b" gradientUnits="userSpaceOnUse" cy="31.602" cx="29.095" gradientTransform="matrix(.34777 .20078 -.20078 .34777 67.649 7.7831)" r="7.2449"/>
  <radialGradient id="aa" xlink:href="#a" gradientUnits="userSpaceOnUse" cy="32" cx="32" gradientTransform="matrix(.40157 0 0 .40157 58.55 11.743)" r="8"/>
  <radialGradient id="z" xlink:href="#b" gradientUnits="userSpaceOnUse" cy="31.602" cx="29.095" gradientTransform="matrix(.34777 .20078 -.20078 .34777 28.607 15.548)" r="7.2449"/>
  <radialGradient id="y" xlink:href="#a" gradientUnits="userSpaceOnUse" cy="32" cx="32" gradientTransform="matrix(.40157 0 0 .40157 19.508 19.508)" r="8"/>
  <radialGradient id="x" xlink:href="#b" gradientUnits="userSpaceOnUse" cy="31.602" cx="29.095" gradientTransform="matrix(.64810 .37418 -.37418 .64810 60.26 1.9243)" r="7.2449"/>
  <radialGradient id="w" xlink:href="#a" gradientUnits="userSpaceOnUse" cy="32" cx="32" gradientTransform="matrix(.74836 0 0 .74836 43.305 9.3046)" r="8"/>
  <radialGradient id="v" xlink:href="#b" gradientUnits="userSpaceOnUse" cy="31.602" cx="29.095" gradientTransform="matrix(.76027 .43894 -.43894 .76027 27.329 -19.994)" r="7.2449"/>
  <radialGradient id="u" xlink:href="#a" gradientUnits="userSpaceOnUse" cy="32" cx="32" gradientTransform="matrix(.87788 0 0 .87788 7.439 -11.336)" r="8"/>
  <radialGradient id="t" xlink:href="#b" gradientUnits="userSpaceOnUse" cy="31.602" cx="29.095" gradientTransform="matrix(.41571 .24001 -.24001 .41571 57.555 45.945)" r="7.2449"/>
  <radialGradient id="s" xlink:href="#a" gradientUnits="userSpaceOnUse" cy="32" cx="32" gradientTransform="matrix(.48002 0 0 .48002 46.679 50.679)" r="8"/>
  <radialGradient id="r" xlink:href="#b" gradientUnits="userSpaceOnUse" cy="31.602" cx="29.095" gradientTransform="matrix(.41571 .24001 -.24001 .41571 21.035 6.425)" r="7.2449"/>
  <radialGradient id="q" xlink:href="#a" gradientUnits="userSpaceOnUse" cy="32" cx="32" gradientTransform="matrix(.48002 0 0 .48002 10.159 11.159)" r="8"/>
  <radialGradient id="p" xlink:href="#b" gradientUnits="userSpaceOnUse" cy="31.602" cx="29.095" gradientTransform="matrix(.99230 .5729 -.5729 .99230 29.148 1.0573)" r="7.2449"/>
  <radialGradient id="o" xlink:href="#a" gradientUnits="userSpaceOnUse" cy="32" cx="32" gradientTransform="matrix(1.1458 0 0 1.1458 3.1881 12.357)" r="8"/>
  <radialGradient id="n" xlink:href="#b" gradientUnits="userSpaceOnUse" cy="31.602" cx="29.095" gradientTransform="matrix(.41571 .24001 -.24001 .41571 59.615 -2.101)" r="7.2449"/>
  <radialGradient id="m" xlink:href="#a" gradientUnits="userSpaceOnUse" cy="32" cx="32" gradientTransform="matrix(.48002 0 0 .48002 48.739 2.633)" r="8"/>
  <radialGradient id="l" xlink:href="#b" gradientUnits="userSpaceOnUse" cy="31.602" cx="29.095" gradientTransform="matrix(.64810 .37418 -.37418 .64810 21.26 10.34)" r="7.2449"/>
  <radialGradient id="k" xlink:href="#a" gradientUnits="userSpaceOnUse" cy="32" cx="32" gradientTransform="matrix(.74836 0 0 .74836 4.3042 17.721)" r="8"/>
  <radialGradient id="j" xlink:href="#b" gradientUnits="userSpaceOnUse" cy="31.602" cx="29.095" gradientTransform="matrix(.97853 .56495 -.56495 .97853 35.784 -20.654)" r="7.2449"/>
  <radialGradient id="i" xlink:href="#a" gradientUnits="userSpaceOnUse" cy="32" cx="32" gradientTransform="matrix(1.1299 0 0 1.1299 10.184 -9.5105)" r="8"/>
  <linearGradient id="bd" y2="69.688" xlink:href="#e" gradientUnits="userSpaceOnUse" x2="65.156" y1="16.125" x1="65.156"/>
  <linearGradient id="bc" y2="69.688" gradientUnits="userSpaceOnUse" x2="65.156" y1="16.125" x1="65.156">
   <stop stop-color="#7cb7f2" offset="0"/>
   <stop stop-color="#deecfc" stop-opacity="0" offset="1"/>
  </linearGradient>
  <linearGradient id="bb" stop-color="#fff" y2="72.766" gradientUnits="userSpaceOnUse" x2="76.451" y1="8.0625" x1="76.451">
   <stop offset="0"/>
   <stop stop-opacity="0" offset="1"/>
  </linearGradient>
  <radialGradient id="h" stop-color="#fff" gradientUnits="userSpaceOnUse" cy="90.172" cx="48" gradientTransform="matrix(1.1573 0 0 .99591 -7.551 .19713)" r="42">
   <stop offset="0"/>
   <stop stop-opacity="0" offset="1"/>
  </radialGradient>
  <linearGradient id="ba" y2="83.295" gradientUnits="userSpaceOnUse" x2="43.179" gradientTransform="matrix(1.0294,0,0,1.0294,-1.4118,-1.4118)" y1="13" x1="43.179">
   <stop stop-color="#919191" offset="0"/>
   <stop stop-color="#fdfdfd" offset="1"/>
  </linearGradient>
  <linearGradient id="az" y2="63.893" xlink:href="#e" gradientUnits="userSpaceOnUse" x2="36.357" y1="6" x1="36.357"/>
  <linearGradient id="ay" y2="5.9877" gradientUnits="userSpaceOnUse" x2="48" y1="90" x1="48">
   <stop stop-color="#b4b4b4" offset="0"/>
   <stop stop-color="#e6e6e6" offset="1"/>
  </linearGradient>
  <radialGradient id="g" gradientUnits="userSpaceOnUse" cy="-15.871" cx="56.066" gradientTransform="matrix(-.0022597 -1.2346 1.3844 0 70.098 140.3)" r="35.938">
   <stop stop-color="#4490e6" offset="0"/>
   <stop stop-color="#103d8f" offset="1"/>
  </radialGradient>
  <linearGradient id="ax" y2="6" xlink:href="#d" gradientUnits="userSpaceOnUse" x2="32.251" gradientTransform="translate(0,1)" y1="90" x1="32.251"/>
  <linearGradient id="aw" y2="5.9996" xlink:href="#d" gradientUnits="userSpaceOnUse" x2="32.251" gradientTransform="matrix(1.0238 0 0 1.0119 -1.1429 .929)" y1="90" x1="32.251"/>
  <linearGradient id="av" y2="90.239" xlink:href="#d" gradientUnits="userSpaceOnUse" x2="32.251" gradientTransform="matrix(1.0238,0,0,-1.0119,-1.1429,98.071)" y1="6.1317" x1="32.251"/>
  <linearGradient id="au" y2="16" gradientUnits="userSpaceOnUse" x2="-32" gradientTransform="matrix(-.5 -.86603 -.86603 .5 73.88 6.838)" y1="16" x1="-36">
   <stop stop-color="#ececec" stop-opacity="0" offset="0"/>
   <stop stop-color="#ccc" offset=".23398"/>
   <stop stop-color="#e6e6e6" offset=".50230"/>
   <stop stop-color="#aaa" offset="1"/>
  </linearGradient>
  <linearGradient id="at" gradientUnits="userSpaceOnUse" x2="-29" gradientTransform="matrix(.5 .86603 -.86603 .5 106.88 63.996)" y1="35.5" x1="-29">
   <stop stop-opacity=".76818" offset="0"/>
   <stop stop-opacity="0" offset=".061763"/>
   <stop stop-color="#fff" stop-opacity="0" offset=".93853"/>
   <stop stop-color="#fff" offset="1"/>
  </linearGradient>
  <linearGradient id="ar" y2="17.75" gradientUnits="userSpaceOnUse" x2="-25" gradientTransform="matrix(.5 .86603 -.86603 .5 106.88 63.996)" y1="17.75" x1="-33">
   <stop stop-color="#999" offset="0"/>
   <stop stop-color="#e6e6e6" offset=".35268"/>
   <stop stop-color="#1f1f1f" offset="1"/>
  </linearGradient>
  <linearGradient id="ao" y2="74.234" xlink:href="#c" gradientUnits="userSpaceOnUse" x2="-29.237" gradientTransform="matrix(.5 .86603 -.86603 .5 106.88 63.996)" y1="35.764" x1="-29"/>
  <linearGradient id="am" y2="56.094" xlink:href="#f" gradientUnits="userSpaceOnUse" x2="-26" gradientTransform="matrix(.5 .86603 -.86603 .5 106.88 63.996)" y1="56.094" x1="-32"/>
  <linearGradient id="al" y2="-2.5" xlink:href="#c" gradientUnits="userSpaceOnUse" gradientTransform="translate(108.86 -60.563)" x2="-29" x1="-29"/>
  <linearGradient id="ak" xlink:href="#f" gradientUnits="userSpaceOnUse" gradientTransform="translate(108.86 -60.563)" x2="-27" x1="-31"/>
 </defs>
 <g fill="url(#av)">
  <path opacity="0.08" d="m12 95.031c-5.5111 0-10.031-4.52-10.031-10.031v-71c0-5.5111 4.5202-10.031 10.031-10.031h72c5.5111 0 10.031 4.5202 10.031 10.031v71c0 5.5111-4.5202 10.031-10.031 10.031h-72z"/>
  <path opacity=".1" d="m12 94.031c-4.9716 0-9.0312-4.0596-9.0312-9.0312v-71c0-4.9718 4.0596-9.0314 9.0312-9.0314h72c4.9716 0 9.0312 4.0596 9.0312 9.0312v71c0 4.9716-4.0596 9.0312-9.0312 9.0312h-72z"/>
  <path opacity=".2" d="m12 93c-4.4091 0-8-3.591-8-8v-71c0-4.4091 3.5909-8 8-8h72c4.4091 0 8 3.5909 8 8v71c0 4.4091-3.5909 8-8 8h-72z"/>
 </g>
 <rect opacity=".3" rx="7" ry="7" height="85" width="86" y="7" x="5" fill="url(#aw)"/>
 <rect opacity=".45" rx="6" ry="6" height="84" width="84" y="7" x="6" fill="url(#ax)"/>
 <path d="m83.938 83.909v-71.869h-71.875v71.869h71.875z" fill="url(#g)"/>
 <rect opacity=".4" rx="3.0291" ry="2.383" height="10" width="72.536" y="74" x="11.786" fill="#fff"/>
 <g style="color:#000000">
  <path opacity="0.08" d="m19 13c-3.2894 0-6 2.7106-6 6v58c0 3.2894 2.7106 6 6 6h58c3.2894 0 6-2.7106 6-6v-58c0-3.2894-2.7106-6-6-6h-58zm0 4h58c1.1426 0 2 0.85741 2 2v58c0 1.1426-0.85741 2-2 2h-58c-1.1426 0-2-0.85741-2-2v-58c0-1.1426 0.85741-2 2-2z"/>
  <path opacity=".1" d="m17 14c-1.662 0-3 1.338-3 3v62c0 1.662 1.338 3 3 3h62c1.662 0 3-1.338 3-3v-62c0-1.662-1.338-3-3-3h-62zm0 1.9375h62c0.61816 0 1.0625 0.44434 1.0625 1.0625v62c0 0.61816-0.44434 1.0625-1.0625 1.0625h-62c-0.61816 0-1.0625-0.44434-1.0625-1.0625v-62c0-0.61816 0.44434-1.0625 1.0625-1.0625z"/>
  <path opacity=".25" d="m17 14c-1.662 0-3 1.338-3 3v62c0 1.662 1.338 3 3 3h62c1.662 0 3-1.338 3-3v-62c0-1.662-1.338-3-3-3h-62zm0 0.96875h62c1.1401 0 2.0312 0.89117 2.0312 2.0312v62c0 1.1401-0.89117 2.0312-2.0312 2.0312h-62c-1.1401 0-2.0312-0.89117-2.0312-2.0312v-62c0-1.1401 0.89117-2.0312 2.0312-2.0312z"/>
 </g>
 <path d="m12 6c-3.324 0-6 2.676-6 6v72c0 3.324 2.676 6 6 6h72c3.324 0 6-2.676 6-6v-72c0-3.324-2.676-6-6-6h-72zm5 8h62c1.6838 0 3 1.3162 3 3v62c0.000001 1.6838-1.3162 3-3 3h-62c-1.6838 0.000001-3-1.3162-3-3v-62c0-1.6838 1.3162-3 3-3z" fill="url(#ay)"/>
 <path opacity=".7" d="m12 6c-3.324 0-6 2.676-6 6v72c0 0.33472 0.04135 0.6507 0.09375 0.96875 0.0487 0.2956 0.09704 0.59692 0.1875 0.875 0.00988 0.03038 0.020892 0.0636 0.03125 0.09375 0.098865 0.28777 0.23488 0.54745 0.375 0.8125 0.14459 0.27351 0.31562 0.53562 0.5 0.78125 0.18438 0.24564 0.37378 0.47347 0.59375 0.6875 0.43995 0.42806 0.94291 0.81453 1.5 1.0938 0.27854 0.13961 0.57347 0.24695 0.875 0.34375-0.2562-0.10022-0.48671-0.23627-0.71875-0.375-0.00741-0.0044-0.023866 0.0045-0.03125 0-0.0319-0.019-0.0622-0.042-0.0937-0.062-0.1204-0.077-0.231-0.164-0.3437-0.25-0.1062-0.081-0.2133-0.161-0.3126-0.25-0.1778-0.162-0.3473-0.346-0.4999-0.531-0.1075-0.131-0.2183-0.266-0.3124-0.407-0.0251-0.038-0.0385-0.086-0.0626-0.125-0.0647-0.103-0.1302-0.204-0.1874-0.312-0.1011-0.195-0.2057-0.416-0.2813-0.625-0.008-0.022-0.0236-0.041-0.0313-0.063-0.0318-0.092-0.0358-0.187-0.0624-0.281-0.0304-0.107-0.0704-0.203-0.0938-0.313-0.0729-0.341-0.125-0.698-0.125-1.062v-72c0-2.782 2.2182-5 5-5h72c2.7818 0 5 2.2182 5 5v72c0 0.3643-0.05212 0.72099-0.125 1.0625-0.04415 0.20689-0.08838 0.39766-0.15625 0.59375-0.0077 0.02195-0.0233 0.04069-0.03125 0.0625-0.06274 0.17374-0.13838 0.36745-0.21875 0.53125-0.04158 0.0828-0.07904 0.16995-0.125 0.25-0.0546 0.09721-0.12677 0.18835-0.1875 0.28125-0.09411 0.14096-0.20492 0.276-0.3125 0.40625-0.14317 0.17445-0.30314 0.347-0.46875 0.5-0.01117 0.0102-0.01998 0.02115-0.03125 0.03125-0.13839 0.12556-0.28509 0.23444-0.4375 0.34375-0.10257 0.07315-0.20432 0.15336-0.3125 0.21875-0.0074 0.0045-0.02384-0.0044-0.03125 0-0.23204 0.13873-0.46255 0.27478-0.71875 0.375 0.30153-0.0968 0.59646-0.20414 0.875-0.34375 0.55709-0.27922 1.0601-0.66569 1.5-1.0938 0.21997-0.21403 0.40937-0.44186 0.59375-0.6875s0.35541-0.50774 0.5-0.78125c0.14012-0.26505 0.27614-0.52473 0.375-0.8125 0.01041-0.03078 0.02133-0.06274 0.03125-0.09375 0.09046-0.27808 0.1388-0.5794 0.1875-0.875 0.053-0.318 0.094-0.634 0.094-0.969v-72c0-3.324-2.676-6-6-6h-72z" fill="url(#az)"/>
 <rect stroke-linejoin="round" stroke-opacity=".7" rx="4" ry="4" height="70" width="70" stroke="url(#ba)" stroke-linecap="square" y="13" x="13" stroke-width="2" fill="none"/>
 <path opacity=".4" d="m12 90c-3.324 0-6-2.676-6-6v-72c0-0.33472 0.04135-0.6507 0.09375-0.96875 0.0487-0.2956 0.09704-0.59692 0.1875-0.875 0.0099-0.03 0.0209-0.063 0.0313-0.094 0.0989-0.2873 0.2349-0.547 0.375-0.812 0.1446-0.2735 0.3156-0.5356 0.5-0.7812 0.1844-0.2457 0.3738-0.4735 0.5937-0.6876 0.44-0.428 0.943-0.8145 1.5-1.0937 0.2786-0.1396 0.5735-0.2469 0.8748-0.3437-0.256 0.1002-0.4865 0.2362-0.7185 0.375-0.00741 0.0044-0.023866-0.0045-0.03125 0-0.031933 0.0193-0.062293 0.04251-0.09375 0.0625-0.1204 0.0767-0.23102 0.16351-0.34375 0.25-0.10617 0.0808-0.21328 0.16111-0.3125 0.25-0.1779 0.1614-0.3474 0.3453-0.5 0.5312-0.1075 0.1303-0.2183 0.2653-0.3124 0.4063-0.0251 0.0383-0.0385 0.0858-0.0626 0.125-0.0647 0.103-0.1302 0.2045-0.1874 0.3124-0.1011 0.1948-0.2057 0.4158-0.2813 0.625-0.008 0.0219-0.0236 0.0406-0.0313 0.0626-0.0318 0.0919-0.0358 0.1868-0.0624 0.2812-0.0304 0.1066-0.0704 0.203-0.0938 0.3125-0.0729 0.3415-0.125 0.6985-0.125 1.0625v72c0 2.7818 2.2182 5 5 5h72c2.7818 0 5-2.2182 5-5v-72c0-0.364-0.052-0.721-0.125-1.0625-0.044-0.2069-0.088-0.3977-0.156-0.5937-0.008-0.022-0.024-0.0407-0.031-0.0626-0.063-0.1737-0.139-0.3674-0.219-0.5312-0.042-0.0828-0.079-0.17-0.125-0.25-0.055-0.0972-0.127-0.1884-0.188-0.2812-0.094-0.141-0.205-0.276-0.312-0.4063-0.143-0.1745-0.303-0.347-0.469-0.5-0.011-0.0102-0.02-0.0211-0.031-0.0313-0.139-0.1255-0.285-0.2344-0.438-0.3437-0.102-0.0731-0.204-0.1534-0.312-0.2187-0.0074-0.0045-0.02384 0.0044-0.03125 0-0.23204-0.13873-0.46255-0.27478-0.71875-0.375 0.30153 0.0968 0.59646 0.20414 0.875 0.34375 0.55709 0.27922 1.0601 0.66569 1.5 1.0938 0.21997 0.21403 0.40937 0.44186 0.59375 0.6875s0.35541 0.50774 0.5 0.78125c0.14012 0.26505 0.27614 0.52473 0.375 0.8125 0.01041 0.03078 0.02133 0.06274 0.03125 0.09375 0.09046 0.27808 0.1388 0.5794 0.1875 0.875 0.053 0.318 0.094 0.634 0.094 0.969v72c0 3.324-2.676 6-6 6h-72z" fill="url(#h)"/>
 <rect opacity=".1" clip-path="url(#bg)" rx="12" ry="12" height="66" filter="url(#bh)" width="66" stroke="#fff" stroke-linecap="round" y="15" x="15" stroke-width=".5" fill="url(#bj)"/>
 <g fill-rule="evenodd">
  <path opacity=".4" d="m44.844 8.0625 1.3438 3.875h32.812c2.754 0 5.0625 2.3085 5.0625 5.0625v62c0.000002 2.754-2.3085 5.0625-5.0625 5.0625h-7.875l1.3438 3.875h11.531c2.2218 0 3.9375-1.7157 3.9375-3.9375v-72c0-2.2218-1.716-3.9375-3.938-3.9375h-39.156z" fill="url(#bb)"/>
  <path opacity=".7" d="m47.656 16.125 22.031 63.75h9.3125c0.5388 0 0.875-0.3362 0.875-0.875v-62c0-0.5388-0.33619-0.875-0.875-0.875h-31.344z" fill="url(#bc)"/>
  <path opacity=".5" d="m47.656 16.125 22.031 63.75h1l-22.031-63.75h-1z" fill="url(#bd)"/>
 </g>
 <g style="color:#000000">
  <path d="m55.38 26.646a9.0392 9.0392 0 0 1 -18.078 0 9.0392 9.0392 0 1 1 18.078 0z" fill="url(#i)"/>
  <path opacity=".1" d="m46.39 15-2.3094 9.3862-9.405 2.3085 9.405 2.2111 2.3203 9.5209 2.1993-9.5209 9.5327-2.2043-9.5327-2.3153-2.2103-9.3862z" fill="#fc0"/>
  <path opacity=".2" d="m46.401 37.29-1.6959-8.8517-8.8866-1.7306 8.8536-1.608 1.7287-8.9743 1.6263 8.8517 8.9561 1.7306-8.9213 1.8351-1.661 8.7473z" fill="#fc0"/>
  <path d="m46.401 36.16-1.0695-8.383-8.383-1.0695 8.383-1.0695 1.0695-8.383 1.0695 8.383 8.383 1.0695-8.383 1.0695-1.0695 8.383z" fill="url(#j)"/>
  <path d="m34.239 41.668a5.9869 5.9869 0 0 1 -11.974 0 5.9869 5.9869 0 1 1 11.974 0z" fill="url(#k)"/>
  <path opacity=".1" d="m28.284 33.955-1.5295 6.2167-6.2291 1.529 6.2292 1.4645 1.5368 6.3059 1.4567-6.3059 6.3138-1.46-6.3138-1.5335-1.4639-6.2167z" fill="#fc0"/>
  <path opacity=".2" d="m28.292 48.717-1.1232-5.8627-5.8858-1.1462 5.864-1.065 1.1449-5.9439 1.0771 5.8627 5.9319 1.1462-5.9088 1.2154-1.1001 5.7936z" fill="#fc0"/>
  <path d="m28.292 47.969-0.70833-5.5523-5.5523-0.70833 5.5523-0.70833 0.70833-5.5523 0.70833 5.5523 5.5523 0.70833-5.5523 0.70833-0.70833 5.5523z" fill="url(#l)"/>
  <path d="m67.36 43.159a14.718 14.718 0 0 1 -29.437 0 14.718 14.718 0 1 1 29.437 0z" fill="url(#ag)"/>
  <path opacity=".1" d="m52.721 24.195-3.7603 15.283-15.314 3.7589 15.314 3.6003 3.7781 15.503 3.5812-15.503 15.522-3.5893-15.522-3.7699-3.5989-15.283z" fill="#fc0"/>
  <path opacity=".2" d="m52.74 60.489-2.762-14.413-14.469-2.818 14.416-2.618 2.815-14.613 2.648 14.413 14.583 2.818-14.527 2.988-2.704 14.243z" fill="#fc0"/>
  <path d="m52.74 58.649-1.742-13.65-13.65-1.741 13.65-1.741 1.742-13.65l1.7414 13.65 13.65 1.7414-13.65 1.7414-1.7414 13.65z" fill="url(#ah)"/>
  <path d="m56.141 62.837a9.304 9.304 0 0 1 -18.608 0 9.304 9.304 0 1 1 18.608 0z" fill="url(#ai)"/>
  <path opacity=".1" d="m46.887 50.85-2.377 9.6612-9.6805 2.3761 9.6805 2.2759 2.3882 9.7998 2.2638-9.7998 9.812-2.2689-9.812-2.3831-2.275-9.6612z" fill="#fc0"/>
  <path opacity=".2" d="m46.899 73.792-1.7456-9.111-9.1469-1.7813 9.113-1.6551 1.7793-9.2372 1.674 9.111 9.2185 1.7813-9.1827 1.8888-1.7097 9.0036z" fill="#fc0"/>
  <path d="m46.899 72.629-1.1008-8.6286-8.6286-1.1008 8.6286-1.1008 1.1008-8.6286 1.1008 8.6286 8.6286 1.1008-8.6286 1.1008-1.1008 8.6286z" fill="url(#aj)"/>
  <path d="m67.94 17.994a3.8402 3.8402 0 0 1 -7.6803 0 3.8402 3.8402 0 1 1 7.6803 0z" fill="url(#m)"/>
  <path opacity=".1" d="m64.12 13.046-0.9811 3.9876-3.9956 0.98073 3.9956 0.93936 0.98573 4.0448 0.93436-4.0448 4.0498-0.93648-4.0498-0.98361-0.93899-3.9876z" fill="#fc0"/>
  <path opacity=".2" d="m64.125 22.515-0.72046-3.7605-3.7753-0.73521 3.7613-0.68312 0.73439-3.8126 0.69092 3.7605 3.8049 0.7352-3.7901 0.77959-0.70566 3.7162z" fill="#fc0"/>
  <path d="m64.125 22.035-0.45434-3.5614-3.5614-0.45434 3.5614-0.45434 0.45434-3.5614 0.45434 3.5614 3.5614 0.45434-3.5614 0.45434-0.45434 3.5614z" fill="url(#n)"/>
  <path d="m49.02 49.023a9.1664 9.1664 0 0 1 -18.333 0 9.1664 9.1664 0 1 1 18.333 0z" fill="url(#o)"/>
  <path opacity=".1" d="m39.903 37.213-2.3419 9.5183-9.5373 2.341 9.5373 2.2422 2.3529 9.6548 2.2303-9.6548 9.6669-2.2354-9.6669-2.3479-2.2414-9.5183z" fill="#fc0"/>
  <path opacity=".2" d="m39.915 59.816-1.7197-8.9762-9.0116-1.7549 8.9782-1.6306 1.753-9.1006 1.6492 8.9763 9.0821 1.7549-9.0469 1.8609-1.6844 8.8704z" fill="#fc0"/>
  <path d="m39.915 58.67-1.0845-8.501-8.501-1.0845 8.501-1.0845 1.0845-8.501 1.0845 8.501 8.501 1.0845-8.501 1.0845-1.0845 8.501z" fill="url(#p)"/>
  <path d="m29.36 26.52a3.8402 3.8402 0 0 1 -7.6803 0 3.8402 3.8402 0 1 1 7.6803 0z" fill="url(#q)"/>
  <path opacity=".1" d="m25.54 21.572-0.9811 3.9876-3.9956 0.98073 3.9956 0.93936 0.98573 4.0448 0.93436-4.0448 4.0498-0.93648-4.0498-0.98361-0.93899-3.9876z" fill="#fc0"/>
  <path opacity=".2" d="m25.545 31.041-0.72046-3.7605-3.7753-0.73521 3.7613-0.68312 0.73439-3.8126 0.69092 3.7605 3.8049 0.7352-3.7901 0.77959-0.70566 3.7162z" fill="#fc0"/>
  <path d="m25.545 30.561-0.45434-3.5614-3.5614-0.45434 3.5614-0.45434 0.45434-3.5614 0.45434 3.5614 3.5614 0.45434-3.5614 0.45434-0.45434 3.5614z" fill="url(#r)"/>
  <path d="m65.88 66.04a3.8402 3.8402 0 0 1 -7.6803 0 3.8402 3.8402 0 1 1 7.6803 0z" fill="url(#s)"/>
  <path opacity=".1" d="m62.06 61.092-0.9811 3.9876-3.9956 0.98073 3.9956 0.93936 0.98573 4.0448 0.93436-4.0448 4.0498-0.93648-4.0498-0.98361-0.93899-3.9876z" fill="#fc0"/>
  <path opacity=".2" d="m62.065 70.561-0.72046-3.7605-3.7753-0.73521 3.7613-0.68312 0.73439-3.8126 0.69092 3.7605 3.8049 0.7352-3.7901 0.77959-0.70566 3.7162z" fill="#fc0"/>
  <path d="m62.065 70.081-0.45434-3.5614-3.5614-0.45434 3.5614-0.45434 0.45434-3.5614 0.45434 3.5614 3.5614 0.45434-3.5614 0.45434-0.45434 3.5614z" fill="url(#t)"/>
  <path d="m42.554 16.756a7.023 7.023 0 0 1 -14.046 0 7.023 7.023 0 1 1 14.046 0z" fill="url(#u)"/>
  <path opacity=".1" d="m35.569 7.7077-1.7943 7.2927-7.3072 1.7936 7.3072 1.7179 1.8027 7.3973 1.7088-7.3973 7.4065-1.7127-7.4065-1.7989-1.7173-7.2927z" fill="#fc0"/>
  <path opacity=".2" d="m35.578 25.026-1.3176-6.8773-6.9044-1.3446 6.8789-1.2493 1.3431-6.9726 1.2636 6.8774 6.9585 1.3446-6.9315 1.4258-1.2905 6.7963z" fill="#fc0"/>
  <path d="m35.578 24.148-0.83092-6.5132-6.5132-0.83092 6.5132-0.83092 0.83092-6.5132 0.83092 6.5132 6.5132 0.83092-6.5132 0.83092-0.83092 6.5132z" fill="url(#v)"/>
  <path d="m73.239 33.252a5.9869 5.9869 0 0 1 -11.974 0 5.9869 5.9869 0 1 1 11.974 0z" fill="url(#w)"/>
  <path opacity=".1" d="m67.285 25.539-1.5295 6.2167-6.2291 1.529 6.2292 1.4645 1.5368 6.3059 1.4567-6.3059 6.3138-1.46-6.3138-1.5335-1.4639-6.2167z" fill="#fc0"/>
  <path opacity=".2" d="m67.292 40.301-1.1232-5.8627-5.8858-1.1462 5.864-1.065 1.1449-5.9439 1.0771 5.8627 5.9319 1.1462-5.9088 1.2154-1.1001 5.7936z" fill="#fc0"/>
  <path d="m67.292 39.553-0.70833-5.5523-5.5523-0.70833 5.5523-0.70833 0.70833-5.5523 0.70833 5.5523 5.5523 0.70833-5.5523 0.70833-0.70833 5.5523z" fill="url(#x)"/>
  <path d="m35.571 32.359a3.2126 3.2126 0 0 1 -6.4251 0 3.2126 3.2126 0 1 1 6.4251 0z" fill="url(#y)"/>
  <path opacity=".1" d="m32.376 28.22-0.82076 3.3359-3.3426 0.82045 3.3426 0.78584 0.82463 3.3837 0.78165-3.3837 3.388-0.78343-3.388-0.82286-0.78553-3.3359z" fill="#fc0"/>
  <path opacity=".2" d="m32.38 36.141-0.60272-3.1459-3.1583-0.61506 3.1466-0.57148 0.61437-3.1895 0.578 3.1459 3.183 0.61505-3.1707 0.65218-0.59033 3.1088z" fill="#fc0"/>
  <path d="m32.38 35.74-0.38009-2.9794-2.9794-0.38009 2.9794-0.38009 0.38009-2.9794 0.38009 2.9794 2.9794 0.38009-2.9794 0.38009-0.38009 2.9794z" fill="url(#z)"/>
  <path d="m74.613 24.594a3.2126 3.2126 0 0 1 -6.4251 0 3.2126 3.2126 0 1 1 6.4251 0z" fill="url(#aa)"/>
  <path opacity=".1" d="m71.418 20.455-0.82076 3.3359-3.3426 0.82045 3.3426 0.78584 0.82463 3.3837 0.78165-3.3837 3.388-0.78343-3.388-0.82286-0.78553-3.3359z" fill="#fc0"/>
  <path opacity=".2" d="m71.422 28.376-0.60272-3.1459-3.1583-0.61506 3.1466-0.57148 0.61437-3.1895 0.578 3.1459 3.183 0.61504-3.1707 0.65218-0.59033 3.1088z" fill="#fc0"/>
  <path d="m71.422 27.975-0.38009-2.9794-2.9794-0.38009 2.9794-0.38009 0.38009-2.9794 0.38009 2.9794 2.9794 0.38009-2.9794 0.38009-0.38009 2.9794z" fill="url(#ab)"/>
  <path d="m67.96 27.477a6.9008 6.9008 0 0 1 -13.802 0 6.9008 6.9008 0 1 1 13.802 0z" fill="url(#ac)"/>
  <path opacity=".1" d="m61.097 18.586-1.763 7.1657-7.18 1.7624 7.1801 1.688 1.7714 7.2685 1.679-7.2685 7.2776-1.6829-7.2776-1.7676-1.6874-7.1657z" fill="#fc0"/>
  <path opacity=".2" d="m61.106 35.603-1.2947-6.7576-6.7843-1.3212 6.7591-1.2276 1.3197-6.8513 1.2416 6.7577 6.8374 1.3212-6.8108 1.4009-1.2681 6.678z" fill="#fc0"/>
  <path d="m61.106 34.74-0.81646-6.3999-6.3999-0.81646 6.3999-0.81646 0.81646-6.3999 0.81646 6.3999 6.3999 0.81646-6.3999 0.81646-0.81646 6.3999z" fill="url(#ad)"/>
  <path d="m59.493 12.083a7.569 7.569 0 0 1 -15.138 0 7.569 7.569 0 1 1 15.138 0z" fill="url(#ae)"/>
  <path opacity=".1" d="m51.965 2.3308-1.9337 7.8596-7.8752 1.933 7.8753 1.8515 1.9429 7.9723 1.8416-7.9723 7.9822-1.8458l-7.983-1.938-1.85-7.8592z" fill="#fc0"/>
  <path opacity=".2" d="m51.974 20.995-1.42-7.4119-7.4411-1.4491 7.4136-1.3464 1.4475-7.5146 1.3618 7.4119 7.4994 1.4491-7.4703 1.5366-1.3909 7.3246z" fill="#fc0"/>
  <path d="m51.974 20.049-0.89551-7.0195-7.0195-0.89551 7.0195-0.89551 0.89551-7.0195 0.89551 7.0195 7.0195 0.89551-7.0195 0.89551-0.89551 7.0195z" fill="url(#af)"/>
 </g>
 <path opacity=".3" d="m98.313 41.452c-0.49373-0.99192-1.6897-1.393-2.6817-0.89928l-1.8464 0.91904c-0.51182-0.65583-1.3121-1.0192-2.1225-0.96814-0.16208 0.0102-0.31459 0.05403-0.47534 0.09697l-0.47344-0.95119-25.067 12.477 0.4456 0.89523-0.89523 0.4456-2.2381 1.114c-0.73774 0.3672-1.2101 1.0363-1.3449 1.7864-2.6448 1.3268-5.2139 2.6292-7.6935 3.8992-0.03863 0.01974-0.07332 0.03598-0.1119 0.0557-2.3662 1.2124-4.6511 2.3953-6.8264 3.5374-0.0096 0.005-0.01837 0.0089-0.02798 0.01393-0.0089 0.0046-0.01913 0.0093-0.02798 0.01393-0.65349 0.34318-1.2406 0.66707-1.8745 1.0028-0.04657 0.02467-0.09341 0.045-0.13988 0.06962-0.07435 0.03941-0.14974 0.0721-0.22381 0.1114-0.43795 0.2265-0.88777 0.46181-1.301 0.68244-12.569 6.7117-20.861 11.808-20.218 13.1 0.68077 1.3677 9.7214-2.2259 22.641-8.2325 3.956-1.8392 8.1769-3.8363 12.757-6.0702 0.99672-0.48619 2.0582-1.0309 3.0774-1.5317 0.87098-0.42804 1.758-0.84317 2.6437-1.281 0.67972 0.34471 1.4983 0.37125 2.2361 0.004l27.752-13.814c1.0849-0.54 1.5915-1.7514 1.2909-2.8766l1.8464-0.91904c0.99192-0.49372 1.393-1.6897 0.89928-2.6817z" fill="url(#be)"/>
 <path opacity=".6" d="m104.29 57.146c-0.28678-1.0702-1.3792-1.701-2.4495-1.4142l-1.9922 0.53381c-0.3713-0.74445-1.0834-1.2596-1.8878-1.3706-0.16088-0.0222-0.31906-0.0096-0.48513 0.000581l-0.275-1.0263-27.046 7.2469 0.25882 0.96592-0.96592 0.25882-2.4148 0.64705c-0.796 0.21329-1.3919 0.77518-1.673 1.4836-2.8557 0.7748-5.6324 1.5407-8.3149 2.2927-0.04178 0.01167-0.07901 0.0207-0.12074 0.03235-2.5599 0.71801-5.0343 1.4233-7.3932 2.1104-0.01042 0.003-0.01977 0.0051-0.03019 0.0081-0.0096 0.0028-0.0206 0.0053-0.03019 0.0081-0.70865 0.20649-1.3484 0.40725-2.0364 0.61036-0.05055 0.01492-0.10049 0.02554-0.15092 0.04044-0.0807 0.02385-0.16108 0.04091-0.24148 0.0647-0.47422 0.13496-0.96183 0.27619-1.4106 0.41033-13.652 4.0803-22.792 7.4276-22.418 8.8216 0.39542 1.4757 9.9699-0.24982 23.826-3.5694 4.2426-1.0164 8.7762-2.135 13.708-3.4143 1.0735-0.27844 2.222-0.60132 3.3204-0.88969 0.93866-0.24644 1.8905-0.47702 2.8455-0.7301 0.59767 0.47291 1.3947 0.66157 2.1907 0.44829l29.944-8.0234c1.1706-0.31366 1.9077-1.4002 1.8368-2.5627l1.9922-0.53382c1.0702-0.28677 1.701-1.3792 1.4142-2.4495z" fill="url(#bf)"/>
 <rect opacity="0.73" transform="matrix(.5 .866 -.866 .5 0 0)" rx="2" ry="2" height="8" width="4" y="-64.56" x="77.86" fill="url(#ak)"/>
 <rect opacity="0.73" transform="matrix(.5 .866 -.866 .5 0 0)" rx="2" ry="2" height="8" width="4" y="-64.56" x="77.86" fill="url(#al)"/>
 <path d="m62.951 52.408c-22.813 13.183-40.877 24.576-39.8 26.442 1.141 1.975 19.975-8.081 42.8-21.246l-3-5.1962z" fill="url(#am)"/>
 <path opacity=".8" d="m62.951 52.408c-22.813 13.183-40.877 24.576-39.8 26.442 1.141 1.975 19.975-8.081 42.8-21.246l-3-5.1962z" fill="url(#ao)"/>
 <path d="m91.63 37.582c-0.692-1.199-2.216-1.607-3.415-0.915l-26.847 15.5c-0.71368 0.41204-1.1438 1.109-1.2321 1.866l3 5.1962c0.69971 0.3021 1.5184 0.27808 2.2321-0.13397l26.847-15.5c1.199-0.692 1.607-2.215 0.915-3.415l-1.5-2.5981z" fill="url(#ar)"/>
 <path d="m91.63 37.582c-0.692-1.199-2.216-1.607-3.415-0.915l-26.847 15.5c-0.71368 0.41204-1.1438 1.109-1.2321 1.866l3 5.1962c0.69971 0.3021 1.5184 0.27808 2.2321-0.13397l26.847-15.5c1.199-0.692 1.607-2.215 0.915-3.415l-1.5-2.5981z" fill="url(#at)"/>
 <path opacity="0.11" d="m56.201 56.341c-0.57828 0.33953-1.0946 0.66149-1.6623 0.99581l2.9375 5.0879c0.57336-0.32456 1.1106-0.61011 1.6936-0.94169l-2.9688-5.1421zm-3.503 2.058c-2.3532 1.3914-4.604 2.7425-6.7575 4.0458l2.8125 4.8714c2.2054-1.2133 4.5004-2.4879 6.8825-3.8292l-2.9375-5.0879zm-8.5666 5.1624c-0.52208 0.31883-1.0991 0.65089-1.6082 0.96456l2.7188 4.709c0.52558-0.28505 1.1025-0.61723 1.6394-0.91044l-2.75-4.7632z" fill="#fff"/>
 <rect opacity=".4" transform="matrix(.5 .866 -.866 .5 106.88 63.996)" height="28" filter="url(#bi)" width="2" y="3" x="-33"/>
 <path d="m88.148 35.551-24.249 14 1 1.7321 19.053-11 1 1.7321 3.4641-2-1-1.7321 1.7321-1-1-1.7321z" fill="url(#au)"/>
</svg>
