<?xml version="1.0" encoding="UTF-8" standalone="no"?>
<svg xmlns="http://www.w3.org/2000/svg" height="96" width="96" version="1.1" xmlns:xlink="http://www.w3.org/1999/xlink">
 <defs>
  <linearGradient id="c" stop-color="#fff">
   <stop offset="0"/>
   <stop stop-opacity="0" offset="1"/>
  </linearGradient>
  <filter id="g" height="1.384" width="1.384" color-interpolation-filters="sRGB" y="-.192" x="-.192">
   <feGaussianBlur stdDeviation="5.28"/>
  </filter>
  <linearGradient id="r" y2="138.66" xlink:href="#c" gradientUnits="userSpaceOnUse" x2="48" y1="20.221" x1="48"/>
  <clipPath id="f">
   <rect rx="6" ry="6" height="84" width="84" y="6" x="6" fill="#fff"/>
  </clipPath>
  <clipPath id="d">
   <rect rx="6" ry="6" height="84" width="84" y="6" x="6" fill="url(#h)"/>
  </clipPath>
  <linearGradient id="h" y2="5.9877" gradientUnits="userSpaceOnUse" x2="48" y1="90" x1="48">
   <stop stop-color="#70a83e" offset="0"/>
   <stop stop-color="#9fd058" offset="1"/>
  </linearGradient>
  <linearGradient id="b" y2="7.0165" gradientUnits="userSpaceOnUse" x2="45.448" gradientTransform="matrix(1 0 0 1 100 0)" y1="92.54" x1="45.448">
   <stop offset="0"/>
   <stop stop-opacity=".58824" offset="1"/>
  </linearGradient>
  <linearGradient id="q" y2="20.895" gradientUnits="userSpaceOnUse" x2="84.639" gradientTransform="matrix(.41503 0 0 .41503 21.438 20.853)" y1="105.1" x1="86.133">
   <stop stop-color="#e5e5e5" offset="0"/>
   <stop stop-color="#ababab" offset="1"/>
  </linearGradient>
  <linearGradient id="p" y2="45.017" gradientUnits="userSpaceOnUse" x2="20.759" gradientTransform="matrix(1.2791,0,0,1.2791,17.302,17.582)" y1="1" x1="20.759">
   <stop stop-color="#f6f6f6" offset="0"/>
   <stop stop-color="#d2d2d2" offset="1"/>
  </linearGradient>
  <linearGradient id="o" y2="45" gradientUnits="userSpaceOnUse" x2="37.201" gradientTransform="matrix(1.2791,0,0,1.2791,17.302,17.582)" y1="1" x1="37.201">
   <stop stop-color="#aaa" offset="0"/>
   <stop stop-color="#8c8c8c" offset="1"/>
  </linearGradient>
  <radialGradient id="e" xlink:href="#c" gradientUnits="userSpaceOnUse" cy="90.172" cx="48" gradientTransform="matrix(1.1573 0 0 .99591 -7.551 .19713)" r="42"/>
  <linearGradient id="n" y2="63.893" xlink:href="#c" gradientUnits="userSpaceOnUse" x2="36.357" y1="6" x1="36.357"/>
  <linearGradient id="m" y2="90" gradientUnits="userSpaceOnUse" x2="48" y1="6" x1="48">
   <stop stop-color="#80a2c8" offset="0"/>
   <stop stop-color="#2e4c6d" offset="1"/>
  </linearGradient>
  <linearGradient id="k" y2="6" xlink:href="#b" gradientUnits="userSpaceOnUse" x2="32.251" gradientTransform="translate(0,1)" y1="90" x1="32.251"/>
  <linearGradient id="j" y2="5.9996" xlink:href="#b" gradientUnits="userSpaceOnUse" x2="32.251" gradientTransform="matrix(1.0238 0 0 1.0119 -1.1429 .929)" y1="90" x1="32.251"/>
  <linearGradient id="i" y2="90.239" xlink:href="#b" gradientUnits="userSpaceOnUse" x2="32.251" gradientTransform="matrix(1.0238,0,0,-1.0119,-1.1429,98.071)" y1="6.1317" x1="32.251"/>
 </defs>
 <g fill="url(#i)">
  <path opacity="0.08" d="m12 95.031c-5.5111 0-10.031-4.52-10.031-10.031v-71c0-5.5111 4.5202-10.031 10.031-10.031h72c5.5111 0 10.031 4.5202 10.031 10.031v71c0 5.5111-4.5202 10.031-10.031 10.031h-72z"/>
  <path opacity=".1" d="m12 94.031c-4.9716 0-9.0312-4.0596-9.0312-9.0312v-71c0-4.9718 4.0596-9.0314 9.0312-9.0314h72c4.9716 0 9.0312 4.0596 9.0312 9.0312v71c0 4.9716-4.0596 9.0312-9.0312 9.0312h-72z"/>
  <path opacity=".2" d="m12 93c-4.4091 0-8-3.591-8-8v-71c0-4.4091 3.5909-8 8-8h72c4.4091 0 8 3.5909 8 8v71c0 4.4091-3.5909 8-8 8h-72z"/>
 </g>
 <rect opacity=".3" rx="7" ry="7" height="85" width="86" y="7" x="5" fill="url(#j)"/>
 <rect opacity=".45" rx="6" ry="6" height="84" width="84" y="7" x="6" fill="url(#k)"/>
 <rect rx="6" ry="6" height="84" width="84" y="6" x="6" fill="url(#m)"/>
 <path opacity=".4" d="m12 6c-3.324 0-6 2.676-6 6v72c0 0.33472 0.04135 0.6507 0.09375 0.96875 0.0487 0.2956 0.09704 0.59692 0.1875 0.875 0.00988 0.03038 0.020892 0.0636 0.03125 0.09375 0.098865 0.28777 0.23488 0.54745 0.375 0.8125 0.14459 0.27351 0.31562 0.53562 0.5 0.78125 0.18438 0.24564 0.37378 0.47347 0.59375 0.6875 0.43995 0.42806 0.94291 0.81453 1.5 1.0938 0.27854 0.13961 0.57347 0.24695 0.875 0.34375-0.2562-0.10022-0.48671-0.23627-0.71875-0.375-0.00741-0.0044-0.023866 0.0045-0.03125 0-0.0319-0.019-0.0622-0.042-0.0937-0.062-0.1204-0.077-0.231-0.164-0.3437-0.25-0.1062-0.081-0.2133-0.161-0.3126-0.25-0.1778-0.162-0.3473-0.346-0.4999-0.531-0.1075-0.131-0.2183-0.266-0.3124-0.407-0.0251-0.038-0.0385-0.086-0.0626-0.125-0.0647-0.103-0.1302-0.204-0.1874-0.312-0.1011-0.195-0.2057-0.416-0.2813-0.625-0.008-0.022-0.0236-0.041-0.0313-0.063-0.0318-0.092-0.0358-0.187-0.0624-0.281-0.0304-0.107-0.0704-0.203-0.0938-0.313-0.0729-0.341-0.125-0.698-0.125-1.062v-72c0-2.782 2.2182-5 5-5h72c2.7818 0 5 2.2182 5 5v72c0 0.3643-0.05212 0.72099-0.125 1.0625-0.04415 0.20689-0.08838 0.39766-0.15625 0.59375-0.0077 0.02195-0.0233 0.04069-0.03125 0.0625-0.06274 0.17374-0.13838 0.36745-0.21875 0.53125-0.04158 0.0828-0.07904 0.16995-0.125 0.25-0.0546 0.09721-0.12677 0.18835-0.1875 0.28125-0.09411 0.14096-0.20492 0.276-0.3125 0.40625-0.14317 0.17445-0.30314 0.347-0.46875 0.5-0.01117 0.0102-0.01998 0.02115-0.03125 0.03125-0.13839 0.12556-0.28509 0.23444-0.4375 0.34375-0.10257 0.07315-0.20432 0.15336-0.3125 0.21875-0.0074 0.0045-0.02384-0.0044-0.03125 0-0.23204 0.13873-0.46255 0.27478-0.71875 0.375 0.30153-0.0968 0.59646-0.20414 0.875-0.34375 0.55709-0.27922 1.0601-0.66569 1.5-1.0938 0.21997-0.21403 0.40937-0.44186 0.59375-0.6875s0.35541-0.50774 0.5-0.78125c0.14012-0.26505 0.27614-0.52473 0.375-0.8125 0.01041-0.03078 0.02133-0.06274 0.03125-0.09375 0.09046-0.27808 0.1388-0.5794 0.1875-0.875 0.053-0.318 0.094-0.634 0.094-0.969v-72c0-3.324-2.676-6-6-6h-72z" fill="url(#n)"/>
 <path opacity=".2" d="m12 90c-3.324 0-6-2.676-6-6v-72c0-0.33472 0.04135-0.6507 0.09375-0.96875 0.0487-0.2956 0.09704-0.59692 0.1875-0.875 0.0099-0.03 0.0209-0.063 0.0313-0.094 0.0989-0.2873 0.2349-0.547 0.375-0.812 0.1446-0.2735 0.3156-0.5356 0.5-0.7812 0.1844-0.2457 0.3738-0.4735 0.5937-0.6876 0.44-0.428 0.943-0.8145 1.5-1.0937 0.2786-0.1396 0.5735-0.2469 0.8748-0.3437-0.256 0.1002-0.4865 0.2362-0.7185 0.375-0.00741 0.0044-0.023866-0.0045-0.03125 0-0.031933 0.0193-0.062293 0.04251-0.09375 0.0625-0.1204 0.0767-0.23102 0.16351-0.34375 0.25-0.10617 0.0808-0.21328 0.16111-0.3125 0.25-0.1779 0.1614-0.3474 0.3453-0.5 0.5312-0.1075 0.1303-0.2183 0.2653-0.3124 0.4063-0.0251 0.0383-0.0385 0.0858-0.0626 0.125-0.0647 0.103-0.1302 0.2045-0.1874 0.3124-0.1011 0.1948-0.2057 0.4158-0.2813 0.625-0.008 0.0219-0.0236 0.0406-0.0313 0.0626-0.0318 0.0919-0.0358 0.1868-0.0624 0.2812-0.0304 0.1066-0.0704 0.203-0.0938 0.3125-0.0729 0.3415-0.125 0.6985-0.125 1.0625v72c0 2.7818 2.2182 5 5 5h72c2.7818 0 5-2.2182 5-5v-72c0-0.364-0.052-0.721-0.125-1.0625-0.044-0.2069-0.088-0.3977-0.156-0.5937-0.008-0.022-0.024-0.0407-0.031-0.0626-0.063-0.1737-0.139-0.3674-0.219-0.5312-0.042-0.0828-0.079-0.17-0.125-0.25-0.055-0.0972-0.127-0.1884-0.188-0.2812-0.094-0.141-0.205-0.276-0.312-0.4063-0.143-0.1745-0.303-0.347-0.469-0.5-0.011-0.0102-0.02-0.0211-0.031-0.0313-0.139-0.1255-0.285-0.2344-0.438-0.3437-0.102-0.0731-0.204-0.1534-0.312-0.2187-0.0074-0.0045-0.02384 0.0044-0.03125 0-0.23204-0.13873-0.46255-0.27478-0.71875-0.375 0.30153 0.0968 0.59646 0.20414 0.875 0.34375 0.55709 0.27922 1.0601 0.66569 1.5 1.0938 0.21997 0.21403 0.40937 0.44186 0.59375 0.6875s0.35541 0.50774 0.5 0.78125c0.14012 0.26505 0.27614 0.52473 0.375 0.8125 0.01041 0.03078 0.02133 0.06274 0.03125 0.09375 0.09046 0.27808 0.1388 0.5794 0.1875 0.875 0.053 0.318 0.094 0.634 0.094 0.969v72c0 3.324-2.676 6-6 6h-72z" fill="url(#e)"/>
 <g opacity=".9" fill="#acf" clip-path="url(#d)">
  <path opacity=".15" d="m48 48 24-56h16l-40 56z"/>
  <path opacity=".15" d="m48 48 55.25 25.677-0.48 15.993-54.77-41.67z"/>
  <path opacity=".15" d="m48 48-59.828 11.516-8.969-13.25 68.797 1.734z"/>
  <path opacity=".15" d="m48 48-49.311-35.783 3.5359-15.604 45.775 51.387z"/>
  <path opacity=".15" d="m48 48 17.519-62.073 30.436 12.714-47.955 49.359z"/>
  <path opacity=".15" d="m48 48 61.64-19.001 5.85 32.461-67.49-13.46z"/>
  <path opacity=".15" d="m48 48-31.246 56.42-26.723-19.331 57.969-37.089z"/>
  <path opacity=".15" d="m48 48-62.812-14.651 11.304-30.988 51.508 45.639z"/>
  <path opacity=".15" d="m48 48 45.81 45.403-3.692 9.027-42.118-54.43z"/>
  <path opacity=".15" d="m48 48-2.9701 64.43-9.1685 3.31l12.137-67.74z"/>
  <path opacity=".15" d="m48 48-44.859 46.343-9.0649-3.585 53.924-42.758z"/>
  <path opacity=".15" d="m48 48-62.116 17.366-6.016-7.67 68.132-9.696z"/>
  <path opacity=".15" d="m48 48-29.147-57.537 6.35-7.396 22.797 64.933z"/>
  <path opacity=".15" d="m48 48 59.482-24.939 6.921 6.8641l-66.4 18.074z"/>
  <path opacity=".15" d="m48 48 40.187 45.793-6.897 14.437-33.29-60.23z"/>
  <path opacity=".15" d="m48 48-35.958-49.184 8.152-13.767 27.806 62.951z"/>
 </g>
 <rect opacity=".1" clip-path="url(#f)" rx="12" ry="12" height="66" filter="url(#g)" width="66" stroke="#fff" stroke-linecap="round" y="15" x="15" stroke-width=".5" fill="url(#r)"/>
 <path opacity=".05" d="m44.188 17c-3.032 0-5.438 2.542-5.438 5.5v1.5c-0.40375 0.15655-0.79124 0.35424-1.1875 0.53125l-1.093-1.093c-0.885-0.885-2.2116-1.6427-3.8125-1.6562-1.3981-0.01194-2.8068 0.52558-3.875 1.5938l-5.407 5.405c-2.1478 2.1478-2.0043 5.6205 0.0625 7.6875l1.0938 1.0938c-0.178 0.397-0.375 0.784-0.532 1.188h-1.5c-2.9583 0-5.5 2.406-5.5 5.438v7.625c0 3.0316 2.5417 5.4375 5.5 5.4375h1.5c0.15655 0.40375 0.35424 0.79124 0.53125 1.1875l-1.0938 1.0938c-2.067 2.067-2.2105 5.5397-0.0625 7.6875l5.4062 5.4062c2.1478 2.1478 5.6204 2.0046 7.6875-0.0625l1.094-1.095c0.397 0.177 0.784 0.374 1.188 0.531v1.5c0 2.9583 2.4059 5.5 5.4375 5.5h7.625c3.0316 0 5.4375-2.5417 5.4375-5.5v-1.5c0.40375-0.15655 0.79124-0.35424 1.1875-0.53125l1.0938 1.0938c2.0671 2.0671 5.5397 2.2103 7.6875 0.0625l5.405-5.407c2.1478-2.1478 2.0043-5.6205-0.0625-7.6875l-1.093-1.094c0.177-0.397 0.374-0.784 0.531-1.188h1.5c2.9583 0 5.5-2.4059 5.5-5.4375v-7.625c0-3.031-2.542-5.437-5.5-5.437h-1.5c-0.157-0.406-0.355-0.793-0.532-1.189l1.0938-1.0938c2.067-2.067 2.2105-5.5397 0.0625-7.6875l-5.407-5.405c-2.1478-2.1478-5.6204-2.0046-7.6875 0.0625l-1.094 1.093c-0.397-0.177-0.784-0.374-1.188-0.531v-1.5c0-2.9583-2.4059-5.5-5.4375-5.5h-7.625zm3.812 26.188c2.7171 0 4.8125 2.0954 4.8125 4.8125s-2.0954 4.8125-4.8125 4.8125-4.8125-2.0954-4.8125-4.8125 2.0954-4.8125 4.8125-4.8125z" display="block"/>
 <path opacity="0.08" d="m44.188 18.031c-2.4655 0-4.4062 2.0565-4.4062 4.4688v2.1875c-0.84674 0.30617-1.673 0.6425-2.4688 1.0312l-1.563-1.563c-0.729-0.729-1.806-1.333-3.094-1.344-1.14-0.009-2.288 0.414-3.156 1.282l-5.406 5.406c-1.7411 1.7412-1.6182 4.5691 0.0625 6.25l1.5625 1.5625c-0.38875 0.79572-0.72508 1.622-1.0312 2.4688h-2.1875c-2.4122 0-4.4688 1.9408-4.4688 4.4062v7.625c0 2.4655 2.0565 4.4062 4.4688 4.4062h2.1875c0.30618 0.84674 0.6425 1.673 1.0312 2.4688l-1.5625 1.5625c-1.6808 1.6808-1.8038 4.5089-0.0625 6.25l5.406 5.406c1.7411 1.7411 4.5691 1.6184 6.25-0.0625l1.5625-1.5625c0.79572 0.38875 1.622 0.72508 2.4688 1.0312v2.1875c0 2.4122 1.9408 4.4688 4.4062 4.4688h7.625c2.4655 0 4.4062-2.0565 4.4062-4.4688v-2.1875c0.84674-0.30617 1.673-0.6425 2.4688-1.0312l1.563 1.562c1.6809 1.6809 4.5089 1.8036 6.25 0.0625l5.406-5.406c1.7411-1.7412 1.6182-4.5691-0.0625-6.25l-1.563-1.563c0.38875-0.79571 0.72508-1.622 1.0312-2.4688h2.1875c2.4122 0 4.4688-1.9408 4.4688-4.4062v-7.625c0-2.4655-2.0565-4.4062-4.4688-4.4062h-2.1875c-0.306-0.847-0.642-1.674-1.031-2.47l1.5625-1.5625c1.6808-1.6808 1.8038-4.5089 0.0625-6.25l-5.406-5.406c-1.7411-1.7411-4.5691-1.6184-6.25 0.0625l-1.5625 1.5625c-0.796-0.388-1.623-0.724-2.469-1.03v-2.1875c0-2.4122-1.9408-4.4688-4.4062-4.4688h-7.625zm3.812 24.125c3.2563 0 5.8438 2.5874 5.8438 5.8438 0 3.2563-2.5874 5.8438-5.8438 5.8438-3.2563 0-5.8438-2.5874-5.8438-5.8438 0-3.2563 2.5874-5.8438 5.8438-5.8438z" display="block"/>
 <path opacity=".2" d="m44.188 19.031c-1.8975 0-3.4062 1.6003-3.4062 3.4688v2.875c-1.2828 0.41908-2.5201 0.94925-3.6875 1.5625l-2.0625-2.0625c-0.58342-0.58342-1.4117-1.0543-2.375-1.0625-0.87648-0.0075-1.766 0.32854-2.4375 1l-5.4062 5.4062c-1.3357 1.3357-1.2376 3.5123 0.0625 4.8125l2.0625 2.0625c-0.61325 1.1674-1.1434 2.4047-1.5625 3.6875h-2.875c-1.8685 0-3.4688 1.5087-3.4688 3.4062v7.625c0 1.8975 1.6003 3.4062 3.4688 3.4062h2.875c0.41908 1.2828 0.94925 2.5201 1.5625 3.6875l-2.0625 2.0625c-1.3002 1.3002-1.3983 3.4768-0.0625 4.8125l5.4062 5.4062c1.3356 1.3357 3.5123 1.2377 4.8125-0.0625l2.0625-2.0625c1.1674 0.61325 2.4047 1.1434 3.6875 1.5625v2.875c0 1.8684 1.5087 3.4688 3.4062 3.4688h7.625c1.8975 0 3.4062-1.6003 3.4062-3.4688v-2.875c1.2828-0.41908 2.5201-0.94925 3.6875-1.5625l2.0625 2.0625c1.3002 1.3002 3.4769 1.3981 4.8125 0.0625l5.4062-5.4062c1.3357-1.3357 1.2376-3.5123-0.0625-4.8125l-2.0625-2.0625c0.61325-1.1674 1.1434-2.4047 1.5625-3.6875h2.875c1.8684 0 3.4688-1.5087 3.4688-3.4062v-7.625c0-1.8975-1.6003-3.4062-3.4688-3.4062h-2.875c-0.41908-1.2828-0.94925-2.5201-1.5625-3.6875l2.0625-2.0625c1.3002-1.3002 1.3983-3.4768 0.0625-4.8125l-5.405-5.408c-1.3356-1.3356-3.5123-1.2377-4.8125 0.0625l-2.0625 2.0625c-1.166-0.614-2.403-1.144-3.686-1.563v-2.875c0-1.8685-1.5088-3.4688-3.4062-3.4688h-7.625zm3.812 22.125c3.7968 0 6.8438 3.047 6.8438 6.8438s-3.047 6.8438-6.8438 6.8438-6.8438-3.047-6.8438-6.8438 3.047-6.8438 6.8438-6.8438z" display="block"/>
 <path opacity=".3" d="m44.188 20c-1.363 0-2.438 1.138-2.438 2.5v3.5c-1.7179 0.49094-3.3491 1.2076-4.875 2.0625l-2.5312-2.5c-0.45629-0.45628-1.0316-0.77569-1.6875-0.78125-0.62972-0.0054-1.2629 0.23163-1.75 0.71875l-5.406 5.406c-0.96063 0.96064-0.8927 2.4822 0.0625 3.4375l2.5 2.5312c-0.854 1.526-1.571 3.157-2.062 4.875h-3.5c-1.3624 0-2.5 1.0755-2.5 2.4375v7.625c0 1.362 1.1376 2.4375 2.5 2.4375h3.5c0.49095 1.7179 1.2076 3.3491 2.0625 4.875l-2.5 2.5312c-0.95529 0.95529-1.0232 2.4769-0.0625 3.4375l5.406 5.406c0.96062 0.96063 2.4822 0.8928 3.4375-0.0625l2.5312-2.5c1.5259 0.85495 3.1571 1.5716 4.875 2.0625v3.5c0 1.3624 1.0755 2.5 2.4375 2.5h7.625c1.362 0 2.4375-1.1376 2.4375-2.5v-3.5c1.7179-0.49094 3.3491-1.2076 4.875-2.0625l2.5312 2.5c0.9553 0.95531 2.4769 1.0231 3.4375 0.0625l5.406-5.406c0.96063-0.96064 0.8927-2.4822-0.0625-3.4375l-2.5-2.5312c0.854-1.526 1.571-3.157 2.062-4.875h3.5c1.3624 0 2.5-1.0755 2.5-2.4375v-7.625c0-1.362-1.138-2.437-2.5-2.437h-3.5c-0.49094-1.7179-1.2076-3.3491-2.0625-4.875l2.5-2.5312c0.95529-0.95529 1.0232-2.4769 0.0625-3.4375l-5.406-5.406c-0.96063-0.96062-2.4822-0.8928-3.4375 0.0625l-2.5312 2.5c-1.526-0.853-3.157-1.57-4.875-2.061v-3.5c0-1.3624-1.0755-2.5-2.4375-2.5h-7.625zm3.812 20.188c4.3161 0 7.8125 3.4964 7.8125 7.8125s-3.4964 7.8125-7.8125 7.8125-7.8125-3.4964-7.8125-7.8125 3.4964-7.8125 7.8125-7.8125z" display="block"/>
 <path stroke-linejoin="round" d="m44.203 19.5c-1.0823 0-1.9586 0.89778-1.9586 1.9985v3.8772c-1.9351 0.5156-3.7842 1.2944-5.476 2.2783l-2.758-2.758c-0.38918-0.38918-0.85537-0.5953-1.359-0.59956-0.50363-0.0043-1.0163 0.17696-1.399 0.55959l-5.3961 5.3961c-0.76526 0.76527-0.73838 1.9796 0.03989 2.758l2.758 2.758c-0.98393 1.6918-1.7627 3.5408-2.2783 5.476h-3.8772c-1.1008 0-1.9985 0.87631-1.9985 1.9586v7.5944c0 1.0823 0.89779 1.9586 1.9985 1.9586h3.8772c0.51561 1.9352 1.2944 3.7842 2.2783 5.476l-2.758 2.758c-0.77835 0.77835-0.80523 1.9927-0.03989 2.758l5.3961 5.3961c0.76526 0.76527 1.9796 0.73838 2.758-0.03997l2.758-2.758c1.6918 0.98394 3.5408 1.7627 5.476 2.2783v3.8772c0 1.1008 0.87632 1.9985 1.9586 1.9985h7.5944c1.0823 0 1.9586-0.89779 1.9586-1.9985v-3.8772c1.9351-0.5156 3.7842-1.2944 5.476-2.2783l2.758 2.758c0.77835 0.77835 1.9927 0.80524 2.758 0.03997l5.3961-5.3961c0.76526-0.76527 0.73838-1.9796-0.03989-2.758l-2.758-2.758c0.98393-1.6918 1.7627-3.5408 2.2783-5.476h3.8772c1.1007 0 1.9985-0.87631 1.9985-1.9586v-7.5944c0-1.0823-0.89779-1.9586-1.9985-1.9586h-3.8772c-0.514-1.934-1.293-3.783-2.277-5.475l2.758-2.758c0.77835-0.77835 0.80524-1.9927 0.03989-2.758l-5.3961-5.3961c-0.76527-0.76527-1.9796-0.73838-2.758 0.03997l-2.758 2.758c-1.6918-0.98394-3.5408-1.7627-5.476-2.2783v-3.8772c0-1.1008-0.87631-1.9985-1.9586-1.9985h-7.5944zm3.7972 19.186c4.5893 0 8.3139 3.7246 8.3139 8.3139s-3.7246 8.3139-8.3139 8.3139-8.3139-3.7246-8.3139-8.3139 3.7246-8.3139 8.3139-8.3139z" display="block" stroke="url(#o)" fill="url(#p)"/>
 <path d="m48 29.733c-9.5212 0-17.267 7.7461-17.267 17.267 0 9.5212 7.7461 17.267 17.267 17.267 9.5212 0 17.267-7.7461 17.267-17.267 0-9.5212-7.7462-17.267-17.267-17.267z" stroke="url(#q)" stroke-width="2" fill="none"/>
 <path opacity=".05" d="m48 30.372c-9.1688 0-16.628 7.4591-16.628 16.628 0 9.1687 7.4591 16.628 16.628 16.628 9.1688-0.000002 16.628-7.4591 16.628-16.628 0-9.1687-7.4591-16.628-16.628-16.628zm0 7.6744c4.9423 0 8.9535 4.0111 8.9535 8.9535 0 4.9423-4.0112 8.9535-8.9535 8.9535s-8.9535-4.0111-8.9535-8.9535c0-4.9423 4.0112-8.9535 8.9535-8.9535z"/>
</svg>
