<?xml version="1.0" encoding="UTF-8" standalone="no"?>
<svg xmlns="http://www.w3.org/2000/svg" height="96" width="96" version="1.1" xmlns:xlink="http://www.w3.org/1999/xlink">
 <defs>
  <linearGradient id="d" stop-color="#fff">
   <stop offset="0"/>
   <stop stop-opacity="0" offset="1"/>
  </linearGradient>
  <filter id="y" height="1.384" width="1.384" color-interpolation-filters="sRGB" y="-.192" x="-.192">
   <feGaussianBlur stdDeviation="5.28"/>
  </filter>
  <clipPath id="x">
   <rect rx="6" ry="6" height="84" width="84" y="6" x="6" fill="#fff"/>
  </clipPath>
  <linearGradient id="e">
   <stop stop-color="#e5e5e5" offset="0"/>
   <stop stop-color="#ababab" offset="1"/>
  </linearGradient>
  <clipPath id="w">
   <rect rx="6" ry="6" height="84" width="84" y="6" x="6" fill="url(#f)"/>
  </clipPath>
  <linearGradient id="f" y2="5.9877" gradientUnits="userSpaceOnUse" x2="48" y1="90" x1="48">
   <stop stop-color="#70a83e" offset="0"/>
   <stop stop-color="#9fd058" offset="1"/>
  </linearGradient>
  <linearGradient id="c" y2="7.0165" gradientUnits="userSpaceOnUse" x2="45.448" gradientTransform="matrix(1.0059 0 0 .99417 100 0)" y1="92.54" x1="45.448">
   <stop offset="0"/>
   <stop stop-opacity=".58824" offset="1"/>
  </linearGradient>
  <linearGradient id="v" y2="6" xlink:href="#c" gradientUnits="userSpaceOnUse" x2="32.251" gradientTransform="translate(0,1)" y1="90" x1="32.251"/>
  <linearGradient id="u" y2="5.9996" xlink:href="#c" gradientUnits="userSpaceOnUse" x2="32.251" gradientTransform="matrix(1.0238 0 0 1.0119 -1.1429 .929)" y1="90" x1="32.251"/>
  <linearGradient id="t" y2="90.239" xlink:href="#c" gradientUnits="userSpaceOnUse" x2="32.251" gradientTransform="matrix(1.0238,0,0,-1.0119,-1.1429,98.071)" y1="6.1317" x1="32.251"/>
  <radialGradient id="i" xlink:href="#d" gradientUnits="userSpaceOnUse" cy="90.172" cx="48" gradientTransform="matrix(1.1573 0 0 .99591 -7.551 .19713)" r="42"/>
  <linearGradient id="s" y2="63.893" xlink:href="#d" gradientUnits="userSpaceOnUse" x2="36.357" y1="6" x1="36.357"/>
  <linearGradient id="r" y2="90" gradientUnits="userSpaceOnUse" x2="48" gradientTransform="translate(.0000016426 -.0000023783)" y1="6" x1="48">
   <stop stop-color="#80a2c8" offset="0"/>
   <stop stop-color="#2e4c6d" offset="1"/>
  </linearGradient>
  <linearGradient id="q" y2="138.66" xlink:href="#d" gradientUnits="userSpaceOnUse" x2="48" y1="20.221" x1="48"/>
  <radialGradient id="h" stop-color="#f89400" gradientUnits="userSpaceOnUse" cy="54.106" cx="47.644" gradientTransform="matrix(2.3125,2.3348,1.2718,-1.2596,-125.15,4.5326)" r="4.8616">
   <stop offset="0"/>
   <stop stop-opacity="0" offset="1"/>
  </radialGradient>
  <linearGradient id="p" y2="69.231" stop-color="#ffe99d" gradientUnits="userSpaceOnUse" x2="69.694" gradientTransform="matrix(.5 .86603 -.86603 .5 91.524 -24.524)" y1="66.836" x1="60.756">
   <stop offset="0"/>
   <stop stop-opacity="0" offset="1"/>
  </linearGradient>
  <radialGradient id="g" stop-color="#f60" gradientUnits="userSpaceOnUse" cy="53.891" cx="48.09" gradientTransform="matrix(-1.4136 1.391 -1.9727 -2.0048 227.98 87.318)" r="5.4927">
   <stop offset="0"/>
   <stop stop-opacity="0" offset="1"/>
  </radialGradient>
  <linearGradient id="o" stop-color="#fff" y2="64.308" gradientUnits="userSpaceOnUse" x2="54.767" y1="44.04" x1="52.515">
   <stop offset="0"/>
   <stop stop-opacity="0" offset="1"/>
  </linearGradient>
  <linearGradient id="n" y2="52.872" gradientUnits="userSpaceOnUse" x2="59.574" y1="71.888" x1="64.67">
   <stop stop-color="#ffa92a" offset="0"/>
   <stop stop-color="#ffcf2a" offset="1"/>
  </linearGradient>
  <linearGradient id="m" y2="47.535" gradientUnits="userSpaceOnUse" x2="36.821" y1="21.65" x1="32.238">
   <stop stop-color="#f6f6f6" offset="0"/>
   <stop stop-color="#d2d2d2" offset="1"/>
  </linearGradient>
  <linearGradient id="l" y2="45.618" gradientUnits="userSpaceOnUse" x2="42.662" gradientTransform="matrix(-1,0,0,-1,91.081,91.12)" y1="48.268" x1="45.312">
   <stop offset="0"/>
   <stop stop-opacity="0" offset="1"/>
  </linearGradient>
  <linearGradient id="k" y2="66.807" xlink:href="#e" gradientUnits="userSpaceOnUse" x2="-6.5245" gradientTransform="matrix(0.44989,0,0,0.44989,-7.7869e-6,-94.533)" y1="62.879" x1="5.2745"/>
  <linearGradient id="j" y2="66.807" xlink:href="#e" gradientUnits="userSpaceOnUse" x2="-6.5245" y1="62.879" x1="5.2745"/>
 </defs>
 <g fill="url(#t)">
  <path opacity="0.08" d="m12 95.031c-5.5111 0-10.031-4.52-10.031-10.031v-71c0-5.5111 4.5202-10.031 10.031-10.031h72c5.5111 0 10.031 4.5202 10.031 10.031v71c0 5.5111-4.5202 10.031-10.031 10.031h-72z"/>
  <path opacity=".1" d="m12 94.031c-4.9716 0-9.0312-4.0596-9.0312-9.0312v-71c0-4.9718 4.0596-9.0314 9.0312-9.0314h72c4.9716 0 9.0312 4.0596 9.0312 9.0312v71c0 4.9716-4.0596 9.0312-9.0312 9.0312h-72z"/>
  <path opacity=".2" d="m12 93c-4.4091 0-8-3.591-8-8v-71c0-4.4091 3.5909-8 8-8h72c4.4091 0 8 3.5909 8 8v71c0 4.4091-3.5909 8-8 8h-72z"/>
 </g>
 <rect opacity=".3" rx="7" ry="7" height="85" width="86" y="7" x="5" fill="url(#u)"/>
 <rect opacity=".45" rx="6" ry="6" height="84" width="84" y="7" x="6" fill="url(#v)"/>
 <rect rx="6" ry="6" height="84" width="84" y="6" x="6" fill="url(#r)"/>
 <path opacity=".4" d="m12 6c-3.324 0-6 2.676-6 6v72c0 0.33472 0.04135 0.6507 0.09375 0.96875 0.0487 0.2956 0.09704 0.59692 0.1875 0.875 0.00988 0.03038 0.020892 0.0636 0.03125 0.09375 0.098865 0.28777 0.23488 0.54745 0.375 0.8125 0.14459 0.27351 0.31562 0.53562 0.5 0.78125 0.18438 0.24564 0.37378 0.47347 0.59375 0.6875 0.43995 0.42806 0.94291 0.81453 1.5 1.0938 0.27854 0.13961 0.57347 0.24695 0.875 0.34375-0.2562-0.10022-0.48671-0.23627-0.71875-0.375-0.00741-0.0044-0.023866 0.0045-0.03125 0-0.0319-0.019-0.0622-0.042-0.0937-0.062-0.1204-0.077-0.231-0.164-0.3437-0.25-0.1062-0.081-0.2133-0.161-0.3126-0.25-0.1778-0.162-0.3473-0.346-0.4999-0.531-0.1075-0.131-0.2183-0.266-0.3124-0.407-0.0251-0.038-0.0385-0.086-0.0626-0.125-0.0647-0.103-0.1302-0.204-0.1874-0.312-0.1011-0.195-0.2057-0.416-0.2813-0.625-0.008-0.022-0.0236-0.041-0.0313-0.063-0.0318-0.092-0.0358-0.187-0.0624-0.281-0.0304-0.107-0.0704-0.203-0.0938-0.313-0.0729-0.341-0.125-0.698-0.125-1.062v-72c0-2.782 2.2182-5 5-5h72c2.7818 0 5 2.2182 5 5v72c0 0.3643-0.05212 0.72099-0.125 1.0625-0.04415 0.20689-0.08838 0.39766-0.15625 0.59375-0.0077 0.02195-0.0233 0.04069-0.03125 0.0625-0.06274 0.17374-0.13838 0.36745-0.21875 0.53125-0.04158 0.0828-0.07904 0.16995-0.125 0.25-0.0546 0.09721-0.12677 0.18835-0.1875 0.28125-0.09411 0.14096-0.20492 0.276-0.3125 0.40625-0.14317 0.17445-0.30314 0.347-0.46875 0.5-0.01117 0.0102-0.01998 0.02115-0.03125 0.03125-0.13839 0.12556-0.28509 0.23444-0.4375 0.34375-0.10257 0.07315-0.20432 0.15336-0.3125 0.21875-0.0074 0.0045-0.02384-0.0044-0.03125 0-0.23204 0.13873-0.46255 0.27478-0.71875 0.375 0.30153-0.0968 0.59646-0.20414 0.875-0.34375 0.55709-0.27922 1.0601-0.66569 1.5-1.0938 0.21997-0.21403 0.40937-0.44186 0.59375-0.6875s0.35541-0.50774 0.5-0.78125c0.14012-0.26505 0.27614-0.52473 0.375-0.8125 0.01041-0.03078 0.02133-0.06274 0.03125-0.09375 0.09046-0.27808 0.1388-0.5794 0.1875-0.875 0.053-0.318 0.094-0.634 0.094-0.969v-72c0-3.324-2.676-6-6-6h-72z" fill="url(#s)"/>
 <path opacity=".2" d="m12 90c-3.324 0-6-2.676-6-6v-72c0-0.33472 0.04135-0.6507 0.09375-0.96875 0.0487-0.2956 0.09704-0.59692 0.1875-0.875 0.0099-0.03 0.0209-0.063 0.0313-0.094 0.0989-0.2873 0.2349-0.547 0.375-0.812 0.1446-0.2735 0.3156-0.5356 0.5-0.7812 0.1844-0.2457 0.3738-0.4735 0.5937-0.6876 0.44-0.428 0.943-0.8145 1.5-1.0937 0.2786-0.1396 0.5735-0.2469 0.8748-0.3437-0.256 0.1002-0.4865 0.2362-0.7185 0.375-0.00741 0.0044-0.023866-0.0045-0.03125 0-0.031933 0.0193-0.062293 0.04251-0.09375 0.0625-0.1204 0.0767-0.23102 0.16351-0.34375 0.25-0.10617 0.0808-0.21328 0.16111-0.3125 0.25-0.1779 0.1614-0.3474 0.3453-0.5 0.5312-0.1075 0.1303-0.2183 0.2653-0.3124 0.4063-0.0251 0.0383-0.0385 0.0858-0.0626 0.125-0.0647 0.103-0.1302 0.2045-0.1874 0.3124-0.1011 0.1948-0.2057 0.4158-0.2813 0.625-0.008 0.0219-0.0236 0.0406-0.0313 0.0626-0.0318 0.0919-0.0358 0.1868-0.0624 0.2812-0.0304 0.1066-0.0704 0.203-0.0938 0.3125-0.0729 0.3415-0.125 0.6985-0.125 1.0625v72c0 2.7818 2.2182 5 5 5h72c2.7818 0 5-2.2182 5-5v-72c0-0.364-0.052-0.721-0.125-1.0625-0.044-0.2069-0.088-0.3977-0.156-0.5937-0.008-0.022-0.024-0.0407-0.031-0.0626-0.063-0.1737-0.139-0.3674-0.219-0.5312-0.042-0.0828-0.079-0.17-0.125-0.25-0.055-0.0972-0.127-0.1884-0.188-0.2812-0.094-0.141-0.205-0.276-0.312-0.4063-0.143-0.1745-0.303-0.347-0.469-0.5-0.011-0.0102-0.02-0.0211-0.031-0.0313-0.139-0.1255-0.285-0.2344-0.438-0.3437-0.102-0.0731-0.204-0.1534-0.312-0.2187-0.0074-0.0045-0.02384 0.0044-0.03125 0-0.23204-0.13873-0.46255-0.27478-0.71875-0.375 0.30153 0.0968 0.59646 0.20414 0.875 0.34375 0.55709 0.27922 1.0601 0.66569 1.5 1.0938 0.21997 0.21403 0.40937 0.44186 0.59375 0.6875s0.35541 0.50774 0.5 0.78125c0.14012 0.26505 0.27614 0.52473 0.375 0.8125 0.01041 0.03078 0.02133 0.06274 0.03125 0.09375 0.09046 0.27808 0.1388 0.5794 0.1875 0.875 0.053 0.318 0.094 0.634 0.094 0.969v72c0 3.324-2.676 6-6 6h-72z" fill="url(#i)"/>
 <g opacity=".9" fill="#acf" clip-path="url(#w)">
  <path opacity=".15" d="m48 48 24-56h16l-40 56z"/>
  <path opacity=".15" d="m48 48 55.25 25.677-0.48 15.993-54.77-41.67z"/>
  <path opacity=".15" d="m48 48-59.828 11.516-8.969-13.25 68.797 1.734z"/>
  <path opacity=".15" d="m48 48-49.311-35.783 3.5359-15.604 45.775 51.387z"/>
  <path opacity=".15" d="m48 48 17.519-62.073 30.436 12.714-47.955 49.359z"/>
  <path opacity=".15" d="m48 48 61.64-19.001 5.85 32.461-67.49-13.46z"/>
  <path opacity=".15" d="m48 48-31.246 56.42-26.723-19.331 57.969-37.089z"/>
  <path opacity=".15" d="m48 48-62.812-14.651 11.304-30.988 51.508 45.639z"/>
  <path opacity=".15" d="m48 48 45.81 45.403-3.692 9.027-42.118-54.43z"/>
  <path opacity=".15" d="m48 48-2.9701 64.43-9.1685 3.31l12.137-67.74z"/>
  <path opacity=".15" d="m48 48-44.859 46.343-9.0649-3.585 53.924-42.758z"/>
  <path opacity=".15" d="m48 48-62.116 17.366-6.016-7.67 68.132-9.696z"/>
  <path opacity=".15" d="m48 48-29.147-57.537 6.35-7.396 22.797 64.933z"/>
  <path opacity=".15" d="m48 48 59.482-24.939 6.921 6.8641l-66.4 18.074z"/>
  <path opacity=".15" d="m48 48 40.187 45.793-6.897 14.437-33.29-60.23z"/>
  <path opacity=".15" d="m48 48-35.958-49.184 8.152-13.767 27.806 62.951z"/>
 </g>
 <rect opacity=".1" clip-path="url(#x)" rx="12" ry="12" height="66" filter="url(#y)" width="66" stroke="#fff" stroke-linecap="round" y="15" x="15" stroke-width=".5" fill="url(#q)"/>
 <path opacity=".05" d="m34.781 18.969c-2.07 0.13424-4.6741 0.172-6.75 1.6875-0.03238 0.01907-0.06369 0.03995-0.09375 0.0625-0.8022 0.75837-1.025 1.8687-0.8125 2.7812 0.19565 0.84033 0.73295 1.5535 1.4375 2.0625l-0.03125 0.03125 4.5938 4.5625-3.9688 3.9688c-1.8275-1.8284-3.6425-3.7406-5.5625-5.5312-0.03916-0.03449-0.08099-0.06595-0.125-0.094-1.837-1.216-4.175 0.077-4.594 2.094l-0.063-0.032c-2.9102 8.2015 1.5869 17.981 9.7812 21 0.0089 0.0033 0.02231-0.0033 0.03125 0 3.1978 1.2395 6.7442 1.3423 10.062 0.5625l1.876 1.876c-0.2321 1.1511-0.09779 2.2955 0.375 3.2188 0.56537 1.104 1.4538 1.9547 2.2812 2.6875l-0.03 0.032c0.01563 0.01565 0.04687 0.0156 0.0625 0.03125 5.495 5.503 10.937 11.052 16.531 16.469 0.02047 0.01113 0.04132 0.02156 0.0625 0.03125 5.0251 4.3574 13.412 2.9216 16.625-2.9062 0.0042-0.0077-0.0042-0.02357 0-0.03125 2.858-4.6439 1.5601-10.891-2.5625-14.312l0.032-0.032c-0.026-0.027-0.068-0.037-0.094-0.063-5.7693-5.8062-11.681-11.732-16.656-16.563-0.50692-0.59198-1.1471-0.96402-1.75-1.0938-0.63577-0.13681-1.1946-0.11516-1.6562-0.09375s-0.80606 0.02432-1-0.03125c-0.49938-0.36181-0.91444-0.82061-1.407-1.3122-0.075-0.16-0.114-0.388-0.094-0.719 0.04018-0.64702 0.33935-1.5854 0.375-2.6875 0.000814-0.02515-0.000524-0.03719 0-0.0625 0.61522-8.1844-5.53-15.919-13.562-17.312-1.0756-0.2082-2.1631-0.28529-3.25-0.28125-0.02083-0.000643-0.04167-0.000643-0.0625 0z"/>
 <path opacity="0.08" d="m34.844 19.969c-2.0892 0.13548-4.4803 0.23086-6.2188 1.5-1.059 1.0012-0.50768 2.6841 0.61295 3.3911 1.7748 1.7655 3.5497 3.5309 5.3246 5.2964l-5.4062 5.4062c-2.093-2.0577-4.1163-4.2289-6.25-6.2188-1.2376-0.81964-2.9339 0.15465-3.1235 1.564-2.7159 7.6539 1.5444 16.922 9.193 19.723 3.2046 1.2492 6.8104 1.3813 10.118 0.46284l2.5312 2.5312c-0.87973 2.2607 0.71043 4.1896 2.2951 5.5834 5.5138 5.5214 10.967 11.095 16.567 16.517 4.5132 3.9135 12.234 2.5353 15.106-2.7072 2.6056-4.2059 1.4171-10.027-2.3776-13.108-5.542-5.582-11.116-11.151-16.728-16.674-1.509-1.91-3.922 0.26-5.055-1.803-2.027-1.099-0.801-3.057-0.763-4.898 0.607-7.646-5.26-14.976-12.77-16.278-1.006-0.195-2.031-0.292-3.056-0.288zm32.156 47.062c2.8238 0.68877-1.366 3.476-0.90001 0.56951 0.125-0.369 0.524-0.586 0.9-0.57z"/>
 <path opacity=".2" d="m34.844 21.094c-1.7333 0.0064-3.4565 0.33281-5.0938 0.9375a0.89295 0.89295 0 0 0 -0.312 1.468l6.687 6.656-6.969 6.969-6.656-6.687a0.89295 0.89295 0 0 0 -1.469 0.312c-1.9405 5.2539-0.81098 11.408 3.4062 15.625 4.0693 4.0693 9.9038 5.1995 15.031 3.5312l3.344 3.344c-0.66714 1.2197-0.52848 2.7528 0.5 3.7812l12.25 12.281 0.8125 0.84375a0.89295 0.89295 0 0 0 0.03125 0l4.095 4.094c3.5196 3.5196 9.2304 3.5196 12.75 0s3.5196-9.2304 0-12.75l-4.0938-4.0938a0.89295 0.89295 0 0 0 0 -0.03125l-0.844-0.813-12.281-12.25c-0.628-0.628-1.454-0.968-2.281-0.968-0.53057 0-1.0291 0.20778-1.5 0.46875l-3.344-3.344c1.668-5.128 0.538-10.962-3.531-15.031-2.9-2.901-6.727-4.358-10.531-4.344zm32.156 44.812c1.1743 0 2.0938 0.91943 2.0938 2.0938 0 1.1743-0.91944 2.0938-2.0938 2.0938-1.1743 0-2.0938-0.91943-2.0938-2.0938 0-1.1743 0.91944-2.0938 2.0938-2.0938z"/>
 <path opacity=".3" d="m34.844 22c-1.626 0.006-3.2384 0.30516-4.7812 0.875l7.312 7.281-8.219 8.219-7.281-7.313c-1.8235 4.9373-0.77824 10.722 3.1875 14.688 3.9736 3.9736 9.7438 5.0261 14.688 3.1875l4.1875 4.1875c-0.90835 0.90835-0.90835 2.3729 0 3.2812l12.281 12.281 0.8125 0.84375 4.0938 4.0938c3.1792 3.1792 8.3208 3.1792 11.5 0s3.1792-8.3208 0-11.5l-4.095-4.095-0.843-0.812-12.282-12.281c-0.454-0.455-1.063-0.688-1.656-0.688-0.59272 0-1.1708 0.23332-1.625 0.6875l-4.187-4.188c1.838-4.944 0.786-10.714-3.188-14.688-2.726-2.726-6.329-4.075-9.906-4.062zm32.156 43c1.6568 0 3 1.3431 3 3s-1.3432 3-3 3-3-1.3431-3-3 1.3432-3 3-3z"/>
 <rect transform="rotate(-45)" height="14.699" width="11.594" y="57.851" x="-5.7969" fill="url(#j)"/>
 <rect transform="rotate(135)" height="6.6131" width="5.2159" y="-68.507" x="-2.608" fill="url(#k)"/>
 <path opacity=".4" d="m47.139 38.967-8.2706 8.2391 5.0102 4.947 8.3338-8.0812-5.0733-5.1049z" fill="url(#l)"/>
 <path opacity=".2" d="m45 36.812-8.188 8.188 10.376 10.406 8.218-8.218-10.406-10.376zm0 1.438 8.969 8.938-6.781 6.781l-8.938-8.969 6.75-6.75z"/>
 <path d="m21.864 30.062c-1.8235 4.9373-0.76335 10.714 3.2024 14.68 5.4332 5.4332 14.242 5.4332 19.675 0 5.4332-5.4332 5.4332-14.242 0-19.675-3.9657-3.9657-9.7425-5.0259-14.68-3.2024l7.3014 7.3014-8.1981 8.1981-7.3014-7.3014z" fill="url(#m)"/>
 <path d="m53.75 43.25c-0.59272 0-1.1708 0.23332-1.625 0.6875l-8.1875 8.1875c-0.90835 0.90835-0.90835 2.3729 0 3.2812l12.281 12.281 0.8125 0.84375 4.0938 4.0938c3.1792 3.1792 8.3208 3.1792 11.5 0s3.1792-8.3208 0-11.5l-4.095-4.095-0.843-0.812-12.282-12.281c-0.454-0.455-1.063-0.688-1.656-0.688zm13.25 20.75c1.6569 0 3 1.3431 3 3s-1.3431 3-3 3-3-1.3431-3-3 1.3431-3 3-3z" fill="url(#n)"/>
 <path opacity=".8" d="m73.125 62.625c0.23889 0.7333 0.375 1.5307 0.375 2.3438 0 4.1493-3.3507 7.5-7.5 7.5-2.5384 0-4.7962-1.26-6.1562-3.1875 0.9803 3.0092 3.8199 5.1875 7.1562 5.1875 4.1493 0 7.5-3.3507 7.5-7.5 0-1.6128-0.50997-3.1197-1.375-4.3438z" fill="#f98d01"/>
 <path d="m53.75 43.25c-0.59272 0-1.1708 0.23332-1.625 0.6875l-8.1875 8.1875c-0.90835 0.90835-0.90835 2.3729 0 3.2812l12.281 12.281 0.8125 0.84375 4.0938 4.0938c3.1792 3.1792 8.3208 3.1792 11.5 0s3.1792-8.3208 0-11.5l-4.095-4.095-0.843-0.812-12.282-12.281c-0.454-0.455-1.063-0.688-1.656-0.688zm0 1.3438c0.23912 0 0.52751 0.09001 0.71875 0.28125l12.281 12.281a1.3476 1.3476 0 0 0 0 0.03125l0.844 0.813 4.094 4.062c2.6656 2.6656 2.6656 6.9594 0 9.625s-6.9594 2.6656-9.625 0l-4.063-4.093-0.812-0.844a1.3476 1.3476 0 0 0 -0.03125 0l-12.282-12.281c-0.39629-0.39629-0.39629-1.01 0-1.4062l8.1875-8.1875c0.21308-0.21308 0.44838-0.28125 0.6875-0.28125z" fill="#d88100"/>
 <path d="m67 63c-2.2091 0-4 1.7909-4 4s1.7909 4 4 4 4-1.7909 4-4-1.7909-4-4-4zm0 1c1.6569 0 3 1.3431 3 3s-1.3431 3-3 3-3-1.3431-3-3 1.3431-3 3-3z" fill="#d88100"/>
 <path opacity=".6" d="m53.75 44.562c-0.24745 0-0.46874 0.09374-0.6875 0.3125l-8.187 8.188c-0.40836 0.40836-0.40836 0.99789 0 1.4062l12.282 12.282a1.3158 1.3158 0 0 1 0 0.03125l0.8125 0.84375 4.0938 4.0625c2.6777 2.6777 6.9473 2.6777 9.625 0s2.6777-6.9473 0-9.625l-4.0625-4.0938-0.84375-0.8125a1.3158 1.3158 0 0 1 -0.03125 0l-12.281-12.281c-0.198-0.197-0.472-0.313-0.719-0.313zm0 1.625 12 11.969a2.7498 2.7498 0 0 0 0.03125 0.03125l0.8125 0.78125 0.031 0.032 4.0625 4.0625c2.1312 2.1312 2.1312 5.4938 0 7.625s-5.4938 2.1312-7.625 0l-4.063-4.062-0.031-0.031-0.781-0.813a2.7498 2.7498 0 0 0 -0.032 -0.031l-11.968-12 7.562-7.562z" fill="url(#o)"/>
 <path opacity=".6" d="m64.481 56.951a15.215 10.985 45 0 1 -18.527 -2.9902l7.7676-7.7676z" fill="url(#g)"/>
 <path d="m46.833 54.398 6.875-6.7857 11.753 11.511" stroke="url(#h)" stroke-width="2" fill="none"/>
 <path d="m71.763 64.25c-1.519-2.631-4.882-3.532-7.513-2.013-2.6306 1.5188-3.5319 4.8825-2.0131 7.5131s4.8825 3.5319 7.5131 2.0131 3.5319-4.8825 2.0131-7.5131zm-0.86603 0.5c1.243 2.152 0.505 4.904-1.647 6.147s-4.904 0.505-6.147-1.647-0.505-4.904 1.647-6.147 4.904-0.505 6.147 1.647z" fill="url(#p)"/>
 <path opacity=".4" d="m30.812 21.625c-0.25073 0.07675-0.50314 0.15883-0.75 0.25l7.2646 7.2649 0.5-0.5-7.015-7.015zm16.062 6.2188c1.9392 4.9856 0.90035 10.881-3.125 14.906-5.4332 5.4332-14.254 5.4332-19.688 0-0.80456-0.80456-1.4657-1.6935-2.0312-2.625 0.67746 1.6764 1.6732 3.2669 3.0312 4.625 5.4332 5.4332 14.254 5.4332 19.688 0 4.5843-4.5843 5.2767-11.571 2.125-16.906z" fill="#4d4d4d"/>
 <path opacity=".5" d="m37.812 28.674-8.656 8.701-7.281-7.313c-0.62689 1.6973-0.89937 3.4932-0.84375 5.2812 0.05765-1.457 0.33278-2.8978 0.84375-4.2812l7.2812 7.3125 9.1562-9.2009-0.5-0.5z" fill="#fff"/>
</svg>
