<?xml version="1.0" encoding="UTF-8" standalone="no"?>
<!-- Created with Inkscape (http://www.inkscape.org/) -->

<svg
   xmlns:dc="http://purl.org/dc/elements/1.1/"
   xmlns:cc="http://creativecommons.org/ns#"
   xmlns:rdf="http://www.w3.org/1999/02/22-rdf-syntax-ns#"
   xmlns:svg="http://www.w3.org/2000/svg"
   xmlns="http://www.w3.org/2000/svg"
   xmlns:xlink="http://www.w3.org/1999/xlink"
   xmlns:sodipodi="http://sodipodi.sourceforge.net/DTD/sodipodi-0.dtd"
   xmlns:inkscape="http://www.inkscape.org/namespaces/inkscape"
   version="1.0"
   width="96"
   height="96"
   id="svg2408"
   inkscape:version="0.91 r13725"
   sodipodi:docname="hicolor_categories_scalable_cs-online-accounts.svg">
  <sodipodi:namedview
     pagecolor="#ffffff"
     bordercolor="#666666"
     borderopacity="1"
     objecttolerance="10"
     gridtolerance="10"
     guidetolerance="10"
     inkscape:pageopacity="0"
     inkscape:pageshadow="2"
     inkscape:window-width="839"
     inkscape:window-height="480"
     id="namedview73"
     showgrid="false"
     inkscape:zoom="2.4583333"
     inkscape:cx="48"
     inkscape:cy="48"
     inkscape:window-x="0"
     inkscape:window-y="0"
     inkscape:window-maximized="0"
     inkscape:current-layer="layer4" />
  <defs
     id="defs2410">
    <linearGradient
       id="linearGradient3849">
      <stop
         id="stop3851"
         style="stop-color:#e5e5e5;stop-opacity:1"
         offset="0" />
      <stop
         id="stop3853"
         style="stop-color:#ffffff;stop-opacity:1"
         offset="1" />
    </linearGradient>
    <linearGradient
       id="linearGradient3833">
      <stop
         id="stop3835"
         style="stop-color:#d9d9d9;stop-opacity:1"
         offset="0" />
      <stop
         id="stop3837"
         style="stop-color:#ffffff;stop-opacity:1"
         offset="1" />
    </linearGradient>
    <linearGradient
       x1="45.447727"
       y1="92.539597"
       x2="45.447727"
       y2="7.0165396"
       id="ButtonShadow"
       gradientUnits="userSpaceOnUse"
       gradientTransform="scale(1.0058652,0.994169)">
      <stop
         id="stop3750"
         style="stop-color:#000000;stop-opacity:1"
         offset="0" />
      <stop
         id="stop3752"
         style="stop-color:#000000;stop-opacity:0.58823532"
         offset="1" />
    </linearGradient>
    <linearGradient
       id="linearGradient3737">
      <stop
         id="stop3739"
         style="stop-color:#ffffff;stop-opacity:1"
         offset="0" />
      <stop
         id="stop3741"
         style="stop-color:#ffffff;stop-opacity:0"
         offset="1" />
    </linearGradient>
    <linearGradient
       id="linearGradient3700">
      <stop
         id="stop3702"
         style="stop-color:#53aec2;stop-opacity:1"
         offset="0" />
      <stop
         id="stop3704"
         style="stop-color:#80c3d2;stop-opacity:1"
         offset="1" />
    </linearGradient>
    <filter
       color-interpolation-filters="sRGB"
       id="filter3174">
      <feGaussianBlur
         id="feGaussianBlur3176"
         stdDeviation="1.71" />
    </filter>
    <linearGradient
       x1="36.357143"
       y1="6"
       x2="36.357143"
       y2="63.893143"
       id="linearGradient3188"
       xlink:href="#linearGradient3737"
       gradientUnits="userSpaceOnUse" />
    <filter
       x="-0.192"
       y="-0.192"
       width="1.3839999"
       height="1.3839999"
       color-interpolation-filters="sRGB"
       id="filter3794">
      <feGaussianBlur
         id="feGaussianBlur3796"
         stdDeviation="5.28" />
    </filter>
    <linearGradient
       x1="48"
       y1="20.220806"
       x2="48"
       y2="138.66119"
       id="linearGradient3613"
       xlink:href="#linearGradient3737"
       gradientUnits="userSpaceOnUse" />
    <radialGradient
       cx="48"
       cy="90.171875"
       r="42"
       fx="48"
       fy="90.171875"
       id="radialGradient3619"
       xlink:href="#linearGradient3737"
       gradientUnits="userSpaceOnUse"
       gradientTransform="matrix(1.1573129,0,0,0.99590774,-7.5510206,0.19713193)" />
    <clipPath
       id="clipPath3613">
      <rect
         width="84"
         height="84"
         rx="6"
         ry="6"
         x="6"
         y="6"
         id="rect3615"
         style="fill:#ffffff;fill-opacity:1;fill-rule:nonzero;stroke:none" />
    </clipPath>
    <linearGradient
       x1="48"
       y1="90"
       x2="48"
       y2="5.9877172"
       id="linearGradient3617"
       xlink:href="#linearGradient3700"
       gradientUnits="userSpaceOnUse" />
    <linearGradient
       x1="45.447727"
       y1="92.539597"
       x2="45.447727"
       y2="7.0165396"
       id="ButtonShadow-0"
       gradientUnits="userSpaceOnUse"
       gradientTransform="matrix(1.0058652,0,0,0.994169,100,0)">
      <stop
         id="stop3750-8"
         style="stop-color:#000000;stop-opacity:1"
         offset="0" />
      <stop
         id="stop3752-5"
         style="stop-color:#000000;stop-opacity:0.58823532"
         offset="1" />
    </linearGradient>
    <linearGradient
       x1="32.251034"
       y1="6.1317081"
       x2="32.251034"
       y2="90.238609"
       id="linearGradient3780"
       xlink:href="#ButtonShadow-0"
       gradientUnits="userSpaceOnUse"
       gradientTransform="matrix(1.0238095,0,0,1.0119048,-1.1428571,-98.071429)" />
    <linearGradient
       x1="32.251034"
       y1="6.1317081"
       x2="32.251034"
       y2="90.238609"
       id="linearGradient3772"
       xlink:href="#ButtonShadow-0"
       gradientUnits="userSpaceOnUse"
       gradientTransform="matrix(1.0238095,0,0,1.0119048,-1.1428571,-98.071429)" />
    <linearGradient
       x1="32.251034"
       y1="6.1317081"
       x2="32.251034"
       y2="90.238609"
       id="linearGradient3725"
       xlink:href="#ButtonShadow-0"
       gradientUnits="userSpaceOnUse"
       gradientTransform="matrix(1.0238095,0,0,1.0119048,-1.1428571,-98.071429)" />
    <linearGradient
       x1="32.251034"
       y1="6.1317081"
       x2="32.251034"
       y2="90.238609"
       id="linearGradient3721"
       xlink:href="#ButtonShadow-0"
       gradientUnits="userSpaceOnUse"
       gradientTransform="translate(0,-97)" />
    <linearGradient
       x1="32.251034"
       y1="6.1317081"
       x2="32.251034"
       y2="90.238609"
       id="linearGradient3026"
       xlink:href="#ButtonShadow-0"
       gradientUnits="userSpaceOnUse"
       gradientTransform="matrix(1.0238095,0,0,1.0119048,-1.1428571,-98.071429)" />
    <radialGradient
       cx="-67.361107"
       cy="30.722223"
       r="17.5"
       fx="-67.361107"
       fy="30.722223"
       id="radialGradient3839"
       xlink:href="#linearGradient3833"
       gradientUnits="userSpaceOnUse"
       gradientTransform="matrix(1.2777774,-1.5934198e-8,1.3855826e-8,1.1111109,18.711391,-3.4135747)" />
    <radialGradient
       cx="-55.999996"
       cy="29"
       r="17.5"
       fx="-55.999996"
       fy="29"
       id="radialGradient3847"
       xlink:href="#linearGradient3849"
       gradientUnits="userSpaceOnUse"
       gradientTransform="matrix(1.2571429,0,0,0.97142857,14.4,0.82857156)" />
    <radialGradient
       cx="-69.643715"
       cy="31.597223"
       r="17.5"
       fx="-69.643715"
       fy="31.597223"
       id="radialGradient3857"
       xlink:href="#linearGradient3833"
       gradientUnits="userSpaceOnUse"
       gradientTransform="matrix(1.2777774,-1.5934198e-8,1.3855826e-8,1.1111109,18.711391,-3.4135747)" />
    <clipPath
       id="clipPath4882">
      <path
         d="m 44,58 0,-16 13,8 z"
         inkscape:connector-curvature="0"
         id="path4884"
         style="fill:#ff00ff;fill-opacity:1;stroke:none" />
    </clipPath>
    <filter
       color-interpolation-filters="sRGB"
       id="filter4890">
      <feGaussianBlur
         id="feGaussianBlur4892"
         stdDeviation="0.2175" />
    </filter>
  </defs>
  <metadata
     id="metadata2413">
    <rdf:RDF>
      <cc:Work
         rdf:about="">
        <dc:format>image/svg+xml</dc:format>
        <dc:type
           rdf:resource="http://purl.org/dc/dcmitype/StillImage" />
        <dc:title />
      </cc:Work>
    </rdf:RDF>
  </metadata>
  <g
     id="layer2"
     style="display:none">
    <rect
       width="86"
       height="85"
       rx="6"
       ry="6"
       x="5"
       y="7"
       id="rect3745"
       style="opacity:0.9;fill:url(#ButtonShadow);fill-opacity:1;fill-rule:nonzero;stroke:none;filter:url(#filter3174)" />
  </g>
  <g
     id="layer3">
    <path
       d="m 12,-95.03125 c -5.5110903,0 -10.03125,4.52016 -10.03125,10.03125 l 0,71 c 0,5.5110902 4.5201598,10.03125 10.03125,10.03125 l 72,0 c 5.51109,0 10.03125,-4.5201597 10.03125,-10.03125 l 0,-71 c 0,-5.51109 -4.52016,-10.03125 -10.03125,-10.03125 l -72,0 z"
       transform="scale(1,-1)"
       id="path3786"
       style="opacity:0.07999998;fill:url(#linearGradient3026);fill-opacity:1;fill-rule:nonzero;stroke:none;display:inline" />
    <path
       d="m 12,-94.03125 c -4.971633,0 -9.03125,4.059617 -9.03125,9.03125 l 0,71 c 0,4.9716329 4.0596171,9.03125 9.03125,9.03125 l 72,0 c 4.971633,0 9.03125,-4.059617 9.03125,-9.03125 l 0,-71 c 0,-4.971633 -4.059617,-9.03125 -9.03125,-9.03125 l -72,0 z"
       transform="scale(1,-1)"
       id="path3778"
       style="opacity:0.1;fill:url(#linearGradient3780);fill-opacity:1;fill-rule:nonzero;stroke:none;display:inline" />
    <path
       d="m 12,-93 c -4.4091333,0 -8,3.590867 -8,8 l 0,71 c 0,4.4091333 3.5908667,8 8,8 l 72,0 c 4.409133,0 8,-3.5908667 8,-8 l 0,-71 c 0,-4.409133 -3.590867,-8 -8,-8 l -72,0 z"
       transform="scale(1,-1)"
       id="path3770"
       style="opacity:0.2;fill:url(#linearGradient3772);fill-opacity:1;fill-rule:nonzero;stroke:none;display:inline" />
    <rect
       width="86"
       height="85"
       rx="7"
       ry="7"
       x="5"
       y="-92"
       transform="scale(1,-1)"
       id="rect3723"
       style="opacity:0.3;fill:url(#linearGradient3725);fill-opacity:1;fill-rule:nonzero;stroke:none;display:inline" />
    <rect
       width="84"
       height="84"
       rx="6"
       ry="6"
       x="6"
       y="-91"
       transform="scale(1,-1)"
       id="rect3716"
       style="opacity:0.45;fill:url(#linearGradient3721);fill-opacity:1;fill-rule:nonzero;stroke:none;display:inline" />
  </g>
  <g
     id="layer1">
    <rect
       width="84"
       height="84"
       rx="6"
       ry="6"
       x="6"
       y="6"
       id="rect2419"
       style="fill:url(#linearGradient3617);fill-opacity:1;fill-rule:nonzero;stroke:none" />
    <path
       d="M 12,6 C 8.676,6 6,8.676 6,12 l 0,2 0,68 0,2 c 0,0.334721 0.04135,0.6507 0.09375,0.96875 0.0487,0.295596 0.09704,0.596915 0.1875,0.875 0.00988,0.03038 0.020892,0.0636 0.03125,0.09375 0.098865,0.287771 0.2348802,0.547452 0.375,0.8125 0.1445918,0.273507 0.3156161,0.535615 0.5,0.78125 0.1843839,0.245635 0.3737765,0.473472 0.59375,0.6875 0.439947,0.428056 0.94291,0.814526 1.5,1.09375 0.278545,0.139612 0.5734731,0.246947 0.875,0.34375 -0.2562018,-0.100222 -0.4867109,-0.236272 -0.71875,-0.375 -0.00741,-0.0044 -0.023866,0.0045 -0.03125,0 -0.031933,-0.0193 -0.062293,-0.04251 -0.09375,-0.0625 -0.120395,-0.0767 -0.2310226,-0.163513 -0.34375,-0.25 -0.1061728,-0.0808 -0.2132809,-0.161112 -0.3125,-0.25 C 8.4783201,88.557317 8.3087904,88.373362 8.15625,88.1875 8.0486711,88.057245 7.9378561,87.922215 7.84375,87.78125 7.818661,87.74287 7.805304,87.69538 7.78125,87.65625 7.716487,87.553218 7.6510225,87.451733 7.59375,87.34375 7.4927417,87.149044 7.3880752,86.928049 7.3125,86.71875 7.30454,86.69694 7.288911,86.6782 7.28125,86.65625 7.2494249,86.5643 7.2454455,86.469419 7.21875,86.375 7.1884177,86.268382 7.1483606,86.171969 7.125,86.0625 7.0521214,85.720988 7,85.364295 7,85 L 7,83 7,15 7,13 C 7,10.218152 9.2181517,8 12,8 l 2,0 68,0 2,0 c 2.781848,0 5,2.218152 5,5 l 0,2 0,68 0,2 c 0,0.364295 -0.05212,0.720988 -0.125,1.0625 -0.04415,0.206893 -0.08838,0.397658 -0.15625,0.59375 -0.0077,0.02195 -0.0233,0.04069 -0.03125,0.0625 -0.06274,0.173739 -0.138383,0.367449 -0.21875,0.53125 -0.04158,0.0828 -0.07904,0.169954 -0.125,0.25 -0.0546,0.09721 -0.126774,0.18835 -0.1875,0.28125 -0.09411,0.140965 -0.204921,0.275995 -0.3125,0.40625 -0.143174,0.17445 -0.303141,0.346998 -0.46875,0.5 -0.01117,0.0102 -0.01998,0.02115 -0.03125,0.03125 -0.138386,0.125556 -0.285091,0.234436 -0.4375,0.34375 -0.102571,0.07315 -0.204318,0.153364 -0.3125,0.21875 -0.0074,0.0045 -0.02384,-0.0044 -0.03125,0 -0.232039,0.138728 -0.462548,0.274778 -0.71875,0.375 0.301527,-0.0968 0.596455,-0.204138 0.875,-0.34375 0.55709,-0.279224 1.060053,-0.665694 1.5,-1.09375 0.219973,-0.214028 0.409366,-0.441865 0.59375,-0.6875 0.184384,-0.245635 0.355408,-0.507743 0.5,-0.78125 0.14012,-0.265048 0.276135,-0.524729 0.375,-0.8125 0.01041,-0.03078 0.02133,-0.06274 0.03125,-0.09375 0.09046,-0.278085 0.1388,-0.579404 0.1875,-0.875 C 89.95865,84.6507 90,84.334721 90,84 l 0,-2 0,-68 0,-2 C 90,8.676 87.324,6 84,6 L 12,6 z"
       inkscape:connector-curvature="0"
       id="rect3728"
       style="opacity:0.35;fill:url(#linearGradient3188);fill-opacity:1;fill-rule:nonzero;stroke:none" />
    <path
       d="M 12,90 C 8.676,90 6,87.324 6,84 L 6,82 6,14 6,12 c 0,-0.334721 0.04135,-0.6507 0.09375,-0.96875 0.0487,-0.295596 0.09704,-0.596915 0.1875,-0.875 C 6.29113,10.12587 6.302142,10.09265 6.3125,10.0625 6.411365,9.774729 6.5473802,9.515048 6.6875,9.25 6.8320918,8.976493 7.0031161,8.714385 7.1875,8.46875 7.3718839,8.223115 7.5612765,7.995278 7.78125,7.78125 8.221197,7.353194 8.72416,6.966724 9.28125,6.6875 9.559795,6.547888 9.8547231,6.440553 10.15625,6.34375 9.9000482,6.443972 9.6695391,6.580022 9.4375,6.71875 c -0.00741,0.0044 -0.023866,-0.0045 -0.03125,0 -0.031933,0.0193 -0.062293,0.04251 -0.09375,0.0625 -0.120395,0.0767 -0.2310226,0.163513 -0.34375,0.25 -0.1061728,0.0808 -0.2132809,0.161112 -0.3125,0.25 C 8.4783201,7.442683 8.3087904,7.626638 8.15625,7.8125 8.0486711,7.942755 7.9378561,8.077785 7.84375,8.21875 7.818661,8.25713 7.805304,8.30462 7.78125,8.34375 7.716487,8.446782 7.6510225,8.548267 7.59375,8.65625 7.4927417,8.850956 7.3880752,9.071951 7.3125,9.28125 7.30454,9.30306 7.288911,9.3218 7.28125,9.34375 7.2494249,9.4357 7.2454455,9.530581 7.21875,9.625 7.1884177,9.731618 7.1483606,9.828031 7.125,9.9375 7.0521214,10.279012 7,10.635705 7,11 l 0,2 0,68 0,2 c 0,2.781848 2.2181517,5 5,5 l 2,0 68,0 2,0 c 2.781848,0 5,-2.218152 5,-5 l 0,-2 0,-68 0,-2 C 89,10.635705 88.94788,10.279012 88.875,9.9375 88.83085,9.730607 88.78662,9.539842 88.71875,9.34375 88.71105,9.3218 88.69545,9.30306 88.6875,9.28125 88.62476,9.107511 88.549117,8.913801 88.46875,8.75 88.42717,8.6672 88.38971,8.580046 88.34375,8.5 88.28915,8.40279 88.216976,8.31165 88.15625,8.21875 88.06214,8.077785 87.951329,7.942755 87.84375,7.8125 87.700576,7.63805 87.540609,7.465502 87.375,7.3125 87.36383,7.3023 87.35502,7.29135 87.34375,7.28125 87.205364,7.155694 87.058659,7.046814 86.90625,6.9375 86.803679,6.86435 86.701932,6.784136 86.59375,6.71875 c -0.0074,-0.0045 -0.02384,0.0044 -0.03125,0 -0.232039,-0.138728 -0.462548,-0.274778 -0.71875,-0.375 0.301527,0.0968 0.596455,0.204138 0.875,0.34375 0.55709,0.279224 1.060053,0.665694 1.5,1.09375 0.219973,0.214028 0.409366,0.441865 0.59375,0.6875 0.184384,0.245635 0.355408,0.507743 0.5,0.78125 0.14012,0.265048 0.276135,0.524729 0.375,0.8125 0.01041,0.03078 0.02133,0.06274 0.03125,0.09375 0.09046,0.278085 0.1388,0.579404 0.1875,0.875 C 89.95865,11.3493 90,11.665279 90,12 l 0,2 0,68 0,2 c 0,3.324 -2.676,6 -6,6 l -72,0 z"
       inkscape:connector-curvature="0"
       id="path3615"
       style="opacity:0.2;fill:url(#radialGradient3619);fill-opacity:1;fill-rule:nonzero;stroke:none" />
  </g>
  <g
     id="layer5">
    <rect
       width="66"
       height="66"
       rx="12"
       ry="12"
       x="15"
       y="15"
       clip-path="url(#clipPath3613)"
       id="rect3171"
       style="opacity:0.1;fill:url(#linearGradient3613);fill-opacity:1;fill-rule:nonzero;stroke:#ffffff;stroke-width:0.5;stroke-linecap:round;stroke-linejoin:miter;stroke-miterlimit:4;stroke-opacity:1;stroke-dasharray:none;stroke-dashoffset:0;filter:url(#filter3794)" />
  </g>
  <g
     id="layer4">
    <path
       d="m 38,61.96875 c -5.163712,0 -9.807038,0.45712 -13.375,1.25 -1.786319,0.396959 -3.338473,0.884319 -4.625,1.5625 -0.602703,0.317709 -1.254128,0.73143 -1.84375,1.375 -0.60617,0.661632 -1.1875,1.627267 -1.1875,2.84375 0,1.216483 0.58133,2.182118 1.1875,2.84375 0.589622,0.64357 1.241047,1.057291 1.84375,1.375 1.286527,0.678181 2.838681,1.165541 4.625,1.5625 3.567962,0.79288 8.211288,1.25 13.375,1.25 l 22,0 c 5.163712,0 9.807038,-0.45712 13.375,-1.25 1.786319,-0.396959 3.338473,-0.884319 4.625,-1.5625 0.602703,-0.317709 1.254128,-0.73143 1.84375,-1.375 0.60617,-0.661632 1.1875,-1.627267 1.1875,-2.84375 0,-1.216483 -0.58133,-2.182118 -1.1875,-2.84375 -0.589622,-0.64357 -1.241047,-1.057291 -1.84375,-1.375 -1.286527,-0.678181 -2.838681,-1.165541 -4.625,-1.5625 -3.567962,-0.79288 -8.211288,-1.25 -13.375,-1.25 l -22,0 z"
       inkscape:connector-curvature="0"
       id="path3834"
       style="opacity:0.05;color:#000000;fill:#000000;fill-opacity:1;fill-rule:nonzero;stroke:none;stroke-width:1.5;marker:none;visibility:visible;display:inline;overflow:visible;enable-background:accumulate" />
    <path
       d="m 38,62.96875 c -5.105708,0 -9.689364,0.448331 -13.15625,1.21875 -1.736389,0.385864 -3.209309,0.854267 -4.375,1.46875 -0.564443,0.297541 -1.117288,0.636194 -1.59375,1.15625 -0.486861,0.531407 -0.90625,1.274424 -0.90625,2.1875 0,0.913076 0.419389,1.656093 0.90625,2.1875 0.476462,0.520056 1.029307,0.858709 1.59375,1.15625 1.165691,0.614483 2.638611,1.082886 4.375,1.46875 3.466886,0.770419 8.050542,1.21875 13.15625,1.21875 l 22,0 c 5.105708,0 9.689364,-0.448331 13.15625,-1.21875 1.736389,-0.385864 3.209309,-0.854267 4.375,-1.46875 0.564443,-0.297541 1.117288,-0.636194 1.59375,-1.15625 0.486861,-0.531407 0.90625,-1.274424 0.90625,-2.1875 0,-0.913076 -0.419389,-1.656093 -0.90625,-2.1875 -0.476462,-0.520056 -1.029307,-0.858709 -1.59375,-1.15625 -1.165691,-0.614483 -2.638611,-1.082886 -4.375,-1.46875 C 69.689364,63.417081 65.105708,62.96875 60,62.96875 l -22,0 z"
       id="path3830"
       style="opacity:0.1;color:#000000;fill:#000000;fill-opacity:1;fill-rule:nonzero;stroke:none;stroke-width:1.5;marker:none;visibility:visible;display:inline;overflow:visible;enable-background:accumulate" />
    <path
       d="m 38,64.03125 c -5.043374,0 -9.5824,0.441922 -12.9375,1.1875 -1.67755,0.372789 -3.057006,0.82849 -4.09375,1.375 -0.518372,0.273255 -0.963195,0.556235 -1.3125,0.9375 -0.349305,0.381265 -0.625,0.901292 -0.625,1.46875 0,0.567458 0.275695,1.087485 0.625,1.46875 0.349305,0.381265 0.794128,0.664245 1.3125,0.9375 1.036744,0.54651 2.4162,1.002211 4.09375,1.375 3.3551,0.745578 7.894126,1.1875 12.9375,1.1875 l 22,0 c 5.043374,0 9.5824,-0.441922 12.9375,-1.1875 1.67755,-0.372789 3.057006,-0.82849 4.09375,-1.375 0.518372,-0.273255 0.963195,-0.556235 1.3125,-0.9375 0.349305,-0.381265 0.625,-0.901292 0.625,-1.46875 0,-0.567458 -0.275695,-1.087485 -0.625,-1.46875 -0.349305,-0.381265 -0.794128,-0.664245 -1.3125,-0.9375 -1.036744,-0.54651 -2.4162,-1.002211 -4.09375,-1.375 C 69.5824,64.473172 65.043374,64.03125 60,64.03125 l -22,0 z"
       id="path3826"
       style="opacity:0.15;color:#000000;fill:#000000;fill-opacity:1;fill-rule:nonzero;stroke:none;stroke-width:1.5;marker:none;visibility:visible;display:inline;overflow:visible;enable-background:accumulate" />
    <rect
       width="58"
       height="8"
       rx="18"
       ry="4"
       x="20"
       y="65"
       id="rect3869"
       style="opacity:0.3;color:#000000;fill:#000000;fill-opacity:1;fill-rule:nonzero;stroke:none;stroke-width:1.5;marker:none;visibility:visible;display:inline;overflow:visible;enable-background:accumulate" />
    <rect
       width="36"
       height="14.000006"
       x="31"
       y="56"
       id="rect3831"
       style="color:#000000;fill:#ffffff;fill-opacity:1;fill-rule:nonzero;stroke:none;stroke-width:1.5;marker:none;visibility:visible;display:inline;overflow:visible;enable-background:accumulate" />
    <path
       d="m -45,38.5 a 17.5,17.5 0 1 1 -35,0 17.5,17.5 0 1 1 35,0 z"
       transform="translate(110,1)"
       id="path3823"
       style="color:#000000;fill:url(#radialGradient3847);fill-opacity:1;fill-rule:nonzero;stroke:none;stroke-width:1.5;marker:none;visibility:visible;display:inline;overflow:visible;enable-background:accumulate" />
    <path
       d="m -45,38.5 a 17.5,17.5 0 1 1 -35,0 17.5,17.5 0 1 1 35,0 z"
       transform="matrix(1.0285716,0,0,1.0285716,94.285725,12.399993)"
       id="path3825"
       style="color:#000000;fill:url(#radialGradient3839);fill-opacity:1;fill-rule:nonzero;stroke:none;stroke-width:1.5;marker:none;visibility:visible;display:inline;overflow:visible;enable-background:accumulate" />
    <path
       d="m -45,38.5 a 17.5,17.5 0 1 1 -35,0 17.5,17.5 0 1 1 35,0 z"
       transform="matrix(-1.0285716,0,0,1.0285716,3.71428,12.399993)"
       id="path3855"
       style="color:#000000;fill:url(#radialGradient3857);fill-opacity:1;fill-rule:nonzero;stroke:none;stroke-width:1.5;marker:none;visibility:visible;display:inline;overflow:visible;enable-background:accumulate" />
    <path
       d="m 0,-110 0,1 1,-1 z m 3,0 -3,3 0,1 4,-4 z m 3,0 -6,6 0,1 7,-7 z m 3,0 -9,9 0,1 10,-10 z m 3,0 -12,12 0,1 13,-13 z m 3,0 -15,15 0,1 16,-16 z m 3,0 -18,18 0,1 19,-19 z m 3,0 -21,21 0,1 22,-22 z m 3,0 -24,24 0,1 25,-25 z m 3,0 -27,27 0,1 28,-28 z m 3,0 -30,30 0,1 31,-31 z m 3,0 -33,33 0,1 34,-34 z m 3,0 -36,36 0,1 37,-37 z m 3,0 -39,39 0,1 40,-40 z m 3,0 -42,42 0,1 43,-43 z m 3,0 -45,45 0,1 46,-46 z m 3,0 -48,48 0,1 49,-49 z m 3,0 -51,51 0,1 52,-52 z m 3,0 -54,54 0,1 55,-55 z m 3,0 -57,57 0,1 58,-58 z m 3,0 -60,60 0,1 61,-61 z m 3,0 -63,63 0,1 64,-64 z m 3,0 -66,66 0,1 67,-67 z m 3,0 -69,69 0,1 70,-70 z m 3,0 -72,72 0,1 73,-73 z m 3,0 -75,75 0,1 76,-76 z m 3,0 -78,78 0,1 79,-79 z m 3,0 -81,81 0,1 82,-82 z m 3,0 -84,84 0,1 85,-85 z m 3,0 -87,87 0,1 88,-88 z m 3,0 -90,90 0,1 91,-91 z m 3,0 -93,93 0,1 94,-94 z m 3,0 -96,96 1,0 95,-95 z m 0,3 -93,93 1,0 92,-92 z m 0,3 -90,90 1,0 89,-89 z m 0,3 -87,87 1,0 86,-86 z m 0,3 -84,84 1,0 83,-83 z m 0,3 -81,81 1,0 80,-80 z m 0,3 -78,78 1,0 77,-77 z m 0,3 -75,75 1,0 74,-74 z m 0,3 -72,72 1,0 71,-71 z m 0,3 -69,69 1,0 68,-68 z m 0,3 -66,66 1,0 65,-65 z m 0,3 -63,63 1,0 62,-62 z m 0,3 -60,60 1,0 59,-59 z m 0,3 -57,57 1,0 56,-56 z m 0,3 -54,54 1,0 53,-53 z m 0,3 -51,51 1,0 50,-50 z m 0,3 -48,48 1,0 47,-47 z m 0,3 -45,45 1,0 44,-44 z m 0,3 -42,42 1,0 41,-41 z m 0,3 -39,39 1,0 38,-38 z m 0,3 -36,36 1,0 35,-35 z m 0,3 -33,33 1,0 32,-32 z m 0,3 -30,30 1,0 29,-29 z m 0,3 -27,27 1,0 26,-26 z m 0,3 -24,24 1,0 23,-23 z m 0,3 -21,21 1,0 20,-20 z m 0,3 -18,18 1,0 17,-17 z m 0,3 -15,15 1,0 14,-14 z m 0,3 -12,12 1,0 11,-11 z m 0,3 -9,9 1,0 8,-8 z m 0,3 -6,6 1,0 5,-5 z m 0,3 -3,3 1,0 2,-2 z"
       inkscape:connector-curvature="0"
       id="path4865"
       style="fill:#000000;stroke:none" />
    <path
       d="m 12,6 -6,6 0,1 7,-7 -1,0 z M 15,6 6,15 6,16 16,6 15,6 z M 18,6 6,18 6,19 19,6 18,6 z M 21,6 6,21 6,22 22,6 21,6 z M 24,6 6,24 6,25 25,6 24,6 z M 27,6 6,27 6,28 28,6 27,6 z M 30,6 6,30 6,31 31,6 30,6 z M 33,6 6,33 6,34 34,6 33,6 z M 36,6 6,36 6,37 37,6 36,6 z M 39,6 6,39 6,40 40,6 39,6 z M 42,6 6,42 6,43 43,6 42,6 z M 45,6 6,45 6,46 46,6 45,6 z M 48,6 6,48 6,49 49,6 48,6 z M 51,6 19.90625,37.09375 C 20.65207,36.585488 21.42944,36.143025 22.25,35.75 L 52,6 51,6 z m 3,0 -28.5625,28.5625 c 0.4033,-0.105278 0.83612,-0.172591 1.25,-0.25 L 55,6 54,6 z m 3,0 -18.46875,18.46875 c 0.66351,-0.396702 1.34575,-0.75502 2.0625,-1.0625 L 40.65625,23.375 58,6 57,6 z m 3,0 -16.4375,16.4375 c 0.41093,-0.09447 0.82854,-0.185016 1.25,-0.25 L 61,6 60,6 z M 63,6 46.96875,22.03125 C 47.14676,22.025903 47.32069,22 47.5,22 c 0.15769,0 0.31206,0.02711 0.46875,0.03125 L 64,6 63,6 z m 3,0 -16.1875,16.1875 c 0.29393,0.03872 0.58586,0.0719 0.875,0.125 L 67,6 66,6 z m 3,0 -16.6875,16.6875 c 0.25579,0.07298 0.5304,0.134583 0.78125,0.21875 L 70,6 69,6 z m 3,0 -17.46875,17.46875 c 0.22713,0.09969 0.43429,0.234814 0.65625,0.34375 L 73,6 72,6 z m 3,0 -18.5,18.5 c 0.20787,0.125064 0.42288,0.241659 0.625,0.375 L 76,6 75,6 z m 3,0 -19.71875,19.71875 c 0.18661,0.146011 0.38209,0.284183 0.5625,0.4375 L 79,6 78,6 z m 3,0 -21.125,21.125 c 0.16589,0.166061 0.34086,0.327402 0.5,0.5 L 82,6 81,6 z m 3,0 -22.71875,22.71875 c 0.14764,0.188446 0.29755,0.367944 0.4375,0.5625 L 84.9375,6.0625 C 84.63485,6.015839 84.31612,6 84,6 z M 86.46875,6.53125 62.5,30.5 c 0.12689,0.211275 0.22566,0.43928 0.34375,0.65625 L 87.125,6.875 C 86.91336,6.746021 86.69673,6.633683 86.46875,6.53125 z M 9.40625,6.59375 C 8.17161,7.183368 7.18337,8.171613 6.59375,9.40625 l 2.8125,-2.8125 z M 88.25,7.75 63.5,32.5 c 0.10048,0.229517 0.22172,0.452943 0.3125,0.6875 L 88.71875,8.28125 C 88.57304,8.09654 88.41612,7.916123 88.25,7.75 z m 1.21875,1.78125 -24.8125,24.8125 C 65.0601,34.26667 65.4626,34.17595 65.875,34.125 L 89.71875,10.28125 c -0.0756,-0.253376 -0.1431,-0.512083 -0.25,-0.75 z M 90,12 68,34 c 0.32522,0 0.64783,0.01419 0.96875,0.03125 L 90,13 90,12 z m 0,3 -19.21875,19.21875 c 0.28251,0.04407 0.56579,0.09917 0.84375,0.15625 L 90,16 90,15 z m 0,3 -16.78125,16.78125 c 0.25445,0.07715 0.50048,0.161989 0.75,0.25 L 90,19 90,18 z m 0,3 -14.59375,14.59375 c 0.22875,0.103693 0.46399,0.199613 0.6875,0.3125 L 90,22 90,21 z m 0,3 -12.625,12.625 c 0.20717,0.126977 0.39223,0.271215 0.59375,0.40625 L 90,25 90,24 z m 0,3 -10.875,10.875 c 0.18536,0.146788 0.35191,0.314905 0.53125,0.46875 L 90,28 90,27 z m 0,3 -9.28125,9.28125 c 0.16483,0.165428 0.31041,0.359536 0.46875,0.53125 L 90,31 90,30 z m -57.53125,0.53125 -3.5,3.5 C 29.31004,34.011937 29.65382,34 30,34 l 1.4375,-1.4375 c 0.30077,-0.6957 0.64633,-1.38595 1.03125,-2.03125 z M 90,33 82.125,40.875 c 0.14727,0.187489 0.29761,0.36912 0.4375,0.5625 L 90,34 90,33 z m 0,3 -6.65625,6.65625 c 0.12725,0.209119 0.25613,0.4104 0.375,0.625 L 90,37 90,36 z m 0,3 -5.625,5.625 c 0.10254,0.228071 0.21927,0.454513 0.3125,0.6875 L 90,40 90,39 z M 15.25,41.75 6,51 6,52 13.8125,44.1875 C 14.22484,43.331555 14.7131,42.5242 15.25,41.75 z M 90,42 85.1875,46.8125 c 0.0783,0.259404 0.15198,0.517068 0.21875,0.78125 L 90,43 90,42 z m 0,3 -5.125,5.125 c -0.2069,0.570406 -0.42642,1.145556 -0.6875,1.6875 L 90,46 90,45 z M 12.65625,47.34375 6,54 l 0,1 6.59375,-6.59375 c -0.035,-0.138351 -0.0932,-0.26665 -0.125,-0.40625 0.051,-0.224245 0.12824,-0.435262 0.1875,-0.65625 z M 90,48 48,90 49,90 90,49 90,48 z M 13.0625,49.9375 6,57 l 0,1 7.3125,-7.3125 c -0.0966,-0.241431 -0.16364,-0.503551 -0.25,-0.75 z M 90,51 51,90 52,90 90,52 90,51 z M 13.9375,52.0625 6,60 6,61 14.28125,52.71875 C 14.16092,52.501524 14.04901,52.285106 13.9375,52.0625 z M 15.03125,53.96875 6,63 6,64 15.4375,54.5625 C 15.29853,54.370389 15.16273,54.166464 15.03125,53.96875 z M 90,54 54,90 55,90 90,55 90,54 z M 16.34375,55.65625 6,66 6,67 16.8125,56.1875 C 16.65174,56.013156 16.49761,55.836865 16.34375,55.65625 z M 90,57 57,90 58,90 90,58 90,57 z M 17.78125,57.21875 6,69 6,70 18.34375,57.65625 c -0.18047,-0.154811 -0.38834,-0.275756 -0.5625,-0.4375 z M 19.4375,58.5625 6,72 6,73 20.03125,58.96875 C 19.83147,58.834878 19.63151,58.704072 19.4375,58.5625 z M 21.25,59.75 6,75 6,76 21.90625,60.09375 C 21.68695,59.982987 21.46403,59.869382 21.25,59.75 z M 90,60 60,90 l 1,0 29,-29 0,-1 z m -14.25,0.25 c -0.53586,0.256664 -1.09253,0.484061 -1.65625,0.6875 l -0.0312,0 L 45,90 46,90 75.75,60.25 z M 23.3125,60.6875 6,78 6,79 24.03125,60.96875 C 23.78772,60.88285 23.55107,60.783477 23.3125,60.6875 z m 2.25,0.75 L 6,81 6,82 26.375,61.625 c -0.26898,-0.05524 -0.54808,-0.120377 -0.8125,-0.1875 z m 45.75,0.25 c -0.39367,0.07363 -0.78518,0.140013 -1.1875,0.1875 L 42,90 43,90 71.3125,61.6875 z M 28.09375,61.90625 6,84 c 0,0.31612 0.01584,0.63485 0.0625,0.9375 L 29.03125,61.96875 c -0.31432,-0.01671 -0.62771,-0.02984 -0.9375,-0.0625 z M 31,62 6.53125,86.46875 C 6.63368,86.69673 6.74602,86.91336 6.875,87.125 L 32,62 31,62 z m 3,0 -26.25,26.25 c 0.16612,0.16612 0.34654,0.32304 0.53125,0.46875 L 35,62 34,62 z m 3,0 -27.46875,27.46875 c 0.23792,0.1069 0.49662,0.17435 0.75,0.25 L 38,62 37,62 z m 3,0 -28,28 1,0 28,-28 -1,0 z m 3,0 -28,28 1,0 28,-28 -1,0 z m 3,0 -28,28 1,0 28,-28 -1,0 z m 3,0 -28,28 1,0 28,-28 -1,0 z m 3,0 -28,28 1,0 28,-28 -1,0 z m 3,0 -28,28 1,0 28,-28 -1,0 z m 3,0 -28,28 1,0 28,-28 -1,0 z m 3,0 -28,28 1,0 28,-28 -1,0 z m 3,0 -28,28 1,0 28,-28 -1,0 z m 3,0 -28,28 1,0 28,-28 -1,0 z m 23,1 -27,27 1,0 26,-26 0,-1 z m 0,3 -24,24 1,0 23,-23 0,-1 z m 0,3 -21,21 1,0 20,-20 0,-1 z m 0,3 -18,18 1,0 17,-17 0,-1 z m 0,3 -15,15 1,0 14,-14 0,-1 z m 0,3 -12,12 1,0 11,-11 0,-1 z m 0,3 -9,9 1,0 8,-8 0,-1 z m 0,3 -6,6 c 0.37114,0 0.74159,-0.0298 1.09375,-0.0937 l 4.8125,-4.8125 C 89.97015,84.74159 90,84.37114 90,84 z"
       inkscape:connector-curvature="0"
       id="path4823"
       style="opacity:0.1;fill:#000000;stroke:none" />
  </g>
</svg>
