<?xml version="1.0" encoding="UTF-8" standalone="no"?>
<svg xmlns="http://www.w3.org/2000/svg" height="48" width="48" version="1.1" xmlns:xlink="http://www.w3.org/1999/xlink">
 <defs>
  <linearGradient id="m" y2="36.364" xlink:href="#f" gradientUnits="userSpaceOnUse" x2="46.164" gradientTransform="matrix(1.043,0,0,1.0043,-1.0323,-6.0236)" y1="36.364" x1="1.813"/>
  <linearGradient id="l" y2="36.75" gradientUnits="userSpaceOnUse" x2="45.824" gradientTransform="matrix(.90476 0 0 1 4.5714 -6.0003)" y1="36.75" x1="31.483">
   <stop offset="0"/>
   <stop stop-opacity="0" offset="1"/>
  </linearGradient>
  <linearGradient stop-color="#fff" id="f">
   <stop stop-opacity="0" offset="0"/>
   <stop offset=".1"/>
   <stop offset="0.76"/>
   <stop stop-opacity="0" offset="1"/>
  </linearGradient>
  <linearGradient stop-color="#555753" id="c">
   <stop stop-opacity="0" offset="0"/>
   <stop offset=".1"/>
   <stop offset=".75"/>
   <stop stop-opacity="0" offset="1"/>
  </linearGradient>
  <linearGradient id="k" y2="36.556" xlink:href="#f" gradientUnits="userSpaceOnUse" x2="46.939" gradientTransform="translate(-3.5126e-5,-6.0003)" y1="36.379" x1="1.0294"/>
  <linearGradient id="j" y2="36.498" gradientUnits="userSpaceOnUse" x2="44.166" gradientTransform="translate(-3.5126e-5,-6.0003)" y1="36.498" x1="3.0539">
   <stop stop-color="#fff" stop-opacity="0" offset="0"/>
   <stop stop-color="#d3d7cf" offset=".05"/>
   <stop stop-color="#d3d7cf" offset="0.8"/>
   <stop stop-color="#fff" stop-opacity="0" offset="1"/>
  </linearGradient>
  <linearGradient id="i" y2="42.998" xlink:href="#c" gradientUnits="userSpaceOnUse" x2="46.658" gradientTransform="translate(-3.5126e-5,-6.0003)" y1="42.998" x1="1.2812"/>
  <linearGradient id="h" y2="36.364" gradientUnits="userSpaceOnUse" x2="46.056" gradientTransform="matrix(1,0,0,1.0043,-3.5126e-5,-6.0236)" y1="36.364" x1=".85863">
   <stop stop-color="#babdb6" stop-opacity="0" offset="0"/>
   <stop stop-color="#babdb6" offset=".1"/>
   <stop stop-color="#babdb6" offset=".75"/>
   <stop stop-color="#bbbeb7" stop-opacity="0" offset="1"/>
  </linearGradient>
  <linearGradient id="g" y2="36.364" xlink:href="#c" gradientUnits="userSpaceOnUse" x2="46.164" gradientTransform="matrix(1.043,0,0,1.0043,-1.0323,-6.0236)" y1="36.364" x1="1.813"/>
 </defs>
 <g stroke-linejoin="round">
  <rect rx="0" ry="0" height="24" width="47" stroke="url(#g)" y="18.5" x=".5" fill="url(#h)"/>
  <path d="m0.53121 21.545v17.988h6.6563c0.13641 0 0.28274-0.02389 0.40625-0.0625 0.19344-0.0658 0.39032-0.20151 0.53125-0.34375 0.065144-0.06897 0.13825-0.16803 0.1875-0.25 0.11044-0.19428 0.1875-0.44658 0.1875-0.6875v-15.301c0-0.24092-0.077064-0.49323-0.1875-0.6875-0.049249-0.08197-0.12236-0.18103-0.1875-0.25-0.1409-0.141-0.3378-0.277-0.5312-0.343-0.1236-0.039-0.2699-0.063-0.4063-0.063h-6.6563zm11.125 0c-0.07685 0.0098-0.17795 0.03998-0.25 0.0625-0.19344 0.0658-0.39032 0.20151-0.53125 0.34375-0.06514 0.06897-0.13825 0.16803-0.1875 0.25-0.11044 0.19427-0.1875 0.44658-0.1875 0.6875v15.301c0 0.24092 0.07706 0.49323 0.1875 0.6875 0.04925 0.08197 0.12236 0.18103 0.1875 0.25 0.14093 0.14224 0.33781 0.27795 0.53125 0.34375 0.12351 0.03861 0.26984 0.0625 0.40625 0.0625h35.656v-17.988h-35.656c-0.05684 0-0.10136-0.007-0.15625 0z" stroke="url(#i)" fill="url(#j)"/>
  <path d="m0.46871 22.562v15.892h6.4063c0.094436 0 0.20173-0.02429 0.28125-0.0625 0.14602-0.07913 0.27028-0.24139 0.3125-0.40625 0.00805-0.03953 0.03125-0.08303 0.03125-0.125v-14.673c0-0.17838-0.096884-0.35803-0.21875-0.46875-0.029911-0.02466-0.090643-0.07513-0.125-0.09375-0.079524-0.03821-0.18681-0.0625-0.28125-0.0625h-6.4063zm11.531 0c-0.07037 0.01069-0.15862 0.06117-0.21875 0.09375-0.02499 0.01515-0.07132 0.044-0.09375 0.0625-0.01434 0.01303-0.04947 0.04816-0.0625 0.0625-0.0185 0.02243-0.04735 0.06876-0.0625 0.09375-0.04654 0.08589-0.09375 0.20757-0.09375 0.3125v14.673c0 0.05246 0.01883 0.10776 0.03125 0.15625 0.01766 0.057 0.06114 0.13915 0.09375 0.1875 0.11033 0.14771 0.30063 0.25 0.5 0.25h35.406v-15.892h-35.406c-0.03148 0-0.06359-0.0046-0.09375 0z" stroke="url(#k)" fill="none"/>
 </g>
 <g stroke-linejoin="round" stroke-linecap="round">
  <rect rx="1.3" ry="1.3" height="10" width="11" stroke="#888a85" y="25.5" x="14.5" fill="#eeeeec"/>
  <rect rx="0" ry="1.3" height="8" width="9" stroke="#fff" y="26.5" x="15.5" fill="none"/>
  <rect rx="0" ry="1.3" height="3" width="11" stroke="#555753" y="25.5" x="14.5" fill="#888a85"/>
 </g>
 <rect opacity=".15" rx=".56" ry=".56" height="5" width="19" y="28" x="29" fill="url(#l)"/>
 <rect opacity=".7" stroke-linejoin="round" rx="0" ry="0" height="22" width="47.5" stroke="url(#m)" y="19.5" x=".5" fill="none"/>
</svg>
