<?xml version="1.0" encoding="UTF-8" standalone="no"?>
<svg xmlns="http://www.w3.org/2000/svg" height="96" width="96" version="1.1" xmlns:xlink="http://www.w3.org/1999/xlink">
 <defs>
  <linearGradient id="h" stop-color="#fff">
   <stop offset="0"/>
   <stop stop-opacity="0" offset="1"/>
  </linearGradient>
  <filter id="bg" height="1.384" width="1.384" color-interpolation-filters="sRGB" y="-.192" x="-.192">
   <feGaussianBlur stdDeviation="5.28"/>
  </filter>
  <linearGradient id="ay" y2="138.66" xlink:href="#h" gradientUnits="userSpaceOnUse" x2="48" y1="20.221" x1="48"/>
  <clipPath id="az">
   <rect rx="6" ry="6" height="84" width="84" y="6" x="6" fill="#fff"/>
  </clipPath>
  <linearGradient id="j" y2="7.0165" gradientUnits="userSpaceOnUse" x2="45.448" gradientTransform="matrix(1.0059 0 0 .99417 100 0)" y1="92.54" x1="45.448">
   <stop offset="0"/>
   <stop stop-opacity=".58824" offset="1"/>
  </linearGradient>
  <filter id="be" height="1.3333" width="1.8571" color-interpolation-filters="sRGB" y="-.16667" x="-.42857">
   <feGaussianBlur stdDeviation="0.55242721"/>
  </filter>
  <filter id="bf" height="1.3534" width="1.3669" color-interpolation-filters="sRGB" y="-.17668" x="-.18344">
   <feGaussianBlur stdDeviation="0.65925"/>
  </filter>
  <linearGradient id="g">
   <stop offset="0"/>
   <stop stop-opacity=".49804" offset="0.7"/>
   <stop stop-opacity="0" offset="1"/>
  </linearGradient>
  <filter id="ba" height="1.2274" width="1.8632" color-interpolation-filters="sRGB" y="-.11371" x="-.43161">
   <feGaussianBlur stdDeviation="0.73914765"/>
  </filter>
  <filter id="bb" height="1.2988" width="2.2196" color-interpolation-filters="sRGB" y="-.1494" x="-.60980">
   <feGaussianBlur stdDeviation="0.77812506"/>
  </filter>
  <linearGradient id="i" stop-color="#fff">
   <stop offset="0"/>
   <stop stop-opacity=".49804" offset="0.7"/>
   <stop stop-opacity="0" offset="1"/>
  </linearGradient>
  <filter id="bc" height="1.2715" width="3.0699" color-interpolation-filters="sRGB" y="-.13574" x="-1.035">
   <feGaussianBlur stdDeviation="0.9498173"/>
  </filter>
  <filter id="bd" height="1.2754" width="2.8667" color-interpolation-filters="sRGB" y="-.13770" x="-.93333">
   <feGaussianBlur stdDeviation="0.92807767"/>
  </filter>
  <linearGradient id="p" y2="41.347" xlink:href="#n" gradientUnits="userSpaceOnUse" x2="104.63" y1="121.33" x1="61.295"/>
  <linearGradient id="n">
   <stop offset="0"/>
   <stop stop-opacity="0" offset="1"/>
  </linearGradient>
  <filter id="k" color-interpolation-filters="sRGB">
   <feGaussianBlur stdDeviation="0.91605611"/>
  </filter>
  <linearGradient id="bh" y2="18.868" xlink:href="#n" gradientUnits="userSpaceOnUse" x2="117.36" y1="121.33" x1="61.295"/>
  <linearGradient id="ax" y2="106" spreadMethod="repeat" gradientUnits="userSpaceOnUse" x2="139.03" gradientTransform="matrix(.72510 0 0 .72510 -169.83 -53.572)" y1="106" x1="137">
   <stop stop-color="#3d3d3d" offset="0"/>
   <stop stop-color="#fff" offset="1"/>
  </linearGradient>
  <linearGradient id="aw" y2="98.951" xlink:href="#i" spreadMethod="reflect" gradientUnits="userSpaceOnUse" x2="148.96" gradientTransform="matrix(.72510 0 0 .72510 -169.8 -44.473)" y1="98.951" x1="142.96"/>
  <linearGradient id="av" y2="98.951" xlink:href="#g" spreadMethod="reflect" gradientUnits="userSpaceOnUse" x2="148.96" gradientTransform="matrix(.72510 0 0 .72510 -169.8 -45.198)" y1="98.951" x1="142.96"/>
  <linearGradient id="au" y2="98.951" xlink:href="#i" spreadMethod="reflect" gradientUnits="userSpaceOnUse" x2="148.96" gradientTransform="matrix(.72510 0 0 .72510 -169.8 -45.923)" y1="98.951" x1="142.96"/>
  <linearGradient id="at" y2="98.951" xlink:href="#g" spreadMethod="reflect" gradientUnits="userSpaceOnUse" x2="148.96" gradientTransform="matrix(.72510 0 0 .72510 -169.8 -46.648)" y1="98.951" x1="142.96"/>
  <linearGradient id="as" y2="98.951" xlink:href="#i" spreadMethod="reflect" gradientUnits="userSpaceOnUse" x2="148.96" gradientTransform="matrix(.72510 0 0 .72510 -169.8 -50.273)" y1="98.951" x1="142.96"/>
  <linearGradient id="ar" y2="98.951" xlink:href="#g" spreadMethod="reflect" gradientUnits="userSpaceOnUse" x2="148.96" gradientTransform="matrix(.72510 0 0 .72510 -169.8 -50.999)" y1="98.951" x1="142.96"/>
  <linearGradient id="ap" y2="98.951" xlink:href="#i" spreadMethod="reflect" gradientUnits="userSpaceOnUse" x2="148.96" gradientTransform="matrix(.72510 0 0 .72510 -169.8 -51.724)" y1="98.951" x1="142.96"/>
  <linearGradient id="ah" y2="98.951" xlink:href="#g" spreadMethod="reflect" gradientUnits="userSpaceOnUse" x2="148.96" gradientTransform="matrix(.72510 0 0 .72510 -169.8 -52.449)" y1="98.951" x1="142.96"/>
  <linearGradient id="af" y2="106" gradientUnits="userSpaceOnUse" x2="150" gradientTransform="matrix(.72510 0 0 .72510 -169.83 -53.572)" y1="106" x1="136">
   <stop stop-color="#404040" offset="0"/>
   <stop stop-color="#808080" offset=".2"/>
   <stop stop-color="#efefef" offset="0.7"/>
   <stop stop-color="#dcdcdc" offset="1"/>
  </linearGradient>
  <linearGradient id="ae" y2="106" gradientUnits="userSpaceOnUse" x2="150" gradientTransform="matrix(.72510 0 0 .72510 -169.83 -53.572)" y1="106" x1="136">
   <stop stop-color="#444542" offset="0"/>
   <stop stop-color="#71746e" offset="1"/>
  </linearGradient>
  <linearGradient id="ad" y2="66" xlink:href="#h" gradientUnits="userSpaceOnUse" x2="146.08" gradientTransform="matrix(-.62795 -.36255 .45877 -.79461 104.43 167.67)" y1="118.94" x1="146.11"/>
  <linearGradient id="ac" y2="66" xlink:href="#h" gradientUnits="userSpaceOnUse" x2="146.08" gradientTransform="matrix(-.62795 -.36255 .45877 -.79461 100.58 165.45)" y1="118.94" x1="146.11"/>
  <linearGradient id="ab" y2="17.043" gradientUnits="userSpaceOnUse" x2="149" gradientTransform="matrix(-.62795 -.36255 .36255 -.62795 120.29 131.31)" y1="17.043" x1="136.99">
   <stop stop-color="#da8539" offset="0"/>
   <stop stop-color="#fadfc7" offset="1"/>
  </linearGradient>
  <linearGradient id="aa" y2="4.9219" gradientUnits="userSpaceOnUse" x2="144.81" gradientTransform="matrix(-.62795 -.36255 .36255 -.62795 120.29 131.31)" y1="4.9219" x1="141.25">
   <stop offset="0"/>
   <stop stop-color="#7d7d7d" offset=".5"/>
   <stop offset="1"/>
  </linearGradient>
  <linearGradient id="z" y2="60" gradientUnits="userSpaceOnUse" x2="150" gradientTransform="matrix(-.62795 -.36255 .36255 -.62795 120.29 131.31)" y1="60" x1="136">
   <stop stop-color="#945a00" offset="0"/>
   <stop stop-color="#e28e0a" offset=".25"/>
   <stop stop-color="#ffba14" offset="0.3"/>
   <stop stop-color="#f3ac00" offset="0.7"/>
   <stop stop-color="#ffd314" offset=".75"/>
   <stop stop-color="#ffed94" offset="1"/>
  </linearGradient>
  <linearGradient id="y" y2="120.02" gradientUnits="userSpaceOnUse" x2="143" gradientTransform="matrix(-.62795 -.36255 .36255 -.62795 120.29 131.31)" y1="0.0000024" x1="143">
   <stop offset="0"/>
   <stop offset=".065884"/>
   <stop stop-color="#ad5f1b" offset=".07"/>
   <stop stop-color="#ad601a" offset=".19137"/>
   <stop stop-color="#785800" offset=".20983"/>
   <stop stop-color="#785700" offset="1"/>
  </linearGradient>
  <linearGradient id="x" y2="116.47" xlink:href="#g" gradientUnits="userSpaceOnUse" x2="148.53" gradientTransform="matrix(.78992 0 0 .72510 -179.46 -53.572)" y1="116.47" x1="137.41"/>
  <linearGradient id="w" y2="115.49" gradientUnits="userSpaceOnUse" x2="149.53" gradientTransform="matrix(.72510 0 0 .72510 -169.83 -53.572)" y1="115.49" x1="136.41">
   <stop stop-color="#e6605b" offset="0"/>
   <stop stop-color="#f08682" offset="1"/>
  </linearGradient>
  <radialGradient id="o" xlink:href="#h" gradientUnits="userSpaceOnUse" cy="90.172" cx="48" gradientTransform="matrix(1.1573 0 0 .99591 -7.551 .19713)" r="42"/>
  <linearGradient id="v" y2="63.893" xlink:href="#h" gradientUnits="userSpaceOnUse" x2="36.357" y1="6" x1="36.357"/>
  <linearGradient id="u" y2="9.1256" gradientUnits="userSpaceOnUse" x2="68.841" gradientTransform="matrix(0 .72414 -.72414 0 94.345 1.6552)" y1="111.19" x1="50.421">
   <stop stop-color="#19407c" offset="0"/>
   <stop stop-color="#4f87dc" stop-opacity=".50588" offset=".28121"/>
   <stop stop-color="#2156a4" offset=".45119"/>
   <stop stop-color="#1b4789" offset=".58596"/>
   <stop stop-color="#1f5bb4" offset=".76171"/>
   <stop stop-color="#9abaeb" stop-opacity=".98039" offset="1"/>
  </linearGradient>
  <linearGradient id="t" y2="5.9877" gradientUnits="userSpaceOnUse" x2="48" y1="90" x1="48">
   <stop stop-color="#2764bf" offset="0"/>
   <stop stop-color="#71a1e8" offset="1"/>
  </linearGradient>
  <linearGradient id="s" y2="6" xlink:href="#j" gradientUnits="userSpaceOnUse" x2="32.251" gradientTransform="translate(0,1)" y1="90" x1="32.251"/>
  <linearGradient id="r" y2="5.9996" xlink:href="#j" gradientUnits="userSpaceOnUse" x2="32.251" gradientTransform="matrix(1.0238 0 0 1.0119 -1.1429 .929)" y1="90" x1="32.251"/>
  <linearGradient id="q" y2="90.239" xlink:href="#j" gradientUnits="userSpaceOnUse" x2="32.251" gradientTransform="matrix(1.0238,0,0,-1.0119,-1.1429,98.071)" y1="6.1317" x1="32.251"/>
 </defs>
 <g fill="url(#q)">
  <path opacity="0.08" d="m12 95.031c-5.5111 0-10.031-4.52-10.031-10.031v-71c0-5.5111 4.5202-10.031 10.031-10.031h72c5.5111 0 10.031 4.5202 10.031 10.031v71c0 5.5111-4.5202 10.031-10.031 10.031h-72z"/>
  <path opacity=".1" d="m12 94.031c-4.9716 0-9.0312-4.0596-9.0312-9.0312v-71c0-4.9718 4.0596-9.0314 9.0312-9.0314h72c4.9716 0 9.0312 4.0596 9.0312 9.0312v71c0 4.9716-4.0596 9.0312-9.0312 9.0312h-72z"/>
  <path opacity=".2" d="m12 93c-4.4091 0-8-3.591-8-8v-71c0-4.4091 3.5909-8 8-8h72c4.4091 0 8 3.5909 8 8v71c0 4.4091-3.5909 8-8 8h-72z"/>
 </g>
 <rect opacity=".3" rx="7" ry="7" height="85" width="86" y="7" x="5" fill="url(#r)"/>
 <rect opacity=".45" rx="6" ry="6" height="84" width="84" y="7" x="6" fill="url(#s)"/>
 <rect rx="6" ry="6" height="84" width="84" y="6" x="6" fill="url(#t)"/>
 <path opacity=".3" d="m12.531 6c-3.6103 0-6.531 2.9207-6.531 6.531v70.938c0 3.61 2.9207 6.531 6.531 6.531h70.938c3.61 0 6.531-2.921 6.531-6.531v-70.938c0-3.6103-2.921-6.531-6.531-6.531h-70.938z" fill="url(#u)"/>
 <path opacity=".4" d="m12 6c-3.324 0-6 2.676-6 6v72c0 0.33472 0.04135 0.6507 0.09375 0.96875 0.0487 0.2956 0.09704 0.59692 0.1875 0.875 0.00988 0.03038 0.020892 0.0636 0.03125 0.09375 0.098865 0.28777 0.23488 0.54745 0.375 0.8125 0.14459 0.27351 0.31562 0.53562 0.5 0.78125 0.18438 0.24564 0.37378 0.47347 0.59375 0.6875 0.43995 0.42806 0.94291 0.81453 1.5 1.0938 0.27854 0.13961 0.57347 0.24695 0.875 0.34375-0.2562-0.10022-0.48671-0.23627-0.71875-0.375-0.00741-0.0044-0.023866 0.0045-0.03125 0-0.0319-0.019-0.0622-0.042-0.0937-0.062-0.1204-0.077-0.231-0.164-0.3437-0.25-0.1062-0.081-0.2133-0.161-0.3126-0.25-0.1778-0.162-0.3473-0.346-0.4999-0.531-0.1075-0.131-0.2183-0.266-0.3124-0.407-0.0251-0.038-0.0385-0.086-0.0626-0.125-0.0647-0.103-0.1302-0.204-0.1874-0.312-0.1011-0.195-0.2057-0.416-0.2813-0.625-0.008-0.022-0.0236-0.041-0.0313-0.063-0.0318-0.092-0.0358-0.187-0.0624-0.281-0.0304-0.107-0.0704-0.203-0.0938-0.313-0.0729-0.341-0.125-0.698-0.125-1.062v-72c0-2.782 2.2182-5 5-5h72c2.7818 0 5 2.2182 5 5v72c0 0.3643-0.05212 0.72099-0.125 1.0625-0.04415 0.20689-0.08838 0.39766-0.15625 0.59375-0.0077 0.02195-0.0233 0.04069-0.03125 0.0625-0.06274 0.17374-0.13838 0.36745-0.21875 0.53125-0.04158 0.0828-0.07904 0.16995-0.125 0.25-0.0546 0.09721-0.12677 0.18835-0.1875 0.28125-0.09411 0.14096-0.20492 0.276-0.3125 0.40625-0.14317 0.17445-0.30314 0.347-0.46875 0.5-0.01117 0.0102-0.01998 0.02115-0.03125 0.03125-0.13839 0.12556-0.28509 0.23444-0.4375 0.34375-0.10257 0.07315-0.20432 0.15336-0.3125 0.21875-0.0074 0.0045-0.02384-0.0044-0.03125 0-0.23204 0.13873-0.46255 0.27478-0.71875 0.375 0.30153-0.0968 0.59646-0.20414 0.875-0.34375 0.55709-0.27922 1.0601-0.66569 1.5-1.0938 0.21997-0.21403 0.40937-0.44186 0.59375-0.6875s0.35541-0.50774 0.5-0.78125c0.14012-0.26505 0.27614-0.52473 0.375-0.8125 0.01041-0.03078 0.02133-0.06274 0.03125-0.09375 0.09046-0.27808 0.1388-0.5794 0.1875-0.875 0.053-0.318 0.094-0.634 0.094-0.969v-72c0-3.324-2.676-6-6-6h-72z" fill="url(#v)"/>
 <path opacity=".2" d="m12 90c-3.324 0-6-2.676-6-6v-72c0-0.33472 0.04135-0.6507 0.09375-0.96875 0.0487-0.2956 0.09704-0.59692 0.1875-0.875 0.0099-0.03 0.0209-0.063 0.0313-0.094 0.0989-0.2873 0.2349-0.547 0.375-0.812 0.1446-0.2735 0.3156-0.5356 0.5-0.7812 0.1844-0.2457 0.3738-0.4735 0.5937-0.6876 0.44-0.428 0.943-0.8145 1.5-1.0937 0.2786-0.1396 0.5735-0.2469 0.8748-0.3437-0.256 0.1002-0.4865 0.2362-0.7185 0.375-0.00741 0.0044-0.023866-0.0045-0.03125 0-0.031933 0.0193-0.062293 0.04251-0.09375 0.0625-0.1204 0.0767-0.23102 0.16351-0.34375 0.25-0.10617 0.0808-0.21328 0.16111-0.3125 0.25-0.1779 0.1614-0.3474 0.3453-0.5 0.5312-0.1075 0.1303-0.2183 0.2653-0.3124 0.4063-0.0251 0.0383-0.0385 0.0858-0.0626 0.125-0.0647 0.103-0.1302 0.2045-0.1874 0.3124-0.1011 0.1948-0.2057 0.4158-0.2813 0.625-0.008 0.0219-0.0236 0.0406-0.0313 0.0626-0.0318 0.0919-0.0358 0.1868-0.0624 0.2812-0.0304 0.1066-0.0704 0.203-0.0938 0.3125-0.0729 0.3415-0.125 0.6985-0.125 1.0625v72c0 2.7818 2.2182 5 5 5h72c2.7818 0 5-2.2182 5-5v-72c0-0.364-0.052-0.721-0.125-1.0625-0.044-0.2069-0.088-0.3977-0.156-0.5937-0.008-0.022-0.024-0.0407-0.031-0.0626-0.063-0.1737-0.139-0.3674-0.219-0.5312-0.042-0.0828-0.079-0.17-0.125-0.25-0.055-0.0972-0.127-0.1884-0.188-0.2812-0.094-0.141-0.205-0.276-0.312-0.4063-0.143-0.1745-0.303-0.347-0.469-0.5-0.011-0.0102-0.02-0.0211-0.031-0.0313-0.139-0.1255-0.285-0.2344-0.438-0.3437-0.102-0.0731-0.204-0.1534-0.312-0.2187-0.0074-0.0045-0.02384 0.0044-0.03125 0-0.23204-0.13873-0.46255-0.27478-0.71875-0.375 0.30153 0.0968 0.59646 0.20414 0.875 0.34375 0.55709 0.27922 1.0601 0.66569 1.5 1.0938 0.21997 0.21403 0.40937 0.44186 0.59375 0.6875s0.35541 0.50774 0.5 0.78125c0.14012 0.26505 0.27614 0.52473 0.375 0.8125 0.01041 0.03078 0.02133 0.06274 0.03125 0.09375 0.09046 0.27808 0.1388 0.5794 0.1875 0.875 0.053 0.318 0.094 0.634 0.094 0.969v72c0 3.324-2.676 6-6 6h-72z" fill="url(#o)"/>
 <g fill="#fff">
  <path d="m70.293 67.563c-2.0118 0.53877-4.1587 0.712-6.1126 1.3783 3.3094-2.8375 3.1204-7.2279 5.3283-10.57 0.70334-0.94624 1.2847-1.9381 2.1044-2.8361-1.343 2.6941-0.76059 6.1894-2.3035 8.8038-0.59393 1.0385-1.4433 2.046-2.3827 2.8616 0.30691-0.01148 0.5755-0.27718 0.8454-0.45461 2.5061-2.5009 5.78-3.2002 8.491-5.232 1.0859-0.86527 2.0805-1.9991 2.5578-3.2254-0.51296 4.1491-4.6408 8.038-8.5283 9.2741z"/>
  <path d="m79.321 50.765c-1.2261 1.7448-2.7095 3.369-3.8422 5.1422 0.12637-1.4039 0.29268-3.1303-0.2542-4.4602-0.94769-2.8639-1.7803-5.7716-2.049-8.9147l0.03702-1.2019c0.71318 3.2097 3.8662 5.4163 3.6674 9.0166 0.07221 0.87255-0.19767 1.6144-0.36106 2.3817l0.05416 0.05671 0.14205-0.15919c0.46755-1.7661 0.70352-3.6231 1.4306-5.271 1.0332-2.3711 2.3233-4.7642 1.7976-7.6272 1.5715 3.3753 1.0954 7.8852-0.62237 11.037z"/>
  <path d="m77.385 32.579c2.0675 2.8019 2.5207 7.2672 1.0148 10.481-0.56129 1.362-0.95772 2.8133-1.1782 4.3209-0.10522-0.26004-0.12929-0.6096-0.2232-0.89937-0.82242-3.146-3.7977-5.3879-5.0214-8.3541-0.38804-0.96993-0.71884-1.9722-0.90228-3.025 1.3075 2.4182 4.5297 3.6672 5.4079 6.3322 0.35979 0.67398 0.33955 1.5161 0.56275 2.2408 0.04686 0 0.09373-0.03483 0.09373-0.08242-0.38659-2.7451-0.26861-5.6181 0.10394-8.3293-0.02152-1.4685-0.16485-2.893-0.98071-4.0296 0.52318 0.3048 0.75878 0.89025 1.1226 1.3449z"/>
  <path d="m75.926 32.042c0.54305 2.4553-0.25018 4.8466 0.24872 7.3254l-0.0186 0.02134c-1.3357-2.6265-4.1715-3.8662-6.1227-5.9684-1.1308-1.2475-1.6224-2.7679-1.9052-4.3777 1.118 2.6954 4.1349 3.2892 5.8669 5.5606 0.57952 0.52363 0.76862 1.249 1.1423 1.8429l0.06109-0.05899c-0.99602-2.1263-1.3297-4.5191-2.0247-6.7867-0.34793-0.98261-1.0385-1.9482-1.965-2.5675 2.2736 0.46464 4.2442 2.8383 4.7174 5.0094z"/>
  <path d="m69.848 26.41c1.7123 1.5325 2.4867 3.5169 2.9867 5.5728l0.28282 0.65292c-2.4854-1.7874-4.7429-4.1902-6.33-6.7279l-1.9383-1.9609c1.7039 0.72248 3.541 1.1537 4.9988 2.463z"/>
  <path d="m30.598 24.272c-1.718 1.5061-2.9094 3.4108-4.1839 5.1868-1.1425 1.4145-2.6038 2.3472-3.8989 3.5636 0.69914-1.4493 0.72468-3.1806 1.7163-4.512 1.411-2.4618 4.0276-3.3279 6.3666-4.2386z"/>
  <path d="m21.201 29.517c0.83554-1.0387 1.8947-1.7605 3.0868-2.0654-2.3147 1.59-2.164 4.4395-2.8979 6.8082-0.23395 0.87593-0.64024 1.6829-0.84266 2.5808l0.0589 0.04686c0.38513-1.0151 1.062-1.9741 1.9069-2.8024 1.6439-1.5176 4.0758-2.4633 4.8815-4.7082-0.03683 3.1195-2.6392 5.572-5.1293 7.3252-1.0268 0.90082-2.0171 1.9274-2.5825 3.0855-0.05543-0.78703 0.11634-1.5773 0.06036-2.4204-0.2708-2.7233-0.46755-5.8314 1.4577-7.8505z"/>
  <path d="m16.518 38.829c-0.06966-2.7595 1.0757-5.0122 2.6897-7.0683 0.04686-0.02343 0.08023-0.0703 0.1406-0.05899-1.7767 2.6997-0.30691 6.1005-0.38788 9.1703l-0.23433 3.143c0.03483 0.02279 0.03483 0.11725 0.11725 0.08096 0.10504-0.35031 0.12783-0.72468 0.19805-1.085 0.4185-2.5352 2.6202-4.3342 4.5433-6.0863 0.41066-0.45825 0.77373-0.92353 0.9847-1.4613-0.15701 1.2623-0.55272 2.5356-1.0764 3.703-1.4968 2.919-4.2617 5.314-4.7668 8.6557-0.24508-3.2024-2.4254-5.5969-2.2081-8.9933z"/>
  <path d="m15.174 42.752c0.19894-0.86308 0.35103-1.7563 0.72668-2.5481-0.71172 3.6481 1.742 6.2767 2.547 9.439 0.3368 1.1827 0.41923 2.4531 0.90082 3.5628 0.04486 0.02425 0.08388-0.02261 0.1116-0.05817-1.1984-3.3591 0.53156-6.4806 2.2699-9.1107 0.4227-0.71264 0.66633-1.5062 0.87657-2.3253 0.18472 1.5203-0.19967 3.2711-0.42052 4.8496-0.4227 2.0085-1.0536 3.9131-1.6029 5.862-0.36143 1.2178-0.26643 2.5916-0.08078 3.8676l-0.17179-0.13818c-1.2745-2.3502-3.7981-4.1831-4.5476-6.7507-0.61671-2.0469-1.0266-4.418-0.60668-6.6483z"/>
  <path d="m15.06 49.878c0.28064 3.8668 4.4388 5.91 6.3664 9.1113 0.45607 0.65501 0.85177 1.3797 1.4612 1.928-0.09519-0.41194-0.4796-0.75859-0.62073-1.1806-0.67434-1.3427-0.92015-2.9427-0.75805-4.5654 0.18673-1.975 1.0152-3.808 0.69897-5.8854 1.6937 3.6519 1.1793 8.21 2.1263 12.167 0.248 0.86546 0.74892 1.6383 1.0772 2.4654-3.4799-2.37-8.2249-4.6251-9.7686-8.9686-0.65064-1.4977-0.7232-3.3518-0.58243-5.0718z"/>
  <path d="m17.138 58.759c1.9403 4.3893 6.7996 4.7528 10.058 7.4257 0.59957 0.53138 1.2278 0.98324 1.9046 1.2985l0.03483-0.03538c-0.749-0.677-1.614-1.447-2.138-2.323-1.907-2.652-1.236-6.366-2.665-9.218 1.2982 1.5529 2.4787 3.1671 3.2625 4.9289 1.1658 2.8758 1.6113 6.1242 4.3088 8.2981-2.9193-0.96211-6.3393-0.69331-8.916-2.4908-2.8133-1.7291-5.3242-4.6619-5.8506-7.8845z"/>
  <path d="m22.124 66.947c3.1109 3.5382 8.1943 2.3575 12.338 3.2835 0.58536 0.07987 1.1211 0.31438 1.7415 0.21918-0.49399-0.31255-1.1795-0.27864-1.7187-0.56275-3.2484-1.1412-3.7247-4.6578-5.4882-7.0291 2.2527 1.496 4.1467 3.5137 6.225 5.4689 1.4938 1.3086 3.292 1.9125 5.1866 2.2977-0.45534 0.1663-1.0522 0.12072-1.5409 0.24872-3.4039 0.837-7.1854 2.2051-10.795 0.98033-2.3466-0.73889-4.7678-2.5946-5.9485-4.9065z"/>
  <path d="m64.349 75.193c-3.5055 1.3082-7.1641-0.05981-9.9021-2.136-1.1085-0.70461-2.0858-1.7192-3.5197-1.6295-0.52008-0.0098-1.0215 0.01568-1.4636 0.14333 2.66 1.2378 5.131 2.9444 7.39 5.1267-0.38076 0.43473-0.87384 0.84137-1.3383 1.2163-2.1771-2.3457-4.5881-4.6036-7.2877-5.9225-0.52863 0.06856-1.0316 0.38659-1.5083 0.64261-2.1978 1.3895-4.3708 3.177-6.0047 5.3651l-1.4039-1.1594c2.2408-2.2667 4.7192-4.0311 7.4307-5.2916-2.6644-0.84393-4.4035 1.3881-6.4259 2.5235-2.3567 1.6456-5.7461 2.4183-8.5942 1.283-1.5318-0.58097-3.0157-1.4366-4.1249-2.8273 2.2415 1.5442 5.5799 1.7061 8.1289 0.70315 3.4205-1.4836 6.9751-3.3645 11.099-2.465 0.64353 0.0113 1.2688 0.6521 1.8768 0.10649 3.0648-0.79579 6.5346-0.24872 9.1733 1.1521l2.7195 1.0901c2.5278 0.93475 5.7959 0.67617 7.9627-0.864-1.114 1.3866-2.6357 2.3801-4.2072 2.9429z"/>
  <path d="m68.104 71.57c-3.9359 1.4862-7.8955-0.33809-11.667-0.9475l-0.72614-0.09227v-0.02298c1.8033-0.4092 3.5537-0.94605 4.9891-2.2419 2.114-2.032 3.9953-4.1236 6.3428-5.725-1.7409 2.2322-1.9256 5.4094-4.8014 6.8446-0.71172 0.46572-1.61 0.54815-2.3446 0.90082 1.0474 0.02261 2.0064-0.35268 3.0437-0.45771 3.8563-0.60542 8.268 0.01569 10.974-3.2695-1.0044 2.2891-3.5199 4.2061-5.8101 5.0113z"/>
  <path d="m75.256 60.497c-1.5544 1.0173-3.13 1.9609-4.6236 3.1175v-0.14206c2.2878-3.8022 1.1694-9.0256 2.5791-13.21l0.52572-1.4017c-0.29414 2.6068 0.8381 4.8148 0.75859 7.4305-0.07951 1.5801-0.5952 2.9811-1.4249 4.2429h0.1406c1.1209-1.4721 1.9961-3.0379 3.3062-4.4401 2.0335-1.9609 4.1008-3.9716 4.3678-6.6926 0.69056 4.5426-1.8584 8.5238-5.6293 11.096z"/>
  <g fill-rule="evenodd">
   <polygon transform="matrix(.18673 0 0 .18673 -36.029 -6.029)" points="448.11 303.25 451.89 303.25 451.89 398.07 448.11 398.07"/>
   <polygon transform="matrix(.18673 0 0 .18673 -36.029 -6.029)" points="427.61 293.94 430.28 296.61 363.18 363.61 360.51 360.94"/>
   <polygon transform="matrix(.18673 0 0 .18673 -36.029 -6.029)" points="421.2 274.19 421.19 277.96 326.37 277.85 326.37 274.07"/>
   <polygon transform="matrix(.18673 0 0 .18673 -36.029 -6.029)" points="430.2 255.9 427.53 258.57 360.49 191.51 363.16 188.84"/>
   <polygon transform="matrix(.18673 0 0 .18673 -36.029 -6.029)" points="451.85 248.11 448.07 248.11 448.16 153.28 451.93 153.29"/>
   <polygon transform="matrix(.18673 0 0 .18673 -36.029 -6.029)" points="470.82 257.16 468.16 254.48 535.3 187.52 537.96 190.19"/>
   <polygon transform="matrix(.18673 0 0 .18673 -36.029 -6.029)" points="478.15 278.26 478.14 274.48 572.96 274.36 572.97 278.14"/>
   <polygon transform="matrix(.18673 0 0 .18673 -36.029 -6.029)" points="467.2 297.56 469.87 294.89 536.97 361.88 534.31 364.55"/>
   <path d="m54.602 27.803c9.752 3.645 14.708 14.518 11.063 24.269-3.646 9.752-14.518 14.708-24.27 11.063s-14.707-14.518-11.063-24.27c3.646-9.752 14.519-14.707 24.27-11.062zm-0.28538 0.7646c9.3296 3.4876 14.071 13.89 10.584 23.22-3.488 9.329-13.891 14.07-23.22 10.583-9.33-3.487-14.071-13.89-10.584-23.22 3.487-9.329 13.89-14.071 23.22-10.584z"/>
   <path d="m53.089 31.851c7.5179 2.8101 11.338 11.192 8.5283 18.708-2.81 7.518-11.192 11.338-18.708 8.528-7.517-2.809-11.338-11.191-8.528-18.708s11.192-11.338 18.709-8.528zm-0.28684 0.76899c7.0924 2.6512 10.698 10.56 8.0464 17.653-2.6512 7.0931-10.561 10.698-17.653 8.0464-7.092-2.651-10.697-10.56-8.046-17.653 2.652-7.093 10.56-10.698 17.653-8.046z"/>
   <path d="m51.622 35.778c5.3507 1.9999 8.0697 7.9653 6.07 13.316-2.0006 5.3502-7.9659 8.0695-13.316 6.0695-5.3506-2.0001-8.0695-7.9653-6.0695-13.316 2.0001-5.3502 7.9653-8.0693 13.315-6.0695zm-0.26286 0.70371c4.962 1.8548 7.4839 7.3872 5.6292 12.349-1.8551 4.9618-7.3872 7.4834-12.349 5.6286-4.9618-1.8545-7.4834-7.387-5.629-12.349 1.8548-4.9616 7.387-7.4834 12.349-5.6288z"/>
   <path d="m49.971 40.194c2.9126 1.0887 4.393 4.3361 3.3042 7.2487-1.0888 2.9122-4.3359 4.3926-7.2485 3.3038-2.9126-1.0886-4.3926-4.3359-3.3042-7.2485 1.0889-2.9124 4.3366-4.3926 7.2485-3.304zm-0.28474 0.76124c2.493 0.93165 3.7592 3.7107 2.828 6.203-0.9321 2.4923-3.7105 3.7589-6.2028 2.8273-2.4927-0.93163-3.7592-3.7105-2.828-6.203 0.93201-2.4925 3.7113-3.7591 6.2028-2.8273z"/>
   <path d="m58.999 25.007c11.407 6.278 15.736 20.539 9.663 31.834-6.072 11.296-20.258 15.369-31.663 9.092-11.407-6.277-15.736-20.539-9.664-31.834 6.073-11.295 20.259-15.368 31.664-9.091zm-0.399 0.744c10.992 6.049 15.164 19.793 9.312 30.677-5.852 10.885-19.523 14.811-30.515 8.762-10.993-6.049-15.165-19.794-9.313-30.678 5.852-10.885 19.523-14.81 30.516-8.761z"/>
  </g>
  <path d="m61.768 56.414c0.01331 0.12118-0.02827 0.41941 0.02826 0.48789 0.05853 0.09291 0.277 0.07312 0.37163 0.0403 0.25858-0.0972 0.51588-0.43883 0.63531-0.69495 0.08406-0.13002 0.14059-0.28228 0.12218-0.4526l-0.1809-0.54798c-0.04522-0.1922-0.10595-0.53002-0.3109-0.60979 0.01915-0.05088 0.08407-0.13038 0.07641-0.20324-0.04741-0.21655-0.4092-0.15965-0.53849-0.00056-0.0651 0.07951-0.04668 0.24936-0.06072 0.34866-0.0036 0.19685-0.05872 0.59429-0.13713 0.77308-0.07841 0.17843-0.29815 0.41904-0.30106 0.6158 0.0155 0.14552 0.17178 0.22968 0.29541 0.24344zm-12.04-1.5203 0.06428 0.14132c0.0028 0.02434 0.03182 0.07066 0.05653 0.06856 0.16394 0.15719 0.39361-0.20706 0.11944-0.25584-0.02471 0.0021-0.07559-0.01806-0.09747 0.0085-0.04805 0.0046-0.09683 0.0089-0.14278 0.03747zm0.18162-0.3597c-0.11096 0.10777-0.15126 0.18518 0.029 0.26706l-0.029-0.26706zm-2.9242-2.1418c-0.17807 0.16284-0.16457 0.06392-0.25575 0.12118-0.06784 0.05471-0.0113 0.12327-0.07349 0.22712-0.01915 0.05088-0.08972 0.0817-0.08406 0.13038-0.01632 0.07495 0.06145 0.11698 0.13704 0.13467 0.09966 0.0155 0.39079-0.01031 0.48188-0.06747 0.08981-0.08169 0.05443-0.1767 0.09546-0.2541 0.02188-0.02644 0.06501-0.07941 0.08689-0.10595 0.01057-0.12364-0.25018-0.27206-0.38795-0.18582zm7.021-0.75258 0.02608 0.24271-0.02827 0.19894c0.26422-0.04841 0.42688-0.1364 0.6614-0.23113 0.07002-0.03073 0.20988-0.09254 0.26422-0.04832 0.07787 0.0424 0.03684 0.11935 0.01768 0.17023-0.03811 0.10139-0.18929 0.28693-0.25438 0.36644-0.19713 0.21371-0.48817 0.23989-0.73415 0.45825-0.13221 0.13458-0.1674 0.2603-0.30034 0.39497-0.13202 0.13421-0.22684 0.16749-0.29468 0.22256-0.06492 0.07951-0.01057 0.12364-0.14825 0.20953l0.07841-0.17843c-0.07495-0.01806-0.17251-0.0092-0.22904-0.07805-0.03173-0.0703-0.03957-0.14351-0.02334-0.21836 0.03337-0.15017 0.06364-0.54551 0.15062-0.65156 0.02188-0.02644 0.21061-0.09254 0.28047-0.12327l-0.03246 0.15017c0.07276-0.0064 0.19366-0.01733 0.23943-0.04595 0.11889-0.03528 0.23816-0.29148 0.30034-0.39497l-0.32915 0.12756c0.05726-0.15226 0.21974-0.46107 0.3554-0.57132zm-6.5087 0.73097c-0.04942 0.22548 0.08835 0.13923 0.17168 0.23003 0.0537 0.04413 0.06154 0.11698 0.06929 0.19011l-0.19147 0.04167-0.08416 0.13002-0.10814 0.13248 0.32861 0.09327c-0.16457 0.06364-0.26422 0.04805-0.36954 0.20497l0.41193-0.03711c0.26925 0.000374 0.47138 0.0558 0.72504-0.08981l-0.0537-0.04413 0.07349-0.22749-0.18299-0.10604-0.06437-0.14132-0.30809-0.36498-0.10239-0.03994c0.08689-0.10595 0.26213-0.2936 0.01195-0.34446l-0.12364-0.01341 0.10814-0.13248c-0.14844-0.01094-0.27207-0.02444-0.38304 0.0837-0.13002 0.15865-0.13357 0.35514 0.07139 0.43491zm-0.14342-3.1514-0.0057 0.17205-0.05653-0.06847 0.007 0.2936c0.04313 0.16813 0.23177 0.10212 0.2749 0.04905 0.04595-0.02854 0.05936-0.12819 0.05443-0.17661-0.0049-0.04842-0.03465-0.09501-0.06145-0.11698-0.05161-0.02015-0.07568-0.01796-0.12437-0.01376l-0.01559-0.14552-0.07276 0.0066zm-19.986 1.5479c-0.0096 0.36881 0.08753 0.35996 0.16986 0.67161 0.04276 0.16786-0.02471 0.22292 0.10886 0.55436 0.06428 0.14169 0.10385 0.28512 0.2572 0.34483-0.04413-0.41303-0.09473-0.65365-0.23322-1.0338-0.09893-0.23642-0.17451-0.25403-0.25438-0.54168l-0.04832 0.0046zm33.507-4.0352c-0.11579 0.05936-0.15682 0.13668-0.14351 0.25786-0.0113 0.124 0.0961 0.21235 0.21482 0.17707 0.16466-0.06364 0.19293-0.48333-0.0713-0.43491zm-22.927-0.054c-0.05972 0.12829-0.07103 0.25192 0.06072 0.33817-0.01303-0.12117 0.02225-0.24736-0.06072-0.33817zm7.163 0.11807 0.08087 0.06638c0.17807-0.16321 0.21627-0.26497 0.34629-0.42362 0.10804-0.13248 0.18089-0.13886 0.24837-0.19394 0.04304-0.05307 0.03775-0.10175 0.05398-0.1767 0.0382-0.10175 0.1085-0.13248 0.09045-0.30243 0.0086-0.14798-0.08789-0.36005-0.25502-0.32058l-0.03747-0.11926c-0.07276 0.0065-0.19147 0.04167-0.25894 0.09665-0.06747 0.05525-0.03291 0.15026-0.1219 0.23186-0.10814 0.13221-0.29679 0.19821-0.34272 0.22684-0.0703 0.03109-0.03811 0.10175-0.1519 0.18554-0.15901 0.11233-0.26396 0.04805-0.35834 0.08124-0.11871 0.03501-0.29458 0.22256-0.38367 0.30416-0.13002 0.15865-0.16776 0.2604-0.22221 0.4371-0.01906 0.05051-0.05972 0.12783-0.03036 0.17451 0.02927 0.04632 0.10212 0.03957 0.14834 0.01094 0.09437-0.03282 0.30207-0.14944 0.37776-0.13175 0.0724-0.0067 0.10203 0.03984 0.15327 0.05972 0.07531 0.01759 0.12373 0.01341 0.17488 0.03319 0.05088 0.02015 0.10741 0.08862 0.16111 0.13284 0.12902 0.06182 0.25903-0.09683 0.29714-0.19821 0.01906-0.05088 0.03784-0.10175 0.03009-0.17451zm0.14096-1.8772 0.0028 0.02435-0.02726-0.02207 0.02444-0.0023zm0.21481 0.17698c0.06428 0.14151 0.30097 0.29186 0.43529 0.40263 0.04586-0.02863 0.06747-0.05516 0.08653-0.10586 0.05972-0.1281 0.03355-0.37118-0.09574-0.43318-0.07768-0.04203-0.17242-0.0089-0.24234 0.02179-0.0028-0.02425-0.03465-0.09492-0.06145-0.11716-0.19084-0.17907-0.42963 0.33298-0.12227 0.23177zm-1.0143-0.32586c0.16357 0.15701 0.1664 0.18117 0.38478 0.16157-0.03328 0.15017-0.22759 0.38851-0.38659 0.28019-0.10458-0.06428-0.11516-0.16147-0.16603-0.18144-0.07805-0.04203-0.08407 0.1302-0.12719 0.18308-0.10321 0.18099-0.27554 0.17205-0.29249 0.46793l0.09181-0.05762c0.09327 0.188 0.26643-0.02361 0.38266-0.08315-0.02161 0.02653-0.06501 0.07969-0.08379 0.1302-0.01695 0.07522 0.06401 0.14169 0.1343 0.1106 0.06993-0.03082 0.154-0.16111 0.2212-0.21627 0.06784-0.05489 0.09181-0.05708 0.16211-0.08817 0.06747-0.05489 0.15655-0.13649 0.22439-0.19166 0.20277-0.1653 0.21298-0.0682 0.28402-0.31994-0.0057-0.04851 0.01623-0.07504 0.01094-0.12364-0.09647-0.21216-0.44402-0.03374-0.47129-0.05562l-0.1509-0.03574c-0.05088-0.01997-0.14552 0.01313-0.21791 0.01969zm1.1207-0.05142-0.12117 0.01076 0.03219 0.07066c0.14306-0.03729 0.23989-0.04614 0.2459-0.21836-0.12126 0.01094-0.14561 0.01303-0.15692 0.13695zm-7.6389 0.46436-0.11242 0.54998 0.05024 0.24062 0.10102 0.4815c0.06218-0.10348 0.17378-0.43245 0.18509-0.55608l0.02762-0.19894c0.0085-0.1478 0.02754-0.19849-0.03674-0.34l-0.15692 0.13667-0.0096-0.31793-0.04832 0.0042zm7.8901-0.63432c-0.0155-0.14579 0.0113-0.12354 0.13494-0.11023l-0.0017-0.24518c-0.0703 0.03082-0.16713 0.03966-0.23496 0.09464-0.10814 0.1323-0.09464 0.25403 0.10175 0.26077zm-0.72076-0.32769 0.08306 0.09063c0.16713-0.03957 0.22083 0.0046 0.37163 0.04021l-0.05899-0.09291 0.06218-0.10367c0.14561-0.01285 0.15692-0.13676 0.09546-0.25384-0.0269-0.02216-0.07814-0.04203-0.10494-0.06428-0.26112-0.14807-0.28585 0.07486-0.34803 0.17852l-0.10039 0.20533zm0.62784-0.08096c0.04841-0.0044 0.09719-0.0087 0.14306-0.0372 0.08908-0.08169 0.03893-0.32258-0.03957-0.36453-0.07522-0.01778-0.11579 0.05936-0.1105 0.10795l-0.0166 0.07531 0.01303 0.12136 0.01057 0.0971zm-7.7958 0.6014c0.08653-0.10586 0.11662-0.28038 0.12792-0.4041-0.16184 0.08835-0.14625 0.23395-0.12792 0.4041zm0.85926-1.5735c0.02334 0.21874-0.0042 0.41742-0.08051 0.62047-0.09756 0.22968-0.33288 0.54514-0.38231 0.77017l-0.05616-0.06856c-0.10567 0.15673-0.11771 0.50139-0.05051 0.66696 0.13212-0.13449 0.16248-0.309 0.24372-0.46344 0.16011-0.33316 0.37383-0.62209 0.45579-0.99757 0.01414-0.09938 0.03392-0.37109-0.02544-0.46382-0.02936-0.0465-0.0537-0.04422-0.10458-0.06419zm22.083 0.64344c0.12728-0.18326 0.1612-0.55399 0.20988-0.77947 0.11525-0.52536 0.35832-0.76789 0.28756-1.424-0.0155-0.1457-0.0713-0.4351-0.24581-0.46866-0.27206-0.02452-0.16047 0.33335-0.1767 0.40838 0.0078 0.07303-0.01132 0.12372-0.03045 0.1746-0.11926 0.25593-0.06346 0.54533-0.05927 0.81476l-0.05161 0.88779 0.06638 0.38659zm-3.9273-4.1859c0.0049 0.04851 0.03173 0.07075 0.06145 0.11707 0.02681 0.02225 0.05379 0.04431 0.0806 0.06647 0.1561 0.08407 0.23743-0.0703 0.17798-0.1633-0.02881-0.04641-0.12856-0.062-0.17725-0.05753-0.04814 0.0044-0.09683 0.0087-0.14278 0.03729zm3.6278-0.42369c0.02334 0.21874 0.11105 0.57898 0.20497 0.76671l0.21408 0.39781 0.25293 0.76232c0.13002-0.15883 0.06091-0.34892 0.01841-0.51679-0.11-0.333-0.268-0.662-0.399-0.969-0.091-0.163-0.158-0.329-0.292-0.44zm-1.3405-0.3948-0.01969 0.27152-0.33152-0.11753c-0.0055 0.17251 0.07148 0.43536 0.20862 0.57012l0.26624 0.19694c0.21481 0.17706 0.43254 0.37839 0.62547 0.5817 0.16959 0.2057 0.17725 0.27864 0.23597 0.37137 0.0538 0.04413 0.10741 0.08853 0.17743 0.05762 0.04595-0.02863 0.05726-0.15226 0.07622-0.20314l0.08133-0.15445c0.03538-0.12573-0.05799-0.31356-0.11944-0.4308l-0.161-0.353c-0.068-0.166-0.108-0.309-0.22-0.446-0.191-0.18-0.336-0.167-0.538-0.222l-0.28265-0.12172zm-6.7469 0.33544c-0.01423 0.09947-0.02261 0.24755-0.14132 0.28265-0.02407 0.0022-0.12364-0.01341-0.15062-0.03565l-0.09245 0.27826c-0.04103 0.07713-0.11734 0.28028-0.10887 0.35331-0.0113 0.12345 0.15828 0.10823 0.24454 0.0025 0.08972-0.0816 0.10102-0.20533 0.16321-0.309 0.1003-0.20524 0.28611-0.29569 0.30872-0.54286l-0.2232-0.02918zm7.5164-0.9198c0.07221 0.21444 0.12291 0.23442 0.24107 0.42005 0.06145 0.11716 0.04522 0.1922 0.18783 0.15491-0.08534-0.11497-0.32349-0.51069-0.4289-0.57496zm-10.17 1.307c-0.27207-0.02453-0.09255 0.27826-0.12792 0.40401-0.05936 0.1281-0.33206 0.32431-0.46417 0.23797-0.07002 0.03091-0.14278 0.03747-0.21836 0.0196-0.07495-0.01787-0.12865-0.062-0.20141-0.05544l-0.38649 0.28c-0.06784 0.05507-0.15901 0.11233-0.25647 0.12099-0.07212 0.0066-0.16959 0.01514-0.21272 0.06838-0.06784 0.05489-0.0035 0.1964 0.029 0.26706l0.11516 0.16148c-0.23743 0.0703-0.21909 0.24025-0.19575 0.45917 0.01341 0.12136 0.06008 0.55873 0.09473 0.65374 0.03738 0.11944 0.1964 0.22776 0.32222 0.26532 0.07841 0.0423 0.20204 0.05553 0.27481 0.04914l0.01695-0.29604 0.07285-0.0064 0.07486 0.2387c0.02407-0.0024 0.07276-0.0066 0.09683-0.0089l0.3017 0.07121c0.0269 0.02206 0.0269 0.02206 0.0537 0.04413 0.03182 0.07066-0.02754 0.19877-0.01979 0.27171 0.0424 0.16776 0.21763 0.20122 0.36324 0.18809-0.0035 0.19648 0.0155 0.14579 0.0042 0.26943 0.01341 0.12154-0.05936 0.1281 0.09045 0.3844 0.02972 0.04632 0.09118 0.16357 0.16394 0.15701 0.07276-0.0065 0.22402-0.19183 0.38586-0.27991 0.03738 0.11917 0.04021 0.1436 0.14479 0.20789l-0.03529 0.12573 0.27554-0.17187c-0.08197 0.37529-0.23806 0.29113-0.40838 0.52718-0.06009 0.12819-0.02261 0.24745-0.05799 0.37327l0.0269 0.02207 0.09182-0.05726 0.07002-0.03073c0.21545-0.04404 0.04805 0.21636 0.05297 0.26495 0.0077 0.07303 0.05936 0.09273 0.11023 0.11288l-0.11379 0.08361 0.0671 0.16585-0.43665 0.03921c-0.21554 0.04386-0.39434 0.20706-0.57524 0.34592l0.0057 0.0486 0.07495 0.01778-0.41831 0.20934c0.12646 0.03748 0.29113-0.02617 0.41267-0.03711 0.11871-0.03528 0.09683-0.0085 0.24025-0.04623l0.07768 0.0424-0.01414 0.09929 0.53283 0.17278c0.12646 0.03775 0.21836-0.01951 0.29679 0.02261 0.10458 0.06428 0.0692 0.19002 0.24445 0.2232 0.20141 0.05553 0.36116-0.0568 0.52792-0.09637l-0.19722 0.21409 0.09118 0.16357 0.23743-0.0703c-0.17597 0.18727-0.16749 0.03957-0.50667 0.06993 0.07777 0.04203 0.30881 0.14379 0.36043 0.16394 0.12646 0.03784 0.19356-0.01768 0.37163 0.0403 0.15053 0.03529 0.33352 0.14169 0.38231-0.08379 0.02963 0.04668 0.05936 0.093 0.08616 0.11525 0.07787 0.04203 0.12656 0.03775 0.20223 0.05544 0.09957 0.01559 0.33554 0.16603 0.32495 0.28977-0.02188 0.02644-0.04377 0.05297-0.06492 0.0795-0.03264-0.07103-0.06437-0.14132-0.1209-0.20988-0.13914-0.15938-0.35268-0.09118-0.52783-0.12473l-0.35268-0.09081-0.27199-0.02471c-0.1477-0.0113-0.23113-0.10175-0.37665-0.08871-0.04878 0.0043-0.11871 0.03501-0.11306 0.0837 0.0049 0.04841 0.05863 0.093 0.08552 0.11488 0.1561 0.08407 0.09957 0.0155 0.33636 0.16603 0.13139 0.08625 0.17734 0.05762 0.30381 0.09537l0.12929 0.06218c0.09966 0.01559 0.11871-0.03528 0.21836-0.01978 0.04805-0.0042 0.14771 0.0113 0.19922 0.03146l-0.42106 0.18482-0.32295-0.04449c0.06428 0.14132 0.09118 0.16357-0.01695 0.29569l-0.05936-0.09254c-0.06501 0.07914-0.05936 0.12792-0.12436 0.20734l-0.10814 0.13221c-0.01906 0.05088-0.08406 0.13038-0.13284 0.13458-0.07276 0.0067-0.15546-0.08406-0.20988-0.12819-0.10458-0.06437-0.15327-0.06009-0.27197-0.0248 0.08899 0.13922 0.13494 0.1106 0.26349 0.17242 0.10531 0.06428 0.37383 0.28547 0.45725 0.37628-0.0248 0.0021-0.04878 0.0043-0.06784 0.05516-0.04312 0.05297 0.0042 0.26953 0.06072 0.33772 0.0537 0.04449 0.10531 0.06428 0.17734 0.05799l-0.28895 0.27134c0.12646 0.03738 0.17242 0.0089 0.27982 0.09747l-0.24243 0.02152-0.32004-0.24088-0.33352-0.14206c0.12436 0.01341 0.32076 0.02052 0.43665-0.03921 0.20779-0.11661 0.10886-0.35294-0.05225-0.4858-0.10458-0.06437-0.17743-0.05762-0.30106-0.07103-0.09966-0.01559-0.25293-0.07559-0.35049-0.06683l-0.26422 0.04841 0.01695-0.07522c-0.07568-0.01768-0.10248-0.03993-0.17032 0.01522-0.0806-0.06647-0.0827-0.09045-0.18235-0.10604l0.01277 0.12117-0.11023-0.11269-0.01057 0.12364c-0.05936-0.09291-0.06218-0.11689-0.16394-0.15682l0.08197 0.31128-0.0403 0.07732c-0.13494 0.11023-0.13357 0.3555-0.11734 0.50139 0.03109 0.29148-0.03392 0.371-0.05863 0.59393-0.0064 0.17205 0.05015 0.24062 0.0035 0.49035-0.01341 0.09929-0.10604 0.37738-0.14698 0.45478l-0.10814 0.13212-0.08124 0.15436c-0.04103 0.07741-0.10814 0.13248-0.14907 0.20988-0.0382 0.10139 0.0155 0.14588 0.04522 0.1922 0.04021 0.14342-0.06218 0.10349 0.10668 0.30945l-0.08625 0.10567 0.09683-0.0089c-0.05443 0.1767 0.0558 0.28977 0.22256 0.25018 0.11871-0.03538 0.24872-0.19403 0.28411-0.32013l0.04878-0.0043 0.3264 0.53494c0.05653 0.06856 0.06993 0.19011 0.16959 0.20561 0.09966 0.01559 0.13713-0.0858 0.17807-0.1632 0.04313-0.05297 0.08908-0.0816 0.13211-0.13458 0.06009-0.12792-0.0579-0.31374-0.04659-0.43747 0.01341-0.0992 0.08124-0.15436 0.09255-0.278-0.01832-0.16995-0.14488-0.20779-0.22822-0.2986-0.08343-0.09045-0.09327-0.18755-0.10668-0.30909-0.02899-0.26751 0.10877-0.35331 0.13421-0.57623 0.0085-0.14807-0.07486-0.23851-0.08552-0.33598-0.0078-0.07285 0.0085-0.14771 0.08133-0.15445 0.1674-0.03957 0.18792 0.15509 0.20131 0.27636l-0.02261 0.24727c-0.01341 0.09966-0.05434 0.1767-0.04094 0.29815 0.03465 0.0951 0.09118 0.16366 0.12291 0.23433 0.05653 0.06847 0.06437 0.14169 0.11807 0.18582 0.05088 0.01978 0.07768 0.04167 0.12646 0.03747 0.05088 0.02015 0.10175 0.03984 0.15053 0.03565 0.11871-0.03538 0.24088-0.26716 0.35395-0.35049 0.06784-0.05544 0.16749-0.03957 0.24025-0.04632-0.04094 0.07741-0.14907 0.20988-0.1922 0.26258-0.09182 0.05717-0.25931 0.09674-0.26779 0.2448-0.05161 0.20105 0.21481 0.17698 0.20916 0.34902-0.0113 0.12373-0.19922-0.03109-0.25647 0.12117-0.08124 0.15445 0.02617 0.24316 0.06355 0.36252 0.0078 0.07285-0.03246 0.1498-0.04942 0.22512-0.10248 0.1809-0.18864 0.06601-0.3265 0.1519-0.11589 0.05972-0.24309 0.24271-0.36179 0.2781-0.09391 0.03282-0.17524-0.03364-0.248-0.02726-0.09683 0.0089-0.17807 0.16357-0.33918 0.03073-0.16394-0.15719 0.02261-0.24727-0.01768-0.39105l-0.09893-0.23642c-0.13777 0.08589-0.2727 0.19648-0.22749 0.38868 0.06711 0.1653 0.22822 0.29815 0.14415 0.42817-0.06784 0.05516-0.21345 0.0682-0.3265 0.15199-0.13777 0.08616-0.2812 0.34411-0.32715 0.37309-0.06784 0.05507-0.14059 0.06145-0.2077 0.11652l-0.24381 0.24271c-0.02124 0.02653-0.02124 0.02653-0.04313 0.05306l-0.30381-0.09546 0.01832 0.16996c-0.12154 0.01094-0.12154 0.01094-0.2212-0.0046-0.07485-0.01806-0.22329-0.02899-0.2614 0.0724-0.04103 0.07741 0.16111 0.13284 0.21272 0.15263 0.30872 0.14415 0.36954 0.48197 0.23743 0.6169-0.08908 0.08124-0.24243 0.02152-0.34202 0.006-0.22402-0.02899-0.5766-0.12017-0.79708-0.12473-0.29122 0.0258-0.19786 0.21371-0.25438 0.36607-0.01423 0.09956-0.10604 0.15682-0.12227 0.23177-0.02197 0.02644-0.01906 0.05088-0.01632 0.07522-0.0027-0.02434 0.07987 0.28721 0.07704 0.26286 0.03465 0.09501 0.20497 0.07987 0.30463 0.09537 0.12573 0.03747 0.15828 0.1085 0.26277 0.17278 0.10248 0.03957 0.14844 0.01094 0.24308-0.02188 0.21773-0.01978 0.42543 0.08443 0.7491-0.0919 0.06993-0.03073 0.13777-0.0858 0.15682-0.13668 0.06501-0.07914 0.03255-0.15017 0.12154-0.23177 0.11096-0.10814 0.3265-0.15199 0.4402-0.23569 0.08908-0.0816 0.0248-0.22292 0.18938-0.28684 0.11871-0.03501 0.25018 0.05124 0.41486-0.01277 0.14269-0.03747 0.29679-0.19821 0.4402-0.2356 0.14552-0.01313 0.23597 0.15044 0.4381 0.20596l0.80199 0.17305c0.02471-0.0021 0.07558 0.01806 0.10248 0.0403 0.21481 0.1767-0.09473 0.25365-0.21345 0.28902-0.09464 0.03282-0.11871 0.03492-0.21618 0.04376 0.02754 0.02197 0.02963 0.04632 0.05653 0.06856 0.10248 0.03994 0.34975 0.06683 0.43947-0.01486 0.04313-0.05297 0.0382-0.10175 0.03045-0.17451 0.09391-0.03282 0.13986-0.06145 0.17807-0.16321-0.0078-0.07276-0.0403-0.14342 0.02754-0.19859 0.04313-0.05297 0.13987-0.06182 0.21336-0.06856-0.11306-0.13668-0.20488-0.07951-0.35331-0.09081-0.07486-0.01759-0.10458-0.06428-0.18016-0.08188-0.07276 0.0066-0.13987 0.06182-0.24234 0.02188-0.07559-0.01806-0.15619-0.08443-0.23104-0.10212-0.0785-0.04203-0.27772-0.07312-0.26643-0.19685 0.01906-0.05088 0.04094-0.07732 0.08899-0.0816 0.02197-0.02644 0.04595-0.02863 0.07066-0.03109l0.03465 0.09546c0.25866-0.09683 0.17451 0.03319 0.39854 0.06218 0.20141 0.05543 0.43883-0.01486 0.64371 0.06501 0.12655 0.03738 0.08552 0.11479 0.19575 0.22749 0.1343 0.11096 0.32577 0.06893 0.49528 0.0537-0.02115 0.02653-0.04577 0.02899-0.04303 0.05297-0.04103 0.07741 0.01277 0.12154 0.06437 0.14132 0.18217 0.1064 0.45297-0.11406 0.2212-0.21582l0.37238-0.18053c-0.18017-0.08197-0.26934-0.000374-0.50604-0.1509 0.12163-0.01094 0.14552-0.01303 0.23468-0.09473l0.01404-0.09956 0.39424-0.20706c-0.12491 0.20742 0.01569 0.14588 0.06291 0.36252 0.12163-0.01094 0.27206 0.02434 0.3937 0.01376 0.09464-0.03319 0.35322-0.13002 0.42106-0.18518 0.0671-0.05507 0.08406-0.13002 0.15117-0.18509l0.28064-0.12336c0.11379-0.0837 0.20004-0.18964 0.28684-0.29569 0.04304-0.05297 0.08625-0.10595 0.16193-0.08798 0.10175 0.03993 0.12783 0.28301 0.13841 0.3802 0.03246 0.07066 0.06711 0.1653 0.07495 0.23842-0.01496 0.32013-0.35122 0.37492-0.55399 0.54023-0.13494 0.11023-0.23816 0.29113-0.37874 0.35294-0.1809 0.13886-0.69897 0.33253-0.93638 0.40281l-0.50384 0.09428c-0.1158 0.05972-0.25074 0.16995-0.28885 0.27134-0.03829 0.10175 0.02316 0.21874-0.09264 0.2781-0.11598 0.05972-0.59849 0.12719-0.72222 0.11415-0.19922-0.03146-0.13212-0.08662-0.42324-0.06045-0.26643 0.02407-0.55472 0.07458-0.82953 0.02544 0.04304-0.05297 0.13002-0.15901 0.14625-0.23386 0.01906-0.05088-0.0077-0.07313-0.01341-0.12154-0.0022-0.02407-0.0078-0.07276-0.03465-0.09501-0.05653-0.06856-0.25018-0.05124-0.32295-0.04458-0.16749 0.03957-0.13777 0.08589-0.4042 0.10987l-0.89526 0.10494c-0.43601 0.03893-0.7844 0.21763-0.95398 0.23287-0.12154 0.01094-0.39361-0.01376-0.52008-0.05161-0.10239-0.03994-0.20979-0.12856-0.32577-0.06884-0.11871 0.03529-0.15682 0.13667-0.2967 0.19812-0.14068 0.06191-0.40702 0.08589-0.56676 0.19821-0.15901 0.11242-0.07595 0.20314-0.26213 0.29332-0.09437 0.03319-0.41202 0.03702-0.53347 0.04796-0.26925-0.000187-0.40427 0.10996-0.63916 0.2046l-0.25903 0.09683c-0.09428 0.03282-0.28585 0.07458-0.3264 0.1519-0.04066 0.07705 0.01832 0.16995 0.02617 0.24308 0.0078 0.07276-0.0086 0.1477-0.02517 0.22292-0.12683 0.18308-0.4536 0.33499-0.40027 0.6003 0.0424 0.16786 0.14205 0.18336 0.32997 0.33809 0.24701 0.24773 0.43172 0.59922 0.69777 0.79607 0.34383 0.23916 0.84129 0.53804 1.2666 0.62246l0.73844 0.03182c0.3957 0.03784 0.6996 0.13357 1.1151 0.12053l0.91296-0.15546c0.19429-0.01733 0.4826-0.06784 0.68464-0.0124 0.20214 0.05543 0.2417 0.19922 0.6056 0.1664l0.50667-0.06993c0.11871-0.03501 0.21336-0.0682 0.34201-0.006 0.31229 0.16822-0.2169 0.48542 0.02471 0.68474 0.1343 0.1106 0.5787 0.14415 0.75676 0.20169 0.12373 0.0135 0.51369 0.22367 0.5972 0.31447 0.05361 0.04413 0.05853 0.09291 0.11506 0.16148 0.0558 0.06856 0.18308 0.10604 0.19074 0.17916 0.0078 0.07276-0.14898 0.20953-0.1922 0.2625-0.13275 0.13458-0.38997 0.47657-0.24508 0.68436 0.05653 0.06847 0.20988 0.1282 0.28831 0.17023l0.70735 0.20634c0.30654 0.11981 0.33279 0.36289 0.5186 0.49327 0.13148 0.08653 0.34974 0.06674 0.52226 0.07595l0.72924 0.1798c0.25365 0.07568 0.1477 0.23214 0.34683 0.26323 0.42052 0.03611 1.0659-0.34091 1.4085-0.56775l0.69604-0.35686c0.27845-0.14761 0.52919-0.31757 0.7801-0.48716 0.47558-0.36144 0.8649-0.8381 1.1009-1.3744 0.08133-0.15436 0.31165-0.5187 0.32586-0.61791 0.03246-0.15017-0.12382-0.23433-0.06364-0.36214 0.07841-0.17916 0.39497-0.42826 0.47065-0.63104 0.06291-0.10385 0.0445-0.2738-0.06091-0.33809-0.10175-0.03994-0.16959 0.01514-0.37163-0.0403 0.15263-0.40601 0.4289-0.79889 0.65865-1.1631 0.10595-0.15646 0.29524-0.44339 0.29888-0.63979 0.000747-0.22083-0.19657-0.22794-0.27918-0.31839-0.0806-0.06638-0.06218-0.11725-0.11306-0.1374-0.10175-0.03957-0.26422 0.04842-0.36379 0.03282-0.07294 0.0064-0.12655-0.03775-0.17743-0.05753-0.07841-0.04203-0.1725-0.0092-0.24527-0.0028-0.10941-0.33352 0.11871-0.94267 0.2305-1.2716 0.21754-0.70634 0.50876-1.4196 0.40338-2.1705l-0.1116-0.5787c-0.03173-0.07103-0.09045-0.16357-0.18509-0.13075-0.14278 0.03747-0.26861 0.46572-0.32788 0.59356l-0.32788 0.59393c-0.08406 0.13002-0.13859 0.30672-0.24945 0.41476-0.08917 0.0817-0.22977 0.14315-0.34556 0.20251-0.03757-0.11908-0.10741-0.08835-0.20204-0.05516l-0.43966 0.23569c-0.09172 0.05726-0.27263 0.19612-0.39424 0.20706-0.09683 0.0089-0.15336-0.05972-0.29597-0.02261-0.09683 0.0089-0.2615 0.07276-0.33718 0.05471-0.09956-0.0155-0.20697-0.10385-0.30672-0.11935-0.07476-0.01806-0.21827 0.01942-0.28829 0.05015-0.24252 0.02188-0.62202-0.09154-0.87274-0.14242 0.04595-0.02863 0.09464-0.03282 0.08972-0.0816 0.03538-0.12573-0.15828-0.32924 0.07914-0.39962 0.02407-0.0021 0.07276-0.0066 0.09683-0.0088l0.41467-0.01277 0.24053-0.04595c0.12364 0.0135 0.1561 0.08416 0.32568 0.06893l0.594-0.146c0.24308-0.02197 0.34119 0.21481 0.59283 0.04486 0.20495-0.14096 0.3979-0.62465 0.47138-0.85186l0.2119-0.5342 0.08206-0.3752c0.09245-0.27845 0.17652-0.40847 0.1426-0.72431l-0.04942-0.4618c-0.02115-0.19429-0.06072-0.33809-0.26077-0.14835-0.15464 0.16111-0.20916 0.33772-0.45642 0.31091-0.06565 0.30034-0.02407 0.68894-0.32368 0.86318-0.11379 0.0837-0.24015 0.04586-0.35815 0.08124-0.07075 0.03073-0.16266 0.08835-0.21354 0.0682-0.07276 0.0063-0.12637-0.03784-0.13421-0.1106 0.0135-0.09929 0.17816-0.1632 0.24872-0.19403 0.23468-0.09464 0.3534-0.13002 0.52645-0.34164 0.10522-0.15682 0.11652-0.28054 0.20058-0.41056 0.08625-0.10595 0.16193-0.08826 0.24818-0.19394 0.06492-0.07951 0.18436-0.33563 0.24654-0.43919l0.2967-0.88532c0.14351-0.2583 0.38386-0.30426 0.44677-0.62894l0.03738 0.11944c0.25657-0.12117 0.25438-0.36635 0.20424-0.60697 0.14552-0.01313 0.44165 0.0092 0.56038-0.0258l0.55035-0.34373c0.13786-0.08625 0.3647-0.25375 0.39718-0.40392 0.03811-0.10139-0.11944-0.43064-0.17597-0.49919-0.02899-0.04632-0.0558-0.06856-0.1074-0.08835-0.12655-0.03775-0.29322 0.0019-0.3844-0.16184-0.11306-0.13704-0.23816-0.61645-0.33133-0.80445-0.20077-0.49709-0.21409-0.39781-0.30818-0.58562-0.06145-0.11707-0.05015-0.24081-0.06364-0.36233-0.03446-0.09483-0.09099-0.16339-0.09592-0.21216-0.01076-0.0971 0.05708-0.15226 0.12218-0.23158 0.10248-0.18108 0.0868-0.32678 0.19786-0.43491 0.08899-0.0816 0.1674-0.03939 0.2077-0.11671 0.14917-0.20953-0.21117-0.37346-0.08972-0.60523 0.06218-0.10376 0.23816-0.29113 0.3596-0.30217 0.0941-0.03283 0.17251 0.009 0.26643-0.0238 0.09191-0.05744 0.09829-0.22968 0.1364-0.33124 0.09464-0.25384 0.24308-0.24252 0.27918-0.5891 0.0113-0.12373 0.01695-0.29614-0.04176-0.38887-0.11306-0.13722-0.27206-0.02471-0.31018 0.07686-0.08406 0.13002-0.06565 0.30034-0.05015 0.44604-0.0086 0.14789-0.03611 0.34657-0.12017 0.47676-0.10248 0.18108-0.31236 0.0527-0.37163-0.04003-0.029-0.0465-0.0098-0.09719-0.0155-0.14597 0.0035-0.19657-0.05307-0.26497-0.0036-0.49017 0.0135-0.09947 0.10595-0.37757 0.07713-0.42397-0.0086-0.07294-0.23123-0.32258-0.28702-0.39133-0.11014-0.1127-0.30872-0.3648-0.49235-0.25011-0.16193 0.08799-0.12801 0.40401-0.15828 0.57834-0.01641 0.07504-0.0496 0.2252-0.12236 0.23177-0.04522 0.02863-0.12637-0.03784-0.17944-0.08197-0.13713-0.13494-0.22047-0.22557-0.24381-0.4443 0.07495 0.01768 0.277 0.07331 0.29104-0.02617-0.01057-0.0971-0.12564-0.25858-0.2232-0.24973-0.09957-0.01559-0.11306 0.0837-0.24527-0.0025-0.10741-0.08853-0.34556-0.48425-0.45863-0.62136-0.14187-0.18354-0.35395-0.33617-0.56165-0.4402-0.12582-0.03756-0.53502-0.1973-0.64862-0.11342-0.04595 0.02863-0.03829 0.10139-0.05726 0.15208-0.02681-0.02188-0.0538-0.04413-0.10175-0.03984-0.17524-0.03328-0.22684 0.16758-0.23816 0.29132 0.0049 0.0485 0.0155 0.14588-0.05453 0.17661-0.07057 0.03073-0.12436-0.01341-0.17816-0.05772-0.13148-0.08625-0.13421-0.1106-0.31163-0.16822 0.03465 0.09501 0.06929 0.19011 0.12801 0.28282 0.1426 0.18354 0.23942 0.17469 0.21681 0.42223-0.20424-0.07987-0.43529-0.18162-0.57515-0.34101l0.18873-0.06601-0.0051-0.04841c-0.07768-0.04221-0.34411-0.23907-0.35468-0.33617-0.0078-0.07294 0.08899-0.08179 0.08133-0.15464 0.01696-0.07504-0.06145-0.11707-0.02334-0.21864 0.06492-0.07951 0.20552-0.14114 0.19495-0.23834-0.0057-0.0486-0.05927-0.09273-0.11014-0.1127-0.10467-0.06428-0.2905-0.19467-0.40136-0.08671-0.08899 0.0816-0.02188 0.24727-0.0713 0.47248-0.07568-0.01759-0.20496-0.07978-0.27991-0.09747-0.09957-0.01559-0.21554 0.04376-0.34483-0.01806-0.17798-0.05771-0.24163-0.19922-0.39497-0.25912-0.28265-0.12172-0.52008-0.05124-0.7843-0.003-0.1209 0.01076-0.31529 0.02827-0.43108 0.08762-0.09191 0.05744-0.13294 0.13458-0.17324 0.21181-0.10795 0.13248-0.32149 0.20049-0.30015 0.39478 0.04231 0.16804 0.19074 0.17934 0.24436 0.22329l0.15482 0.30527c-0.16685 0.03939-0.24527-0.0025-0.39006 0.01049l-0.57451 0.125c-0.29395 0.002-0.38513-0.16157-0.56531-0.24353-0.10175-0.03994-0.17451-0.03346-0.25292-0.07549-0.0806-0.06619-0.08835-0.13914-0.11525-0.16147-0.05653-0.06829-0.30381-0.09537-0.37656-0.08881 0.0049 0.04878 0.0077 0.07294-0.03538 0.12573-0.04094 0.07741-0.24872 0.1942-0.34556 0.20286-0.04586 0.02863-0.12154 0.01094-0.17242-0.009l0.0135-0.09947c0.01132-0.12345-0.06154-0.11698-0.15546-0.08407-0.14351 0.03738-0.22968 0.14324-0.34347 0.22703 0.04103-0.07723 0.07914-0.1788 0.14415-0.25812 0.08908-0.0816 0.20779-0.11698 0.32368-0.17634l0.36672-0.22912c0.09182-0.05726 0.2325-0.11908 0.29961-0.17415 0.20277-0.1654 0.24518-0.6842 0.1922-0.94934-0.3752 0.1561-0.27563 0.17169-0.52929 0.3172-0.09182 0.05726-0.14059 0.06173-0.21052 0.09245-0.0672 0.05525-0.08416 0.13038-0.10039 0.20524zm2.5735-0.89317 0.23888 0.17488 0.18217 0.32696c0.14005-0.06164 0.15901-0.11233 0.25384-0.14534 0.04577-0.02863 0.34756 0.0424 0.27754-0.14752-0.02681-0.02225-0.05361-0.04431-0.08042-0.06638l-0.01623 0.07504c-0.0806-0.06638-0.188-0.15491-0.2905-0.19483-0.10248-0.03975-0.44458-0.03355-0.56529-0.02279zm0.82114 0.12263c0.33918-0.03036 0.28047-0.12336 0.47485-0.14068 0.09391-0.03319 0.24436 0.0026 0.34411 0.01806l-0.0135 0.09929c0.20425 0.07987 0.19147-0.04167 0.34209-0.0062 0.15336 0.0599 0.24727 0.2479 0.50019 0.32314 0.10175 0.04012 0.15336 0.0599 0.24527 0.0027 0.05854 0.09291 0.08334 0.09081 0.18017 0.08197 0.0113-0.12363 0.08115-0.15454 0.04869-0.2252-0.03173-0.07084-0.28756-0.1705-0.30945 0.07695-0.08625-0.11516-0.0403-0.14379-0.07203-0.21427-0.08625-0.11516-0.25858-0.12418-0.37747-0.08899-0.05015-0.24081-0.01824-0.17014-0.35395-0.33617-0.10522-0.06419-0.33626-0.16612-0.46063-0.17953-0.1477-0.0113-0.18582 0.09026-0.30179 0.1498-0.06492 0.07951-0.1406 0.06164-0.2077 0.1168-0.0651 0.07932-0.04942 0.22522-0.03884 0.32241zm5.1244-1.0732 0.30672 0.34063c0.11525 0.16129 0.23031 0.32276 0.36745 0.45753 0.10741 0.08853 0.26077 0.14844 0.40354 0.11114 0.09464-0.0331 0.38076-0.32861 0.14698-0.45487-0.07786-0.04194-0.19439 0.0175-0.26643 0.02398 0.0057-0.17223-0.0049-0.26943-0.04741-0.43738-0.0049-0.0486-0.0155-0.1457-0.11032-0.11269-0.1158 0.05954 0.02061 0.41512-0.16248 0.30891l-0.07768-0.04203-0.0806-0.06638c-0.0868 0.10576 0.0155 0.1457 0.09902 0.23632 0.1074 0.08872 0.19002 0.17934 0.20624 0.32504-0.26349-0.17278-0.27899-0.3183-0.4486-0.52391-0.10959-0.11288-0.1902-0.17934-0.33645-0.16631zm1.0522-0.24144c0.06638 0.16567 0.3264 0.53492 0.50458 0.59246-0.1209-0.20988-0.27627-0.51496-0.50458-0.59246zm-17.954 1.7826c0.07276-0.0065 0.16995-0.01522 0.21827-0.0196l0.63249 0.18856c0.17524 0.03337 0.34765 0.04249 0.46281 0.20378-0.3152 0.02845-0.248-0.02681-0.4982-0.07787-0.22329-0.02899-0.29113 0.02617-0.46354 0.01696-0.09966-0.01559-0.15053-0.03547-0.22611-0.05316l-0.64935 0.10722c-0.17242-0.009-0.20988-0.12829-0.31236-0.16822-0.10458-0.06428-0.19922-0.03127-0.29113 0.02617-0.16394 0.06383-0.32358 0.17615-0.48296 0.28867-0.29714 0.19821-0.63979 0.42533-0.8536 0.71437-0.14871 0.20953-0.1116 0.32896-0.2604 0.53849-0.15117 0.18527-0.49956 0.36371-0.73489 0.67936-0.17059 0.23606-0.15509 0.38175-0.21974 0.46126-0.04349 0.05279-0.3431 0.22703-0.4134 0.25776-0.06993 0.03073-0.14269 0.03729-0.18865 0.0661-0.06747 0.05507-0.10814 0.1323-0.14907 0.20962l-0.24025 0.26678c-0.06218 0.10367-0.31447 0.49428-0.32823 0.59375-0.006 0.17223 0.27171 0.24553 0.12509 0.47941-0.02161 0.02635-0.04313 0.05288-0.06474 0.07951-0.15929 0.11233-0.20204-0.05562-0.32568-0.06902-0.1509-0.03556-0.3752 0.15628-0.50949 0.04568-0.08334-0.09063-0.04769-0.21636-0.0579-0.31365-0.03748-0.11926-0.09118-0.16348-0.12582-0.25849-0.06182-0.11734-0.01268-0.34256-0.18445-0.5724-0.08826-0.13913-0.19037-0.17907-0.26915-0.000089l-0.05726 0.15208c-0.0961-0.21198-0.04176-0.38868-0.217-0.42223-0.2232-0.02881-0.29141 0.24717-0.42141 0.40591-0.32441 0.39717-0.37839 0.35294-0.62683 0.54678l-0.3296 0.34857-0.20561 0.14114c-0.1106 0.10804-0.18408 0.33544-0.24098 0.4877l-0.23778 0.97815c-0.05197 0.20068-0.13923 0.52783-0.35221 0.59565-0.07002 0.03073-0.29113 0.02617-0.36644 0.0085-0.07805-0.04203-0.13421-0.11051-0.20953-0.12856-0.07276 0.0067-0.26706 0.02398-0.44722-0.05799-0.1074-0.08826-0.24945-0.27197-0.35195-0.31154-0.10212-0.0403-0.19922-0.03146-0.29604-0.02261-0.12154 0.01057-0.29113 0.02608-0.39079 0.01057-0.25293-0.0754-0.41622-0.45332-0.51231-0.66551-0.03456-0.09501-0.09893-0.23651-0.17697-0.27854-0.10741-0.08853-0.23705 0.0703-0.36352 0.03264-0.09966-0.01569-0.32013-0.24107-0.44905-0.30325-0.0269-0.02215-0.10777-0.08835-0.15336-0.05972-0.04842 0.0042-0.06255 0.10385-0.08133 0.15436-0.0035 0.19666 0.0506 0.24081 0.16293 0.37802 0.0268 0.02197 0.11023 0.11279 0.0424 0.16786-0.11306 0.0837-0.27627-0.29414-0.40345-0.11096-0.01915 0.05088-0.01632 0.07513-0.0382 0.10139l-0.04841 0.0045-0.11725-0.40647-0.01806-0.17014-0.16321-0.37783-0.19995 0.18964-0.04778-0.21655-0.06674-0.16567c-0.03747-0.11926-0.13421-0.1106-0.22611-0.05343-0.18089 0.13904-0.30599 0.34648-0.41904 0.43017-0.13777 0.08607-0.24271 0.02179-0.33699 0.0548-0.11589 0.05954-0.19722 0.2139-0.23287 0.3399l-0.18655 0.99792c-0.16147 0.7751-0.2646 0.95598-0.17561 1.7821l0.0982 0.45724 0.09227 0.62958 0.08233 0.31156 0.04869-0.0046c-0.03392-0.31584-0.02398-0.90557 0.06574-1.2079 0.08762-0.3265 0.22759-0.38832 0.23461-0.78156l0.05799 0.3141c0.13248-0.13503 0.12218-0.23214 0.30809-0.32222 0.06182 0.11689 0.08862 0.13923 0.12856 0.28301 0.03747 0.11899 0.04769 0.21618 0.1095 0.33352 0.06154 0.11689 0.11242 0.13704 0.17141 0.22994 0.05653 0.0682 0.09364 0.18764 0.12819 0.28265 0.0672 0.16576 0.12017 0.43108 0.32185 0.48652 0.07887-0.1788 0.05553-0.39744 0.05835-0.59419 0.01906-0.05088 0.0279-0.19859 0.07349-0.22721 0.11871-0.03538 0.16676 0.18126 0.17451 0.25403 0.06929 0.19011 0.11981 0.43108 0.23496 0.5921 0.12044 0.21026 0.21519 0.17706 0.37273 0.5063l0.03565-0.12573c0.06683 0.16567-0.01723 0.29604 0.16576 0.40209-0.01057-0.09719-0.03036-0.51231 0.0098-0.58973 0.01915-0.05088 0.09191-0.05726 0.14069-0.06145l0.11306 0.82387c0.01021 0.09719 0.04732 0.21664 0.10385 0.28519 0.13704 0.13494 0.29642 0.02225 0.35787 0.1395l0.09574 0.43282c0.08233 0.31165 0.19722 0.69394 0.32504 0.9766 0.09646 0.21226 0.22475 0.49528 0.38868 0.65219 0.05653 0.06857 0.13959 0.15938 0.23386 0.1261 0.09473-0.03282 0.05726-0.15226 0.07349-0.22712 0.01414-0.09929 0.05972-0.12792 0.07632-0.20314 0.0113-0.12372-0.029-0.26751 0.03319-0.371-0.03246 0.15017 0.01841 0.16995 0.03428 0.31584 0.02088 0.19429 0.06856 0.41094 0.13813 0.60067 0.10394 0.28547 0.18126 0.54798 0.3555 0.80236 0.11552 0.16147 0.38158 0.35822 0.54268 0.49108 0.22047 0.22538 0.43773 0.42679 0.70378 0.62357l0.31729 0.217 0.2635 0.17278c0.23395 0.1261 0.25868-0.09719 0.4042-0.10996 0.07559 0.01768 0.34127 0.21444 0.42188 0.28092 0.40847 0.38048 0.27418 0.26997 0.55608 0.61262l0.63596 0.67873c0.16394 0.15691 0.36745 0.4579 0.59109 0.48652l0.22366 0.02936c0.25018 0.05124 0.53001 0.14871 0.79142 0.07595 0.09719-0.0089 0.16467-0.06364 0.20807-0.11662 0.06473-0.07951 0.10285-0.1809 0.20004-0.18974 0.09956 0.01559 0.33107 0.11734 0.43308 0.15755 0.2583 0.12373 0.62401 0.33636 0.89854 0.38513 0.27481 0.04914 0.47202-0.16494 0.42679-0.35714-0.06929-0.19011-0.3597-0.38476-0.51478-0.68967-0.15017-0.25621-0.25403-0.54131-0.4258-0.77136l-0.39424-0.47976-0.23606-0.37137-0.11516-0.16138c-0.02963-0.04632-0.07203-0.21418-0.07987-0.2873l-0.26988-0.6872c-0.123-0.23423-0.36606-0.21235-0.52363-0.54159 0.11269 0.13704 0.32788 0.3141 0.48087 0.37383-0.0692-0.19011-0.22439-0.495-0.3399-0.65647l-0.24689-0.24767c0.13421 0.1105 0.24161 0.19922 0.41686 0.2324l0.05161-0.20105c0.07632-0.20314 0.14625-0.23386 0.14451-0.47904-0.02015-0.41512-0.40354-1.0186-0.45825-1.5288-0.0237-0.21874 0.02544-0.44376 0.05051-0.66668l0.0067-0.39325c-0.0078-0.07285 0.03529-0.12619 0.04942-0.22512l-0.0046-0.26953c0.03283-0.15017 0.05188-0.20105 0.03638-0.34702l-0.11734-0.40629-0.007-0.29395-0.04203-0.3886c-0.03146-0.29148 0.12537-0.42825 0.15299-0.62683 0.01414-0.09956-0.11169-0.35824-0.16576-0.40237-0.07805-0.04203-0.2448-0.0025-0.18545-0.13038 0.05972-0.12792 0.27981 0.09747 0.33636 0.16603 0.07066-0.25156 0.01696-0.29604-0.03073-0.5125l-0.09227-0.62958c-0.0424-0.16795-0.1498-0.25631-0.15792-0.32924 0.0166-0.07513 0.08935-0.08169 0.17561-0.18746 0.08689-0.10595 0.12227-0.23177 0.13357-0.3554l0.0042-0.41749c0.02726-0.19868 0.19502-0.45908 0.40847-0.52727 0.21554-0.04376 0.43564 0.18162 0.55681 0.17086 0.12154-0.01104 0.18089-0.13886 0.22184-0.21627l0.27982-0.81011 0.04878-0.0045c0.12044 0.21026 0.24701 0.24783 0.41056 0.40492l0.13986 0.15919c0.0269 0.02206 0.07285-0.0066 0.11871-0.03519 0.08625-0.10586 0.19011-0.50768 0.12865-0.62484-0.03465-0.09501-0.14205-0.18354-0.17953-0.3028-0.0077-0.07294 0.03292-0.15017 0.07349-0.22731 0.05726-0.15245 0.08735-0.32687 0.19786-0.43491 0.21909-0.24043 0.65574-0.27972 0.92179-0.0827 0.13467 0.1106 0.11771 0.18564 0.17424 0.2542 0.08333 0.09063 0.20451 0.07987 0.24445 0.22348 0.0053 0.0486-0.0057 0.17223-0.02225 0.24727 0.01587 0.14579 0.04486 0.1922-0.01204 0.34446-0.08124 0.15445-0.21618 0.26469-0.27098 0.4413-0.07595 0.20314 0.04805 0.21664 0.01768 0.39098-0.05443 0.1767-0.18692 0.31128-0.24135 0.48789-0.06255 0.10376-0.05188 0.20086-0.16494 0.28465-0.09191 0.05717-0.24025 0.04604-0.33708 0.05471-0.14306 0.03729-0.25647 0.12118-0.37236 0.18062 0.0049 0.04869 0.01022 0.0971 0.03957 0.1436 0.04021 0.1436 0.16147 0.13266 0.27982 0.09747 0.19147-0.04149 0.44513-0.1871 0.6335-0.03228 0.16357 0.15719 0.21336 0.61882 0.35294 0.77792 0.13421 0.1106 0.2314 0.10194 0.38222 0.1375 0.10212 0.03994 0.18026 0.08197 0.26077 0.14835 0.188 0.15473 0.12865 0.28282 0.21409 0.39772 0.0806 0.06619 0.1509 0.03583 0.23395 0.12628l0.35641 0.58116 0.24562-0.21827c0.08334 0.09072 0.18053 0.08188 0.19147-0.04176-0.0077-0.07276-0.04732-0.21618-0.07987-0.28721 0.16394 0.15719 0.17706 0.27873 0.17634 0.49956 0.0053 0.04841-0.01376 0.09929 0.01587 0.14597 0.01031 0.09674 0.12828 0.28265 0.2088 0.34902 0.10494 0.06392 0.17488 0.03319 0.26678-0.02407 0.08406-0.13002 0.13321-0.3554 0.26286-0.51405 0.1085-0.13248 0.32396-0.17624 0.5187-0.41476-0.05088-0.01978-0.20424-0.07951-0.188-0.15473 0.03811-0.10139 0.18372-0.11452 0.27554-0.17187 0.13503-0.11023 0.23816-0.29132 0.26824-0.46556l-0.29651-0.02261-0.17488-0.03337-0.24271 0.02197-0.23879-0.17497-0.34483-0.01815c0.05936-0.12792 0.1003-0.20533 0.2459-0.21836 0.07276-0.0066 0.17488 0.03355 0.22083 0.0049 0.09428-0.03319 0.0837-0.13038 0.15154-0.18545 0.12965-0.15883 0.32076-0.20049 0.34876-0.39927 0.19922 0.03109 0.24271-0.0217 0.34202-0.0062 0.20451 0.07969 0.26814 0.44203 0.36179 0.62993-0.25302-0.0754-0.20533 0.14105-0.21134 0.31328 0.09191-0.05726 0.20004-0.18955 0.29432-0.22266l0.31802-0.004c0.07276-0.0066 0.09428-0.03291 0.16466-0.06382 0.16704-0.03939 0.27728 0.0733 0.36562 0.21254 0.09191-0.05726 0.08662-0.10595 0.02754-0.19876l0.12126-0.01094-0.06929-0.18983c-0.12117 0.01076-0.14844-0.01132-0.18372 0.11443-0.10458-0.0641-0.10458-0.0641-0.22858-0.07759l0.08935-0.08142-0.0057-0.04878c-0.20697-0.10403 0.03045-0.17433 0.06574-0.30024 0.0166-0.07513-0.01268-0.12136-0.0424-0.16786l0.30489-0.12555c0.12965-0.15865 0.23989-0.04595 0.29432-0.22266 0.25018 0.05124 0.16786-0.2603 0.35686-0.3264 0.04559-0.02863 0.12081-0.01076 0.16959-0.01522 0.06993-0.03073 0.13986-0.06145 0.21052-0.09236 0.09683-0.0087 0.14561-0.01285 0.23952-0.04614 0.09191-0.05717 0.17597-0.18736 0.24098-0.26669 0.04313-0.05325 0.13212-0.13467 0.15126-0.18555 0.01623-0.07504-0.01559-0.14552-0.02827-0.26725 0.09957 0.0155 0.17242 0.009 0.2367-0.0703 0.06784-0.05516 0.05726-0.15236-0.04522-0.1922-0.02407 0.0023-0.09683 0.0089-0.12081 0.01094l0.3349-0.29996 0.06574-0.30034-0.09473 0.03301 0.03328-0.15017-0.26715 0.02407c0.04313-0.05297 0.17314-0.21181 0.21627-0.26478 0.11379-0.08379 0.23743-0.0703 0.29468-0.22284-0.23961 0.04613-0.5342 0.26878-0.68547 0.45405l-0.23606 0.31546 0.01423-0.09929c-0.23743 0.07048-0.22193 0.21627-0.31384 0.27352l-0.04586 0.02854c0.07276-0.0065-0.41476 0.01277-0.33918 0.03064-0.124-0.0135-0.2583-0.124-0.36571-0.21272-0.08087-0.06629-0.13676-0.13476-0.22858-0.07741l-0.45433-0.35167c0.04304-0.05297 0.06501-0.07951 0.0113-0.12382-0.0537-0.04422-0.18016-0.08197-0.2851-0.14616-0.18837-0.15473-0.17953-0.3028-0.20324-0.52144-0.02042-0.19429-0.04522-0.1922-0.1116-0.35796-0.03218-0.07085-0.03747-0.11935-0.094-0.18792-0.05617-0.06856-0.18792-0.15473-0.26852-0.2212-0.1074-0.08835-0.24161-0.19904-0.36562-0.21254-0.17488-0.03319-0.30992 0.07704-0.46107 0.04139-0.12646-0.03766-0.29012-0.19467-0.44339-0.25457-0.09966-0.01559-0.22083-0.0046-0.31802 0.004-0.0053-0.0486-0.01587-0.1457-0.06674-0.16567-0.07778-0.04203-0.21836 0.0196-0.3152 0.02826-0.0971 0.0087-0.12929-0.062-0.20451-0.07987-0.07531-0.01768-0.41768-0.01148-0.46107 0.0414-0.04595 0.02872-0.0135 0.09938-0.0085 0.14798zm17.334-2.5365c0.19859 0.25201 0.55326 0.58818 0.85214 0.63505-0.08826-0.13941-0.16394-0.15701-0.27134-0.24553-0.15828-0.1085-0.42744-0.32969-0.5808-0.3895zm-1.9418-0.97869-0.06145-0.11716c0.10248 0.03975 0.20497 0.07969 0.26368 0.1726 0.03173 0.07066 0.03738 0.11926 0.04522 0.1922 0.0155 0.14579 0.27061 0.46638 0.41831 0.47749 0.05142 0.01997 0.04869-0.0042 0.09738-0.0087l-0.1251-0.47941c-0.05653-0.06857-0.12637-0.03766-0.2097-0.12829l-0.50458-0.59264c-0.02972-0.0465-0.14205-0.18354-0.12582-0.25849 0.04304-0.05297 0.16467-0.06391 0.21336-0.06811l-0.462-0.426c-0.05379-0.04431-0.13713-0.13494-0.23177-0.10194-0.09409 0.03301-0.12947 0.15883-0.1705 0.23597-0.0403 0.07741-0.10522 0.15673-0.09756 0.22968 0.03465 0.0951 0.14497 0.20779 0.20096 0.27627l0.43036 0.35385c0.11014 0.11288 0.16594 0.18144 0.31931 0.24135zm6.2883-0.04915c-0.06364-0.36233-0.29686-0.70926-0.57022-0.97906l-0.43036-0.35395c-0.16612-0.18126-0.34556-0.48406-0.5901-0.70754-0.26842-0.2212-0.47047-0.27662-0.70935-0.45151l-0.40629-0.35613-0.72504-0.59729c-0.188-0.15473-0.41122-0.40474-0.55326-0.58809-0.14497-0.20789-0.10394-0.28512-0.18727-0.37574-0.05653-0.06856-0.26077-0.14844-0.36033-0.16394l0.03811-0.10157-0.18016-0.08197c0.10029-0.20523-0.0403-0.1436-0.18236-0.32696-0.05653-0.06856-0.06637-0.16594-0.15536-0.30508-0.13932-0.1592-0.32513-0.28977-0.5075-0.39589l-0.88459-0.48497c-0.28557-0.14606-0.67581-0.3565-0.99583-0.37675-0.24527-0.0026-0.40209 0.13421-0.64243 0.18017-0.21536 0.04395-0.6811 0.03674-0.83026 0.24626-0.15117 0.18527 0.22759 0.51933 0.3647 0.65428l0.38367 0.38248c0.11032 0.11288 0.14205 0.18354 0.25438 0.32058 0.10814 0.08853 0.31729 0.217 0.40354 0.33178 0.08552 0.11498-0.05726 0.15245 0.05781 0.31374 0.08844 0.13923 0.30398 0.31621 0.36836 0.45771 0.03465 0.09501 0.05015 0.24081 0.13075 0.30726 0.07768 0.04203 0.16959-0.01541 0.24234-0.02197 0.11871-0.0351 0.4672-0.21354 0.57167-0.14926 0.10467 0.0641 0.46208 0.42451 0.54561 0.51534 0.05361 0.04413 0.16321 0.15682 0.14698 0.23214 0.01331 0.12136-0.3689-0.01613-0.27772 0.14743 0.02954 0.0465 0.26349 0.1726 0.3441 0.23907l0.29815 0.2676 0.34629 0.26323c0.0806 0.06647 0.16886 0.20561 0.24727 0.24773 0.15336 0.05981 0.23177-0.11889 0.36397-0.03273 0.25786 0.124 0.44294 0.47558 0.71155 0.69669 0.18235 0.10622 0.22813 0.07759 0.38149 0.1375 0.12929 0.062 0.2128 0.15263 0.34411 0.23898 0.20716 0.10403 0.22411 0.029 0.46572 0.22813 0.32222 0.26532 0.59647 0.5352 0.87274 0.82934 0.11014 0.11269 0.38149 0.35824 0.50804 0.39589 0.02407-0.0021 0.04796-0.0042 0.07276-0.0065l0.27772-0.14752s0.0248-0.0024 0.02188-0.02653c0.01623-0.07504 0.0057-0.17223 0.02188-0.24736 0.01696-0.07504 0.06291-0.10367 0.07641-0.20314 0.01623-0.07486 0.000747-0.22083 0.07057-0.25156 0.07075-0.03091 0.20496 0.07969 0.25584 0.09966zm-5.9156-6.3189c-0.01057-0.09719-0.03738-0.11926-0.07203-0.21427-0.14497-0.20779-0.306-0.34045-0.53502-0.41822-0.07476-0.01759-0.30088-0.07103-0.3419 0.0062-0.06218 0.10367 0.20131 0.27645 0.27899 0.31849 0.0806 0.06629 0.18308 0.10622 0.26368 0.17269 0.15609 0.08407 0.23104 0.10184 0.40629 0.13512zm-9.5008-2.041c0.32086 0.02015 0.44165 0.0094 0.74828 0.12892 0.27982 0.09756 0.44376 0.25457 0.7646 0.2749l-0.3597-0.38478 0.20496-0.14096c-0.1074-0.08853-0.15546-0.08425-0.26077-0.14834-0.0537-0.04422-0.05863-0.09291-0.11233-0.13713-0.04878 0.0045-0.17032 0.01522-0.21836 0.0196-0.14342 0.03729-0.2615 0.07267-0.42606 0.1364-0.14351 0.03729-0.33425 0.07896-0.34063 0.25138zm1.4705-0.67161c-0.03538 0.12573-0.15409 0.16093-0.26779 0.24464 0.02681 0.02206 0.02963 0.0465 0.05653 0.06856 0.07841 0.04203 0.47694 0.1044 0.5766 0.12008 0.24518 0.0026 0.25365-0.14534 0.54195-0.19584l0.36106-0.05689c0.33918-0.03055 0.80272-0.04751 1.1052-0.1973-0.11516-0.16129-0.18792-0.155-0.36534-0.21254-0.27763-0.0733-0.57378-0.09573-0.85705 0.0032-0.2615 0.07258-0.25093 0.16977-0.59074 0.20032l-0.56038 0.0258zm-5.1513 41.577c-5.6643-1.2094 1.1522 0.23999 0 0z"/>
 </g>
 <rect opacity=".1" clip-path="url(#az)" rx="12" ry="12" height="66" filter="url(#bg)" width="66" stroke="#fff" stroke-linecap="round" y="15" x="15" stroke-width=".5" fill="url(#ay)"/>
 <path opacity=".4" d="m118.38 11.031c-0.52336-0.06895-1.0579-0.0102-1.5625 0.125-1.0064 0.26967-1.8855 0.91897-2.4375 1.875l-2.0625 3.5625a1.0492 1.0492 0 0 0 -0.84375 0.53125l-9.5 16.469-36 62.344a1.0492 1.0492 0 0 0 -0.09375 0.25l-6.386 24.032a1.0492 1.0492 0 0 0 1.75 1.03l17.625-17.53a1.0492 1.0492 0 0 0 0.156 -0.22l36-62.344 9.5-16.469a1.0492 1.0492 0 0 0 0.0625 -0.90625l2.0938-3.625c1.1113-1.9248 0.4576-4.4191-1.4688-5.5312l-5.31-3.063c-0.47927-0.2767-1.0079-0.4623-1.5312-0.53125z" transform="matrix(.71418 .12539 -.12539 .71418 2.6569 -15.448)" filter="url(#k)" fill="url(#bh)"/>
 <path opacity=".5" d="m118.38 11.031c-0.52336-0.06895-1.0579-0.0102-1.5625 0.125-1.0064 0.26967-1.8855 0.91897-2.4375 1.875l-2.0625 3.5625a1.0492 1.0492 0 0 0 -0.84375 0.53125l-9.5 16.469-36 62.344a1.0492 1.0492 0 0 0 -0.09375 0.25l-6.386 24.032a1.0492 1.0492 0 0 0 1.75 1.03l17.625-17.53a1.0492 1.0492 0 0 0 0.156 -0.22l36-62.344 9.5-16.469a1.0492 1.0492 0 0 0 0.0625 -0.90625l2.0938-3.625c1.1113-1.9248 0.4576-4.4191-1.4688-5.5312l-5.31-3.063c-0.47927-0.2767-1.0079-0.4623-1.5312-0.53125z" transform="matrix(.62741 .3635 -.3635 .62741 36.873 -19.139)" filter="url(#k)" fill="url(#p)"/>
 <rect stroke-linejoin="round" transform="matrix(-.86602 -0.5 0.5 -.86602 0 0)" rx="2.1753" ry="2.1753" height="11.602" width="8.7853" stroke="#df453f" y="24.368" x="-70.557" stroke-width=".99998" fill="url(#w)"/>
 <path opacity=".3" d="m141.24 118.19a1.5468 3.9775 0 1 1 -3.0936 0 1.5468 3.9775 0 1 1 3.0936 0z" transform="matrix(-1.1841 -.68366 .36255 -.62795 197.14 177.31)" filter="url(#be)" fill="#701300"/>
 <path opacity=".8" d="m146.31 113.12c-0.85193 9.5067-3.9375 8.3125-6.5 8.9375 4.0763 0.0625 8.625-0.0625 8.625-0.0625-2.4375-0.5625-1.8125-2.375-2.125-8.875z" fill-rule="evenodd" transform="matrix(-.62795 -.36255 .36255 -.62795 120.29 131.31)" filter="url(#bf)" fill="#fff"/>
 <rect opacity=".2" transform="matrix(-.86602 -0.5 0.5 -.86602 0 0)" height=".72510" width="8.7874" y="30.517" x="-70.919" fill="url(#x)"/>
 <path stroke-linejoin="round" d="m43.455 66.436-12.783 12.714 4.6195-17.427 26.104-45.212 8.1634 4.7132-26.104 45.212z" stroke="url(#y)" stroke-width=".99998" fill="url(#z)"/>
 <path fill="url(#aa)" d="m34.41 74.968-1.9654-1.1532-1.106 4.2103" fill-rule="evenodd"/>
 <path fill="url(#ab)" d="m34.391 74.942 7.4104-7.368s0.89322-0.86872 1.3839-1.3848c0.35294-0.33399-0.64592-1.722-2.4784-0.08432 0.87333-3.275-2.2549-4.1804-3.7563-2.178 0.40181-1.1926-0.0319-2.4884-1.3249-2.0392-0.18203 0.65576-0.27772 1.1139-0.27772 1.1139l-2.8842 10.828 1.9287 1.1136z" fill-rule="evenodd"/>
 <path opacity=".5" d="m63.46 17.866-24.37 42.209" stroke="url(#ac)" stroke-width=".99998px" fill="none"/>
 <path opacity=".5" d="m67.303 20.084-24.369 42.209" stroke="url(#ad)" stroke-width=".99998px" fill="none"/>
 <path opacity=".4" d="m118.7 5.9799-4.773 17.899 1.9887-0.83969 2.7842-17.059z" fill-rule="evenodd" transform="matrix(-.62795 -.36255 .36255 -.62795 105.39 122.71)" filter="url(#ba)" fill="#ac4311"/>
 <path opacity=".15" d="m43.306 66.245s-0.29371-1.6473-2.596-0.21677c0.64749-4.0218-2.4889-3.1845-3.7398-2.133 0.38283-2.6571-1.4412-2.0356-1.4412-2.0356" stroke="#4d2600" stroke-width=".99998px" fill="none"/>
 <path opacity=".8" d="m144.06 8.9375-0.375 12.5 3.0625-0.3125l-2.68-12.189z" fill-rule="evenodd" transform="matrix(-.70481 -.40693 .48763 -.84459 129.84 140.82)" filter="url(#bb)" fill="#fff"/>
 <rect stroke-linejoin="round" transform="matrix(-.86602 -0.5 0.5 -.86602 0 0)" height="13.777" width="9.4262" stroke="url(#ae)" y="16.4" x="-70.854" stroke-width=".99998" fill="url(#af)"/>
 <rect opacity=".4" transform="matrix(-.86602 -0.5 0.5 -.86602 0 0)" height=".72510" width="8.7011" y="18.937" x="-70.491" fill="url(#ah)"/>
 <rect opacity=".6" transform="matrix(-.86602 -0.5 0.5 -.86602 0 0)" height=".72510" width="8.7011" y="19.662" x="-70.491" fill="url(#ap)"/>
 <rect opacity=".4" transform="matrix(-.86602 -0.5 0.5 -.86602 0 0)" height=".72510" width="8.7011" y="20.388" x="-70.491" fill="url(#ar)"/>
 <rect opacity=".6" transform="matrix(-.86602 -0.5 0.5 -.86602 0 0)" height=".72510" width="8.7011" y="21.113" x="-70.491" fill="url(#as)"/>
 <rect opacity=".4" transform="matrix(-.86602 -0.5 0.5 -.86602 0 0)" height=".72510" width="8.7011" y="24.738" x="-70.491" fill="url(#at)"/>
 <rect opacity=".6" transform="matrix(-.86602 -0.5 0.5 -.86602 0 0)" height=".72510" width="8.7011" y="25.463" x="-70.491" fill="url(#au)"/>
 <rect opacity=".4" transform="matrix(-.86602 -0.5 0.5 -.86602 0 0)" height=".72510" width="8.7011" y="26.188" x="-70.491" fill="url(#av)"/>
 <rect opacity=".6" transform="matrix(-.86602 -0.5 0.5 -.86602 0 0)" height=".72510" width="8.7011" y="26.913" x="-70.491" fill="url(#aw)"/>
 <rect opacity=".3" transform="matrix(-.86602 -0.5 0.5 -.86602 0 0)" height="2.9004" width="8.7011" y="21.838" x="-70.491" fill="url(#ax)"/>
 <path opacity=".6" d="m140 106.08a1.1013 8.3969 0 1 1 -2.2026 0 1.1013 8.3969 0 1 1 2.2026 0z" transform="matrix(-.78833 -.45515 .36255 -.62795 142.74 144.27)" filter="url(#bc)"/>
 <path opacity=".8" d="m147.34 106.04a1.1932 8.0878 0 1 1 -2.3865 0 1.1932 8.0878 0 1 1 2.3865 0z" transform="matrix(-.62795 -.36255 .36255 -.62795 120.29 131.31)" filter="url(#bd)" fill="#fff"/>
</svg>
