<?xml version="1.0" encoding="UTF-8" standalone="no"?>
<!-- Created with Inkscape (http://www.inkscape.org/) -->

<svg
   xmlns:dc="http://purl.org/dc/elements/1.1/"
   xmlns:cc="http://creativecommons.org/ns#"
   xmlns:rdf="http://www.w3.org/1999/02/22-rdf-syntax-ns#"
   xmlns:svg="http://www.w3.org/2000/svg"
   xmlns="http://www.w3.org/2000/svg"
   xmlns:xlink="http://www.w3.org/1999/xlink"
   xmlns:sodipodi="http://sodipodi.sourceforge.net/DTD/sodipodi-0.dtd"
   xmlns:inkscape="http://www.inkscape.org/namespaces/inkscape"
   version="1.0"
   width="96"
   height="96"
   id="svg2408"
   inkscape:version="0.48.4 r9939"
   sodipodi:docname="monodevelop.svg">
  <sodipodi:namedview
     pagecolor="#ffffff"
     bordercolor="#666666"
     borderopacity="1"
     objecttolerance="10"
     gridtolerance="10"
     guidetolerance="10"
     inkscape:pageopacity="0"
     inkscape:pageshadow="2"
     inkscape:window-width="1920"
     inkscape:window-height="1150"
     id="namedview68"
     showgrid="false"
     inkscape:zoom="2.4583333"
     inkscape:cx="48"
     inkscape:cy="48"
     inkscape:window-x="0"
     inkscape:window-y="0"
     inkscape:window-maximized="1"
     inkscape:current-layer="svg2408" />
  <defs
     id="defs2410">
    <linearGradient
       id="linearGradient3744">
      <stop
         id="stop3746"
         style="stop-color:#6189bb;stop-opacity:1"
         offset="0" />
      <stop
         id="stop3748"
         style="stop-color:#b6cce9;stop-opacity:1"
         offset="1" />
    </linearGradient>
    <linearGradient
       x1="45.447727"
       y1="92.539597"
       x2="45.447727"
       y2="7.0165396"
       id="ButtonShadow"
       gradientUnits="userSpaceOnUse"
       gradientTransform="scale(1.0058652,0.994169)">
      <stop
         id="stop3750"
         style="stop-color:#000000;stop-opacity:1"
         offset="0" />
      <stop
         id="stop3752"
         style="stop-color:#000000;stop-opacity:0.58823532"
         offset="1" />
    </linearGradient>
    <linearGradient
       id="linearGradient3737">
      <stop
         id="stop3739"
         style="stop-color:#ffffff;stop-opacity:1"
         offset="0" />
      <stop
         id="stop3741"
         style="stop-color:#ffffff;stop-opacity:0"
         offset="1" />
    </linearGradient>
    <filter
       color-interpolation-filters="sRGB"
       id="filter3174">
      <feGaussianBlur
         id="feGaussianBlur3176"
         stdDeviation="1.71" />
    </filter>
    <linearGradient
       x1="36.357143"
       y1="6"
       x2="36.357143"
       y2="63.893143"
       id="linearGradient3188"
       xlink:href="#linearGradient3737"
       gradientUnits="userSpaceOnUse" />
    <filter
       x="-0.192"
       y="-0.192"
       width="1.3839999"
       height="1.3839999"
       color-interpolation-filters="sRGB"
       id="filter3794">
      <feGaussianBlur
         id="feGaussianBlur3796"
         stdDeviation="5.28" />
    </filter>
    <linearGradient
       x1="48"
       y1="20.220806"
       x2="48"
       y2="138.66119"
       id="linearGradient3613"
       xlink:href="#linearGradient3737"
       gradientUnits="userSpaceOnUse" />
    <radialGradient
       cx="48"
       cy="90.171875"
       r="42"
       fx="48"
       fy="90.171875"
       id="radialGradient3619"
       xlink:href="#linearGradient3737"
       gradientUnits="userSpaceOnUse"
       gradientTransform="matrix(1.1573129,0,0,0.99590774,-7.5510206,0.19713193)" />
    <clipPath
       id="clipPath3613">
      <rect
         width="84"
         height="84"
         rx="6"
         ry="6"
         x="6"
         y="6"
         id="rect3615"
         style="fill:#ffffff;fill-opacity:1;fill-rule:nonzero;stroke:none" />
    </clipPath>
    <linearGradient
       x1="48"
       y1="90"
       x2="48"
       y2="5.9877172"
       id="linearGradient3617"
       xlink:href="#linearGradient3744"
       gradientUnits="userSpaceOnUse" />
    <linearGradient
       x1="45.447727"
       y1="92.539597"
       x2="45.447727"
       y2="7.0165396"
       id="ButtonShadow-0"
       gradientUnits="userSpaceOnUse"
       gradientTransform="matrix(1.0058652,0,0,0.994169,100,0)">
      <stop
         id="stop3750-8"
         style="stop-color:#000000;stop-opacity:1"
         offset="0" />
      <stop
         id="stop3752-5"
         style="stop-color:#000000;stop-opacity:0.58823532"
         offset="1" />
    </linearGradient>
    <linearGradient
       x1="32.251034"
       y1="6.1317081"
       x2="32.251034"
       y2="90.238609"
       id="linearGradient3780"
       xlink:href="#ButtonShadow-0"
       gradientUnits="userSpaceOnUse"
       gradientTransform="matrix(1.0238095,0,0,1.0119048,-1.1428571,-98.071429)" />
    <linearGradient
       x1="32.251034"
       y1="6.1317081"
       x2="32.251034"
       y2="90.238609"
       id="linearGradient3772"
       xlink:href="#ButtonShadow-0"
       gradientUnits="userSpaceOnUse"
       gradientTransform="matrix(1.0238095,0,0,1.0119048,-1.1428571,-98.071429)" />
    <linearGradient
       x1="32.251034"
       y1="6.1317081"
       x2="32.251034"
       y2="90.238609"
       id="linearGradient3725"
       xlink:href="#ButtonShadow-0"
       gradientUnits="userSpaceOnUse"
       gradientTransform="matrix(1.0238095,0,0,1.0119048,-1.1428571,-98.071429)" />
    <linearGradient
       x1="32.251034"
       y1="6.1317081"
       x2="32.251034"
       y2="90.238609"
       id="linearGradient3721"
       xlink:href="#ButtonShadow-0"
       gradientUnits="userSpaceOnUse"
       gradientTransform="translate(0,-97)" />
    <linearGradient
       x1="32.251034"
       y1="6.1317081"
       x2="32.251034"
       y2="90.238609"
       id="linearGradient3026"
       xlink:href="#ButtonShadow-0"
       gradientUnits="userSpaceOnUse"
       gradientTransform="matrix(1.0238095,0,0,1.0119048,-1.1428571,-98.071429)" />
    <clipPath
       id="clipPath3939">
      <path
         d="m 71.96875,20 c -4.31369,1.765545 -18.15511,7.512771 -18.5,7.65625 -3.87007,-3.150175 -8.91154,-5.598136 -14.125,-5.875 -12.646312,-0.79267 -24.276266,10.394649 -24.3125,22.8125 -0.555181,11.179767 4.562738,21.528517 9.1875,31.40625 3.869087,-1.608909 17.95778,-7.445809 18.3125,-7.59375 3.79832,3.163745 8.648,5.478371 13.71875,5.84375 12.44374,1.040719 24.02407,-9.655493 24.65625,-21.78125 0.90325,-11.34272 -4.34426,-21.857746 -8.75,-32 C 72.09205,20.31052 72.03275,20.158246 71.96875,20 z m -34.25,7.3125 c 9.1497,-0.0011 17.20052,7.683466 17.625,14.0625 0.35572,5.345489 -1.411472,12.956485 -10.15625,13.96875 0.323717,0.862924 0.769457,1.770109 1.40625,2.65625 L 41.5,58 c -0.414177,-0.963437 -0.667923,-1.931712 -0.78125,-2.875 -4.223212,-1.121554 -7.97654,-5.098816 -8,-10.625 -0.03,-7.05132 8.82761,-7.732626 11.0625,-5.9375 0.86811,0.6973 0.83057,2.061607 0.0625,1.8125 -4.771791,-1.54858 -7.718924,1.526099 -7.5,4.5625 0.228202,3.163498 1.729509,5.344922 4.40625,6.28125 C 40.879081,50.143407 41.104866,49.054163 41.46875,48 l 4.3125,0 c -0.716657,1.252471 -1.077422,2.609534 -1.1875,3.6875 5.441954,-0.419155 6.996019,-5.969325 6.84375,-8.3125 -0.197,-3.033212 -2.84006,-9.297777 -11.09375,-10.4375 -3.897197,-0.537566 -7.109473,0.626374 -9.46875,2.90625 -2.359231,2.280077 -3.712465,4.663674 -3.90625,8.53125 -0.200416,4.000368 0.693285,6.345255 3.09375,11.59375 0.857436,1.874456 3.238989,5.650541 5.09375,9.4375 L 27.125,68.75 C 24.395973,62.165489 20.767922,56.378596 20.6875,45.625 20.60442,34.514732 30.161498,27.313359 37.71875,27.3125 z"
         inkscape:connector-curvature="0"
         id="path3941"
         style="opacity:0.47186148;fill:#00ffff;fill-opacity:1;fill-rule:evenodd;stroke:none" />
    </clipPath>
    <linearGradient
       id="linearGradient7985">
      <stop
         id="stop7991"
         style="stop-color:#42699a;stop-opacity:1"
         offset="0" />
      <stop
         id="stop7989"
         style="stop-color:#99b8e1;stop-opacity:1"
         offset="1" />
    </linearGradient>
    <linearGradient
       x1="2128.5525"
       y1="15026.778"
       x2="2128.5525"
       y2="14844.775"
       id="linearGradient2983"
       xlink:href="#linearGradient7985"
       gradientUnits="userSpaceOnUse"
       gradientTransform="matrix(-0.25635421,0,0,0.25321235,593.66341,-3728.0457)" />
    <linearGradient
       x1="56"
       y1="16"
       x2="56"
       y2="80"
       id="linearGradient3111"
       xlink:href="#linearGradient3853-5"
       gradientUnits="userSpaceOnUse"
       gradientTransform="matrix(1.2846733,0,0,1.309178,-13.106878,-3.9581273)" />
    <linearGradient
       id="linearGradient3853-5">
      <stop
         id="stop3855-0"
         style="stop-color:#000000;stop-opacity:1"
         offset="0" />
      <stop
         id="stop3857-4"
         style="stop-color:#313131;stop-opacity:1"
         offset="1" />
    </linearGradient>
    <linearGradient
       y2="80"
       x2="56"
       y1="16"
       x1="56"
       gradientTransform="matrix(1.2846733,0,0,1.309178,-13.106878,-3.9581273)"
       gradientUnits="userSpaceOnUse"
       id="linearGradient3826"
       xlink:href="#linearGradient3853-5"
       inkscape:collect="always" />
    <linearGradient
       x1="45.62162"
       y1="40.778378"
       x2="45.62162"
       y2="56"
       id="linearGradient4034"
       xlink:href="#linearGradient4028"
       gradientUnits="userSpaceOnUse"
       gradientTransform="matrix(2.1022727,0,0,2.1022727,-47.909089,-53.727272)" />
    <linearGradient
       id="linearGradient4028">
      <stop
         id="stop4030"
         style="stop-color:#000000;stop-opacity:0.80916029"
         offset="0" />
      <stop
         id="stop4032"
         style="stop-color:#000000;stop-opacity:0.4351145"
         offset="1" />
    </linearGradient>
    <clipPath
       id="clipPath4124">
      <path
         d="M 12,6 C 8.676,6 6,8.676 6,12 l 0,72 c 0,3.324 2.676,6 6,6 l 64,0 c 3.324,0 6,-2.676 6,-6 L 82,12 C 82,8.676 79.324,6 76,6 L 12,6 z m 41,26 c 4.743704,0 8.53125,3.572546 8.53125,8 -0.01825,0.53641 -0.02106,1.191497 -0.0625,1.8125 0.702765,0.441929 0.716648,1.927473 0.0625,3.46875 -0.232692,0.54826 -0.496623,0.961126 -0.8125,1.34375 -0.09925,0.462922 -0.122812,0.837373 -0.25,1.375 -0.353893,1.061686 -1.7896,3.18573 -2.84375,4.8125 -0.06772,1.079485 -0.03947,2.185261 0.09375,3.28125 3.292538,2.863076 11.89258,4.362091 11.90625,6.8125 L 69.8125,64 36.1875,64 36.375,62.90625 c -0.01278,-2.863077 8.572836,-4.04691 11.90625,-6.8125 0.231115,-1.347492 0.113438,-2.534285 0,-3.71875 -1.15686,-1.542305 -2.432269,-3.421804 -2.75,-4.375 -0.113856,-0.521158 -0.06413,-0.73154 -0.15625,-1.1875 -0.37917,-0.408095 -0.726944,-0.887885 -1,-1.53125 -0.688569,-1.622398 -0.65495,-3.218212 0.15625,-3.5625 C 44.48626,41.14442 44.47947,40.471466 44.46875,40 c 0,-4.427454 3.78755,-8 8.53125,-8 z"
         inkscape:connector-curvature="0"
         id="path4126"
         style="fill:#ff00ff;fill-opacity:1;fill-rule:nonzero;stroke:none" />
    </clipPath>
    <filter
       x="-0.23416217"
       y="-0.24613637"
       width="1.4683243"
       height="1.4922727"
       color-interpolation-filters="sRGB"
       id="filter4128">
      <feGaussianBlur
         id="feGaussianBlur4130"
         stdDeviation="3.2818182" />
    </filter>
    <linearGradient
       inkscape:collect="always"
       xlink:href="#linearGradient4028"
       id="linearGradient3122"
       gradientUnits="userSpaceOnUse"
       gradientTransform="matrix(2.1022727,0,0,2.1022727,-47.909089,-53.727272)"
       x1="45.62162"
       y1="40.778378"
       x2="45.62162"
       y2="56" />
  </defs>
  <metadata
     id="metadata2413">
    <rdf:RDF>
      <cc:Work
         rdf:about="">
        <dc:format>image/svg+xml</dc:format>
        <dc:type
           rdf:resource="http://purl.org/dc/dcmitype/StillImage" />
        <dc:title></dc:title>
      </cc:Work>
    </rdf:RDF>
  </metadata>
  <g
     id="layer2"
     style="display:none">
    <rect
       width="86"
       height="85"
       rx="6"
       ry="6"
       x="5"
       y="7"
       id="rect3745"
       style="opacity:0.9;fill:url(#ButtonShadow);fill-opacity:1;fill-rule:nonzero;stroke:none;filter:url(#filter3174)" />
  </g>
  <g
     id="layer3">
    <path
       d="m 12,-95.03125 c -5.5110903,0 -10.03125,4.52016 -10.03125,10.03125 l 0,71 c 0,5.5110902 4.5201598,10.03125 10.03125,10.03125 l 72,0 c 5.51109,0 10.03125,-4.5201597 10.03125,-10.03125 l 0,-71 c 0,-5.51109 -4.52016,-10.03125 -10.03125,-10.03125 l -72,0 z"
       transform="scale(1,-1)"
       id="path3786"
       style="opacity:0.07999998;fill:url(#linearGradient3026);fill-opacity:1;fill-rule:nonzero;stroke:none;display:inline" />
    <path
       d="m 12,-94.03125 c -4.971633,0 -9.03125,4.059617 -9.03125,9.03125 l 0,71 c 0,4.9716329 4.0596171,9.03125 9.03125,9.03125 l 72,0 c 4.971633,0 9.03125,-4.059617 9.03125,-9.03125 l 0,-71 c 0,-4.971633 -4.059617,-9.03125 -9.03125,-9.03125 l -72,0 z"
       transform="scale(1,-1)"
       id="path3778"
       style="opacity:0.1;fill:url(#linearGradient3780);fill-opacity:1;fill-rule:nonzero;stroke:none;display:inline" />
    <path
       d="m 12,-93 c -4.4091333,0 -8,3.590867 -8,8 l 0,71 c 0,4.4091333 3.5908667,8 8,8 l 72,0 c 4.409133,0 8,-3.5908667 8,-8 l 0,-71 c 0,-4.409133 -3.590867,-8 -8,-8 l -72,0 z"
       transform="scale(1,-1)"
       id="path3770"
       style="opacity:0.2;fill:url(#linearGradient3772);fill-opacity:1;fill-rule:nonzero;stroke:none;display:inline" />
    <rect
       width="86"
       height="85"
       rx="7"
       ry="7"
       x="5"
       y="-92"
       transform="scale(1,-1)"
       id="rect3723"
       style="opacity:0.3;fill:url(#linearGradient3725);fill-opacity:1;fill-rule:nonzero;stroke:none;display:inline" />
    <rect
       width="84"
       height="84"
       rx="6"
       ry="6"
       x="6"
       y="-91"
       transform="scale(1,-1)"
       id="rect3716"
       style="opacity:0.45;fill:url(#linearGradient3721);fill-opacity:1;fill-rule:nonzero;stroke:none;display:inline" />
  </g>
  <g
     id="layer1">
    <rect
       width="84"
       height="84"
       rx="6"
       ry="6"
       x="6"
       y="6"
       id="rect2419"
       style="fill:url(#linearGradient3617);fill-opacity:1;fill-rule:nonzero;stroke:none" />
    <path
       d="M 12,6 C 8.676,6 6,8.676 6,12 l 0,2 0,68 0,2 c 0,0.334721 0.04135,0.6507 0.09375,0.96875 0.0487,0.295596 0.09704,0.596915 0.1875,0.875 0.00988,0.03038 0.020892,0.0636 0.03125,0.09375 0.098865,0.287771 0.2348802,0.547452 0.375,0.8125 0.1445918,0.273507 0.3156161,0.535615 0.5,0.78125 0.1843839,0.245635 0.3737765,0.473472 0.59375,0.6875 0.439947,0.428056 0.94291,0.814526 1.5,1.09375 0.278545,0.139612 0.5734731,0.246947 0.875,0.34375 -0.2562018,-0.100222 -0.4867109,-0.236272 -0.71875,-0.375 -0.00741,-0.0044 -0.023866,0.0045 -0.03125,0 -0.031933,-0.0193 -0.062293,-0.04251 -0.09375,-0.0625 -0.120395,-0.0767 -0.2310226,-0.163513 -0.34375,-0.25 -0.1061728,-0.0808 -0.2132809,-0.161112 -0.3125,-0.25 C 8.4783201,88.557317 8.3087904,88.373362 8.15625,88.1875 8.0486711,88.057245 7.9378561,87.922215 7.84375,87.78125 7.818661,87.74287 7.805304,87.69538 7.78125,87.65625 7.716487,87.553218 7.6510225,87.451733 7.59375,87.34375 7.4927417,87.149044 7.3880752,86.928049 7.3125,86.71875 7.30454,86.69694 7.288911,86.6782 7.28125,86.65625 7.2494249,86.5643 7.2454455,86.469419 7.21875,86.375 7.1884177,86.268382 7.1483606,86.171969 7.125,86.0625 7.0521214,85.720988 7,85.364295 7,85 L 7,83 7,15 7,13 C 7,10.218152 9.2181517,8 12,8 l 2,0 68,0 2,0 c 2.781848,0 5,2.218152 5,5 l 0,2 0,68 0,2 c 0,0.364295 -0.05212,0.720988 -0.125,1.0625 -0.04415,0.206893 -0.08838,0.397658 -0.15625,0.59375 -0.0077,0.02195 -0.0233,0.04069 -0.03125,0.0625 -0.06274,0.173739 -0.138383,0.367449 -0.21875,0.53125 -0.04158,0.0828 -0.07904,0.169954 -0.125,0.25 -0.0546,0.09721 -0.126774,0.18835 -0.1875,0.28125 -0.09411,0.140965 -0.204921,0.275995 -0.3125,0.40625 -0.143174,0.17445 -0.303141,0.346998 -0.46875,0.5 -0.01117,0.0102 -0.01998,0.02115 -0.03125,0.03125 -0.138386,0.125556 -0.285091,0.234436 -0.4375,0.34375 -0.102571,0.07315 -0.204318,0.153364 -0.3125,0.21875 -0.0074,0.0045 -0.02384,-0.0044 -0.03125,0 -0.232039,0.138728 -0.462548,0.274778 -0.71875,0.375 0.301527,-0.0968 0.596455,-0.204138 0.875,-0.34375 0.55709,-0.279224 1.060053,-0.665694 1.5,-1.09375 0.219973,-0.214028 0.409366,-0.441865 0.59375,-0.6875 0.184384,-0.245635 0.355408,-0.507743 0.5,-0.78125 0.14012,-0.265048 0.276135,-0.524729 0.375,-0.8125 0.01041,-0.03078 0.02133,-0.06274 0.03125,-0.09375 0.09046,-0.278085 0.1388,-0.579404 0.1875,-0.875 C 89.95865,84.6507 90,84.334721 90,84 l 0,-2 0,-68 0,-2 C 90,8.676 87.324,6 84,6 L 12,6 z"
       inkscape:connector-curvature="0"
       id="rect3728"
       style="opacity:0.4;fill:url(#linearGradient3188);fill-opacity:1;fill-rule:nonzero;stroke:none" />
    <path
       d="M 12,90 C 8.676,90 6,87.324 6,84 L 6,82 6,14 6,12 c 0,-0.334721 0.04135,-0.6507 0.09375,-0.96875 0.0487,-0.295596 0.09704,-0.596915 0.1875,-0.875 C 6.29113,10.12587 6.302142,10.09265 6.3125,10.0625 6.411365,9.774729 6.5473802,9.515048 6.6875,9.25 6.8320918,8.976493 7.0031161,8.714385 7.1875,8.46875 7.3718839,8.223115 7.5612765,7.995278 7.78125,7.78125 8.221197,7.353194 8.72416,6.966724 9.28125,6.6875 9.559795,6.547888 9.8547231,6.440553 10.15625,6.34375 9.9000482,6.443972 9.6695391,6.580022 9.4375,6.71875 c -0.00741,0.0044 -0.023866,-0.0045 -0.03125,0 -0.031933,0.0193 -0.062293,0.04251 -0.09375,0.0625 -0.120395,0.0767 -0.2310226,0.163513 -0.34375,0.25 -0.1061728,0.0808 -0.2132809,0.161112 -0.3125,0.25 C 8.4783201,7.442683 8.3087904,7.626638 8.15625,7.8125 8.0486711,7.942755 7.9378561,8.077785 7.84375,8.21875 7.818661,8.25713 7.805304,8.30462 7.78125,8.34375 7.716487,8.446782 7.6510225,8.548267 7.59375,8.65625 7.4927417,8.850956 7.3880752,9.071951 7.3125,9.28125 7.30454,9.30306 7.288911,9.3218 7.28125,9.34375 7.2494249,9.4357 7.2454455,9.530581 7.21875,9.625 7.1884177,9.731618 7.1483606,9.828031 7.125,9.9375 7.0521214,10.279012 7,10.635705 7,11 l 0,2 0,68 0,2 c 0,2.781848 2.2181517,5 5,5 l 2,0 68,0 2,0 c 2.781848,0 5,-2.218152 5,-5 l 0,-2 0,-68 0,-2 C 89,10.635705 88.94788,10.279012 88.875,9.9375 88.83085,9.730607 88.78662,9.539842 88.71875,9.34375 88.71105,9.3218 88.69545,9.30306 88.6875,9.28125 88.62476,9.107511 88.549117,8.913801 88.46875,8.75 88.42717,8.6672 88.38971,8.580046 88.34375,8.5 88.28915,8.40279 88.216976,8.31165 88.15625,8.21875 88.06214,8.077785 87.951329,7.942755 87.84375,7.8125 87.700576,7.63805 87.540609,7.465502 87.375,7.3125 87.36383,7.3023 87.35502,7.29135 87.34375,7.28125 87.205364,7.155694 87.058659,7.046814 86.90625,6.9375 86.803679,6.86435 86.701932,6.784136 86.59375,6.71875 c -0.0074,-0.0045 -0.02384,0.0044 -0.03125,0 -0.232039,-0.138728 -0.462548,-0.274778 -0.71875,-0.375 0.301527,0.0968 0.596455,0.204138 0.875,0.34375 0.55709,0.279224 1.060053,0.665694 1.5,1.09375 0.219973,0.214028 0.409366,0.441865 0.59375,0.6875 0.184384,0.245635 0.355408,0.507743 0.5,0.78125 0.14012,0.265048 0.276135,0.524729 0.375,0.8125 0.01041,0.03078 0.02133,0.06274 0.03125,0.09375 0.09046,0.278085 0.1388,0.579404 0.1875,0.875 C 89.95865,11.3493 90,11.665279 90,12 l 0,2 0,68 0,2 c 0,3.324 -2.676,6 -6,6 l -72,0 z"
       inkscape:connector-curvature="0"
       id="path3615"
       style="opacity:0.2;fill:url(#radialGradient3619);fill-opacity:1;fill-rule:nonzero;stroke:none" />
  </g>
  <g
     id="layer5">
    <rect
       width="66"
       height="66"
       rx="12"
       ry="12"
       x="15"
       y="15"
       clip-path="url(#clipPath3613)"
       id="rect3171"
       style="opacity:0.1;fill:url(#linearGradient3613);fill-opacity:1;fill-rule:nonzero;stroke:#ffffff;stroke-width:0.5;stroke-linecap:round;stroke-linejoin:miter;stroke-miterlimit:4;stroke-opacity:1;stroke-dasharray:none;stroke-dashoffset:0;filter:url(#filter3794)" />
  </g>
  <g
     transform="matrix(1.8197801,0,0,1.8197801,-48.533901,-38.999938)"
     style="display:inline;enable-background:new"
     id="layer3-7">
    <path
       d="m 53,32 c -4.7437,0 -8.545454,3.572545 -8.545454,7.999999 0.01072,0.471466 0.04591,1.152943 0.0909,1.727273 -0.8112,0.344288 -0.870395,1.923056 -0.181826,3.545454 0.273056,0.643365 0.620831,1.137361 1.000001,1.545456 0.09212,0.45596 0.06797,0.66066 0.181826,1.181818 0.317731,0.953196 1.570412,2.821332 2.727272,4.363637 0.113438,1.184465 0.231115,2.379781 0,3.727273 -3.333414,2.76559 -11.921867,3.955104 -11.909091,6.818181 L 36.181819,64 69.818183,64 69.636357,62.909091 c -0.01367,-2.450409 -8.616547,-3.955105 -11.909085,-6.818181 -0.13322,-1.095989 -0.158617,-2.193243 -0.0909,-3.272728 1.05415,-1.62677 2.464287,-3.756496 2.81818,-4.818182 0.127188,-0.537627 0.17348,-0.900715 0.272727,-1.363637 0.315877,-0.382624 0.585491,-0.815377 0.818183,-1.363637 0.654148,-1.541277 0.611865,-3.012616 -0.0909,-3.454545 0.04144,-0.621003 0.07265,-1.281772 0.0909,-1.818182 C 61.545462,35.572545 57.743712,32 53.000008,32 z"
       inkscape:connector-curvature="0"
       id="path3159"
       style="opacity:0.6;fill:url(#linearGradient3122);fill-opacity:1;stroke:none" />
    <path
       d="m 53,32 c -4.7437,0 -8.53125,3.572546 -8.53125,8 0.01072,0.471466 0.01751,1.14442 0.0625,1.71875 -0.8112,0.344288 -0.844819,1.940102 -0.15625,3.5625 0.273056,0.643365 0.62083,1.123155 1,1.53125 0.09212,0.45596 0.04239,0.666342 0.15625,1.1875 0.317731,0.953196 1.59314,2.832695 2.75,4.375 0.113438,1.184465 0.231115,2.371258 0,3.71875 -3.333414,2.76559 -11.919026,3.949423 -11.90625,6.8125 L 36.1875,64 69.8125,64 69.625,62.90625 C 69.61133,60.455841 61.011288,58.956826 57.71875,56.09375 57.58553,54.997761 57.557283,53.891985 57.625,52.8125 58.67915,51.18573 60.114857,49.061686 60.46875,48 c 0.127188,-0.537627 0.150753,-0.912078 0.25,-1.375 0.315877,-0.382624 0.579808,-0.79549 0.8125,-1.34375 0.654148,-1.541277 0.640265,-3.026821 -0.0625,-3.46875 0.04144,-0.621003 0.04425,-1.27609 0.0625,-1.8125 0,-4.427454 -3.787546,-8 -8.53125,-8 z m 0,1.03125 c 4.220895,0 7.481987,3.105191 7.5,6.9375 5e-5,0.01059 0,0.02065 0,0.03125 -0.01822,0.553917 -0.0247,1.183509 -0.0625,1.75 a 1.0181664,1.0181664 0 0 0 0.46875,0.9375 c 0.0046,0.0236 0.08877,0.145393 0.09375,0.46875 0.0066,0.431143 -0.126145,1.058778 -0.40625,1.71875 -0.19634,0.462608 -0.392026,0.773693 -0.65625,1.09375 a 1.0181664,1.0181664 0 0 0 -0.21875,0.4375 c -0.115912,0.540653 -0.140707,0.881767 -0.25,1.34375 -0.126229,0.349982 -0.525694,1.086798 -1.03125,1.90625 -0.521847,0.845859 -1.124435,1.773051 -1.65625,2.59375 a 1.0181664,1.0181664 0 0 0 -0.1875,0.5 c -0.07154,1.140497 -0.01604,2.308449 0.125,3.46875 A 1.0181664,1.0181664 0 0 0 57.0625,56.875 c 1.911078,1.661806 4.929604,2.689595 7.46875,3.71875 1.269573,0.514577 2.403906,1.005018 3.15625,1.46875 0.376172,0.231866 0.643163,0.465199 0.78125,0.625 0.138087,0.159801 0.124951,0.209898 0.125,0.21875 a 1.0181664,1.0181664 0 0 0 0.03125,0.0625 l -31.25,0 a 1.0181664,1.0181664 0 0 0 0.03125,-0.0625 c -9.22e-4,-0.206654 0.173898,-0.554413 0.90625,-1.03125 0.732352,-0.476837 1.863046,-0.97631 3.125,-1.46875 2.523908,-0.984879 5.557672,-1.919784 7.5,-3.53125 a 1.0181664,1.0181664 0 0 0 0.34375,-0.59375 c 0.257685,-1.502404 0.113221,-2.817805 0,-4 A 1.0181664,1.0181664 0 0 0 49.09375,51.75 c -0.567076,-0.756016 -1.172175,-1.591617 -1.65625,-2.34375 -0.460025,-0.714766 -0.791693,-1.320131 -0.90625,-1.625 -0.0047,-0.0215 0.0039,-0.04217 0,-0.0625 C 46.46094,47.356068 46.48696,47.179184 46.375,46.625 a 1.0181664,1.0181664 0 0 0 -0.25,-0.5 c -0.319624,-0.344007 -0.589784,-0.725245 -0.8125,-1.25 -0.295057,-0.69521 -0.422507,-1.370821 -0.40625,-1.8125 0.01219,-0.331259 0.07306,-0.433354 0.0625,-0.4375 a 1.0181664,1.0181664 0 0 0 0.5625,-1 C 45.491242,41.114265 45.510688,40.480932 45.5,40 c 0,-0.0106 -5e-5,-0.02066 0,-0.03125 0.01801,-3.832308 3.279109,-6.9375 7.5,-6.9375 z"
       inkscape:connector-curvature="0"
       id="path4036"
       style="opacity:0.1;fill:#000000;fill-opacity:1;stroke:none" />
    <path
       d="m 53,32 c -4.7437,0 -8.53125,3.572546 -8.53125,8 0.0031,0.137284 0.02434,0.334933 0.03125,0.5 0.277369,-4.189849 3.938918,-7.5 8.5,-7.5 4.572472,0 8.239037,3.326517 8.5,7.53125 0.0075,-0.174615 0.0259,-0.373895 0.03125,-0.53125 0,-4.427454 -3.787546,-8 -8.53125,-8 z m -8.5,9.75 c -0.504215,0.248696 -0.67779,1.002802 -0.5625,1.9375 0.08082,-0.470911 0.26263,-0.828217 0.59375,-0.96875 C 44.505896,42.395085 44.516504,42.084958 44.5,41.75 z m 17,0.09375 c -0.01589,0.329553 -0.0091,0.63686 -0.03125,0.96875 0.282265,0.177501 0.433165,0.521284 0.5,0.96875 C 62.089413,42.889673 61.93742,42.151858 61.5,41.84375 z M 57.59375,54.625 c -0.01517,0.815286 0.0251,1.64686 0.125,2.46875 3.292538,2.863076 11.89258,4.362091 11.90625,6.8125 L 69.65625,64 69.8125,64 69.625,62.90625 C 69.61133,60.455841 61.011288,58.956826 57.71875,56.09375 57.65964,55.607441 57.61169,55.110144 57.59375,54.625 z M 48.375,54.84375 c -0.01445,0.400585 -0.02058,0.823394 -0.09375,1.25 -3.333414,2.76559 -11.919026,3.949423 -11.90625,6.8125 L 36.1875,64 36.34375,64 36.375,63.90625 c -0.01278,-2.863077 8.572836,-4.04691 11.90625,-6.8125 0.135873,-0.792193 0.127248,-1.534283 0.09375,-2.25 z"
       inkscape:connector-curvature="0"
       id="path4049"
       style="opacity:0.2;fill:#000000;fill-opacity:1;stroke:none" />
    <path
       d="m 44.5,40.5 c -0.01111,0.167755 -0.03125,0.329556 -0.03125,0.5 0.0047,0.20577 0.01847,0.490589 0.03125,0.75 0.01373,-0.0068 0.01705,-0.02522 0.03125,-0.03125 C 44.49936,41.311656 44.516818,40.901812 44.5,40.5 z m 17,0.03125 c -0.0181,0.420632 -0.002,0.842418 -0.03125,1.28125 0.01255,0.0079 0.01912,0.02271 0.03125,0.03125 0.01384,-0.287077 0.02275,-0.59402 0.03125,-0.84375 0,-0.159817 -0.02148,-0.311289 -0.03125,-0.46875 z M 43.9375,43.6875 c -0.117174,0.682757 0.02999,1.633592 0.4375,2.59375 0.273056,0.643365 0.62083,1.123155 1,1.53125 0.09212,0.45596 0.04239,0.666342 0.15625,1.1875 0.317731,0.953196 1.59314,2.832695 2.75,4.375 0.04675,0.488116 0.07027,0.967058 0.09375,1.46875 0.0312,-0.864716 -0.01623,-1.659278 -0.09375,-2.46875 -1.15686,-1.542305 -2.432269,-3.421804 -2.75,-4.375 -0.113856,-0.521158 -0.06413,-0.73154 -0.15625,-1.1875 -0.37917,-0.408095 -0.726944,-0.887885 -1,-1.53125 -0.234175,-0.551761 -0.376466,-1.098924 -0.4375,-1.59375 z m 18.03125,0.09375 c -0.06334,0.46802 -0.216341,0.978914 -0.4375,1.5 -0.232692,0.54826 -0.496623,0.961126 -0.8125,1.34375 -0.09925,0.462922 -0.122812,0.837373 -0.25,1.375 -0.353893,1.061686 -1.7896,3.18573 -2.84375,4.8125 -0.03767,0.600499 -0.05374,1.20428 -0.03125,1.8125 0.0051,-0.271896 0.01431,-0.542529 0.03125,-0.8125 1.05415,-1.62677 2.489857,-3.750814 2.84375,-4.8125 0.127188,-0.537627 0.150753,-0.912078 0.25,-1.375 0.315877,-0.382624 0.579808,-0.79549 0.8125,-1.34375 0.39141,-0.922223 0.537066,-1.833396 0.4375,-2.5 z M 36.34375,64 l -0.15625,1 33.625,0 -0.15625,-1 -33.3125,0 z"
       inkscape:connector-curvature="0"
       id="path4058"
       style="opacity:0.15;fill:#ffffff;fill-opacity:1;stroke:none" />
    <path
       d="m 53,32 c -4.7437,0 -8.545454,3.572545 -8.545454,7.999999 0.01072,0.471466 0.04591,1.152943 0.0909,1.727273 -0.8112,0.344288 -0.870395,1.923056 -0.181826,3.545454 0.273056,0.643365 0.620831,1.137361 1.000001,1.545456 0.09212,0.45596 0.06797,0.66066 0.181826,1.181818 0.317731,0.953196 1.570412,2.821332 2.727272,4.363637 0.113438,1.184465 0.231115,2.379781 0,3.727273 -3.333414,2.76559 -11.921867,3.955104 -11.909091,6.818181 L 36.181819,64 69.818183,64 69.636357,62.909091 c -0.01367,-2.450409 -8.616547,-3.955105 -11.909085,-6.818181 -0.13322,-1.095989 -0.158617,-2.193243 -0.0909,-3.272728 1.05415,-1.62677 2.464287,-3.756496 2.81818,-4.818182 0.127188,-0.537627 0.17348,-0.900715 0.272727,-1.363637 0.315877,-0.382624 0.585491,-0.815377 0.818183,-1.363637 0.654148,-1.541277 0.611865,-3.012616 -0.0909,-3.454545 0.04144,-0.621003 0.07265,-1.281772 0.0909,-1.818182 C 61.545462,35.572545 57.743712,32 53.000008,32 z"
       inkscape:connector-curvature="0"
       clip-path="url(#clipPath4124)"
       id="path4067"
       style="opacity:0.15;fill:none;stroke:#ffffff;stroke-width:3;stroke-miterlimit:4;stroke-dasharray:none;filter:url(#filter4128)" />
  </g>
</svg>
