<?xml version="1.0" encoding="UTF-8" standalone="no"?>
<svg xmlns="http://www.w3.org/2000/svg" height="96" width="96" version="1.1" xmlns:xlink="http://www.w3.org/1999/xlink">
 <defs>
  <linearGradient id="f" stop-color="#fff">
   <stop offset="0"/>
   <stop stop-opacity="0" offset="1"/>
  </linearGradient>
  <linearGradient id="d" y2="7.0165" gradientUnits="userSpaceOnUse" x2="45.448" gradientTransform="matrix(1.0059 0 0 .99417 100 0)" y1="92.54" x1="45.448">
   <stop offset="0"/>
   <stop stop-opacity=".58824" offset="1"/>
  </linearGradient>
  <linearGradient id="e">
   <stop offset="0"/>
   <stop stop-color="#313131" offset="1"/>
  </linearGradient>
  <clipPath id="h">
   <path d="m12 76c-3.324 0-6 2.676-6 6v72c0 3.324 2.676 6 6 6h72c3.324 0 6-2.676 6-6v-72c0-3.324-2.676-6-6-6h-72zm36 18c6.1616 0 11.156 4.7221 11.156 10.531-0.02459 0.73006-0.09742 1.5208-0.15625 2.375 0.84185 0.6383 0.95099 2.5341 0.125 4.5-0.29813 0.70957-0.68989 1.3139-1.0938 1.8125-0.13063 0.61672-0.2068 1.0943-0.375 1.8125-0.45765 1.3869-2.2574 4.1189-3.625 6.25-0.08814 1.4173-0.04816 2.8423 0.125 4.2812 1.6306 1.4323 4.2473 2.6258 6.875 3.7188 1.6651-0.6585 3.296-1.3708 4.3438-2.25 0.20095-1.185 0.22488-2.2082 0.125-3.25-1.0016-1.3505-2.1623-2.9148-2.4375-3.75-0.08885-0.41131-0.14529-0.69786-0.21875-1.0625-0.01032-0.0115-0.02099-0.0195-0.03125-0.0313-0.30778-0.35021-0.62044-0.78033-0.84375-1.3125-0.57912-1.3801-0.493-2.7749 0.15625-3.125-0.04563-0.55204-0.0526-1.0249-0.0625-1.4688 0-3.8727 3.335-7.0312 7.4375-7.0312s7.4375 3.1585 7.4375 7.0312c-0.01637 0.48671-0.08583 1.0243-0.125 1.5938 0.56052 0.42553 0.64371 1.6894 0.09375 3-0.1985 0.47305-0.44985 0.85508-0.71875 1.1875-0.08698 0.41115-0.13801 0.73994-0.25 1.2188-0.30471 0.92458-1.5269 2.7355-2.4375 4.1562-0.05869 0.94487-0.02154 1.8844 0.09375 2.8438 2.8475 2.5044 10.269 3.8566 10.281 6l0.125 0.97h-14.562c0.07629 0.18396 0.1239 0.37077 0.125 0.5625l0.21875 1.4375h-43.562l0.21875-1.4375c-0.00085-0.19234 0.0388-0.38079 0.09375-0.5625h-14.533l0.125-0.96875c-0.01105-2.5044 7.3672-3.5809 10.25-6 0.20095-1.185 0.22488-2.2082 0.125-3.25-1.0016-1.3505-2.1623-2.9148-2.4375-3.75-0.08885-0.41131-0.14529-0.69786-0.21875-1.0625-0.01032-0.0115-0.02099-0.0195-0.03125-0.0313-0.30778-0.35021-0.62044-0.78033-0.84375-1.3125-0.57912-1.3801-0.493-2.7749 0.15625-3.125-0.04563-0.55204-0.0526-1.0249-0.0625-1.4688 0-3.8727 3.335-7.0312 7.4375-7.0312s7.4375 3.1585 7.4375 7.0312c-0.01637 0.48671-0.08583 1.0243-0.125 1.5938 0.56052 0.42553 0.64371 1.6894 0.09375 3-0.1985 0.47305-0.44985 0.85508-0.71875 1.1875-0.08698 0.41115-0.13801 0.73994-0.25 1.2188-0.30471 0.92458-1.5269 2.7355-2.4375 4.1562-0.05869 0.94487-0.02154 1.8844 0.09375 2.8438 0.94365 0.82995 2.3955 1.5391 3.9062 2.1875 2.7588-1.0777 5.5751-2.2002 7.3125-3.6562 0.30182-1.7775 0.30626-3.3436 0.15625-4.9062-1.5042-2.0257-3.2116-4.3722-3.625-5.625-0.13344-0.61696-0.20216-1.0468-0.3125-1.5938-0.01552-0.0171-0.04709-0.0449-0.0625-0.0625-0.46225-0.52531-0.94586-1.1705-1.2812-1.9688-0.86979-2.0702-0.72511-4.0999 0.25-4.625-0.06853-0.82806-0.07877-1.5843-0.09375-2.25 0.002-5.808 4.996-10.53 11.158-10.53z" fill="url(#linearGradient4101)"/>
  </clipPath>
  <filter id="i" height="1.6514" width="1.38" color-interpolation-filters="sRGB" y="-.32571" x="-.19">
   <feGaussianBlur stdDeviation="5.7"/>
  </filter>
  <linearGradient id="q" y2="6" xlink:href="#d" gradientUnits="userSpaceOnUse" x2="32.251" gradientTransform="translate(0,1)" y1="90" x1="32.251"/>
  <radialGradient id="g" xlink:href="#f" gradientUnits="userSpaceOnUse" cy="90.172" cx="48" gradientTransform="matrix(1.1573 0 0 .99591 -7.551 .19713)" r="42"/>
  <linearGradient id="p" y2="63.893" xlink:href="#f" gradientUnits="userSpaceOnUse" x2="36.357" y1="6" x1="36.357"/>
  <linearGradient id="o" y2="5.9877" gradientUnits="userSpaceOnUse" x2="48" y1="90" x1="48">
   <stop stop-color="#da8714" offset="0"/>
   <stop stop-color="#f4d468" offset="1"/>
  </linearGradient>
  <linearGradient id="n" y2="80" xlink:href="#e" gradientUnits="userSpaceOnUse" x2="56" gradientTransform="matrix(.58779 0 0 .59977 -1.714 28.375)" y1="16" x1="56"/>
  <linearGradient id="m" y2="80" xlink:href="#e" gradientUnits="userSpaceOnUse" x2="56" gradientTransform="matrix(.88281 0 0 .89965 5.625 11.563)" y1="16" x1="56"/>
  <linearGradient id="l" y2="80" xlink:href="#e" gradientUnits="userSpaceOnUse" x2="56" gradientTransform="matrix(.58779 0 0 .59977 41.286 28.375)" y1="16" x1="56"/>
  <linearGradient id="k" y2="5.9996" xlink:href="#d" gradientUnits="userSpaceOnUse" x2="32.251" gradientTransform="matrix(1.0238 0 0 1.0119 -1.1429 .929)" y1="90" x1="32.251"/>
  <linearGradient id="j" y2="90.239" xlink:href="#d" gradientUnits="userSpaceOnUse" x2="32.251" gradientTransform="matrix(1.0238,0,0,-1.0119,-1.1429,98.071)" y1="6.1317" x1="32.251"/>
 </defs>
 <g fill="url(#j)">
  <path opacity="0.08" d="m12 95.031c-5.5111 0-10.031-4.52-10.031-10.031v-71c0-5.5111 4.5202-10.031 10.031-10.031h72c5.5111 0 10.031 4.5202 10.031 10.031v71c0 5.5111-4.5202 10.031-10.031 10.031h-72z"/>
  <path opacity=".1" d="m12 94.031c-4.9716 0-9.0312-4.0596-9.0312-9.0312v-71c0-4.9718 4.0596-9.0314 9.0312-9.0314h72c4.9716 0 9.0312 4.0596 9.0312 9.0312v71c0 4.9716-4.0596 9.0312-9.0312 9.0312h-72z"/>
  <path opacity=".2" d="m12 93c-4.4091 0-8-3.591-8-8v-71c0-4.4091 3.5909-8 8-8h72c4.4091 0 8 3.5909 8 8v71c0 4.4091-3.5909 8-8 8h-72z"/>
 </g>
 <rect opacity=".3" rx="7" ry="7" height="85" width="86" y="7" x="5" fill="url(#k)"/>
 <rect opacity=".45" rx="6" ry="6" height="84" width="84" y="7" x="6" fill="url(#q)"/>
 <rect rx="6" ry="6" height="84" width="84" y="6" x="6" fill="url(#o)"/>
 <path opacity=".5" d="m12 6c-3.324 0-6 2.676-6 6v72c0 0.33472 0.04135 0.6507 0.09375 0.96875 0.0487 0.2956 0.09704 0.59692 0.1875 0.875 0.00988 0.03038 0.020892 0.0636 0.03125 0.09375 0.098865 0.28777 0.23488 0.54745 0.375 0.8125 0.14459 0.27351 0.31562 0.53562 0.5 0.78125 0.18438 0.24564 0.37378 0.47347 0.59375 0.6875 0.43995 0.42806 0.94291 0.81453 1.5 1.0938 0.27854 0.13961 0.57347 0.24695 0.875 0.34375-0.2562-0.10022-0.48671-0.23627-0.71875-0.375-0.00741-0.0044-0.023866 0.0045-0.03125 0-0.0319-0.019-0.0622-0.042-0.0937-0.062-0.1204-0.077-0.231-0.164-0.3437-0.25-0.1062-0.081-0.2133-0.161-0.3126-0.25-0.1778-0.162-0.3473-0.346-0.4999-0.531-0.1075-0.131-0.2183-0.266-0.3124-0.407-0.0251-0.038-0.0385-0.086-0.0626-0.125-0.0647-0.103-0.1302-0.204-0.1874-0.312-0.1011-0.195-0.2057-0.416-0.2813-0.625-0.008-0.022-0.0236-0.041-0.0313-0.063-0.0318-0.092-0.0358-0.187-0.0624-0.281-0.0304-0.107-0.0704-0.203-0.0938-0.313-0.0729-0.341-0.125-0.698-0.125-1.062v-72c0-2.782 2.2182-5 5-5h72c2.7818 0 5 2.2182 5 5v72c0 0.3643-0.05212 0.72099-0.125 1.0625-0.04415 0.20689-0.08838 0.39766-0.15625 0.59375-0.0077 0.02195-0.0233 0.04069-0.03125 0.0625-0.06274 0.17374-0.13838 0.36745-0.21875 0.53125-0.04158 0.0828-0.07904 0.16995-0.125 0.25-0.0546 0.09721-0.12677 0.18835-0.1875 0.28125-0.09411 0.14096-0.20492 0.276-0.3125 0.40625-0.14317 0.17445-0.30314 0.347-0.46875 0.5-0.01117 0.0102-0.01998 0.02115-0.03125 0.03125-0.13839 0.12556-0.28509 0.23444-0.4375 0.34375-0.10257 0.07315-0.20432 0.15336-0.3125 0.21875-0.0074 0.0045-0.02384-0.0044-0.03125 0-0.23204 0.13873-0.46255 0.27478-0.71875 0.375 0.30153-0.0968 0.59646-0.20414 0.875-0.34375 0.55709-0.27922 1.0601-0.66569 1.5-1.0938 0.21997-0.21403 0.40937-0.44186 0.59375-0.6875s0.35541-0.50774 0.5-0.78125c0.14012-0.26505 0.27614-0.52473 0.375-0.8125 0.01041-0.03078 0.02133-0.06274 0.03125-0.09375 0.09046-0.27808 0.1388-0.5794 0.1875-0.875 0.053-0.318 0.094-0.634 0.094-0.969v-72c0-3.324-2.676-6-6-6h-72z" fill="url(#p)"/>
 <path opacity=".2" d="m12 90c-3.324 0-6-2.676-6-6v-72c0-0.33472 0.04135-0.6507 0.09375-0.96875 0.0487-0.2956 0.09704-0.59692 0.1875-0.875 0.0099-0.03 0.0209-0.063 0.0313-0.094 0.0989-0.2873 0.2349-0.547 0.375-0.812 0.1446-0.2735 0.3156-0.5356 0.5-0.7812 0.1844-0.2457 0.3738-0.4735 0.5937-0.6876 0.44-0.428 0.943-0.8145 1.5-1.0937 0.2786-0.1396 0.5735-0.2469 0.8748-0.3437-0.256 0.1002-0.4865 0.2362-0.7185 0.375-0.00741 0.0044-0.023866-0.0045-0.03125 0-0.031933 0.0193-0.062293 0.04251-0.09375 0.0625-0.1204 0.0767-0.23102 0.16351-0.34375 0.25-0.10617 0.0808-0.21328 0.16111-0.3125 0.25-0.1779 0.1614-0.3474 0.3453-0.5 0.5312-0.1075 0.1303-0.2183 0.2653-0.3124 0.4063-0.0251 0.0383-0.0385 0.0858-0.0626 0.125-0.0647 0.103-0.1302 0.2045-0.1874 0.3124-0.1011 0.1948-0.2057 0.4158-0.2813 0.625-0.008 0.0219-0.0236 0.0406-0.0313 0.0626-0.0318 0.0919-0.0358 0.1868-0.0624 0.2812-0.0304 0.1066-0.0704 0.203-0.0938 0.3125-0.0729 0.3415-0.125 0.6985-0.125 1.0625v72c0 2.7818 2.2182 5 5 5h72c2.7818 0 5-2.2182 5-5v-72c0-0.364-0.052-0.721-0.125-1.0625-0.044-0.2069-0.088-0.3977-0.156-0.5937-0.008-0.022-0.024-0.0407-0.031-0.0626-0.063-0.1737-0.139-0.3674-0.219-0.5312-0.042-0.0828-0.079-0.17-0.125-0.25-0.055-0.0972-0.127-0.1884-0.188-0.2812-0.094-0.141-0.205-0.276-0.312-0.4063-0.143-0.1745-0.303-0.347-0.469-0.5-0.011-0.0102-0.02-0.0211-0.031-0.0313-0.139-0.1255-0.285-0.2344-0.438-0.3437-0.102-0.0731-0.204-0.1534-0.312-0.2187-0.0074-0.0045-0.02384 0.0044-0.03125 0-0.23204-0.13873-0.46255-0.27478-0.71875-0.375 0.30153 0.0968 0.59646 0.20414 0.875 0.34375 0.55709 0.27922 1.0601 0.66569 1.5 1.0938 0.21997 0.21403 0.40937 0.44186 0.59375 0.6875s0.35541 0.50774 0.5 0.78125c0.14012 0.26505 0.27614 0.52473 0.375 0.8125 0.01041 0.03078 0.02133 0.06274 0.03125 0.09375 0.09046 0.27808 0.1388 0.5794 0.1875 0.875 0.053 0.318 0.094 0.634 0.094 0.969v72c0 3.324-2.676 6-6 6h-72z" fill="url(#g)"/>
 <path opacity=".5" d="m48 94c-6.1616 0-11.156 4.7221-11.156 10.531 0.01498 0.66573 0.02522 1.4219 0.09375 2.25-0.97511 0.5251-1.1198 2.5548-0.25 4.625 0.3354 0.79826 0.819 1.4434 1.2812 1.9688 0.01541 0.0176 0.04698 0.0454 0.0625 0.0625 0.11034 0.54696 0.17906 0.97679 0.3125 1.5938 0.41339 1.2528 2.1208 3.5993 3.625 5.625 0.15001 1.5627 0.14557 3.1287-0.15625 4.9062-1.7374 1.4561-4.5537 2.5786-7.3125 3.6562-1.5107-0.64844-2.9626-1.3576-3.9062-2.1875-0.11529-0.95931-0.15244-1.8989-0.09375-2.8438 0.9106-1.4207 2.1328-3.2317 2.4375-4.1562 0.11199-0.47881 0.16302-0.8076 0.25-1.2188 0.2689-0.33242 0.52025-0.71445 0.71875-1.1875 0.54996-1.3106 0.46677-2.5745-0.09375-3 0.03917-0.56947 0.10863-1.107 0.125-1.5938 0-3.87-3.336-7.03-7.438-7.03-4.1025 0-7.4375 3.1585-7.4375 7.0312 0.0099 0.44382 0.01687 0.91671 0.0625 1.4688-0.64925 0.35007-0.73537 1.7449-0.15625 3.125 0.22331 0.53217 0.53598 0.96229 0.84375 1.3125 0.01026 0.0117 0.02093 0.0198 0.03125 0.0313 0.07346 0.36464 0.1299 0.65119 0.21875 1.0625 0.27524 0.83516 1.4359 2.3995 2.4375 3.75 0.09988 1.0418 0.07595 2.065-0.125 3.25-2.8828 2.4191-10.261 3.4956-10.25 6l-0.125 0.97h14.531c-0.05495 0.18171-0.0946 0.37016-0.09375 0.5625l-0.218 1.44h43.562l-0.21875-1.4375c-0.001-0.19-0.048-0.38-0.124-0.56h14.562l-0.125-0.97c-0.01176-2.1434-7.4338-3.4956-10.281-6-0.11529-0.95931-0.15244-1.8989-0.09375-2.8438 0.9106-1.4207 2.1328-3.2317 2.4375-4.1562 0.11199-0.47881 0.16302-0.8076 0.25-1.2188 0.2689-0.33242 0.52025-0.71445 0.71875-1.1875 0.54996-1.3106 0.46677-2.5745-0.09375-3 0.03917-0.56947 0.10863-1.107 0.125-1.5938 0.001-3.87-3.335-7.03-7.437-7.03-4.1025 0-7.4375 3.1585-7.4375 7.0312 0.0099 0.44382 0.01687 0.91671 0.0625 1.4688-0.64925 0.35007-0.73537 1.7449-0.15625 3.125 0.22331 0.53217 0.53598 0.96229 0.84375 1.3125 0.01026 0.0117 0.02093 0.0198 0.03125 0.0313 0.07346 0.36464 0.1299 0.65119 0.21875 1.0625 0.27524 0.83516 1.4359 2.3995 2.4375 3.75 0.09988 1.0418 0.07595 2.065-0.125 3.25-1.0478 0.87923-2.6787 1.5915-4.3438 2.25-2.6277-1.0929-5.2444-2.2864-6.875-3.7188-0.17316-1.439-0.21314-2.8639-0.125-4.2812 1.3676-2.1311 3.1674-4.8631 3.625-6.25 0.1682-0.71822 0.24437-1.1958 0.375-1.8125 0.40386-0.49864 0.79562-1.1029 1.0938-1.8125 0.82599-1.9659 0.71685-3.8617-0.125-4.5 0.05883-0.85421 0.13166-1.6449 0.15625-2.375 0-5.808-4.994-10.53-11.156-10.53z" clip-path="url(#h)" transform="translate(0,-68)" filter="url(#i)" fill="#fff"/>
 <path opacity=".6" d="m69.5 38c-4.1025 0-7.4254 3.1471-7.4254 7.0199 0.0099 0.44382 0.01284 0.93943 0.05847 1.4915-0.64925 0.35007-0.73503 1.7222-0.15591 3.1023 0.22331 0.53217 0.53026 0.96229 0.83804 1.3125 0.01026 0.0117 0.02865 0.02836 0.03897 0.03977 0.07346 0.36464 0.12553 0.64267 0.21438 1.054 0.27524 0.83516 1.4151 2.4081 2.4167 3.7585 0.09988 1.0418 0.10351 2.0764-0.09744 3.2614-2.8828 2.4191-10.262 3.5013-10.251 6.0057l-0.137 0.955h29l-0.136-0.955c-0.01176-2.1434-7.4234-3.5013-10.271-6.0057-0.11529-0.95931-0.13665-1.8989-0.07796-2.8437 0.9106-1.4207 2.112-3.2516 2.4167-4.1761 0.11199-0.47881 0.16638-0.80192 0.25336-1.2131 0.2689-0.33242 0.5226-0.72014 0.7211-1.1932 0.54996-1.3106 0.48256-2.5773-0.07796-3.0028 0.03917-0.56947 0.08107-1.1042 0.09744-1.5909-0.001-3.872-3.324-7.019-7.426-7.019z" fill="url(#l)"/>
 <path d="m48 26c-6.1616 0-11.152 4.7207-11.152 10.53 0.01498 0.66573 0.01929 1.4092 0.08782 2.2372-0.97511 0.5251-1.104 2.5833-0.23417 4.6534 0.3354 0.79826 0.79641 1.4434 1.2587 1.9688 0.01541 0.01756 0.04302 0.04255 0.05854 0.05965 0.11034 0.54696 0.18854 0.964 0.32198 1.581 0.41339 1.2527 2.1254 3.6121 3.6296 5.6378 0.15001 1.5627 0.15546 3.1145-0.14636 4.892-4.3297 3.6286-15.413 5.252-15.397 9.0085l-0.206 1.432h43.556l-0.205-1.432c-0.018-3.215-11.149-5.252-15.426-9.008-0.17316-1.439-0.20523-2.8483-0.11709-4.2656 1.3676-2.1311 3.172-4.8773 3.6296-6.2642 0.1682-0.71822 0.2499-1.2029 0.38052-1.8196 0.40386-0.49864 0.78491-1.0802 1.083-1.7898 0.82599-1.9659 0.72476-3.866-0.11709-4.5043 0.05883-0.85421 0.12176-1.6563 0.14636-2.3864 0-5.809-4.99-10.53-11.152-10.53z" fill="url(#m)"/>
 <path opacity=".6" d="m26.5 38c-4.1025 0-7.4254 3.1471-7.4254 7.0199 0.0099 0.44382 0.01284 0.93943 0.05847 1.4915-0.64925 0.35007-0.73503 1.7222-0.15591 3.1023 0.22331 0.53217 0.53026 0.96229 0.83804 1.3125 0.01026 0.0117 0.02865 0.02836 0.03897 0.03977 0.07346 0.36464 0.12553 0.64267 0.21438 1.054 0.27524 0.83516 1.4151 2.4081 2.4167 3.7585 0.09988 1.0418 0.10351 2.0764-0.09744 3.2614-2.8828 2.4191-10.262 3.5013-10.251 6.0057l-0.137 0.955h29l-0.136-0.955c-0.01176-2.1434-7.4234-3.5013-10.271-6.0057-0.11529-0.95931-0.13665-1.8989-0.07796-2.8437 0.9106-1.4207 2.112-3.2516 2.4167-4.1761 0.11199-0.47881 0.16638-0.80192 0.25336-1.2131 0.2689-0.33242 0.5226-0.72014 0.7211-1.1932 0.54996-1.3106 0.48256-2.5773-0.07796-3.0028 0.03917-0.56947 0.08107-1.1042 0.09744-1.5909-0.001-3.872-3.324-7.019-7.426-7.019z" fill="url(#n)"/>
 <path opacity=".2" d="m48 26c-6.1616 0-11.156 4.7221-11.156 10.531 0.01498 0.66573 0.02522 1.4219 0.09375 2.25-0.97511 0.5251-1.1198 2.5548-0.25 4.625 0.3354 0.79826 0.819 1.4434 1.2812 1.9688 0.01541 0.01756 0.04698 0.0454 0.0625 0.0625 0.11034 0.54696 0.17906 0.97679 0.3125 1.5938 0.41339 1.2527 2.1208 3.5993 3.625 5.625 0.15001 1.5627 0.14557 3.1287-0.15625 4.9062-1.738 1.456-4.554 2.578-7.313 3.656-1.511-0.649-2.963-1.358-3.906-2.188-0.116-0.959-0.153-1.899-0.094-2.843 0.9106-1.4207 2.1328-3.2317 2.4375-4.1562 0.11199-0.47881 0.16302-0.8076 0.25-1.2188 0.2689-0.33242 0.52025-0.71446 0.71875-1.1875 0.54996-1.3106 0.46677-2.5745-0.09375-3 0.03917-0.56947 0.10863-1.107 0.125-1.5938 0.001-3.873-3.335-7.032-7.437-7.032-4.1025 0-7.4375 3.1585-7.4375 7.0312 0.0099 0.44382 0.01687 0.91671 0.0625 1.4688-0.64925 0.35007-0.73537 1.7449-0.15625 3.125 0.22331 0.53217 0.53598 0.96229 0.84375 1.3125 0.01026 0.0117 0.02093 0.01984 0.03125 0.03125 0.07346 0.36464 0.1299 0.65119 0.21875 1.0625 0.27524 0.83516 1.4359 2.3995 2.4375 3.75 0.09988 1.0418 0.07595 2.065-0.125 3.25-2.8828 2.4191-10.261 3.4956-10.25 6l-0.125 0.968h14.531c-0.05495 0.18171-0.0946 0.37016-0.09375 0.5625l-0.218 1.438h43.562l-0.219-1.438c-0.001-0.191-0.048-0.378-0.124-0.562h14.562l-0.125-0.969c-0.01176-2.1434-7.4338-3.4956-10.281-6-0.116-0.959-0.153-1.899-0.094-2.843 0.9106-1.4207 2.1328-3.2317 2.4375-4.1562 0.11199-0.47881 0.16302-0.8076 0.25-1.2188 0.2689-0.33242 0.52025-0.71446 0.71875-1.1875 0.54996-1.3106 0.46677-2.5745-0.09375-3 0.03917-0.56947 0.10863-1.107 0.125-1.5938 0.001-3.873-3.335-7.032-7.437-7.032-4.1025 0-7.4375 3.1585-7.4375 7.0312 0.0099 0.44382 0.01687 0.91671 0.0625 1.4688-0.64925 0.35007-0.73537 1.7449-0.15625 3.125 0.22331 0.53217 0.53598 0.96229 0.84375 1.3125 0.01026 0.0117 0.02093 0.01984 0.03125 0.03125 0.07346 0.36464 0.1299 0.65119 0.21875 1.0625 0.27524 0.83516 1.4359 2.3995 2.4375 3.75 0.09988 1.0418 0.07595 2.065-0.125 3.25-1.0478 0.87923-2.6787 1.5915-4.3438 2.25-2.6277-1.0929-5.2444-2.2864-6.875-3.7188-0.17316-1.439-0.21314-2.8639-0.125-4.2812 1.3676-2.1311 3.1674-4.8631 3.625-6.25 0.1682-0.71822 0.24437-1.1958 0.375-1.8125 0.40386-0.49864 0.79562-1.1029 1.0938-1.8125 0.82599-1.9659 0.71685-3.8617-0.125-4.5 0.05883-0.85421 0.13166-1.6449 0.15625-2.375 0-5.81-4.994-10.532-11.156-10.532zm0 1.0938c5.5907 0 10.044 4.2391 10.062 9.4062 0.000037 0.01058 0 0.02066 0 0.03125-0.02399 0.67748-0.09714 1.4543-0.15625 2.3125a1.095 1.095 0 0 0 0.4375 0.9375c0.02325 0.01762 0.22789 0.30227 0.25 0.90625s-0.11111 1.43-0.46875 2.2812c-0.25144 0.59844-0.58798 1.131-0.9375 1.5625a1.095 1.095 0 0 0 -0.219 0.468c-0.12913 0.60965-0.20053 1.0614-0.34375 1.6875-0.0082 0.03569-0.0226 0.05682-0.03125 0.09375-0.18067 0.50885-0.70169 1.4682-1.3438 2.5312-0.66391 1.0993-1.4381 2.3047-2.125 3.375a1.095 1.095 0 0 0 -0.1875 0.53125c-0.09224 1.4832-0.05601 2.9645 0.125 4.4688a1.095 1.095 0 0 0 0.375 0.6875c1.8404 1.6166 4.5368 2.8038 7.1875 3.9062a1.095 1.095 0 0 0 0.8125 0.03125c1.6888-0.66788 3.403-1.3858 4.6562-2.4375a1.095 1.095 0 0 0 0.375 -0.65625c0.21592-1.2733 0.23296-2.4051 0.125-3.5312a1.095 1.095 0 0 0 -0.219 -0.562c-0.50083-0.6753-1.0389-1.3964-1.4688-2.0312-0.42985-0.63487-0.75448-1.2302-0.8125-1.4062-0.0705-0.33122-0.12233-0.614-0.1875-0.9375a1.095 1.095 0 0 0 -0.25 -0.53125c-0.01105-0.01221-0.02253 0.0088-0.03125 0-0.257-0.293-0.493-0.641-0.656-1.031-0.231-0.551-0.301-1.079-0.281-1.438 0.009-0.179 0.048-0.274 0.062-0.312a1.095 1.095 0 0 0 0.46875 -1.0312c-0.04122-0.4987-0.05281-0.93551-0.0625-1.375 0-0.0106-0.00006-0.02066 0-0.03125 0.01823-3.23 2.8148-5.9062 6.3438-5.9062 3.5289 0 6.3255 2.6763 6.3438 5.9062 0.00006 0.01059 0 0.02065 0 0.03125-0.01556 0.4065-0.08382 0.93257-0.125 1.5312a1.095 1.095 0 0 0 0.40625 0.90625c-0.01063 0.0054 0.05201 0.12217 0.0625 0.375 0.01399 0.3371-0.06248 0.8224-0.28125 1.3438-0.15228 0.3629-0.34174 0.66459-0.5625 0.9375a1.095 1.095 0 0 0 -0.219 0.469c-0.08592 0.40618-0.13129 0.705-0.21875 1.0938-0.0077 0.03422-0.02288 0.05796-0.03125 0.09375-0.10491 0.27965-0.45439 0.87669-0.875 1.5625-0.44345 0.72305-0.94491 1.5302-1.4062 2.25a1.095 1.095 0 0 0 -0.189 0.531c-0.06324 1.0182-0.02832 2.0155 0.09375 3.0312a1.095 1.095 0 0 0 0.375 0.6875c1.7046 1.4992 4.3136 2.4357 6.5 3.3438 1.0932 0.45401 2.0917 0.88632 2.7188 1.2812 0.26955 0.16977 0.41771 0.32132 0.53125 0.4375h-13.188a1.095 1.095 0 0 0 -1 1.5c0.03763 0.09074 0.03117 0.14205 0.03125 0.15625a1.095 1.095 0 0 0 0 0.15625l0.03125 0.1875h-41l0.03125-0.1875a1.095 1.095 0 0 0 0 -0.15625c-0.000171-0.03872 0.02602-0.12936 0.0625-0.25a1.095 1.095 0 0 0 -1.0625 -1.4062h-13.188c0.03803-0.118 0.09279-0.2905 0.59375-0.625 0.60367-0.40308 1.5439-0.84725 2.625-1.2812 2.1623-0.868 4.7988-1.6712 6.5312-3.125a1.095 1.095 0 0 0 0.375 -0.65625c0.21592-1.2733 0.23296-2.4051 0.125-3.5312a1.095 1.095 0 0 0 -0.217 -0.563c-0.50083-0.6753-1.0389-1.3964-1.4688-2.0312-0.42985-0.63487-0.75448-1.2302-0.8125-1.4062-0.0705-0.33122-0.12233-0.614-0.1875-0.9375a1.095 1.095 0 0 0 -0.25 -0.53125c-0.01105-0.01221-0.02253 0.0088-0.03125 0-0.257-0.293-0.493-0.641-0.656-1.031-0.231-0.551-0.301-1.079-0.281-1.438 0.009-0.179 0.048-0.274 0.062-0.312a1.095 1.095 0 0 0 0.46875 -1.0312c-0.04122-0.4987-0.05281-0.93551-0.0625-1.375 0-0.0106-0.00006-0.02066 0-0.03125 0.01823-3.23 2.8148-5.9062 6.3438-5.9062 3.5289 0 6.3255 2.6763 6.3438 5.9062 0.00006 0.01059 0 0.02065 0 0.03125-0.01556 0.4065-0.08382 0.93257-0.125 1.5312a1.095 1.095 0 0 0 0.40625 0.90625c-0.01063 0.0054 0.05201 0.12217 0.0625 0.375 0.01399 0.3371-0.06248 0.8224-0.28125 1.3438-0.15228 0.3629-0.34174 0.66459-0.5625 0.9375a1.095 1.095 0 0 0 -0.219 0.469c-0.08592 0.40618-0.13129 0.705-0.21875 1.0938-0.0077 0.03422-0.02288 0.05796-0.03125 0.09375-0.10491 0.27965-0.45439 0.87669-0.875 1.5625-0.44345 0.72305-0.94491 1.5302-1.4062 2.25a1.095 1.095 0 0 0 -0.1875 0.53125c-0.06324 1.0182-0.02832 2.0155 0.09375 3.0312a1.095 1.095 0 0 0 0.375 0.6875c1.1296 0.9935 2.6446 1.7127 4.1875 2.375a1.095 1.095 0 0 0 0.844 0.031c2.7636-1.0796 5.6535-2.1915 7.625-3.8438a1.095 1.095 0 0 0 0.375 -0.65625c0.31929-1.8804 0.3131-3.5535 0.15625-5.1875a1.095 1.095 0 0 0 -0.218 -0.562c-0.74969-1.0096-1.5411-2.0962-2.1875-3.0625-0.63958-0.95614-1.1451-1.8189-1.2812-2.2188-0.0014-0.0042 0.0014-0.02712 0-0.03125-0.10929-0.52031-0.17545-0.9443-0.28125-1.4688a1.095 1.095 0 0 0 -0.25 -0.53125c-0.025-0.028-0.045-0.015-0.063-0.032-0.009-0.01-0.022-0.02-0.031-0.031-0.0076-0.0061-0.02756-0.02969-0.03125-0.03125-0.39853-0.46226-0.77195-1.0078-1.0312-1.625-0.377-0.89728-0.50555-1.7544-0.46875-2.375 0.0368-0.62056 0.26104-0.8497 0.25-0.84375a1.095 1.095 0 0 0 0.5625 -1.0625c-0.06383-0.77124-0.07894-1.4911-0.09375-2.1562 0-0.01059-0.000037-0.02067 0-0.03125 0.018-5.168 4.471-9.407 10.062-9.407z"/>
 <path opacity=".1" d="m48 26c-6.1616 0-11.156 4.7221-11.156 10.531 0.01498 0.66573 0.02522 1.4219 0.09375 2.25-0.97511 0.5251-1.1198 2.5548-0.25 4.625 0.3354 0.79826 0.819 1.4434 1.2812 1.9688 0.01541 0.01756 0.04698 0.0454 0.0625 0.0625 0.11034 0.54696 0.17906 0.97679 0.3125 1.5938 0.41339 1.2527 2.1208 3.5993 3.625 5.625 0.15001 1.5627 0.14557 3.1287-0.15625 4.9062-1.738 1.456-4.554 2.578-7.313 3.656-1.511-0.649-2.963-1.358-3.906-2.188-0.116-0.959-0.153-1.899-0.094-2.843 0.9106-1.4207 2.1328-3.2317 2.4375-4.1562 0.11199-0.47881 0.16302-0.8076 0.25-1.2188 0.2689-0.33242 0.52025-0.71446 0.71875-1.1875 0.54996-1.3106 0.46677-2.5745-0.09375-3 0.03917-0.56947 0.10863-1.107 0.125-1.5938 0.001-3.873-3.335-7.032-7.437-7.032-4.1025 0-7.4375 3.1585-7.4375 7.0312 0.0099 0.44382 0.01687 0.91671 0.0625 1.4688-0.64925 0.35007-0.73537 1.7449-0.15625 3.125 0.22331 0.53217 0.53598 0.96229 0.84375 1.3125 0.01026 0.0117 0.02093 0.01984 0.03125 0.03125 0.07346 0.36464 0.1299 0.65119 0.21875 1.0625 0.27524 0.83516 1.4359 2.3995 2.4375 3.75 0.09988 1.0418 0.07595 2.065-0.125 3.25-2.8828 2.4191-10.261 3.4956-10.25 6l-0.125 0.968h14.531c-0.05495 0.18171-0.0946 0.37016-0.09375 0.5625l-0.218 1.438h43.562l-0.219-1.438c-0.001-0.191-0.048-0.378-0.124-0.562h14.562l-0.125-0.969c-0.01176-2.1434-7.4338-3.4956-10.281-6-0.116-0.959-0.153-1.899-0.094-2.843 0.9106-1.4207 2.1328-3.2317 2.4375-4.1562 0.11199-0.47881 0.16302-0.8076 0.25-1.2188 0.2689-0.33242 0.52025-0.71446 0.71875-1.1875 0.54996-1.3106 0.46677-2.5745-0.09375-3 0.03917-0.56947 0.10863-1.107 0.125-1.5938 0.001-3.873-3.335-7.032-7.437-7.032-4.1025 0-7.4375 3.1585-7.4375 7.0312 0.0099 0.44382 0.01687 0.91671 0.0625 1.4688-0.64925 0.35007-0.73537 1.7449-0.15625 3.125 0.22331 0.53217 0.53598 0.96229 0.84375 1.3125 0.01026 0.0117 0.02093 0.01984 0.03125 0.03125 0.07346 0.36464 0.1299 0.65119 0.21875 1.0625 0.27524 0.83516 1.4359 2.3995 2.4375 3.75 0.09988 1.0418 0.07595 2.065-0.125 3.25-1.0478 0.87923-2.6787 1.5915-4.3438 2.25-2.6277-1.0929-5.2444-2.2864-6.875-3.7188-0.17316-1.439-0.21314-2.8639-0.125-4.2812 1.3676-2.1311 3.1674-4.8631 3.625-6.25 0.1682-0.71822 0.24437-1.1958 0.375-1.8125 0.40386-0.49864 0.79562-1.1029 1.0938-1.8125 0.82599-1.9659 0.71685-3.8617-0.125-4.5 0.05883-0.85421 0.13166-1.6449 0.15625-2.375 0-5.81-4.994-10.532-11.156-10.532zm0 2.0625c5.0808 0 9.0578 3.8117 9.0938 8.4062 0.000164 0.02097 0 0.04149 0 0.0625-0.02359 0.63242-0.09705 1.3592-0.15625 2.2188a2.07 2.07 0 0 0 0.625 1.6562c0.01265 0.03411 0.05532 0.11647 0.0625 0.3125 0.01574 0.4299-0.0979 1.1411-0.40625 1.875-0.20986 0.49949-0.48012 0.94071-0.78125 1.3125a2.07 2.07 0 0 0 -0.438 0.875c-0.12687 0.59897-0.18925 1.0424-0.3125 1.5938-0.10255 0.31078-0.62996 1.3591-1.2812 2.4375-0.65129 1.0784-1.4354 2.2693-2.125 3.3438a2.07 2.07 0 0 0 -0.3125 1c-0.09589 1.5418-0.063 3.0939 0.125 4.6562a2.07 2.07 0 0 0 0.6875 1.3125c2.0272 1.7806 4.7976 2.9515 7.4688 4.0625a2.07 2.07 0 0 0 1.5312 0.03125c1.7099-0.67623 3.5012-1.3885 4.9375-2.5938a2.07 2.07 0 0 0 0.6875 -1.25c0.22926-1.3519 0.27142-2.58 0.15625-3.7812a2.07 2.07 0 0 0 -0.406 -1.03c-0.50088-0.67536-1.0254-1.3913-1.4375-2-0.39928-0.58972-0.65031-1.1561-0.65625-1.1562-0.000191-0.000004-0.03165-0.03246-0.03125-0.03125-0.05799-0.27572-0.09788-0.52277-0.15625-0.8125a2.07 2.07 0 0 0 -0.5 -0.96875c-0.0096-0.01064 0.0084-0.02175 0-0.03125-0.21189-0.2411-0.38945-0.48654-0.5-0.75-0.16244-0.38712-0.18473-0.73709-0.1875-0.9375a2.07 2.07 0 0 0 0.5 -1.5312c-0.03816-0.46161-0.05272-0.86979-0.0625-1.3125-0.000232-0.01052 0.000235-0.02069 0-0.03125 0.01815-2.6707 2.3468-4.9375 5.375-4.9375 3.0162 0 5.3389 2.2493 5.375 4.9062-0.000475 0.01412 0.000654 0.04773 0 0.0625-0.01515 0.3422-0.0823 0.81667-0.125 1.4375a2.07 2.07 0 0 0 0.46875 1.4688c-0.000424 0.17745-0.0607 0.49835-0.21875 0.875-0.11112 0.26482-0.22836 0.46759-0.40625 0.6875a2.07 2.07 0 0 0 -0.4375 0.875c-0.08366 0.39547-0.11795 0.67868-0.1875 1-0.0206 0.0625-0.35028 0.76605-0.78125 1.4688-0.43096 0.7027-0.97078 1.4906-1.4375 2.2188a2.07 2.07 0 0 0 -0.3125 1c-0.0673 1.0835-0.03436 2.1528 0.09375 3.2188a2.07 2.07 0 0 0 0.6875 1.3125c1.8493 1.6265 4.3127 2.4939 6.4062 3.3438h-9.1875a2.07 2.07 0 0 0 -2.0625 2h-38.781a2.07 2.07 0 0 0 -2.0625 -2h-9.6562c0.02691-0.01088 0.0354-0.02037 0.0625-0.03125 2.1255-0.85325 4.7896-1.61 6.7812-3.2812a2.07 2.07 0 0 0 0.6875 -1.25c0.22926-1.3519 0.27142-2.58 0.15625-3.7812a2.07 2.07 0 0 0 -0.41 -1.033c-0.50088-0.67536-1.0254-1.3913-1.4375-2-0.39928-0.58972-0.65031-1.1561-0.65625-1.1562-0.000191-0.000004-0.03165-0.03246-0.03125-0.03125-0.05799-0.27572-0.09788-0.52277-0.15625-0.8125a2.07 2.07 0 0 0 -0.5 -0.96875c-0.0096-0.01064 0.0084-0.02175 0-0.03125-0.21189-0.2411-0.38945-0.48654-0.5-0.75-0.16244-0.38712-0.18473-0.73709-0.1875-0.9375a2.07 2.07 0 0 0 0.5 -1.5312c-0.03815-0.46161-0.05272-0.86979-0.0625-1.3125-0.000232-0.01052 0.000235-0.02069 0-0.03125 0.01815-2.6707 2.3468-4.9375 5.375-4.9375 3.0162 0 5.3389 2.2493 5.375 4.9062-0.000475 0.01412 0.000654 0.04773 0 0.0625-0.01515 0.3422-0.0823 0.81667-0.125 1.4375a2.07 2.07 0 0 0 0.46875 1.4688c-0.000424 0.17745-0.0607 0.49835-0.21875 0.875-0.11112 0.26482-0.22836 0.46759-0.40625 0.6875a2.07 2.07 0 0 0 -0.4375 0.875c-0.08366 0.39547-0.11795 0.67868-0.1875 1-0.0206 0.0625-0.35028 0.76605-0.78125 1.4688-0.43096 0.7027-0.97078 1.4906-1.4375 2.2188a2.07 2.07 0 0 0 -0.3125 1c-0.0673 1.0835-0.03436 2.1528 0.09375 3.2188a2.07 2.07 0 0 0 0.6875 1.3125c1.2952 1.1391 2.8971 1.8567 4.4688 2.5312a2.07 2.07 0 0 0 1.5625 0.03125c2.7678-1.0812 5.7262-2.173 7.9062-4a2.07 2.07 0 0 0 0.6875 -1.25c0.33484-1.972 0.35045-3.74 0.1875-5.4375a2.07 2.07 0 0 0 -0.411 -1.03c-0.74752-1.0066-1.5279-2.0918-2.1562-3.0312-0.60963-0.91136-1.042-1.7475-1.125-1.9688-0.0026-0.0068-0.02942-0.05694-0.03125-0.0625-0.09299-0.4533-0.14796-0.83796-0.25-1.3438a2.07 2.07 0 0 0 -0.5 -1c-0.203-0.224-0.225-0.253-0.032-0.032-0.38-0.432-0.723-0.896-0.937-1.406-0.326-0.775-0.432-1.537-0.406-1.969 0.01124-0.18959 0.03122-0.2129 0.03125-0.21875 0.000005-0.000821 0.0016-0.03311 0-0.03125a2.07 2.07 0 0 0 0.781 -1.75c-0.06048-0.73084-0.0788-1.4232-0.09375-2.0938 0-0.0105-0.000041-0.02076 0-0.03125 0.018-4.609 4.002-8.438 9.094-8.438z"/>
 <path opacity=".3" d="m48 26c-6.1616 0-11.156 4.7221-11.156 10.531 0.0046 0.2057 0.02567 0.43382 0.03125 0.65625 0.197-5.646 5.088-10.187 11.125-10.187 5.969 0 10.826 4.4417 11.125 10 0.0081-0.14885 0.0264-0.32465 0.03125-0.46875 0-5.809-4.994-10.531-11.156-10.531zm-21.5 12c-4.1025 0-7.4375 3.1585-7.4375 7.0312 0.0034 0.15122 0.02691 0.34006 0.03125 0.5 0.273-3.64 3.482-6.531 7.406-6.531 3.8461 0 7.0248 2.7744 7.4062 6.3125 0.0058-0.08919 0.02835-0.19514 0.03125-0.28125 0.001-3.872-3.335-7.031-7.437-7.031zm43 0c-4.1025 0-7.4375 3.1585-7.4375 7.0312 0.0034 0.15122 0.02691 0.34006 0.03125 0.5 0.273-3.64 3.482-6.531 7.406-6.531 3.8461 0 7.0248 2.7744 7.4062 6.3125 0.0058-0.08919 0.02835-0.19514 0.03125-0.28125 0.001-3.872-3.335-7.031-7.437-7.031zm-32.625 0.8125c-0.59295 0.37148-0.83664 1.3229-0.71875 2.5 0.08048-0.73125 0.33457-1.2907 0.78125-1.5312-0.02797-0.33797-0.04966-0.65598-0.0625-0.96875zm22.188 0.15625c-0.02376 0.3176-0.03928 0.60029-0.0625 0.9375 0.35099 0.26612 0.57466 0.75777 0.65625 1.375 0.09144-1.043-0.11538-1.8901-0.59375-2.3125zm-39.969 7.5625c-0.40668 0.25244-0.56427 0.92557-0.46875 1.75 0.0797-0.36924 0.25653-0.64998 0.5-0.78125-0.03008-0.36395-0.02286-0.65925-0.03125-0.96875zm43 0c-0.40668 0.25244-0.56427 0.92557-0.46875 1.75 0.0797-0.36924 0.25653-0.64998 0.5-0.78125-0.03008-0.36395-0.02286-0.65925-0.03125-0.96875zm-28.219 0.158c-0.02702 0.30879-0.03948 0.60282-0.0625 0.9375 0.22156 0.1682 0.34347 0.46248 0.40625 0.84375 0.11829-0.79262-0.0027-1.4575-0.34375-1.7812zm43 0c-0.02702 0.30879-0.03948 0.60282-0.0625 0.9375 0.22156 0.1682 0.34347 0.46248 0.40625 0.84375 0.11829-0.79262-0.0027-1.4575-0.34375-1.7812zm-34.812 8.3438c-0.02009 0.80904-0.09909 1.6425-0.25 2.5312-1.7374 1.4561-4.5537 2.5786-7.3125 3.6562-1.5107-0.64844-2.9626-1.3576-3.9062-2.1875-0.04883-0.40631-0.0743-0.81762-0.09375-1.2188-0.01321 0.73413 0.0041 1.4725 0.09375 2.2188 0.94365 0.82995 2.3955 1.5391 3.9062 2.1875 2.7588-1.0777 5.5751-2.2002 7.3125-3.6562 0.21445-1.263 0.28454-2.4071 0.25-3.5312zm11.937 0.53c-0.0073 0.9936 0.0353 1.9949 0.15625 3 1.6306 1.4323 4.2473 2.6258 6.875 3.7188 1.6651-0.6585 3.296-1.3708 4.3438-2.25 0.15071-0.88876 0.21349-1.6859 0.1875-2.4688-0.02495 0.46717-0.10047 0.95554-0.1875 1.4688-1.0478 0.87923-2.6787 1.5915-4.3438 2.25-2.6277-1.0929-5.2444-2.2864-6.875-3.7188-0.08034-0.66762-0.13274-1.3378-0.15625-2zm-31.438 2c-0.02495 0.46717-0.10047 0.95554-0.1875 1.4688-2.8828 2.4191-10.261 3.4956-10.25 6l-0.124 0.969h0.125c0.04777-2.483 7.3787-3.5593 10.25-5.9688 0.15071-0.88876 0.21349-1.6859 0.1875-2.4688zm50.938 0.25c-0.01322 0.73413 0.0041 1.4725 0.09375 2.2188 2.834 2.493 10.202 3.843 10.281 5.969h0.125l-0.125-0.969c-0.01176-2.1434-7.4338-3.4956-10.281-6-0.049-0.406-0.075-0.817-0.094-1.219zm-47.125 9.188-0.156 1h0.156l0.063-0.438c-0.001-0.192 0.038-0.38 0.093-0.562h-0.156zm43.062 0c0.07629 0.18396 0.12395 0.37077 0.125 0.5625l0.063 0.438h0.156l-0.156-1h-0.187z"/>
 <path opacity=".3" d="m59.125 37c-0.03308 0.60527-0.07778 1.2206-0.125 1.9062 0.02338 0.01773 0.04025 0.04285 0.0625 0.0625 0.03643-0.48693 0.07886-0.99564 0.09375-1.4375 0-0.18154-0.02161-0.35195-0.03125-0.53125zm-22.25 0.1875c-0.0041 0.11676-0.03125 0.22606-0.03125 0.34375 0.0089 0.39402 0.01264 0.82771 0.03125 1.2812 0.02005-0.01256 0.04169-0.02004 0.0625-0.03125-0.04736-0.5722-0.05001-1.0963-0.0625-1.5938zm-0.71875 4.125c-0.09521 0.86509 0.05989 1.9719 0.53125 3.0938 0.3354 0.79826 0.819 1.4434 1.2812 1.9688 0.01541 0.01756 0.04698 0.0454 0.0625 0.0625 0.11034 0.54696 0.17906 0.97679 0.3125 1.5938 0.41339 1.2527 2.1208 3.5993 3.625 5.625 0.0375 0.39067 0.07779 0.79316 0.09375 1.1875 0.01039-0.74141-0.02467-1.4678-0.09375-2.1875-1.5042-2.0257-3.2116-4.3723-3.625-5.625-0.133-0.618-0.201-1.048-0.312-1.594-0.015-0.018-0.047-0.045-0.062-0.063-0.463-0.525-0.946-1.17-1.281-1.969-0.303-0.719-0.467-1.445-0.532-2.094zm23.5 0c-0.06011 0.64725-0.22611 1.3675-0.53125 2.0938-0.29813 0.70957-0.68989 1.3139-1.0938 1.8125-0.13063 0.61672-0.2068 1.0943-0.375 1.8125-0.45765 1.3869-2.2574 4.1189-3.625 6.25-0.02074 0.33341 0.0065 0.66566 0 1 1.3676-2.1311 3.1674-4.8631 3.625-6.25 0.1682-0.71822 0.24437-1.1958 0.375-1.8125 0.40386-0.49864 0.79562-1.1029 1.0938-1.8125 0.47595-1.1328 0.63755-2.2347 0.53125-3.0938zm-25.75 4.0625c-0.02776 0.39816-0.06304 0.80347-0.09375 1.25 0.02336 0.01773 0.04081 0.04192 0.0625 0.0625 0.01895-0.21664 0.05575-0.45558 0.0625-0.65625 0.000001-0.22104-0.01-0.44032-0.03125-0.65625zm43 0c-0.02776 0.39816-0.06304 0.80347-0.09375 1.25 0.02335 0.01773 0.04081 0.04192 0.0625 0.0625 0.01896-0.21664 0.05575-0.45558 0.0625-0.65625 0.000001-0.22104-0.01-0.44032-0.03125-0.65625zm-57.812 0.15625c-0.01242 0.16561-0.03125 0.33148-0.03125 0.5 0.0034 0.15122 0.02691 0.34006 0.03125 0.5 0.012-0.0074 0.01884-0.02456 0.03125-0.03125-0.03008-0.36395-0.02286-0.65925-0.03125-0.96875zm43 0c-0.01242 0.16561-0.03125 0.33148-0.03125 0.5 0.0034 0.15122 0.02691 0.34006 0.03125 0.5 0.012-0.0074 0.01884-0.02456 0.03125-0.03125-0.03008-0.36395-0.02286-0.65925-0.03125-0.96875zm-43.469 2.812c-0.11482 0.61134-0.0071 1.4451 0.34375 2.2812 0.22331 0.53217 0.53598 0.96229 0.84375 1.3125 0.01026 0.0117 0.02093 0.01984 0.03125 0.03125 0.07346 0.36464 0.1299 0.65119 0.21875 1.0625 0.27524 0.83516 1.4359 2.3995 2.4375 3.75 0.02199 0.22939 0.05308 0.45798 0.0625 0.6875 0.02627-0.57809-0.0087-1.1268-0.0625-1.6875-1.0016-1.3505-2.1623-2.9148-2.4375-3.75-0.08885-0.41131-0.14529-0.69786-0.21875-1.0625-0.011-0.012-0.021-0.02-0.032-0.031-0.307-0.351-0.62-0.781-0.843-1.313-0.184-0.437-0.291-0.875-0.344-1.281zm43 0c-0.11482 0.61134-0.0071 1.4451 0.34375 2.2812 0.22331 0.53217 0.53598 0.96229 0.84375 1.3125 0.01026 0.0117 0.02093 0.01984 0.03125 0.03125 0.07346 0.36464 0.1299 0.65119 0.21875 1.0625 0.27524 0.83516 1.4359 2.3995 2.4375 3.75 0.02199 0.22939 0.05308 0.45798 0.0625 0.6875 0.02627-0.57809-0.0087-1.1268-0.0625-1.6875-1.0016-1.3505-2.1623-2.9148-2.4375-3.75-0.08885-0.41131-0.14529-0.69786-0.21875-1.0625-0.011-0.012-0.021-0.02-0.032-0.031-0.307-0.351-0.62-0.781-0.843-1.313-0.184-0.437-0.291-0.875-0.344-1.281zm-27.406 0.125c-0.05471 0.36656-0.14584 0.75907-0.3125 1.1562-0.1985 0.47304-0.44985 0.85508-0.71875 1.1875-0.08698 0.41115-0.13801 0.73994-0.25 1.2188-0.30471 0.92458-1.5269 2.7355-2.4375 4.1562-0.03383 0.54468-0.02647 1.0791 0 1.625 0.0038-0.20962-0.01303-0.41513 0-0.625 0.9106-1.4207 2.1328-3.2317 2.4375-4.1562 0.11199-0.47881 0.16302-0.8076 0.25-1.2188 0.2689-0.33242 0.52025-0.71446 0.71875-1.1875 0.33258-0.79256 0.40855-1.5729 0.3125-2.1562zm43 0c-0.05471 0.36656-0.14584 0.75907-0.3125 1.1562-0.1985 0.47304-0.44985 0.85508-0.71875 1.1875-0.08698 0.41115-0.13801 0.73994-0.25 1.2188-0.30471 0.92458-1.5269 2.7355-2.4375 4.1562-0.03383 0.54468-0.02647 1.0791 0 1.625 0.0038-0.20962-0.01304-0.41513 0-0.625 0.9106-1.4207 2.1328-3.2317 2.4375-4.1562 0.11199-0.47881 0.16302-0.8076 0.25-1.2188 0.2689-0.33242 0.52025-0.71446 0.71875-1.1875 0.33258-0.79256 0.40855-1.5729 0.3125-2.1562zm-65.094 17.531c-0.000192 0.01-0.000044 0.02122 0 0.03125l-0.125 0.969h14.375l0.063-0.438c-0.001-0.192 0.038-0.38 0.093-0.562h-14.406zm57.312 0c0.07629 0.18396 0.12395 0.37077 0.125 0.5625l0.063 0.438h14.375l-0.125-0.969c-0.000054-0.0098 0.000361-0.0215 0-0.03125h-14.438zm-43.062 2-0.15625 1h43.562l-0.15625-1h-43.25z" fill="#fff"/>
</svg>
