<?xml version="1.0" encoding="UTF-8" standalone="no"?>
<!-- Created with Inkscape (http://www.inkscape.org/) -->
<svg id="svg7384" xmlns:rdf="http://www.w3.org/1999/02/22-rdf-syntax-ns#" xmlns="http://www.w3.org/2000/svg" height="16" width="16" version="1.1" xmlns:cc="http://creativecommons.org/ns#" xmlns:dc="http://purl.org/dc/elements/1.1/">
 <metadata id="metadata90">
  <rdf:RDF>
   <cc:Work rdf:about="">
    <dc:format>image/svg+xml</dc:format>
    <dc:type rdf:resource="http://purl.org/dc/dcmitype/StillImage"/>
    <dc:title>Gnome Symbolic Icon Theme</dc:title>
   </cc:Work>
  </rdf:RDF>
 </metadata>
 <title id="title9167">Gnome Symbolic Icon Theme</title>
 <g id="layer9" transform="translate(-301,-257)">
  <path id="path18112" style="color:#bebebe;enable-background:new;fill:#f57900" d="m308.92 257.09c-0.5255-0.0286-1.0382 0.28305-1.4375 0.96875l-6.25 11.594c-0.53 0.97 0.05 2.35 1.1 2.35h13.156c0.98172 0 1.9031-1.1594 1.2188-2.3438l-6.32-11.54c-0.39872-0.64617-0.94325-1.0026-1.4688-1.0312zm-0.0313 3.9375c0.54448-0.0172 1.0485 0.48677 1.0312 1.0312v3.9375c0.007 0.52831-0.47163 1.0142-1 1.0142-0.52836 0-1.0075-0.48593-1-1.0142v-3.9375c-0.008-0.4666 0.3541-0.91253 0.8125-1 0.0511-0.0145 0.10345-0.025 0.15625-0.0313zm-0.9687 6.9688h2v2h-2v-2z" class="warning"/>
 </g>
</svg>
