<?xml version="1.0" encoding="UTF-8" standalone="no"?>
<svg xmlns="http://www.w3.org/2000/svg" height="96" width="96" version="1.1" xmlns:xlink="http://www.w3.org/1999/xlink">
 <defs>
  <linearGradient id="d" stop-color="#fff">
   <stop offset="0"/>
   <stop stop-opacity="0" offset="1"/>
  </linearGradient>
  <filter id="g" height="1.384" width="1.384" color-interpolation-filters="sRGB" y="-.192" x="-.192">
   <feGaussianBlur stdDeviation="5.28"/>
  </filter>
  <clipPath id="f">
   <rect rx="6" ry="6" height="84" width="84" y="6" x="6" fill="#fff"/>
  </clipPath>
  <linearGradient id="c" y2="7.0165" gradientUnits="userSpaceOnUse" x2="45.448" gradientTransform="matrix(1.0059 0 0 .99417 100 0)" y1="92.54" x1="45.448">
   <stop offset="0"/>
   <stop stop-opacity=".58824" offset="1"/>
  </linearGradient>
  <linearGradient id="o" y2="48.273" stop-color="#fff" gradientUnits="userSpaceOnUse" x2="81" y1="48.273" x1="15">
   <stop offset="0"/>
   <stop stop-opacity="0" offset="1"/>
  </linearGradient>
  <linearGradient id="n" y2="16.973" gradientUnits="userSpaceOnUse" x2="46.655" gradientTransform="translate(0,1)" y1="75.562" x1="48.082">
   <stop stop-color="#dcdcdc" offset="0"/>
   <stop stop-color="#ebebeb" offset=".30654"/>
   <stop stop-color="#fff" offset=".70706"/>
   <stop stop-color="#fafafa" offset=".84501"/>
   <stop stop-color="#f0f0f0" offset="1"/>
  </linearGradient>
  <radialGradient id="e" xlink:href="#d" gradientUnits="userSpaceOnUse" cy="90.172" cx="48" gradientTransform="matrix(1.1573 0 0 .99591 -7.551 .19713)" r="42"/>
  <linearGradient id="m" y2="63.893" xlink:href="#d" gradientUnits="userSpaceOnUse" x2="36.357" y1="6" x1="36.357"/>
  <linearGradient id="l" y2="5.9877" gradientUnits="userSpaceOnUse" x2="48" y1="90" x1="48">
   <stop stop-color="#65a31b" offset="0"/>
   <stop stop-color="#a0de42" offset="1"/>
  </linearGradient>
  <linearGradient id="k" y2="6" xlink:href="#c" gradientUnits="userSpaceOnUse" x2="32.251" gradientTransform="translate(0,1)" y1="90" x1="32.251"/>
  <linearGradient id="j" y2="5.9996" xlink:href="#c" gradientUnits="userSpaceOnUse" x2="32.251" gradientTransform="matrix(1.0238 0 0 1.0119 -1.1429 .929)" y1="90" x1="32.251"/>
  <linearGradient id="i" y2="90.239" xlink:href="#c" gradientUnits="userSpaceOnUse" x2="32.251" gradientTransform="matrix(1.0238,0,0,-1.0119,-1.1429,98.071)" y1="6.1317" x1="32.251"/>
  <linearGradient id="h" y2="138.66" xlink:href="#d" gradientUnits="userSpaceOnUse" x2="48" y1="20.221" x1="48"/>
 </defs>
 <g fill="url(#i)">
  <path opacity="0.08" d="m12 95.031c-5.5111 0-10.031-4.52-10.031-10.031v-71c0-5.5111 4.5202-10.031 10.031-10.031h72c5.5111 0 10.031 4.5202 10.031 10.031v71c0 5.5111-4.5202 10.031-10.031 10.031h-72z"/>
  <path opacity=".1" d="m12 94.031c-4.9716 0-9.0312-4.0596-9.0312-9.0312v-71c0-4.9718 4.0596-9.0314 9.0312-9.0314h72c4.9716 0 9.0312 4.0596 9.0312 9.0312v71c0 4.9716-4.0596 9.0312-9.0312 9.0312h-72z"/>
  <path opacity=".2" d="m12 93c-4.4091 0-8-3.591-8-8v-71c0-4.4091 3.5909-8 8-8h72c4.4091 0 8 3.5909 8 8v71c0 4.4091-3.5909 8-8 8h-72z"/>
 </g>
 <rect opacity=".3" rx="7" ry="7" height="85" width="86" y="7" x="5" fill="url(#j)"/>
 <rect opacity=".45" rx="6" ry="6" height="84" width="84" y="7" x="6" fill="url(#k)"/>
 <rect rx="6" ry="6" height="84" width="84" y="6" x="6" fill="url(#l)"/>
 <path opacity=".4" d="m12 6c-3.324 0-6 2.676-6 6v72c0 0.33472 0.04135 0.6507 0.09375 0.96875 0.0487 0.2956 0.09704 0.59692 0.1875 0.875 0.00988 0.03038 0.020892 0.0636 0.03125 0.09375 0.098865 0.28777 0.23488 0.54745 0.375 0.8125 0.14459 0.27351 0.31562 0.53562 0.5 0.78125 0.18438 0.24564 0.37378 0.47347 0.59375 0.6875 0.43995 0.42806 0.94291 0.81453 1.5 1.0938 0.27854 0.13961 0.57347 0.24695 0.875 0.34375-0.2562-0.10022-0.48671-0.23627-0.71875-0.375-0.00741-0.0044-0.023866 0.0045-0.03125 0-0.0319-0.019-0.0622-0.042-0.0937-0.062-0.1204-0.077-0.231-0.164-0.3437-0.25-0.1062-0.081-0.2133-0.161-0.3126-0.25-0.1778-0.162-0.3473-0.346-0.4999-0.531-0.1075-0.131-0.2183-0.266-0.3124-0.407-0.0251-0.038-0.0385-0.086-0.0626-0.125-0.0647-0.103-0.1302-0.204-0.1874-0.312-0.1011-0.195-0.2057-0.416-0.2813-0.625-0.008-0.022-0.0236-0.041-0.0313-0.063-0.0318-0.092-0.0358-0.187-0.0624-0.281-0.0304-0.107-0.0704-0.203-0.0938-0.313-0.0729-0.341-0.125-0.698-0.125-1.062v-72c0-2.782 2.2182-5 5-5h72c2.7818 0 5 2.2182 5 5v72c0 0.3643-0.05212 0.72099-0.125 1.0625-0.04415 0.20689-0.08838 0.39766-0.15625 0.59375-0.0077 0.02195-0.0233 0.04069-0.03125 0.0625-0.06274 0.17374-0.13838 0.36745-0.21875 0.53125-0.04158 0.0828-0.07904 0.16995-0.125 0.25-0.0546 0.09721-0.12677 0.18835-0.1875 0.28125-0.09411 0.14096-0.20492 0.276-0.3125 0.40625-0.14317 0.17445-0.30314 0.347-0.46875 0.5-0.01117 0.0102-0.01998 0.02115-0.03125 0.03125-0.13839 0.12556-0.28509 0.23444-0.4375 0.34375-0.10257 0.07315-0.20432 0.15336-0.3125 0.21875-0.0074 0.0045-0.02384-0.0044-0.03125 0-0.23204 0.13873-0.46255 0.27478-0.71875 0.375 0.30153-0.0968 0.59646-0.20414 0.875-0.34375 0.55709-0.27922 1.0601-0.66569 1.5-1.0938 0.21997-0.21403 0.40937-0.44186 0.59375-0.6875s0.35541-0.50774 0.5-0.78125c0.14012-0.26505 0.27614-0.52473 0.375-0.8125 0.01041-0.03078 0.02133-0.06274 0.03125-0.09375 0.09046-0.27808 0.1388-0.5794 0.1875-0.875 0.053-0.318 0.094-0.634 0.094-0.969v-72c0-3.324-2.676-6-6-6h-72z" fill="url(#m)"/>
 <path opacity=".2" d="m12 90c-3.324 0-6-2.676-6-6v-72c0-0.33472 0.04135-0.6507 0.09375-0.96875 0.0487-0.2956 0.09704-0.59692 0.1875-0.875 0.0099-0.03 0.0209-0.063 0.0313-0.094 0.0989-0.2873 0.2349-0.547 0.375-0.812 0.1446-0.2735 0.3156-0.5356 0.5-0.7812 0.1844-0.2457 0.3738-0.4735 0.5937-0.6876 0.44-0.428 0.943-0.8145 1.5-1.0937 0.2786-0.1396 0.5735-0.2469 0.8748-0.3437-0.256 0.1002-0.4865 0.2362-0.7185 0.375-0.00741 0.0044-0.023866-0.0045-0.03125 0-0.031933 0.0193-0.062293 0.04251-0.09375 0.0625-0.1204 0.0767-0.23102 0.16351-0.34375 0.25-0.10617 0.0808-0.21328 0.16111-0.3125 0.25-0.1779 0.1614-0.3474 0.3453-0.5 0.5312-0.1075 0.1303-0.2183 0.2653-0.3124 0.4063-0.0251 0.0383-0.0385 0.0858-0.0626 0.125-0.0647 0.103-0.1302 0.2045-0.1874 0.3124-0.1011 0.1948-0.2057 0.4158-0.2813 0.625-0.008 0.0219-0.0236 0.0406-0.0313 0.0626-0.0318 0.0919-0.0358 0.1868-0.0624 0.2812-0.0304 0.1066-0.0704 0.203-0.0938 0.3125-0.0729 0.3415-0.125 0.6985-0.125 1.0625v72c0 2.7818 2.2182 5 5 5h72c2.7818 0 5-2.2182 5-5v-72c0-0.364-0.052-0.721-0.125-1.0625-0.044-0.2069-0.088-0.3977-0.156-0.5937-0.008-0.022-0.024-0.0407-0.031-0.0626-0.063-0.1737-0.139-0.3674-0.219-0.5312-0.042-0.0828-0.079-0.17-0.125-0.25-0.055-0.0972-0.127-0.1884-0.188-0.2812-0.094-0.141-0.205-0.276-0.312-0.4063-0.143-0.1745-0.303-0.347-0.469-0.5-0.011-0.0102-0.02-0.0211-0.031-0.0313-0.139-0.1255-0.285-0.2344-0.438-0.3437-0.102-0.0731-0.204-0.1534-0.312-0.2187-0.0074-0.0045-0.02384 0.0044-0.03125 0-0.23204-0.13873-0.46255-0.27478-0.71875-0.375 0.30153 0.0968 0.59646 0.20414 0.875 0.34375 0.55709 0.27922 1.0601 0.66569 1.5 1.0938 0.21997 0.21403 0.40937 0.44186 0.59375 0.6875s0.35541 0.50774 0.5 0.78125c0.14012 0.26505 0.27614 0.52473 0.375 0.8125 0.01041 0.03078 0.02133 0.06274 0.03125 0.09375 0.09046 0.27808 0.1388 0.5794 0.1875 0.875 0.053 0.318 0.094 0.634 0.094 0.969v72c0 3.324-2.676 6-6 6h-72z" fill="url(#e)"/>
 <rect opacity=".1" clip-path="url(#f)" rx="12" ry="12" height="66" filter="url(#g)" width="66" stroke="#fff" stroke-linecap="round" y="15" x="15" stroke-width=".5" fill="url(#h)"/>
 <path opacity=".05" d="m48 14.75c-20.117 0-37.25 13.556-37.25 31.25 0 10.082 5.918 18.698 14.344 24.281-0.15691 0.52532-0.26659 1.039-0.625 1.5938-0.91988 1.4238-2.1321 2.6471-4.8438 3.4375-0.01115 0.0032-0.02005-0.0032-0.03125 0-0.01706 0.0041-0.01361-0.0051-0.03125 0-0.06018 0.01709-0.12731 0.03202-0.125 0.03125 0.0027-0.000911-0.10648 0.04343-0.15625 0.0625-0.01244 0.0048-0.03191 0.03154-0.03125 0.03125l-0.125 0.03125a1.2012 1.2012 0 0 0 -0.03125 0v0.03125a1.2012 1.2012 0 0 0 -0.0625 0 1.2012 1.2012 0 0 0 0 0.03125 1.2012 1.2012 0 0 0 -0.03125 0 1.2012 1.2012 0 0 0 -0.125 0.0625 1.2012 1.2012 0 0 0 -0.09375 0.03125s-0.04304 0.06225-0.09375 0.09375a1.2012 1.2012 0 0 0 -0.03125 0c-0.01203 0.0075-0.0194 0.02387-0.03125 0.03125-0.0071 0.0044-0.02439-0.0043-0.03125 0 0.000311-0.0016-0.02944 0.000453-0.03125 0-0.01135 0.0055 0.0064 0.02802 0 0.03125-0.0064 0.0032-0.02556-0.0029-0.03125 0-0.0173 0.0078-0.0138-0.0022-0.0625 0.03125a1.2012 1.2012 0 0 0 -0.0625 0.03125c-0.02259 0.01561-0.0032 0.01018-0.03125 0.03125-0.08339 0.05003-0.01856 0.02974-0.0625 0.0625 0.000255-0.0016-0.02938 0.000414-0.03125 0a1.2012 1.2012 0 0 0 -0.064 0.063c-0.02131 0.01331 0.0037 0.0063-0.03125 0.03125-0.02227 0.01587-0.0025-0.0216-0.03125 0a1.2012 1.2012 0 0 0 -0.0625 0.03125c-0.0002 0.000987-0.0036 0.03323 0 0.03125 0.0036-0.002-0.035 0.0024-0.03125 0a1.2012 1.2012 0 0 0 -0.21875 0.1875s-0.03924 0.06292-0.09375 0.125c-0.02725 0.03104-0.07117 0.03661-0.09375 0.0625-0.0056 0.0065 0.0051 0.02544 0 0.03125-0.0051 0.0058-0.02656-0.0054-0.03125 0-0.0011 0.000663 0.0026 0.02921 0 0.03125-0.0076 0.0071 0.0073 0.02449 0 0.03125a1.2012 1.2012 0 0 0 -0.03125 0.03125 1.2012 1.2012 0 0 0 -0.03125 0c-0.0052 0.0048 0.0042 0.02735 0 0.03125a1.2012 1.2012 0 0 0 -0.03125 0c-0.0029 0.0027 0.0016 0.02973 0 0.03125-0.0018 0.0017-0.03125-0.000005-0.03125 0a1.2012 1.2012 0 0 0 -0.0625 0.0625s-0.05453 0.07039-0.09375 0.125c-0.01961 0.02731-0.01399 0.03821-0.03125 0.0625-0.0048 0.0068-0.03376 0.03711-0.03125 0.03125a1.2012 1.2012 0 0 0 -0.032 0.034 1.2012 1.2012 0 0 0 0 0.031c-0.01159 0.01821 0.0056-0.03024-0.03125 0.03125a1.2012 1.2012 0 0 0 -0.031 0.031c0.0076-0.01071-0.03409 0.08806 0 0.03125-0.0066 0.01-0.02415-0.01127-0.03125 0-0.006 0.0091 0.0056 0.02198 0 0.03125a1.2012 1.2012 0 0 0 -0.0625 0.0625 1.2012 1.2012 0 0 0 -0.0625 0.125c-0.0021 0.0039 0.000015 0.03121 0 0.03125-0.0078 0.01754-0.03697 0.06771-0.0625 0.125-0.01543 0.03462-0.01866 0.06536-0.03125 0.09375s-0.0061-0.04717-0.0625 0.09375c0.10388-0.25972 0.05856-0.16201-0.03125 0.0625-0.01017 0.0212-0.02229 0.0089-0.03125 0.03125-0.008 0.02004 0.0069 0.01183 0 0.03125l-0.063 0.157a1.2012 1.2012 0 0 0 -0.0625 0.3125 1.2012 1.2012 0 0 0 0 0.03125c-0.0082 0.01102-0.0625 0.06249-0.0625 0.0625-0.0055 0.02756 0.004 0.0078 0 0.03125-0.0027 0.01126 0.0023 0.01981 0 0.03125-0.0042 0.01621-0.02797 0.01485-0.03125 0.03125-0.0042 0.02103 0.0032 0.01174 0 0.03125l-0.032 0.155a1.2012 1.2012 0 0 0 0 0.03125c-0.0055 0.02741 0.004 0.0079 0 0.03125-0.0027 0.01126 0.0023 0.01981 0 0.03125-0.0046 0.02317 0.0033 0.01139 0 0.03125-0.0014 0.0065-0.02995-0.0065-0.03125 0-0.02535 0.12674-0.001 0.11406 0 0.1875a1.2012 1.2012 0 0 0 -0.031 0.313v0.1875a1.2012 1.2012 0 0 0 0 0.09375 1.2012 1.2012 0 0 0 0 0.03125v0.03125a1.2012 1.2012 0 0 0 0 0.09375 1.2012 1.2012 0 0 0 0 0.0625s-0.0077 0.06251 0 0.125c0.0038 0.03125 0.02777 0.03514 0.03125 0.0625 0.0035 0.02736-0.04918-0.08964 0 0.15625 0.0033 0.01647 0.02708 0.01498 0.03125 0.03125 0.0025 0.0098-0.0028 0.02148 0 0.03125 0.004 0.02339-0.0055 0.0038 0 0.03125a1.2012 1.2012 0 0 0 0 0.03125l0.03125 0.15625a1.2012 1.2012 0 0 0 0.125 0.28125 1.2012 1.2012 0 0 0 0 0.03125c-0.00071 0.01656-0.000002 0.09374 0 0.09375 0.009 0.02249 0.02105 0.01 0.03125 0.03125 0.0102 0.02126 0.02005 0.01121 0.03125 0.03125-0.000537-0.0043 0.0414 0.13478 0 0.03125a1.2012 1.2012 0 0 0 0 0.03125l0.0625 0.15625a1.2012 1.2012 0 0 0 0 0.03125c0.009 0.02239 0.02108 0.01006 0.03125 0.03125s0.02007 0.01127 0.03125 0.03125c0.0044 0.009-0.0048 0.02234 0 0.03125a1.2012 1.2012 0 0 0 0 0.03125 1.2012 1.2012 0 0 0 0.03125 0.03125 1.2012 1.2012 0 0 0 0 0.03125 1.2012 1.2012 0 0 0 0.03125 0.03125 1.2012 1.2012 0 0 0 0.0625 0.125 1.2012 1.2012 0 0 0 0 0.03125 1.2012 1.2012 0 0 0 0.03125 0.09375l0.09375 0.15625c-0.0021-0.0035 0.12745 0.19079 0.125 0.1875l0.09375 0.125a1.2012 1.2012 0 0 0 0.25 0.25 1.2012 1.2012 0 0 0 0.0625 0.03125c0.03396 0.03875-0.01591 0.01534 0.03125 0.0625a1.2012 1.2012 0 0 0 0.09375 0.09375s0.02413 0.03173 0.0625 0.0625c0.0061 0.0049 0.02927-0.0018 0.03125 0l0.03125 0.03125c0.0017 0.0018 0.01733 0.02046 0.03125 0.03125a1.2012 1.2012 0 0 0 0.033 0.033c0.000044 0.000037 0.02773-0.0024 0.03125 0 0.0022 0.0015-0.0033 0.02902 0 0.03125a1.2012 1.2012 0 0 0 0.094 0.094h0.03125a1.2012 1.2012 0 0 0 0.094 0.094c-0.26162-0.19618-0.1894-0.13422 0.03125 0.03125 0.04616 0.03462 0.03062 0.0106 0.0625 0.03125a1.2012 1.2012 0 0 0 0.21875 0.15625s0.08702 0.03165 0.15625 0.0625c0.03462 0.01543 0.06536 0.01866 0.09375 0.03125s-0.04735 0.0061 0.09375 0.0625c-0.26005-0.10401-0.16189-0.05853 0.0625 0.03125 0.02117 0.01016 0.0089 0.0223 0.03125 0.03125 0.02002 0.008 0.01185-0.0069 0.03125 0l0.15625 0.0625 0.15625 0.0625a1.2012 1.2012 0 0 0 0.3125 0.0625c0.0039 0.0028 0.02816-0.0023 0.03125 0 0.01094 0.008 0.06249 0.0625 0.0625 0.0625 0.02753 0.0055 0.0078-0.004 0.03125 0 0.0097 0.0028 0.02143-0.0025 0.03125 0 0.01622 0.0042 0.01484 0.02797 0.03125 0.03125 0.02105 0.0042 0.01174-0.0032 0.03125 0l0.15625 0.03125a1.2012 1.2012 0 0 0 0.1875 0c-0.0023-0.000131 0.12728 0 0.125 0-0.0017 0 0.05646 0.0011 0.09375 0 0.01122 0.0012 0.02004-0.0011 0.03125 0-0.000022 0.000821 0.000018 0.03125 0 0.03125 0.0087-0.000002 0.01947 0 0.03125 0s0.05383-0.000002 0.0625 0v-0.03125c9.7538 0.95831 16.717-3.1403 20.906-6.9375 2.092 0.335 4.237 0.594 6.532 0.594 20.117 0 37.25-13.556 37.25-31.25s-17.133-31.25-37.25-31.25zm-27.562 68.5a1.2012 1.2012 0 0 0 0.03125 0v0.15625l-0.031-0.156z"/>
 <path opacity=".05" d="m48 15.938c-19.579 0-36.062 13.148-36.062 30.062 0 9.945 5.9764 18.491 14.594 23.875-0.21998 0.83356-0.43648 1.6873-1.0625 2.6562-1.0314 1.5963-2.548 3.0757-5.5312 3.9375-0.01077 0.0031-0.02044-0.0031-0.03125 0a1.0828 1.0828 0 0 0 -0.1875 0.0625l-0.15625 0.0625 0.40625 1c-0.21083-0.49864-0.43017-1.0029-0.4375-1-0.01466 0.0059-0.01172 0.02344-0.03125 0.03125-0.01953 0.0078-0.0479 0.02541-0.0625 0.03125-0.0146 0.0058-0.03125 0-0.03125 0s-0.23834 0.1475-0.25 0.15625c-0.01166 0.0087-0.04687 0.01953-0.0625 0.03125 0.01466-0.0088-0.0625 0.03125-0.0625 0.03125-0.012 0.009-0.023 0.028-0.032 0.033-0.01461 0.0088-0.03125 0-0.03125 0s-0.08203 0.08496-0.09375 0.09375c-0.01172 0.0088-0.04687 0.01953-0.0625 0.03125s-0.01957 0.02249-0.03125 0.03125c-0.01168 0.0088-0.03125 0-0.03125 0s-0.21001 0.23835-0.21875 0.25c-0.0087 0.01165-0.01953 0.01562-0.03125 0.03125-0.006 0.006 0.0063 0.025 0 0.03125-0.0023 0.003-0.02911-0.0028-0.03125 0-0.01328 0.01555-0.03125 0.03125-0.03125 0.03125l-0.032 0.033s-0.14748 0.20414-0.15625 0.21875c-0.0088 0.01461-0.01953 0.04296-0.03125 0.0625s-0.02245 0.01659-0.03125 0.03125-0.03125 0.03125-0.03125 0.03125c-0.0043 0.0057 0.0035 0.02658 0 0.03125-0.0087 0.01166-0.03125 0-0.03125 0s-0.11916 0.26665-0.125 0.28125c-0.0058 0.0146-0.02343 0.04296-0.03125 0.0625-0.0078 0.01954-0.02538 0.01659-0.03125 0.03125-0.0059 0.01466 0 0.03125 0 0.03125l-0.0625 0.15625 1 0.40625 1.0312 0.34375s-2.0908-0.54584-2.0938-0.53125c-0.0029 0.01459 0.0039 0.04297 0 0.0625s-0.02832 0.01659-0.03125 0.03125c-0.0029 0.01466 0 0.03125 0 0.03125l-0.032 0.157 0.71875 0.15625c-0.32438-0.05392-0.71776-0.12997-0.71875-0.125-0.0029 0.01467 0.0039 0.04296 0 0.0625s-0.02833 0.01666-0.03125 0.03125c-0.0029 0.01459 0 0.03125 0 0.03125l1.0625 0.21875h-1.0938v0.1875h1.0938c-0.5413 0.0092-1.0938 0.02392-1.0938 0.03125 0.000001 0.01466-0.000001 0.04296 0 0.0625s0 0.01665 0 0.03125v0.03125s0.02833 0.23539 0.03125 0.25c0.0029 0.01461 0.02734 0.01171 0.03125 0.03125 0.0039 0.01954-0.0029 0.04785 0 0.0625s0 0.03125 0 0.03125l0.03 0.157 1.063-0.219 1.031-0.281s-2.0371 0.70415-2.0312 0.71875c0.0058 0.0146 0.02344 0.01171 0.03125 0.03125 0.0078 0.01954 0.02539 0.04784 0.03125 0.0625 0.0059 0.01466 0 0.03125 0 0.03125l0.0625 0.15625 0.8125-0.34375c-0.39954 0.17642-0.81494 0.36891-0.8125 0.375 0.0059 0.01467 0.02343 0.01172 0.03125 0.03125 0.0078 0.01953 0.02541 0.04791 0.03125 0.0625 0.0058 0.01459 0 0.03125 0 0.03125l1-0.40625-0.9375 0.5625 0.09375 0.15625a1.0828 1.0828 0 0 0 0.063 0.094l0.09375 0.125 0.875-0.65625 0.84375-0.6875s-1.6054 1.4571-1.5938 1.4688c0.01169 0.01169 0.04687 0.01562 0.0625 0.03125s0.01953 0.05078 0.03125 0.0625c0 0 0.14459 0.11625 0.15625 0.125 0.01166 0.0087 0.01562 0.01953 0.03125 0.03125 0.0073 0.0073 0.02343 0.02344 0.03125 0.03125 0.0078 0.0066 0.02631-0.0042 0.03125 0 0.0073 0.0073-0.0058 0.02541 0 0.03125 0.01168 0.01167 0.03125 0.03125 0.03125 0.03125l0.125 0.09375c0.01172 0.0088 0.01562 0.01953 0.03125 0.03125s0.05082 0.02249 0.0625 0.03125c0.01168 0.0088 0 0.03125 0 0.03125s0.26667 0.11917 0.28125 0.125c0.01458 0.0058 0.04297 0.02343 0.0625 0.03125 0.01953 0.0078 0.01657 0.02538 0.03125 0.03125 0.01468 0.0059 0.03125 0 0.03125 0l0.15625 0.0625 0.15625 0.0625 0.40625-1 0.313-1.031s-0.5146 2.0908-0.5 2.0938c0.0146 0.0029 0.04297-0.0039 0.0625 0s0.0166 0.02832 0.03125 0.03125c0.01465 0.0029 0.03125 0 0.03125 0l0.15625 0.03125a1.0828 1.0828 0 0 0 0.125 0 1.0828 1.0828 0 0 0 0.0625 0.03125c-0.001-0.000016 0.09477-0.000016 0.09375 0v-0.03125c9.7462 1.0017 16.58-3.2481 20.562-7 2.216 0.37 4.49 0.656 6.876 0.656 19.579 0 36.062-13.148 36.062-30.062s-16.483-30.062-36.062-30.062zm2.7812 15.125c0.60149 0.000018 0.59144-0.0134 1 0.375 0.01551 0.01474 0.01445 0.01533 0.03125 0.03125a1.0828 1.0828 0 0 0 0.032 0.031c0.46322 0.43652 0.34374 0.17128 0.34375 0.71875-0.000008 0.55757 0.08353 0.36378-0.3125 0.71875-0.01407 0.01289-0.018 0.01916-0.03125 0.03125-0.37162 0.3389-0.46074 0.37501-1.0625 0.375-0.6068 0.000013-0.713-0.03482-1.0938-0.375-0.02392-0.02227-0.01031-0.01248-0.03125-0.03125-0.39602-0.35496-0.3125-0.16122-0.3125-0.71875-0.000004-0.58696-0.13266-0.30643 0.34375-0.75 0.43891-0.40862 0.47447-0.40623 1.0938-0.40625zm-3.4688 12.375c0.51469 0.09218 1.1358 0.14161 1.3438 0.3125-0.0015-0.0015 0.09538 0.09517 0.09375 0.09375 0.25852 0.22671 0.33586 0.31659 0.375 0.40625s0.06249 0.2701 0.0625 0.6875c-0.000015 0.22326 0.03249 0.60673-0.03125 1.2188a1.0828 1.0828 0 0 0 -0.031 0.031c-0.04207 0.50473-0.12211 0.97992-0.25 1.4062a1.0828 1.0828 0 0 0 0 0.03125l-1.875 6.625v0.03125c-0.17716 0.62233-0.36212 1.3181-0.5 2.0938-0.13701 0.77058-0.25002 1.4556-0.25 2.125-0.000009 0.71305 0.15869 1.5417 0.46875 2.3438-0.70023-0.09323-1.1727-0.2395-1.4375-0.46875-0.522-0.47649-0.46875-0.37179-0.46875-1.0938-0.000003-0.35477 0.0018-0.78178 0.0625-1.2188 0.06073-0.44938 0.19785-1.0149 0.34375-1.625a1.0828 1.0828 0 0 0 0.031 -0.312l1.6562-5.9375a1.0828 1.0828 0 0 0 0.03125 -0.03125 1.0828 1.0828 0 0 0 0.09375 -0.28125 1.0828 1.0828 0 0 0 0 -0.0625h0.03125a1.0828 1.0828 0 0 0 0 -0.03125c0.01001-0.03975 0.02612-0.07392 0.03125-0.09375a1.0828 1.0828 0 0 0 0 -0.0625c0.14901-0.57668 0.29577-1.1715 0.40625-1.75 0.08351-0.43734 0.07905-0.44903 0-0.03125 0.14704-0.71723 0.24999-1.4237 0.25-2.125-0.000004-0.69492-0.15336-1.4964-0.4375-2.2812z"/>
 <path opacity="0.12" d="m48 17.031c-19.097 0-34.969 12.762-34.969 28.969 0 9.8126 6.0152 18.31 14.812 23.5-0.22779 1.0474-0.61321 2.3008-1.4688 3.625-1.149 1.7784-2.9471 3.4814-6.2188 4.4062a0.98626 0.98626 0 0 0 -0.03125 0c0.000104-0.000035-0.15635 0.06254-0.15625 0.0625 0.000101-0.000043-0.15635 0.06255-0.15625 0.0625 0.000097-0.000052-0.12509 0.09381-0.125 0.09375 0.000092-0.00006-0.15634 0.09382-0.15625 0.09375 0.000087-0.000067-0.12508 0.09382-0.125 0.09375 0.000081-0.000074-0.09382 0.12508-0.09375 0.125 0.000074-0.000081-0.12507 0.12509-0.125 0.125 0.000067-0.000087-0.09381 0.15634-0.09375 0.15625 0.00006-0.000092-0.0938 0.1251-0.09375 0.125 0.000052-0.000097-0.06254 0.15635-0.0625 0.15625 0.000044-0.000101-0.06254 0.15635-0.0625 0.15625 0.000035-0.000104-0.03128 0.15636-0.03125 0.15625 0.000026-0.000107-0.03127 0.15636-0.03125 0.15625 0.000017-0.000109-0.03126 0.15636-0.03125 0.15625 0.000008-0.00011 0.000002 0.18761 0 0.1875s0.000011 0.15636 0 0.15625c-0.000011-0.000109 0.03127 0.15636 0.03125 0.15625-0.00002-0.000108 0.03128 0.15636 0.03125 0.15625-0.000029-0.000106 0.06254 0.15635 0.0625 0.15625-0.000038-0.000103 0.06255 0.15635 0.0625 0.15625-0.000046-0.0001 0.06255 0.15634 0.0625 0.15625-0.000055-0.000095 0.09381 0.15634 0.09375 0.15625-0.000062-0.000091 0.09382 0.12508 0.09375 0.125-0.00007-0.000085 0.12508 0.12508 0.125 0.125-0.000077-0.000079 0.12508 0.09382 0.125 0.09375-0.000083-0.000072 0.12509 0.12506 0.125 0.125-0.000089-0.000065 0.12509 0.09381 0.125 0.09375-0.000094-0.000057 0.15635 0.06255 0.15625 0.0625-0.000098-0.000049 0.15635 0.06254 0.15625 0.0625-0.000102-0.000041 0.15636 0.06253 0.15625 0.0625-0.000105-0.000032 0.15636 0.03127 0.15625 0.03125-0.000108-0.000023 0.15636 0.03126 0.15625 0.03125a0.98626 0.98626 0 0 0 0.03125 0c9.7546 1.0601 16.452-3.3592 20.25-7.0625 2.3307 0.41039 4.728 0.6875 7.2188 0.6875 19.098 0.001 34.97-12.761 34.97-28.968s-15.872-28.969-34.969-28.969zm2.7812 12.938c0.79039 0.000023 1.2145 0.18189 1.7812 0.71875a0.98626 0.98626 0 0 0 0.03125 0 0.98626 0.98626 0 0 0 0 0.03125c0.54254 0.51126 0.68749 0.80252 0.6875 1.5-0.00001 0.7096-0.1205 1.0034-0.6875 1.5312-0.53838 0.49346-1.0139 0.68752-1.8125 0.6875-0.80026 0.000017-1.2926-0.19118-1.8438-0.6875-0.56701-0.52788-0.6875-0.82167-0.6875-1.5312-0.000005-0.7095 0.12045-1.0033 0.6875-1.5312 0.5686-0.52937 1.0519-0.71873 1.8438-0.71875zm-4.1875 12.188c1.4004 0.000018 2.2091 0.30555 2.75 0.75a0.98626 0.98626 0 0 0 0.03125 0.03125 0.98626 0.98626 0 0 0 0.09375 0.09375c0.625 0.5481 0.81249 0.93249 0.8125 1.9062-0.000013 0.19526 0.0075 0.67138-0.0625 1.3438-0.04926 0.59111-0.16629 1.1376-0.3125 1.625l-1.875 6.6562c-0.173 0.60545-0.33681 1.2578-0.46875 2-0.13266 0.7461-0.21877 1.3796-0.21875 1.9375-0.000015 1.1526 0.24507 2.4816 1.3125 3.3438-0.38105 0.05711-0.65868 0.1875-1.125 0.1875-1.5163 0-2.3846-0.33804-2.9688-0.84375-0.63406-0.57878-0.84375-1.0145-0.84375-1.9062-0.000003-0.39967 0.02486-0.87902 0.09375-1.375 0.06933-0.51304 0.19431-1.0938 0.34375-1.7188h-0.031l1.8438-6.5625a0.98626 0.98626 0 0 0 0 -0.03125h0.03125a0.98626 0.98626 0 0 0 0 -0.0625c0.0114-0.04369 0.02002-0.08155 0.03125-0.125 0.15396-0.59571 0.30098-1.1675 0.40625-1.7188 0.0018-0.0095-0.0018-0.02175 0-0.03125 0.13951-0.67296 0.21874-1.3184 0.21875-1.9375-0.000007-1.1021-0.19818-2.3322-1.125-3.2188-0.06479-0.06197-0.15111-0.06987-0.21875-0.125 0.42556-0.0802 0.91404-0.21874 1.2812-0.21875z"/>
 <path opacity="0.24" d="m48 18.031c-18.66 0-33.969 12.408-33.969 27.969 0 9.6667 5.998 18.089 14.938 23.094-0.21052 1.1926-0.65132 2.862-1.75 4.5625-1.2551 1.9426-3.2901 3.8256-6.7812 4.8125a0.98224 0.98224 0 0 0 0.187 1.906c9.69 1.053 16.246-3.496 19.844-7.125 2.429 0.454 4.934 0.719 7.531 0.719 18.66 0 33.969-12.409 33.969-27.969s-15.309-27.969-33.969-27.969zm2.7812 10.938c1.0077 0.000029 1.7648 0.33312 2.4688 1a0.98224 0.98224 0 0 0 0.03125 0c0.71283 0.66371 0.99999 1.3343 1 2.25-0.000013 0.91577-0.28719 1.5864-1 2.25-0.70031 0.65118-1.4838 0.96877-2.5 0.96875-1.0162 0.000021-1.8162-0.31528-2.5312-0.96875-0.71282-0.66364-1-1.3342-1-2.25-0.000006-0.91568 0.28715-1.5863 1-2.25 0.71868-0.66909 1.5235-0.99997 2.5312-1zm-4.1875 12.188c1.6473 0.000021 2.7767 0.40993 3.5312 1.0938a0.98224 0.98224 0 0 0 0 0.03125c0.7892 0.69209 1.1562 1.4777 1.1562 2.6562-0.000017 0.24994-0.02084 0.73745-0.09375 1.4375-0.05533 0.66388-0.17974 1.2658-0.34375 1.8125l-1.875 6.6562c-0.16412 0.57438-0.31132 1.1964-0.4375 1.9062-0.12646 0.71122-0.18752 1.277-0.1875 1.75-0.000013 1.0302 0.19184 1.9603 0.9375 2.5625 0.71475 0.57733 1.6124 0.6875 2.6875 0.6875 0.32408 0 0.70232-0.09895 1.0625-0.15625-1.0209 0.39027-2.0234 0.77489-2.6875 1a0.98224 0.98224 0 0 0 -0.03125 0c-0.76479 0.27221-1.6746 0.4375-2.7812 0.4375-1.6751 0-2.8288-0.40446-3.625-1.0938-0.80405-0.72686-1.1875-1.5302-1.1875-2.6562-0.000003-0.47341 0.05309-0.98231 0.125-1.5 0.07417-0.54882 0.18711-1.1575 0.34375-1.8125l1.843-6.594a0.98224 0.98224 0 0 0 0 -0.03125c0.17427-0.66541 0.32733-1.2927 0.4375-1.875 0.13127-0.62353 0.18749-1.1867 0.1875-1.75-0.000006-0.99202-0.16613-1.8817-0.8125-2.5-0.65672-0.62812-1.5675-0.78123-2.6875-0.78125-0.33666 0.000014-0.64828 0.09628-0.96875 0.15625 0.85579-0.32529 1.7067-0.65967 2.5-0.90625a0.98224 0.98224 0 0 0 0.03125 0c1.0551-0.34218 1.9974-0.53123 2.875-0.53125z"/>
 <path d="m48 18c-18.225 0-33 12.088-33 27 0 9.4984 5.9998 17.843 15.062 22.656-0.34462 2.5088-1.914 8.6498-9.3438 10.75 9.6229 1.0458 16.014-3.6463 19.406-7.1875 2.525 0.506 5.162 0.782 7.876 0.782 18.225 0 33-12.088 33-27s-14.775-27-33-27zm2.7812 9c1.2343 0.000035 2.2877 0.42718 3.1562 1.25 0.88379 0.82289 1.3125 1.8107 1.3125 2.9688-0.000016 1.1581-0.42871 2.1459-1.3125 2.9688-0.86859 0.80765-1.922 1.2188-3.1562 1.2188-1.2343 0.000026-2.3037-0.4111-3.1875-1.2188-0.88382-0.82283-1.3125-1.8106-1.3125-2.9688-0.000008-1.1581 0.42868-2.1459 1.3125-2.9688 0.884-0.823 1.953-1.25 3.187-1.25zm-4.1875 12.188c1.8133 0.000023 3.2122 0.45996 4.1875 1.3438 0.99046 0.86859 1.4687 2.0044 1.4688 3.4062-0.00002 0.28954-0.01757 0.79984-0.09375 1.5312-0.06096 0.73144-0.19216 1.3905-0.375 2l-1.875 6.6562c-0.15239 0.53334-0.28436 1.1268-0.40625 1.8125-0.12192 0.68572-0.18751 1.212-0.1875 1.5625-0.000011 0.88382 0.19755 1.4925 0.59375 1.8125 0.39618 0.32 1.0872 0.46875 2.0625 0.46875 0.45713 0 0.98344-0.06635 1.5625-0.21875 0.57903-0.16762 0.99094-0.31558 1.25-0.4375l-0.5 2.0625c-1.5086 0.59428-2.726 1.039-3.625 1.3438-0.9 0.319-1.937 0.468-3.126 0.468-1.828 0-3.26-0.429-4.281-1.312-1.0057-0.89904-1.5-2.0348-1.5-3.4062-0.000003-0.53333 0.0488-1.0764 0.125-1.625 0.07619-0.5638 0.17613-1.2053 0.34375-1.9062l1.875-6.6562c0.16761-0.63998 0.29958-1.2487 0.40625-1.8125 0.1219-0.57903 0.1875-1.0901 0.1875-1.5625-0.000005-0.85332-0.18078-1.446-0.53125-1.7812-0.35048-0.33522-1.0095-0.53123-2-0.53125-0.48762 0.00002-0.98191 0.09765-1.5 0.25-0.50286 0.1524-0.94679 0.30038-1.3125 0.4375l0.5-2.0625c1.2343-0.50284 2.4349-0.93075 3.5625-1.2812 1.1276-0.36569 2.1818-0.56248 3.1875-0.5625z" fill="url(#n)"/>
 <path d="m48 18c-18.225 0-33 12.088-33 27 0 0.20841 0.0255 0.41773 0.03125 0.625 0.884-14.266 15.313-25.625 32.969-25.625 17.811 0 32.318 11.557 32.969 26 0.015-0.336 0.031-0.661 0.031-1 0-14.912-14.775-27-33-27zm-1.5938 14.219c-0.07734 0.31592-0.125 0.65378-0.125 1-0.000008 1.1581 0.42868 2.1459 1.3125 2.9688 0.8838 0.80765 1.9532 1.2188 3.1875 1.2188 1.2343 0.000026 2.2877-0.4111 3.1562-1.2188 0.88379-0.82283 1.3125-1.8106 1.3125-2.9688-0.000005-0.34622-0.04766-0.68408-0.125-1-0.18135 0.74083-0.56793 1.3919-1.1875 1.9688-0.86859 0.80765-1.922 1.2188-3.1562 1.2188-1.2343 0.000026-2.3037-0.4111-3.1875-1.2188-0.61959-0.57683-1.0062-1.2279-1.1875-1.9688zm-4.25 10.188c-0.31552 0.000013-0.64301 0.05487-0.96875 0.125-0.44524 0.16533-0.88731 0.31405-1.3438 0.5l-0.5 2.0625c0.36571-0.13712 0.80964-0.2851 1.3125-0.4375 0.51809-0.15235 1.0124-0.24998 1.5-0.25 0.99047 0.00002 1.6495 0.19603 2 0.53125 0.19739 0.18882 0.34975 0.4598 0.4375 0.8125 0.05642-0.36125 0.09375-0.71382 0.09375-1.0312-0.000005-0.85332-0.18078-1.446-0.53125-1.7812-0.35048-0.33522-1.0095-0.53123-2-0.53125zm10.031 2.75c-0.01103 0.13112-0.01567 0.16288-0.03125 0.3125-0.06096 0.73144-0.19216 1.3905-0.375 2l-1.875 6.6562c-0.15239 0.53334-0.28436 1.1268-0.40625 1.8125-0.12192 0.68572-0.18751 1.212-0.1875 1.5625-0.000005 0.37367 0.05429 0.69446 0.125 0.96875 0.02578-0.17278 0.02686-0.33082 0.0625-0.53125 0.12189-0.68571 0.25386-1.2792 0.40625-1.8125l1.875-6.6562c0.18284-0.60951 0.31404-1.2686 0.375-2 0.07618-0.73141 0.09373-1.2417 0.09375-1.5312-0.000003-0.27346-0.02585-0.52805-0.0625-0.78125zm-10.375 13.905c-0.04575 0.40857-0.0625 0.81934-0.0625 1.2188-0.000003 1.3714 0.49428 2.5072 1.5 3.4062 1.0209 0.88381 2.4527 1.3125 4.2812 1.3125 1.1886 0 2.2259-0.14874 3.125-0.46875 0.89903-0.30476 2.1164-0.74947 3.625-1.3438l0.5-2.0625c-0.25906 0.12192-0.67097 0.26988-1.25 0.4375-0.18875 0.04968-0.35428 0.06168-0.53125 0.09375-0.84103 0.31703-1.762 0.67779-2.3438 0.875-0.899 0.321-1.936 0.47-3.125 0.47-1.828 0-3.26-0.429-4.281-1.312-0.803-0.719-1.278-1.606-1.438-2.626zm-12.125 10.375c-0.78888 2.9258-2.9421 7.2652-8.9688 8.9688 1.4386 0.15635 2.7988 0.17086 4.0938 0.09375 3.9509-2.7354 4.9814-6.8885 5.25-8.8438-0.1292-0.06861-0.24706-0.14871-0.375-0.21875z" fill="url(#o)"/>
</svg>
