<?xml version="1.0" encoding="UTF-8" standalone="no"?>
<!-- Created with Inkscape (http://www.inkscape.org/) -->
<svg id="svg7384" xmlns:rdf="http://www.w3.org/1999/02/22-rdf-syntax-ns#" xmlns="http://www.w3.org/2000/svg" height="16" width="16" version="1.1" xmlns:cc="http://creativecommons.org/ns#" xmlns:dc="http://purl.org/dc/elements/1.1/">
 <metadata id="metadata90">
  <rdf:RDF>
   <cc:Work rdf:about="">
    <dc:format>image/svg+xml</dc:format>
    <dc:type rdf:resource="http://purl.org/dc/dcmitype/StillImage"/>
    <dc:title>Gnome Symbolic Icon Theme</dc:title>
   </cc:Work>
  </rdf:RDF>
 </metadata>
 <title id="title9167">Gnome Symbolic Icon Theme</title>
 <g id="layer15" transform="translate(-462 -382)">
  <g id="g35541" transform="translate(115.81 -581.18)">
   <path id="path35543" d="m70 823c-3.866 0-7 3.134-7 7s3.134 7 7 7 7-3.134 7-7-3.134-7-7-7zm-0.09375 1.9688a1.0001 1.0001 0 0 1 1.094 1.03v5a1.0001 1.0001 0 1 1 -2 0v-5a1.0001 1.0001 0 0 1 0.78125 -1 1.0001 1.0001 0 0 1 0.125 -0.0313zm0.094 8.03c0.55228 0 1 0.44772 1 1s-0.44772 1-1 1-1-0.44772-1-1 0.44772-1 1-1z" style="fill:#bebebe" transform="translate(284.19 141.18)"/>
  </g>
 </g>
</svg>
