<?xml version="1.0" encoding="UTF-8" standalone="no"?>
<svg xmlns="http://www.w3.org/2000/svg" height="32" width="32" version="1.1">
 <defs>
  <filter id="b" width="1.426" y="-.21306" x="-.21298" height="1.4261" color-interpolation-filters="sRGB">
   <feGaussianBlur stdDeviation="0.71020915"/>
  </filter>
  <radialGradient id="d" gradientUnits="userSpaceOnUse" cy="5.8191" cx="7.6583" gradientTransform="matrix(1.4402,0,0,1.4461,4.971,1.4209)" r="8.6929">
   <stop stop-color="#7b7b7b" offset="0"/>
   <stop stop-color="#101010" offset="1"/>
  </radialGradient>
  <filter id="filter4202" style="color-interpolation-filters:sRGB" height="1.192" width="1.192" y="-.096" x="-.096">
   <feGaussianBlur stdDeviation="0.93830505"/>
  </filter>
 </defs>
 <path opacity=".5" d="m27.729 16a11.729 11.729 0 0 0 -11.729 -11.729 11.729 11.729 0 0 0 -11.729 11.729 11.729 11.729 0 0 0 11.729 11.729 11.729 11.729 0 0 0 11.729 -11.729z" filter="url(#filter4202)" fill="#000000"/>
 <g transform="translate(0,1.415)">
  <path style="color:#000000" d="m5.0521 14.585c0-6.0748 4.9022-11 10.948-11 6.0463 0 10.948 4.9252 10.948 11s-4.9021 11-10.948 11c-6.0463 0-10.948-4.9252-10.948-11z" stroke="#eeeeec" stroke-width="2" fill="url(#d)"/>
  <path filter="url(#b)" d="m12.002 11.993v1c-0.02191 0.28075 0.07051 0.55537 0.28125 0.75l2.2812 2.2812-2.2812 2.25c-0.188 0.188-0.281 0.454-0.281 0.719v1h1c0.26529 0 0.53059-0.0931 0.71875-0.28125l2.281-2.29 2.281 2.29c0.18816 0.18815 0.45345 0.28124 0.71875 0.28125h1v-1c-0.000008-0.2653-0.09306-0.53058-0.28125-0.71875l-2.25-2.25 2.2812-2.2812c0.21566-0.19935 0.25-0.46353 0.25-0.75v-1h-1c-0.24083 0.007-0.42188 0.082-0.6875 0.3125l-2.3125 2.2812-2.282-2.28c-0.17763-0.18392-0.43255-0.3013-0.6875-0.3125-0.01046-0.00046-0.02088-0.00012-0.03125 0h-1z"/>
  <path fill="#ffffff" d="m12.002 10.626h1c0.01031-0.00012 0.02079-0.000459 0.03125 0 0.25495 0.01121 0.50986 0.12858 0.6875 0.3125l2.2811 2.2811 2.3125-2.2811c0.26562-0.2305 0.44667-0.3055 0.6875-0.3125h1v1c0 0.28647-0.03435 0.55065-0.25 0.74999l-2.2811 2.2811 2.25 2.25c0.18818 0.18817 0.28124 0.45345 0.28124 0.71875v1h-1c-0.26529-0.000011-0.53058-0.0931-0.71874-0.28124l-2.2798-2.2798-2.2818 2.2811c-0.18824 0.18838-0.45348 0.2805-0.71885 0.2805h-0.9999v-1c-0.000003-0.26529 0.09306-0.53058 0.28124-0.71875l2.2811-2.2495-2.2811-2.2811c-0.21-0.194-0.302-0.468-0.28-0.749v-1z"/>
 </g>
</svg>
