<?xml version="1.0" encoding="UTF-8" standalone="no"?>
<svg xmlns="http://www.w3.org/2000/svg" height="27" width="76" version="1.1" xmlns:xlink="http://www.w3.org/1999/xlink">
 <defs>
  <radialGradient id="b" stop-color="#fff" gradientUnits="userSpaceOnUse" cy="487.5" cx="50.5" gradientTransform="matrix(1.2857 0 0 1.2857 -26.928 -613.28)" r="10.5">
   <stop offset="0"/>
   <stop stop-opacity="0" offset="1"/>
  </radialGradient>
  <radialGradient id="a" stop-color="#fff" gradientUnits="userSpaceOnUse" cy="488" cx="49" gradientTransform="matrix(1 0 0 .34868 -11 -156.66)" r="38">
   <stop offset="0"/>
   <stop stop-opacity="0" offset="1"/>
  </radialGradient>
 </defs>
 <g style="color:#000000">
  <rect opacity=".49375" rx="0" ry="0" height="2" width="76" y="12.5" x="0" fill="url(#a)"/>
  <path opacity=".43125" d="m51.5 13.5c0 7.457-6.044 13.5-13.5 13.5s-13.5-6.043-13.5-13.5c0-7.4571 6.044-13.5 13.5-13.5 7.4558 0 13.5 6.0441 13.5 13.5z" fill="url(#b)"/>
  <path d="m42.577 13.5c0 2.5282-2.0492 4.577-4.577 4.577s-4.577-2.0487-4.577-4.577c0-2.5282 2.0492-4.577 4.577-4.577s4.577 2.0492 4.577 4.577z" fill="#fff"/>
 </g>
</svg>
