<?xml version="1.0" encoding="UTF-8" standalone="no"?>
<svg
   xmlns:dc="http://purl.org/dc/elements/1.1/"
   xmlns:cc="http://creativecommons.org/ns#"
   xmlns:rdf="http://www.w3.org/1999/02/22-rdf-syntax-ns#"
   xmlns:svg="http://www.w3.org/2000/svg"
   xmlns="http://www.w3.org/2000/svg"
   xmlns:sodipodi="http://sodipodi.sourceforge.net/DTD/sodipodi-0.dtd"
   xmlns:inkscape="http://www.inkscape.org/namespaces/inkscape"
   enable-background="new 0 0 512 512"
   height="512px"
   id="Layer_1"
   version="1.1"
   viewBox="0 0 512 512"
   width="512px"
   xml:space="preserve"
   inkscape:version="0.48.4 r9939"
   sodipodi:docname="1393093246_FEZ-04.svg"><metadata
     id="metadata9"><rdf:RDF><cc:Work
         rdf:about=""><dc:format>image/svg+xml</dc:format><dc:type
           rdf:resource="http://purl.org/dc/dcmitype/StillImage" /><dc:title></dc:title></cc:Work></rdf:RDF></metadata><defs
     id="defs7" /><sodipodi:namedview
     pagecolor="#ffffff"
     bordercolor="#666666"
     borderopacity="1"
     objecttolerance="10"
     gridtolerance="10"
     guidetolerance="10"
     inkscape:pageopacity="0"
     inkscape:pageshadow="2"
     inkscape:window-width="2234"
     inkscape:window-height="1483"
     id="namedview5"
     showgrid="false"
     inkscape:zoom="1.3037281"
     inkscape:cx="338.31344"
     inkscape:cy="217.54557"
     inkscape:window-x="0"
     inkscape:window-y="45"
     inkscape:window-maximized="0"
     inkscape:current-layer="Layer_1" /><path
     d="m 452.93571,237.3007 c 0,0 -7.27652,-2.73653 -28.32801,-4.67855 -25.7402,-2.37958 -33.50515,-12.02707 -42.06697,-24.03769 h -0.1722 c -1.06612,-2.85474 -2.20816,-5.67344 -3.46527,-8.43501 l 0.0994,-0.0994 c -2.44376,-14.54364 -3.76662,-26.86112 12.7527,-46.74551 13.50257,-16.25475 16.72361,-23.34027 16.72361,-23.34027 -3.16859,-8.04128 -10.78719,-15.65829 -10.78719,-15.65829 0,0 -7.62092,-7.61937 -15.65828,-10.78327 0,0 -7.08552,3.21243 -23.34026,16.72048 -19.88441,16.51776 -32.20266,15.19099 -46.74551,12.75269 l -0.10021,0.0986 c -2.75842,-1.25632 -5.57323,-2.39367 -8.43421,-3.46527 v -0.16751 c -12.01142,-8.55867 -21.65812,-16.33223 -24.03848,-42.072444 -1.94517,-21.041313 -4.67776,-28.327222 -4.67776,-28.327222 -7.92856,-3.448048 -18.69932,-3.448048 -18.69932,-3.448048 0,0 -10.77544,0 -18.69772,3.448048 0,0 -2.7381,7.286692 -4.68012,28.327222 -2.38037,25.740214 -12.03255,33.513774 -24.0377,42.072444 v 0.16751 c -2.85472,1.0716 -5.675,2.20815 -8.435,3.46057 l -0.0955,-0.0939 c -14.54286,2.44768 -26.86112,3.76899 -46.7455,-12.74721 -16.25319,-13.50335 -23.34811,-16.72205 -23.34811,-16.72205 -8.04127,3.17252 -15.64889,10.77936 -15.64889,10.77936 0,0 -7.62015,7.62641 -10.78405,15.66219 0,0 3.20852,7.08631 16.72126,23.33637 16.5162,19.88361 15.17689,32.20187 12.74644,46.74551 l 0.10018,0.0994 c -1.25788,2.76158 -2.39445,5.58028 -3.46682,8.43502 h -0.16675 c -8.55318,12.01532 -16.32753,21.6581 -42.06617,24.03769 -21.042878,1.94593 -28.337398,4.68793 -28.337398,4.68793 C 55.616463,245.2402 55.616463,256 55.616463,256 c 0,0 0,10.77936 3.448048,18.69774 0,0 7.277299,2.742 28.324091,4.67932 25.739418,2.38037 33.504388,12.03881 42.070868,24.03848 h 0.16752 c 1.07239,2.861 2.20817,5.67579 3.46683,8.43501 l -0.10018,0.0994 c 2.44846,14.54521 3.76898,26.86112 -12.74643,46.74551 -13.50414,16.25396 -16.72597,23.34888 -16.72597,23.34888 3.17721,8.03736 10.78248,15.64969 10.78248,15.64969 0,0 7.62564,7.62093 15.66299,10.77934 0,0 7.08161,-3.2046 23.33636,-16.71735 19.88361,-16.51619 32.20657,-15.17689 46.74472,-12.74955 l 0.1002,-0.10019 c 2.76001,1.25633 5.58028,2.38897 8.435,3.46526 v 0.1722 c 12.01454,8.55399 21.65734,16.32755 24.03771,42.06776 1.94516,21.04131 4.68323,28.33583 4.68323,28.33583 7.93326,3.43865 18.69382,3.43865 18.69382,3.43865 0,0 10.77936,0 18.69932,-3.44805 0,0 2.74276,-7.27807 4.67776,-28.32722 2.38036,-25.7402 12.03802,-33.50594 24.03848,-42.06774 v -0.17221 c 2.86098,-1.0763 5.67579,-2.20815 8.43421,-3.46527 l 0.10021,0.10018 c 14.54285,-2.44375 26.86033,-3.76662 46.74551,12.74957 16.25552,13.50492 23.35123,16.72675 23.35123,16.72675 8.03656,-3.178 15.64731,-10.78796 15.64731,-10.78796 0,0 7.6186,-7.62094 10.78719,-15.6583 0,0 -3.21243,-7.08707 -16.72361,-23.34027 -16.51932,-19.88361 -15.18785,-32.2003 -12.7527,-46.74551 l -0.0994,-0.0994 c 1.25632,-2.75922 2.39836,-5.57401 3.46527,-8.43501 h 0.1722 c 8.55398,-12.00828 16.32677,-21.65811 42.06697,-24.03848 21.04132,-1.94515 28.33662,-4.67932 28.33662,-4.67932 C 456.38454,266.77075 456.38454,256 456.38454,256 c 0,0 -7.8e-4,-10.77936 -3.44883,-18.6993 z M 255.99775,349.71724 c -51.75985,0 -93.71802,-41.95738 -93.71802,-93.71724 0,-51.75986 41.95817,-93.71724 93.71802,-93.71724 51.75908,0 93.71725,41.95738 93.71725,93.71724 0,51.75986 -41.95817,93.71724 -93.71725,93.71724 z"
     id="path3"
     inkscape:connector-curvature="0"
     style="fill:#7f7f7f" /></svg>