<?xml version="1.0" encoding="UTF-8" standalone="no"?>
<svg
   xmlns:dc="http://purl.org/dc/elements/1.1/"
   xmlns:cc="http://creativecommons.org/ns#"
   xmlns:rdf="http://www.w3.org/1999/02/22-rdf-syntax-ns#"
   xmlns:svg="http://www.w3.org/2000/svg"
   xmlns="http://www.w3.org/2000/svg"
   xmlns:sodipodi="http://sodipodi.sourceforge.net/DTD/sodipodi-0.dtd"
   xmlns:inkscape="http://www.inkscape.org/namespaces/inkscape"
   enable-background="new 0 0 512 512"
   height="512px"
   id="Layer_1"
   version="1.1"
   viewBox="0 0 512 512"
   width="512px"
   xml:space="preserve"
   inkscape:version="0.48.5 r10040"
   sodipodi:docname="menu-symbolic.svg"><metadata
     id="metadata9"><rdf:RDF><cc:Work
         rdf:about=""><dc:format>image/svg+xml</dc:format><dc:type
           rdf:resource="http://purl.org/dc/dcmitype/StillImage" /><dc:title /></cc:Work></rdf:RDF></metadata><defs
     id="defs7" /><sodipodi:namedview
     pagecolor="#ffffff"
     bordercolor="#666666"
     borderopacity="1"
     objecttolerance="10"
     gridtolerance="10"
     guidetolerance="10"
     inkscape:pageopacity="0"
     inkscape:pageshadow="2"
     inkscape:window-width="2234"
     inkscape:window-height="1483"
     id="namedview5"
     showgrid="false"
     inkscape:zoom="1.3037281"
     inkscape:cx="143.87106"
     inkscape:cy="217.54557"
     inkscape:window-x="449"
     inkscape:window-y="261"
     inkscape:window-maximized="0"
     inkscape:current-layer="Layer_1" /><path
     d="m 501.4176,232.69728 c 0,0 -9.06787,-3.41022 -35.30186,-5.83032 -32.07698,-2.9654 -41.75351,-14.98794 -52.4231,-29.95535 h -0.21458 c -1.32858,-3.55752 -2.75177,-7.07013 -4.31837,-10.51155 l 0.12389,-0.12388 c -3.04537,-18.12401 -4.6939,-33.47384 15.89218,-58.25339 16.82665,-20.25639 20.84065,-29.086247 20.84065,-29.086247 -3.94863,-10.020876 -13.44279,-19.513067 -13.44279,-19.513067 0,0 -9.49705,-9.495121 -19.51308,-13.437916 0,0 -8.82983,4.00327 -29.08619,20.836761 -24.77962,20.584129 -40.13039,18.930739 -58.25341,15.892179 l -0.12488,0.12287 c -3.43751,-1.56561 -6.94528,-2.982941 -10.51056,-4.318357 V 98.310274 C 300.11707,87.644604 288.09552,77.957334 285.12916,45.880341 282.70513,19.659036 279.29984,10.579469 279.29984,10.579469 269.4194,6.2825727 255.99707,6.2825727 255.99707,6.2825727 c 0,0 -13.42815,0 -23.30076,4.2968963 0,0 -3.41218,9.080544 -5.83228,35.300872 -2.96637,32.076993 -14.99474,41.764263 -29.95534,52.429933 v 0.208739 c -3.55751,1.335416 -7.07208,2.751747 -10.51154,4.312497 l -0.11903,-0.11699 c -18.12304,3.05025 -33.47384,4.69684 -58.25339,-15.885342 C 107.77029,70.001542 98.928734,65.990456 98.928734,65.990456 c -10.020879,3.953538 -19.50136,13.433043 -19.50136,13.433043 0,0 -9.496093,9.503896 -13.438889,19.517945 0,0 3.998396,8.830836 20.83773,29.081366 20.582205,24.77858 18.913175,40.12938 15.884395,58.2534 l 0.12484,0.12388 c -1.56756,3.44142 -2.983929,6.95403 -4.320285,10.51157 h -0.20782 C 87.648532,211.88493 77.960275,223.90158 45.885252,226.86699 19.661998,229.29196 10.571698,232.709 10.571698,232.709 6.2855327,242.59133 6.2855327,256 6.2855327,256 c 0,0 0,13.43305 4.2968933,23.30079 0,0 9.068841,3.41702 35.296973,5.83129 32.075999,2.96637 41.752555,15.00253 52.427946,29.95632 h 0.208771 c 1.336387,3.56534 2.751774,7.07306 4.320304,10.51156 l -0.12486,0.12386 c 3.05123,18.12598 4.69686,33.47384 -15.884363,58.25341 -16.828605,20.25539 -20.843597,29.09696 -20.843597,29.09696 3.959382,10.01601 13.436928,19.50235 13.436928,19.50235 0,0 9.502932,9.49707 19.518938,13.43302 0,0 8.824974,-3.99351 29.081344,-20.83286 24.77861,-20.58218 40.13526,-18.91317 58.25243,-15.88825 l 0.12489,-0.12487 c 3.43947,1.56563 6.95403,2.9771 10.51152,4.31835 v 0.2146 c 14.97232,10.65983 26.98899,20.3471 29.95536,52.42409 2.42404,26.22128 5.83615,35.31158 5.83615,35.31158 9.8863,4.28519 23.29591,4.28519 23.29591,4.28519 0,0 13.43305,0 23.30277,-4.29689 0,0 3.41796,-9.06981 5.82932,-35.30088 2.96636,-32.07696 15.00157,-41.75449 29.95634,-52.42406 v -0.2146 c 3.56528,-1.34127 7.07305,-2.75175 10.51056,-4.31836 l 0.12488,0.12486 c 18.12302,-3.04536 33.47285,-4.6939 58.25341,15.88828 20.25732,16.82958 29.09987,20.84457 29.09987,20.84457 10.01502,-3.96037 19.4994,-13.44377 19.4994,-13.44377 0,0 9.49416,-9.49707 13.44279,-19.51308 0,0 -4.00327,-8.83179 -20.84065,-29.08623 -20.58608,-24.7786 -18.92683,-40.12743 -15.89218,-58.25341 l -0.12389,-0.12386 c 1.56562,-3.4385 2.98881,-6.94622 4.31837,-10.51156 h 0.21458 c 10.65983,-14.96451 20.34612,-26.98995 52.4231,-29.95632 26.22131,-2.42401 35.31258,-5.83129 35.31258,-5.83129 C 505.71548,269.42233 505.71548,256 505.71548,256 c 0,0 -9.8e-4,-13.43305 -4.29788,-23.30272 z M 255.99707,372.78873 c -64.50219,0 -116.78969,-52.28652 -116.78969,-116.78873 0,-64.50221 52.2875,-116.78873 116.78969,-116.78873 64.50123,0 116.78874,52.28652 116.78874,116.78873 0,64.50221 -52.28751,116.78873 -116.78874,116.78873 z"
     id="path3"
     inkscape:connector-curvature="0"
     style="fill:#7f7f7f" /></svg>