<?xml version="1.0" encoding="UTF-8" standalone="no"?>
<svg xmlns="http://www.w3.org/2000/svg" height="48" width="96" version="1.1" xmlns:xlink="http://www.w3.org/1999/xlink">
 <g style="color:#000000">
  <g display="none">
   <rect height="24" width="24" y="0" x="0"/>
   <rect height="24" width="24" y="24" x="0"/>
   <rect height="24" width="24" y="0" x="24"/>
   <rect height="24" width="24" y="24" x="24"/>
   <rect height="24" width="24" y="0" x="48"/>
   <rect height="24" width="24" y="24" x="48"/>
   <rect height="24" width="24" y="0" x="72"/>
   <rect height="24" width="24" y="24" x="72"/>
  </g>
  <g id="h" transform="matrix(.2824 0 0 .2824 146.92 -382.52)" stroke="#fff" stroke-linecap="round" stroke-width="7.0821" fill="none">
   <path opacity=".6" d="m-477.76 1373.4v9.4717"/>
   <path opacity=".7" d="m-461.02 1380.3-7.2343 7.3824"/>
   <path opacity=".8" d="m-454.08 1397h-9.4716"/>
   <path opacity=".9" d="m-461.02 1413.8-6.9383-7.0864"/>
   <path d="m-477.76 1420.7 0.00009-9.4716"/>
   <path opacity=".3" d="m-494.5 1413.8 6.7905-6.9384"/>
   <path opacity=".4" d="m-501.44 1397h9.4717"/>
   <path opacity=".5" d="m-494.5 1380.3 6.6424 6.9384"/>
  </g>
 </g>
 <use id="i" xlink:href="#h" transform="matrix(.70711 .70711 -.70711 .70711 36 -4.9706)" height="400" width="400" y="0" x="0"/>
 <use id="j" xlink:href="#i" transform="matrix(.70711 .70711 -.70711 .70711 43.032 -21.91)" height="400" width="400" y="0" x="0"/>
 <use id="k" xlink:href="#j" transform="matrix(.70711 .70711 -.70711 .70711 50.082 -38.905)" height="400" width="400" y="0" x="0"/>
 <use id="l" xlink:href="#k" transform="matrix(.70711 .70711 -.70711 .70711 -38.92 -31.872)" height="400" width="400" y="0" x="0"/>
 <use id="m" xlink:href="#l" transform="matrix(.70711 .70711 -.70711 .70711 52.987 2.0891)" height="400" width="400" y="0" x="0"/>
 <use id="n" xlink:href="#m" transform="matrix(.70711 .70711 -.70711 .70711 60.013 -14.913)" height="400" width="400" y="0" x="0"/>
 <use xlink:href="#n" transform="matrix(.70711 .70711 -.70711 .70711 67.022 -31.859)" height="400" width="400" y="0" x="0"/>
</svg>
