<?xml version="1.0" encoding="UTF-8" standalone="no"?>
<svg
   xmlns:dc="http://purl.org/dc/elements/1.1/"
   xmlns:cc="http://creativecommons.org/ns#"
   xmlns:rdf="http://www.w3.org/1999/02/22-rdf-syntax-ns#"
   xmlns:svg="http://www.w3.org/2000/svg"
   xmlns="http://www.w3.org/2000/svg"
   xmlns:sodipodi="http://sodipodi.sourceforge.net/DTD/sodipodi-0.dtd"
   xmlns:inkscape="http://www.inkscape.org/namespaces/inkscape"
   width="24.000006"
   height="24.000008"
   id="svg2"
   version="1.1"
   inkscape:version="0.48.3.1 r9886"
   sodipodi:docname="radiobutton.svg">
  <sodipodi:namedview
     pagecolor="#ffffff"
     bordercolor="#666666"
     borderopacity="1"
     objecttolerance="10"
     gridtolerance="10"
     guidetolerance="10"
     inkscape:pageopacity="0"
     inkscape:pageshadow="2"
     inkscape:window-width="707"
     inkscape:window-height="522"
     id="namedview20"
     showgrid="false"
     fit-margin-top="0"
     fit-margin-left="0"
     fit-margin-right="0"
     fit-margin-bottom="0"
     inkscape:zoom="4.4402956"
     inkscape:cx="25.874779"
     inkscape:cy="10.092769"
     inkscape:window-x="92"
     inkscape:window-y="382"
     inkscape:window-maximized="0"
     inkscape:current-layer="g9" />
  <defs
     id="defs4">
    <filter
       id="filter4352"
       color-interpolation-filters="sRGB">
      <feGaussianBlur
         id="feGaussianBlur4354"
         stdDeviation="4.505684" />
    </filter>
  </defs>
  <metadata
     id="metadata18591">image/svg+xml<rdf:RDF>
  <cc:Work
     rdf:about="">
    <dc:format>image/svg+xml</dc:format>
    <dc:type
       rdf:resource="http://purl.org/dc/dcmitype/StillImage" />
  </cc:Work>
</rdf:RDF>
</metadata>
  <g
     id="g9"
     transform="matrix(0.11862705,0,0,0.11862706,-0.637485,-0.55592895)">
    <title
       id="title11">Layer 1</title>
    <path
       stroke-miterlimit="4"
       id="path4346"
       d="m 190.86055,105.84055 c 0,46.58175 -37.76196,84.34375 -84.34372,84.34375 -46.581756,0 -84.34373,-37.76198 -84.34373,-84.34375 0,-46.581735 37.761974,-84.343697 84.34373,-84.343697 46.58176,0 84.34372,37.761963 84.34372,84.343697 z"
       inkscape:connector-curvature="0"
       style="fill:#ffffff;fill-rule:nonzero;stroke:#000000;stroke-width:12;stroke-linecap:round;stroke-linejoin:round;stroke-miterlimit:4;stroke-dashoffset:0;filter:url(#filter4352)" />
    <path
       stroke-miterlimit="4"
       d="m 189.86055,104.84055 c 0,46.58175 -37.76196,84.34375 -84.34372,84.34375 -46.581756,0 -84.34373,-37.76198 -84.34373,-84.34375 0,-46.581735 37.761974,-84.343697 84.34373,-84.343697 46.58176,0 84.34372,37.761963 84.34372,84.343697 z"
       id="path4337"
       inkscape:connector-curvature="0"
       style="fill:none;fill-rule:nonzero;stroke:#c2dda7;stroke-width:12;stroke-linecap:round;stroke-linejoin:round;stroke-miterlimit:4;stroke-dashoffset:0;stroke-opacity:0;fill-opacity:1" />
    <g
       transform="matrix(0.186326,0,0,0.186326,-2198.53,-1179.12)"
       id="g18353"
       style="fill-rule:evenodd" />
    <g
       transform="matrix(0.186326,0,0,0.186326,-2198.53,-1179.12)"
       id="g18355"
       style="fill-rule:evenodd" />
    <g
       transform="matrix(0.186326,0,0,0.186326,-2198.53,-1179.12)"
       id="g18357"
       style="fill-rule:evenodd" />
    <g
       transform="matrix(0.186326,0,0,0.186326,-2198.53,-1179.12)"
       id="g18359"
       style="fill-rule:evenodd" />
    <path
       id="path3787"
       d="m 143.93051,105.84056 c 0,20.66301 -16.75068,37.4137 -37.41369,37.4137 -20.663,0 -37.413679,-16.75068 -37.413679,-37.4137 0,-20.663001 16.750679,-37.41368 37.413679,-37.41368 20.66301,0 37.41369,16.750679 37.41369,37.41368 z"
       inkscape:connector-curvature="0"
       style="fill:#000000;fill-rule:nonzero;stroke-width:12" />
  </g>
</svg>
