<?xml version="1.0" encoding="UTF-8" standalone="no"?>
<!-- Created with Inkscape (http://www.inkscape.org/) -->

<svg
   xmlns:dc="http://purl.org/dc/elements/1.1/"
   xmlns:cc="http://creativecommons.org/ns#"
   xmlns:rdf="http://www.w3.org/1999/02/22-rdf-syntax-ns#"
   xmlns:svg="http://www.w3.org/2000/svg"
   xmlns="http://www.w3.org/2000/svg"
   xmlns:xlink="http://www.w3.org/1999/xlink"
   xmlns:sodipodi="http://sodipodi.sourceforge.net/DTD/sodipodi-0.dtd"
   xmlns:inkscape="http://www.inkscape.org/namespaces/inkscape"
   version="1.1"
   width="64"
   height="22"
   id="svg3273"
   inkscape:version="0.48.2 r9819"
   sodipodi:docname="toggle-off-us.svg">
  <sodipodi:namedview
     pagecolor="#1e1e1e"
     bordercolor="#bc1010"
     borderopacity="1"
     objecttolerance="10"
     gridtolerance="10"
     guidetolerance="10"
     inkscape:pageopacity="1"
     inkscape:pageshadow="2"
     inkscape:window-width="1920"
     inkscape:window-height="1146"
     id="namedview68"
     showgrid="true"
     showguides="true"
     inkscape:guide-bbox="true"
     inkscape:showpageshadow="false"
     showborder="false"
     inkscape:zoom="16.929914"
     inkscape:cx="31.867135"
     inkscape:cy="14.117718"
     inkscape:window-x="0"
     inkscape:window-y="0"
     inkscape:window-maximized="1"
     inkscape:current-layer="layer2">
    <inkscape:grid
       type="xygrid"
       id="grid3045"
       empspacing="8"
       visible="true"
       enabled="true"
       snapvisiblegridlinesonly="true" />
    <sodipodi:guide
       orientation="1,0"
       position="0,14"
       id="guide4279" />
    <sodipodi:guide
       orientation="0,1"
       position="38,22"
       id="guide4281" />
    <sodipodi:guide
       orientation="0,1"
       position="35,0"
       id="guide4283" />
    <sodipodi:guide
       orientation="1,0"
       position="64,7"
       id="guide4285" />
  </sodipodi:namedview>
  <defs
     id="defs3275">
    <linearGradient
       id="linearGradient3894">
      <stop
         style="stop-color:#333333;stop-opacity:1;"
         offset="0"
         id="stop3896" />
      <stop
         style="stop-color:#555555;stop-opacity:0;"
         offset="1"
         id="stop3898" />
    </linearGradient>
    <linearGradient
       id="linearGradient4649">
      <stop
         id="stop4651"
         style="stop-color:#000000;stop-opacity:0;"
         offset="0" />
      <stop
         id="stop4653"
         style="stop-color:#000000;stop-opacity:0.27450982;"
         offset="1" />
    </linearGradient>
    <linearGradient
       id="linearGradient3921">
      <stop
         offset="0"
         style="stop-color:#ffffff;stop-opacity:0;"
         id="stop3923" />
      <stop
         offset="1"
         style="stop-color:#ffffff;stop-opacity:0.15686275;"
         id="stop3925" />
    </linearGradient>
    <linearGradient
       inkscape:collect="always"
       id="linearGradient3985">
      <stop
         style="stop-color:#ffffff;stop-opacity:1;"
         offset="0"
         id="stop3987" />
      <stop
         style="stop-color:#ffffff;stop-opacity:0;"
         offset="1"
         id="stop3989" />
    </linearGradient>
    <linearGradient
       id="linearGradient3938">
      <stop
         style="stop-color:#a0a0a0;stop-opacity:1;"
         offset="0"
         id="stop3940" />
      <stop
         style="stop-color:#dcdcdc;stop-opacity:1;"
         offset="1"
         id="stop3942" />
    </linearGradient>
    <linearGradient
       id="linearGradient4095">
      <stop
         id="stop4097"
         style="stop-color:#131313;stop-opacity:1"
         offset="0" />
      <stop
         id="stop4099"
         style="stop-color:#131313;stop-opacity:0"
         offset="1" />
    </linearGradient>
    <linearGradient
       inkscape:collect="always"
       xlink:href="#linearGradient3921"
       id="linearGradient3152"
       gradientUnits="userSpaceOnUse"
       gradientTransform="translate(-64.499996,-20.499994)"
       x1="40.8125"
       y1="19.5"
       x2="40.8125"
       y2="-0.5" />
    <linearGradient
       inkscape:collect="always"
       xlink:href="#linearGradient3938"
       id="linearGradient3128"
       gradientUnits="userSpaceOnUse"
       gradientTransform="translate(-32,0)"
       x1="48"
       y1="21"
       x2="48"
       y2="2" />
    <linearGradient
       id="linearGradient3990-9">
      <stop
         id="stop3992-5"
         style="stop-color:#ffffff;stop-opacity:1"
         offset="0" />
      <stop
         id="stop3994-0"
         style="stop-color:#ffffff;stop-opacity:0"
         offset="1" />
    </linearGradient>
    <linearGradient
       y2="39"
       x2="41"
       y1="1"
       x1="41"
       gradientUnits="userSpaceOnUse"
       id="linearGradient3077-4"
       xlink:href="#linearGradient4095"
       inkscape:collect="always"
       gradientTransform="matrix(1,0,0,-1,-32,22)" />
    <radialGradient
       inkscape:collect="always"
       xlink:href="#linearGradient3988"
       id="radialGradient4013"
       gradientUnits="userSpaceOnUse"
       gradientTransform="matrix(11,0,0,10,-448,-99)"
       cx="42.5"
       cy="11"
       fx="42.5"
       fy="11"
       r="0.5" />
    <linearGradient
       id="linearGradient3988">
      <stop
         id="stop3990"
         offset="0"
         style="stop-color:#000000;stop-opacity:1;" />
      <stop
         style="stop-color:#000000;stop-opacity:0.70588237;"
         offset="0.60000002"
         id="stop3997" />
      <stop
         id="stop3993"
         offset="1"
         style="stop-color:#000000;stop-opacity:0;" />
    </linearGradient>
    <radialGradient
       inkscape:collect="always"
       xlink:href="#linearGradient3976"
       id="radialGradient4011"
       gradientUnits="userSpaceOnUse"
       gradientTransform="matrix(11,0,0,10,-447,-99)"
       cx="42.5"
       cy="11"
       fx="42.5"
       fy="11"
       r="0.5" />
    <linearGradient
       id="linearGradient3976">
      <stop
         style="stop-color:#ffffff;stop-opacity:1;"
         offset="0"
         id="stop3978" />
      <stop
         id="stop3995"
         offset="0.60000002"
         style="stop-color:#ffffff;stop-opacity:0.70588237;" />
      <stop
         style="stop-color:#ffffff;stop-opacity:0;"
         offset="1"
         id="stop3980" />
    </linearGradient>
    <radialGradient
       inkscape:collect="always"
       xlink:href="#linearGradient3988"
       id="radialGradient4005"
       gradientUnits="userSpaceOnUse"
       gradientTransform="matrix(11,0,0,10,-452,-99)"
       cx="42.5"
       cy="11"
       fx="42.5"
       fy="11"
       r="0.5" />
    <radialGradient
       inkscape:collect="always"
       xlink:href="#linearGradient3976"
       id="radialGradient4003"
       gradientUnits="userSpaceOnUse"
       gradientTransform="matrix(11,0,0,10,-451,-99)"
       cx="42.5"
       cy="11"
       fx="42.5"
       fy="11"
       r="0.5" />
    <radialGradient
       inkscape:collect="always"
       xlink:href="#linearGradient3988"
       id="radialGradient3986"
       gradientUnits="userSpaceOnUse"
       gradientTransform="matrix(11,0,0,10,-456,-99)"
       cx="42.5"
       cy="11"
       fx="42.5"
       fy="11"
       r="0.5" />
    <radialGradient
       r="0.5"
       fy="11"
       fx="42.5"
       cy="11"
       cx="42.5"
       gradientTransform="matrix(11,0,0,10,-455,-99)"
       gradientUnits="userSpaceOnUse"
       id="radialGradient4077"
       xlink:href="#linearGradient3976"
       inkscape:collect="always" />
    <linearGradient
       inkscape:collect="always"
       xlink:href="#linearGradient3938"
       id="linearGradient3951"
       gradientUnits="userSpaceOnUse"
       gradientTransform="translate(-32,0)"
       x1="48"
       y1="21"
       x2="48"
       y2="2" />
    <linearGradient
       inkscape:collect="always"
       xlink:href="#linearGradient3990-9"
       id="linearGradient3953"
       gradientUnits="userSpaceOnUse"
       gradientTransform="translate(-32,0)"
       x1="41"
       y1="1"
       x2="41"
       y2="28" />
    <radialGradient
       inkscape:collect="always"
       xlink:href="#linearGradient3976"
       id="radialGradient3955"
       gradientUnits="userSpaceOnUse"
       gradientTransform="matrix(11,0,0,10,-455,-99)"
       cx="42.5"
       cy="11"
       fx="42.5"
       fy="11"
       r="0.5" />
    <radialGradient
       inkscape:collect="always"
       xlink:href="#linearGradient3988"
       id="radialGradient3957"
       gradientUnits="userSpaceOnUse"
       gradientTransform="matrix(11,0,0,10,-456,-99)"
       cx="42.5"
       cy="11"
       fx="42.5"
       fy="11"
       r="0.5" />
    <radialGradient
       inkscape:collect="always"
       xlink:href="#linearGradient3976"
       id="radialGradient3959"
       gradientUnits="userSpaceOnUse"
       gradientTransform="matrix(11,0,0,10,-451,-99)"
       cx="42.5"
       cy="11"
       fx="42.5"
       fy="11"
       r="0.5" />
    <radialGradient
       inkscape:collect="always"
       xlink:href="#linearGradient3988"
       id="radialGradient3961"
       gradientUnits="userSpaceOnUse"
       gradientTransform="matrix(11,0,0,10,-452,-99)"
       cx="42.5"
       cy="11"
       fx="42.5"
       fy="11"
       r="0.5" />
    <radialGradient
       inkscape:collect="always"
       xlink:href="#linearGradient3976"
       id="radialGradient3963"
       gradientUnits="userSpaceOnUse"
       gradientTransform="matrix(11,0,0,10,-447,-99)"
       cx="42.5"
       cy="11"
       fx="42.5"
       fy="11"
       r="0.5" />
    <radialGradient
       inkscape:collect="always"
       xlink:href="#linearGradient3988"
       id="radialGradient3965"
       gradientUnits="userSpaceOnUse"
       gradientTransform="matrix(11,0,0,10,-448,-99)"
       cx="42.5"
       cy="11"
       fx="42.5"
       fy="11"
       r="0.5" />
    <linearGradient
       inkscape:collect="always"
       xlink:href="#linearGradient3938"
       id="linearGradient3971"
       gradientUnits="userSpaceOnUse"
       gradientTransform="translate(-32,0)"
       x1="48"
       y1="21"
       x2="48"
       y2="2" />
    <linearGradient
       inkscape:collect="always"
       xlink:href="#linearGradient3938"
       id="linearGradient3975"
       gradientUnits="userSpaceOnUse"
       gradientTransform="translate(-32,0)"
       x1="48"
       y1="21"
       x2="48"
       y2="2" />
    <linearGradient
       inkscape:collect="always"
       xlink:href="#linearGradient3938"
       id="linearGradient3978"
       gradientUnits="userSpaceOnUse"
       gradientTransform="translate(-32,0)"
       x1="48"
       y1="21"
       x2="48"
       y2="2" />
    <linearGradient
       inkscape:collect="always"
       xlink:href="#linearGradient3938"
       id="linearGradient3983"
       gradientUnits="userSpaceOnUse"
       gradientTransform="translate(-32,0)"
       x1="48"
       y1="21"
       x2="48"
       y2="2" />
    <linearGradient
       inkscape:collect="always"
       xlink:href="#linearGradient3938"
       id="linearGradient4062"
       gradientUnits="userSpaceOnUse"
       gradientTransform="translate(-32,0)"
       x1="48"
       y1="21"
       x2="48"
       y2="2" />
    <linearGradient
       inkscape:collect="always"
       xlink:href="#linearGradient3938"
       id="linearGradient4066"
       gradientUnits="userSpaceOnUse"
       gradientTransform="translate(-32,0)"
       x1="48"
       y1="21"
       x2="48"
       y2="2" />
    <linearGradient
       inkscape:collect="always"
       xlink:href="#linearGradient3938"
       id="linearGradient4071"
       gradientUnits="userSpaceOnUse"
       gradientTransform="translate(-32,0)"
       x1="48"
       y1="21"
       x2="48"
       y2="2" />
    <linearGradient
       inkscape:collect="always"
       xlink:href="#linearGradient3985"
       id="linearGradient4074"
       gradientUnits="userSpaceOnUse"
       gradientTransform="matrix(1,0,0,-1,-32,22)"
       x1="48"
       y1="21"
       x2="48"
       y2="-4" />
    <radialGradient
       inkscape:collect="always"
       xlink:href="#linearGradient3988-5"
       id="radialGradient4013-9"
       gradientUnits="userSpaceOnUse"
       gradientTransform="matrix(11,0,0,10,-448,-99)"
       cx="42.5"
       cy="11"
       fx="42.5"
       fy="11"
       r="0.5" />
    <linearGradient
       id="linearGradient3988-5">
      <stop
         id="stop3990-8"
         offset="0"
         style="stop-color:#000000;stop-opacity:1;" />
      <stop
         style="stop-color:#000000;stop-opacity:0.70588237;"
         offset="0.60000002"
         id="stop3997-5" />
      <stop
         id="stop3993-8"
         offset="1"
         style="stop-color:#000000;stop-opacity:0;" />
    </linearGradient>
    <radialGradient
       inkscape:collect="always"
       xlink:href="#linearGradient3976-2"
       id="radialGradient4011-7"
       gradientUnits="userSpaceOnUse"
       gradientTransform="matrix(11,0,0,10,-447,-99)"
       cx="42.5"
       cy="11"
       fx="42.5"
       fy="11"
       r="0.5" />
    <linearGradient
       id="linearGradient3976-2">
      <stop
         style="stop-color:#ffffff;stop-opacity:1;"
         offset="0"
         id="stop3978-8" />
      <stop
         id="stop3995-9"
         offset="0.60000002"
         style="stop-color:#ffffff;stop-opacity:0.70588237;" />
      <stop
         style="stop-color:#ffffff;stop-opacity:0;"
         offset="1"
         id="stop3980-6" />
    </linearGradient>
    <radialGradient
       inkscape:collect="always"
       xlink:href="#linearGradient3988-5"
       id="radialGradient4005-9"
       gradientUnits="userSpaceOnUse"
       gradientTransform="matrix(11,0,0,10,-452,-99)"
       cx="42.5"
       cy="11"
       fx="42.5"
       fy="11"
       r="0.5" />
    <radialGradient
       inkscape:collect="always"
       xlink:href="#linearGradient3976-2"
       id="radialGradient4003-1"
       gradientUnits="userSpaceOnUse"
       gradientTransform="matrix(11,0,0,10,-451,-99)"
       cx="42.5"
       cy="11"
       fx="42.5"
       fy="11"
       r="0.5" />
    <radialGradient
       inkscape:collect="always"
       xlink:href="#linearGradient3988-5"
       id="radialGradient3986-1"
       gradientUnits="userSpaceOnUse"
       gradientTransform="matrix(11,0,0,10,-456,-99)"
       cx="42.5"
       cy="11"
       fx="42.5"
       fy="11"
       r="0.5" />
    <radialGradient
       r="0.5"
       fy="11"
       fx="42.5"
       cy="11"
       cx="42.5"
       gradientTransform="matrix(11,0,0,10,-455,-99)"
       gradientUnits="userSpaceOnUse"
       id="radialGradient4077-8"
       xlink:href="#linearGradient3976-2"
       inkscape:collect="always" />
    <linearGradient
       y2="28"
       x2="41"
       y1="1"
       x1="41"
       gradientUnits="userSpaceOnUse"
       id="linearGradient3077-4-9"
       xlink:href="#linearGradient3990-9-4"
       inkscape:collect="always"
       gradientTransform="translate(-32,0)" />
    <linearGradient
       id="linearGradient3990-9-4">
      <stop
         id="stop3992-5-7"
         style="stop-color:#ffffff;stop-opacity:1"
         offset="0" />
      <stop
         id="stop3994-0-8"
         style="stop-color:#ffffff;stop-opacity:0"
         offset="1" />
    </linearGradient>
    <linearGradient
       id="linearGradient3938-4">
      <stop
         style="stop-color:#a0a0a0;stop-opacity:1;"
         offset="0"
         id="stop3940-9" />
      <stop
         style="stop-color:#dcdcdc;stop-opacity:1;"
         offset="1"
         id="stop3942-9" />
    </linearGradient>
    <linearGradient
       y2="2"
       x2="48"
       y1="21"
       x1="48"
       gradientTransform="translate(-32,0)"
       gradientUnits="userSpaceOnUse"
       id="linearGradient3228"
       xlink:href="#linearGradient3938-4"
       inkscape:collect="always" />
    <linearGradient
       inkscape:collect="always"
       xlink:href="#linearGradient3938-4"
       id="linearGradient4265"
       gradientUnits="userSpaceOnUse"
       gradientTransform="translate(-32,0)"
       x1="48"
       y1="21"
       x2="48"
       y2="2" />
    <radialGradient
       inkscape:collect="always"
       xlink:href="#linearGradient3988-5-7"
       id="radialGradient4013-9-2"
       gradientUnits="userSpaceOnUse"
       gradientTransform="matrix(11,0,0,10,-447,-99)"
       cx="42.5"
       cy="11"
       fx="42.5"
       fy="11"
       r="0.5" />
    <linearGradient
       id="linearGradient3988-5-7">
      <stop
         id="stop3990-8-2"
         offset="0"
         style="stop-color:#000000;stop-opacity:1;" />
      <stop
         style="stop-color:#000000;stop-opacity:0.70588237;"
         offset="0.60000002"
         id="stop3997-5-7" />
      <stop
         id="stop3993-8-6"
         offset="1"
         style="stop-color:#000000;stop-opacity:0;" />
    </linearGradient>
    <radialGradient
       inkscape:collect="always"
       xlink:href="#linearGradient3976-2-0"
       id="radialGradient4011-7-2"
       gradientUnits="userSpaceOnUse"
       gradientTransform="matrix(11,0,0,10,-446,-99)"
       cx="42.5"
       cy="11"
       fx="42.5"
       fy="11"
       r="0.5" />
    <linearGradient
       id="linearGradient3976-2-0">
      <stop
         style="stop-color:#ffffff;stop-opacity:1;"
         offset="0"
         id="stop3978-8-5" />
      <stop
         id="stop3995-9-0"
         offset="0.60000002"
         style="stop-color:#ffffff;stop-opacity:0.70588237;" />
      <stop
         style="stop-color:#ffffff;stop-opacity:0;"
         offset="1"
         id="stop3980-6-1" />
    </linearGradient>
    <radialGradient
       inkscape:collect="always"
       xlink:href="#linearGradient3988-5-7"
       id="radialGradient4005-9-8"
       gradientUnits="userSpaceOnUse"
       gradientTransform="matrix(11,0,0,10,-451,-99)"
       cx="42.5"
       cy="11"
       fx="42.5"
       fy="11"
       r="0.5" />
    <radialGradient
       inkscape:collect="always"
       xlink:href="#linearGradient3976-2-0"
       id="radialGradient4003-1-6"
       gradientUnits="userSpaceOnUse"
       gradientTransform="matrix(11,0,0,10,-450,-99)"
       cx="42.5"
       cy="11"
       fx="42.5"
       fy="11"
       r="0.5" />
    <radialGradient
       inkscape:collect="always"
       xlink:href="#linearGradient3988-5-7"
       id="radialGradient3986-1-3"
       gradientUnits="userSpaceOnUse"
       gradientTransform="matrix(11,0,0,10,-455,-99)"
       cx="42.5"
       cy="11"
       fx="42.5"
       fy="11"
       r="0.5" />
    <radialGradient
       r="0.5"
       fy="11"
       fx="42.5"
       cy="11"
       cx="42.5"
       gradientTransform="matrix(11,0,0,10,-454,-99)"
       gradientUnits="userSpaceOnUse"
       id="radialGradient4077-8-1"
       xlink:href="#linearGradient3976-2-0"
       inkscape:collect="always" />
    <linearGradient
       y2="28"
       x2="41"
       y1="1"
       x1="41"
       gradientUnits="userSpaceOnUse"
       id="linearGradient3077-4-9-4"
       xlink:href="#linearGradient3990-9-4-5"
       inkscape:collect="always"
       gradientTransform="translate(-32,-1)" />
    <linearGradient
       id="linearGradient3990-9-4-5">
      <stop
         id="stop3992-5-7-1"
         style="stop-color:#ffffff;stop-opacity:1"
         offset="0" />
      <stop
         id="stop3994-0-8-2"
         style="stop-color:#ffffff;stop-opacity:0"
         offset="1" />
    </linearGradient>
    <linearGradient
       y2="2"
       x2="48"
       y1="21"
       x1="48"
       gradientTransform="translate(-32,-1)"
       gradientUnits="userSpaceOnUse"
       id="linearGradient3228-0"
       xlink:href="#linearGradient3938-4-7"
       inkscape:collect="always" />
    <linearGradient
       id="linearGradient3938-4-7">
      <stop
         style="stop-color:#a0a0a0;stop-opacity:1;"
         offset="0"
         id="stop3940-9-2" />
      <stop
         style="stop-color:#dcdcdc;stop-opacity:1;"
         offset="1"
         id="stop3942-9-2" />
    </linearGradient>
    <linearGradient
       inkscape:collect="always"
       xlink:href="#linearGradient3921-5"
       id="linearGradient3152-1"
       gradientUnits="userSpaceOnUse"
       gradientTransform="translate(-64.499996,-20.499994)"
       x1="40.8125"
       y1="18.499994"
       x2="40.8125"
       y2="0.49999401" />
    <linearGradient
       id="linearGradient3921-5">
      <stop
         offset="0"
         style="stop-color:#ffffff;stop-opacity:0;"
         id="stop3923-6" />
      <stop
         offset="1"
         style="stop-color:#ffffff;stop-opacity:0.15686275;"
         id="stop3925-4" />
    </linearGradient>
    <linearGradient
       inkscape:collect="always"
       xlink:href="#linearGradient3921-5"
       id="linearGradient4525"
       gradientUnits="userSpaceOnUse"
       gradientTransform="translate(-64.499996,-20.499994)"
       x1="40.8125"
       y1="18.499994"
       x2="40.8125"
       y2="0.49999401" />
    <linearGradient
       inkscape:collect="always"
       xlink:href="#linearGradient3938-4-7"
       id="linearGradient4529"
       gradientUnits="userSpaceOnUse"
       gradientTransform="translate(-32,-1)"
       x1="48"
       y1="21"
       x2="48"
       y2="2" />
    <linearGradient
       inkscape:collect="always"
       xlink:href="#linearGradient4649"
       id="linearGradient4550"
       gradientUnits="userSpaceOnUse"
       gradientTransform="matrix(-1,0,0,1,64.499996,1.500006)"
       x1="40.8125"
       y1="18.499994"
       x2="40.8125"
       y2="0.49999401" />
    <linearGradient
       y2="0.49999401"
       x2="40.8125"
       y1="18.499994"
       x1="40.8125"
       gradientTransform="matrix(-1,0,0,-1,64.499996,20.499994)"
       gradientUnits="userSpaceOnUse"
       id="linearGradient4443"
       xlink:href="#linearGradient3921-5-9"
       inkscape:collect="always" />
    <linearGradient
       id="linearGradient3921-5-9">
      <stop
         offset="0"
         style="stop-color:#ffffff;stop-opacity:0;"
         id="stop3923-6-1" />
      <stop
         offset="1"
         style="stop-color:#ffffff;stop-opacity:0.11764706;"
         id="stop3925-4-6" />
    </linearGradient>
    <linearGradient
       y2="0.49999401"
       x2="40.8125"
       y1="18.499994"
       x1="40.8125"
       gradientTransform="matrix(-1,0,0,-1,64.499996,20.499994)"
       gradientUnits="userSpaceOnUse"
       id="linearGradient4615"
       xlink:href="#linearGradient3921-5-9"
       inkscape:collect="always" />
    <linearGradient
       inkscape:collect="always"
       xlink:href="#linearGradient3921-5-9-9"
       id="linearGradient4621"
       gradientUnits="userSpaceOnUse"
       gradientTransform="matrix(-1,0,0,-1,64.499996,20.499994)"
       x1="40.8125"
       y1="18.499994"
       x2="40.8125"
       y2="0.49999401" />
    <linearGradient
       id="linearGradient3921-5-9-9">
      <stop
         offset="0"
         style="stop-color:#333333;stop-opacity:1;"
         id="stop3923-6-1-6" />
      <stop
         offset="1"
         style="stop-color:#555555;stop-opacity:1;"
         id="stop3925-4-6-6" />
    </linearGradient>
    <linearGradient
       y2="0.49999401"
       x2="40.8125"
       y1="18.499994"
       x1="40.8125"
       gradientTransform="matrix(-1,0,0,-1,64.499996,20.499994)"
       gradientUnits="userSpaceOnUse"
       id="linearGradient4641"
       xlink:href="#linearGradient3921-5-9-9"
       inkscape:collect="always" />
    <filter
       inkscape:collect="always"
       id="filter4004"
       x="-0.086736638"
       width="1.1734733"
       y="-0.1946467"
       height="1.3892934">
      <feGaussianBlur
         inkscape:collect="always"
         stdDeviation="0.66285313"
         id="feGaussianBlur4006" />
    </filter>
    <linearGradient
       inkscape:collect="always"
       xlink:href="#linearGradient3894"
       id="linearGradient3900"
       x1="2"
       y1="11"
       x2="62"
       y2="11"
       gradientUnits="userSpaceOnUse" />
  </defs>
  <metadata
     id="metadata3278">
    <rdf:RDF>
      <cc:Work
         rdf:about="">
        <dc:format>image/svg+xml</dc:format>
        <dc:type
           rdf:resource="http://purl.org/dc/dcmitype/StillImage" />
        <dc:title />
      </cc:Work>
    </rdf:RDF>
  </metadata>
  <g
     inkscape:groupmode="layer"
     id="layer2"
     inkscape:label="Trough">
    <path
       sodipodi:type="inkscape:offset"
       inkscape:radius="-1.0053965"
       inkscape:original="M 5 2 C 3.338 2 2 3.338 2 5 L 2 17 C 2 18.662 3.338 20 5 20 L 59 20 C 60.662 20 62 18.662 62 17 L 62 5 C 62 3.338 60.662 2 59 2 L 5 2 z "
       style="color:#000000;fill:url(#linearGradient4641);fill-opacity:1;stroke:none;stroke-width:0.99999994;marker:none;visibility:visible;display:inline;overflow:visible;enable-background:accumulate"
       id="path4619"
       d="M 5,3 C 3.8775991,3 3,3.8775991 3,5 l 0,12 c 0,1.122401 0.8775991,2 2,2 l 54,0 c 1.122401,0 2,-0.877599 2,-2 L 61,5 C 61,3.8775991 60.122401,3 59,3 L 5,3 z" />
    <path
       sodipodi:nodetypes="sssssssssccccc"
       inkscape:connector-curvature="0"
       style="opacity:0.07999998000000000;color:#000000;fill:url(#linearGradient3900);fill-opacity:1;stroke:none;stroke-width:0.99999994000000003;marker:none;visibility:visible;display:inline;overflow:visible;enable-background:accumulate"
       d="M 5,2 C 3.338,2 2,3.338 2,5 l 0,12 c 0,1.662 1.338,3 3,3 l 54,0 c 1.662,0 3,-1.338 3,-3 L 62,5 C 62,3.338 60.662,2 59,2 z m 0,3 54,0 0,12 -54,0 z"
       id="rect4052" />
    <path
       sodipodi:nodetypes="ssssssssssssssssss"
       inkscape:connector-curvature="0"
       style="opacity:0.12000002;color:#000000;fill:#000000;fill-opacity:1;stroke:none;stroke-width:0.99999994;marker:none;visibility:visible;display:inline;overflow:visible;enable-background:accumulate"
       d="M 5,2 C 3.338,2 2,3.338 2,5 l 0,12 c 0,1.662 1.338,3 3,3 l 54,0 c 1.662,0 3,-1.338 3,-3 L 62,5 C 62,3.338 60.662,2 59,2 z m 0,2 54,0 c 0.5825,0 1,0.4175 1,1 l 0,12 c 0,0.5825 -0.4175,1 -1,1 L 5,18 C 4.4175,18 4,17.5825 4,17 L 4,5 C 4,4.4175 4.4175,4 5,4 z"
       id="rect4042" />
    <path
       sodipodi:nodetypes="ssssssssssssssssss"
       inkscape:connector-curvature="0"
       style="opacity:0.2;color:#000000;fill:#ffffff;fill-opacity:1;stroke:none;stroke-width:0.99999994000000003;marker:none;visibility:visible;display:inline;overflow:visible;enable-background:accumulate"
       d="M 5,2 C 3.338,2 2,3.338 2,5 l 0,12 c 0,1.662 1.338,3 3,3 l 54,0 c 1.662,0 3,-1.338 3,-3 L 62,5 C 62,3.338 60.662,2 59,2 z m 0,1 54,0 c 1.117387,0 2,0.882613 2,2 l 0,12 c 0,1.117387 -0.882613,2 -2,2 L 5,19 C 3.8826128,19 3,18.117387 3,17 L 3,5 C 3,3.882613 3.8826128,3 5,3 z"
       id="rect4038" />
    <g
       transform="translate(-0.056827,0.79971051)"
       style="font-size:11px;font-style:normal;font-variant:normal;font-weight:bold;font-stretch:normal;line-height:125%;letter-spacing:0px;word-spacing:0px;opacity:0.5;fill:#000000;fill-opacity:1;stroke:none;filter:url(#filter4004);font-family:Aller;-inkscape-font-specification:Aller Bold"
       id="g3996">
      <path
         style="fill:#000000;fill-opacity:1"
         id="path3998"
         d="m 41.28764,14.821442 c -0.594004,0 -1.107337,-0.102667 -1.54,-0.308 -0.432669,-0.205333 -0.788335,-0.487666 -1.067,-0.847 -0.278668,-0.366666 -0.487668,-0.795665 -0.627,-1.287 -0.132001,-0.498664 -0.198001,-1.04133 -0.198,-1.628 -1e-6,-0.586662 0.066,-1.1293286 0.198,-1.6280003 0.139332,-0.5059939 0.348332,-0.9423268 0.627,-1.309 0.278665,-0.3666594 0.634331,-0.6526592 1.067,-0.858 0.432663,-0.2053254 0.945996,-0.307992 1.54,-0.308 0.593995,8e-6 1.107328,0.1026746 1.54,0.308 0.43266,0.2053408 0.788327,0.4913406 1.067,0.858 0.278659,0.3666732 0.483993,0.8030061 0.616,1.309 0.139326,0.4986717 0.208992,1.0413383 0.209,1.6280003 -8e-6,0.58667 -0.06967,1.129336 -0.209,1.628 -0.132007,0.491335 -0.337341,0.920334 -0.616,1.287 -0.278673,0.359334 -0.63434,0.641667 -1.067,0.847 -0.432672,0.205333 -0.946005,0.308 -1.54,0.308 m 0,-1.342 c 1.136661,10e-7 1.704994,-0.909332 1.705,-2.728 -6e-6,-0.9093288 -0.139339,-1.5913281 -0.418,-2.0460003 -0.271339,-0.4546602 -0.696672,-0.6819934 -1.276,-0.682 -1.151337,6.6e-6 -1.727003,0.9093391 -1.727,2.7280003 -3e-6,1.818668 0.571997,2.728001 1.716,2.728"
         inkscape:connector-curvature="0" />
      <path
         style="fill:#000000;fill-opacity:1"
         id="path4000"
         d="m 46.056827,6.7804417 4.488,0 c 0.044,0.2200077 0.066,0.4436741 0.066,0.671 -5e-6,0.242007 -0.02201,0.4730067 -0.066,0.693 l -2.882,0 0,1.8590003 2.288,0 c 0.044,0.234671 0.066,0.462004 0.066,0.682 -5e-6,0.23467 -0.02201,0.46567 -0.066,0.693 l -2.288,0 0,3.311 c -0.278669,0.044 -0.542668,0.066 -0.792,0.066 -0.271335,0 -0.542668,-0.022 -0.814,-0.066 l 0,-7.9090003"
         inkscape:connector-curvature="0" />
      <path
         style="fill:#000000;fill-opacity:1"
         id="path4002"
         d="m 51.642765,6.7804417 4.488,0 c 0.04399,0.2200077 0.06599,0.4436741 0.066,0.671 -6e-6,0.242007 -0.02201,0.4730067 -0.066,0.693 l -2.882,0 0,1.8590003 2.288,0 c 0.04399,0.234671 0.066,0.462004 0.066,0.682 -5e-6,0.23467 -0.02201,0.46567 -0.066,0.693 l -2.288,0 0,3.311 c -0.278669,0.044 -0.542669,0.066 -0.792,0.066 -0.271335,0 -0.542668,-0.022 -0.814,-0.066 l 0,-7.9090003"
         inkscape:connector-curvature="0" />
    </g>
    <g
       id="text4327"
       style="font-size:11px;font-style:normal;font-variant:normal;font-weight:bold;font-stretch:normal;line-height:125%;letter-spacing:0px;word-spacing:0px;fill:#ffffff;fill-opacity:1;stroke:none;font-family:Aller;-inkscape-font-specification:Aller Bold;opacity:0.5"
       transform="translate(-0.056827,0)">
      <path
         inkscape:connector-curvature="0"
         d="m 41.28764,14.821442 c -0.594004,0 -1.107337,-0.102667 -1.54,-0.308 -0.432669,-0.205333 -0.788335,-0.487666 -1.067,-0.847 -0.278668,-0.366666 -0.487668,-0.795665 -0.627,-1.287 -0.132001,-0.498664 -0.198001,-1.04133 -0.198,-1.628 -1e-6,-0.586662 0.066,-1.1293286 0.198,-1.6280003 0.139332,-0.5059939 0.348332,-0.9423268 0.627,-1.309 0.278665,-0.3666594 0.634331,-0.6526592 1.067,-0.858 0.432663,-0.2053254 0.945996,-0.307992 1.54,-0.308 0.593995,8e-6 1.107328,0.1026746 1.54,0.308 0.43266,0.2053408 0.788327,0.4913406 1.067,0.858 0.278659,0.3666732 0.483993,0.8030061 0.616,1.309 0.139326,0.4986717 0.208992,1.0413383 0.209,1.6280003 -8e-6,0.58667 -0.06967,1.129336 -0.209,1.628 -0.132007,0.491335 -0.337341,0.920334 -0.616,1.287 -0.278673,0.359334 -0.63434,0.641667 -1.067,0.847 -0.432672,0.205333 -0.946005,0.308 -1.54,0.308 m 0,-1.342 c 1.136661,10e-7 1.704994,-0.909332 1.705,-2.728 -6e-6,-0.9093288 -0.139339,-1.5913281 -0.418,-2.0460003 -0.271339,-0.4546602 -0.696672,-0.6819934 -1.276,-0.682 -1.151337,6.6e-6 -1.727003,0.9093391 -1.727,2.7280003 -3e-6,1.818668 0.571997,2.728001 1.716,2.728"
         id="path4489"
         style="fill:#ffffff;fill-opacity:1" />
      <path
         inkscape:connector-curvature="0"
         d="m 46.056827,6.7804417 4.488,0 c 0.044,0.2200077 0.066,0.4436741 0.066,0.671 -5e-6,0.242007 -0.02201,0.4730067 -0.066,0.693 l -2.882,0 0,1.8590003 2.288,0 c 0.044,0.234671 0.066,0.462004 0.066,0.682 -5e-6,0.23467 -0.02201,0.46567 -0.066,0.693 l -2.288,0 0,3.311 c -0.278669,0.044 -0.542668,0.066 -0.792,0.066 -0.271335,0 -0.542668,-0.022 -0.814,-0.066 l 0,-7.9090003"
         id="path4491"
         style="fill:#ffffff;fill-opacity:1" />
      <path
         inkscape:connector-curvature="0"
         d="m 51.642765,6.7804417 4.488,0 c 0.04399,0.2200077 0.06599,0.4436741 0.066,0.671 -6e-6,0.242007 -0.02201,0.4730067 -0.066,0.693 l -2.882,0 0,1.8590003 2.288,0 c 0.04399,0.234671 0.066,0.462004 0.066,0.682 -5e-6,0.23467 -0.02201,0.46567 -0.066,0.693 l -2.288,0 0,3.311 c -0.278669,0.044 -0.542669,0.066 -0.792,0.066 -0.271335,0 -0.542668,-0.022 -0.814,-0.066 l 0,-7.9090003"
         id="path4493"
         style="fill:#ffffff;fill-opacity:1" />
    </g>
  </g>
  <g
     inkscape:groupmode="layer"
     id="layer1"
     inkscape:label="Button"
     style="display:inline"
     sodipodi:insensitive="true">
    <path
       sodipodi:type="inkscape:offset"
       inkscape:radius="0.94267464"
       inkscape:original="M 5 0 C 2.2642981 0 0 2.2642981 0 5 L 0 17 C 0 19.735702 2.2642982 22 5 22 L 29 22 C 31.735702 22 34 19.735702 34 17 L 34 5 C 34 2.2642982 31.735702 0 29 0 L 5 0 z "
       style="opacity:0.05;color:#000000;fill:#000000;fill-opacity:1;fill-rule:nonzero;stroke:none;stroke-width:2;marker:none;visibility:visible;display:inline;overflow:visible;enable-background:accumulate"
       id="path4541"
       d="m 5,-0.9375 c -3.25586,0 -5.9375,2.68164 -5.9375,5.9375 l 0,12 c 0,3.25586 2.6816401,5.9375 5.9375,5.9375 l 24,0 c 3.25586,0 5.9375,-2.68164 5.9375,-5.9375 l 0,-12 c 0,-3.2558599 -2.68164,-5.9375 -5.9375,-5.9375 l -24,0 z" />
    <path
       sodipodi:type="inkscape:offset"
       inkscape:radius="1.0204744"
       inkscape:original="M 5 1.03125 C 2.8258474 1.03125 1.03125 2.8258474 1.03125 5 L 1.03125 17 C 1.03125 19.174153 2.8258474 20.96875 5 20.96875 L 29 20.96875 C 31.174153 20.96875 32.96875 19.174153 32.96875 17 L 32.96875 5 C 32.96875 2.8258474 31.174153 1.03125 29 1.03125 L 5 1.03125 z "
       style="opacity:0.1;color:#000000;fill:#000000;fill-opacity:1;fill-rule:nonzero;stroke:none;stroke-width:2;marker:none;visibility:visible;display:inline;overflow:visible;enable-background:accumulate"
       id="path4537"
       d="M 5,0 C 2.2642981,0 0,2.2642981 0,5 l 0,12 c 0,2.735702 2.2642982,5 5,5 l 24,0 c 2.735702,0 5,-2.264298 5,-5 L 34,5 C 34,2.2642982 31.735702,0 29,0 L 5,0 z" />
    <path
       sodipodi:type="inkscape:offset"
       inkscape:radius="0.95425737"
       inkscape:original="M 5 2 C 3.338 2 2 3.338 2 5 L 2 17 C 2 18.662 3.338 20 5 20 L 29 20 C 30.662 20 32 18.662 32 17 L 32 5 C 32 3.338 30.662 2 29 2 L 5 2 z "
       style="opacity:0.2;color:#000000;fill:#000000;fill-opacity:1;fill-rule:nonzero;stroke:none;stroke-width:2;marker:none;visibility:visible;display:inline;overflow:visible;enable-background:accumulate"
       id="path4531"
       d="M 5,1.03125 C 2.8258474,1.03125 1.03125,2.8258474 1.03125,5 l 0,12 c 0,2.174153 1.7945974,3.96875 3.96875,3.96875 l 24,0 c 2.174153,0 3.96875,-1.794597 3.96875,-3.96875 l 0,-12 C 32.96875,2.8258474 31.174153,1.03125 29,1.03125 l -24,0 z" />
    <rect
       style="color:#000000;fill:url(#linearGradient3228-0);fill-opacity:1;fill-rule:nonzero;stroke:none;stroke-width:2;marker:none;visibility:visible;display:inline;overflow:visible;enable-background:accumulate"
       id="rect3936"
       width="30.00001"
       height="18.00001"
       x="2"
       y="2"
       rx="3"
       ry="3" />
    <path
       style="opacity:0.6;color:#000000;fill:url(#linearGradient3077-4-9-4);fill-opacity:1;fill-rule:nonzero;stroke:none;stroke-width:2;marker:none;visibility:visible;display:inline;overflow:visible;enable-background:accumulate"
       d="M 5,2 C 3.338,2 2,3.338 2,5 l 0,12 c 0,1.662 1.338,3 3,3 l 24,0 c 1.662,0 3,-1.338 3,-3 L 32,5 C 32,3.338 30.662,2 29,2 z m 0,1 24,0 c 1.12561,0 2,0.8743885 2,2 l 0,12 c 0,1.125612 -0.87439,2 -2,2 L 5,19 C 3.874388,19 3,18.125612 3,17 L 3,5 C 3,3.8743885 3.874388,3 5,3 z"
       id="rect4059"
       inkscape:connector-curvature="0"
       sodipodi:nodetypes="ssssssssssssssssss" />
    <rect
       style="opacity:0.4;color:#000000;fill:url(#radialGradient4077-8-1);fill-opacity:1;fill-rule:nonzero;stroke:none;stroke-width:2;marker:none;visibility:visible;display:inline;overflow:visible;enable-background:accumulate"
       id="rect3206"
       width="1"
       height="10"
       x="13"
       y="6" />
    <rect
       y="6"
       x="12"
       height="10"
       width="1"
       id="rect3984"
       style="opacity:0.2;color:#000000;fill:url(#radialGradient3986-1-3);fill-opacity:1;fill-rule:nonzero;stroke:none;stroke-width:2;marker:none;visibility:visible;display:inline;overflow:visible;enable-background:accumulate" />
    <rect
       y="6"
       x="17"
       height="10"
       width="1"
       id="rect3999"
       style="opacity:0.4;color:#000000;fill:url(#radialGradient4003-1-6);fill-opacity:1;fill-rule:nonzero;stroke:none;stroke-width:2;marker:none;visibility:visible;display:inline;overflow:visible;enable-background:accumulate" />
    <rect
       style="opacity:0.2;color:#000000;fill:url(#radialGradient4005-9-8);fill-opacity:1;fill-rule:nonzero;stroke:none;stroke-width:2;marker:none;visibility:visible;display:inline;overflow:visible;enable-background:accumulate"
       id="rect4001"
       width="1"
       height="10"
       x="16"
       y="6" />
    <rect
       style="opacity:0.4;color:#000000;fill:url(#radialGradient4011-7-2);fill-opacity:1;fill-rule:nonzero;stroke:none;stroke-width:2;marker:none;visibility:visible;display:inline;overflow:visible;enable-background:accumulate"
       id="rect4007"
       width="1"
       height="10"
       x="21"
       y="6" />
    <rect
       y="6"
       x="20"
       height="10"
       width="1"
       id="rect4009"
       style="opacity:0.2;color:#000000;fill:url(#radialGradient4013-9-2);fill-opacity:1;fill-rule:nonzero;stroke:none;stroke-width:2;marker:none;visibility:visible;display:inline;overflow:visible;enable-background:accumulate" />
  </g>
</svg>
