<?xml version="1.0" encoding="UTF-8" standalone="no"?>
<svg xmlns="http://www.w3.org/2000/svg" height="22" width="64" version="1.1" xmlns:xlink="http://www.w3.org/1999/xlink">
 <defs>
  <radialGradient id="w" xlink:href="#n" gradientUnits="userSpaceOnUse" cy="11" cx="42.5" gradientTransform="matrix(11,0,0,10,-417,-99)"/>
  <linearGradient id="n">
   <stop offset="0"/>
   <stop stop-opacity=".70588" offset="0.6"/>
   <stop stop-opacity="0" offset="1"/>
  </linearGradient>
  <radialGradient id="v" xlink:href="#m" gradientUnits="userSpaceOnUse" cy="11" cx="42.5" gradientTransform="matrix(11,0,0,10,-416,-99)"/>
  <linearGradient id="m" stop-color="#fff">
   <stop offset="0"/>
   <stop stop-opacity=".70588" offset="0.6"/>
   <stop stop-opacity="0" offset="1"/>
  </linearGradient>
  <radialGradient id="u" xlink:href="#n" gradientUnits="userSpaceOnUse" cy="11" cx="42.5" gradientTransform="matrix(11,0,0,10,-421,-99)"/>
  <radialGradient id="t" xlink:href="#m" gradientUnits="userSpaceOnUse" cy="11" cx="42.5" gradientTransform="matrix(11,0,0,10,-420,-99)"/>
  <radialGradient id="s" xlink:href="#n" gradientUnits="userSpaceOnUse" cy="11" cx="42.5" gradientTransform="matrix(11,0,0,10,-425,-99)"/>
  <radialGradient id="x" xlink:href="#m" gradientUnits="userSpaceOnUse" cy="11" cx="42.5" gradientTransform="matrix(11,0,0,10,-424,-99)"/>
  <linearGradient id="p" y2="28" stop-color="#fff" gradientUnits="userSpaceOnUse" x2="41" gradientTransform="translate(-2,-1)" y1="1" x1="41">
   <stop offset="0"/>
   <stop stop-opacity="0" offset="1"/>
  </linearGradient>
  <linearGradient id="q" y2="2" gradientUnits="userSpaceOnUse" x2="48" gradientTransform="translate(-2,-1)" y1="21" x1="48">
   <stop stop-color="#a0a0a0" offset="0"/>
   <stop stop-color="#dcdcdc" offset="1"/>
  </linearGradient>
  <linearGradient id="r" y2=".49999" gradientUnits="userSpaceOnUse" x2="40.812" gradientTransform="matrix(-1,0,0,-1,64.5,20.5)" y1="18.5" x1="40.812">
   <stop stop-color="#333" offset="0"/>
   <stop stop-color="#555" offset="1"/>
  </linearGradient>
  <filter id="o" height="1.3257" width="1.19" color-interpolation-filters="sRGB" y="-.16284" x="-.095004">
   <feGaussianBlur stdDeviation="0.55455469"/>
  </filter>
 </defs>
 <g style="color:#000000">
  <path d="m5 3c-1.1224 0-2 0.8776-2 2v12c0 1.1224 0.8776 2 2 2h54c1.1224 0 2-0.8776 2-2v-12c0-1.1224-0.878-2-2-2h-54z" fill="url(#r)"/>
  <path opacity="0.08" d="m5 2c-1.662 0-3 1.338-3 3v12c0 1.662 1.338 3 3 3h54c1.662 0 3-1.338 3-3v-12c0-1.662-1.338-3-3-3zm0 3h54v12h-54z"/>
  <path opacity="0.12" d="m5 2c-1.662 0-3 1.338-3 3v12c0 1.662 1.338 3 3 3h54c1.662 0 3-1.338 3-3v-12c0-1.662-1.338-3-3-3zm0 2h54c0.5825 0 1 0.4175 1 1v12c0 0.5825-0.4175 1-1 1h-54c-0.5825 0-1-0.418-1-1v-12c0-0.5825 0.4175-1 1-1z"/>
  <path opacity=".2" d="m5 2c-1.662 0-3 1.338-3 3v12c0 1.662 1.338 3 3 3h54c1.662 0 3-1.338 3-3v-12c0-1.662-1.338-3-3-3zm0 1h54c1.1174 0 2 0.88261 2 2v12c0 1.1174-0.88261 2-2 2h-54c-1.1174 0-2-0.883-2-2v-12c0-1.1174 0.8826-2 2-2z" fill="#fff"/>
 </g>
 <g opacity=".5" filter="url(#o)">
  <path d="m12.93 15.87c-0.594-0.000001-1.1073-0.10267-1.54-0.308-0.433-0.205-0.788-0.488-1.067-0.847-0.279-0.367-0.4877-0.796-0.627-1.287-0.132-0.499-0.198-1.041-0.198-1.628s0.066-1.1293 0.198-1.628c0.1393-0.506 0.3483-0.9423 0.627-1.309s0.634-0.6527 1.067-0.858c0.43266-0.20533 0.946-0.30799 1.54-0.308 0.594 0.0000081 1.1073 0.10267 1.54 0.308 0.43266 0.20534 0.78833 0.49134 1.067 0.858 0.27866 0.36667 0.48399 0.80301 0.616 1.309 0.13933 0.49867 0.20899 1.0413 0.209 1.628-0.000008 0.58667-0.06967 1.1293-0.209 1.628-0.13201 0.49134-0.33734 0.92033-0.616 1.287-0.27867 0.35933-0.63434 0.64167-1.067 0.847-0.43267 0.20533-0.946 0.308-1.54 0.308m0-1.342c1.1367 0.000001 1.705-0.90933 1.705-2.728-0.000006-0.90933-0.13934-1.5913-0.418-2.046-0.27134-0.45466-0.69667-0.68199-1.276-0.682-1.1513 0.0000067-1.727 0.90934-1.727 2.728-0.000002 1.8187 0.572 2.728 1.716 2.728"/>
  <path d="m17.699 7.829c0.22733-0.043992 0.44367-0.065992 0.649-0.066 0.22 0.000008 0.44733 0.022008 0.682 0.066l3.058 5.038v-5.038c0.264-0.043992 0.517-0.065992 0.759-0.066 0.22733 0.000008 0.44733 0.022008 0.66 0.066v7.909c-0.23467 0.044-0.44734 0.066-0.638 0.066-0.20534-0.000001-0.429-0.022-0.671-0.066l-3.08-5.027v5.027c-0.23467 0.044-0.473 0.066-0.715 0.066-0.242-0.000001-0.47667-0.022-0.704-0.066v-7.909"/>
 </g>
 <g fill="#fff" fill-opacity=".98413">
 <path d="m12.93 15.07c-0.594-0.000001-1.1073-0.10267-1.54-0.308-0.433-0.205-0.788-0.488-1.067-0.847-0.279-0.367-0.4877-0.796-0.627-1.287-0.132-0.499-0.198-1.041-0.198-1.628s0.066-1.1293 0.198-1.628c0.1393-0.506 0.3483-0.9423 0.627-1.309s0.634-0.6527 1.067-0.858c0.43266-0.20533 0.946-0.30799 1.54-0.308 0.594 0.0000081 1.1073 0.10267 1.54 0.308 0.43266 0.20534 0.78833 0.49134 1.067 0.858 0.27866 0.36667 0.48399 0.80301 0.616 1.309 0.13933 0.49867 0.20899 1.0413 0.209 1.628-0.000008 0.58667-0.06967 1.1293-0.209 1.628-0.13201 0.49134-0.33734 0.92033-0.616 1.287-0.27867 0.35933-0.63434 0.64167-1.067 0.847-0.43267 0.20533-0.946 0.308-1.54 0.308m0-1.342c1.1367 0.000001 1.705-0.90933 1.705-2.728-0.000006-0.90933-0.13934-1.5913-0.418-2.046-0.27134-0.45466-0.69667-0.68199-1.276-0.682-1.1513 0.0000067-1.727 0.90934-1.727 2.728-0.000002 1.8187 0.572 2.728 1.716 2.728"/>
 <path d="m17.699 7.029c0.22733-0.043992 0.44367-0.065992 0.649-0.066 0.22 0.000008 0.44733 0.022008 0.682 0.066l3.058 5.038v-5.038c0.264-0.043992 0.517-0.065992 0.759-0.066 0.22733 0.000008 0.44733 0.022008 0.66 0.066v7.909c-0.23467 0.044-0.44734 0.066-0.638 0.066-0.20534-0.000001-0.429-0.022-0.671-0.066l-3.08-5.027v5.027c-0.23467 0.044-0.473 0.066-0.715 0.066-0.242-0.000001-0.47667-0.022-0.704-0.066v-7.909"/>
 </g>
 <g style="color:#000000">
  <path opacity=".05" d="m35-0.9375c-3.3342-0.084516-6.2283 3.0589-5.9375 6.3684 0.01965 4.0571-0.03992 8.1168 0.03091 12.172 0.25482 3.1387 3.3049 5.6251 6.4237 5.3343 7.9288-0.0052 15.858 0.01037 23.786-0.0078 3.2586-0.0908 5.9425-3.2203 5.634-6.4468-0.01964-4.0284 0.03991-8.0594-0.03091-12.086-0.254-3.1376-3.305-5.6238-6.424-5.333h-23.482z"/>
  <path opacity=".1" d="m35 0c-2.823-0.068815-5.261 2.6062-5 5.405 0.017 4.0337-0.034 8.07 0.026 12.102 0.219 2.662 2.819 4.755 5.46 4.493 7.923-0.004 15.846 0.009 23.769-0.007 2.764-0.079 5.022-2.747 4.745-5.479-0.017-4.007 0.034-8.0156-0.026-12.021-0.219-2.6625-2.819-4.7549-5.46-4.493h-23.514z"/>
  <path opacity=".2" d="m35 1.0312c-2.2659-0.057814-4.2003 2.1058-3.9688 4.3453 0.01352 4.0086-0.02722 8.0189 0.02069 12.026 0.1729 2.1437 2.2829 3.7976 4.3999 3.5659 7.9169-0.0035 15.834 0.0069 23.751-0.0052 2.2242-0.06112 4.0117-2.2264 3.7661-4.4154-0.01352-3.9835 0.02722-7.9687-0.02069-11.951-0.17303-2.1437-2.2831-3.7975-4.4001-3.5659h-23.548z"/>
  <rect rx="3" ry="3" height="18" width="30" y="2" x="32" fill="url(#q)"/>
  <path opacity=".6" d="m35 2c-1.662 0-3 1.338-3 3v12c0 1.662 1.338 3 3 3h24c1.662 0 3-1.338 3-3v-12c0-1.662-1.338-3-3-3zm0 1h24c1.1256 0 2 0.87439 2 2v12c0 1.1256-0.87439 2-2 2h-24c-1.1256 0-2-0.87439-2-2v-12c0-1.1256 0.87439-2 2-2z" fill="url(#p)"/>
  <rect opacity=".4" height="10" width="1" y="6" x="43" fill="url(#x)"/>
  <rect opacity=".2" height="10" width="1" y="6" x="42" fill="url(#s)"/>
  <rect opacity=".4" height="10" width="1" y="6" x="47" fill="url(#t)"/>
  <rect opacity=".2" height="10" width="1" y="6" x="46" fill="url(#u)"/>
  <rect opacity=".4" height="10" width="1" y="6" x="51" fill="url(#v)"/>
  <rect opacity=".2" height="10" width="1" y="6" x="50" fill="url(#w)"/>
 </g>
</svg>
