<?xml version="1.0" encoding="UTF-8" standalone="no"?>
<svg
   xmlns:dc="http://purl.org/dc/elements/1.1/"
   xmlns:cc="http://creativecommons.org/ns#"
   xmlns:rdf="http://www.w3.org/1999/02/22-rdf-syntax-ns#"
   xmlns:svg="http://www.w3.org/2000/svg"
   xmlns="http://www.w3.org/2000/svg"
   height="16"
   width="16"
   version="1.1"
   id="svg4">
  <metadata
     id="metadata10">
    <rdf:RDF>
      <cc:Work
         rdf:about="">
        <dc:format>image/svg+xml</dc:format>
        <dc:type
           rdf:resource="http://purl.org/dc/dcmitype/StillImage" />
      </cc:Work>
    </rdf:RDF>
  </metadata>
  <defs
     id="defs8" />
  <path
     id="path2-3"
     style="color:#bebebe;overflow:visible;isolation:auto;mix-blend-mode:normal;fill:#bebebe;fill-opacity:1;marker:none"
     overflow="visible"
     d="M 7.565,1.701 A 4.229,4.229 0 0 0 4.967,4.074 c 0,0 -1.915,4.62 -3.686,4.559 -0.019,0.004 -0.033,0.02 -0.052,0.025 a 0.721,0.721 0 0 0 -0.217,0.1 C 0.985,8.775 0.958,8.788 0.934,8.808 a 0.736,0.736 0 0 0 -0.207,0.276 0.75,0.75 0 0 0 0.406,0.98 l 9.701,4.018 a 0.747,0.747 0 0 0 0.979,-0.406 0.738,0.738 0 0 0 0.049,-0.342 c -0.002,-0.032 -0.014,-0.059 -0.02,-0.09 A 0.725,0.725 0 0 0 11.76,13.02 C 11.75,13.003 11.751,12.981 11.74,12.965 10.987,12.262 11.321,10.419 11.73,8.988 A 5,5 0 0 1 7,4 5,5 0 0 1 7.565,1.701 Z m -1.903,11.32 a 2,2 0 0 0 1.213,2.127 2,2 0 0 0 2.362,-0.646 z" />
  <path
     id="path4"
     style="color:#bebebe;overflow:visible;isolation:auto;mix-blend-mode:normal;fill:#f57900;fill-opacity:1;marker:none"
     overflow="visible"
     d="M 16,4 A 4,4 0 0 1 8,4 4,4 0 1 1 16,4 Z"
     class="warning" />
</svg>
