<?xml version="1.0" encoding="UTF-8" standalone="no"?>
<svg
   xmlns:dc="http://purl.org/dc/elements/1.1/"
   xmlns:cc="http://creativecommons.org/ns#"
   xmlns:rdf="http://www.w3.org/1999/02/22-rdf-syntax-ns#"
   xmlns:svg="http://www.w3.org/2000/svg"
   xmlns="http://www.w3.org/2000/svg"
   height="16"
   width="16"
   version="1.1"
   id="svg4">
  <metadata
     id="metadata10">
    <rdf:RDF>
      <cc:Work
         rdf:about="">
        <dc:format>image/svg+xml</dc:format>
        <dc:type
           rdf:resource="http://purl.org/dc/dcmitype/StillImage" />
      </cc:Work>
    </rdf:RDF>
  </metadata>
  <defs
     id="defs8" />
  <g
     id="g831"
     transform="translate(3.3859028,-17.027765)">
    <path
       d="m 4.1792,18.72917 a 4.229,4.229 0 0 0 -2.598,2.373 c 0,0 -1.915,4.62 -3.686,4.559 -0.019,0.004 -0.033,0.02 -0.052,0.025 a 0.721,0.721 0 0 0 -0.217,0.1 c -0.027,0.017 -0.054,0.03 -0.078,0.05 a 0.736,0.736 0 0 0 -0.207,0.276 0.75,0.75 0 0 0 0.406,0.98 l 9.701,4.018 a 0.747,0.747 0 0 0 0.979,-0.406 0.738,0.738 0 0 0 0.049,-0.342 c -0.002,-0.032 -0.014,-0.059 -0.02,-0.09 a 0.725,0.725 0 0 0 -0.082,-0.224 c -0.01,-0.017 -0.009,-0.039 -0.02,-0.055 -0.753,-0.703 -0.419,-2.546 -0.01,-3.977 a 5,5 0 0 1 -4.73,-4.988 5,5 0 0 1 0.565,-2.299 z m -1.903,11.32 a 2,2 0 0 0 1.213,2.127 2,2 0 0 0 2.362,-0.646 z"
       overflow="visible"
       style="color:#bebebe;overflow:visible;isolation:auto;mix-blend-mode:normal;fill:#bebebe;fill-opacity:1;marker:none"
       id="path2-3" />
    <path
       class="error"
       d="m 12.6142,21.02817 a 4,4 0 0 1 -8,0 4,4 0 1 1 8,0 z"
       overflow="visible"
       style="color:#bebebe;overflow:visible;isolation:auto;mix-blend-mode:normal;fill:#ef2929;fill-opacity:1;marker:none"
       id="path4" />
  </g>
</svg>
