<?xml version="1.0" encoding="UTF-8" standalone="no"?>
<svg
   xmlns:dc="http://purl.org/dc/elements/1.1/"
   xmlns:cc="http://creativecommons.org/ns#"
   xmlns:rdf="http://www.w3.org/1999/02/22-rdf-syntax-ns#"
   xmlns:svg="http://www.w3.org/2000/svg"
   xmlns="http://www.w3.org/2000/svg"
   height="16"
   width="16"
   version="1.1"
   id="svg4">
  <metadata
     id="metadata10">
    <rdf:RDF>
      <cc:Work
         rdf:about="">
        <dc:format>image/svg+xml</dc:format>
        <dc:type
           rdf:resource="http://purl.org/dc/dcmitype/StillImage" />
      </cc:Work>
    </rdf:RDF>
  </metadata>
  <defs
     id="defs8" />
  <path
     id="path2"
     style="color:#bebebe;overflow:visible;isolation:auto;mix-blend-mode:normal;fill:#bebebe;fill-opacity:1;marker:none"
     overflow="visible"
     d="m 8.0000003,0.9900001 a 1,1 0 0 0 -1,1 v 0.01 c -1.764,0.456 -2.998,2.168 -3,3.99 0,0 0,4.9999999 -1.6600001,5.6219999 -0.016,0.01 -0.023,0.03 -0.04,0.043 a 0.726,0.726 0 0 0 -0.161,0.175 c -0.018,0.027 -0.039,0.048 -0.053,0.077 a 0.738,0.738 0 0 0 -0.086,0.334 c 0,0.415 0.335,0.75 0.75,0.75 H 13.25 c 0.416,0 0.75,-0.335 0.75,-0.75 A 0.738,0.738 0 0 0 13.914,11.907 C 13.9,11.877 13.879,11.857 13.862,11.83 A 0.725,0.725 0 0 0 13.7,11.655 C 13.684,11.643 13.677,11.622 13.66,11.612 12,10.99 12,5.9900001 12,5.9900001 c -0.002,-1.822 -1.235,-3.534 -2.9999997,-3.99 v -0.01 a 1,1 0 0 0 -1,-1 z M 6.0670003,13.99 a 2,2 0 0 0 1.933,1.5 2,2 0 0 0 1.936,-1.5 z" />
</svg>
