<?xml version="1.0" encoding="UTF-8" standalone="no"?>
<svg
   xmlns:dc="http://purl.org/dc/elements/1.1/"
   xmlns:cc="http://creativecommons.org/ns#"
   xmlns:rdf="http://www.w3.org/1999/02/22-rdf-syntax-ns#"
   xmlns:svg="http://www.w3.org/2000/svg"
   xmlns="http://www.w3.org/2000/svg"
   height="16"
   width="16"
   version="1.1"
   id="svg4">
  <metadata
     id="metadata10">
    <rdf:RDF>
      <cc:Work
         rdf:about="">
        <dc:format>image/svg+xml</dc:format>
        <dc:type
           rdf:resource="http://purl.org/dc/dcmitype/StillImage" />
      </cc:Work>
    </rdf:RDF>
  </metadata>
  <defs
     id="defs8" />
  <path
     style="color:#bebebe;overflow:visible;isolation:auto;mix-blend-mode:normal;fill:#bebebe;marker:none;fill-opacity:1"
     d="M 10.185547 0.91015625 C 9.7958568 0.91305625 9.4260901 1.1446608 9.2675781 1.5273438 L 9.2636719 1.5351562 C 7.4594149 1.281393 5.6639438 2.3916756 4.9648438 4.0742188 C 4.9648438 4.0742188 3.05253 8.6943385 1.28125 8.6328125 C 1.26225 8.6368125 1.2468615 8.65167 1.2265625 8.65625 C 1.1494625 8.67777 1.0776989 8.7124595 1.0117188 8.7578125 C 0.98471875 8.7758725 0.95719375 8.7861306 0.93359375 8.8066406 C 0.84379375 8.8808906 0.7729225 8.9770214 0.7265625 9.0839844 C 0.5673725 9.4683184 0.7494125 9.9036871 1.1328125 10.0625 L 10.832031 14.082031 C 11.216371 14.241228 11.653299 14.060121 11.8125 13.675781 C 11.8553 13.567326 11.872328 13.450018 11.861328 13.333984 C 11.859328 13.302754 11.847597 13.274661 11.841797 13.244141 C 11.826997 13.165231 11.799466 13.089333 11.759766 13.019531 C 11.749566 13.002321 11.749761 12.981504 11.738281 12.964844 C 10.441901 11.756784 12.357422 7.1367188 12.357422 7.1367188 C 13.053202 5.4517216 12.567848 3.3965827 11.111328 2.3007812 L 11.115234 2.2929688 C 11.326584 1.7827241 11.084415 1.1976765 10.574219 0.98632812 C 10.446659 0.93349112 10.315444 0.90918925 10.185547 0.91015625 z M 1.9648438 11.490234 C 1.8372058 12.392818 2.3359242 13.267466 3.1777344 13.617188 C 4.0202804 13.965348 4.9909784 13.699188 5.5390625 12.970703 L 1.9648438 11.490234 z "
     id="path2-3-5-2-2-5-19" />
</svg>
