<?xml version="1.0" encoding="UTF-8" standalone="no"?>
<svg
   xmlns:dc="http://purl.org/dc/elements/1.1/"
   xmlns:cc="http://creativecommons.org/ns#"
   xmlns:rdf="http://www.w3.org/1999/02/22-rdf-syntax-ns#"
   xmlns:svg="http://www.w3.org/2000/svg"
   xmlns="http://www.w3.org/2000/svg"
   height="16"
   width="16"
   version="1.1"
   id="svg4">
  <metadata
     id="metadata10">
    <rdf:RDF>
      <cc:Work
         rdf:about="">
        <dc:format>image/svg+xml</dc:format>
        <dc:type
           rdf:resource="http://purl.org/dc/dcmitype/StillImage" />
      </cc:Work>
    </rdf:RDF>
  </metadata>
  <defs
     id="defs8" />
  <path
     style="color:#bebebe;overflow:visible;isolation:auto;mix-blend-mode:normal;fill:#bebebe;fill-opacity:1;marker:none"
     d="m 8.5898958,1.5018738 c -1.561935,0.065518 -3.0132876,1.1000404 -3.625,2.5722656 0,0 -1.9123138,4.6201197 -3.6835939,4.5585937 -0.019,0.004 -0.034388,0.018857 -0.054687,0.023437 -0.0771,0.02152 -0.1488638,0.056209 -0.2148437,0.1015625 -0.0270001,0.01806 -0.054515,0.028318 -0.078125,0.048828 -0.0898,0.07425 -0.16067125,0.1703808 -0.20703125,0.2773438 -0.15919,0.384334 0.02285,0.8197026 0.40625005,0.9785156 l 9.699218,4.01953 c 0.38434,0.159197 0.821268,-0.02191 0.980469,-0.40625 0.0428,-0.108455 0.05983,-0.225763 0.04883,-0.341797 -0.002,-0.03123 -0.01373,-0.05932 -0.01953,-0.08984 -0.0148,-0.07891 -0.04233,-0.154808 -0.08203,-0.22461 -0.0102,-0.01721 -0.01001,-0.03803 -0.02149,-0.05469 C 10.79027,12.08129 11.557043,9.3856325 12.039113,7.9940612 9.8170279,8.0157643 8.0032012,6.2221114 8.000052,3.9999206 8.0017695,3.0972277 8.3087703,2.2216557 8.8711458,1.5155457 8.7773811,1.5124529 8.6830267,1.4979673 8.5898958,1.5018738 Z M 5.6621614,13.021404 c -0.1276379,0.902584 0.3710804,1.777233 1.2128906,2.126954 0.842546,0.34816 1.813244,0.082 2.3613281,-0.646485 z"
     id="path2-3-5-2-2-5-19" />
  <path
     id="path4-7-9"
     style="color:#bebebe;overflow:visible;isolation:auto;mix-blend-mode:normal;fill:#bebebe;fill-opacity:1;stroke-width:1.19999981;marker:none"
     overflow="visible"
     d="m 15.000051,3.9999206 a 3,3 0 0 1 -5.999999,0 3,3 0 1 1 5.999999,0 z" />
</svg>
