<?xml version="1.0" encoding="UTF-8" standalone="no"?>
<!-- Created with Inkscape (http://www.inkscape.org/) -->
<svg xmlns="http://www.w3.org/2000/svg" height="16" width="16" version="1.1">
 <title>Gnome Symbolic Icon Theme</title>
 <g fill="#bebebe">
  <path d="m3 4.001 4.5-2e-7v1l-3 3h3v1h-4.5v-1l3-3h-3z"/>
  <path d="m8.5 4.001 4.5-2e-7v1l-3 3h3v1h-4.5v-1l3-3h-3z"/>
 </g>
 <g fill="#bebebe">
  <path d="m2 0.0019531c-1.0907 0-2 0.9093-2 2v9c0 1.0907 0.9093 2 2 2h12c1.0907 0 2-0.9093 2-2v-9c0-1.0908-0.909-2-2-2h-12zm0 2h12v9h-12v-9z"/>
  <path d="m5 14.002c-0.54535 0-1 0.45465-1 1v0.5h0.20898c0.17868 0.28037 0.43946 0.5 0.79102 0.5h6c0.35155 0 0.61234-0.21963 0.79102-0.5h0.20898v-0.5c0-0.54535-0.45465-1-1-1h-6z"/>
 </g>
</svg>
