<?xml version="1.0" encoding="UTF-8" standalone="no"?>
<svg
   width="123pt"
   height="123pt"
   version="1.0"
   viewBox="0 0 123 123"
   id="svg6"
   sodipodi:docname="inhibit-active-notif-enabled-symbolic.svg"
   inkscape:version="1.2.1 (9c6d41e410, 2022-07-14)"
   xmlns:inkscape="http://www.inkscape.org/namespaces/inkscape"
   xmlns:sodipodi="http://sodipodi.sourceforge.net/DTD/sodipodi-0.dtd"
   xmlns="http://www.w3.org/2000/svg"
   xmlns:svg="http://www.w3.org/2000/svg">
  <defs
     id="defs10" />
  <sodipodi:namedview
     id="namedview8"
     pagecolor="#505050"
     bordercolor="#eeeeee"
     borderopacity="1"
     inkscape:showpageshadow="0"
     inkscape:pageopacity="0"
     inkscape:pagecheckerboard="0"
     inkscape:deskcolor="#505050"
     inkscape:document-units="pt"
     showgrid="false"
     inkscape:zoom="6.6585366"
     inkscape:cx="75.391941"
     inkscape:cy="82.750916"
     inkscape:window-width="1920"
     inkscape:window-height="1032"
     inkscape:window-x="0"
     inkscape:window-y="20"
     inkscape:window-maximized="1"
     inkscape:current-layer="svg6" />
  <path
     transform="scale(0.75)"
     d="m 83.049,0.044922 c -2.6839,-0.069765 -5.3595,0.94241 -7.8496,1.8223 -6.7802,4.012 -11.852,10.465 -19.518,13.201 -15.509,8.7926 -28.139,24.393 -29.244,42.699 -1.9974,15.495 0.15808,31.649 -4.8496,46.655998 -4.1414,10.779 -15.447,16.276 -20.922,26.094 -1.9645,10.117 10.728,10.726 17.791,10.332 11.847,0.25857 23.695,0.41155 35.543,0.61719 4.144,8.875 9.1423,19.619 19.746,21.586 2.6678,-0.0542 5.458,0.15342 8.2542,0.29297 V 82 h 58.13429 c 0,0 -0.11864,-25.055118 -3.9434,-37.018118 -5.5501,-14.962 -18.119,-26.335 -32.342,-32.988 -6.753,-3.6835 -11.36,-11.131 -19.65,-11.85 -0.38323,-0.057645 -0.76698,-0.089643 -1.1504,-0.099609 z"
     id="path2"
     sodipodi:nodetypes="ccccccccccccccccc" />
  <path
     class="error"
     d="m95.906 69a26.906 26.906 0 0 0-26.906 26.906 26.906 26.906 0 0 0 26.906 26.907 26.906 26.906 0 0 0 26.906-26.907 26.906 26.906 0 0 0-26.906-26.906zm-19.219 23.063h38.438v7.6876h-38.438z"
     fill="#ef2929"
     stroke-width="7.6875"
     id="path4" />
</svg>
