<?xml version="1.0" encoding="UTF-8" standalone="no"?>
<svg
   width="123pt"
   height="123pt"
   version="1.0"
   viewBox="0 0 123 123"
   id="svg6"
   sodipodi:docname="inhibit-notif-enabled-symbolic.svg"
   inkscape:version="1.2.1 (9c6d41e410, 2022-07-14)"
   xmlns:inkscape="http://www.inkscape.org/namespaces/inkscape"
   xmlns:sodipodi="http://sodipodi.sourceforge.net/DTD/sodipodi-0.dtd"
   xmlns="http://www.w3.org/2000/svg"
   xmlns:svg="http://www.w3.org/2000/svg">
  <defs
     id="defs10" />
  <sodipodi:namedview
     id="namedview8"
     pagecolor="#505050"
     bordercolor="#eeeeee"
     borderopacity="1"
     inkscape:showpageshadow="0"
     inkscape:pageopacity="0"
     inkscape:pagecheckerboard="0"
     inkscape:deskcolor="#505050"
     inkscape:document-units="pt"
     showgrid="false"
     inkscape:zoom="4.7082964"
     inkscape:cx="68.814699"
     inkscape:cy="80.708598"
     inkscape:window-width="1920"
     inkscape:window-height="1032"
     inkscape:window-x="0"
     inkscape:window-y="20"
     inkscape:window-maximized="1"
     inkscape:current-layer="g4" />
  <g
     transform="translate(0 123) scale(.1 -.1)"
     id="g4">
    <path
       d="m 564,1216 c -17,-8 -39,-24 -50,-37 -10,-13 -45,-36 -77,-52 C 369,1095 289,1023 254,965 206,882 197,843 190,665 182,456 172,427 69,328 -4,257 -12,237 19,199 38,176 43,175 222,172 l 183,-3 25,-52 C 444,89 472,52 493,35 530,7 537,5 620,5 c 83,0 90,2 127,30 21,17 49,54 63,83 l 25,52 h 170 c 200,0 219,6 223,65 3,38 -1,43 -59,94 -98,86 -112,127 -120,336 -6,178 -14,215 -62,297 -35,61 -115,133 -184,165 -32,16 -67,39 -77,52 -22,27 -74,51 -108,51 -13,-1 -37,-7 -54,-14 z"
       id="path2"
       sodipodi:nodetypes="cccccccccccscccscccccccc" />
  </g>
</svg>
