<?xml version="1.0" encoding="UTF-8" standalone="no"?>
<!-- Created with Inkscape (http://www.inkscape.org/) -->

<svg
   height="16"
   width="16"
   version="1.1"
   id="svg16"
   sodipodi:docname="bruno-inhibit-disabled-symbolic.svg"
   inkscape:version="1.2.1 (9c6d41e410, 2022-07-14)"
   xmlns:inkscape="http://www.inkscape.org/namespaces/inkscape"
   xmlns:sodipodi="http://sodipodi.sourceforge.net/DTD/sodipodi-0.dtd"
   xmlns="http://www.w3.org/2000/svg"
   xmlns:svg="http://www.w3.org/2000/svg">
  <defs
     id="defs20" />
  <sodipodi:namedview
     id="namedview18"
     pagecolor="#505050"
     bordercolor="#eeeeee"
     borderopacity="1"
     inkscape:showpageshadow="0"
     inkscape:pageopacity="0"
     inkscape:pagecheckerboard="0"
     inkscape:deskcolor="#505050"
     showgrid="false"
     inkscape:zoom="53.625"
     inkscape:cx="8"
     inkscape:cy="8"
     inkscape:window-width="1920"
     inkscape:window-height="1032"
     inkscape:window-x="0"
     inkscape:window-y="20"
     inkscape:window-maximized="1"
     inkscape:current-layer="svg16" />
  <title
     id="title2">Gnome Symbolic Icon Theme</title>
  <g
     fill="#bebebe"
     id="g14">
    <path
       d="m2 0.0019531c-1.0907 0-2 0.9093-2 2v9c0 1.0907 0.9093 2 2 2h12c1.0907 0 2-0.9093 2-2v-9c0-1.0908-0.909-2-2-2h-12zm0 2h12v9h-12v-9z"
       id="path10" />
    <path
       d="m5 14.002c-0.54535 0-1 0.45465-1 1v0.5h0.20898c0.17868 0.28037 0.43946 0.5 0.79102 0.5h6c0.35155 0 0.61234-0.21963 0.79102-0.5h0.20898v-0.5c0-0.54535-0.45465-1-1-1h-6z"
       id="path12" />
  </g>
</svg>
