<?xml version="1.0" encoding="UTF-8"?>
<svg width="123pt" height="123pt" version="1.0" viewBox="0 0 123 123" xmlns="http://www.w3.org/2000/svg">
 <path transform="scale(.75)" d="m83.049 0.044922c-2.6839-0.069765-5.3595 0.94241-7.8496 1.8223-6.7802 4.012-11.852 10.465-19.518 13.201-15.509 8.7926-28.139 24.393-29.244 42.699-1.9974 15.495 0.15808 31.649-4.8496 46.656-4.1414 10.779-15.447 16.276-20.922 26.094-1.9645 10.117 10.728 10.726 17.791 10.332 11.847 0.25857 23.695 0.41155 35.543 0.61719 4.144 8.875 9.1423 19.619 19.746 21.586 2.6678-0.05425 5.4577 0.15342 8.2539 0.29297v-32.68h-68.801c10.035-9.5423 20.359-20.879 20.717-35.533 1.3619-15.156 0.42971-30.624 3.8164-45.533 5.3445-14.22 17.482-25.559 31.951-30.119 5.5549-4.206 12.878-14.206 20.037-5.9043l0.67969 1.0898c4.7283 7.0819 14.737 6.7885 20.586 12.762 10.806 8.3253 18.498 21.114 18.67 34.982 0.7576 6.4417 0.9013 13.026 1.1836 19.59h9.2949c-0.5531-12.465-0.11864-25.055-3.9434-37.018-5.5501-14.962-18.119-26.335-32.342-32.988-6.753-3.6835-11.36-11.131-19.65-11.85-0.38323-0.057645-0.76698-0.089643-1.1504-0.099609z"/>
 <path class="error" d="m95.906 69a26.906 26.906 0 0 0-26.906 26.906 26.906 26.906 0 0 0 26.906 26.907 26.906 26.906 0 0 0 26.906-26.907 26.906 26.906 0 0 0-26.906-26.906zm-19.219 23.063h38.438v7.6876h-38.438z" fill="#ef2929" stroke-width="7.6875"/>
</svg>
