<?xml version="1.0" encoding="UTF-8"?>
<svg width="123pt" height="123pt" version="1.0" viewBox="0 0 123 123" xmlns="http://www.w3.org/2000/svg">
 <g transform="translate(0 123) scale(.1 -.1)">
  <path d="m564 1216c-17-8-39-24-50-37-10-13-45-36-77-52-68-32-148-104-183-162-48-83-57-122-64-300-8-209-18-238-121-337-73-71-81-91-50-129 19-23 24-24 203-27l183-3 25-52c14-28 42-65 63-82 37-28 44-30 127-30s90 2 127 30c21 17 49 54 63 83l25 52h170c200 0 219 6 223 65 3 38-1 43-59 94-98 86-112 127-120 336-6 178-14 215-62 297-35 61-115 133-184 165-32 16-67 39-77 52-22 27-74 51-108 51-13-1-37-7-54-14zm114-96c11-20 32-35 62-45 94-32 180-119 216-217 11-29 19-100 24-213 9-218 29-274 129-362l36-33h-523-523l50 50c27 27 62 75 77 107 26 54 28 70 35 233 5 119 12 189 22 218 37 99 123 185 220 218 27 9 52 25 59 37 15 30 27 37 66 37 26 0 36-6 50-30z"/>
 </g>
</svg>
