<svg version="1.1" viewBox="0 0 16 16" xmlns="http://www.w3.org/2000/svg">
 <path d="m7.5 0v2h1v-2h-1zm7.5352 1.0352-13.879 13.879 0.70703 0.70703 3.4336-3.4316a5 5 0 0 0 2.7031 0.81055 5 5 0 0 0 4.1836-7.6973l3.5586-3.5605-0.70703-0.70703zm-12.338 0.95508-0.70703 0.70703 1.4141 1.4141 0.70703-0.70703-1.4141-1.4141zm5.3027 1.0098a5 5 0 0 0-4.1582 7.7422l0.78516-0.78516a4.081 4.081 0 0 1 2.3242-5.957 3.589 3.589 0 0 0-0.69141 3.1953 3.596 3.596 0 0 0 0.33008 0.79883l4.1582-4.1582a5 5 0 0 0-2.748-0.83594zm-8 4.5v1h2v-1h-2zm14 0v1h2v-1h-2zm-2 1.5469a4.084 4.084 0 0 1-2.8613 2.8145 4.081 4.081 0 0 1-3.0625-0.45117l1.9902-1.9902a3.596 3.596 0 0 0 2.5957 0.31836c0.49-0.133 0.94589-0.37041 1.3379-0.69141zm0.5957 2.8418-0.70703 0.70703 1.4141 1.4141 0.70703-0.70703-1.4141-1.4141zm-5.0957 2.1094v2h1v-2h-1z" fill="#808080"/>
</svg>
