<?xml version="1.0" encoding="UTF-8"?>
<svg height="16px" viewBox="0 0 16 16" width="16px" xmlns="http://www.w3.org/2000/svg">
    <path d="m 8 0 c -0.550781 0 -1 0.449219 -1 1 s 0.449219 1 1 1 s 1 -0.449219 1 -1 s -0.449219 -1 -1 -1 z m -4.949219 2.050781 c -0.257812 0 -0.511719 0.097657 -0.707031 0.292969 c -0.390625 0.390625 -0.390625 1.023438 0 1.414062 c 0.390625 0.390626 1.023438 0.390626 1.414062 0 c 0.390626 -0.390624 0.390626 -1.023437 0 -1.414062 c -0.195312 -0.195312 -0.449218 -0.292969 -0.707031 -0.292969 z m 9.898438 0 c -0.257813 0 -0.511719 0.097657 -0.707031 0.292969 c -0.390626 0.390625 -0.390626 1.023438 0 1.414062 c 0.390624 0.390626 1.023437 0.390626 1.414062 0 c 0.390625 -0.390624 0.390625 -1.023437 0 -1.414062 c -0.195312 -0.195312 -0.449219 -0.292969 -0.707031 -0.292969 z m -4.949219 0.949219 c -2.761719 0 -5 2.238281 -5 5 s 2.238281 5 5 5 s 5 -2.238281 5 -5 s -2.238281 -5 -5 -5 z m 0 2 c 0.183594 0 0.367188 0.019531 0.550781 0.050781 c -0.910156 0.210938 -1.550781 1.019531 -1.550781 1.949219 c 0 1.105469 0.894531 2 2 2 c 0.929688 0 1.738281 -0.644531 1.949219 -1.550781 c 0.03125 0.179687 0.050781 0.367187 0.050781 0.550781 c 0 1.65625 -1.34375 3 -3 3 s -3 -1.34375 -3 -3 s 1.34375 -3 3 -3 z m -7 2 c -0.550781 0 -1 0.449219 -1 1 s 0.449219 1 1 1 s 1 -0.449219 1 -1 s -0.449219 -1 -1 -1 z m 14 0 c -0.550781 0 -1 0.449219 -1 1 s 0.449219 1 1 1 s 1 -0.449219 1 -1 s -0.449219 -1 -1 -1 z m -11.949219 4.949219 c -0.257812 0 -0.511719 0.097656 -0.707031 0.292969 c -0.390625 0.390624 -0.390625 1.023437 0 1.414062 s 1.023438 0.390625 1.414062 0 c 0.390626 -0.390625 0.390626 -1.023438 0 -1.414062 c -0.195312 -0.195313 -0.449218 -0.292969 -0.707031 -0.292969 z m 9.898438 0 c -0.257813 0 -0.511719 0.097656 -0.707031 0.292969 c -0.390626 0.390624 -0.390626 1.023437 0 1.414062 c 0.390624 0.390625 1.023437 0.390625 1.414062 0 s 0.390625 -1.023438 0 -1.414062 c -0.195312 -0.195313 -0.449219 -0.292969 -0.707031 -0.292969 z m -4.949219 2.050781 c -0.550781 0 -1 0.449219 -1 1 s 0.449219 1 1 1 s 1 -0.449219 1 -1 s -0.449219 -1 -1 -1 z m 0 0" fill="#2e3436"/>
</svg>
