<svg viewBox="0 0 16 16" xmlns="http://www.w3.org/2000/svg">
 <path d="M8 3a5 5 0 1 0 0 10A5 5 0 0 0 8 3zM6.951 4a3.589 3.589 0 0 0-.691 3.195 3.596 3.596 0 0 0 4.402 2.543c.49-.133.946-.37 1.338-.691a4.084 4.084 0 0 1-2.861 2.814A4.081 4.081 0 0 1 6.951 4zM8.5 0h-1v2h1zm4.803 1.99l-1.414 1.414.707.707 1.415-1.414zm-10.606 0l-.707.707 1.414 1.414.707-.707zM16 7.5h-2v1h2zm-14 0H0v1h2zm10.596 4.389l-.707.707 1.414 1.414.707-.707zm-9.192 0L1.99 13.303l.707.707 1.414-1.414zm5.096 2.11h-1v2h1z" fill="gray"/>
</svg>
