<?xml version="1.0" encoding="UTF-8" standalone="no"?>
<svg xmlns="http://www.w3.org/2000/svg" height="16" width="16" version="1.1">
 <path d="m3.9351 4.5838c0.00509 0.22426 0.021845 0.54843 0.043244 0.82162-0.38587 0.16377-0.41403 0.91475-0.086487 1.6865 0.12989 0.30603 0.29531 0.54101 0.47568 0.73514 0.043823 0.21689 0.032325 0.31426 0.086486 0.56216 0.15114 0.45341 0.74701 1.342 1.2973 2.0757 0.05396 0.56342 0.10994 1.132 0 1.773-1.5856 1.3155-5.6709 1.8813-5.6649 3.2432l-0.0864 0.519h16l-0.086-0.519c-0.0065-1.1656-4.0987-1.8813-5.6649-3.2432-0.06337-0.52134-0.07545-1.0433-0.04324-1.5568 0.50143-0.77381 1.1722-1.7869 1.3405-2.2919 0.0605-0.25574 0.08252-0.42845 0.12973-0.64865 0.15026-0.18201 0.2785-0.38786 0.38919-0.64865 0.31116-0.73315 0.29105-1.433-0.04324-1.6432 0.01971-0.2954 0.03456-0.60971 0.04324-0.86486 0-2.106-1.8084-3.8054-4.0651-3.8054-2.2567-0.00062-4.0651 1.6988-4.0651 3.8048z" fill="#bebebe"/>
</svg>
