<?xml version="1.0" encoding="UTF-8" standalone="no"?>
<!-- Created with Inkscape (http://www.inkscape.org/) -->
<svg id="svg7384" xmlns:rdf="http://www.w3.org/1999/02/22-rdf-syntax-ns#" xmlns="http://www.w3.org/2000/svg" height="16" width="16" version="1.1" xmlns:cc="http://creativecommons.org/ns#" xmlns:dc="http://purl.org/dc/elements/1.1/">
 <metadata id="metadata90">
  <rdf:RDF>
   <cc:Work rdf:about="">
    <dc:format>image/svg+xml</dc:format>
    <dc:type rdf:resource="http://purl.org/dc/dcmitype/StillImage"/>
    <dc:title>Gnome Symbolic Icon Theme</dc:title>
   </cc:Work>
  </rdf:RDF>
 </metadata>
 <title id="title9167">Gnome Symbolic Icon Theme</title>
 <g id="layer11" transform="translate(-42 -510)">
  <path id="path21187" style="color:#bebebe;fill:#bebebe" d="m52 342.5a2.5 2.5 0 1 1 -5 0 2.5 2.5 0 1 1 5 0z" transform="translate(-3,171)"/>
  <path id="path21193" style="color:#bebebe;fill:#bebebe" d="m48 517h-3l0.0467-0.68495c-1.395 0.04-2.047 1.77-2.047 3.18v1.5h6v-1h1v-0.5c0-1.5-0.59314-3.1318-1.9851-3.156z"/>
  <path id="path21200" style="color:#bebebe;fill:#bebebe" d="m52 342.5a2.5 2.5 0 1 1 -5 0 2.5 2.5 0 1 1 5 0z" transform="translate(4,175)"/>
  <path id="path21202" style="color:#bebebe;fill:#bebebe" d="m55 521h-3l0.0467-0.68495c-1.583 0.05-2.047 1.64-2.047 2.68v2h7v-2c0-1.0466-0.21771-2.6252-1.9851-2.656z"/>
 </g>
</svg>
