<?xml version="1.0" encoding="UTF-8" standalone="no"?>
<svg
   height="96"
   width="96"
   version="1.1"
   id="svg18890"
   sodipodi:docname="hicolor_categories_scalable_cs-nightlight.svg"
   inkscape:version="1.2.2 (b0a8486541, 2022-12-01)"
   xmlns:inkscape="http://www.inkscape.org/namespaces/inkscape"
   xmlns:sodipodi="http://sodipodi.sourceforge.net/DTD/sodipodi-0.dtd"
   xmlns:xlink="http://www.w3.org/1999/xlink"
   xmlns="http://www.w3.org/2000/svg"
   xmlns:svg="http://www.w3.org/2000/svg">
  <sodipodi:namedview
     id="namedview18892"
     pagecolor="#ffffff"
     bordercolor="#666666"
     borderopacity="1.0"
     inkscape:showpageshadow="2"
     inkscape:pageopacity="0.0"
     inkscape:pagecheckerboard="0"
     inkscape:deskcolor="#d1d1d1"
     showgrid="false"
     inkscape:zoom="4.2395833"
     inkscape:cx="79.488943"
     inkscape:cy="43.636364"
     inkscape:window-width="1920"
     inkscape:window-height="984"
     inkscape:window-x="1920"
     inkscape:window-y="24"
     inkscape:window-maximized="1"
     inkscape:current-layer="svg18890" />
  <defs
     id="defs18832">
    <linearGradient
       inkscape:collect="always"
       id="linearGradient23298">
      <stop
         style="stop-color:#ffc27d;stop-opacity:1;"
         offset="0"
         id="stop23294" />
      <stop
         style="stop-color:#f37329;stop-opacity:0.64026469;"
         offset="1"
         id="stop23296" />
    </linearGradient>
    <linearGradient
       id="d"
       stop-color="#fff">
      <stop
         offset="0"
         id="stop18786" />
      <stop
         stop-opacity="0"
         offset="1"
         id="stop18788" />
    </linearGradient>
    <filter
       id="o"
       height="1.3025211"
       width="1.0910436"
       color-interpolation-filters="sRGB"
       y="-0.15126053"
       x="-0.04552178">
      <feGaussianBlur
         stdDeviation="1.1526305"
         id="feGaussianBlur18791" />
    </filter>
    <filter
       id="p"
       height="1.3025211"
       width="1.0888233"
       color-interpolation-filters="sRGB"
       y="-0.15126053"
       x="-0.044411654">
      <feGaussianBlur
         stdDeviation="1.1526305"
         id="feGaussianBlur18794" />
    </filter>
    <linearGradient
       id="a"
       y2="7.0165"
       gradientUnits="userSpaceOnUse"
       x2="45.448"
       gradientTransform="matrix(1.0059 0 0 .99417 100 0)"
       y1="92.54"
       x1="45.448">
      <stop
         offset="0"
         id="stop18797" />
      <stop
         stop-opacity=".58824"
         offset="1"
         id="stop18799" />
    </linearGradient>
    <radialGradient
       id="f"
       stop-color="#fff"
       gradientUnits="userSpaceOnUse"
       cy="90.172"
       cx="48"
       gradientTransform="matrix(1.1573 0 0 .99591 -7.551 .19713)"
       r="42">
      <stop
         offset="0"
         id="stop18802" />
      <stop
         stop-opacity="0"
         offset="1"
         id="stop18804" />
    </radialGradient>
    <linearGradient
       id="n"
       y2="83.295"
       gradientUnits="userSpaceOnUse"
       x2="43.179"
       gradientTransform="matrix(1.0294,0,0,1.0294,-1.4118,-1.4118)"
       y1="13"
       x1="43.179">
      <stop
         stop-color="#919191"
         offset="0"
         id="stop18807" />
      <stop
         stop-color="#fdfdfd"
         offset="1"
         id="stop18809" />
    </linearGradient>
    <linearGradient
       id="m"
       stop-color="#fff"
       y2="63.893"
       gradientUnits="userSpaceOnUse"
       x2="36.357"
       y1="6"
       x1="36.357">
      <stop
         offset="0"
         id="stop18812" />
      <stop
         stop-opacity="0"
         offset="1"
         id="stop18814" />
    </linearGradient>
    <linearGradient
       id="j"
       y2="5.9877"
       gradientUnits="userSpaceOnUse"
       x2="48"
       y1="90"
       x1="48">
      <stop
         stop-color="#b4b4b4"
         offset="0"
         id="stop18817" />
      <stop
         stop-color="#e6e6e6"
         offset="1"
         id="stop18819" />
    </linearGradient>
    <linearGradient
       id="c"
       y2="52.101"
       xlink:href="#d"
       gradientUnits="userSpaceOnUse"
       x2="19.942"
       gradientTransform="matrix(.65823 0 0 .65616 2.8732 25.814)"
       y1="52.101"
       x1="80.711" />
    <linearGradient
       id="b"
       y2="52.101"
       xlink:href="#d"
       gradientUnits="userSpaceOnUse"
       x2="19.942"
       gradientTransform="matrix(0 -.65823 .65616 0 -10.186 94.127)"
       y1="52.101"
       x1="80.711" />
    <radialGradient
       id="e"
       gradientUnits="userSpaceOnUse"
       cy="78.287"
       cx="47.098"
       gradientTransform="matrix(1.383,-1.035e-8,0,1.3124,-18.039,-24.219)"
       r="38.957">
      <stop
         stop-color="#42394b"
         offset="0"
         id="stop18824"
         style="stop-color:#b4b4b4;stop-opacity:1;" />
      <stop
         offset="1"
         id="stop18826"
         style="stop-color:#787878;stop-opacity:1;" />
    </radialGradient>
    <linearGradient
       id="i"
       y2="6"
       xlink:href="#a"
       gradientUnits="userSpaceOnUse"
       x2="32.251"
       gradientTransform="translate(0,1)"
       y1="90"
       x1="32.251" />
    <linearGradient
       id="h"
       y2="5.9996"
       xlink:href="#a"
       gradientUnits="userSpaceOnUse"
       x2="32.251"
       gradientTransform="matrix(1.0238 0 0 1.0119 -1.1429 .929)"
       y1="90"
       x1="32.251" />
    <linearGradient
       id="g"
       y2="90.239"
       xlink:href="#a"
       gradientUnits="userSpaceOnUse"
       x2="32.251"
       gradientTransform="matrix(1.0238,0,0,-1.0119,-1.1429,98.071)"
       y1="6.1317"
       x1="32.251" />
    <filter
       style="color-interpolation-filters:sRGB;"
       inkscape:label="Drop Shadow"
       id="filter20952"
       x="-0.0768"
       y="-0.0768"
       width="1.1802667"
       height="1.1802667">
      <feGaussianBlur
         stdDeviation="0.2"
         result="blur"
         id="feGaussianBlur20944" />
      <feComposite
         in="SourceGraphic"
         in2="blur"
         operator="atop"
         result="composite1"
         id="feComposite20946" />
      <feComposite
         in2="composite1"
         operator="in"
         result="composite2"
         id="feComposite20948" />
      <feComposite
         in2="composite2"
         operator="in"
         result="fbSourceGraphic"
         id="feComposite20950" />
      <feColorMatrix
         result="fbSourceGraphicAlpha"
         in="fbSourceGraphic"
         values="0 0 0 -1 0 0 0 0 -1 0 0 0 0 -1 0 0 0 0 1 0"
         id="feColorMatrix21058" />
      <feFlood
         id="feFlood21060"
         flood-opacity="0.909804"
         flood-color="rgb(10,10,10)"
         result="flood"
         in="fbSourceGraphic" />
      <feComposite
         in2="fbSourceGraphic"
         id="feComposite21062"
         in="flood"
         operator="in"
         result="composite1" />
      <feGaussianBlur
         id="feGaussianBlur21064"
         in="composite1"
         stdDeviation="1"
         result="blur" />
      <feOffset
         id="feOffset21066"
         dx="1"
         dy="1"
         result="offset" />
      <feComposite
         in2="offset"
         id="feComposite21068"
         in="fbSourceGraphic"
         operator="over"
         result="composite2" />
    </filter>
    <filter
       style="color-interpolation-filters:sRGB;"
       inkscape:label="Drop Shadow"
       id="filter20962"
       x="-0.768"
       y="-0.384"
       width="2.8026667"
       height="1.9013333">
      <feGaussianBlur
         stdDeviation="0.2"
         result="blur"
         id="feGaussianBlur20954" />
      <feComposite
         in="SourceGraphic"
         in2="blur"
         operator="atop"
         result="composite1"
         id="feComposite20956" />
      <feComposite
         in2="composite1"
         operator="in"
         result="composite2"
         id="feComposite20958" />
      <feComposite
         in2="composite2"
         operator="in"
         result="fbSourceGraphic"
         id="feComposite20960" />
      <feColorMatrix
         result="fbSourceGraphicAlpha"
         in="fbSourceGraphic"
         values="0 0 0 -1 0 0 0 0 -1 0 0 0 0 -1 0 0 0 0 1 0"
         id="feColorMatrix21046" />
      <feFlood
         id="feFlood21048"
         flood-opacity="0.909804"
         flood-color="rgb(10,10,10)"
         result="flood"
         in="fbSourceGraphic" />
      <feComposite
         in2="fbSourceGraphic"
         id="feComposite21050"
         in="flood"
         operator="in"
         result="composite1" />
      <feGaussianBlur
         id="feGaussianBlur21052"
         in="composite1"
         stdDeviation="1"
         result="blur" />
      <feOffset
         id="feOffset21054"
         dx="1"
         dy="1"
         result="offset" />
      <feComposite
         in2="offset"
         id="feComposite21056"
         in="fbSourceGraphic"
         operator="over"
         result="composite2" />
    </filter>
    <filter
       style="color-interpolation-filters:sRGB;"
       inkscape:label="Drop Shadow"
       id="filter20972"
       x="-0.36192272"
       y="-0.36209335"
       width="1.849513"
       height="1.8499136">
      <feGaussianBlur
         stdDeviation="0.2"
         result="blur"
         id="feGaussianBlur20964" />
      <feComposite
         in="SourceGraphic"
         in2="blur"
         operator="atop"
         result="composite1"
         id="feComposite20966" />
      <feComposite
         in2="composite1"
         operator="in"
         result="composite2"
         id="feComposite20968" />
      <feComposite
         in2="composite2"
         operator="in"
         result="fbSourceGraphic"
         id="feComposite20970" />
      <feColorMatrix
         result="fbSourceGraphicAlpha"
         in="fbSourceGraphic"
         values="0 0 0 -1 0 0 0 0 -1 0 0 0 0 -1 0 0 0 0 1 0"
         id="feColorMatrix21142" />
      <feFlood
         id="feFlood21144"
         flood-opacity="0.909804"
         flood-color="rgb(10,10,10)"
         result="flood"
         in="fbSourceGraphic" />
      <feComposite
         in2="fbSourceGraphic"
         id="feComposite21146"
         in="flood"
         operator="in"
         result="composite1" />
      <feGaussianBlur
         id="feGaussianBlur21148"
         in="composite1"
         stdDeviation="1"
         result="blur" />
      <feOffset
         id="feOffset21150"
         dx="1"
         dy="1"
         result="offset" />
      <feComposite
         in2="offset"
         id="feComposite21152"
         in="fbSourceGraphic"
         operator="over"
         result="composite2" />
    </filter>
    <filter
       style="color-interpolation-filters:sRGB;"
       inkscape:label="Drop Shadow"
       id="filter20982"
       x="-0.384"
       y="-0.768"
       width="1.9013333"
       height="2.8026667">
      <feGaussianBlur
         stdDeviation="0.2"
         result="blur"
         id="feGaussianBlur20974" />
      <feComposite
         in="SourceGraphic"
         in2="blur"
         operator="atop"
         result="composite1"
         id="feComposite20976" />
      <feComposite
         in2="composite1"
         operator="in"
         result="composite2"
         id="feComposite20978" />
      <feComposite
         in2="composite2"
         operator="in"
         result="fbSourceGraphic"
         id="feComposite20980" />
      <feColorMatrix
         result="fbSourceGraphicAlpha"
         in="fbSourceGraphic"
         values="0 0 0 -1 0 0 0 0 -1 0 0 0 0 -1 0 0 0 0 1 0"
         id="feColorMatrix21130" />
      <feFlood
         id="feFlood21132"
         flood-opacity="0.909804"
         flood-color="rgb(10,10,10)"
         result="flood"
         in="fbSourceGraphic" />
      <feComposite
         in2="fbSourceGraphic"
         id="feComposite21134"
         in="flood"
         operator="in"
         result="composite1" />
      <feGaussianBlur
         id="feGaussianBlur21136"
         in="composite1"
         stdDeviation="1"
         result="blur" />
      <feOffset
         id="feOffset21138"
         dx="1"
         dy="1"
         result="offset" />
      <feComposite
         in2="offset"
         id="feComposite21140"
         in="fbSourceGraphic"
         operator="over"
         result="composite2" />
    </filter>
    <filter
       style="color-interpolation-filters:sRGB;"
       inkscape:label="Drop Shadow"
       id="filter20992"
       x="-0.36209335"
       y="-0.36209335"
       width="1.8499136"
       height="1.8499136">
      <feGaussianBlur
         stdDeviation="0.2"
         result="blur"
         id="feGaussianBlur20984" />
      <feComposite
         in="SourceGraphic"
         in2="blur"
         operator="atop"
         result="composite1"
         id="feComposite20986" />
      <feComposite
         in2="composite1"
         operator="in"
         result="composite2"
         id="feComposite20988" />
      <feComposite
         in2="composite2"
         operator="in"
         result="fbSourceGraphic"
         id="feComposite20990" />
      <feColorMatrix
         result="fbSourceGraphicAlpha"
         in="fbSourceGraphic"
         values="0 0 0 -1 0 0 0 0 -1 0 0 0 0 -1 0 0 0 0 1 0"
         id="feColorMatrix21118" />
      <feFlood
         id="feFlood21120"
         flood-opacity="0.909804"
         flood-color="rgb(10,10,10)"
         result="flood"
         in="fbSourceGraphic" />
      <feComposite
         in2="fbSourceGraphic"
         id="feComposite21122"
         in="flood"
         operator="in"
         result="composite1" />
      <feGaussianBlur
         id="feGaussianBlur21124"
         in="composite1"
         stdDeviation="1"
         result="blur" />
      <feOffset
         id="feOffset21126"
         dx="1"
         dy="1"
         result="offset" />
      <feComposite
         in2="offset"
         id="feComposite21128"
         in="fbSourceGraphic"
         operator="over"
         result="composite2" />
    </filter>
    <filter
       style="color-interpolation-filters:sRGB;"
       inkscape:label="Drop Shadow"
       id="filter21002"
       x="-0.768"
       y="-0.384"
       width="2.8026667"
       height="1.9013333">
      <feGaussianBlur
         stdDeviation="0.2"
         result="blur"
         id="feGaussianBlur20994" />
      <feComposite
         in="SourceGraphic"
         in2="blur"
         operator="atop"
         result="composite1"
         id="feComposite20996" />
      <feComposite
         in2="composite1"
         operator="in"
         result="composite2"
         id="feComposite20998" />
      <feComposite
         in2="composite2"
         operator="in"
         result="fbSourceGraphic"
         id="feComposite21000" />
      <feColorMatrix
         result="fbSourceGraphicAlpha"
         in="fbSourceGraphic"
         values="0 0 0 -1 0 0 0 0 -1 0 0 0 0 -1 0 0 0 0 1 0"
         id="feColorMatrix21106" />
      <feFlood
         id="feFlood21108"
         flood-opacity="0.909804"
         flood-color="rgb(10,10,10)"
         result="flood"
         in="fbSourceGraphic" />
      <feComposite
         in2="fbSourceGraphic"
         id="feComposite21110"
         in="flood"
         operator="in"
         result="composite1" />
      <feGaussianBlur
         id="feGaussianBlur21112"
         in="composite1"
         stdDeviation="1"
         result="blur" />
      <feOffset
         id="feOffset21114"
         dx="1"
         dy="1"
         result="offset" />
      <feComposite
         in2="offset"
         id="feComposite21116"
         in="fbSourceGraphic"
         operator="over"
         result="composite2" />
    </filter>
    <filter
       style="color-interpolation-filters:sRGB;"
       inkscape:label="Drop Shadow"
       id="filter21012"
       x="-0.36209335"
       y="-0.36209335"
       width="1.8499136"
       height="1.8499136">
      <feGaussianBlur
         stdDeviation="0.2"
         result="blur"
         id="feGaussianBlur21004" />
      <feComposite
         in="SourceGraphic"
         in2="blur"
         operator="atop"
         result="composite1"
         id="feComposite21006" />
      <feComposite
         in2="composite1"
         operator="in"
         result="composite2"
         id="feComposite21008" />
      <feComposite
         in2="composite2"
         operator="in"
         result="fbSourceGraphic"
         id="feComposite21010" />
      <feColorMatrix
         result="fbSourceGraphicAlpha"
         in="fbSourceGraphic"
         values="0 0 0 -1 0 0 0 0 -1 0 0 0 0 -1 0 0 0 0 1 0"
         id="feColorMatrix21094" />
      <feFlood
         id="feFlood21096"
         flood-opacity="0.909804"
         flood-color="rgb(10,10,10)"
         result="flood"
         in="fbSourceGraphic" />
      <feComposite
         in2="fbSourceGraphic"
         id="feComposite21098"
         in="flood"
         operator="in"
         result="composite1" />
      <feGaussianBlur
         id="feGaussianBlur21100"
         in="composite1"
         stdDeviation="1"
         result="blur" />
      <feOffset
         id="feOffset21102"
         dx="1"
         dy="1"
         result="offset" />
      <feComposite
         in2="offset"
         id="feComposite21104"
         in="fbSourceGraphic"
         operator="over"
         result="composite2" />
    </filter>
    <filter
       style="color-interpolation-filters:sRGB;"
       inkscape:label="Drop Shadow"
       id="filter21022"
       x="-0.384"
       y="-0.768"
       width="1.9013333"
       height="2.8026667">
      <feGaussianBlur
         stdDeviation="0.2"
         result="blur"
         id="feGaussianBlur21014" />
      <feComposite
         in="SourceGraphic"
         in2="blur"
         operator="atop"
         result="composite1"
         id="feComposite21016" />
      <feComposite
         in2="composite1"
         operator="in"
         result="composite2"
         id="feComposite21018" />
      <feComposite
         in2="composite2"
         operator="in"
         result="fbSourceGraphic"
         id="feComposite21020" />
      <feColorMatrix
         result="fbSourceGraphicAlpha"
         in="fbSourceGraphic"
         values="0 0 0 -1 0 0 0 0 -1 0 0 0 0 -1 0 0 0 0 1 0"
         id="feColorMatrix21082" />
      <feFlood
         id="feFlood21084"
         flood-opacity="0.909804"
         flood-color="rgb(10,10,10)"
         result="flood"
         in="fbSourceGraphic" />
      <feComposite
         in2="fbSourceGraphic"
         id="feComposite21086"
         in="flood"
         operator="in"
         result="composite1" />
      <feGaussianBlur
         id="feGaussianBlur21088"
         in="composite1"
         stdDeviation="1"
         result="blur" />
      <feOffset
         id="feOffset21090"
         dx="1"
         dy="1"
         result="offset" />
      <feComposite
         in2="offset"
         id="feComposite21092"
         in="fbSourceGraphic"
         operator="over"
         result="composite2" />
    </filter>
    <filter
       style="color-interpolation-filters:sRGB;"
       inkscape:label="Drop Shadow"
       id="filter21032"
       x="-0.36209335"
       y="-0.36209335"
       width="1.8499136"
       height="1.8499136">
      <feGaussianBlur
         stdDeviation="0.2"
         result="blur"
         id="feGaussianBlur21024" />
      <feComposite
         in="SourceGraphic"
         in2="blur"
         operator="atop"
         result="composite1"
         id="feComposite21026" />
      <feComposite
         in2="composite1"
         operator="in"
         result="composite2"
         id="feComposite21028" />
      <feComposite
         in2="composite2"
         operator="in"
         result="fbSourceGraphic"
         id="feComposite21030" />
      <feColorMatrix
         result="fbSourceGraphicAlpha"
         in="fbSourceGraphic"
         values="0 0 0 -1 0 0 0 0 -1 0 0 0 0 -1 0 0 0 0 1 0"
         id="feColorMatrix21070" />
      <feFlood
         id="feFlood21072"
         flood-opacity="0.909804"
         flood-color="rgb(10,10,10)"
         result="flood"
         in="fbSourceGraphic" />
      <feComposite
         in2="fbSourceGraphic"
         id="feComposite21074"
         in="flood"
         operator="in"
         result="composite1" />
      <feGaussianBlur
         id="feGaussianBlur21076"
         in="composite1"
         stdDeviation="1"
         result="blur" />
      <feOffset
         id="feOffset21078"
         dx="1"
         dy="1"
         result="offset" />
      <feComposite
         in2="offset"
         id="feComposite21080"
         in="fbSourceGraphic"
         operator="over"
         result="composite2" />
    </filter>
    <linearGradient
       inkscape:collect="always"
       xlink:href="#linearGradient23298"
       id="linearGradient23302"
       x1="26.370001"
       y1="48.5"
       x2="70.630005"
       y2="48.5"
       gradientUnits="userSpaceOnUse" />
    <filter
       style="color-interpolation-filters:sRGB;"
       inkscape:label="Drop Shadow"
       id="filter23362"
       x="-0.096662844"
       y="-0.096165755"
       width="1.2268892"
       height="1.2257224">
      <feGaussianBlur
         stdDeviation="0.2"
         result="blur"
         id="feGaussianBlur23354" />
      <feComposite
         in="SourceGraphic"
         in2="blur"
         operator="atop"
         result="composite1"
         id="feComposite23356" />
      <feComposite
         in2="composite1"
         operator="in"
         result="composite2"
         id="feComposite23358" />
      <feComposite
         in2="composite2"
         operator="in"
         result="fbSourceGraphic"
         id="feComposite23360" />
      <feColorMatrix
         result="fbSourceGraphicAlpha"
         in="fbSourceGraphic"
         values="0 0 0 -1 0 0 0 0 -1 0 0 0 0 -1 0 0 0 0 1 0"
         id="feColorMatrix23364" />
      <feFlood
         id="feFlood23366"
         flood-opacity="0.909804"
         flood-color="rgb(10,10,10)"
         result="flood"
         in="fbSourceGraphic" />
      <feComposite
         in2="fbSourceGraphic"
         id="feComposite23368"
         in="flood"
         operator="in"
         result="composite1" />
      <feGaussianBlur
         id="feGaussianBlur23370"
         in="composite1"
         stdDeviation="1"
         result="blur" />
      <feOffset
         id="feOffset23372"
         dx="1"
         dy="1"
         result="offset" />
      <feComposite
         in2="offset"
         id="feComposite23374"
         in="fbSourceGraphic"
         operator="over"
         result="composite2" />
    </filter>
  </defs>
  <g
     fill="url(#g)"
     id="g18840">
    <path
       opacity="0.08"
       d="m12 95.031c-5.5111 0-10.031-4.52-10.031-10.031v-71c0-5.5111 4.5202-10.031 10.031-10.031h72c5.5111 0 10.031 4.5202 10.031 10.031v71c0 5.5111-4.5202 10.031-10.031 10.031h-72z"
       id="path18834" />
    <path
       opacity=".1"
       d="m12 94.031c-4.9716 0-9.0312-4.0596-9.0312-9.0312v-71c0-4.9718 4.0596-9.0314 9.0312-9.0314h72c4.9716 0 9.0312 4.0596 9.0312 9.0312v71c0 4.9716-4.0596 9.0312-9.0312 9.0312h-72z"
       id="path18836" />
    <path
       opacity=".2"
       d="m12 93c-4.4091 0-8-3.591-8-8v-71c0-4.4091 3.5909-8 8-8h72c4.4091 0 8 3.5909 8 8v71c0 4.4091-3.5909 8-8 8h-72z"
       id="path18838" />
  </g>
  <rect
     opacity=".3"
     rx="7"
     ry="7"
     height="85"
     width="86"
     y="7"
     x="5"
     fill="url(#h)"
     id="rect18842" />
  <rect
     opacity=".45"
     rx="6"
     ry="6"
     height="84"
     width="84"
     y="7"
     x="6"
     fill="url(#i)"
     id="rect18844" />
  <rect
     rx="5.8528"
     ry="6.1733"
     height="78.516"
     width="77.915"
     y="8.2544"
     x="8.1409"
     fill="url(#e)"
     id="rect18846"
     style="fill:#eeeeee;fill-opacity:0.76078433" />
  <path
     opacity=".15"
     d="m19 13c-3.2894 0-6 2.7106-6 6v58c0 3.2894 2.7106 6 6 6h58c3.2894 0 6-2.7106 6-6v-58c0-3.2894-2.7106-6-6-6h-58zm0 4h58c1.1426 0 2 0.85741 2 2v58c0 1.1426-0.85741 2-2 2h-58c-1.1426 0-2-0.85741-2-2v-58c0-1.1426 0.85741-2 2-2z"
     id="path18876" />
  <path
     opacity=".3"
     d="m17 14c-1.662 0-3 1.338-3 3v62c0 1.662 1.338 3 3 3h62c1.662 0 3-1.338 3-3v-62c0-1.662-1.338-3-3-3h-62zm0 1.9375h62c0.61816 0 1.0625 0.44434 1.0625 1.0625v62c0 0.61816-0.44434 1.0625-1.0625 1.0625h-62c-0.61816 0-1.0625-0.44434-1.0625-1.0625v-62c0-0.61816 0.44434-1.0625 1.0625-1.0625z"
     id="path18878" />
  <path
     opacity=".6"
     d="m17 14c-1.662 0-3 1.338-3 3v62c0 1.662 1.338 3 3 3h62c1.662 0 3-1.338 3-3v-62c0-1.662-1.338-3-3-3h-62zm0 0.96875h62c1.1401 0 2.0312 0.89117 2.0312 2.0312v62c0 1.1401-0.89117 2.0312-2.0312 2.0312h-62c-1.1401 0-2.0312-0.89117-2.0312-2.0312v-62c0-1.1401 0.89117-2.0312 2.0312-2.0312z"
     id="path18880" />
  <path
     d="m12 6c-3.324 0-6 2.676-6 6v72c0 3.324 2.676 6 6 6h72c3.324 0 6-2.676 6-6v-72c0-3.324-2.676-6-6-6h-72zm5 7h62c2.216 0 4 1.784 4 4v62c0.000001 2.216-1.784 4-4 4h-62c-2.216 0.000001-4-1.784-4-4v-62c0-2.216 1.784-4 4-4z"
     fill="url(#j)"
     id="path18882" />
  <path
     opacity=".5"
     d="m12 6c-3.324 0-6 2.676-6 6v72c0 0.33472 0.04135 0.6507 0.09375 0.96875 0.0487 0.2956 0.09704 0.59692 0.1875 0.875 0.00988 0.03038 0.020892 0.0636 0.03125 0.09375 0.098865 0.28777 0.23488 0.54745 0.375 0.8125 0.14459 0.27351 0.31562 0.53562 0.5 0.78125 0.18438 0.24564 0.37378 0.47347 0.59375 0.6875 0.43995 0.42806 0.94291 0.81453 1.5 1.0938 0.27854 0.13961 0.57347 0.24695 0.875 0.34375-0.2562-0.10022-0.48671-0.23627-0.71875-0.375-0.00741-0.0044-0.023866 0.0045-0.03125 0-0.0319-0.019-0.0622-0.042-0.0937-0.062-0.1204-0.077-0.231-0.164-0.3437-0.25-0.1062-0.081-0.2133-0.161-0.3126-0.25-0.1778-0.162-0.3473-0.346-0.4999-0.531-0.1075-0.131-0.2183-0.266-0.3124-0.407-0.0251-0.038-0.0385-0.086-0.0626-0.125-0.0647-0.103-0.1302-0.204-0.1874-0.312-0.1011-0.195-0.2057-0.416-0.2813-0.625-0.008-0.022-0.0236-0.041-0.0313-0.063-0.0318-0.092-0.0358-0.187-0.0624-0.281-0.0304-0.107-0.0704-0.203-0.0938-0.313-0.0729-0.341-0.125-0.698-0.125-1.062v-72c0-2.782 2.2182-5 5-5h72c2.7818 0 5 2.2182 5 5v72c0 0.3643-0.05212 0.72099-0.125 1.0625-0.04415 0.20689-0.08838 0.39766-0.15625 0.59375-0.0077 0.02195-0.0233 0.04069-0.03125 0.0625-0.06274 0.17374-0.13838 0.36745-0.21875 0.53125-0.04158 0.0828-0.07904 0.16995-0.125 0.25-0.0546 0.09721-0.12677 0.18835-0.1875 0.28125-0.09411 0.14096-0.20492 0.276-0.3125 0.40625-0.14317 0.17445-0.30314 0.347-0.46875 0.5-0.01117 0.0102-0.01998 0.02115-0.03125 0.03125-0.13839 0.12556-0.28509 0.23444-0.4375 0.34375-0.10257 0.07315-0.20432 0.15336-0.3125 0.21875-0.0074 0.0045-0.02384-0.0044-0.03125 0-0.23204 0.13873-0.46255 0.27478-0.71875 0.375 0.30153-0.0968 0.59646-0.20414 0.875-0.34375 0.55709-0.27922 1.0601-0.66569 1.5-1.0938 0.21997-0.21403 0.40937-0.44186 0.59375-0.6875s0.35541-0.50774 0.5-0.78125c0.14012-0.26505 0.27614-0.52473 0.375-0.8125 0.01041-0.03078 0.02133-0.06274 0.03125-0.09375 0.09046-0.27808 0.1388-0.5794 0.1875-0.875 0.053-0.318 0.094-0.634 0.094-0.969v-72c0-3.324-2.676-6-6-6h-72z"
     fill="url(#m)"
     id="path18884" />
  <path
     d="m17 12c-2.7527 0-5 2.2473-5 5v62c0 2.7527 2.2473 5 5 5h62c2.7527 0 5-2.2473 5-5v-62c0-2.7527-2.2473-5-5-5h-62zm0 2h62c1.6793 0 3 1.3207 3 3v62c0.000001 1.6793-1.3207 3-3 3h-62c-1.6793 0-3-1.3207-3-3v-62c0-1.6793 1.3207-3 3-3z"
     fill="url(#n)"
     id="path18886" />
  <path
     opacity=".4"
     d="m12 90c-3.324 0-6-2.676-6-6v-72c0-0.33472 0.04135-0.6507 0.09375-0.96875 0.0487-0.2956 0.09704-0.59692 0.1875-0.875 0.0099-0.03 0.0209-0.063 0.0313-0.094 0.0989-0.2873 0.2349-0.547 0.375-0.812 0.1446-0.2735 0.3156-0.5356 0.5-0.7812 0.1844-0.2457 0.3738-0.4735 0.5937-0.6876 0.44-0.428 0.943-0.8145 1.5-1.0937 0.2786-0.1396 0.5735-0.2469 0.8748-0.3437-0.256 0.1002-0.4865 0.2362-0.7185 0.375-0.00741 0.0044-0.023866-0.0045-0.03125 0-0.031933 0.0193-0.062293 0.04251-0.09375 0.0625-0.1204 0.0767-0.23102 0.16351-0.34375 0.25-0.10617 0.0808-0.21328 0.16111-0.3125 0.25-0.1779 0.1614-0.3474 0.3453-0.5 0.5312-0.1075 0.1303-0.2183 0.2653-0.3124 0.4063-0.0251 0.0383-0.0385 0.0858-0.0626 0.125-0.0647 0.103-0.1302 0.2045-0.1874 0.3124-0.1011 0.1948-0.2057 0.4158-0.2813 0.625-0.008 0.0219-0.0236 0.0406-0.0313 0.0626-0.0318 0.0919-0.0358 0.1868-0.0624 0.2812-0.0304 0.1066-0.0704 0.203-0.0938 0.3125-0.0729 0.3415-0.125 0.6985-0.125 1.0625v72c0 2.7818 2.2182 5 5 5h72c2.7818 0 5-2.2182 5-5v-72c0-0.364-0.052-0.721-0.125-1.0625-0.044-0.2069-0.088-0.3977-0.156-0.5937-0.008-0.022-0.024-0.0407-0.031-0.0626-0.063-0.1737-0.139-0.3674-0.219-0.5312-0.042-0.0828-0.079-0.17-0.125-0.25-0.055-0.0972-0.127-0.1884-0.188-0.2812-0.094-0.141-0.205-0.276-0.312-0.4063-0.143-0.1745-0.303-0.347-0.469-0.5-0.011-0.0102-0.02-0.0211-0.031-0.0313-0.139-0.1255-0.285-0.2344-0.438-0.3437-0.102-0.0731-0.204-0.1534-0.312-0.2187-0.0074-0.0045-0.02384 0.0044-0.03125 0-0.23204-0.13873-0.46255-0.27478-0.71875-0.375 0.30153 0.0968 0.59646 0.20414 0.875 0.34375 0.55709 0.27922 1.0601 0.66569 1.5 1.0938 0.21997 0.21403 0.40937 0.44186 0.59375 0.6875s0.35541 0.50774 0.5 0.78125c0.14012 0.26505 0.27614 0.52473 0.375 0.8125 0.01041 0.03078 0.02133 0.06274 0.03125 0.09375 0.09046 0.27808 0.1388 0.5794 0.1875 0.875 0.053 0.318 0.094 0.634 0.094 0.969v72c0 3.324-2.676 6-6 6h-72z"
     fill="url(#f)"
     id="path18888" />
  <path
     style="display:inline;fill:url(#linearGradient23302);fill-opacity:1;stroke-width:3.75;filter:url(#filter20952)"
     d="m 48,29.25 a 18.75,18.75 0 1 0 0,37.5 18.75,18.75 0 0 0 0,-37.5 z"
     id="path2"
     transform="matrix(1.4460008,0,0,1.4460008,-22.131041,-22.131041)" />
  <path
     style="fill:#0000ff;fill-opacity:0.75972933;stroke-width:3.75;filter:url(#filter23362)"
     d="M 44.06625,33 A 13.45875,13.45875 0 0 0 41.475,44.98125 13.485,13.485 0 0 0 57.9825,54.5175 C 59.82,54.01875 61.53,53.13 63,51.92625 A 15.315,15.315 0 0 1 52.27125,62.47875 15.30375,15.30375 0 0 1 44.06625,33 Z"
     id="path19114"
     transform="matrix(1.4460008,0,0,1.4460008,-22.131041,-22.131041)" />
</svg>
