<?xml version="1.0" encoding="UTF-8" standalone="no"?>
<svg
   xmlns:dc="http://purl.org/dc/elements/1.1/"
   xmlns:cc="http://creativecommons.org/ns#"
   xmlns:rdf="http://www.w3.org/1999/02/22-rdf-syntax-ns#"
   xmlns:svg="http://www.w3.org/2000/svg"
   xmlns="http://www.w3.org/2000/svg"
   xmlns:xlink="http://www.w3.org/1999/xlink"
   xmlns:sodipodi="http://sodipodi.sourceforge.net/DTD/sodipodi-0.dtd"
   xmlns:inkscape="http://www.inkscape.org/namespaces/inkscape"
   height="96"
   width="96"
   version="1.1"
   id="svg2"
   inkscape:version="0.91 r13725"
   sodipodi:docname="hicolor_categories_scalable_cs-applets.svg">
  <metadata
     id="metadata209">
    <rdf:RDF>
      <cc:Work
         rdf:about="">
        <dc:format>image/svg+xml</dc:format>
        <dc:type
           rdf:resource="http://purl.org/dc/dcmitype/StillImage" />
        <dc:title></dc:title>
      </cc:Work>
    </rdf:RDF>
  </metadata>
  <sodipodi:namedview
     pagecolor="#ffffff"
     bordercolor="#666666"
     borderopacity="1"
     objecttolerance="10"
     gridtolerance="10"
     guidetolerance="10"
     inkscape:pageopacity="0"
     inkscape:pageshadow="2"
     inkscape:window-width="1280"
     inkscape:window-height="690"
     id="namedview207"
     showgrid="false"
     inkscape:zoom="4.9166667"
     inkscape:cx="59.338349"
     inkscape:cy="42.95722"
     inkscape:window-x="0"
     inkscape:window-y="26"
     inkscape:window-maximized="1"
     inkscape:current-layer="svg2" />
  <defs
     id="defs4">
    <linearGradient
       inkscape:collect="always"
       id="linearGradient4492">
      <stop
         style="stop-color:#292929;stop-opacity:1"
         offset="0"
         id="stop4494" />
      <stop
         id="stop4500"
         offset="0.53828025"
         style="stop-color:#8a8a8a;stop-opacity:1" />
      <stop
         style="stop-color:#292929;stop-opacity:1"
         offset="1"
         id="stop4496" />
    </linearGradient>
    <linearGradient
       inkscape:collect="always"
       id="linearGradient4473">
      <stop
         style="stop-color:#7c7c7c;stop-opacity:1"
         offset="0"
         id="stop4475" />
      <stop
         id="stop4481"
         offset="0.61505467"
         style="stop-color:#dddddd;stop-opacity:1" />
      <stop
         style="stop-color:#7c7c7c;stop-opacity:1"
         offset="1"
         id="stop4477" />
    </linearGradient>
    <linearGradient
       inkscape:collect="always"
       id="linearGradient4440">
      <stop
         style="stop-color:#ffffff;stop-opacity:0.6"
         offset="0"
         id="stop4442" />
      <stop
         id="stop4448"
         offset="0.40639395"
         style="stop-color:#ffffff;stop-opacity:0.8" />
      <stop
         style="stop-color:#ffffff;stop-opacity:0.4"
         offset="1"
         id="stop4444" />
    </linearGradient>
    <linearGradient
       inkscape:collect="always"
       id="linearGradient4411">
      <stop
         style="stop-color:#494949;stop-opacity:1;"
         offset="0"
         id="stop4413" />
      <stop
         style="stop-color:#464646;stop-opacity:0.05"
         offset="1"
         id="stop4415" />
    </linearGradient>
    <linearGradient
       id="ah"
       stop-color="#fff">
      <stop
         offset="0"
         id="stop7" />
      <stop
         stop-opacity="0"
         offset="1"
         id="stop9" />
    </linearGradient>
    <filter
       id="as"
       height="1.384"
       width="1.384"
       color-interpolation-filters="sRGB"
       y="-.192"
       x="-.192">
      <feGaussianBlur
         stdDeviation="5.28"
         id="feGaussianBlur12" />
    </filter>
    <linearGradient
       id="au"
       y2="138.66"
       xlink:href="#ah"
       gradientUnits="userSpaceOnUse"
       x2="48"
       y1="20.221"
       x1="48" />
    <clipPath
       id="ar">
      <rect
         rx="6"
         ry="6"
         height="84"
         width="84"
         y="6"
         x="6"
         fill="#fff"
         id="rect16" />
    </clipPath>
    <linearGradient
       id="av"
       stop-color="#fff"
       y2="104"
       gradientUnits="userSpaceOnUse"
       x2="40"
       y1="56.209"
       x1="40">
      <stop
         offset="0"
         id="stop19" />
      <stop
         stop-opacity=".49804"
         offset=".29592"
         id="stop21" />
      <stop
         stop-opacity="0"
         offset="1"
         id="stop23" />
    </linearGradient>
    <linearGradient
       id="aw"
       y2="44.091"
       gradientUnits="userSpaceOnUse"
       x2="16"
       gradientTransform="translate(0,8)"
       y1="48"
       x1="16">
      <stop
         offset="0"
         id="stop26" />
      <stop
         stop-opacity=".49804"
         offset=".25926"
         id="stop28" />
      <stop
         stop-opacity="0"
         offset="1"
         id="stop30" />
    </linearGradient>
    <filter
       id="ag"
       color-interpolation-filters="sRGB">
      <feGaussianBlur
         stdDeviation="0.8"
         id="feGaussianBlur33" />
    </filter>
    <clipPath
       id="m">
      <path
         fill="#fff"
         d="m33 1c-0.277 0-0.54181 0.055313-0.78125 0.15625-0.37163 0.26346-0.71445 0.58231-1 0.9375-0.138 0.2716-0.219 0.5798-0.219 0.9062v4.9688c0.89033 1.2931 2.3739 2.1563 4.0625 2.1562 2.727 0 4.938-2.2106 4.938-4.9375 0-1.7705-0.944-3.316-2.344-4.1875h-4.656zm7.5312 0 0.5625 0.84375 0.46875-0.25 0.437-0.0938h1.125l0.25 0.59375-0.75 0.8125-0.40625 0.25-0.53125 0.15625 0.25 1.0938 0.5-0.0625 0.46875 0.0625 1.0312 0.4375v0.6563l-1.031 0.4688-0.468 0.0312-0.5-0.03125-0.25 1.125 0.531 0.1562 0.406 0.2188 0.75 0.8124-0.25 0.5938-1.125 0.0312-0.438-0.125-0.468-0.2812-0.625 0.96875 0.375 0.3125 0.3125 0.40625 0.4375 1.0312-0.469 0.469-1.031-0.438-0.406-0.25-0.313-0.438-0.96875 0.65625 0.25 0.4375 0.15625 0.5-0.03125 1.0625-0.625 0.282-0.781-0.781-0.281-0.407-0.094-0.531-1.125 0.25 0.03125 0.5-0.0625 0.5-0.4375 1h-0.65625l-0.46875-1-0.03125-0.5 0.03125-0.5-1.125-0.25-0.094 0.531-0.281 0.407-0.781 0.781-0.59375-0.28125-0.0625-1.0625 0.15625-0.5 0.25-0.4375-0.75-0.5v8.281c0 1.108 0.892 2 2 2h6.8438l0.28125-0.25 0.46875-0.25-0.46875-1.1562-0.53125 0.1875-0.5 0.03125-1.1562-0.25-0.15625-0.6875 0.96875-0.6875 0.5-0.15625 0.53125-0.0625v-1.2188l-0.53125-0.03125-0.5-0.1875-1-0.65625 0.15625-0.6875 1.1562-0.25h0.5l0.53125 0.1875 0.46875-1.1562-0.5-0.25-0.40625-0.3125-0.625-1 0.375-0.59375 1.1562 0.1875 0.5 0.25 0.40625 0.34375 0.84375-0.875-0.34375-0.40625-0.21875-0.46875-0.21875-1.1875 0.5625-0.375 1 0.625 0.34375 0.375 0.28125 0.5 1.125-0.46875-0.188-0.5308-0.031-0.5312 0.25-1.1562 0.6875-0.125 0.6875 0.96875 0.15625 0.46875 0.0625 0.5625 1.2188-0.03125 0.03125-0.53125 0.1875-0.5 0.656-0.9688 0.688 0.125 0.281 1.1563-0.031 0.5312-0.188 0.5 1.157 0.469 0.25-0.469 0.281-0.3438v-6.6571c0-1.108-0.892-2-2-2h-8.4688zm-5.5 0.3125c2.1217 0 3.8438 1.7221 3.8438 3.8438 0 2.1216-1.722 3.8437-3.844 3.8437-2.121 0-3.843-1.7221-3.843-3.8438s1.7221-3.8438 3.8438-3.8438zm0 1.7188c-1.242 0-2.25 0.95205-2.25 2.125s1.008 2.125 2.25 2.125 2.25-0.95205 2.25-2.125-1.008-2.125-2.25-2.125zm12.094 8.375c-1.2762 0-2.4599 0.44167-3.4062 1.1562l1.813 1.938c0.46114-0.28724 1.0108-0.4375 1.5938-0.4375 0.29398 0 0.57511 0.04631 0.84375 0.125l1.2188-2.375c-0.642-0.253-1.334-0.407-2.064-0.407zm3.094 0.938-1.219 2.375c0.68574 0.54448 1.1138 1.3722 1.125 2.3125l0.875 0.155v-4.219c-0.24222-0.22776-0.50205-0.44206-0.78125-0.625zm-7.3438 1c-0.87349 0.99394-1.4062 2.2926-1.4062 3.7188 0 0.63718 0.11756 1.2409 0.3125 1.8125l2.407-1.094c-0.056-0.228-0.063-0.474-0.063-0.719 0-0.66266 0.1992-1.2839 0.5625-1.7812l-1.8125-1.9375zm4.25 2.75c-0.53504 0-0.96875 0.43372-0.96875 0.96875 0 0.53504 0.43372 0.96875 0.96875 0.96875 0.53504 0 0.96875-0.43372 0.96875-0.96875 0-0.53504-0.43372-0.96875-0.96875-0.96875zm2.8125 2.0625c-0.32204 0.82378-1.0024 1.4646-1.8438 1.75l0.156 1.094h0.75c1.108 0 2-0.892 2-2v-0.65625l-1.0625-0.1875zm-5.25 0.65625-2.4375 1.125c0.23048 0.39031 0.49754 0.7398 0.8125 1.0625h4l-0.125-0.9375c-0.93376-0.05393-1.7355-0.53535-2.25-1.25z"
         fill-rule="evenodd"
         id="path36" />
    </clipPath>
    <filter
       id="ab"
       height="1.36"
       width="1.36"
       color-interpolation-filters="sRGB"
       y="-0.18"
       x="-0.18">
      <feGaussianBlur
         stdDeviation="1.2"
         id="feGaussianBlur39" />
    </filter>
    <clipPath
       id="l">
      <rect
         fill-rule="evenodd"
         rx="2"
         ry="2"
         height="20"
         width="20"
         y="1"
         x="1"
         fill="#fff"
         id="rect42" />
    </clipPath>
    <clipPath
       id="aa">
      <rect
         fill-rule="evenodd"
         rx="2"
         ry="2"
         height="20"
         width="20"
         y="1"
         x="1"
         fill="#fff"
         id="rect45" />
    </clipPath>
    <linearGradient
       id="a"
       y2=".9993"
       gradientUnits="userSpaceOnUse"
       x2="10.32"
       y1="21"
       x1="10.32">
      <stop
         stop-color="#afafaf"
         offset="0"
         id="stop48" />
      <stop
         stop-color="#d8d8d8"
         offset="1"
         id="stop50" />
    </linearGradient>
    <linearGradient
       id="b">
      <stop
         offset="0"
         id="stop53" />
      <stop
         stop-opacity="0"
         offset="1"
         id="stop55" />
    </linearGradient>
    <linearGradient
       id="k"
       y2="7.0165"
       gradientUnits="userSpaceOnUse"
       x2="45.448"
       gradientTransform="matrix(1.0059 0 0 .99417 100 0)"
       y1="92.54"
       x1="45.448">
      <stop
         offset="0"
         id="stop58" />
      <stop
         stop-opacity=".58824"
         offset="1"
         id="stop60" />
    </linearGradient>
    <linearGradient
       id="aq"
       y2="6"
       xlink:href="#k"
       gradientUnits="userSpaceOnUse"
       x2="32.251"
       gradientTransform="translate(0,1)"
       y1="90"
       x1="32.251" />
    <linearGradient
       id="ap"
       y2="5.9996"
       xlink:href="#k"
       gradientUnits="userSpaceOnUse"
       x2="32.251"
       gradientTransform="matrix(1.0238 0 0 1.0119 -1.1429 .929)"
       y1="90"
       x1="32.251" />
    <linearGradient
       id="ao"
       y2="90.239"
       xlink:href="#k"
       gradientUnits="userSpaceOnUse"
       x2="32.251"
       gradientTransform="matrix(1.0238,0,0,-1.0119,-1.1429,98.071)"
       y1="6.1317"
       x1="32.251" />
    <radialGradient
       id="at"
       xlink:href="#ah"
       gradientUnits="userSpaceOnUse"
       cy="90.172"
       cx="48"
       gradientTransform="matrix(1.1573 0 0 .99591 -7.551 .19713)"
       r="42" />
    <linearGradient
       id="an"
       y2="63.893"
       xlink:href="#ah"
       gradientUnits="userSpaceOnUse"
       x2="36.357"
       y1="6"
       x1="36.357" />
    <linearGradient
       id="am"
       y2="5.9877"
       gradientUnits="userSpaceOnUse"
       x2="48"
       y1="56.252"
       x1="48">
      <stop
         stop-color="#3465a4"
         offset="0"
         id="stop68" />
      <stop
         stop-color="#729fcf"
         offset="1"
         id="stop70" />
    </linearGradient>
    <linearGradient
       id="al"
       y2="7.2537"
       xlink:href="#a"
       gradientUnits="userSpaceOnUse"
       x2="-3.0608"
       gradientTransform="translate(22.119,44.742)"
       y1="27.258"
       x1="-3.0608" />
    <linearGradient
       id="ak"
       y2="-9.8173"
       xlink:href="#b"
       gradientUnits="userSpaceOnUse"
       x2="11.375"
       gradientTransform="translate(11,51)"
       y1="22"
       x1="11.375" />
    <linearGradient
       id="c"
       y2=".90025"
       gradientUnits="userSpaceOnUse"
       x2="5"
       gradientTransform="matrix(1.0172,0,0,1.0172,-1.1034,-1.1034)"
       y1="21"
       x1="5">
      <stop
         stop-color="#969696"
         offset="0"
         id="stop75" />
      <stop
         stop-color="#cacaca"
         offset="1"
         id="stop77" />
    </linearGradient>
    <linearGradient
       id="aj"
       y2="7.2537"
       xlink:href="#a"
       gradientUnits="userSpaceOnUse"
       x2="-3.0608"
       gradientTransform="translate(48.119,56.742)"
       y1="27.258"
       x1="-3.0608" />
    <linearGradient
       id="ai"
       y2="7.2537"
       xlink:href="#a"
       gradientUnits="userSpaceOnUse"
       x2="-3.0608"
       gradientTransform="translate(74.119,56.742)"
       y1="27.258"
       x1="-3.0608" />
    <linearGradient
       id="ay"
       y2="-9.8173"
       xlink:href="#b"
       gradientUnits="userSpaceOnUse"
       x2="11.375"
       gradientTransform="translate(63,63)"
       y1="22"
       x1="11.375" />
    <linearGradient
       id="ax"
       y2="-9.8173"
       xlink:href="#b"
       gradientUnits="userSpaceOnUse"
       x2="11.375"
       gradientTransform="translate(37,63)"
       y1="22"
       x1="11.375" />
    <linearGradient
       x1="56"
       y1="72"
       x2="56"
       y2="24"
       id="linearGradient3728"
       xlink:href="#linearGradient4081"
       gradientUnits="userSpaceOnUse"
       gradientTransform="translate(-88.271186,-50.627119)" />
    <linearGradient
       id="linearGradient4081">
      <stop
         id="stop4083"
         style="stop-color:#aaaaaa;stop-opacity:1"
         offset="0" />
      <stop
         id="stop4085"
         style="stop-color:#f0f0f0;stop-opacity:1"
         offset="1" />
    </linearGradient>
    <radialGradient
       inkscape:collect="always"
       xlink:href="#linearGradient4411"
       id="radialGradient4417"
       cx="42.305084"
       cy="-18.305084"
       fx="42.305084"
       fy="-18.305084"
       r="15"
       gradientUnits="userSpaceOnUse"
       gradientTransform="translate(23.042928,48.054987)" />
    <linearGradient
       inkscape:collect="always"
       xlink:href="#linearGradient4440"
       id="linearGradient4446"
       x1="160.54237"
       y1="-24.406782"
       x2="133.55933"
       y2="4.0677967"
       gradientUnits="userSpaceOnUse"
       gradientTransform="translate(-81.906231,39.512616)" />
    <linearGradient
       inkscape:collect="always"
       xlink:href="#linearGradient4473"
       id="linearGradient4479"
       x1="26.750208"
       y1="33.760302"
       x2="29.750208"
       y2="33.760302"
       gradientUnits="userSpaceOnUse"
       gradientTransform="matrix(1.6666667,0,0,0.7,18.264342,25.434648)" />
    <linearGradient
       inkscape:collect="always"
       xlink:href="#linearGradient4492"
       id="linearGradient4498"
       x1="60.97897"
       y1="68.279228"
       x2="70.704796"
       y2="68.279228"
       gradientUnits="userSpaceOnUse"
       gradientTransform="translate(0.36905335,-1.294365)" />
  </defs>
  <g
     id="g83"
     fill="url(#ao)">
    <path
       d="m12 95.031c-5.5111 0-10.031-4.52-10.031-10.031v-71c0-5.5111 4.5202-10.031 10.031-10.031h72c5.5111 0 10.031 4.5202 10.031 10.031v71c0 5.5111-4.5202 10.031-10.031 10.031h-72z"
       id="path85"
       opacity="0.08" />
    <path
       d="m12 94.031c-4.9716 0-9.0312-4.0596-9.0312-9.0312v-71c0-4.9722 4.0596-9.0318 9.0312-9.0318h72c4.9716 0 9.0312 4.0596 9.0312 9.0312v71c0 4.9716-4.0596 9.0312-9.0312 9.0312h-72z"
       id="path87"
       opacity=".1" />
    <path
       d="m12 93c-4.4091 0-8-3.591-8-8v-71c0-4.4091 3.5909-8 8-8h72c4.4091 0 8 3.5909 8 8v71c0 4.4091-3.5909 8-8 8h-72z"
       id="path89"
       opacity=".2" />
  </g>
  <rect
     rx="7"
     ry="7"
     height="85"
     width="86"
     y="7"
     x="5"
     id="rect91"
     fill="url(#ap)"
     opacity=".3" />
  <rect
     rx="6"
     ry="6"
     height="84"
     width="84"
     y="7"
     x="6"
     id="rect93"
     fill="url(#aq)"
     opacity=".45" />
  <rect
     rx="6"
     ry="6"
     height="84"
     width="84"
     y="6"
     x="6"
     id="rect95"
     fill="url(#am)" />
  <path
     opacity=".3"
     d="m12 6c-3.324 0-6 2.676-6 6v72c0 0.33472 0.04135 0.6507 0.09375 0.96875 0.0487 0.2956 0.09704 0.59692 0.1875 0.875 0.00988 0.03038 0.020892 0.0636 0.03125 0.09375 0.098865 0.28777 0.23488 0.54745 0.375 0.8125 0.14459 0.27351 0.31562 0.53562 0.5 0.78125 0.18438 0.24564 0.37378 0.47347 0.59375 0.6875 0.43995 0.42806 0.94291 0.81453 1.5 1.0938 0.27854 0.13961 0.57347 0.24695 0.875 0.34375-0.2562-0.10022-0.48671-0.23627-0.71875-0.375-0.00741-0.0044-0.023866 0.0045-0.03125 0-0.0319-0.019-0.0622-0.042-0.0937-0.062-0.1204-0.077-0.231-0.164-0.3437-0.25-0.1062-0.081-0.2133-0.161-0.3126-0.25-0.1778-0.162-0.3473-0.346-0.4999-0.531-0.1075-0.131-0.2183-0.266-0.3124-0.407-0.0251-0.038-0.0385-0.086-0.0626-0.125-0.0647-0.103-0.1302-0.204-0.1874-0.312-0.1011-0.195-0.2057-0.416-0.2813-0.625-0.008-0.022-0.0236-0.041-0.0313-0.063-0.0318-0.092-0.0358-0.187-0.0624-0.281-0.0304-0.107-0.0704-0.203-0.0938-0.313-0.0729-0.341-0.125-0.698-0.125-1.062v-72c0-2.782 2.2182-5 5-5h72c2.7818 0 5 2.2182 5 5v72c0 0.3643-0.05212 0.72099-0.125 1.0625-0.04415 0.20689-0.08838 0.39766-0.15625 0.59375-0.0077 0.02195-0.0233 0.04069-0.03125 0.0625-0.06274 0.17374-0.13838 0.36745-0.21875 0.53125-0.04158 0.0828-0.07904 0.16995-0.125 0.25-0.0546 0.09721-0.12677 0.18835-0.1875 0.28125-0.09411 0.14096-0.20492 0.276-0.3125 0.40625-0.14317 0.17445-0.30314 0.347-0.46875 0.5-0.01117 0.0102-0.01998 0.02115-0.03125 0.03125-0.13839 0.12556-0.28509 0.23444-0.4375 0.34375-0.10257 0.07315-0.20432 0.15336-0.3125 0.21875-0.0074 0.0045-0.02384-0.0044-0.03125 0-0.23204 0.13873-0.46255 0.27478-0.71875 0.375 0.30153-0.0968 0.59646-0.20414 0.875-0.34375 0.55709-0.27922 1.0601-0.66569 1.5-1.0938 0.21997-0.21403 0.40937-0.44186 0.59375-0.6875s0.35541-0.50774 0.5-0.78125c0.14012-0.26505 0.27614-0.52473 0.375-0.8125 0.01041-0.03078 0.02133-0.06274 0.03125-0.09375 0.09046-0.27808 0.1388-0.5794 0.1875-0.875 0.053-0.318 0.094-0.634 0.094-0.969v-72c0-3.324-2.676-6-6-6h-72z"
     fill="url(#an)"
     id="path97" />
  <path
     d="m12 90c-3.324 0-6-2.676-6-6v-72c0-0.33472 0.04135-0.6507 0.09375-0.96875 0.0487-0.2956 0.09704-0.59692 0.1875-0.875 0.0099-0.03 0.0209-0.063 0.0313-0.094 0.0989-0.2873 0.2349-0.547 0.375-0.812 0.1446-0.2735 0.3156-0.5356 0.5-0.7812 0.1844-0.2457 0.3738-0.4735 0.5937-0.6876 0.44-0.428 0.943-0.8145 1.5-1.0937 0.2786-0.1396 0.5735-0.2469 0.8748-0.3437-0.256 0.1002-0.4865 0.2362-0.7185 0.375-0.00741 0.0044-0.023866-0.0045-0.03125 0-0.031933 0.0193-0.062293 0.04251-0.09375 0.0625-0.1204 0.0767-0.23102 0.16351-0.34375 0.25-0.10617 0.0808-0.21328 0.16111-0.3125 0.25-0.1779 0.1614-0.3474 0.3453-0.5 0.5312-0.1075 0.1303-0.2183 0.2653-0.3124 0.4063-0.0251 0.0383-0.0385 0.0858-0.0626 0.125-0.0647 0.103-0.1302 0.2045-0.1874 0.3124-0.1011 0.1948-0.2057 0.4158-0.2813 0.625-0.008 0.0219-0.0236 0.0406-0.0313 0.0626-0.0318 0.0919-0.0358 0.1868-0.0624 0.2812-0.0304 0.1066-0.0704 0.203-0.0938 0.3125-0.0729 0.3415-0.125 0.6985-0.125 1.0625v72c0 2.7818 2.2182 5 5 5h72c2.7818 0 5-2.2182 5-5v-72c0-0.364-0.052-0.721-0.125-1.0625-0.044-0.2069-0.088-0.3977-0.156-0.5937-0.008-0.022-0.024-0.0407-0.031-0.0626-0.063-0.1737-0.139-0.3674-0.219-0.5312-0.042-0.0828-0.079-0.17-0.125-0.25-0.055-0.0972-0.127-0.1884-0.188-0.2812-0.094-0.141-0.205-0.276-0.312-0.4063-0.143-0.1745-0.303-0.347-0.469-0.5-0.011-0.0102-0.02-0.0211-0.031-0.0313-0.139-0.1255-0.285-0.2344-0.438-0.3437-0.102-0.0731-0.204-0.1534-0.312-0.2187-0.0074-0.0045-0.02384 0.0044-0.03125 0-0.23204-0.13873-0.46255-0.27478-0.71875-0.375 0.30153 0.0968 0.59646 0.20414 0.875 0.34375 0.55709 0.27922 1.0601 0.66569 1.5 1.0938 0.21997 0.21403 0.40937 0.44186 0.59375 0.6875s0.35541 0.50774 0.5 0.78125c0.14012 0.26505 0.27614 0.52473 0.375 0.8125 0.01041 0.03078 0.02133 0.06274 0.03125 0.09375 0.09046 0.27808 0.1388 0.5794 0.1875 0.875 0.053 0.318 0.094 0.634 0.094 0.969v72c0 3.324-2.676 6-6 6h-72z"
     id="path99"
     fill="url(#at)"
     opacity=".2" />
  <rect
     clip-path="url(#ar)"
     rx="12"
     ry="12"
     height="66"
     width="66"
     y="15"
     x="15"
     id="rect101"
     filter="url(#as)"
     stroke-linecap="round"
     stroke-width=".5"
     stroke="#fff"
     fill="url(#au)"
     opacity=".1" />
  <g
     id="g4505"
     transform="matrix(0.70710678,0.70710678,-0.70710678,0.70710678,35.255156,-31.67114)">
    <rect
       width="5"
       y="45.56686"
       x="62.848022"
       height="7"
       id="rect4471"
       style="opacity:1;fill:url(#linearGradient4479);fill-opacity:1;stroke:none;stroke-width:2;stroke-miterlimit:4;stroke-dasharray:none;stroke-opacity:0" />
    <g
       id="g4483">
      <circle
         style="opacity:0.1;fill:#000000;fill-opacity:1;fill-rule:evenodd;stroke:none;stroke-width:1px;stroke-linecap:butt;stroke-linejoin:miter;stroke-opacity:1"
         id="path3594"
         cx="65.348022"
         cy="29.749907"
         r="15" />
      <circle
         style="opacity:0.15;fill:url(#radialGradient4417);fill-opacity:1;fill-rule:evenodd;stroke:none;stroke-width:1px;stroke-linecap:butt;stroke-linejoin:miter;stroke-opacity:1"
         id="path3594-3"
         cx="65.348022"
         cy="29.749907"
         r="15" />
      <circle
         style="opacity:1;fill:none;fill-opacity:1;fill-rule:evenodd;stroke:#000000;stroke-width:2;stroke-linecap:butt;stroke-linejoin:miter;stroke-miterlimit:4;stroke-dasharray:none;stroke-opacity:1"
         id="path3594-6"
         cx="65.348022"
         cy="29.749907"
         r="15" />
      <circle
         style="opacity:1;fill:none;fill-opacity:1;fill-rule:evenodd;stroke:url(#linearGradient4446);stroke-width:2;stroke-linecap:butt;stroke-linejoin:miter;stroke-miterlimit:4;stroke-dasharray:none;stroke-opacity:1"
         id="path3594-6-7"
         cx="65.348022"
         cy="29.749907"
         r="15" />
      <path
         style="opacity:0.26000001;fill:#ffffff;fill-opacity:1;stroke:none;stroke-width:2;stroke-miterlimit:4;stroke-dasharray:none;stroke-opacity:0"
         d="m 72.538931,30.900453 c 0,0 3.9926,1.951404 3.41039,3.327899 -0.5822,1.376495 -1.42467,2.616106 -2.46571,3.657146 -1.04104,1.04104 -2.28065,1.883509 -3.65715,2.465717 -1.37649,0.582209 -2.88987,0.904157 -4.478442,0.904158 -1.588573,1e-6 -4.478447,-0.904156 -4.478447,-0.904156 0,0 5.616129,-2.207036 7.848139,-4.150109 1.64283,-1.430169 3.82122,-5.300655 3.82122,-5.300655 z"
         id="path4466"
         inkscape:connector-curvature="0"
         sodipodi:nodetypes="csssscsc" />
    </g>
    <path
       sodipodi:nodetypes="ccssc"
       inkscape:connector-curvature="0"
       id="rect4490"
       d="m 61.348022,50.984863 c 2.810485,1.006728 5.333333,1.150547 8,0 0,0 0.06392,23.019344 0,32 -0.01898,2.666599 -7.98161,2.666603 -8,0 -0.06392,-9.268292 0,-32 0,-32 z"
       style="opacity:1;fill:url(#linearGradient4498);fill-opacity:1;stroke:none;stroke-width:2;stroke-miterlimit:4;stroke-dasharray:none;stroke-opacity:0" />
  </g>
</svg>
