<?xml version="1.0" encoding="UTF-8" standalone="no"?>
<!-- Created with Inkscape (http://www.inkscape.org/) -->

<svg
   width="57.943748mm"
   height="57.943748mm"
   viewBox="0 0 57.943748 57.943748"
   version="1.1"
   id="svg325"
   inkscape:version="1.1.2 (0a00cf5339, 2022-02-04)"
   sodipodi:docname="drawing.svg"
   xmlns:inkscape="http://www.inkscape.org/namespaces/inkscape"
   xmlns:sodipodi="http://sodipodi.sourceforge.net/DTD/sodipodi-0.dtd"
   xmlns:xlink="http://www.w3.org/1999/xlink"
   xmlns="http://www.w3.org/2000/svg"
   xmlns:svg="http://www.w3.org/2000/svg">
  <sodipodi:namedview
     id="namedview327"
     pagecolor="#505050"
     bordercolor="#ffffff"
     borderopacity="1"
     inkscape:pageshadow="0"
     inkscape:pageopacity="0"
     inkscape:pagecheckerboard="1"
     inkscape:document-units="mm"
     showgrid="false"
     inkscape:zoom="0.77593294"
     inkscape:cx="181.71673"
     inkscape:cy="125.65519"
     inkscape:window-width="1920"
     inkscape:window-height="1048"
     inkscape:window-x="2560"
     inkscape:window-y="0"
     inkscape:window-maximized="1"
     inkscape:current-layer="layer1"
     fit-margin-top="0"
     fit-margin-left="0"
     fit-margin-right="0"
     fit-margin-bottom="0" />
  <defs
     id="defs322">
    <linearGradient
       inkscape:collect="always"
       xlink:href="#outerBackgroundGradient-6"
       id="linearGradient8288"
       gradientUnits="userSpaceOnUse"
       gradientTransform="matrix(0,-0.26458333,0.26458333,0,66.982747,182.34638)"
       x1="35"
       y1="156"
       x2="253"
       y2="156" />
    <linearGradient
       id="outerBackgroundGradient-6">
      <stop
         style="stop-color:#dcdcdc;stop-opacity:1"
         offset="0"
         id="stop3864-8-6-4" />
      <stop
         style="stop-color:#f0f0f0;stop-opacity:1"
         offset="1"
         id="stop3866-9-1-8" />
    </linearGradient>
  </defs>
  <g
     inkscape:label="Layer 1"
     inkscape:groupmode="layer"
     id="layer1"
     transform="translate(-79.285872,-115.2745)">
    <path
       style="color:#bebebe;display:inline;overflow:visible;visibility:visible;fill:url(#linearGradient8288);fill-opacity:1;fill-rule:nonzero;stroke:none;stroke-width:0.529167;marker:none;enable-background:accumulate"
       d="m 92.382747,115.2745 c -7.257856,0 -13.096875,5.83902 -13.096875,13.09688 v 31.75 c 0,7.25786 5.839019,13.09687 13.096875,13.09687 h 31.750003 c 7.25785,0 13.09687,-5.83901 13.09687,-13.09687 v -31.75 c 0,-7.25786 -5.83902,-13.09688 -13.09687,-13.09688 z"
       id="path4200" />
    <path
       id="path4369"
       d="m 102.96608,130.22346 h 25.4 v 2.11667 h -25.4 z"
       style="color:#000000;display:inline;overflow:visible;visibility:visible;opacity:0.2;fill:#ffffff;fill-opacity:1;fill-rule:nonzero;stroke:none;stroke-width:1.05833;marker:none;enable-background:accumulate"
       inkscape:connector-curvature="0" />
    <path
       inkscape:connector-curvature="0"
       id="path4371"
       d="m 92.382747,140.27763 c -2.338007,0 -4.233334,1.89533 -4.233334,4.23333 0,2.338 1.895327,4.23334 4.233334,4.23334 2.338006,0 4.233333,-1.89534 4.233333,-4.23334 0,-2.338 -1.895327,-4.23333 -4.233333,-4.23333 z m 0,2.11667 c 1.168992,0 2.116666,0.94766 2.116666,2.11666 0,1.16901 -0.947674,2.11667 -2.116666,2.11667 -1.168993,0 -2.116667,-0.94766 -2.116667,-2.11667 0,-1.169 0.947674,-2.11666 2.116667,-2.11666 z"
       style="color:#000000;display:inline;overflow:visible;visibility:visible;opacity:0.2;fill:#ffffff;fill-opacity:1;fill-rule:nonzero;stroke:none;stroke-width:1.05833;marker:none;enable-background:accumulate" />
    <path
       id="path4373"
       d="m 102.96608,142.92346 h 25.4 v 2.11667 h -25.4 z"
       style="color:#000000;display:inline;overflow:visible;visibility:visible;opacity:0.2;fill:#ffffff;fill-opacity:1;fill-rule:nonzero;stroke:none;stroke-width:1.05833;marker:none;enable-background:accumulate"
       inkscape:connector-curvature="0" />
    <path
       id="path4375"
       d="m 102.96608,155.62346 h 25.4 v 2.11667 h -25.4 z"
       style="color:#000000;display:inline;overflow:visible;visibility:visible;opacity:0.2;fill:#ffffff;fill-opacity:1;fill-rule:nonzero;stroke:none;stroke-width:1.05833;marker:none;enable-background:accumulate"
       inkscape:connector-curvature="0" />
    <path
       inkscape:connector-curvature="0"
       id="path4377"
       d="m 92.382747,127.57763 c -2.338007,0 -4.233334,1.89533 -4.233334,4.23333 0,2.338 1.895327,4.23334 4.233334,4.23334 2.338006,0 4.233333,-1.89534 4.233333,-4.23334 0,-2.338 -1.895327,-4.23333 -4.233333,-4.23333 z m 0,2.11667 c 1.168992,0 2.116666,0.94766 2.116666,2.11666 0,1.16901 -0.947674,2.11667 -2.116666,2.11667 -1.168993,0 -2.116667,-0.94766 -2.116667,-2.11667 0,-1.169 0.947674,-2.11666 2.116667,-2.11666 z"
       style="color:#000000;display:inline;overflow:visible;visibility:visible;opacity:0.2;fill:#ffffff;fill-opacity:1;fill-rule:nonzero;stroke:none;stroke-width:1.05833;marker:none;enable-background:accumulate" />
    <path
       inkscape:connector-curvature="0"
       id="path4379"
       d="m 92.382747,152.97763 c -2.338007,0 -4.233334,1.89533 -4.233334,4.23333 0,2.338 1.895327,4.23334 4.233334,4.23334 2.338006,0 4.233333,-1.89534 4.233333,-4.23334 0,-2.338 -1.895327,-4.23333 -4.233333,-4.23333 z m 0,2.11667 c 1.168992,0 2.116666,0.94766 2.116666,2.11666 0,1.16901 -0.947674,2.11667 -2.116666,2.11667 -1.168993,0 -2.116667,-0.94766 -2.116667,-2.11667 0,-1.169 0.947674,-2.11666 2.116667,-2.11666 z"
       style="color:#000000;display:inline;overflow:visible;visibility:visible;opacity:0.2;fill:#ffffff;fill-opacity:1;fill-rule:nonzero;stroke:none;stroke-width:1.05833;marker:none;enable-background:accumulate" />
    <path
       inkscape:connector-curvature="0"
       style="color:#000000;display:inline;overflow:visible;visibility:visible;fill:#aaaaaa;fill-opacity:1;fill-rule:nonzero;stroke:none;stroke-width:1.05833;marker:none;enable-background:accumulate"
       d="m 102.96608,129.95888 h 25.4 v 2.11667 h -25.4 z"
       id="rect4152" />
    <path
       style="color:#000000;display:inline;overflow:visible;visibility:visible;fill:#aaaaaa;fill-opacity:1;fill-rule:nonzero;stroke:none;stroke-width:1.05833;marker:none;enable-background:accumulate"
       d="m 92.382747,140.01305 c -2.338007,0 -4.233334,1.89533 -4.233334,4.23333 0,2.338 1.895327,4.23333 4.233334,4.23333 2.338006,0 4.233333,-1.89533 4.233333,-4.23333 0,-2.338 -1.895327,-4.23333 -4.233333,-4.23333 z m 0,2.11666 c 1.168992,0 2.116666,0.94767 2.116666,2.11667 0,1.169 -0.947674,2.11667 -2.116666,2.11667 -1.168993,0 -2.116667,-0.94767 -2.116667,-2.11667 0,-1.169 0.947674,-2.11667 2.116667,-2.11667 z"
       id="path4154"
       inkscape:connector-curvature="0" />
    <path
       inkscape:connector-curvature="0"
       style="color:#000000;display:inline;overflow:visible;visibility:visible;fill:#aaaaaa;fill-opacity:1;fill-rule:nonzero;stroke:none;stroke-width:1.05833;marker:none;enable-background:accumulate"
       d="m 102.96608,142.65888 h 25.4 v 2.11667 h -25.4 z"
       id="rect4157" />
    <path
       inkscape:connector-curvature="0"
       style="color:#000000;display:inline;overflow:visible;visibility:visible;fill:#aaaaaa;fill-opacity:1;fill-rule:nonzero;stroke:none;stroke-width:1.05833;marker:none;enable-background:accumulate"
       d="m 102.96608,155.35888 h 25.4 v 2.11667 h -25.4 z"
       id="rect4159" />
    <path
       style="color:#000000;display:inline;overflow:visible;visibility:visible;fill:#aaaaaa;fill-opacity:1;fill-rule:nonzero;stroke:none;stroke-width:1.05833;marker:none;enable-background:accumulate"
       d="m 92.382747,127.31305 c -2.338007,0 -4.233334,1.89533 -4.233334,4.23333 0,2.338 1.895327,4.23333 4.233334,4.23333 2.338006,0 4.233333,-1.89533 4.233333,-4.23333 0,-2.338 -1.895327,-4.23333 -4.233333,-4.23333 z m 0,2.11666 c 1.168992,0 2.116666,0.94767 2.116666,2.11667 0,1.169 -0.947674,2.11667 -2.116666,2.11667 -1.168993,0 -2.116667,-0.94767 -2.116667,-2.11667 0,-1.169 0.947674,-2.11667 2.116667,-2.11667 z"
       id="path4161"
       inkscape:connector-curvature="0" />
    <path
       style="color:#000000;display:inline;overflow:visible;visibility:visible;fill:#aaaaaa;fill-opacity:1;fill-rule:nonzero;stroke:none;stroke-width:1.05833;marker:none;enable-background:accumulate"
       d="m 92.382747,152.71305 c -2.338007,0 -4.233334,1.89533 -4.233334,4.23333 0,2.338 1.895327,4.23333 4.233334,4.23333 2.338006,0 4.233333,-1.89533 4.233333,-4.23333 0,-2.338 -1.895327,-4.23333 -4.233333,-4.23333 z m 0,2.11666 c 1.168992,0 2.116666,0.94767 2.116666,2.11667 0,1.169 -0.947674,2.11667 -2.116666,2.11667 -1.168993,0 -2.116667,-0.94767 -2.116667,-2.11667 0,-1.169 0.947674,-2.11667 2.116667,-2.11667 z"
       id="path4163"
       inkscape:connector-curvature="0" />
  </g>
</svg>
