<?xml version="1.0" encoding="UTF-8" standalone="no"?>
<svg xmlns="http://www.w3.org/2000/svg" height="96" width="96" version="1.1" xmlns:xlink="http://www.w3.org/1999/xlink">
 <defs>
  <linearGradient id="d" stop-color="#fff">
   <stop offset="0"/>
   <stop stop-opacity="0" offset="1"/>
  </linearGradient>
  <filter id="o" height="1.0908" width="1.3035" color-interpolation-filters="sRGB" y="-.045378" x="-.15174">
   <feGaussianBlur stdDeviation="1.1526305"/>
  </filter>
  <filter id="p" height="1.3025" width="1.0888" color-interpolation-filters="sRGB" y="-.15126" x="-.044412">
   <feGaussianBlur stdDeviation="1.1526305"/>
  </filter>
  <linearGradient id="a" y2="7.0165" gradientUnits="userSpaceOnUse" x2="45.448" gradientTransform="matrix(1.0059 0 0 .99417 100 0)" y1="92.54" x1="45.448">
   <stop offset="0"/>
   <stop stop-opacity=".58824" offset="1"/>
  </linearGradient>
  <radialGradient id="f" stop-color="#fff" gradientUnits="userSpaceOnUse" cy="90.172" cx="48" gradientTransform="matrix(1.1573 0 0 .99591 -7.551 .19713)" r="42">
   <stop offset="0"/>
   <stop stop-opacity="0" offset="1"/>
  </radialGradient>
  <linearGradient id="n" y2="83.295" gradientUnits="userSpaceOnUse" x2="43.179" gradientTransform="matrix(1.0294,0,0,1.0294,-1.4118,-1.4118)" y1="13" x1="43.179">
   <stop stop-color="#919191" offset="0"/>
   <stop stop-color="#fdfdfd" offset="1"/>
  </linearGradient>
  <linearGradient id="m" stop-color="#fff" y2="63.893" gradientUnits="userSpaceOnUse" x2="36.357" y1="6" x1="36.357">
   <stop offset="0"/>
   <stop stop-opacity="0" offset="1"/>
  </linearGradient>
  <linearGradient id="j" y2="5.9877" gradientUnits="userSpaceOnUse" x2="48" y1="90" x1="48">
   <stop stop-color="#b4b4b4" offset="0"/>
   <stop stop-color="#e6e6e6" offset="1"/>
  </linearGradient>
  <linearGradient id="c" y2="52.101" xlink:href="#d" gradientUnits="userSpaceOnUse" x2="19.942" gradientTransform="matrix(.65823 0 0 .65616 2.8732 25.814)" y1="52.101" x1="80.711"/>
  <linearGradient id="b" y2="52.101" xlink:href="#d" gradientUnits="userSpaceOnUse" x2="19.942" gradientTransform="matrix(0 -.65823 .65616 0 -10.186 94.127)" y1="52.101" x1="80.711"/>
  <radialGradient id="e" gradientUnits="userSpaceOnUse" cy="78.287" cx="47.098" gradientTransform="matrix(1.383,-1.035e-8,0,1.3124,-18.039,-24.219)" r="38.957">
   <stop stop-color="#42394b" offset="0"/>
   <stop offset="1"/>
  </radialGradient>
  <linearGradient id="i" y2="6" xlink:href="#a" gradientUnits="userSpaceOnUse" x2="32.251" gradientTransform="translate(0,1)" y1="90" x1="32.251"/>
  <linearGradient id="h" y2="5.9996" xlink:href="#a" gradientUnits="userSpaceOnUse" x2="32.251" gradientTransform="matrix(1.0238 0 0 1.0119 -1.1429 .929)" y1="90" x1="32.251"/>
  <linearGradient id="g" y2="90.239" xlink:href="#a" gradientUnits="userSpaceOnUse" x2="32.251" gradientTransform="matrix(1.0238,0,0,-1.0119,-1.1429,98.071)" y1="6.1317" x1="32.251"/>
 </defs>
 <g fill="url(#g)">
  <path opacity="0.08" d="m12 95.031c-5.5111 0-10.031-4.52-10.031-10.031v-71c0-5.5111 4.5202-10.031 10.031-10.031h72c5.5111 0 10.031 4.5202 10.031 10.031v71c0 5.5111-4.5202 10.031-10.031 10.031h-72z"/>
  <path opacity=".1" d="m12 94.031c-4.9716 0-9.0312-4.0596-9.0312-9.0312v-71c0-4.9718 4.0596-9.0314 9.0312-9.0314h72c4.9716 0 9.0312 4.0596 9.0312 9.0312v71c0 4.9716-4.0596 9.0312-9.0312 9.0312h-72z"/>
  <path opacity=".2" d="m12 93c-4.4091 0-8-3.591-8-8v-71c0-4.4091 3.5909-8 8-8h72c4.4091 0 8 3.5909 8 8v71c0 4.4091-3.5909 8-8 8h-72z"/>
 </g>
 <rect opacity=".3" rx="7" ry="7" height="85" width="86" y="7" x="5" fill="url(#h)"/>
 <rect opacity=".45" rx="6" ry="6" height="84" width="84" y="7" x="6" fill="url(#i)"/>
 <rect rx="5.8528" ry="6.1733" height="78.516" width="77.915" y="8.2544" x="8.1409" fill="url(#e)"/>
 <path opacity="0.12" d="m14 8.25c-3.2424 0-5.8438 2.7675-5.8438 6.1875v49.062c18.824-13.859 45.812-23.794 77.906-21.781v-27.281c0-3.42-2.6326-6.1875-5.875-6.1875l-66.187-0.0005z" fill="#d9c6ed"/>
 <rect opacity=".1" height="16" width="16" y="56" x="24" fill="#fff"/>
 <g fill-rule="evenodd">
  <g filter="url(#o)" transform="matrix(0 -.65823 .65616 0 -10.186 95.127)">
   <path d="m48.808 61.281 44.058 4.5502v-9.1l-44.058 4.55z"/>
   <path stroke-linejoin="round" d="m89.91 52.101 19.667 9.1442-19.667 9.1442c3.1419-5.3987 3.1238-12.785 0.000001-18.288z" stroke-width=".625"/>
  </g>
  <path fill="url(#b)" d="m30.024 62 2.9857-29h-5.9713l2.9857 29z"/>
  <path stroke-linejoin="round" d="m24.001 34.946 6.0001-12.945 6.0001 12.945c-3.5424-2.0681-8.389-2.0562-12-0.000001z" stroke-width=".625" fill="url(#b)"/>
  <g filter="url(#p)" transform="matrix(.65823 0 0 .65616 2.8732 26.814)">
   <path d="m47.289 61.281 45.577 4.5502v-9.1l-45.577 4.55z"/>
   <path stroke-linejoin="round" d="m89.91 52.101 19.667 9.1442-19.667 9.1442c3.1419-5.3987 3.1238-12.785 0.000001-18.288z" stroke-width=".625"/>
  </g>
  <path fill="url(#c)" d="m34 66.024 30 2.986v-5.9713l-30 2.9857z"/>
  <path stroke-linejoin="round" d="m62.055 60.001 12.945 6.0001-12.945 6.0001c2.0681-3.5424 2.0562-8.389 0.000001-12z" stroke-width=".625" fill="url(#c)"/>
 </g>
 <rect opacity=".2" stroke-dashoffset="1" height="28" width="28" stroke="#fff" stroke-dasharray="2, 2" y="43" x="25" stroke-width="2" fill="none"/>
 <path opacity=".15" d="m19 13c-3.2894 0-6 2.7106-6 6v58c0 3.2894 2.7106 6 6 6h58c3.2894 0 6-2.7106 6-6v-58c0-3.2894-2.7106-6-6-6h-58zm0 4h58c1.1426 0 2 0.85741 2 2v58c0 1.1426-0.85741 2-2 2h-58c-1.1426 0-2-0.85741-2-2v-58c0-1.1426 0.85741-2 2-2z"/>
 <path opacity=".3" d="m17 14c-1.662 0-3 1.338-3 3v62c0 1.662 1.338 3 3 3h62c1.662 0 3-1.338 3-3v-62c0-1.662-1.338-3-3-3h-62zm0 1.9375h62c0.61816 0 1.0625 0.44434 1.0625 1.0625v62c0 0.61816-0.44434 1.0625-1.0625 1.0625h-62c-0.61816 0-1.0625-0.44434-1.0625-1.0625v-62c0-0.61816 0.44434-1.0625 1.0625-1.0625z"/>
 <path opacity=".6" d="m17 14c-1.662 0-3 1.338-3 3v62c0 1.662 1.338 3 3 3h62c1.662 0 3-1.338 3-3v-62c0-1.662-1.338-3-3-3h-62zm0 0.96875h62c1.1401 0 2.0312 0.89117 2.0312 2.0312v62c0 1.1401-0.89117 2.0312-2.0312 2.0312h-62c-1.1401 0-2.0312-0.89117-2.0312-2.0312v-62c0-1.1401 0.89117-2.0312 2.0312-2.0312z"/>
 <path d="m12 6c-3.324 0-6 2.676-6 6v72c0 3.324 2.676 6 6 6h72c3.324 0 6-2.676 6-6v-72c0-3.324-2.676-6-6-6h-72zm5 7h62c2.216 0 4 1.784 4 4v62c0.000001 2.216-1.784 4-4 4h-62c-2.216 0.000001-4-1.784-4-4v-62c0-2.216 1.784-4 4-4z" fill="url(#j)"/>
 <path opacity=".5" d="m12 6c-3.324 0-6 2.676-6 6v72c0 0.33472 0.04135 0.6507 0.09375 0.96875 0.0487 0.2956 0.09704 0.59692 0.1875 0.875 0.00988 0.03038 0.020892 0.0636 0.03125 0.09375 0.098865 0.28777 0.23488 0.54745 0.375 0.8125 0.14459 0.27351 0.31562 0.53562 0.5 0.78125 0.18438 0.24564 0.37378 0.47347 0.59375 0.6875 0.43995 0.42806 0.94291 0.81453 1.5 1.0938 0.27854 0.13961 0.57347 0.24695 0.875 0.34375-0.2562-0.10022-0.48671-0.23627-0.71875-0.375-0.00741-0.0044-0.023866 0.0045-0.03125 0-0.0319-0.019-0.0622-0.042-0.0937-0.062-0.1204-0.077-0.231-0.164-0.3437-0.25-0.1062-0.081-0.2133-0.161-0.3126-0.25-0.1778-0.162-0.3473-0.346-0.4999-0.531-0.1075-0.131-0.2183-0.266-0.3124-0.407-0.0251-0.038-0.0385-0.086-0.0626-0.125-0.0647-0.103-0.1302-0.204-0.1874-0.312-0.1011-0.195-0.2057-0.416-0.2813-0.625-0.008-0.022-0.0236-0.041-0.0313-0.063-0.0318-0.092-0.0358-0.187-0.0624-0.281-0.0304-0.107-0.0704-0.203-0.0938-0.313-0.0729-0.341-0.125-0.698-0.125-1.062v-72c0-2.782 2.2182-5 5-5h72c2.7818 0 5 2.2182 5 5v72c0 0.3643-0.05212 0.72099-0.125 1.0625-0.04415 0.20689-0.08838 0.39766-0.15625 0.59375-0.0077 0.02195-0.0233 0.04069-0.03125 0.0625-0.06274 0.17374-0.13838 0.36745-0.21875 0.53125-0.04158 0.0828-0.07904 0.16995-0.125 0.25-0.0546 0.09721-0.12677 0.18835-0.1875 0.28125-0.09411 0.14096-0.20492 0.276-0.3125 0.40625-0.14317 0.17445-0.30314 0.347-0.46875 0.5-0.01117 0.0102-0.01998 0.02115-0.03125 0.03125-0.13839 0.12556-0.28509 0.23444-0.4375 0.34375-0.10257 0.07315-0.20432 0.15336-0.3125 0.21875-0.0074 0.0045-0.02384-0.0044-0.03125 0-0.23204 0.13873-0.46255 0.27478-0.71875 0.375 0.30153-0.0968 0.59646-0.20414 0.875-0.34375 0.55709-0.27922 1.0601-0.66569 1.5-1.0938 0.21997-0.21403 0.40937-0.44186 0.59375-0.6875s0.35541-0.50774 0.5-0.78125c0.14012-0.26505 0.27614-0.52473 0.375-0.8125 0.01041-0.03078 0.02133-0.06274 0.03125-0.09375 0.09046-0.27808 0.1388-0.5794 0.1875-0.875 0.053-0.318 0.094-0.634 0.094-0.969v-72c0-3.324-2.676-6-6-6h-72z" fill="url(#m)"/>
 <path d="m17 12c-2.7527 0-5 2.2473-5 5v62c0 2.7527 2.2473 5 5 5h62c2.7527 0 5-2.2473 5-5v-62c0-2.7527-2.2473-5-5-5h-62zm0 2h62c1.6793 0 3 1.3207 3 3v62c0.000001 1.6793-1.3207 3-3 3h-62c-1.6793 0-3-1.3207-3-3v-62c0-1.6793 1.3207-3 3-3z" fill="url(#n)"/>
 <path opacity=".4" d="m12 90c-3.324 0-6-2.676-6-6v-72c0-0.33472 0.04135-0.6507 0.09375-0.96875 0.0487-0.2956 0.09704-0.59692 0.1875-0.875 0.0099-0.03 0.0209-0.063 0.0313-0.094 0.0989-0.2873 0.2349-0.547 0.375-0.812 0.1446-0.2735 0.3156-0.5356 0.5-0.7812 0.1844-0.2457 0.3738-0.4735 0.5937-0.6876 0.44-0.428 0.943-0.8145 1.5-1.0937 0.2786-0.1396 0.5735-0.2469 0.8748-0.3437-0.256 0.1002-0.4865 0.2362-0.7185 0.375-0.00741 0.0044-0.023866-0.0045-0.03125 0-0.031933 0.0193-0.062293 0.04251-0.09375 0.0625-0.1204 0.0767-0.23102 0.16351-0.34375 0.25-0.10617 0.0808-0.21328 0.16111-0.3125 0.25-0.1779 0.1614-0.3474 0.3453-0.5 0.5312-0.1075 0.1303-0.2183 0.2653-0.3124 0.4063-0.0251 0.0383-0.0385 0.0858-0.0626 0.125-0.0647 0.103-0.1302 0.2045-0.1874 0.3124-0.1011 0.1948-0.2057 0.4158-0.2813 0.625-0.008 0.0219-0.0236 0.0406-0.0313 0.0626-0.0318 0.0919-0.0358 0.1868-0.0624 0.2812-0.0304 0.1066-0.0704 0.203-0.0938 0.3125-0.0729 0.3415-0.125 0.6985-0.125 1.0625v72c0 2.7818 2.2182 5 5 5h72c2.7818 0 5-2.2182 5-5v-72c0-0.364-0.052-0.721-0.125-1.0625-0.044-0.2069-0.088-0.3977-0.156-0.5937-0.008-0.022-0.024-0.0407-0.031-0.0626-0.063-0.1737-0.139-0.3674-0.219-0.5312-0.042-0.0828-0.079-0.17-0.125-0.25-0.055-0.0972-0.127-0.1884-0.188-0.2812-0.094-0.141-0.205-0.276-0.312-0.4063-0.143-0.1745-0.303-0.347-0.469-0.5-0.011-0.0102-0.02-0.0211-0.031-0.0313-0.139-0.1255-0.285-0.2344-0.438-0.3437-0.102-0.0731-0.204-0.1534-0.312-0.2187-0.0074-0.0045-0.02384 0.0044-0.03125 0-0.23204-0.13873-0.46255-0.27478-0.71875-0.375 0.30153 0.0968 0.59646 0.20414 0.875 0.34375 0.55709 0.27922 1.0601 0.66569 1.5 1.0938 0.21997 0.21403 0.40937 0.44186 0.59375 0.6875s0.35541 0.50774 0.5 0.78125c0.14012 0.26505 0.27614 0.52473 0.375 0.8125 0.01041 0.03078 0.02133 0.06274 0.03125 0.09375 0.09046 0.27808 0.1388 0.5794 0.1875 0.875 0.053 0.318 0.094 0.634 0.094 0.969v72c0 3.324-2.676 6-6 6h-72z" fill="url(#f)"/>
</svg>
