<?xml version="1.0" encoding="UTF-8" standalone="no"?>
<svg
   width="96"
   height="96"
   version="1"
   id="svg724"
   sodipodi:docname="000000.svg"
   inkscape:version="1.3.2 (091e20e, 2023-11-25)"
   xmlns:inkscape="http://www.inkscape.org/namespaces/inkscape"
   xmlns:sodipodi="http://sodipodi.sourceforge.net/DTD/sodipodi-0.dtd"
   xmlns:xlink="http://www.w3.org/1999/xlink"
   xmlns="http://www.w3.org/2000/svg"
   xmlns:svg="http://www.w3.org/2000/svg">
  <sodipodi:namedview
     id="namedview726"
     pagecolor="#505050"
     bordercolor="#ffffff"
     borderopacity="1"
     inkscape:showpageshadow="0"
     inkscape:pageopacity="0"
     inkscape:pagecheckerboard="1"
     inkscape:deskcolor="#505050"
     showgrid="false"
     inkscape:zoom="3.4033375"
     inkscape:cx="32.027385"
     inkscape:cy="31.733556"
     inkscape:window-width="1366"
     inkscape:window-height="700"
     inkscape:window-x="0"
     inkscape:window-y="32"
     inkscape:window-maximized="1"
     inkscape:current-layer="svg724" />
  <defs
     id="defs710">
    <linearGradient
       id="linearGradient1"
       inkscape:collect="always">
      <stop
         style="stop-color:#243758;stop-opacity:1;"
         offset="0"
         id="stop1" />
      <stop
         style="stop-color:#09111d;stop-opacity:1;"
         offset="1"
         id="stop2" />
    </linearGradient>
    <filter
       id="filter1044"
       x="-0.075"
       y="-0.075"
       width="1.15"
       height="1.15"
       color-interpolation-filters="sRGB">
      <feGaussianBlur
         stdDeviation="1.625"
         id="feGaussianBlur707" />
    </filter>
    <linearGradient
       inkscape:collect="always"
       xlink:href="#linearGradient1"
       id="linearGradient2"
       x1="-88.133781"
       y1="-48.000004"
       x2="-4.6555176"
       y2="-48.000004"
       gradientUnits="userSpaceOnUse" />
    <radialGradient
       id="s"
       gradientUnits="userSpaceOnUse"
       cy="32"
       cx="64"
       gradientTransform="matrix(0.88582406,0,0,0.88582406,-7.202344,25.155347)"
       r="32">
      <stop
         stop-color="#fff"
         offset="0"
         id="stop18" />
      <stop
         stop-color="#fff"
         offset=".77642"
         id="stop19" />
      <stop
         stop-color="#bebdc7"
         stop-opacity="0"
         offset="1"
         id="stop20" />
    </radialGradient>
    <radialGradient
       id="t"
       gradientUnits="userSpaceOnUse"
       cy="43.852001"
       cx="52.147999"
       gradientTransform="matrix(0.85523143,0,0,0.8653335,-2.941149,23.519087)"
       r="32">
      <stop
         stop-color="#f7edc4"
         offset="0"
         id="stop15"
         style="stop-color:#efede6;stop-opacity:1;" />
      <stop
         stop-color="#c7b586"
         offset="0.80000001"
         id="stop16"
         style="stop-color:#b7b7b7;stop-opacity:1;" />
      <stop
         stop-color="#9d8c64"
         offset="1"
         id="stop17"
         style="stop-color:#878f8f;stop-opacity:1;" />
    </radialGradient>
    <linearGradient
       id="w"
       y2="43"
       gradientUnits="userSpaceOnUse"
       x2="75"
       gradientTransform="matrix(0,0.8017544,-0.8017544,0,84.14782,14.9617)"
       y1="43"
       x1="21">
      <stop
         stop-color="#a49265"
         offset="0"
         id="stop13-9"
         style="stop-color:#939393;stop-opacity:1;" />
      <stop
         stop-color="#ece8df"
         offset="1"
         id="stop14-1"
         style="stop-color:#c6c2bb;stop-opacity:1;" />
    </linearGradient>
    <linearGradient
       id="ac"
       y2="87.367996"
       gradientUnits="userSpaceOnUse"
       x2="28.572001"
       y1="22.917999"
       x1="59.577999"
       gradientTransform="translate(3.0253641,5.1972762)">
      <stop
         stop-color="#a18a56"
         offset="0"
         id="stop8-2"
         style="stop-color:#7c7c7c;stop-opacity:1;" />
      <stop
         stop-color="#a18a56"
         stop-opacity="0"
         offset="1"
         id="stop9-7"
         style="stop-color:#8c8c8c;stop-opacity:0;" />
    </linearGradient>
    <filter
       id="d-0"
       color-interpolation-filters="sRGB"
       x="-0.021921525"
       y="-0.026513687"
       width="1.043843"
       height="1.0530274">
      <feGaussianBlur
         stdDeviation="0.46710064"
         id="feGaussianBlur9" />
    </filter>
    <filter
       id="e-9"
       color-interpolation-filters="sRGB"
       x="-0.023624077"
       y="-0.024388199"
       width="1.0472482"
       height="1.0487764">
      <feGaussianBlur
         stdDeviation="0.4121875"
         id="feGaussianBlur10" />
    </filter>
    <filter
       id="f-3"
       color-interpolation-filters="sRGB"
       x="-0.023027137"
       y="-0.025058491"
       width="1.0460543"
       height="1.050117">
      <feGaussianBlur
         stdDeviation="0.3846875"
         id="feGaussianBlur11" />
    </filter>
    <linearGradient
       id="v"
       stop-color="#ffffff"
       y2="55.535999"
       gradientUnits="userSpaceOnUse"
       x2="64.996002"
       gradientTransform="matrix(0.12515505,0,0,0.07882934,-6.0460047,37.178918)"
       y1="-0.90906"
       x1="64.996002">
      <stop
         offset="0"
         id="stop21" />
      <stop
         stop-opacity="0"
         offset="1"
         id="stop22"
         style="stop-color:#ffffff;stop-opacity:0;" />
    </linearGradient>
    <filter
       inkscape:collect="always"
       style="color-interpolation-filters:sRGB"
       id="filter2"
       x="-0.021785398"
       y="-0.034586917"
       width="1.0435708"
       height="1.0691738">
      <feGaussianBlur
         inkscape:collect="always"
         stdDeviation="0.072707917"
         id="feGaussianBlur2" />
    </filter>
  </defs>
  <rect
     transform="matrix(0,-1.6053512,-1.6053512,0,-3.3712398,-4.976591)"
     x="-59"
     y="-58"
     width="52"
     height="52"
     rx="5"
     ry="5"
     fill="#000000"
     filter="url(#filter1044)"
     opacity="0.35"
     id="rect712" />
  <rect
     transform="matrix(0,-1,-1,0,0,0)"
     x="-88.133781"
     y="-89.739136"
     width="83.478264"
     height="83.478264"
     rx="8.0267563"
     ry="8.0267563"
     fill="#4f4f4f"
     id="rect714"
     style="stroke-width:1.60535;fill:url(#linearGradient2)" />
  <path
     fill="none"
     stroke="#333333"
     stroke-linecap="round"
     stroke-linejoin="round"
     stroke-width="0.0999999"
     d="m 48.665494,16.470075 v 1.711176"
     id="path16" />
  <path
     id="path8-7-1"
     d="m 64.002186,25.777049 c 0.198727,-1.529862 0.359886,-1.691036 1.889763,-1.889764 -1.529862,-0.198879 -1.691036,-0.359886 -1.889763,-1.889764 -0.198879,1.529862 -0.359887,1.690878 -1.889764,1.889764 1.529862,0.198728 1.690873,0.359887 1.889764,1.889764"
     style="fill:#ffffff;fill-opacity:1;fill-rule:nonzero;stroke:none;stroke-width:0.00161174" />
  <path
     id="path8-7-1-27"
     d="m 27.002141,33.777027 c 0.198728,-1.529863 0.359887,-1.691037 1.889763,-1.889764 -1.529861,-0.198879 -1.691035,-0.359887 -1.889763,-1.889764 -0.198879,1.529862 -0.359886,1.690877 -1.889763,1.889764 1.529865,0.198727 1.690877,0.359886 1.889763,1.889764"
     style="fill:#ffffff;fill-opacity:1;fill-rule:nonzero;stroke:none;stroke-width:0.00161174" />
  <path
     id="path8-7-1-8"
     d="m 16.891905,29.556549 c 0.397456,-3.059724 0.719774,-3.382072 3.779528,-3.779528 -3.059724,-0.397757 -3.382072,-0.719777 -3.779528,-3.779531 -0.397758,3.059724 -0.719773,3.381759 -3.779527,3.779531 3.059731,0.397456 3.381754,0.719774 3.779527,3.779528"
     style="fill:#ffffff;fill-opacity:1;fill-rule:nonzero;stroke:none;stroke-width:0.00322349" />
  <path
     id="path8-7-1-2"
     d="m 13.00214,49.777031 c 0.198728,-1.529862 0.359887,-1.691037 1.889763,-1.889764 -1.529861,-0.198879 -1.691035,-0.359887 -1.889763,-1.889764 -0.198879,1.529862 -0.359887,1.690878 -1.889763,1.889764 1.529861,0.198727 1.690873,0.359887 1.889763,1.889764"
     style="fill:#ffffff;fill-opacity:1;fill-rule:nonzero;stroke:none;stroke-width:0.00161174" />
  <path
     id="path8-7-5-0"
     d="m 74.891915,20.556558 c 0.397452,-3.059728 0.7198,-3.382077 3.779528,-3.779536 -3.059728,-0.397772 -3.382076,-0.719799 -3.779528,-3.779527 -0.39778,3.059728 -0.719803,3.381755 -3.779527,3.779527 3.059724,0.397459 3.381747,0.719808 3.779527,3.779536"
     style="fill:#ffffff;fill-opacity:1;fill-rule:nonzero;stroke:none;stroke-width:0.00322348" />
  <path
     id="path8-7-9"
     d="m 77.642183,68.939289 c 0.198728,-1.529862 0.359887,-1.691037 1.889764,-1.889764 -1.529862,-0.198879 -1.691036,-0.359887 -1.889764,-1.889764 -0.198879,1.529862 -0.359886,1.690877 -1.889764,1.889764 1.529862,0.198727 1.690874,0.359886 1.889764,1.889764"
     style="fill:#ffffff;fill-opacity:1;fill-rule:nonzero;stroke:none;stroke-width:0.00161174" />
  <path
     id="path8-7-9-8"
     d="m 17.002147,72.556614 c 0.397455,-3.059724 0.719804,-3.382073 3.779526,-3.779528 -3.059722,-0.397776 -3.382071,-0.719803 -3.779526,-3.779527 -0.397776,3.059724 -0.719802,3.381751 -3.779525,3.779527 3.059723,0.397455 3.381749,0.719804 3.779525,3.779528"
     style="fill:#ffffff;fill-opacity:1;fill-rule:nonzero;stroke:none;stroke-width:0.00322348" />
  <path
     id="path8-7-9-7-0"
     d="m 80.891984,42.556572 c 0.397455,-3.059724 0.719803,-3.382072 3.77952,-3.779528 -3.059717,-0.397776 -3.382065,-0.719803 -3.77952,-3.779527 -0.397777,3.059724 -0.719804,3.381751 -3.77952,3.779527 3.059716,0.397456 3.381743,0.719804 3.77952,3.779528"
     style="fill:#ffffff;fill-opacity:1;fill-rule:nonzero;stroke:none;stroke-width:0.00322348" />
  <path
     id="path8-7-9-7-0-9"
     d="m 42.781673,19.336107 c 0.596186,-4.589598 1.079709,-5.073124 5.669291,-5.669307 -4.589582,-0.596666 -5.073105,-1.079709 -5.669291,-5.6693064 -0.596667,4.5895974 -1.079706,5.0726404 -5.66929,5.6693064 4.589584,0.596183 5.072623,1.079709 5.66929,5.669307"
     style="fill:#ffffff;fill-opacity:1;fill-rule:nonzero;stroke:none;stroke-width:0.00483523" />
  <path
     opacity="0.25"
     d="m 77.836598,53.50137 a 28.346457,28.346457 0 0 1 -56.692909,0 28.346457,28.346457 0 1 1 56.692909,0 z"
     fill="url(#s)"
     id="path26"
     style="fill:url(#s);stroke-width:0.859019" />
  <path
     d="m 71.319748,53.449938 a 21.647368,21.647368 0 0 1 -43.294734,0 21.647368,21.647368 0 1 1 43.294734,0 z"
     fill="url(#t)"
     id="path27"
     style="fill:url(#t);stroke-width:0.801751" />
  <path
     opacity="0.6"
     d="m 71.319748,53.445901 c 0,-11.95576 -9.691608,-21.647365 -21.647369,-21.647365 -11.955761,0 -21.647365,9.691605 -21.647365,21.647365 0,11.955765 9.691604,21.647369 21.647365,21.647369 11.955761,0 21.647369,-9.691604 21.647369,-21.647369 z m -0.801759,0 c 0,11.512392 -9.333218,20.845618 -20.84561,20.845618 -11.512389,0 -20.845614,-9.333226 -20.845614,-20.845618 0,-11.512392 9.333225,-20.845614 20.845614,-20.845614 11.512392,0 20.84561,9.333222 20.84561,20.845614 z"
     fill="url(#w)"
     id="path28"
     style="fill:url(#w);stroke-width:0.801751" />
  <path
     opacity="0.4"
     d="m 44.150364,22.072276 c -2.6301,0.69019 -5.0914,1.7882 -7.3438,3.1875 -0.68559,0.94402 -1.3241,1.9093 -2,2.8125 -0.44835,0.97474 -1.8406,0.83498 -3,1.1875 -0.06669,0.06767 -0.15277,0.11914 -0.21875,0.1875 -1.5872,2.0861 -3.4998,4.031 -4.5,6.4688 -1.2855,2.5334 4.1736,2.0034 1.4375,4.5 -1.0401,1.5092 -0.61372,4.8138 1.25,5.875 1.601,1.5614 -3.1816,3.1704 -1,5.1562 2.0378,0.73589 4.2898,-0.98819 6.2188,-0.25 1.3054,1.4218 -0.7982,3.0113 0.59375,4.3438 -1.7701,-0.07326 -3.5754,0.4308 -2.9688,2.6562 -0.29197,2.7503 4.4792,2.6209 3.875,-0.3125 0.1098,-1.3721 1.5049,-2.7989 2.3438,-0.84375 -0.12123,2.0713 3.7972,0.92391 2.0312,3.25 -3.68,0.0401 -1.4122,5.5623 0.84375,3.625 0.19786,-2.1792 2.2637,-1.9169 3.5312,-1.0625 3.1599,-0.74717 -0.3395,-4.4046 0.78125,-6.0625 1.1605,0.02707 1.3284,2.549 2.375,0.3125 1.4659,-2.6601 -0.73326,-4.896 -3.1562,-5.625 -2.399,-0.83518 -0.7641,-3.1485 -1,-4.5625 -2.1749,-1.6884 -3.1512,0.84978 -2.9688,2.5938 -2.6243,0.40125 -1.9803,-3.0004 -3.9375,-4.0938 -1.3587,-0.98452 -4.425,-0.96683 -2.5625,-3.5625 1.8829,-0.8553 4.1589,-1.6 3.4688,-4.25 0.90293,-2.5218 -4.2017,-1.5295 -2.0625,-3.8125 2.7269,-0.04313 4.4938,-2.2037 3.7812,-4.9062 0.6186,-1.8762 3.3812,-1.4157 4.2812,-2.9375 0.24257,0.33937 0.51576,0.67548 0.875,0.90625 0.51749,0.48859 1.3315,0.07499 1.8438,-0.25 0.03671,-0.5471 0.08066,-1.4451 0.9375,-1.25 0.89458,0.08748 1.8053,0.04968 2.6562,-0.1875 0.13244,-0.62698 -0.82857,-1.4179 -1.5938,-1.3438 -0.69089,0.2469 -1.5754,-0.2789 -2.125,0.25 -0.68361,5.91e-4 -1.3789,1.85e-4 -2.0625,0 0.03031,-0.71964 -0.21557,-1.434 -0.625,-2 z m 12.156,2.875 c -0.49783,0.14127 -0.77761,0.55806 -0.6875,1.0938 0.28182,0.50293 0.65538,0.80476 1,1.4688 0.72553,0.77285 1.1719,1.6062 1.5625,2.5625 0.67915,0.63615 0.92496,2.0582 2.125,1.7812 0.89226,-0.13706 1.7511,0.04415 2.625,0.1875 0.81732,-0.11595 1.5191,1.0114 2.3438,0.5625 1.2188,0.20939 1.1796,-1.2451 0.53125,-1.875 -0.72764,-0.82903 -2.0189,-0.21868 -3,-0.40625 -0.6743,0.40594 -2.7682,0.25916 -1.9688,-0.8125 0.06822,-1.3448 -0.9582,-2.0785 -2.2188,-2.2188 -0.715,-0.339 -0.21,-0.622 0.219,-0.844 0.155,-1.303 -1.634,-1.243 -2.531,-1.5 z m -2.906,2.812 c -1.7691,0.20815 -1.5697,3.3208 -2.5312,4.4688 -1.7814,0.71071 -2.7896,-1.271 -2.5312,-2.625 -0.95357,-0.68666 -1.3939,-0.9838 -1.625,0.28125 -1.4811,0.99581 -2.7795,-1.9018 -4.4062,-1.2812 1.6504,-0.29336 -2.3793,1.4411 -0.96875,2.6562 0.88257,1.3337 0.54781,2.8096 -1.2188,2.7812 -1.7682,0.77981 -0.9348,2.3716 0.625,2.375 1.9278,2.2716 -2.1462,3.9386 -0.96875,6.4062 0.8291,2.8137 4.2936,-0.08276 2.75,-2.125 -0.63476,-3.1038 3.5167,-2.0519 3.1875,0.46875 1.0975,0.71463 4.2437,0.75758 2.8125,3.125 -1.9898,0.4136 -1.6349,3.0069 0,3.6562 -1.2734,0.81022 -1.0704,4.5212 0.6875,2.5938 2.5503,-2.294 2.2384,3.3449 5.0312,1.8125 1.476,-2.1551 -1.9225,-3.2937 -2.9375,-4.7188 -1.6957,-2.3202 3.5134,-1.2581 1.4688,-3.2188 -2.2168,-1.0744 -0.91523,-3.6625 1.2812,-2.625 2.5979,0.48816 -1.2498,-3.7752 1.4688,-2.6562 0.21477,1.8354 3.6296,1.4258 1.5938,-0.375 -0.55258,-2.0387 2.8375,-3.7251 0.75,-5.875 -2.498,-0.742 -1.952,-3.633 -3.593,-5.031 -0.343,-0.103 -0.622,-0.123 -0.875,-0.094 z m 14.5,9.1875 c -0.15918,0.0062 -0.35248,0.04505 -0.53125,0.09375 -1.1362,1.201 -2.4506,1.5776 -4.0625,1.125 -0.45334,-0.25339 -1.4925,-0.72051 -1.9062,-0.5625 -1.6014,-0.15718 -1.201,1.5848 -1.375,2.4062 -1.0836,0.16904 -1.8586,0.98938 -0.90625,1.9688 0.59466,1.888 -1.7501,0.54745 -2.5625,0.75 -1.5429,0.59052 0.94523,1.3236 -0.34375,2.1875 -1.1489,0.11566 -3.0841,1.5388 -1.625,2.4688 1.0596,0.31895 3.3659,-0.85616 3,1.2812 -0.63107,1.4577 2.5559,3.1035 1.9062,0.90625 -0.55365,-1.031 -1.9648,-3.6495 0.34375,-3.125 0.43383,0.71075 0.81144,1.1619 1.875,0.78125 0.29434,-1.512 2.4246,-1.1232 3.4375,-0.40625 1.8148,0.38138 0.40729,-2.7539 2.3125,-2.9375 1.2841,-1.0528 0.56874,-3.0046 -0.75,-3.625 0.19235,-1.5172 2.5911,-1.4186 3.6875,-1.6875 -0.73147,-0.75719 -1.3858,-1.6682 -2.5,-1.625 z m 9.7812,7 c -0.25994,0.02868 -0.53625,0.30012 -0.6875,0.5 -0.29098,0.5982 -1.001,0.52622 -1.2188,0.9375 -0.14153,0.37803 -0.49505,0.10317 -0.6875,0.46875 -0.19099,-0.13956 -1.3073,-0.02574 -0.8125,0.25 -0.6862,0.34335 -0.16029,1.299 -0.3125,1.9062 -0.17303,0.70354 0.44968,1.0582 0.65625,1.625 0.16489,0.17637 0.42437,-0.04738 0.53125,0.3125 0.0051,0.32446 0.59115,0.02429 0.625,0.375 -0.43559,0.20829 0.82273,0.4871 0.875,0 0.28535,-0.36319 0.63666,-1.0147 0.96875,-1.4062 0.064,-0.147 0.23,-0.202 0.407,-0.25 0.003,-0.158 0,-0.31 0,-0.469 0,-1.443 -0.126,-2.868 -0.344,-4.25 z m -8.1875,0.875 c -0.37996,0.04703 -0.73359,0.29326 -0.875,0.75 -0.49716,0.76901 -0.63786,2.0665 -1.75,2.0938 -0.56535,0.2637 -1.0696,0.83367 -1.75,0.75 -0.85311,-0.52782 -2.0506,-0.57879 -2.9062,-0.03125 -0.97964,0.62659 0.92095,1.6452 -0.28125,2 -1.1816,0.04876 -1.2901,1.3639 -0.53125,2.0312 0.7827,0.69818 2.1469,0.7128 2.5625,1.8125 0.27615,0.72932 0.98701,1.4634 0.65625,2.3125 -0.47251,0.90254 -1.5361,0.13307 -2.25,0.4375 -1.0299,0.43094 -0.52332,1.8332 0.53125,1.5 1.2136,0.13831 1.8731,1.5249 1.5312,2.625 -0.05927,0.9616 -1.4506,1.4808 -0.96875,2.5 0.35582,0.69829 1.6231,1.1316 2.0312,0.28125 0.0049,-0.93472 0.77327,-1.6486 0.875,-2.5938 0.16108,-0.88259 0.16206,-1.9097 -0.3125,-2.6875 -0.95486,-0.70967 -0.23324,-1.9177 0.46875,-2.5 0.57935,-0.41083 1.0879,-1.2863 1.625,-1.5 0.57674,0.35422 1.4761,1.6638 1.8125,0.34375 0.42309,-1.0331 0.17236,-2.3017 0.9375,-3.1875 0.51083,-0.51359 2.0839,-0.10724 1.6562,-1.25 -0.525,-0.733 -1.841,-0.14 -1.842,-1.281 -0.245,-1.288 0.356,-2.66 -0.188,-3.906 -0.24769,-0.40748 -0.65129,-0.54703 -1.0312,-0.5 z m 8.2188,7.4375 c -0.09061,0.0746 -0.09338,0.09269 -0.3125,0.25 l 0.188,-0.062 c -0.07924,0.07122 -0.07566,0.05184 -0.1875,0.15625 -1.077,0.99467 -1.6564,2.5292 -2.8438,3.1875 -1.889,0.0592 -0.73836,-2.535 -2,-3 -1.6473,0.06331 -0.88277,2.2333 -1.8125,3.0312 -1.082,0.62902 -2.4987,1.7262 -1.1562,2.9375 0.876,1.0467 0.49585,2.4916 0.34375,3.7188 -0.5717,0.71729 -0.30535,2.4183 0.84375,1.5625 0.395,-1.2407 -0.22737,-2.9684 1,-3.9062 0.75973,-1.1888 2.4825,-0.54026 3.5938,-1.1562 0.14132,0.04149 0.25163,0.04979 0.375,0.0625 0.92284,-2.1 1.6058,-4.3171 1.9688,-6.6562 l -0.09375,0.03125 c 0.0398,-0.03553 0.05177,-0.05233 0.09375,-0.09375 0.003,-0.01994 -0.003,-0.04254 0,-0.0625 z"
     filter="url(#d)"
     fill="url(#ac)"
     id="path29"
     style="fill:url(#ac);filter:url(#d-0)"
     transform="matrix(0.775506,0,0,0.775506,10.167849,17.072665)" />
  <path
     opacity="0.4"
     d="m 65.275364,29.291276 c -0.7621,0 -1.375,0.6129 -1.375,1.375 0,0.7621 0.6129,1.375 1.375,1.375 0.7621,0 1.375,-0.6129 1.375,-1.375 0,-0.7621 -0.6129,-1.375 -1.375,-1.375 z m -20.406,1.625 c -0.6288,0.12867 -1.0938,0.70816 -1.0938,1.375 0,0.7621 0.6129,1.375 1.375,1.375 0.7621,0 1.375,-0.6129 1.375,-1.375 0,-0.7621 -0.6129,-1.375 -1.375,-1.375 -0.09526,0 -0.19142,-0.01838 -0.28125,0 z m -9.938,0.156 c -0.493,0 -0.906,0.382 -0.906,0.875 0,0.49312 0.41313,0.90625 0.90625,0.90625 0.49312,0 0.875,-0.41313 0.875,-0.90625 0,-0.49312 -0.38188,-0.875 -0.875,-0.875 z m 28,2.5938 c -0.80693,0 -1.4688,0.66182 -1.4688,1.4688 0,0.80693 0.66182,1.4375 1.4688,1.4375 0.80693,0 1.4688,-0.63057 1.4688,-1.4375 0,-0.80693 -0.66182,-1.4688 -1.4688,-1.4688 z m -3.9688,2.75 c -0.40346,0 -0.75,0.34654 -0.75,0.75 0,0.40346 0.34654,0.71875 0.75,0.71875 0.40346,0 0.71875,-0.31529 0.71875,-0.71875 0,-0.40346 -0.31529,-0.75 -0.71875,-0.75 z m -10.062,0.156 c -0.40346,0 -0.75,0.34654 -0.75,0.75 0,0.40346 0.34654,0.71875 0.75,0.71875 0.40346,0 0.71875,-0.31529 0.71875,-0.71875 0,-0.40346 -0.31529,-0.75 -0.71875,-0.75 z m -15.438,0.5 c -1.0311,0 -1.875,0.84393 -1.875,1.875 0,1.03107 0.84393,1.8438 1.875,1.8438 1.03107,0 1.875,-0.81268 1.875,-1.8438 0,-1.03112 -0.84393,-1.875 -1.875,-1.875 z m 38,4.875 c -0.58278,0 -1.0625,0.47972 -1.0625,1.0625 0,0.58278 0.47972,1.0312 1.0625,1.0312 0.58278,0 1.0312,-0.44847 1.0312,-1.0312 0,-0.58278 -0.44847,-1.0625 -1.0312,-1.0625 z m -31.093,2.75 c -0.62761,0 -1.1562,0.52864 -1.1562,1.1562 0,0.62761 0.52864,1.125 1.1562,1.125 0.62761,0 1.125,-0.49739 1.125,-1.125 0,-0.62761 -0.49739,-1.1562 -1.125,-1.1562 z m 26.375,0.65625 c -0.85176,0 -1.5312,0.67949 -1.5312,1.5312 0,0.85176 0.67949,1.5625 1.5312,1.5625 0.85176,0 1.5312,-0.71074 1.5312,-1.5625 0,-0.85176 -0.67949,-1.5312 -1.5312,-1.5312 z m -34.688,3.25 c -0.43521,0 -0.78125,0.19977 -0.78125,0.46875 0,0.26898 0.34604,0.5 0.78125,0.5 0.43521,0 0.78125,-0.23102 0.78125,-0.5 0,-0.26898 -0.34604,-0.46875 -0.78125,-0.46875 z m 9.5938,2.75 c -0.71727,0 -1.2812,0.59523 -1.2812,1.3125 0,0.71727 0.56398,1.2812 1.2812,1.2812 0.71727,0 1.3125,-0.56398 1.3125,-1.2812 0,-0.71727 -0.59523,-1.3125 -1.3125,-1.3125 z m -10.125,1.782 c -0.49312,0 -0.90625,0.41313 -0.90625,0.90625 0,0.49312 0.41313,0.875 0.90625,0.875 0.49312,0 0.875,-0.38188 0.875,-0.875 0,-0.49312 -0.38188,-0.90625 -0.875,-0.90625 z m 29.375,0 c -0.49312,0 -0.90625,0.41313 -0.90625,0.90625 0,0.49312 0.41313,0.875 0.90625,0.875 0.49312,0 0.90625,-0.38188 0.90625,-0.875 0,-0.49312 -0.41313,-0.90625 -0.90625,-0.90625 z m -4.3125,0.5 c -0.80693,0 -1.4375,0.66182 -1.4375,1.4688 0,0.80693 0.63057,1.4375 1.4375,1.4375 0.80693,0 1.4688,-0.63057 1.4688,-1.4375 0,-0.80693 -0.66182,-1.4688 -1.4688,-1.4688 z m 4.0625,6.1562 c -0.44829,0 -0.8125,0.36421 -0.8125,0.8125 0,0.44829 0.36421,0.8125 0.8125,0.8125 0.44829,0 0.8125,-0.36421 0.8125,-0.8125 0,-0.44829 -0.36421,-0.8125 -0.8125,-0.8125 z m -27.843,0.656 c -0.85176,0 -1.5312,0.67949 -1.5312,1.5312 0,0.85176 0.67949,1.5625 1.5312,1.5625 0.85176,0 1.5625,-0.71074 1.5625,-1.5625 0,-0.85176 -0.71074,-1.5312 -1.5625,-1.5312 z m 5.375,3.0938 c -0.40346,0 -0.75,0.31529 -0.75,0.71875 0,0.40346 0.34654,0.75 0.75,0.75 0.40346,0 0.71875,-0.34654 0.71875,-0.75 0,-0.40346 -0.31529,-0.71875 -0.71875,-0.71875 z m 17.688,3.875 c -0.67244,0 -1.2188,0.54631 -1.2188,1.2188 0,0.67244 0.54631,1.2188 1.2188,1.2188 0.67244,0 1.2188,-0.54631 1.2188,-1.2188 0,-0.67244 -0.54631,-1.2188 -1.2188,-1.2188 z"
     filter="url(#e)"
     fill="#a18a56"
     id="path30"
     style="fill:#797775;fill-opacity:1;filter:url(#e-9)"
     transform="matrix(0.80175436,0,0,0.80175436,10.048521,14.032526)" />
  <path
     opacity="0.5"
     d="m 60.494364,33.666276 c -0.53795,0 -0.96875,0.4308 -0.96875,0.96875 0,0.53795 0.4308,0.96875 0.96875,0.96875 0.53795,0 0.96875,-0.4308 0.96875,-0.96875 0,-0.53795 -0.4308,-0.96875 -0.96875,-0.96875 z m -15.031,7.781 c -1.2104,0 -2.1875,0.97711 -2.1875,2.1875 0,1.21039 0.97711,2.2188 2.1875,2.2188 1.21039,0 2.2188,-1.0084 2.2188,-2.2188 0,-1.2104 -1.0084,-2.1875 -2.2188,-2.1875 z m -7.938,0.5 c -0.58278,0 -1.0625,0.47972 -1.0625,1.0625 0,0.58278 0.47972,1.0312 1.0625,1.0312 0.58278,0 1.0625,-0.44847 1.0625,-1.0312 0,-0.58278 -0.47972,-1.0625 -1.0625,-1.0625 z m -10.406,3.0938 c -1.0311,0 -1.8438,0.81268 -1.8438,1.8438 0,1.03112 0.81268,1.875 1.8438,1.875 1.03112,0 1.875,-0.84393 1.875,-1.875 0,-1.03107 -0.84393,-1.8438 -1.875,-1.8438 z m 0.656,5.344 c -0.67244,0 -1.2188,0.54631 -1.2188,1.2188 0,0.67244 0.54631,1.2188 1.2188,1.2188 0.67244,0 1.2188,-0.54631 1.2188,-1.2188 0,-0.67244 -0.54631,-1.2188 -1.2188,-1.2188 z m 30.438,0.15625 c -0.53795,0 -0.96875,0.4308 -0.96875,0.96875 0,0.53795 0.4308,1 0.96875,1 0.53795,0 0.96875,-0.46205 0.96875,-1 0,-0.53795 -0.4308,-0.96875 -0.96875,-0.96875 z m -5.8438,7 c -0.80693,0 -1.4375,0.63057 -1.4375,1.4375 0,0.80693 0.63057,1.4688 1.4375,1.4688 0.80693,0 1.4688,-0.66182 1.4688,-1.4688 0,-0.80693 -0.66182,-1.4375 -1.4688,-1.4375 z m -3.9688,6.8125 c -1.3897,0 -2.5312,1.1103 -2.5312,2.5 0,1.3897 1.1415,2.5312 2.5312,2.5312 1.3897,0 2.5312,-1.1415 2.5312,-2.5312 0,-1.3897 -1.1415,-2.5 -2.5312,-2.5 z m 15.5,0.46875 c -0.80693,0 -1.4688,0.66182 -1.4688,1.4688 0,0.80693 0.66182,1.4688 1.4688,1.4688 0.80693,0 1.4688,-0.66182 1.4688,-1.4688 0,-0.80693 -0.66182,-1.4688 -1.4688,-1.4688 z m -21.094,1.7812 c -1.0759,0 -1.9688,0.89285 -1.9688,1.9688 0,1.0759 0.89285,1.9375 1.9688,1.9375 1.0759,0 1.9375,-0.8616 1.9375,-1.9375 0,-1.0759 -0.8616,-1.9688 -1.9375,-1.9688 z"
     filter="url(#f)"
     fill="#ffffff"
     id="path31"
     style="fill:#ffffff;fill-opacity:1;filter:url(#f-3)"
     transform="matrix(0.80175436,0,0,0.73987586,9.6444935,16.465794)" />
  <path
     opacity="0.5"
     d="m 5.9688543,39.701533 a 4.0049531,2.5226156 0 0 1 -8.009906,0 4.0049531,2.5226156 0 1 1 8.009906,0 z"
     fill="url(#v)"
     id="path32"
     style="opacity:0.362732;mix-blend-mode:normal;fill:url(#v);stroke-width:0.21304;filter:url(#filter2)"
     transform="matrix(3.7633847,0,0,3.7633847,42.144372,-107.42529)" />
  <path
     d="m 14.287624,4.6555162 c -4.4468234,0 -8.0267565,3.5799334 -8.0267565,8.0267568 v 1.605351 c 0,-4.4468234 3.5799331,-8.0267565 8.0267565,-8.0267565 h 67.42475 c 4.446823,0 8.026756,3.5799331 8.026756,8.0267565 v -1.605351 c 0,-4.4468234 -3.579933,-8.0267568 -8.026756,-8.0267568 z"
     fill="#ffffff"
     opacity="0.1"
     id="path722"
     style="stroke-width:1.60535" />
</svg>
