<?xml version="1.0" encoding="UTF-8" standalone="no"?>
<svg
   xmlns:dc="http://purl.org/dc/elements/1.1/"
   xmlns:cc="http://creativecommons.org/ns#"
   xmlns:rdf="http://www.w3.org/1999/02/22-rdf-syntax-ns#"
   xmlns:svg="http://www.w3.org/2000/svg"
   xmlns="http://www.w3.org/2000/svg"
   xmlns:sodipodi="http://sodipodi.sourceforge.net/DTD/sodipodi-0.dtd"
   xmlns:inkscape="http://www.inkscape.org/namespaces/inkscape"
   width="16"
   viewBox="0 0 16 16"
   height="16"
   id="svg2"
   version="1.1"
   inkscape:version="0.91 r"
   sodipodi:docname="hicolor_categories_16x16_cs-retro-small.svg">
  <metadata
     id="metadata10">
    <rdf:RDF>
      <cc:Work
         rdf:about="">
        <dc:format>image/svg+xml</dc:format>
        <dc:type
           rdf:resource="http://purl.org/dc/dcmitype/StillImage" />
      </cc:Work>
    </rdf:RDF>
  </metadata>
  <defs
     id="defs8" />
  <sodipodi:namedview
     pagecolor="#ffffff"
     bordercolor="#666666"
     borderopacity="1"
     objecttolerance="10"
     gridtolerance="10"
     guidetolerance="10"
     inkscape:pageopacity="0"
     inkscape:pageshadow="2"
     inkscape:window-width="3840"
     inkscape:window-height="2092"
     id="namedview6"
     showgrid="false"
     inkscape:zoom="20.85965"
     inkscape:cx="20.788016"
     inkscape:cy="9.2112872"
     inkscape:window-x="0"
     inkscape:window-y="0"
     inkscape:window-maximized="1"
     inkscape:current-layer="svg2" />
  <path
     style="fill:#000000;fill-opacity:0.67058825"
     d="M 1,0 1,5 6,5 4.28125,3.28125 C 5.3038891,2.4783825 6.599253,2 8,2 c 3.313708,0 6,2.6862915 6,6 0,3.313708 -2.686292,6 -6,6 C 4.6862915,14 2,11.313708 2,8 2,7.299289 2.1229842,6.625135 2.34375,6 L 0.25,6 C 0.0862956,6.637743 0,7.31119 0,8 c 0,4.418278 3.581722,8 8,8 4.418278,0 8,-3.581722 8,-8 C 16,3.581722 12.418278,0 8,0 6.043128,0 4.2338051,0.6769384 2.84375,1.84375 L 1,0 z M 7.90625,2.96875 A 1.0001,1.0001 0 0 0 7.78125,3 1.0001,1.0001 0 0 0 7,4 l 0,3.6875 a 1.0001,1.0001 0 0 0 0,0.09375 1.0001,1.0001 0 0 0 0.125,0.75 A 1.0001,1.0001 0 0 0 7.15625,8.5625 1.0001,1.0001 0 0 0 7.1875,8.625 1.0001,1.0001 0 0 0 7.21875,8.65625 1.0001,1.0001 0 0 0 7.25,8.6875 1.0001,1.0001 0 0 0 7.28125,8.71875 1.0001,1.0001 0 0 0 7.3125,8.75 1.0001,1.0001 0 0 0 7.375,8.78125 1.0001,1.0001 0 0 0 7.40625,8.8125 1.0001,1.0001 0 0 0 7.4375,8.84375 1.0001,1.0001 0 0 0 7.5,8.875 1.0001,1.0001 0 0 0 7.625,8.9375 l 2.46875,1.4375 a 1.0077822,1.0077822 0 1 0 1,-1.75 L 9,7.40625 9,4 A 1.0001,1.0001 0 0 0 7.90625,2.96875 z"
     id="path4" />
</svg>
