<?xml version="1.0" encoding="UTF-8" standalone="no"?>
<svg
   xmlns:dc="http://purl.org/dc/elements/1.1/"
   xmlns:cc="http://creativecommons.org/ns#"
   xmlns:rdf="http://www.w3.org/1999/02/22-rdf-syntax-ns#"
   xmlns:svg="http://www.w3.org/2000/svg"
   xmlns="http://www.w3.org/2000/svg"
   xmlns:xlink="http://www.w3.org/1999/xlink"
   xmlns:sodipodi="http://sodipodi.sourceforge.net/DTD/sodipodi-0.dtd"
   xmlns:inkscape="http://www.inkscape.org/namespaces/inkscape"
   height="96"
   width="96"
   version="1.1"
   id="svg3359"
   inkscape:version="0.48.4 r9939"
   sodipodi:docname="tiling.svg">
  <metadata
     id="metadata3484">
    <rdf:RDF>
      <cc:Work
         rdf:about="">
        <dc:format>image/svg+xml</dc:format>
        <dc:type
           rdf:resource="http://purl.org/dc/dcmitype/StillImage" />
      </cc:Work>
    </rdf:RDF>
  </metadata>
  <sodipodi:namedview
     pagecolor="#ffffff"
     bordercolor="#666666"
     borderopacity="1"
     objecttolerance="10"
     gridtolerance="10"
     guidetolerance="10"
     inkscape:pageopacity="0"
     inkscape:pageshadow="2"
     inkscape:window-width="1920"
     inkscape:window-height="1005"
     id="namedview3482"
     showgrid="false"
     inkscape:zoom="4.2447917"
     inkscape:cx="105.87167"
     inkscape:cy="40.444346"
     inkscape:window-x="0"
     inkscape:window-y="25"
     inkscape:window-maximized="1"
     inkscape:current-layer="svg3359" />
  <defs
     id="defs3361">
    <linearGradient
       id="a"
       stop-color="#fff">
      <stop
         offset="0"
         id="stop3364" />
      <stop
         stop-opacity="0"
         offset="1"
         id="stop3366" />
    </linearGradient>
    <linearGradient
       id="b"
       y2="7.0165"
       gradientUnits="userSpaceOnUse"
       x2="45.448"
       gradientTransform="matrix(1.0059 0 0 .99417 100 0)"
       y1="92.54"
       x1="45.448">
      <stop
         offset="0"
         id="stop3369" />
      <stop
         stop-opacity=".58824"
         offset="1"
         id="stop3371" />
    </linearGradient>
    <linearGradient
       id="q"
       y2="6"
       xlink:href="#b"
       gradientUnits="userSpaceOnUse"
       x2="32.251"
       gradientTransform="translate(0,1)"
       y1="90"
       x1="32.251" />
    <linearGradient
       id="p"
       y2="5.9996"
       xlink:href="#b"
       gradientUnits="userSpaceOnUse"
       x2="32.251"
       gradientTransform="matrix(1.0238 0 0 1.0119 -1.1429 .929)"
       y1="90"
       x1="32.251" />
    <linearGradient
       id="o"
       y2="90.239"
       xlink:href="#b"
       gradientUnits="userSpaceOnUse"
       x2="32.251"
       gradientTransform="matrix(1.0238,0,0,-1.0119,-1.1429,98.071)"
       y1="6.1317"
       x1="32.251" />
    <linearGradient
       id="n"
       y2="-24"
       xlink:href="#a"
       gradientUnits="userSpaceOnUse"
       x2="32"
       gradientTransform="translate(0,-64)"
       y1="46"
       x1="32" />
    <radialGradient
       id="d"
       gradientUnits="userSpaceOnUse"
       cy="-15.871"
       cx="56.066"
       gradientTransform="matrix(-.0022617 -1.2346 1.3856 0 70.085 140.27)"
       r="35.938">
      <stop
         stop-color="#909090"
         offset="0"
         id="stop3378" />
      <stop
         stop-color="#8f8f8f"
         offset="1"
         id="stop3380" />
    </radialGradient>
    <radialGradient
       id="c"
       gradientUnits="userSpaceOnUse"
       stop-color="#fff"
       cy="90.172"
       cx="48"
       gradientTransform="matrix(1.1573 0 0 .99591 -7.551 .19713)"
       r="42">
      <stop
         offset="0"
         id="stop3383" />
      <stop
         stop-opacity="0"
         offset="1"
         id="stop3385" />
    </radialGradient>
    <linearGradient
       id="m"
       y2="83.295"
       gradientUnits="userSpaceOnUse"
       x2="43.179"
       gradientTransform="matrix(1.0294,0,0,1.0294,-1.4118,-1.4118)"
       y1="13"
       x1="43.179">
      <stop
         stop-color="#919191"
         offset="0"
         id="stop3388" />
      <stop
         stop-color="#fdfdfd"
         offset="1"
         id="stop3390" />
    </linearGradient>
    <linearGradient
       id="l"
       y2="63.893"
       xlink:href="#a"
       gradientUnits="userSpaceOnUse"
       x2="36.357"
       y1="6"
       x1="36.357" />
    <linearGradient
       id="k"
       y2="5.9877"
       gradientUnits="userSpaceOnUse"
       x2="48"
       y1="90"
       x1="48">
      <stop
         stop-color="#b4b4b4"
         offset="0"
         id="stop3394" />
      <stop
         stop-color="#e6e6e6"
         offset="1"
         id="stop3396" />
    </linearGradient>
    <linearGradient
       id="j"
       y2="69.688"
       xlink:href="#a"
       gradientUnits="userSpaceOnUse"
       x2="65.156"
       gradientTransform="translate(1)"
       y1="16.125"
       x1="65.156" />
    <linearGradient
       id="i"
       y2="69.688"
       gradientUnits="userSpaceOnUse"
       x2="65.156"
       y1="16.125"
       x1="65.156">
      <stop
         stop-color="#b7b7b7"
         offset="0"
         id="stop3400" />
      <stop
         stop-color="#e7e7e7"
         stop-opacity="0"
         offset="1"
         id="stop3402" />
    </linearGradient>
    <linearGradient
       id="h"
       y2="72.766"
       stop-color="#fff"
       gradientUnits="userSpaceOnUse"
       x2="76.451"
       y1="8.0625"
       x1="76.451">
      <stop
         offset="0"
         id="stop3405" />
      <stop
         stop-opacity="0"
         offset="1"
         id="stop3407" />
    </linearGradient>
    <linearGradient
       id="g"
       y2="-24"
       xlink:href="#a"
       gradientUnits="userSpaceOnUse"
       x2="32"
       gradientTransform="translate(32,-64)"
       y1="46"
       x1="32" />
    <linearGradient
       id="f"
       y2="-24"
       xlink:href="#a"
       gradientUnits="userSpaceOnUse"
       x2="32"
       gradientTransform="translate(32,-96)"
       y1="46"
       x1="32" />
    <linearGradient
       id="e"
       y2="-24"
       xlink:href="#a"
       gradientUnits="userSpaceOnUse"
       x2="32"
       gradientTransform="translate(0,-96)"
       y1="46"
       x1="32" />
    <linearGradient
       inkscape:collect="always"
       xlink:href="#a"
       id="linearGradient3072"
       gradientUnits="userSpaceOnUse"
       gradientTransform="translate(32,-96.000002)"
       x1="32"
       y1="46"
       x2="32"
       y2="-24" />
    <linearGradient
       id="n-9"
       y2="-24"
       xlink:href="#a-6"
       gradientUnits="userSpaceOnUse"
       x2="32"
       gradientTransform="translate(0,-64)"
       y1="46"
       x1="32" />
    <linearGradient
       id="a-6"
       stop-color="#fff">
      <stop
         offset="0"
         id="stop3364-3" />
      <stop
         stop-opacity="0"
         offset="1"
         id="stop3366-6" />
    </linearGradient>
    <linearGradient
       y2="-24"
       x2="32"
       y1="46"
       x1="32"
       gradientTransform="translate(-4.2806406e-7,-64)"
       gradientUnits="userSpaceOnUse"
       id="linearGradient3873"
       xlink:href="#a-6"
       inkscape:collect="always" />
  </defs>
  <g
     id="g3412"
     style="fill:url(#o)">
    <path
       d="M 12,95.031 C 6.4889,95.031 1.969,90.511 1.969,85 V 14 C 1.969,8.4889 6.4892,3.969 12,3.969 h 72 c 5.5111,0 10.031,4.5202 10.031,10.031 v 71 c 0,5.5111 -4.5202,10.031 -10.031,10.031 H 12 z"
       id="path3414"
       inkscape:connector-curvature="0"
       style="opacity:0.07999998" />
    <path
       d="m 12,94.031 c -4.9716,0 -9.0312,-4.0596 -9.0312,-9.0312 v -71 C 2.9688,9.028 7.0284,4.9684 12,4.9684 h 72 c 4.9716,0 9.0312,4.0596 9.0312,9.0312 v 71 c 0,4.9716 -4.0596,9.0312 -9.0312,9.0312 H 12 z"
       id="path3416"
       inkscape:connector-curvature="0"
       style="opacity:0.1" />
    <path
       d="M 12,93 C 7.5909,93 4,89.409 4,85 V 14 C 4,9.5909 7.5909,6 12,6 h 72 c 4.4091,0 8,3.5909 8,8 v 71 c 0,4.4091 -3.5909,8 -8,8 H 12 z"
       id="path3418"
       inkscape:connector-curvature="0"
       style="opacity:0.2" />
  </g>
  <rect
     rx="7"
     ry="7"
     height="85"
     width="86"
     y="7"
     x="5"
     id="rect3420"
     style="opacity:0.3;fill:url(#p)" />
  <rect
     rx="6"
     ry="6"
     height="84"
     width="84"
     y="7"
     x="6"
     id="rect3422"
     style="opacity:0.45;fill:url(#q)" />
  <path
     d="M 83.937,83.875 V 12.006 h -71.94 v 71.869 h 71.94 z"
     id="path3424"
     inkscape:connector-curvature="0"
     style="fill:url(#d)" />
  <g
     style="color:#000000"
     id="g3426">
    <path
       opacity="0.08"
       d="m19 13c-3.2894 0-6 2.7106-6 6v58c0 3.2894 2.7106 6 6 6h58c3.2894 0 6-2.7106 6-6v-58c0-3.2894-2.7106-6-6-6h-58zm0 4h58c1.1426 0 2 0.85741 2 2v58c0 1.1426-0.85741 2-2 2h-58c-1.1426 0-2-0.85741-2-2v-58c0-1.1426 0.85741-2 2-2z"
       id="path3428" />
    <path
       opacity=".1"
       d="m17 14c-1.662 0-3 1.338-3 3v62c0 1.662 1.338 3 3 3h62c1.662 0 3-1.338 3-3v-62c0-1.662-1.338-3-3-3h-62zm0 1.9375h62c0.61816 0 1.0625 0.44434 1.0625 1.0625v62c0 0.61816-0.44434 1.0625-1.0625 1.0625h-62c-0.61816 0-1.0625-0.44434-1.0625-1.0625v-62c0-0.61816 0.44434-1.0625 1.0625-1.0625z"
       id="path3430" />
    <path
       opacity=".25"
       d="m17 14c-1.662 0-3 1.338-3 3v62c0 1.662 1.338 3 3 3h62c1.662 0 3-1.338 3-3v-62c0-1.662-1.338-3-3-3h-62zm0 0.96875h62c1.1401 0 2.0312 0.89117 2.0312 2.0312v62c0 1.1401-0.89117 2.0312-2.0312 2.0312h-62c-1.1401 0-2.0312-0.89117-2.0312-2.0312v-62c0-1.1401 0.89117-2.0312 2.0312-2.0312z"
       id="path3432" />
  </g>
  <rect
     transform="scale(1,-1)"
     rx="2"
     ry="2"
     height="28"
     width="28"
     y="-46"
     x="18"
     id="rect3434"
     fill="url(#n)"
     opacity=".3" />
  <path
     opacity=".15"
     d="m20 16c-2.1807 0-4 1.8193-4 4v24c0 2.1807 1.8193 4 4 4h24c2.1807 0 4-1.8193 4-4v-24c0-2.1807-1.8193-4-4-4h-24zm0 2h24c1.108 0 2 0.892 2 2v24c0 1.108-0.892 2-2 2h-24c-1.108 0-2-0.892-2-2v-24c0-1.108 0.892-2 2-2z"
     fill="#0f2e61"
     id="path3436" />
  <path
     opacity=".3"
     d="m20 16.969c-1.6603 0-3.0312 1.371-3.0312 3.0312v24c0 1.6603 1.371 3.0312 3.0312 3.0312h24c1.6603 0 3.0312-1.371 3.0312-3.0312v-24c0-1.66-1.371-3.031-3.031-3.031h-24zm0 1.031h24c1.108 0 2 0.892 2 2v24c0 1.108-0.892 2-2 2h-24c-1.108 0-2-0.892-2-2v-24c0-1.108 0.892-2 2-2z"
     fill="#0c1752"
     id="path3440" />
  <rect
     transform="scale(1,-1)"
     rx="2"
     ry="2"
     height="25.501274"
     width="57.15189"
     y="-76.600029"
     x="19.36968"
     id="rect3450"
     style="opacity:0.2;fill:url(#linearGradient3072)" />
  <path
     d="m12 6c-3.324 0-6 2.676-6 6v72c0 3.324 2.676 6 6 6h72c3.324 0 6-2.676 6-6v-72c0-3.324-2.676-6-6-6h-72zm5 8h62c1.6838 0 3 1.3162 3 3v62c0.000001 1.6838-1.3162 3-3 3h-62c-1.6838 0.000001-3-1.3162-3-3v-62c0-1.6838 1.3162-3 3-3z"
     fill="url(#k)"
     id="path3466" />
  <path
     opacity=".7"
     d="m12 6c-3.324 0-6 2.676-6 6v72c0 0.33472 0.04135 0.6507 0.09375 0.96875 0.0487 0.2956 0.09704 0.59692 0.1875 0.875 0.00988 0.03038 0.020892 0.0636 0.03125 0.09375 0.098865 0.28777 0.23488 0.54745 0.375 0.8125 0.14459 0.27351 0.31562 0.53562 0.5 0.78125 0.18438 0.24564 0.37378 0.47347 0.59375 0.6875 0.43995 0.42806 0.94291 0.81453 1.5 1.0938 0.27854 0.13961 0.57347 0.24695 0.875 0.34375-0.2562-0.10022-0.48671-0.23627-0.71875-0.375-0.00741-0.0044-0.023866 0.0045-0.03125 0-0.0319-0.019-0.0622-0.042-0.0937-0.062-0.1204-0.077-0.231-0.164-0.3437-0.25-0.1062-0.081-0.2133-0.161-0.3126-0.25-0.1778-0.162-0.3473-0.346-0.4999-0.531-0.1075-0.131-0.2183-0.266-0.3124-0.407-0.0251-0.038-0.0385-0.086-0.0626-0.125-0.0647-0.103-0.1302-0.204-0.1874-0.312-0.1011-0.195-0.2057-0.416-0.2813-0.625-0.008-0.022-0.0236-0.041-0.0313-0.063-0.0318-0.092-0.0358-0.187-0.0624-0.281-0.0304-0.107-0.0704-0.203-0.0938-0.313-0.0729-0.341-0.125-0.698-0.125-1.062v-72c0-2.782 2.2182-5 5-5h72c2.7818 0 5 2.2182 5 5v72c0 0.3643-0.05212 0.72099-0.125 1.0625-0.04415 0.20689-0.08838 0.39766-0.15625 0.59375-0.0077 0.02195-0.0233 0.04069-0.03125 0.0625-0.06274 0.17374-0.13838 0.36745-0.21875 0.53125-0.04158 0.0828-0.07904 0.16995-0.125 0.25-0.0546 0.09721-0.12677 0.18835-0.1875 0.28125-0.09411 0.14096-0.20492 0.276-0.3125 0.40625-0.14317 0.17445-0.30314 0.347-0.46875 0.5-0.01117 0.0102-0.01998 0.02115-0.03125 0.03125-0.13839 0.12556-0.28509 0.23444-0.4375 0.34375-0.10257 0.07315-0.20432 0.15336-0.3125 0.21875-0.0074 0.0045-0.02384-0.0044-0.03125 0-0.23204 0.13873-0.46255 0.27478-0.71875 0.375 0.30153-0.0968 0.59646-0.20414 0.875-0.34375 0.55709-0.27922 1.0601-0.66569 1.5-1.0938 0.21997-0.21403 0.40937-0.44186 0.59375-0.6875s0.35541-0.50774 0.5-0.78125c0.14012-0.26505 0.27614-0.52473 0.375-0.8125 0.01041-0.03078 0.02133-0.06274 0.03125-0.09375 0.09046-0.27808 0.1388-0.5794 0.1875-0.875 0.053-0.318 0.094-0.634 0.094-0.969v-72c0-3.324-2.676-6-6-6h-72z"
     fill="url(#l)"
     id="path3468" />
  <rect
     stroke-linejoin="round"
     stroke-opacity=".7"
     rx="4"
     ry="4"
     height="70"
     width="70"
     stroke="url(#m)"
     stroke-linecap="square"
     y="13"
     x="13"
     stroke-width="2"
     fill="none"
     id="rect3470" />
  <path
     opacity=".4"
     d="m12 90c-3.324 0-6-2.676-6-6v-72c0-0.33472 0.04135-0.6507 0.09375-0.96875 0.0487-0.2956 0.09704-0.59692 0.1875-0.875 0.0099-0.03 0.0209-0.063 0.0313-0.094 0.0989-0.2873 0.2349-0.547 0.375-0.812 0.1446-0.2735 0.3156-0.5356 0.5-0.7812 0.1844-0.2457 0.3738-0.4735 0.5937-0.6876 0.44-0.428 0.943-0.8145 1.5-1.0937 0.2786-0.1396 0.5735-0.2469 0.8748-0.3437-0.256 0.1002-0.4865 0.2362-0.7185 0.375-0.00741 0.0044-0.023866-0.0045-0.03125 0-0.031933 0.0193-0.062293 0.04251-0.09375 0.0625-0.1204 0.0767-0.23102 0.16351-0.34375 0.25-0.10617 0.0808-0.21328 0.16111-0.3125 0.25-0.1779 0.1614-0.3474 0.3453-0.5 0.5312-0.1075 0.1303-0.2183 0.2653-0.3124 0.4063-0.0251 0.0383-0.0385 0.0858-0.0626 0.125-0.0647 0.103-0.1302 0.2045-0.1874 0.3124-0.1011 0.1948-0.2057 0.4158-0.2813 0.625-0.008 0.0219-0.0236 0.0406-0.0313 0.0626-0.0318 0.0919-0.0358 0.1868-0.0624 0.2812-0.0304 0.1066-0.0704 0.203-0.0938 0.3125-0.0729 0.3415-0.125 0.6985-0.125 1.0625v72c0 2.7818 2.2182 5 5 5h72c2.7818 0 5-2.2182 5-5v-72c0-0.364-0.052-0.721-0.125-1.0625-0.044-0.2069-0.088-0.3977-0.156-0.5937-0.008-0.022-0.024-0.0407-0.031-0.0626-0.063-0.1737-0.139-0.3674-0.219-0.5312-0.042-0.0828-0.079-0.17-0.125-0.25-0.055-0.0972-0.127-0.1884-0.188-0.2812-0.094-0.141-0.205-0.276-0.312-0.4063-0.143-0.1745-0.303-0.347-0.469-0.5-0.011-0.0102-0.02-0.0211-0.031-0.0313-0.139-0.1255-0.285-0.2344-0.438-0.3437-0.102-0.0731-0.204-0.1534-0.312-0.2187-0.0074-0.0045-0.02384 0.0044-0.03125 0-0.23204-0.13873-0.46255-0.27478-0.71875-0.375 0.30153 0.0968 0.59646 0.20414 0.875 0.34375 0.55709 0.27922 1.0601 0.66569 1.5 1.0938 0.21997 0.21403 0.40937 0.44186 0.59375 0.6875s0.35541 0.50774 0.5 0.78125c0.14012 0.26505 0.27614 0.52473 0.375 0.8125 0.01041 0.03078 0.02133 0.06274 0.03125 0.09375 0.09046 0.27808 0.1388 0.5794 0.1875 0.875 0.053 0.318 0.094 0.634 0.094 0.969v72c0 3.324-2.676 6-6 6h-72z"
     fill="url(#c)"
     id="path3472" />
  <rect
     style="fill:none;stroke:#0d2f5e;stroke-width:1;stroke-linejoin:miter;stroke-miterlimit:4;stroke-opacity:0.14901961;stroke-dasharray:none"
     id="rect3852"
     width="63.136196"
     height="31.096931"
     x="16.373005"
     y="48.41227"
     rx="4"
     ry="4" />
  <rect
     style="fill:none;stroke:#0c1d56;stroke-width:1;stroke-linejoin:miter;stroke-miterlimit:4;stroke-opacity:0.40784313999999999;stroke-dasharray:none;fill-opacity:0.40784313999999999"
     id="rect3856"
     width="61.251534"
     height="29.212269"
     x="17.197546"
     y="49.236809"
     rx="3"
     ry="3" />
  <rect
     style="opacity:0.3;fill:url(#linearGradient3873)"
     transform="scale(1,-1)"
     rx="2"
     ry="2"
     height="28"
     width="60.157055"
     y="-77.725151"
     x="17.685888"
     id="rect3434-9" />
  <rect
     style="opacity:0.50210972;fill:#000000;fill-opacity:1;stroke:none"
     id="rect3894"
     width="60.107594"
     height="4.5953007"
     x="17.706505"
     y="49.661564"
     rx="2.5"
     ry="2.5" />
  <rect
     style="opacity:0.50210972;fill:#000000;fill-opacity:1;stroke:none"
     id="rect3894-4"
     width="27.922745"
     height="4.5949998"
     x="18.005171"
     y="17.907442"
     rx="2.5"
     ry="1.8322001" />
</svg>
