<?xml version="1.0" encoding="UTF-8" standalone="no"?>
<svg xmlns="http://www.w3.org/2000/svg" height="96" width="96" version="1.1" xmlns:xlink="http://www.w3.org/1999/xlink">
 <defs>
  <linearGradient id="d" stop-color="#fff">
   <stop offset="0"/>
   <stop stop-opacity="0" offset="1"/>
  </linearGradient>
  <linearGradient id="c" y2="7.0165" gradientUnits="userSpaceOnUse" x2="45.448" gradientTransform="matrix(1.0059 0 0 .99417 100 0)" y1="92.54" x1="45.448">
   <stop offset="0"/>
   <stop stop-opacity=".58824" offset="1"/>
  </linearGradient>
  <radialGradient id="g" gradientUnits="userSpaceOnUse" cy="-15.871" cx="56.066" gradientTransform="matrix(-.0022617 -1.2346 1.3856 0 70.085 140.27)" r="35.938">
   <stop stop-color="#80a2c8" offset="0"/>
   <stop stop-color="#2e4c6d" offset="1"/>
  </radialGradient>
  <radialGradient id="f" gradientUnits="userSpaceOnUse" cy="80.843" cx="47.098" gradientTransform="matrix(1.3113,-5.2817e-8,4.5812e-8,1.1374,-14.662,-10.848)" r="38.957">
   <stop stop-color="#2fc044" offset="0"/>
   <stop stop-color="#246d2f" offset="1"/>
  </radialGradient>
  <linearGradient id="p" y2="69.688" xlink:href="#d" gradientUnits="userSpaceOnUse" x2="65.156" y1="16.125" x1="65.156"/>
  <linearGradient id="o" y2="69.688" gradientUnits="userSpaceOnUse" x2="65.156" y1="16.125" x1="65.156">
   <stop stop-color="#9cb7d2" offset="0"/>
   <stop stop-color="#e7edf3" stop-opacity="0" offset="1"/>
  </linearGradient>
  <linearGradient id="n" stop-color="#fff" y2="72.766" gradientUnits="userSpaceOnUse" x2="76.451" y1="8.0625" x1="76.451">
   <stop offset="0"/>
   <stop stop-opacity="0" offset="1"/>
  </linearGradient>
  <radialGradient id="e" stop-color="#fff" gradientUnits="userSpaceOnUse" cy="90.172" cx="48" gradientTransform="matrix(1.1573 0 0 .99591 -7.551 .19713)" r="42">
   <stop offset="0"/>
   <stop stop-opacity="0" offset="1"/>
  </radialGradient>
  <linearGradient id="m" y2="83.295" gradientUnits="userSpaceOnUse" x2="43.179" gradientTransform="matrix(1.0294,0,0,1.0294,-1.4118,-1.4118)" y1="13" x1="43.179">
   <stop stop-color="#919191" offset="0"/>
   <stop stop-color="#fdfdfd" offset="1"/>
  </linearGradient>
  <linearGradient id="l" y2="63.893" xlink:href="#d" gradientUnits="userSpaceOnUse" x2="36.357" y1="6" x1="36.357"/>
  <linearGradient id="k" y2="5.9877" gradientUnits="userSpaceOnUse" x2="48" y1="90" x1="48">
   <stop stop-color="#b4b4b4" offset="0"/>
   <stop stop-color="#e6e6e6" offset="1"/>
  </linearGradient>
  <linearGradient id="j" y2="6" xlink:href="#c" gradientUnits="userSpaceOnUse" x2="32.251" gradientTransform="translate(0,1)" y1="90" x1="32.251"/>
  <linearGradient id="i" y2="5.9996" xlink:href="#c" gradientUnits="userSpaceOnUse" x2="32.251" gradientTransform="matrix(1.0238 0 0 1.0119 -1.1429 .929)" y1="90" x1="32.251"/>
  <linearGradient id="h" y2="90.239" xlink:href="#c" gradientUnits="userSpaceOnUse" x2="32.251" gradientTransform="matrix(1.0238,0,0,-1.0119,-1.1429,98.071)" y1="6.1317" x1="32.251"/>
 </defs>
 <g fill="url(#h)">
  <path opacity="0.08" d="m12 95.031c-5.5111 0-10.031-4.52-10.031-10.031v-71c0-5.5111 4.5202-10.031 10.031-10.031h72c5.5111 0 10.031 4.5202 10.031 10.031v71c0 5.5111-4.5202 10.031-10.031 10.031h-72z"/>
  <path opacity=".1" d="m12 94.031c-4.9716 0-9.0312-4.0596-9.0312-9.0312v-71c0-4.9718 4.0596-9.0314 9.0312-9.0314h72c4.9716 0 9.0312 4.0596 9.0312 9.0312v71c0 4.9716-4.0596 9.0312-9.0312 9.0312h-72z"/>
  <path opacity=".2" d="m12 93c-4.4091 0-8-3.591-8-8v-71c0-4.4091 3.5909-8 8-8h72c4.4091 0 8 3.5909 8 8v71c0 4.4091-3.5909 8-8 8h-72z"/>
 </g>
 <rect opacity=".3" rx="7" ry="7" height="85" width="86" y="7" x="5" fill="url(#i)"/>
 <rect opacity=".45" rx="6" ry="6" height="84" width="84" y="7" x="6" fill="url(#j)"/>
 <rect rx="5.8528" ry="6.1733" height="78.516" width="77.915" y="8.2544" x="8.1409" fill="url(#f)"/>
 <path d="m83.937 83.875v-71.869h-71.94v71.869h71.94z" fill="url(#g)"/>
 <g fill="#fff">
  <rect opacity=".2" height="10" width="72" y="72" x="12"/>
  <rect opacity=".3" rx="3.5198" ry="4.0227" height="32" width="44" y="30" x="26"/>
  <rect rx="2" ry="2" height="12" width="34" y="43" x="31"/>
 </g>
 <path d="m33 42.031c-1.6208 0-2.9688 1.348-2.9688 2.9688v8c0 1.6208 1.348 2.9688 2.9688 2.9688h30c1.6208 0 2.9688-1.348 2.9688-2.9688v-8c0-1.621-1.348-2.969-2.969-2.969h-30zm0 2.0312h30c0.50058 0 0.9375 0.43692 0.9375 0.9375v8c0 0.50058-0.43692 0.9375-0.9375 0.9375h-30c-0.50058 0-0.9375-0.43692-0.9375-0.9375v-8c0-0.50058 0.43692-0.9375 0.9375-0.9375z" fill="#2e4c6d"/>
 <path opacity=".3" d="m33 44.062c-0.50058 0-0.9375 0.43692-0.9375 0.9375v8c0 0.30992 0.19112 0.57746 0.4375 0.75v-7.75c0-0.50058 0.42139-0.9375 0.90625-0.9375h29.188c0.485 0 0.906 0.437 0.906 0.938v7.75c0.24638-0.17254 0.4375-0.44008 0.4375-0.75v-8c0-0.50058-0.43692-0.9375-0.9375-0.9375h-30z"/>
 <path d="m40 49a2.5 2.5 0 1 1 -5 0 2.5 2.5 0 1 1 5 0z"/>
 <path d="m47 49a2.5 2.5 0 1 1 -5 0 2.5 2.5 0 1 1 5 0z"/>
 <path d="m54 49a2.5 2.5 0 1 1 -5 0 2.5 2.5 0 1 1 5 0z"/>
 <path d="m61 49a2.5 2.5 0 1 1 -5 0 2.5 2.5 0 1 1 5 0z"/>
 <g fill="#fff">
  <path d="m32.549 35.65c-0.000003 0.14341-0.02416 0.27747-0.07249 0.40218-0.04677 0.12315-0.11769 0.23071-0.21278 0.32268-0.09353 0.09041-0.21122 0.16212-0.35307 0.21512-0.14186 0.053-0.30709 0.0795-0.4957 0.0795h-0.96803v1.2837h-0.4466v-3.2946h1.3866c0.19485 0.000003 0.36476 0.02416 0.50973 0.07248 0.14497 0.04677 0.26578 0.1138 0.36242 0.20109 0.09664 0.08574 0.16913 0.19018 0.21746 0.31332 0.04832 0.12159 0.07248 0.25643 0.07249 0.40451m-0.44894 0.0047c-0.000002-0.20888-0.06391-0.3671-0.19173-0.47466-0.12782-0.10912-0.31956-0.16367-0.5752-0.16368h-0.88619v1.3001h0.9049c0.2572 0.000002 0.44582-0.05689 0.56585-0.17069 0.12158-0.11379 0.18238-0.27747 0.18238-0.49103"/>
  <path d="m33.774 38c-0.25409 0-0.44504-0.06703-0.57287-0.20109-0.12782-0.13406-0.19174-0.318-0.19174-0.55182 0-0.16679 0.03118-0.30319 0.09353-0.40919 0.06391-0.10756 0.14653-0.19173 0.24785-0.25253 0.10288-0.06079 0.21979-0.10288 0.35074-0.12626 0.13094-0.02338 0.26422-0.03663 0.39984-0.03975l0.56819-0.0094v-0.138c-0.000002-0.10444-0.01091-0.19329-0.03274-0.26656-0.02183-0.07326-0.05534-0.1325-0.10054-0.1777-0.04521-0.0452-0.1021-0.07794-0.17069-0.09821-0.06703-0.02182-0.14653-0.03273-0.2385-0.03274-0.08106 0.000002-0.15432 0.0062-0.21979 0.01871-0.06547 0.01091-0.12237 0.03196-0.17069 0.06313-0.04832 0.02962-0.0873 0.07093-0.11691 0.12393-0.02962 0.05144-0.0491 0.11691-0.05846 0.19641l-0.43959-0.03975c0.01559-0.09976 0.04521-0.19095 0.08885-0.27357 0.04365-0.08417 0.10522-0.15666 0.18472-0.21746 0.08106-0.06079 0.1816-0.10756 0.30163-0.14029 0.12159-0.03429 0.26812-0.05144 0.43959-0.05144 0.318 0.000002 0.55728 0.07327 0.71784 0.21979 0.16056 0.14497 0.24084 0.35541 0.24084 0.63132v1.0896c-0.000002 0.12471 0.01637 0.21901 0.0491 0.28292 0.03273 0.06235 0.09509 0.09353 0.18706 0.09353 0.02338 0 0.04676-0.0016 0.07015-0.0047 0.02338-0.0031 0.04598-0.007 0.06781-0.01169v0.26188c-0.053 0.01247-0.106 0.02182-0.159 0.02806-0.05144 0.0062-0.10678 0.0094-0.16601 0.0094-0.0795 0-0.14809-0.01013-0.20576-0.0304-0.05612-0.02182-0.1021-0.05378-0.13796-0.09587-0.03585-0.04365-0.06313-0.09665-0.08184-0.159-0.01871-0.06391-0.0304-0.13796-0.03507-0.22213h-0.01403c-0.04521 0.08106-0.09509 0.15432-0.14965 0.21979-0.053 0.06547-0.11535 0.12159-0.18706 0.16835-0.07171 0.04521-0.15354 0.08028-0.24551 0.10522-0.09041 0.02494-0.19485 0.03741-0.31332 0.03741m0.09587-0.31566c0.13406 0 0.25097-0.02416 0.35073-0.07249 0.10132-0.04988 0.18472-0.11301 0.25019-0.1894 0.06703-0.07638 0.11691-0.15978 0.14965-0.25019 0.03273-0.09041 0.0491-0.17692 0.0491-0.25954v-0.2081l-0.46063 0.0094c-0.10288 0.0016-0.20109 0.0094-0.29462 0.02338-0.09197 0.01247-0.17303 0.03819-0.24318 0.07716s-0.12626 0.09353-0.16835 0.16368c-0.04053 0.07015-0.06079 0.16212-0.06079 0.27591 0 0.13718 0.03663 0.24318 0.1099 0.318 0.07482 0.07482 0.18082 0.11224 0.318 0.11224"/>
  <path d="m37.693 37.254c-0.000003 0.11847-0.02338 0.22447-0.07015 0.318-0.04521 0.09197-0.11146 0.16991-0.19875 0.23382-0.0873 0.06235-0.19485 0.11068-0.32268 0.14497-0.12627 0.03274-0.27124 0.0491-0.43491 0.0491-0.14653 0-0.27903-0.01169-0.3975-0.03507-0.117-0.022-0.22-0.058-0.309-0.108-0.088-0.05-0.163-0.115-0.224-0.196-0.059-0.083-0.103-0.183-0.131-0.302l0.37178-0.07249c0.03585 0.13562 0.1099 0.23538 0.22213 0.29929 0.11223 0.06235 0.26812 0.09353 0.46765 0.09353 0.09041 0 0.17303-0.0062 0.24785-0.01871 0.07638-0.01247 0.14185-0.03351 0.19641-0.06313 0.05456-0.03118 0.09664-0.07171 0.12626-0.12159 0.03117-0.05144 0.04676-0.11457 0.04677-0.1894-0.000002-0.07638-0.01793-0.13873-0.05378-0.18706-0.03585-0.04988-0.08574-0.09119-0.14965-0.12393s-0.14185-0.06079-0.23382-0.08418c-0.09041-0.02494-0.19018-0.05222-0.29929-0.08184-0.10132-0.0265-0.20187-0.05612-0.30163-0.08885-0.09977-0.03273-0.19018-0.0756-0.27124-0.1286-0.0795-0.05456-0.14419-0.12159-0.19407-0.20109s-0.07482-0.17926-0.07482-0.29929c0-0.2307 0.08184-0.40607 0.24551-0.5261 0.16523-0.12158 0.40529-0.18238 0.72017-0.18238 0.27903 0.000003 0.50038 0.04911 0.66406 0.14731 0.16523 0.09821 0.26967 0.25565 0.31332 0.47232l-0.37879 0.04676c-0.01403-0.06547-0.03975-0.12003-0.07716-0.16368-0.03741-0.0452-0.08262-0.08106-0.13562-0.10756-0.053-0.02806-0.11302-0.04754-0.18004-0.05846-0.06547-0.01247-0.13406-0.0187-0.20576-0.01871-0.19018 0.000003-0.33047 0.02884-0.42088 0.08651-0.09041 0.05768-0.13562 0.14497-0.13562 0.26188-0.000001 0.06859 0.01637 0.12549 0.0491 0.17069 0.03429 0.04365 0.08106 0.08106 0.14029 0.11224 0.06079 0.02962 0.13328 0.05612 0.21746 0.0795 0.08418 0.02182 0.17692 0.04521 0.27825 0.07015 0.06703 0.01715 0.13562 0.03585 0.20576 0.05612 0.07014 0.01871 0.13795 0.04209 0.20342 0.07015 0.06703 0.0265 0.12938 0.05846 0.18706 0.09587 0.05923 0.03585 0.11067 0.0795 0.15432 0.13094 0.04364 0.05144 0.07794 0.11146 0.10288 0.18004 0.0265 0.06859 0.03975 0.14809 0.03975 0.2385"/>
  <path d="m40.087 37.254c-0.000002 0.11847-0.02338 0.22447-0.07015 0.318-0.04521 0.09197-0.11146 0.16991-0.19875 0.23382-0.0873 0.06235-0.19485 0.11068-0.32268 0.14497-0.12627 0.03274-0.27124 0.0491-0.43491 0.0491-0.14653 0-0.27903-0.01169-0.3975-0.03507-0.117-0.022-0.22-0.058-0.309-0.108-0.088-0.05-0.163-0.115-0.224-0.196-0.059-0.083-0.103-0.183-0.131-0.302l0.37178-0.07249c0.03585 0.13562 0.1099 0.23538 0.22213 0.29929 0.11223 0.06235 0.26812 0.09353 0.46764 0.09353 0.09041 0 0.17303-0.0062 0.24785-0.01871 0.07638-0.01247 0.14185-0.03351 0.19641-0.06313 0.05456-0.03118 0.09664-0.07171 0.12626-0.12159 0.03117-0.05144 0.04676-0.11457 0.04676-0.1894-0.000001-0.07638-0.01793-0.13873-0.05378-0.18706-0.03585-0.04988-0.08574-0.09119-0.14965-0.12393s-0.14185-0.06079-0.23382-0.08418c-0.09041-0.02494-0.19018-0.05222-0.29929-0.08184-0.10132-0.0265-0.20187-0.05612-0.30163-0.08885-0.09977-0.03273-0.19018-0.0756-0.27123-0.1286-0.0795-0.05456-0.14419-0.12159-0.19407-0.20109s-0.07482-0.17926-0.07482-0.29929c-0.000001-0.2307 0.08184-0.40607 0.24551-0.5261 0.16523-0.12158 0.40529-0.18238 0.72017-0.18238 0.27903 0.000003 0.50038 0.04911 0.66406 0.14731 0.16523 0.09821 0.26967 0.25565 0.31332 0.47232l-0.37879 0.04676c-0.01403-0.06547-0.03975-0.12003-0.07716-0.16368-0.03741-0.0452-0.08262-0.08106-0.13562-0.10756-0.053-0.02806-0.11302-0.04754-0.18004-0.05846-0.06547-0.01247-0.13406-0.0187-0.20576-0.01871-0.19018 0.000003-0.33047 0.02884-0.42088 0.08651-0.09041 0.05768-0.13562 0.14497-0.13562 0.26188-0.000001 0.06859 0.01637 0.12549 0.0491 0.17069 0.03429 0.04365 0.08106 0.08106 0.14029 0.11224 0.06079 0.02962 0.13328 0.05612 0.21746 0.0795 0.08418 0.02182 0.17692 0.04521 0.27825 0.07015 0.06703 0.01715 0.13562 0.03585 0.20576 0.05612 0.07015 0.01871 0.13795 0.04209 0.20343 0.07015 0.06703 0.0265 0.12938 0.05846 0.18706 0.09587 0.05923 0.03585 0.11067 0.0795 0.15432 0.13094 0.04364 0.05144 0.07794 0.11146 0.10288 0.18004 0.0265 0.06859 0.03975 0.14809 0.03975 0.2385"/>
  <path d="m43.005 37.953h-0.489l-0.404-1.632c-0.01247-0.04209-0.02572-0.09431-0.03975-0.15666-0.01247-0.06235-0.02494-0.12314-0.03741-0.18238-0.01559-0.06859-0.0304-0.13951-0.04443-0.21278-0.01403 0.07015-0.02884 0.13952-0.04443 0.2081-0.01247 0.05924-0.0265 0.12081-0.04209 0.18472-0.01403 0.06391-0.02728 0.12003-0.03975 0.16835l-0.4162 1.6227h-0.48635l-0.70848-2.53h0.4162l0.4279 1.7186c0.01091 0.03585 0.02182 0.08028 0.03274 0.13328 0.01091 0.05144 0.02182 0.1021 0.03273 0.15198 0.01091 0.05768 0.0226 0.11691 0.03507 0.1777 0.01247-0.05924 0.02572-0.11691 0.03975-0.17303 0.01247-0.04832 0.02494-0.09743 0.03741-0.14731s0.02338-0.09119 0.03274-0.12393l0.45829-1.7373h0.45128l0.44192 1.7373c0.01091 0.04053 0.0226 0.08651 0.03507 0.13796 0.01247 0.05144 0.02416 0.09977 0.03507 0.14497 0.01247 0.053 0.02494 0.10678 0.03741 0.16134 0.01247-0.05924 0.02494-0.11691 0.03741-0.17303 0.01091-0.04832 0.02182-0.09821 0.03274-0.14965 0.01247-0.053 0.02416-0.09976 0.03507-0.14029l0.4466-1.7186h0.41153l-0.72485 2.53"/>
  <path d="m46.183 36.686c-0.000002 0.44271-0.09743 0.7724-0.29228 0.98907-0.19486 0.21668-0.47778 0.32501-0.84878 0.32501-0.17615 0-0.33359-0.0265-0.47232-0.0795-0.13874-0.053-0.25643-0.13406-0.35307-0.24318-0.09509-0.10912-0.16835-0.24551-0.21979-0.40919-0.04988-0.16523-0.07482-0.35931-0.07482-0.58222 0-0.87294 0.37801-1.3094 1.134-1.3094 0.19641 0.000002 0.36554 0.02728 0.5074 0.08184 0.14341 0.05456 0.26032 0.1364 0.35073 0.24551 0.09197 0.10912 0.15978 0.24552 0.20343 0.40919 0.04364 0.16368 0.06547 0.35463 0.06547 0.57286m-0.44192 0c-0.000002-0.19641-0.01559-0.35853-0.04677-0.48635-0.02962-0.12782-0.07404-0.22992-0.13328-0.30631-0.05768-0.07638-0.1286-0.12938-0.21278-0.159-0.08418-0.03117-0.17927-0.04676-0.28526-0.04677-0.10756 0.000002-0.20499 0.01637-0.29228 0.0491-0.08574 0.03118-0.159 0.08574-0.21979 0.16368-0.0608 0.07638-0.10756 0.17849-0.14029 0.30631-0.03118 0.12782-0.04677 0.2876-0.04676 0.47934-0.000001 0.19641 0.01715 0.35931 0.05144 0.48869 0.03429 0.12782 0.08106 0.22993 0.14029 0.30631 0.06079 0.07638 0.13172 0.13016 0.21278 0.16134 0.08262 0.03118 0.17225 0.04676 0.2689 0.04676 0.10756 0 0.20498-0.01481 0.29228-0.04443 0.08729-0.03118 0.16134-0.08495 0.22213-0.16134 0.06079-0.07638 0.10756-0.17926 0.14029-0.30865 0.03273-0.12938 0.0491-0.29228 0.0491-0.48869"/>
  <path d="m46.718 37.953v-1.9407c0-0.053-0.000779-0.10678-0.0023-0.16134 0-0.05611-0.00078-0.10989-0.0023-0.16134-0.0016-0.05144-0.0031-0.09976-0.0047-0.14497-0.0016-0.0452-0.0031-0.08573-0.0047-0.12159h0.3975c0.0016 0.03586 0.0031 0.07716 0.0047 0.12393 0.0031 0.04521 0.0055 0.09197 0.007 0.14029 0.0031 0.04833 0.0047 0.09509 0.0047 0.14029 0.0016 0.04365 0.0023 0.08106 0.0023 0.11224h0.0094c0.02962-0.09665 0.06079-0.18004 0.09353-0.25019 0.03429-0.0717 0.07404-0.13016 0.11925-0.17537 0.0452-0.04676 0.09898-0.08106 0.16134-0.10288 0.06235-0.02338 0.13795-0.03507 0.22681-0.03507 0.03429 0.000002 0.06703 0.0031 0.09821 0.0094 0.03117 0.0047 0.05534 0.0094 0.07249 0.01403v0.38581c-0.02806-0.0078-0.0608-0.01325-0.09821-0.01637-0.03741-0.0047-0.0795-0.007-0.12626-0.007-0.09665 0.000003-0.17927 0.02183-0.24785 0.06547-0.06703 0.04365-0.12237 0.10444-0.16602 0.18238-0.04209 0.07638-0.07326 0.16836-0.09353 0.27591-0.02027 0.106-0.0304 0.22213-0.0304 0.3484v1.3188h-0.42088"/>
  <path d="m49.905 37.546c-0.07794 0.16212-0.1816 0.27825-0.31098 0.3484-0.12782 0.07015-0.28682 0.10522-0.477 0.10522-0.31956 0-0.55494-0.10756-0.70614-0.32268-0.14965-0.21512-0.22447-0.54091-0.22447-0.97738-0.000001-0.88229 0.3102-1.3234 0.93061-1.3234 0.19173 0.000002 0.35151 0.03508 0.47934 0.10522 0.12782 0.07015 0.2307 0.1816 0.30865 0.33437h0.0047c-0.000002-0.01559-0.000782-0.03975-0.0023-0.07249-0.000002-0.03429-0.000781-0.06937-0.0023-0.10522-0.000002-0.03741-0.000002-0.07248 0-0.10522-0.000002-0.03273-0.000002-0.05611 0-0.07015v-0.97972h0.42088v2.9485c-0.000002 0.06079-0.000002 0.11925 0 0.17537 0.0016 0.05612 0.0031 0.10756 0.0047 0.15432 0.0016 0.04677 0.0031 0.08729 0.0047 0.12159 0.0016 0.03273 0.0031 0.05612 0.0047 0.07015h-0.40218c-0.0031-0.01559-0.0062-0.03741-0.0094-0.06547-0.0016-0.02962-0.0039-0.06313-0.007-0.10054-0.0016-0.03741-0.0031-0.07638-0.0047-0.11691-0.0016-0.04209-0.0023-0.0834-0.0023-0.12393h-0.0094m-1.277-0.86c-0.000001 0.17459 0.01091 0.32424 0.03274 0.44894 0.02182 0.12471 0.0569 0.22759 0.10522 0.30865 0.04832 0.0795 0.1099 0.13796 0.18472 0.17537s0.16601 0.05612 0.27357 0.05612c0.11068 0 0.2081-0.01793 0.29228-0.05378 0.08573-0.03585 0.15666-0.09353 0.21278-0.17303 0.05767-0.08106 0.10132-0.18628 0.13094-0.31566 0.02961-0.12938 0.04442-0.2876 0.04443-0.47466-0.000002-0.17926-0.01481-0.33047-0.04443-0.45362-0.02962-0.1247-0.07327-0.22525-0.13094-0.30163-0.05768-0.07638-0.1286-0.13094-0.21278-0.16368-0.08262-0.03429-0.17849-0.05144-0.2876-0.05144-0.10288 0.000002-0.19174 0.01793-0.26656 0.05378-0.07482 0.03586-0.13718 0.09353-0.18706 0.17303s-0.0873 0.18316-0.11224 0.31098c-0.02338 0.12627-0.03507 0.27981-0.03507 0.46063"/>
  <path d="m52.417 35.907v-0.48401h0.45595v0.484h-0.456m0 2.046v-0.48401h0.45595v0.484h-0.456"/>
 </g>
 <path opacity="0.08" d="m19 13c-3.2894 0-6 2.7106-6 6v58c0 3.2894 2.7106 6 6 6h58c3.2894 0 6-2.7106 6-6v-58c0-3.2894-2.7106-6-6-6h-58zm0 4h58c1.1426 0 2 0.85741 2 2v58c0 1.1426-0.85741 2-2 2h-58c-1.1426 0-2-0.85741-2-2v-58c0-1.1426 0.85741-2 2-2z"/>
 <path opacity=".3" d="m29.531 30c-1.95 0-3.531 1.803-3.531 4.031v23.938c0 2.228 1.581 4.031 3.531 4.031h36.938c1.95 0 3.531-1.803 3.531-4.031v-23.938c0-2.228-1.581-4.031-3.531-4.031h-36.938zm0 1h36.938c1.327 0 2.531 1.281 2.531 3.031v23.938c0 1.75-1.204 3.031-2.531 3.031h-36.938c-1.327 0-2.531-1.281-2.531-3.031v-23.938c0-1.75 1.204-3.031 2.531-3.031z" fill="#fff"/>
 <path opacity=".1" style="color:#000000;enable-background:accumulate" d="m17 14c-1.662 0-3 1.338-3 3v62c0 1.662 1.338 3 3 3h62c1.662 0 3-1.338 3-3v-62c0-1.662-1.338-3-3-3h-62zm0 1.9375h62c0.61816 0 1.0625 0.44434 1.0625 1.0625v62c0 0.61816-0.44434 1.0625-1.0625 1.0625h-62c-0.61816 0-1.0625-0.44434-1.0625-1.0625v-62c0-0.61816 0.44434-1.0625 1.0625-1.0625z"/>
 <path opacity=".25" style="color:#000000;enable-background:accumulate" d="m17 14c-1.662 0-3 1.338-3 3v62c0 1.662 1.338 3 3 3h62c1.662 0 3-1.338 3-3v-62c0-1.662-1.338-3-3-3h-62zm0 0.96875h62c1.1401 0 2.0312 0.89117 2.0312 2.0312v62c0 1.1401-0.89117 2.0312-2.0312 2.0312h-62c-1.1401 0-2.0312-0.89117-2.0312-2.0312v-62c0-1.1401 0.89117-2.0312 2.0312-2.0312z"/>
 <path d="m12 6c-3.324 0-6 2.676-6 6v72c0 3.324 2.676 6 6 6h72c3.324 0 6-2.676 6-6v-72c0-3.324-2.676-6-6-6h-72zm5 8h62c1.6838 0 3 1.3162 3 3v62c0.000001 1.6838-1.3162 3-3 3h-62c-1.6838 0.000001-3-1.3162-3-3v-62c0-1.6838 1.3162-3 3-3z" fill="url(#k)"/>
 <path opacity=".7" d="m12 6c-3.324 0-6 2.676-6 6v72c0 0.33472 0.04135 0.6507 0.09375 0.96875 0.0487 0.2956 0.09704 0.59692 0.1875 0.875 0.00988 0.03038 0.020892 0.0636 0.03125 0.09375 0.098865 0.28777 0.23488 0.54745 0.375 0.8125 0.14459 0.27351 0.31562 0.53562 0.5 0.78125 0.18438 0.24564 0.37378 0.47347 0.59375 0.6875 0.43995 0.42806 0.94291 0.81453 1.5 1.0938 0.27854 0.13961 0.57347 0.24695 0.875 0.34375-0.2562-0.10022-0.48671-0.23627-0.71875-0.375-0.00741-0.0044-0.023866 0.0045-0.03125 0-0.0319-0.019-0.0622-0.042-0.0937-0.062-0.1204-0.077-0.231-0.164-0.3437-0.25-0.1062-0.081-0.2133-0.161-0.3126-0.25-0.1778-0.162-0.3473-0.346-0.4999-0.531-0.1075-0.131-0.2183-0.266-0.3124-0.407-0.0251-0.038-0.0385-0.086-0.0626-0.125-0.0647-0.103-0.1302-0.204-0.1874-0.312-0.1011-0.195-0.2057-0.416-0.2813-0.625-0.008-0.022-0.0236-0.041-0.0313-0.063-0.0318-0.092-0.0358-0.187-0.0624-0.281-0.0304-0.107-0.0704-0.203-0.0938-0.313-0.0729-0.341-0.125-0.698-0.125-1.062v-72c0-2.782 2.2182-5 5-5h72c2.7818 0 5 2.2182 5 5v72c0 0.3643-0.05212 0.72099-0.125 1.0625-0.04415 0.20689-0.08838 0.39766-0.15625 0.59375-0.0077 0.02195-0.0233 0.04069-0.03125 0.0625-0.06274 0.17374-0.13838 0.36745-0.21875 0.53125-0.04158 0.0828-0.07904 0.16995-0.125 0.25-0.0546 0.09721-0.12677 0.18835-0.1875 0.28125-0.09411 0.14096-0.20492 0.276-0.3125 0.40625-0.14317 0.17445-0.30314 0.347-0.46875 0.5-0.01117 0.0102-0.01998 0.02115-0.03125 0.03125-0.13839 0.12556-0.28509 0.23444-0.4375 0.34375-0.10257 0.07315-0.20432 0.15336-0.3125 0.21875-0.0074 0.0045-0.02384-0.0044-0.03125 0-0.23204 0.13873-0.46255 0.27478-0.71875 0.375 0.30153-0.0968 0.59646-0.20414 0.875-0.34375 0.55709-0.27922 1.0601-0.66569 1.5-1.0938 0.21997-0.21403 0.40937-0.44186 0.59375-0.6875s0.35541-0.50774 0.5-0.78125c0.14012-0.26505 0.27614-0.52473 0.375-0.8125 0.01041-0.03078 0.02133-0.06274 0.03125-0.09375 0.09046-0.27808 0.1388-0.5794 0.1875-0.875 0.053-0.318 0.094-0.634 0.094-0.969v-72c0-3.324-2.676-6-6-6h-72z" fill="url(#l)"/>
 <rect stroke-linejoin="round" stroke-opacity=".7" rx="4" ry="4" height="70" width="70" stroke="url(#m)" stroke-linecap="square" y="13" x="13" stroke-width="2" fill="none"/>
 <path opacity=".4" d="m12 90c-3.324 0-6-2.676-6-6v-72c0-0.33472 0.04135-0.6507 0.09375-0.96875 0.0487-0.2956 0.09704-0.59692 0.1875-0.875 0.0099-0.03 0.0209-0.063 0.0313-0.094 0.0989-0.2873 0.2349-0.547 0.375-0.812 0.1446-0.2735 0.3156-0.5356 0.5-0.7812 0.1844-0.2457 0.3738-0.4735 0.5937-0.6876 0.44-0.428 0.943-0.8145 1.5-1.0937 0.2786-0.1396 0.5735-0.2469 0.8748-0.3437-0.256 0.1002-0.4865 0.2362-0.7185 0.375-0.00741 0.0044-0.023866-0.0045-0.03125 0-0.031933 0.0193-0.062293 0.04251-0.09375 0.0625-0.1204 0.0767-0.23102 0.16351-0.34375 0.25-0.10617 0.0808-0.21328 0.16111-0.3125 0.25-0.1779 0.1614-0.3474 0.3453-0.5 0.5312-0.1075 0.1303-0.2183 0.2653-0.3124 0.4063-0.0251 0.0383-0.0385 0.0858-0.0626 0.125-0.0647 0.103-0.1302 0.2045-0.1874 0.3124-0.1011 0.1948-0.2057 0.4158-0.2813 0.625-0.008 0.0219-0.0236 0.0406-0.0313 0.0626-0.0318 0.0919-0.0358 0.1868-0.0624 0.2812-0.0304 0.1066-0.0704 0.203-0.0938 0.3125-0.0729 0.3415-0.125 0.6985-0.125 1.0625v72c0 2.7818 2.2182 5 5 5h72c2.7818 0 5-2.2182 5-5v-72c0-0.364-0.052-0.721-0.125-1.0625-0.044-0.2069-0.088-0.3977-0.156-0.5937-0.008-0.022-0.024-0.0407-0.031-0.0626-0.063-0.1737-0.139-0.3674-0.219-0.5312-0.042-0.0828-0.079-0.17-0.125-0.25-0.055-0.0972-0.127-0.1884-0.188-0.2812-0.094-0.141-0.205-0.276-0.312-0.4063-0.143-0.1745-0.303-0.347-0.469-0.5-0.011-0.0102-0.02-0.0211-0.031-0.0313-0.139-0.1255-0.285-0.2344-0.438-0.3437-0.102-0.0731-0.204-0.1534-0.312-0.2187-0.0074-0.0045-0.02384 0.0044-0.03125 0-0.23204-0.13873-0.46255-0.27478-0.71875-0.375 0.30153 0.0968 0.59646 0.20414 0.875 0.34375 0.55709 0.27922 1.0601 0.66569 1.5 1.0938 0.21997 0.21403 0.40937 0.44186 0.59375 0.6875s0.35541 0.50774 0.5 0.78125c0.14012 0.26505 0.27614 0.52473 0.375 0.8125 0.01041 0.03078 0.02133 0.06274 0.03125 0.09375 0.09046 0.27808 0.1388 0.5794 0.1875 0.875 0.053 0.318 0.094 0.634 0.094 0.969v72c0 3.324-2.676 6-6 6h-72z" fill="url(#e)"/>
 <g fill-rule="evenodd">
  <path opacity="0.33" d="m44.844 8.0625 1.3438 3.875h32.812c2.754 0 5.0625 2.3085 5.0625 5.0625v62c0.000002 2.754-2.3085 5.0625-5.0625 5.0625h-7.875l1.3438 3.875h11.531c2.2218 0 3.9375-1.7157 3.9375-3.9375v-72c0-2.2218-1.716-3.9375-3.938-3.9375h-39.156z" fill="url(#n)"/>
  <path opacity="0.57" d="m47.656 16.125 22.031 63.75h9.3125c0.5388 0 0.875-0.3362 0.875-0.875v-62c0-0.5388-0.33619-0.875-0.875-0.875h-31.344z" fill="url(#o)"/>
  <path opacity="0.41" d="m47.656 16.125 22.031 63.75h1l-22.031-63.75h-1z" fill="url(#p)"/>
 </g>
</svg>
