<?xml version="1.0" encoding="UTF-8" standalone="no"?>
<svg xmlns="http://www.w3.org/2000/svg" height="96" width="96" version="1.1" xmlns:xlink="http://www.w3.org/1999/xlink">
 <defs>
  <clipPath id="z">
   <rect rx="3" ry="3" height="68" width="68" y="14" x="14" fill="#fff"/>
  </clipPath>
  <linearGradient id="d">
   <stop stop-color="#e3e3e3" offset="0"/>
   <stop stop-color="#939393" offset="1"/>
  </linearGradient>
  <filter id="j" color-interpolation-filters="sRGB">
   <feGaussianBlur stdDeviation="1.8596875"/>
  </filter>
  <filter id="k" color-interpolation-filters="sRGB">
   <feGaussianBlur stdDeviation="1.4521875"/>
  </filter>
  <linearGradient id="c">
   <stop stop-color="#f9f9f9" offset="0"/>
   <stop stop-color="#3c3c3c" offset="1"/>
  </linearGradient>
  <filter id="i" color-interpolation-filters="sRGB">
   <feGaussianBlur stdDeviation="0.063379309"/>
  </filter>
  <filter id="e" color-interpolation-filters="sRGB">
   <feGaussianBlur stdDeviation="1.56844"/>
  </filter>
  <filter id="f" color-interpolation-filters="sRGB">
   <feGaussianBlur stdDeviation="1.8909375"/>
  </filter>
  <clipPath id="ab">
   <path d="m81.776 33.017-1.6986 4.0609-0.4881 2.909 0.09754 1.1129-4.3928 0.56619-0.19524-1.0738-1.2105-2.6943-2.6943-3.4947-2.7529 0.7419-0.58571 4.3538 0.29286 2.9481 0.37095 1.0348-4.0805 1.6986-0.46856-0.99571-1.8743-2.2843-3.5143-2.6748-2.46 1.4252 0.56619 4.3733 1.0348 2.7528 0.62476 0.91762-3.4948 2.6943-0.72239-0.83952-2.4014-1.7376-4.0804-1.6595-2.0109 2.0109 1.679 4.0609 1.7181 2.4014 0.83952 0.72238-2.6943 3.5143-0.89809-0.62476-2.7724-1.0543-4.3538-0.56619-1.4252 2.4795 2.6552 3.4947 2.3038 1.8743 0.9762 0.46857-1.679 4.0805-1.0348-0.37095-2.9481-0.29286-4.3538 0.60524-0.74191 2.7333 3.4752 2.6943 2.6943 1.23 1.0933 0.19524-0.58571 4.3733-1.0933-0.07809-2.9286 0.46857-4.0609 1.6986v2.8505l4.0609 1.6986 2.9286 0.48809 1.0933-0.09763 0.58571 4.3928-1.0933 0.19524-2.6943 1.2105-3.4752 2.6943 0.74191 2.7528 4.3538 0.58571 2.9481-0.29285 1.0348-0.37095 1.679 4.0805-0.9762 0.46857-2.3038 1.8743-2.6552 3.5143 1.4252 2.46 4.3538-0.56618 2.7724-1.0348 0.89809-0.62476 2.6943 3.4948-0.83952 0.72237-1.7181 2.4014-1.679 4.0805 2.0109 2.0109 4.0804-1.679 2.4014-1.7181 0.72239-0.83952 3.4948 2.6943-0.62476 0.89809-1.0348 2.7724-0.56619 4.3538 2.46 1.4252 3.5143-2.6552 1.8743-2.3038 0.46856-0.97618 4.0805 1.679-0.37095 1.0348-0.29286 2.9481 0.58571 4.3538 2.7529 0.74191 2.6943-3.4752 1.2105-2.6943 0.19524-1.0933 4.3928 0.58571-0.09754 1.0933 0.4881 2.9286 1.6986 4.0609h2.8505l1.6986-4.0609 0.46858-2.9286-0.07803-1.0933 4.3733-0.58571 0.19524 1.0933 1.23 2.6943 2.6943 3.4752 2.7333-0.74191 0.60524-4.3538-0.29286-2.9481-0.37096-1.0348 4.0805-1.679 0.46858 0.97618 1.8743 2.3038 3.4948 2.6552 2.4795-1.4252-0.56619-4.3538-1.0543-2.7724-0.62476-0.89809 3.5143-2.6943 0.72239 0.83952 2.4014 1.7181 4.0609 1.679 2.011-2.0109-1.6595-4.0805-1.7376-2.4014-0.83953-0.72237 2.6943-3.4948 0.91761 0.62476 2.7529 1.0348 4.3733 0.56618 1.4252-2.46-2.6748-3.5143-2.2843-1.8743-0.9957-0.46857 1.6986-4.0805 1.0348 0.37095 2.9481 0.29285 4.3538-0.58571 0.74188-2.7528-3.4947-2.6943-2.6943-1.2105-1.0738-0.19524 0.56619-4.3928 1.1128 0.09763 2.9091-0.48809 4.0609-1.6986v-2.8505l-4.0609-1.6986-2.9091-0.46857-1.1128 0.07809-0.56619-4.3733 1.0738-0.19524 2.6943-1.23 3.4947-2.6943-0.74188-2.7333-4.3538-0.60524-2.9481 0.29286-1.0348 0.37095-1.6986-4.0805 0.9957-0.46857 2.2843-1.8743 2.6748-3.4947-1.4252-2.4795-4.3733 0.56619-2.7529 1.0543-0.91761 0.62476-2.6943-3.5143 0.83953-0.72238 1.7376-2.4014 1.6595-4.0609-2.011-2.0109-4.0609 1.6595-2.4014 1.7376-0.72239 0.83952-3.5143-2.6943 0.62476-0.91762 1.0543-2.7528 0.56619-4.3733-2.4795-1.4252-3.4948 2.6748-1.8743 2.2843-0.46858 0.99571-4.0805-1.6986 0.37096-1.0348 0.29286-2.9481-0.60525-4.3538-2.7333-0.7419-2.6943 3.4947-1.23 2.6943-0.19524 1.0738-4.3733-0.56619 0.07803-1.1129-0.46858-2.909-1.6986-4.0609h-2.8505zm1.4252 14.916c4.751 0 9.2828 0.91552 13.452 2.5576l-7.9462 15.404c-1.7493-0.51244-3.5914-0.80047-5.5057-0.80047-3.7958 0-7.3447 1.0972-10.348 2.9676l-11.792-12.71c6.1625-4.6533 13.829-7.419 22.14-7.419zm20.109 6.0133c10.023 6.5674 16.654 17.877 16.654 30.75 0 0.96141-0.0447 1.9075-0.1172 2.8505l-17.05-3.084c-0.07-6.124-2.97-11.566-7.436-15.111l7.946-15.405zm-47.755 6.5014 11.792 12.71c-2.3658 3.2389-3.7485 7.2234-3.7485 11.539 0 1.593 0.18745 3.144 0.54665 4.6271l-15.756 7.2238c-1.2694-3.7223-1.9719-7.7016-1.9719-11.851 0-9.287 3.4491-17.776 9.1371-24.248zm45.9 31.375 17.064 3.1043c-3.6462 12.613-13.872 22.447-26.708 25.537l-2.3233-17.2c5.479-1.8582 9.871-6.0765 11.968-11.441zm-34.186 4.3147c3.3504 4.6538 8.6989 7.7707 14.779 8.1219l2.3233 17.2c-0.38936 0.0122-0.77909 0.0196-1.1714 0.0196-13.489 0-25.285-7.2763-31.687-18.118l15.756-7.2238z" fill="#fff"/>
  </clipPath>
  <clipPath id="af">
   <path d="m81.882 32.767-1.7134 4.0964-0.49236 2.9345 0.09839 1.1226-4.4312 0.57114-0.19695-1.0832-1.221-2.7178-2.7178-3.5253-2.7769 0.74839-0.59083 4.3918 0.29542 2.9738 0.37419 1.0438-4.1161 1.7134-0.47266-1.0044-1.8907-2.3042-3.545-2.6981-2.4815 1.4377 0.57114 4.4115 1.0438 2.7769 0.63022 0.92564-3.5253 2.7178-0.7287-0.84686-2.4224-1.7528-4.1161-1.674-2.0285 2.0285 1.6937 4.0964 1.7331 2.4224 0.84686 0.72869-2.7178 3.545-0.90594-0.63022-2.7966-1.0635-4.3918-0.57114-1.4377 2.5012 2.6784 3.5253 2.3239 1.8907 0.98473 0.47266-1.6937 4.1161-1.0438-0.37419-2.9738-0.29542-4.3918 0.61053-0.74839 2.7572 3.5056 2.7178 2.7178 1.2407 1.1029 0.19694-0.59083 4.4115-1.1029-0.07877-2.9542 0.47266-4.0964 1.7134v2.8754l4.0964 1.7134 2.9542 0.49236 1.1029-0.09848 0.59083 4.4312-1.1029 0.19694-2.7178 1.2211-3.5056 2.7178 0.74839 2.7769 4.3918 0.59083 2.9738-0.29541 1.0438-0.3742 1.6937 4.1161-0.98473 0.47267-2.3239 1.8906-2.6784 3.545 1.4377 2.4815 4.3918-0.57113 2.7966-1.0438 0.90594-0.63022 2.7178 3.5253-0.84686 0.72869-1.7331 2.4224-1.6937 4.1161 2.0285 2.0285 4.1161-1.6937 2.4224-1.7331 0.7287-0.84686 3.5253 2.7178-0.63022 0.90594-1.0438 2.7966-0.57114 4.3918 2.4815 1.4377 3.545-2.6784 1.8907-2.3239 0.47266-0.98471 4.1161 1.6937-0.37419 1.0438-0.29542 2.9738 0.59083 4.3918 2.7769 0.74839 2.7178-3.5056 1.221-2.7178 0.19695-1.1029 4.4312 0.59083-0.09839 1.1029 0.49236 2.9542 1.7134 4.0964h2.8754l1.7134-4.0964 0.47267-2.9542-0.07872-1.1029 4.4115-0.59083 0.19695 1.1029 1.2407 2.7178 2.7178 3.5056 2.7572-0.74839 0.61052-4.3918-0.29542-2.9738-0.3742-1.0438 4.1161-1.6937 0.47268 0.98471 1.8906 2.3239 3.5253 2.6784 2.5012-1.4377-0.57114-4.3918-1.0635-2.7966-0.63021-0.90594 3.545-2.7178 0.72871 0.84686 2.4224 1.7331 4.0964 1.6937 2.0285-2.0285-1.674-4.1161-1.7528-2.4224-0.84687-0.72869 2.7178-3.5253 0.92564 0.63022 2.7769 1.0438 4.4115 0.57113 1.4377-2.4815-2.6981-3.545-2.3042-1.8906-1.0044-0.47267 1.7134-4.1161 1.0438 0.3742 2.9738 0.29541 4.3918-0.59083 0.74836-2.7769-3.5253-2.7178-2.7178-1.2211-1.0832-0.19694 0.57114-4.4312 1.1226 0.09848 2.9345-0.49236 4.0964-1.7134v-2.8754l-4.0964-1.7134-2.9345-0.47266-1.1226 0.07877-0.57114-4.4115 1.0832-0.19694 2.7178-1.2407 3.5253-2.7178-0.74836-2.7572-4.3918-0.61053-2.9738 0.29542-1.0438 0.37419-1.7134-4.1161 1.0044-0.47266 2.3042-1.8907 2.6981-3.5253-1.4377-2.5012-4.4115 0.57114-2.7769 1.0635-0.92564 0.63022-2.7178-3.545 0.84686-0.72869 1.7528-2.4224 1.674-4.0964-2.0285-2.0285-4.0964 1.674-2.4224 1.7528-0.7287 0.84686-3.545-2.7178 0.63022-0.92564 1.0635-2.7769 0.57114-4.4115-2.5012-1.4377-3.5253 2.6981-1.8906 2.3042-0.47268 1.0044-4.1161-1.7134 0.3742-1.0438 0.29542-2.9738-0.61054-4.3918-2.7572-0.74839-2.7178 3.5253-1.2407 2.7178-0.19695 1.0832-4.4115-0.57114 0.07872-1.1226-0.47267-2.9345-1.7134-4.0964h-2.8754zm1.4377 15.047c4.7925 0 9.364 0.92352 13.569 2.58l-8.0156 15.539c-1.764-0.518-3.622-0.808-5.553-0.808-3.829 0-7.4089 1.1067-10.438 2.9935l-11.895-12.821c6.2163-4.6939 13.95-7.4839 22.333-7.4839zm20.285 6.0659c10.111 6.6248 16.799 18.033 16.799 31.019 0 0.96982-0.0451 1.9242-0.11822 2.8754l-17.193-3.1117c-0.0737-6.177-2.999-11.667-7.5036-15.243l8.0156-15.539zm-48.172 6.5582 11.895 12.821c-2.3865 3.2672-3.7813 7.2865-3.7813 11.639 0 1.6069 0.18909 3.1715 0.55143 4.6676l-15.893 7.2869c-1.2805-3.7549-1.9891-7.7689-1.9891-11.954 0-9.3682 3.4792-17.931 9.217-24.46zm46.301 31.649 17.213 3.1314c-3.67 12.722-13.99 22.642-26.935 25.762l-2.3436-17.351c5.5269-1.8744 9.9572-6.1296 12.073-11.541zm-34.485 4.3525c3.3797 4.6944 8.7749 7.8386 14.909 8.1929l2.3436 17.351c-0.39277 0.0123-0.7859 0.0198-1.1817 0.0198-13.607 0-25.506-7.3399-31.964-18.276l15.893-7.2869z" fill="#fff"/>
  </clipPath>
  <filter id="g" color-interpolation-filters="sRGB">
   <feGaussianBlur stdDeviation="1.8975"/>
  </filter>
  <filter id="h" color-interpolation-filters="sRGB">
   <feGaussianBlur stdDeviation="1.44"/>
  </filter>
  <clipPath id="ag">
   <rect rx="3" ry="3" height="68" width="68" y="14" x="84" fill="#fff"/>
  </clipPath>
  <clipPath id="ah">
   <rect rx="3" ry="3" height="68" width="68" y="14" x="-36" fill="#fff"/>
  </clipPath>
  <filter id="ai" height="1.336" width="1.336" color-interpolation-filters="sRGB" y="-.168" x="-.168">
   <feGaussianBlur stdDeviation="5.04"/>
  </filter>
  <linearGradient id="b" y2="7.0165" gradientUnits="userSpaceOnUse" x2="45.448" gradientTransform="matrix(1.0059 0 0 .99417 100 0)" y1="92.54" x1="45.448">
   <stop offset="0"/>
   <stop stop-opacity=".58824" offset="1"/>
  </linearGradient>
  <linearGradient id="y" y2="82.652" xlink:href="#c" gradientUnits="userSpaceOnUse" x2="81.313" y1="85.362" x1="82.312"/>
  <linearGradient id="x" y2="8.5507" gradientUnits="userSpaceOnUse" x2="60.777" gradientTransform="matrix(.68606 0 0 .68376 4.2424 5.7272)" y1="115.28" x1="60.777">
   <stop stop-color="#232323" offset="0"/>
   <stop stop-color="#4b4b4b" offset="1"/>
  </linearGradient>
  <radialGradient id="n" stop-color="#fff" gradientUnits="userSpaceOnUse" cy="90.172" cx="48" gradientTransform="matrix(1.1573 0 0 .99591 -7.551 .19713)" r="42">
   <stop offset="0"/>
   <stop stop-opacity="0" offset="1"/>
  </radialGradient>
  <linearGradient id="w" y2="83.295" gradientUnits="userSpaceOnUse" x2="43.179" gradientTransform="matrix(1.0294,0,0,-1.0294,-1.4118,97.412)" y1="13" x1="43.179">
   <stop stop-color="#b2b2b2" offset="0"/>
   <stop stop-color="#898989" offset="1"/>
  </linearGradient>
  <linearGradient id="v" stop-color="#fff" y2="63.893" gradientUnits="userSpaceOnUse" x2="36.357" y1="6" x1="36.357">
   <stop offset="0"/>
   <stop stop-opacity="0" offset="1"/>
  </linearGradient>
  <linearGradient id="u" y2="5.9877" gradientUnits="userSpaceOnUse" x2="48" y1="90" x1="48">
   <stop stop-color="#656565" offset="0"/>
   <stop stop-color="#dcdcdc" offset="1"/>
  </linearGradient>
  <linearGradient id="t" y2="6" xlink:href="#b" gradientUnits="userSpaceOnUse" x2="32.251" gradientTransform="translate(-.0000031567 1)" y1="90" x1="32.251"/>
  <linearGradient id="s" y2="5.9996" xlink:href="#b" gradientUnits="userSpaceOnUse" x2="32.251" gradientTransform="matrix(1.0238 0 0 1.0119 -1.1429 .929)" y1="90" x1="32.251"/>
  <linearGradient id="r" y2="90.239" xlink:href="#b" gradientUnits="userSpaceOnUse" x2="32.251" gradientTransform="matrix(1.0238,0,0,-1.0119,-1.1429,98.071)" y1="6.1317" x1="32.251"/>
  <linearGradient id="q" y2="84.938" xlink:href="#c" gradientUnits="userSpaceOnUse" x2="82.574" gradientTransform="matrix(2.2107,0,0,2.2107,-47.743,-122.12)" y1="82.615" x1="80.875"/>
  <radialGradient id="m" xlink:href="#d" gradientUnits="userSpaceOnUse" cy="55.979" cx="56.055" gradientTransform="matrix(.6243 -.6243 .3974 .3974 57.19 56.707)" r="52.252"/>
  <linearGradient id="p" y2="130.51" gradientUnits="userSpaceOnUse" x2="113.84" gradientTransform="matrix(.68606 0 0 .68606 75.974 5.5532)" y1="42.24" x1="50.76">
   <stop stop-color="#e8e8e8" offset="0"/>
   <stop stop-color="#828282" offset="1"/>
  </linearGradient>
  <radialGradient id="l" xlink:href="#d" gradientUnits="userSpaceOnUse" cy="1.4733" cx="48.969" gradientTransform="matrix(.48512 .48512 -.27626 .27626 -38.83 -2.8072)" r="83.476"/>
  <linearGradient id="o" y2="19.184" gradientUnits="userSpaceOnUse" x2="49.625" gradientTransform="matrix(.48691 .48333 -.48333 .48691 -38.613 -3.0296)" y1="34.162" x1="73.195">
   <stop stop-color="#656565" offset="0"/>
   <stop stop-color="#dcdcdc" offset="1"/>
  </linearGradient>
 </defs>
 <g fill="url(#r)">
  <path opacity="0.08" d="m12 95.031c-5.5111 0-10.031-4.52-10.031-10.031v-71c0-5.5111 4.5202-10.031 10.031-10.031h72c5.5111 0 10.031 4.5202 10.031 10.031v71c0 5.5111-4.5202 10.031-10.031 10.031h-72z"/>
  <path opacity=".1" d="m12 94.031c-4.9716 0-9.0312-4.0596-9.0312-9.0312v-71c0-4.9718 4.0596-9.0314 9.0312-9.0314h72c4.9716 0 9.0312 4.0596 9.0312 9.0312v71c0 4.9716-4.0596 9.0312-9.0312 9.0312h-72z"/>
  <path opacity=".2" d="m12 93c-4.4091 0-8-3.591-8-8v-71c0-4.4091 3.5909-8 8-8h72c4.4091 0 8 3.5909 8 8v71c0 4.4091-3.5909 8-8 8h-72z"/>
 </g>
 <rect opacity=".3" rx="7" ry="7" height="85" width="86" y="7" x="5" fill="url(#s)"/>
 <rect opacity=".45" rx="6" ry="6" height="84" width="84" y="7" x="6" fill="url(#t)"/>
 <rect fill-rule="evenodd" rx="7.5467" ry="7.5213" height="72" width="72" y="14" x="12" fill="url(#x)"/>
 <g transform="translate(-69,1)" clip-path="url(#ag)">
  <path filter="url(#h)" d="m131.78 29.594-0.125 0.3125-1.1562 2.7812-0.0312 0.0625v0.03125l-0.34375 2v0.0625 0.0625l0.0312 0.3125-2.0938 0.25-0.0312-0.25v-0.0625l-0.04-0.062-0.84-1.844-0.04-0.062-0.03-0.063-1.84-2.375-0.1875-0.28125-0.34375 0.09375-1.875 0.5-0.34375 0.09375-0.0312 0.34375-0.40625 2.9688v0.0625 0.0625l0.21875 2.0312v0.0625 0.0625l0.0937 0.25-1.9062 0.78125-0.125-0.21875-0.03-0.062-0.03-0.062-1.28-1.563-0.0312-0.03125-0.0625-0.0625-2.4062-1.8125-0.28125-0.21875-0.28125 0.15625-1.6875 1-0.28125 0.15625 0.0312 0.34375 0.40625 3v0.0625l0.0312 0.03125 0.6875 1.9062 0.0312 0.0625 0.0312 0.03125 0.15625 0.25-1.6562 1.2812-0.1875-0.21875-0.0312-0.0625-0.0312-0.03125-1.6562-1.1875-0.0625-0.03125-0.0312-0.03125-2.8125-1.125-0.3125-0.125-0.21875 0.21875-1.4062 1.375-0.21875 0.25 0.125 0.3125 1.1562 2.7812 0.0312 0.0625 0.0312 0.03125 1.1562 1.6562 0.0312 0.0625 0.0625 0.03125 0.21875 0.1875-1.2812 1.6562-0.21875-0.15625-0.0625-0.03125-0.0312-0.03125-1.9062-0.71875-0.0625-0.03125h-0.0625l-3-0.375-0.3125-0.0625-0.1875 0.3125-0.96875 1.6875-0.15625 0.28125 0.1875 0.28125 1.8125 2.4062 0.0625 0.03125 0.0312 0.03125 1.5938 1.3125 0.0312 0.03125 0.0625 0.03125 0.25 0.125-0.78125 1.9062-0.28125-0.09375-0.0625-0.03125h-0.0625l-2.0312-0.1875-0.0312-0.03125-0.06 0.034-3 0.407-0.312 0.031-0.0937 0.34375-0.53125 1.875-0.0625 0.3125 0.25 0.21875 2.375 1.8438 0.0625 0.03125 0.0625 0.03125 1.8438 0.84375 0.0625 0.03125h0.0625l0.28125 0.03125-0.28125 2.0938-0.28125-0.03125h-0.0625-0.0625l-2 0.3125-0.0625 0.03125h-0.0625l-2.7812 1.1875-0.3125 0.125v0.3125 1.9688 0.34375l0.3125 0.125 2.7812 1.1562 0.0625 0.03125h0.0625l2 0.34375h0.0625 0.0625l0.28125-0.03125 0.2812 2.0938-0.28125 0.03125h-0.0625l-0.0625 0.03125-1.8438 0.84375-0.0625 0.03125-0.0625 0.03125-2.375 1.8438-0.25 0.21875 0.0625 0.3125 0.53125 1.875 0.0937 0.34375 0.3125 0.03125 3 0.40625h0.0625 0.0312l2.0312-0.1875 0.0625-0.03125h0.0625l0.28125-0.09375 0.78125 1.9062-0.25 0.125-0.06 0.031-0.0312 0.03125-1.5938 1.2812-0.0312 0.0625-0.0625 0.03125c0.086 24.901 119.37 29.12 46.969-45.877l-0.28125-0.15625-0.28125 0.21875-2.375 1.8125-0.0625 0.0625-0.0312 0.03125-1.2812 1.5625-0.0625 0.0625v0.0625l-0.125 0.21875-1.94-0.781 0.0937-0.25 0.0312-0.0625v-0.0625l0.21875-2.0312v-0.0625-0.0625l-0.4375-3-0.0312-0.3125-0.3125-0.09375-1.9062-0.5-0.3125-0.09375-0.1875 0.28125-1.875 2.375-0.0312 0.0625-0.0312 0.0625-0.84375 1.8438v0.0625l-0.0312 0.0625-0.0312 0.25-2.0625-0.25v-0.3125-0.0625-0.03125l-0.3125-2v-0.0625l-0.0312-0.0625-1.1875-2.7812-0.125-0.3125h-0.3125-1.9688-0.34375zm1.3125 11.25c3.0049 0 5.8668 0.5801 8.5312 1.5625l-5.0312 9.7188c-1.1193-0.29204-2.2866-0.5-3.5-0.5-2.5358 0-4.8872 0.75317-6.9375 1.9375l-7.5-8.0312c4.0703-2.9329 9.0402-4.6875 14.438-4.6875zm14 4.4062c8.6331 9.4474 18.187 23.479-0.0912 19.75-0.16937-4.0466-2.034-7.6197-4.9375-10.062l5.0312-9.6875zm-32.938 4.4688 7.4688 8.0312c-1.5375 2.2438-2.5 4.9229-2.5 7.8438 0 0.99261 0.1463 1.9388 0.34375 2.875l-9.9375 4.5625c-0.74755-2.3574-1.1875-4.8347-1.1875-7.4375 0-6.0479 2.207-11.575 5.8125-15.875zm31.75 21.312c16.307 0.66037-4.5252 29.608-7.9375 7.6255 3.5908-1.3384 6.441-4.1145 7.9375-7.625zm-23.875 3.0312c2.3181 3.0227 5.8352 5.0548 9.8438 5.4062 6.5143 18.575-15.07 6.3663-19.75-0.844l9.9062-4.5625z"/>
  <path d="m132.13 28.09-1.1667 2.7894-0.33527 1.9982 0.067 0.76441-3.0174 0.38891-0.13411-0.73759-0.83146-1.8507-1.8507-2.4005-1.8909 0.5096-0.40232 2.9906 0.20116 2.025 0.2548 0.71076-2.8028 1.1667-0.32185-0.68394-1.2874-1.569-2.4139-1.8373-1.6898 0.97898 0.38891 3.004 0.71077 1.8909 0.42914 0.6303-2.4005 1.8507-0.4962-0.57666-1.6495-1.1935-2.8028-1.1399-1.3813 1.3813 1.1533 2.7894 1.1801 1.6495 0.57666 0.4962-1.8507 2.4139-0.61689-0.42914-1.9043-0.72418-2.9906-0.38891-0.97898 1.7032 1.8238 2.4005 1.5825 1.2874 0.67054 0.32186-1.1533 2.8028-0.71076-0.2548-2.025-0.20116-2.9906 0.41573-0.50961 1.8775 2.3871 1.8507 1.8507 0.84487 0.751 0.13411-0.40232 3.004-0.751-0.05364-2.0116 0.32186-2.7894 1.1667v1.958l2.7894 1.1667 2.0116 0.33527 0.751-0.06706 0.40232 3.0174-0.751 0.13411-1.8507 0.83146-2.3871 1.8507 0.50961 1.8909 2.9906 0.40232 2.025-0.20116 0.71076-0.2548 1.1533 2.8028-0.67054 0.32186-1.5825 1.2874-1.8238 2.4139 0.97898 1.6897c1.7459-0.04629 3.2883-0.50004 4.8949-1.0997l0.61689-0.42914 1.8507 2.4005c-2.276 20.717 90.212-0.10621 39.95-44.202l0.42914-0.6303 0.72418-1.8909 0.38891-3.004-1.7032-0.97898-2.4005 1.8373-1.2874 1.569-0.32186 0.68394-2.8028-1.1667 0.25481-0.71076 0.20116-2.025-0.41574-2.9906-1.8775-0.5096-1.8507 2.4005-0.84487 1.8507-0.13411 0.73759-3.004-0.38891 0.0536-0.76441-0.32186-1.9982-1.1667-2.7894h-1.9579zm0.97898 10.246c3.2634 0 6.3763 0.62886 9.24 1.7568l-5.4581 10.581c-1.2016-0.35199-2.4669-0.54984-3.7818-0.54984-2.6073 0-5.045 0.75362-7.1076 2.0384l-8.1-8.7303c4.233-3.1963 9.4992-5.0961 15.208-5.0961zm13.813 4.1305c6.8848 4.5111 11.439 12.279 11.439 21.122 0 0.66039-0.0307 1.3102-0.0805 1.958l-11.707-2.1189c-0.0502-4.2061-2.0422-7.9444-5.1095-10.38 1.8191-3.527 3.6395-7.0542 5.458-10.581zm-32.802 4.4658 8.1 8.7303c-1.625 2.2248-2.5748 4.9617-2.5748 7.9257 0 1.0942 0.12876 2.1596 0.37549 3.1783l-10.822 4.9619c-0.87197-2.5568-1.3545-5.2902-1.3545-8.1403 0-6.3792 2.3691-12.21 6.2762-16.656zm31.528 21.551 11.721 2.1323c-2.5046 8.6635-9.5289 15.419-18.346 17.541l-1.5959-11.815c3.7635-1.2764 6.7803-4.1739 8.2207-7.8586zm-23.482 2.9638c2.3014 3.1966 5.9752 5.3376 10.152 5.5788l1.5959 11.815c-0.26745 0.0084-0.53515 0.01345-0.80464 0.01345-9.2657 0-17.368-4.998-21.766-12.445l10.81-4.963z" stroke="url(#p)" fill="url(#m)"/>
  <g stroke-linejoin="round">
   <path d="m135.83 63.594a2.7341 2.7341 0 0 1 -5.4682 0 2.7341 2.7341 0 1 1 5.4682 0z" stroke="url(#q)" stroke-width="1" fill="#b8b8b8"/>
   <path d="m83.039 84.007a1.2368 1.2368 0 1 1 -2.4735 0 1.2368 1.2368 0 1 1 2.4735 0z" transform="matrix(22.248,0,0,22.248,-1686.8,-1805.4)" filter="url(#i)" stroke="#fff" stroke-width=".089896" fill="none"/>
   <path d="m83.039 84.007a1.2368 1.2368 0 1 1 -2.4735 0 1.2368 1.2368 0 1 1 2.4735 0z" transform="matrix(5.7825,0,0,5.7825,-339.92,-422.18)" stroke="url(#y)" stroke-width=".34587" fill="none"/>
  </g>
  <path opacity=".15" d="m108 40.531-2.625 2-0.0312 0.0625-1.0312 1.25-19.281 39.969c26.467 1.5689 46.504 22.085 40.093 8.5316 6.9976-7.6218 5.3553-37.763-14.231-40.126l-3.52-2.719c-0.48841-0.37501-0.61849-1.141-0.28125-1.6562l0.5625-0.8125 0.96875-2.5 0.4375-3.375-1.0625-0.625zm-4.5938 12.031c10.763 8.4934 17.722 20.998 17.938 32.031 0 1.0074-0.0823 1.9764-0.15625 2.9375-0.0515 0.68272-0.76241 1.2391-1.4375 1.125l-17.06-3.094c-0.57068-0.09556-1.0315-0.64018-1.0312-1.2188-0.0685-5.7468-2.8053-10.826-7-14.156-0.43692-0.35664-0.57473-1.0319-0.3125-1.5312 3.6608-4.1623 4.2817-13.414 9.0558-16.094zm-66.469 21.594 0.09375 0.0625 2.4062 1.0938 0.96875 0.15625c0.61461 0.11372 1.0812 0.75525 1 1.375l-0.59375 4.375c-0.08445 0.60289-0.6731 1.0911-1.2812 1.0625l-0.84375-0.0625h-0.0625l-2.7812 0.46875-3.0938 1.2812v1.25l3.0312 1.2812h0.03125l2.8125 0.46875 0.875-0.0625c0.61815-0.04465 1.2275 0.4486 1.3125 1.0625l0.59375 4.375c0.0831 0.6111-0.36533 1.2476-0.96875 1.375l-1.0312 0.21875h-0.0625l-2.3125 1.0312-2.7188 2.125 0.3125 1.1875 3.4375 0.4375 2.5938-0.25 0.90625-0.34375c0.5977-0.23309 1.3532 0.09279 1.5938 0.6875l1.6875 4.0938c0.24081 0.58267-0.05231 1.3301-0.625 1.5938l-0.8125 0.40625-2.0938 1.6562-2.0625 2.7812 0.59375 1.0312 3.3438-0.4375 2.5312-0.9375 0.8125-0.5625c0.51522-0.33724 1.2812-0.20716 1.6562 0.28125l2.6875 3.5c0.31109 9.162 21.692 28.126-0.3804-8.3138-0.35219-0.58914-0.08901-1.4561 0.53125-1.75l15.75-7.25c0.51943-0.24251 1.2003-0.06186 1.5312 0.40625 1.5444 2.1451 3.6194 3.8434 5.9375 5.1562l7.25-15.064-16.219-4.094c-0.19636 1.0763-0.375 2.1418-0.375 3.2812 0 1.5064 0.1341 2.962 0.46875 4.3438 0.12963 0.55-0.17384 1.1707-0.6875 1.4062l-15.781 7.25c-0.61888 0.26965-1.4305-0.08205-1.657-0.718-1.3134-3.8513-2.0625-7.9887-2.0625-12.281 0-2.7953 0.39441-5.502 0.96875-8.125l-9.2188-2.3125z" clip-path="url(#ab)" transform="matrix(.68689 0 0 .68689 75.955 5.4108)" filter="url(#f)"/>
  <path opacity=".5" d="m82.562 33.938-1.375 3.2812-0.4375 2.5v0.0625l0.09375 1.0625c0.05208 0.56362-0.40615 1.1253-0.96875 1.1875l-4.4062 0.5625c-0.54549 0.05503-1.0968-0.36539-1.188-0.906l-0.125-0.813-0.031-0.063-1.125-2.5-2.188-2.812-1.312 0.344-0.5 3.5625 0.28125 2.625 0.3125 0.90625c0.18628 0.51703-0.08975 1.1555-0.594 1.374l-4.0625 1.7188c-0.51631 0.2324-1.1966-0.01882-1.438-0.531l-0.438-0.938-0.031-0.062-1.625-1.9375-2.875-2.1875-1.1875 0.6875 0.4375 3.5625 0.9375 2.4688 0.5625 0.8125c0.31822 0.46143 0.20067 1.1667-0.25 1.5l-3.5 2.7188c-0.43919 0.33884-1.1401 0.26583-1.5-0.15625l-0.6875-0.78125-0.03125-0.0625-2.1562-1.5312-3.1875-1.3125-1.0312 1 1.375 3.3125 1.4688 2.0625 0.84375 0.71875c0.42208 0.35993 0.49508 1.0608 0.15625 1.5l-2.6875 3.5c-0.33328 0.45067-1.0386 0.56822-1.5 0.25l-0.8125-0.5625-2.5-0.96875-3.5312-0.4375-0.6875 1.2188 2.1562 2.8438 1.0625 0.875 0.0625 0.03125 7.3125 3.5312c1.4174-2.7199 3.1203-5.2814 5.125-7.5625 0.39985-0.46166 1.2077-0.47719 1.625-0.03125l11.812 12.719c0.34507 0.37517 0.37292 1.0019 0.0625 1.4062-0.43719 0.59853-0.76212 1.2543-1.125 1.9062l15.407 7.437 4.157-16.531c-1.1288-0.22338-2.2519-0.4375-3.4375-0.4375-3.5902 0.000002-6.973 1.0438-9.8125 2.8125-0.42672 0.26273-1.0342 0.17989-1.375-0.1875l-11.813-12.719c-0.41734-0.45082-0.33935-1.262 0.15625-1.625 6.3521-4.7964 14.28-7.6562 22.844-7.6562 2.8191 0.000001 5.5479 0.38014 8.1875 0.96875l2.5-9.9062-0.4375 0.5625-1.125 2.5-0.03125 0.0625-0.15625 0.84375c-0.10484 0.52935-0.65085 0.93167-1.1875 0.875l-4.375-0.5625c-0.5626-0.06217-1.0208-0.62388-0.96875-1.1875l0.09375-0.9375-0.46875-2.7812v-0.03125l-1.3438-3.1562h-1.4062zm1.4062 52.25-4.1562 16.531c0.79062 0.16027 1.5706 0.32855 2.375 0.375 0.50313 0.0236 0.9599 0.43889 1.0312 0.9375 14.482 51.527 7.1595 13.405 5.2394-0.7009-0.06795-0.50383 0.26586-1.0324 0.75-1.1875 4.3626-1.4796 7.9336-4.5991 10.156-8.5625l-15.404-7.4z" clip-path="url(#af)" transform="matrix(.68094 0 0 .68094 76.369 5.7774)" filter="url(#g)" fill="#fff"/>
 </g>
 <g transform="translate(50)" clip-path="url(#ah)">
  <path filter="url(#e)" d="m-35.567 50.849 0.125 0.3125 0.34375-0.0312h2.125 0.34375l0.125-0.3125 1.25-3.0312 0.0312-0.0625v-0.0625l0.34375-2.1875 0.0312-0.0625-0.0312-0.0625-0.0312-0.34375 2.3438-0.3125 0.0625 0.34375 0.0312 0.0625 0.0312 0.0625 0.90625 2 0.0312 0.0312 0.0312 0.0625 2.0312 2.625 0.1875 0.25 0.3125-0.0937 2.0625-0.53125 0.34375-0.0937 0.0312-0.34375 0.4375-3.2812v-0.0625-0.0625l-0.25-2.1875v-0.0625l-0.0312-0.0625-0.125-0.34375 2.1875-0.875 0.15625 0.3125 0.0312 0.0312 0.0312 0.0625 1.4375 1.7188 0.03125 0.0312 0.03125 0.0312 2.625 1.9688 0.28125 0.21875 0.28125-0.15625 1.8438-1.0938 0.28125-0.15625-0.03125-0.34375-0.4375-3.25v-0.0625l-0.03125-0.0625-0.78125-2.0625-0.03125-0.0625-0.03125-0.0312-0.1875-0.3125 1.875-1.4062 0.21875 0.25 0.03125 0.0625 0.0625 0.0312 1.7812 1.2812 0.0625 0.0312h0.0625l3.0312 1.25 0.3125 0.125 0.25-0.21875 1.5-1.5312 0.25-0.21875-0.15625-0.3125-1.25-3.0625-0.03125-0.0312-0.03125-0.0625-1.2812-1.7812-0.0625-0.0625-0.03125-0.0312-0.28125-0.21875 1.4375-1.875 0.28125 0.1875 0.0625 0.03125h0.0625l2.0625 0.78125 0.03125 0.0312h0.0625l3.2812 0.40625 0.34375 0.0625 0.15625-0.3125 1.0625-1.8438 0.15625-0.28125-0.1875-0.28125-2-2.5938-0.0315-0.058-0.0625-0.031-1.7188-1.407-0.0312-0.031-0.0625-0.031-0.3125-0.156 0.875-2.156 0.34375 0.09375 0.0625 0.03125h0.03125l2.2188 0.21875h0.0625 0.03125l3.2812-0.4375 0.3438-0.032 0.0625-0.343 0.5625-2.063 0.0938-0.344-0.2813-0.187-2.625-2-0.03125-0.0625h-0.0625l-2-0.90625-0.0625-0.03125h-0.0625l-0.3438-0.063 0.2812-2.343 0.3438 0.031h0.0625 0.0625l2.1875-0.375h0.0625l0.0625-0.03125c-176.15 1.725-46.945 13.067-37.248 36.245zm18.598-21.849c-9.4252 9.4949-24.786 9.5193-34.281 0.09375-41.065-59.471 75.855-44.612 34.281-0.09375z"/>
  <path d="m-36.369 45.597 1.2696 3.0429 2.1374-0.02341 1.2618-3.0367 0.34118-2.1998-0.06366-0.81817 3.273-0.43656 0.15462 0.81808 0.91698 1.9978 2.0259 2.6152 2.0597-0.55336 0.42753-3.2914-0.23553-2.1973-0.26057-0.77221 3.0425-1.2695 0.35142 0.74155 1.4162 1.7079 2.63 1.9763 1.8456-1.068-0.43704-3.273-0.79641-2.0588-0.47211-0.68034 2.6302-2.0108 0.5335 0.61948 1.8084 1.2818 3.0518 1.247 1.5104-1.5216-1.2693-3.0422-1.295-1.7991-0.62378-0.52852 1.9915-2.6451 0.68371 0.46718 2.0647 0.78071 3.2761 0.4124 1.0544-1.8534-1.9956-2.6153-1.7183-1.4036-0.74412-0.34594 1.247-3.0518 0.77411 0.25487 2.199 0.21932l3.2718-0.437 0.5533-2.079-2.6301-2.007-2.0045-0.902-0.8192-0.149 0.4124-3.276c-71.961-59.348-34.946 32.609-34.851 33.163zm19.6-53.225c9.687 9.6158 9.7599 25.287 0.14402 34.974-9.6158 9.687-25.287 9.7298-34.974 0.11394-9.687-9.6158-9.7448-25.272-0.12893-34.959 12.061-7.9445 27.15-7.4232 34.959-0.12893z" stroke="url(#o)" fill="url(#l)"/>
  <path opacity=".2" d="m17.875-29.219c12.794 0 24.065 6.3904 30.969 16.094l6.531-4.219-2.719-3.531c3.3611-40.032-292.25 12.765-34.781-8.344zm30.969 60.031c-6.904 9.704-18.175 16.094-30.969 16.094 36.82 8.5084 15.136 7.8873 29.749-3.2806 0.84683-0.64814 2.0519-0.5249 2.75 0.28125l0.5625 0.65625 2.3438 1.6562 2.9375 1.2188 0.28125-0.28125-1.2188-3-1.5938-2.2188-0.75-0.625c-0.80615-0.6981-0.92939-1.9032-0.28125-2.75l2.719-3.531-6.531-4.219z" transform="matrix(.4869 .48333 -.48333 .4869 -38.613 -3.0295)" filter="url(#j)"/>
  <path opacity=".5" d="m59.5-9.5625-6.5625 3.25c2.021 4.6572 3.2188 9.7664 3.2188 15.156-0.001 5.3905-1.199 10.5-3.219 15.156l6.5625 3.25 1.3438-3.2188c0.44626-1.0909 1.6692-1.6405 2.7812-1.25l0.96875 0.34375 2.5312 0.25 3.0938-0.4375 0.0625-0.15625-2.4062-1.8125-2.5-1.1562-0.9375-0.15625c-1.1692-0.21911-1.956-1.3234-1.7812-2.5l0.655-4.781c0.159-1.1658 1.2025-2.0033 2.375-1.9062l0.9375 0.0625 2.7188-0.4375 2.75-1.1562v-0.1875l-2.75-1.1562-2.7188-0.4375-0.9375 0.0625c-1.172 0.0967-2.215-0.7408-2.375-1.9066l-0.656-4.7812c-0.17472-1.1766 0.61206-2.2809 1.7812-2.5l0.9375-0.15625 2.5-1.1562 2.4062-1.8125-0.0625-0.15625-3.0938-0.4375-2.5312 0.25-0.96875 0.34375c-1.112 0.3905-2.335-0.15915-2.7812-1.25l-1.343-3.2188z" transform="matrix(.4869 .48333 -.48333 .4869 -38.613 -3.0295)" filter="url(#k)" fill="#fff"/>
 </g>
 <path d="m17 12c-2.7354 0-5 2.2646-5 5v62c0 2.7354 2.2646 5 5 5h62c2.7354 0 5-2.2646 5-5v-62c0-2.7354-2.2646-5-5-5h-62zm0 4h62c0.58859 0 1 0.41141 1 1v62c0 0.58859-0.41141 1-1 1h-62c-0.58859 0-1-0.41141-1-1v-62c0-0.58859 0.41141-1 1-1z" clip-path="url(#z)" filter="url(#ai)"/>
 <path opacity=".15" d="m17 14c-1.662 0-3 1.338-3 3v62c0 1.662 1.338 3 3 3h62c1.662 0 3-1.338 3-3v-62c0-1.662-1.338-3-3-3h-62zm0 1.7812h62c0.7036 0 1.2188 0.51515 1.2188 1.2188v62c0 0.7036-0.51515 1.2188-1.2188 1.2188h-62c-0.7036 0-1.2188-0.51515-1.2188-1.2188v-62c0-0.7036 0.51515-1.2188 1.2188-1.2188z"/>
 <path opacity=".2" d="m17 14c-1.662 0-3 1.338-3 3v62c0 1.662 1.338 3 3 3h62c1.662 0 3-1.338 3-3v-62c0-1.662-1.338-3-3-3h-62zm0 1h62c1.1198 0 2 0.88015 2 2v62c0 1.1198-0.88015 2-2 2h-62c-1.1198 0-2-0.88015-2-2v-62c0-1.1198 0.88015-2 2-2z"/>
 <path d="m12 6c-3.324 0-6 2.676-6 6v72c0 3.324 2.676 6 6 6h72c3.324 0 6-2.676 6-6v-72c0-3.324-2.676-6-6-6h-72zm5 7h62c2.216 0 4 1.784 4 4v62c0.000001 2.216-1.784 4-4 4h-62c-2.216 0.000001-4-1.784-4-4v-62c0-2.216 1.784-4 4-4z" fill="url(#u)"/>
 <path opacity=".5" d="m12 6c-3.324 0-6 2.676-6 6v72c0 0.33472 0.04135 0.6507 0.09375 0.96875 0.0487 0.2956 0.09704 0.59692 0.1875 0.875 0.00988 0.03038 0.020892 0.0636 0.03125 0.09375 0.098865 0.28777 0.23488 0.54745 0.375 0.8125 0.14459 0.27351 0.31562 0.53562 0.5 0.78125 0.18438 0.24564 0.37378 0.47347 0.59375 0.6875 0.43995 0.42806 0.94291 0.81453 1.5 1.0938 0.27854 0.13961 0.57347 0.24695 0.875 0.34375-0.2562-0.10022-0.48671-0.23627-0.71875-0.375-0.00741-0.0044-0.023866 0.0045-0.03125 0-0.0319-0.019-0.0622-0.042-0.0937-0.062-0.1204-0.077-0.231-0.164-0.3437-0.25-0.1062-0.081-0.2133-0.161-0.3126-0.25-0.1778-0.162-0.3473-0.346-0.4999-0.531-0.1075-0.131-0.2183-0.266-0.3124-0.407-0.0251-0.038-0.0385-0.086-0.0626-0.125-0.0647-0.103-0.1302-0.204-0.1874-0.312-0.1011-0.195-0.2057-0.416-0.2813-0.625-0.008-0.022-0.0236-0.041-0.0313-0.063-0.0318-0.092-0.0358-0.187-0.0624-0.281-0.0304-0.107-0.0704-0.203-0.0938-0.313-0.0729-0.341-0.125-0.698-0.125-1.062v-72c0-2.782 2.2182-5 5-5h72c2.7818 0 5 2.2182 5 5v72c0 0.3643-0.05212 0.72099-0.125 1.0625-0.04415 0.20689-0.08838 0.39766-0.15625 0.59375-0.0077 0.02195-0.0233 0.04069-0.03125 0.0625-0.06274 0.17374-0.13838 0.36745-0.21875 0.53125-0.04158 0.0828-0.07904 0.16995-0.125 0.25-0.0546 0.09721-0.12677 0.18835-0.1875 0.28125-0.09411 0.14096-0.20492 0.276-0.3125 0.40625-0.14317 0.17445-0.30314 0.347-0.46875 0.5-0.01117 0.0102-0.01998 0.02115-0.03125 0.03125-0.13839 0.12556-0.28509 0.23444-0.4375 0.34375-0.10257 0.07315-0.20432 0.15336-0.3125 0.21875-0.0074 0.0045-0.02384-0.0044-0.03125 0-0.23204 0.13873-0.46255 0.27478-0.71875 0.375 0.30153-0.0968 0.59646-0.20414 0.875-0.34375 0.55709-0.27922 1.0601-0.66569 1.5-1.0938 0.21997-0.21403 0.40937-0.44186 0.59375-0.6875s0.35541-0.50774 0.5-0.78125c0.14012-0.26505 0.27614-0.52473 0.375-0.8125 0.01041-0.03078 0.02133-0.06274 0.03125-0.09375 0.09046-0.27808 0.1388-0.5794 0.1875-0.875 0.053-0.318 0.094-0.634 0.094-0.969v-72c0-3.324-2.676-6-6-6h-72z" fill="url(#v)"/>
 <path d="m17 84c-2.7527 0-5-2.2473-5-5v-62c0-2.7527 2.2473-5 5-5h62c2.7527 0 5 2.2473 5 5v62c0 2.7527-2.2473 5-5 5h-62zm0-2h62c1.6793 0 3-1.3207 3-3v-62c0.000001-1.6793-1.3207-3-3-3h-62c-1.6793 0-3 1.3207-3 3v62c0 1.6793 1.3207 3 3 3z" fill="url(#w)"/>
 <path opacity=".2" d="m12 90c-3.324 0-6-2.676-6-6v-72c0-0.33472 0.04135-0.6507 0.09375-0.96875 0.0487-0.2956 0.09704-0.59692 0.1875-0.875 0.0099-0.03 0.0209-0.063 0.0313-0.094 0.0989-0.2873 0.2349-0.547 0.375-0.812 0.1446-0.2735 0.3156-0.5356 0.5-0.7812 0.1844-0.2457 0.3738-0.4735 0.5937-0.6876 0.44-0.428 0.943-0.8145 1.5-1.0937 0.2786-0.1396 0.5735-0.2469 0.8748-0.3437-0.256 0.1002-0.4865 0.2362-0.7185 0.375-0.00741 0.0044-0.023866-0.0045-0.03125 0-0.031933 0.0193-0.062293 0.04251-0.09375 0.0625-0.1204 0.0767-0.23102 0.16351-0.34375 0.25-0.10617 0.0808-0.21328 0.16111-0.3125 0.25-0.1779 0.1614-0.3474 0.3453-0.5 0.5312-0.1075 0.1303-0.2183 0.2653-0.3124 0.4063-0.0251 0.0383-0.0385 0.0858-0.0626 0.125-0.0647 0.103-0.1302 0.2045-0.1874 0.3124-0.1011 0.1948-0.2057 0.4158-0.2813 0.625-0.008 0.0219-0.0236 0.0406-0.0313 0.0626-0.0318 0.0919-0.0358 0.1868-0.0624 0.2812-0.0304 0.1066-0.0704 0.203-0.0938 0.3125-0.0729 0.3415-0.125 0.6985-0.125 1.0625v72c0 2.7818 2.2182 5 5 5h72c2.7818 0 5-2.2182 5-5v-72c0-0.364-0.052-0.721-0.125-1.0625-0.044-0.2069-0.088-0.3977-0.156-0.5937-0.008-0.022-0.024-0.0407-0.031-0.0626-0.063-0.1737-0.139-0.3674-0.219-0.5312-0.042-0.0828-0.079-0.17-0.125-0.25-0.055-0.0972-0.127-0.1884-0.188-0.2812-0.094-0.141-0.205-0.276-0.312-0.4063-0.143-0.1745-0.303-0.347-0.469-0.5-0.011-0.0102-0.02-0.0211-0.031-0.0313-0.139-0.1255-0.285-0.2344-0.438-0.3437-0.102-0.0731-0.204-0.1534-0.312-0.2187-0.0074-0.0045-0.02384 0.0044-0.03125 0-0.23204-0.13873-0.46255-0.27478-0.71875-0.375 0.30153 0.0968 0.59646 0.20414 0.875 0.34375 0.55709 0.27922 1.0601 0.66569 1.5 1.0938 0.21997 0.21403 0.40937 0.44186 0.59375 0.6875s0.35541 0.50774 0.5 0.78125c0.14012 0.26505 0.27614 0.52473 0.375 0.8125 0.01041 0.03078 0.02133 0.06274 0.03125 0.09375 0.09046 0.27808 0.1388 0.5794 0.1875 0.875 0.053 0.318 0.094 0.634 0.094 0.969v72c0 3.324-2.676 6-6 6h-72z" fill="url(#n)"/>
</svg>
