<?xml version="1.0" encoding="UTF-8" standalone="no"?>
<!-- Created with Inkscape (http://www.inkscape.org/) -->

<svg
   xmlns:i="http://ns.adobe.com/AdobeIllustrator/10.0/"
   xmlns:dc="http://purl.org/dc/elements/1.1/"
   xmlns:cc="http://creativecommons.org/ns#"
   xmlns:rdf="http://www.w3.org/1999/02/22-rdf-syntax-ns#"
   xmlns:svg="http://www.w3.org/2000/svg"
   xmlns="http://www.w3.org/2000/svg"
   xmlns:xlink="http://www.w3.org/1999/xlink"
   xmlns:sodipodi="http://sodipodi.sourceforge.net/DTD/sodipodi-0.dtd"
   xmlns:inkscape="http://www.inkscape.org/namespaces/inkscape"
   width="128"
   height="128"
   id="svg2980"
   version="1.1"
   inkscape:version="0.48.4 r9939"
   sodipodi:docname="hicolor_categories_scalable_cs-debian.svg">
  <defs
     id="defs2982">
    <inkscape:perspective
       sodipodi:type="inkscape:persp3d"
       inkscape:vp_x="0 : 526.18109 : 1"
       inkscape:vp_y="0 : 1000 : 0"
       inkscape:vp_z="744.09448 : 526.18109 : 1"
       inkscape:persp3d-origin="372.04724 : 350.78739 : 1"
       id="perspective2988" />
    <inkscape:perspective
       id="perspective2955"
       inkscape:persp3d-origin="0.5 : 0.33333333 : 1"
       inkscape:vp_z="1 : 0.5 : 1"
       inkscape:vp_y="0 : 1000 : 0"
       inkscape:vp_x="0 : 0.5 : 1"
       sodipodi:type="inkscape:persp3d" />
    <linearGradient
       id="linearGradient3431">
      <stop
         id="stop3433"
         offset="0"
         style="stop-color:#3d3d3d;stop-opacity:1;" />
      <stop
         id="stop3435"
         offset="1"
         style="stop-color:#000000;stop-opacity:0.11400651;" />
    </linearGradient>
    <linearGradient
       id="linearGradient3312">
      <stop
         style="stop-color:#c7f994;stop-opacity:1;"
         offset="0"
         id="stop3314" />
      <stop
         style="stop-color:#87cf3e;stop-opacity:1;"
         offset="1"
         id="stop3316" />
    </linearGradient>
    <linearGradient
       inkscape:collect="always"
       xlink:href="#linearGradient3312"
       id="linearGradient3048"
       gradientUnits="userSpaceOnUse"
       gradientTransform="matrix(2.7085493,0,0,2.7085493,543.08426,-420.26637)"
       x1="61.42857"
       y1="362.14285"
       x2="116.42857"
       y2="408.57144" />
    <linearGradient
       inkscape:collect="always"
       xlink:href="#linearGradient3431"
       id="linearGradient3050"
       gradientUnits="userSpaceOnUse"
       gradientTransform="translate(0,80)"
       spreadMethod="pad"
       x1="70.491508"
       y1="416.38858"
       x2="113.64215"
       y2="375.87961" />
    <linearGradient
       inkscape:collect="always"
       xlink:href="#linearGradient3737-1"
       id="linearGradient3857-6"
       x1="64.321426"
       y1="55.310268"
       x2="64.321426"
       y2="84.889679"
       gradientUnits="userSpaceOnUse"
       gradientTransform="translate(-2,0)" />
    <linearGradient
       inkscape:collect="always"
       id="linearGradient3737-1">
      <stop
         style="stop-color:#ffffff;stop-opacity:1;"
         offset="0"
         id="stop3739-5" />
      <stop
         style="stop-color:#ffffff;stop-opacity:0;"
         offset="1"
         id="stop3741-9" />
    </linearGradient>
    <linearGradient
       inkscape:collect="always"
       xlink:href="#linearGradient3700-6"
       id="linearGradient3844"
       x1="51.42857"
       y1="72.785713"
       x2="90.714287"
       y2="72.785713"
       gradientUnits="userSpaceOnUse" />
    <linearGradient
       id="linearGradient3700-6">
      <stop
         style="stop-color:#d70751;stop-opacity:1;"
         offset="0"
         id="stop3702-1" />
      <stop
         style="stop-color:#e7466b;stop-opacity:1;"
         offset="1"
         id="stop3704-1" />
    </linearGradient>
    <clipPath
       clipPathUnits="userSpaceOnUse"
       id="clipPath3871">
      <path
         inkscape:connector-curvature="0"
         id="path3873"
         d="M 0,95.999997 0,156 l 96.000001,0 0,-60.000003 -96.000001,0 z M 68,116 c 9.941125,0 18,8.05888 18,18 0,9.94112 -8.058875,18 -18,18 -9.941125,0 -18,-8.05888 -18,-18 0,-9.94112 8.058875,-18 18,-18 z"
         style="fill:#ffffff;fill-opacity:1;stroke:none" />
    </clipPath>
    <linearGradient
       inkscape:collect="always"
       xlink:href="#linearGradient3737-1-7"
       id="linearGradient3857-6-6"
       x1="64.321426"
       y1="55.310268"
       x2="64.321426"
       y2="84.889679"
       gradientUnits="userSpaceOnUse"
       gradientTransform="translate(-2,0)" />
    <linearGradient
       inkscape:collect="always"
       id="linearGradient3737-1-7">
      <stop
         style="stop-color:#ffffff;stop-opacity:1;"
         offset="0"
         id="stop3739-5-8" />
      <stop
         style="stop-color:#ffffff;stop-opacity:0;"
         offset="1"
         id="stop3741-9-3" />
    </linearGradient>
    <linearGradient
       id="linearGradient3700-6-5">
      <stop
         style="stop-color:#d70751;stop-opacity:1;"
         offset="0"
         id="stop3702-1-1" />
      <stop
         style="stop-color:#e7466b;stop-opacity:1;"
         offset="1"
         id="stop3704-1-9" />
    </linearGradient>
    <clipPath
       clipPathUnits="userSpaceOnUse"
       id="clipPath3871-4">
      <path
         inkscape:connector-curvature="0"
         id="path3873-3"
         d="M 0,95.999997 0,156 l 96.000001,0 0,-60.000003 -96.000001,0 z M 68,116 c 9.941125,0 18,8.05888 18,18 0,9.94112 -8.058875,18 -18,18 -9.941125,0 -18,-8.05888 -18,-18 0,-9.94112 8.058875,-18 18,-18 z"
         style="fill:#ffffff;fill-opacity:1;stroke:none" />
    </clipPath>
    <linearGradient
       y2="375.87961"
       x2="113.64215"
       y1="416.38858"
       x1="70.491508"
       spreadMethod="pad"
       gradientTransform="translate(0,80)"
       gradientUnits="userSpaceOnUse"
       id="linearGradient3050-0"
       xlink:href="#linearGradient3431-4"
       inkscape:collect="always" />
    <linearGradient
       y2="408.57144"
       x2="116.42857"
       y1="362.14285"
       x1="61.42857"
       gradientTransform="matrix(2.7085493,0,0,2.7085493,543.08426,-420.26637)"
       gradientUnits="userSpaceOnUse"
       id="linearGradient3048-3"
       xlink:href="#linearGradient3312-3"
       inkscape:collect="always" />
    <linearGradient
       id="linearGradient3312-3">
      <stop
         id="stop3314-7"
         offset="0"
         style="stop-color:#c7f994;stop-opacity:1;" />
      <stop
         id="stop3316-7"
         offset="1"
         style="stop-color:#87cf3e;stop-opacity:1;" />
    </linearGradient>
    <linearGradient
       id="linearGradient3431-4">
      <stop
         style="stop-color:#3d3d3d;stop-opacity:1;"
         offset="0"
         id="stop3433-4" />
      <stop
         style="stop-color:#000000;stop-opacity:0.11400651;"
         offset="1"
         id="stop3435-8" />
    </linearGradient>
    <inkscape:perspective
       sodipodi:type="inkscape:persp3d"
       inkscape:vp_x="0 : 0.5 : 1"
       inkscape:vp_y="0 : 1000 : 0"
       inkscape:vp_z="1 : 0.5 : 1"
       inkscape:persp3d-origin="0.5 : 0.33333333 : 1"
       id="perspective2955-6" />
    <inkscape:perspective
       id="perspective2988-3"
       inkscape:persp3d-origin="372.04724 : 350.78739 : 1"
       inkscape:vp_z="744.09448 : 526.18109 : 1"
       inkscape:vp_y="0 : 1000 : 0"
       inkscape:vp_x="0 : 526.18109 : 1"
       sodipodi:type="inkscape:persp3d" />
    <linearGradient
       id="linearGradient3312-3-0">
      <stop
         id="stop3314-7-7"
         offset="0"
         style="stop-color:#c7f994;stop-opacity:1;" />
      <stop
         id="stop3316-7-3"
         offset="1"
         style="stop-color:#87cf3e;stop-opacity:1;" />
    </linearGradient>
    <linearGradient
       y2="408.57144"
       x2="116.42857"
       y1="362.14285"
       x1="61.42857"
       gradientTransform="matrix(1.0950327,0,0,1.0950327,-57.585072,-385.20208)"
       gradientUnits="userSpaceOnUse"
       id="linearGradient3120"
       xlink:href="#linearGradient3312-3-0"
       inkscape:collect="always" />
  </defs>
  <sodipodi:namedview
     id="base"
     pagecolor="#ffffff"
     bordercolor="#666666"
     borderopacity="1.0"
     inkscape:pageopacity="0.0"
     inkscape:pageshadow="2"
     inkscape:zoom="1.8101934"
     inkscape:cx="220.62298"
     inkscape:cy="-158.01474"
     inkscape:document-units="px"
     inkscape:current-layer="g3029"
     showgrid="false"
     showborder="true"
     inkscape:showpageshadow="false"
     inkscape:window-width="3840"
     inkscape:window-height="2092"
     inkscape:window-x="0"
     inkscape:window-y="0"
     inkscape:window-maximized="1"
     fit-margin-top="0"
     fit-margin-left="0"
     fit-margin-right="0"
     fit-margin-bottom="0" />
  <metadata
     id="metadata2985">
    <rdf:RDF>
      <cc:Work
         rdf:about="">
        <dc:format>image/svg+xml</dc:format>
        <dc:type
           rdf:resource="http://purl.org/dc/dcmitype/StillImage" />
        <dc:title />
      </cc:Work>
    </rdf:RDF>
  </metadata>
  <g
     inkscape:label="Layer 1"
     inkscape:groupmode="layer"
     id="layer1"
     transform="translate(-4.34627,-702.59101)">
    <g
       id="g3029">
      <path
         transform="matrix(3.165,0,0,3.165,-147.57373,336.85101)"
         d="m 68,116 c -11.060103,0 -20,8.93989 -20,20 0,11.06011 8.939897,20 20,20 11.060103,0 20,-8.93989 20,-20 0,-11.06011 -8.939897,-20 -20,-20 z"
         id="path3950"
         style="opacity:0.05;fill:#000000;fill-opacity:1;stroke:none;display:inline"
         inkscape:original="M 68 117 C 57.484472 117 49 125.48447 49 136 C 49 146.51553 57.484472 155 68 155 C 78.515528 155 87 146.51553 87 136 C 87 125.48447 78.515528 117 68 117 z "
         inkscape:radius="1.0124075"
         sodipodi:type="inkscape:offset" />
      <path
         transform="matrix(3.165,0,0,3.165,-147.57373,336.85101)"
         d="m 68,117 c -10.515528,0 -19,8.48447 -19,19 0,10.51553 8.484472,19 19,19 10.515528,0 19,-8.48447 19,-19 0,-10.51553 -8.484472,-19 -19,-19 z"
         id="path3946"
         style="opacity:0.15;fill:#000000;fill-opacity:1;stroke:none;display:inline"
         inkscape:original="M 68 118 C 58.028 118 50 126.028 50 136 C 50 145.972 58.028 154 68 154 C 77.972 154 86 145.972 86 136 C 86 126.028 77.972 118 68 118 z "
         inkscape:radius="1.0127175"
         sodipodi:type="inkscape:offset" />
      <rect
         transform="matrix(3.165,0,0,3.165,-147.57373,336.85101)"
         clip-path="url(#clipPath3871-4)"
         ry="18"
         rx="18"
         y="118"
         x="50"
         height="36"
         width="36"
         id="rect3859"
         style="opacity:0.31000001;fill:#000000;fill-opacity:1;stroke:none;display:inline" />
      <path
         transform="matrix(0,-2.900291,2.900291,0,-143.45342,970.25378)"
         d="m 90.714283,72.785713 a 19.642857,19.642857 0 1 1 -39.285713,0 19.642857,19.642857 0 1 1 39.285713,0 z"
         sodipodi:ry="19.642857"
         sodipodi:rx="19.642857"
         sodipodi:cy="72.785713"
         sodipodi:cx="71.071426"
         id="path3836"
         style="fill:#e6e6e6;fill-opacity:1;stroke:none;display:inline;color:#000000;fill-rule:evenodd;stroke-width:0.13939550000000001;stroke-linecap:butt;stroke-linejoin:miter;stroke-miterlimit:4;stroke-opacity:1;stroke-dasharray:none;stroke-dashoffset:0;marker:none;visibility:visible;overflow:visible;enable-background:accumulate"
         sodipodi:type="arc" />
      <path
         transform="matrix(3.165,0,0,3.165,-147.57373,529.916)"
         d="m 67.46875,60.375 c -0.680072,0.08338 -1.779271,0.07031 -2.875,0.6875 L 64.5625,61 c -1.551435,0.471718 -2.462829,1.415017 -3.15625,1.5625 a 1.1295122,1.1295122 0 0 0 -0.4375,0.21875 c -0.881255,0.691536 -1.789661,1.534073 -2.53125,2.53125 l 0,0.03125 c -0.03037,0.02361 -0.034,0.03833 -0.0625,0.0625 -0.0541,0.07473 -0.135505,0.110652 -0.1875,0.1875 l 0.03125,0.03125 c -0.403031,0.440967 -0.709759,0.93644 -0.84375,1.25 -0.167879,0.392864 -0.254199,0.502362 -0.25,0.5 a 1.1295122,1.1295122 0 0 0 -0.40625,0.40625 C 55.922854,69.190603 55.404058,70.745045 55.0625,72.25 a 1.1295122,1.1295122 0 0 0 0,0.59375 c 0.132135,0.431027 -0.02719,1.315655 0.0625,2.46875 -2.05e-4,0.041 3e-5,0.08391 0,0.125 -0.0015,2.095729 0.248209,4.299439 1.09375,6.375 l -0.03125,0 c 0.005,0.01295 0.02618,0.01831 0.03125,0.03125 1.700746,4.343544 5.325192,8.176351 9.9375,9.40625 0.0094,0.0025 0.02185,-0.0025 0.03125,0 1.211301,0.333886 2.551975,0.508145 3.875,0.3125 A 1.1295122,1.1295122 0 0 0 70.28125,91.5 c 1.903002,-0.65834 1.758837,-3.569894 -0.1875,-4.0625 -0.712193,-0.180287 -1.356003,-0.264072 -1.8125,-0.40625 -0.456497,-0.142178 -0.673529,-0.267963 -0.875,-0.59375 a 1.1295122,1.1295122 0 0 0 -0.3125,-0.34375 C 66.702522,85.820832 66.365453,85.713757 66.1875,85.625 66.009547,85.536243 65.981864,85.506182 65.90625,85.40625 a 1.1295122,1.1295122 0 0 0 -0.53125,-0.375 c -0.02843,-0.03674 -0.01522,-0.02986 -0.0625,-0.09375 -0.151067,-0.204143 -0.519399,-0.487496 -0.96875,-0.71875 -0.292302,-0.617034 -0.640794,-1.096428 -1.03125,-1.4375 -0.08271,-0.254273 -0.09955,-0.606699 -0.1875,-0.75 -0.182815,-0.297868 -0.255355,-0.403025 -0.25,-0.375 l -0.03125,0 c 0.002,-1.277675 -0.621213,-2.427308 -1.6875,-3.09375 -0.0013,-0.0057 0.0013,-0.02526 0,-0.03125 -0.03851,-0.182897 -0.0499,-0.531246 -0.125,-0.9375 A 1.1295122,1.1295122 0 0 0 61,77.53125 c -0.209721,-0.845884 -0.38186,-1.442967 -0.3125,-1.96875 0.0024,-0.01447 -0.0023,-0.01686 0,-0.03125 0.210416,-1.311665 0.110703,-2.279702 0.4375,-2.78125 a 1.1295122,1.1295122 0 0 0 0.03125,-0.0625 c 0.356804,-0.621838 0.525412,-1.191283 0.6875,-1.59375 0.162088,-0.402467 0.272544,-0.615382 0.5,-0.78125 a 1.1295122,1.1295122 0 0 0 0.1875,-0.15625 c 0.530359,-0.588127 0.903635,-0.750097 1.65625,-1 a 1.1295122,1.1295122 0 0 0 0.71875,-0.6875 c 0.05686,-0.160813 -0.09139,-0.03753 0.21875,-0.125 0.31014,-0.08747 1.013252,-0.140864 1.6875,-0.6875 A 1.1295122,1.1295122 0 0 0 67,67.46875 c 0.01745,-0.02332 0.08324,-0.07377 0.46875,-0.125 0.318233,-0.04229 0.812859,-0.09561 1.34375,-0.21875 1.317557,-0.05536 2.563524,0.419802 3.4375,1.25 -2.164029,-1.121888 -4.982837,-0.933491 -6.71875,1.03125 a 1.1295122,1.1295122 0 0 0 -0.0625,0.0625 c -0.59451,0.785039 -1.453622,1.64727 -1.9375,2.96875 -0.0088,0.024 -0.02273,0.03819 -0.03125,0.0625 l 0.03125,0 c -0.63513,1.537911 -0.366461,3.115374 0,4.375 A 1.1295122,1.1295122 0 0 0 63.59375,77 c 0.02215,0.05228 0.01872,0.406998 0.0625,1 0.03943,0.533964 0.323487,1.32394 0.96875,1.875 l -0.03125,0.03125 c 0.05987,0.06479 0.156704,0.09283 0.21875,0.15625 1.639507,1.675885 4.017552,2.869383 6.53125,2.59375 0.04207,-0.0046 0.08286,0.0054 0.125,0 l 0,-0.03125 c 0.889597,-0.08652 1.54136,-0.619506 1.84375,-0.90625 0.318456,-0.301979 0.266446,-0.313561 0.4375,-0.3125 A 1.1295122,1.1295122 0 0 0 74.0625,81.375 c 0.774147,-0.227086 1.332896,-0.647186 1.78125,-0.96875 0.448354,-0.321564 0.808115,-0.53774 1.09375,-0.625 a 1.1295122,1.1295122 0 0 0 0.65625,-0.5625 c 0.169272,-0.323435 0.826177,-0.754065 1.25,-1.8125 a 1.1295122,1.1295122 0 0 0 0.0625,-0.375 c 0.01089,-0.0138 0.03447,-0.05047 0.125,-0.15625 0.214009,-0.250078 0.655094,-0.818687 0.6875,-1.625 l 0.03125,0 c 8.22e-4,-0.02293 -6.5e-5,-0.03914 0,-0.0625 0.02387,-0.276024 0.136654,-0.555476 0.28125,-0.96875 0.139362,-0.398315 0.286493,-0.933087 0.34375,-1.5625 0.18731,-0.273776 0.507283,-0.487863 0.5625,-0.78125 0.110435,-0.586774 0.02156,-1.14261 -0.21875,-1.65625 a 1.1295122,1.1295122 0 0 0 -0.03125,-0.0625 c -0.08388,-0.161492 -0.09994,-0.392736 -0.09375,-0.9375 0.0056,-0.49494 -0.05714,-1.261421 -0.5,-1.96875 l 0.03125,0 c -0.01588,-0.03523 -0.04622,-0.05879 -0.0625,-0.09375 -0.02822,-0.04146 -0.03122,-0.08411 -0.0625,-0.125 l -0.03125,0 c -1.022259,-2.102552 -2.751938,-3.720599 -4.6875,-4.8125 -0.05716,-0.03224 -0.09877,-0.09367 -0.15625,-0.125 L 75.09375,62.125 c -0.706128,-0.455574 -1.446005,-0.501654 -1.875,-0.5 -0.468451,0.0018 -0.532321,0.0183 -0.625,-0.0625 a 1.1295122,1.1295122 0 0 0 -0.5,-0.25 C 71.937012,61.27609 71.578122,61.070227 71.0625,60.875 70.616323,60.706067 69.928301,60.633446 69.25,60.84375 l 0,-0.0625 c 0.06589,-0.01178 -0.445175,-0.117053 -1.125,-0.34375 A 1.1295122,1.1295122 0 0 0 67.78125,60.375 l -0.09375,0 -0.09375,0 a 1.1295122,1.1295122 0 0 0 -0.125,0 z m -9.03125,6.9375 c 0.100767,-0.02337 0.272027,-0.214988 0.75,0.25 0.238986,0.232494 0.33098,0.715949 0.28125,0.9375 -0.04973,0.221551 -0.101115,0.258837 -0.09375,0.25 L 58.6875,68.1875 58.65625,68 58.625,68.125 58.5,68.03125 l 0.0625,0.25 -0.3125,0.78125 c 0.03202,0.01202 -0.01973,0.007 -0.15625,-0.125 -0.136521,-0.132017 -0.338312,-0.555703 -0.25,-0.9375 0.08831,-0.381797 0.3035,-0.526988 0.40625,-0.59375 0.10275,-0.06676 0.137117,-0.08206 0.1875,-0.09375 z m 11.1875,5.21875 c 0.551392,-0.110724 1.145753,-0.01154 1.5,0.375 a 1.1295122,1.1295122 0 0 0 0.125,0.125 c 0.82442,0.675485 1.986715,0.501768 2.65625,-0.03125 0.09557,-0.07608 0.1351,-0.216256 0.21875,-0.3125 -0.0011,0.0211 0.0013,0.04139 0,0.0625 -0.07797,0.550666 -0.04202,1.056226 -0.0625,1.375 -0.02281,0.354932 -0.0786,0.381103 -0.03125,0.34375 A 1.1295122,1.1295122 0 0 0 73.6875,74.875 c -0.195373,0.439719 -0.331638,0.78765 -0.4375,0.9375 -0.105862,0.14985 -0.06454,0.136771 -0.25,0.15625 a 1.1295122,1.1295122 0 0 0 -0.71875,0.375 c -0.325367,0.368373 -0.913629,0.517955 -1.6875,0.59375 -1.471986,-0.132954 -2.716109,-1.958355 -2.1875,-3.34375 A 1.1295122,1.1295122 0 0 0 68.4375,73.5 c 0.145209,-0.517144 0.636108,-0.858026 1.1875,-0.96875 z"
         id="path4108"
         style="opacity:0.05;fill:#000000;display:inline"
         inkscape:original="M 67.59375 61.5 C 66.660198 61.614453 65.736554 61.497618 64.90625 62.09375 C 63.73909 62.448628 62.814719 63.409856 61.65625 63.65625 C 60.72653 64.385817 59.794987 65.228513 59.125 66.21875 C 58.415662 66.7557 58.449732 67.914946 57.6875 68.34375 C 56.964693 69.623679 56.480545 71.071108 56.15625 72.5 C 56.425993 73.379905 56.15351 74.353897 56.25 75.3125 C 56.23972 77.369739 56.460396 79.481897 57.25 81.40625 C 58.828584 85.468143 62.261093 89.044821 66.46875 90.15625 C 67.567676 90.462149 68.780591 90.603959 69.90625 90.4375 C 70.764911 90.140448 70.69326 88.754165 69.8125 88.53125 C 68.594413 88.222899 67.179474 88.231053 66.4375 87.03125 C 65.9032 86.658526 65.406886 86.631498 65 86.09375 C 64.48756 86.14181 64.404051 85.117659 63.5625 85.0625 C 63.423501 84.360653 62.908193 83.896722 62.375 83.4375 C 62.46861 82.796926 61.891419 82.451564 61.78125 81.875 C 61.87193 80.995559 61.31978 79.96711 60.5625 79.5 C 59.967474 79.33305 60.009043 78.368566 59.90625 77.8125 C 59.710755 77.023995 59.435068 76.237618 59.5625 75.375 C 59.740789 74.291173 59.565516 73.079582 60.1875 72.125 C 60.719935 71.197071 60.765244 70.078789 61.6875 69.40625 C 62.368022 68.651604 63.03701 68.361625 63.84375 68.09375 C 64.219351 67.031509 65.338018 67.393948 66.09375 66.78125 C 66.664027 66.019133 67.87495 66.286465 68.75 66 C 70.506495 65.9262 72.367417 66.497019 73.5 67.90625 C 74.769277 69.209242 75.363851 71.015108 75.25 72.8125 C 75.094032 73.646695 75.387502 74.816244 74.71875 75.34375 C 74.370834 76.126792 74.118943 76.989355 73.125 77.09375 C 72.481286 77.822547 71.528275 78.01636 70.59375 78.09375 C 68.28 77.97064 66.510589 75.371074 67.34375 73.1875 C 67.887466 71.251117 70.640102 70.706475 71.96875 72.15625 C 72.73824 72.786728 73.940075 71.829662 73.5 70.9375 C 72.079231 68.519106 68.2683 68.013375 66.375 70.15625 C 65.708371 71.036521 64.936181 71.809434 64.5625 72.875 C 64.068258 74.024675 64.283661 75.389225 64.625 76.5625 C 64.97294 77.383527 64.429313 78.462591 65.4375 79.125 C 66.895252 80.702334 69.127446 81.813041 71.3125 81.53125 C 72.442911 81.49057 72.606399 80.274157 73.75 80.28125 C 74.844156 79.960293 75.554561 79.004967 76.59375 78.6875 C 76.928559 78.047768 77.513924 77.667607 77.78125 77 C 77.66483 76.290665 78.622758 75.997839 78.625 75.1875 C 78.67908 74.211693 79.229656 73.512427 79.28125 72.4375 C 79.897856 72.10867 79.97342 71.298641 79.6875 70.6875 C 79.185349 69.720708 79.824682 68.674304 79.09375 67.71875 C 78.187607 65.70817 76.498884 64.132298 74.59375 63.09375 C 73.746927 62.424178 72.669792 63.12643 71.84375 62.40625 C 71.059966 62.224181 70.248971 61.506056 69.4375 61.90625 C 68.914058 61.99979 68.313763 61.677574 67.78125 61.5 L 67.6875 61.5 L 67.59375 61.5 z M 58.65625 68 C 59.593052 68.351613 57.901958 68.748865 58.5 68.03125 L 58.65625 68 z "
         inkscape:radius="1.1293993"
         sodipodi:type="inkscape:offset" />
      <g
         transform="matrix(3.165,0,0,3.165,-147.57373,529.916)"
         id="g4106"
         style="display:inline">
        <path
           inkscape:connector-curvature="0"
           style="opacity:0.2;fill:url(#linearGradient3857-6-6);fill-opacity:1;stroke:none"
           d="m 68,56 c -9.941125,0 -18,8.058875 -18,18 0,3.6617 1.09067,7.063961 2.96875,9.90625 C 51.722125,81.541769 51,78.858787 51,76 c 0,-9.388841 7.611159,-17 17,-17 9.388841,0 17,7.611159 17,17 0,2.858787 -0.722125,5.541769 -1.96875,7.90625 C 84.90933,81.063961 86,77.6617 86,74 86,64.058875 77.941125,56 68,56 z"
           id="path3846" />
        <path
           inkscape:connector-curvature="0"
           style="opacity:0.3;fill:#ffffff;fill-opacity:1;stroke:none;display:inline"
           d="m 68,56 c -9.94112,0 -18,8.05887 -18,18 0,0.168593 0.02664,0.33252 0.03125,0.5 C 50.298212,64.79197 58.227473,57 68,57 c 9.73052,0 17.63723,7.725255 17.96875,17.375 l 0,-1 C 85.63723,63.725255 77.73052,56 68,56 z"
           id="path4097" />
      </g>
      <path
         inkscape:connector-curvature="0"
         id="path4102"
         d="m 66.360485,724.5635 c -2.954693,0.36218 -5.86804,-0.0191 -8.495959,1.86833 -3.694061,1.1233 -6.609743,4.19705 -10.276285,4.97682 -2.942568,2.30915 -5.867752,4.94661 -7.988265,8.08067 -2.245046,1.69948 -2.155576,5.37042 -4.568035,6.7276 -2.287685,4.05098 -3.871057,8.59487 -4.897447,13.11728 0.853741,2.78493 -0.01394,5.91515 0.291467,8.9492 -0.03248,6.51107 0.686579,13.14817 3.185675,19.23879 4.996211,12.8558 15.870994,24.22072 29.188224,27.73835 3.478117,0.9681 7.275623,1.37686 10.838333,0.85007 2.717661,-0.94019 2.532268,-5.28772 -0.25534,-5.99324 -3.855259,-0.97593 -8.337009,-0.99521 -10.685356,-4.79256 -1.691049,-1.17973 -3.27615,-1.25089 -4.563953,-2.95291 -1.621875,0.15222 -1.868436,-3.05844 -4.531944,-3.23315 -0.439939,-2.22123 -2.070879,-3.68957 -3.758447,-5.14301 0.296275,-2.02742 -1.554105,-3.12099 -1.902796,-4.94582 0.287012,-2.78344 -1.410333,-6.01772 -3.807114,-7.49622 -1.883264,-0.52836 -1.778343,-3.60116 -2.103682,-5.36112 -0.618739,-2.49562 -1.459411,-5.01384 -1.056081,-7.74399 0.564281,-3.43031 -0.0414,-7.2418 1.927203,-10.26317 1.685159,-2.93689 1.890672,-6.42427 4.809608,-8.55288 2.153856,-2.38853 4.238334,-3.35541 6.791679,-4.20325 1.188777,-3.36206 4.714468,-2.22605 7.106352,-4.16527 1.804946,-2.41216 5.683797,-1.56981 8.453328,-2.47654 5.559313,-0.2335 11.381029,1.57905 14.96568,6.03917 4.017238,4.12407 5.954418,9.88495 5.594064,15.5736 -0.49364,2.64032 0.384894,6.28217 -1.731688,7.95173 -1.10114,2.47828 -1.876978,5.2354 -5.022804,5.5658 -2.037339,2.30653 -5.044301,2.94449 -8.002088,3.18949 -7.323007,-0.38976 -12.961765,-8.60938 -10.324806,-15.52037 1.720845,-6.12865 10.447344,-7.85237 14.652522,-3.26391 2.435421,1.99555 6.251864,-1.03624 4.859044,-3.85994 -4.496731,-7.65418 -16.573861,-9.26827 -22.566153,-2.48595 -2.109876,2.78606 -4.538402,5.16707 -5.721094,8.53964 -1.564283,3.63877 -0.916051,8.04455 0.164292,11.75789 1.10123,2.59855 -0.551678,5.92995 2.639225,8.02643 4.613786,4.99233 11.604382,8.5462 18.520067,7.65442 3.577753,-0.12883 4.159757,-4.00249 7.779257,-3.98004 3.462976,-1.01587 5.703696,-4.05399 8.992724,-5.05866 1.059662,-2.02476 2.89947,-3.13511 3.745578,-5.24808 -0.368476,-2.24494 2.68822,-3.22882 2.69542,-5.79349 0.17116,-3.0884 1.89007,-5.26947 2.05334,-8.67158 1.95159,-1.04078 2.2203,-3.67169 1.31544,-5.60592 -1.58938,-3.06001 0.39449,-6.34115 -1.91887,-9.36551 -2.867906,-6.36343 -8.231772,-11.3664 -14.2615,-14.65335 -2.680192,-2.11925 -6.024008,0.11829 -8.638433,-2.161 -2.480688,-0.57632 -5.082505,-2.81484 -7.650804,-1.54823 -1.656688,0.29584 -3.538199,-0.73348 -5.223595,-1.29558 l -0.318132,-0.0191 -0.297835,0.009 z M 38.073287,745.136 c 2.964979,1.11283 -2.420574,2.35952 -0.527771,0.0878 l 0.527771,-0.0878 z m -0.890143,1.28572 c 2.456947,0.24438 -0.484201,3.15162 0,0 z m 50.738888,25.5179 c 0.22883,1.58505 -0.304476,0.58149 0,0 z"
         style="opacity:0.15;fill:#000000;display:inline" />
      <path
         inkscape:connector-curvature="0"
         i:knockout="Off"
         d="m 93.998306,764.30372 c 0.08582,2.30592 -0.672896,3.42632 -1.359098,5.40776 l -1.2341,0.61363 c -1.008812,1.96035 0.100054,1.24462 -0.622292,2.8032 -1.57671,1.40008 -4.777854,4.37982 -5.802898,4.65273 -0.749192,-0.0159 0.50684,-0.88376 0.67097,-1.22254 -2.108324,1.44691 -1.692164,2.17221 -4.917178,3.0532 l -0.0936,-0.21087 c -7.950324,3.74142 -18.994884,-3.67166 -18.849812,-13.7847 -0.08395,0.64148 -0.241276,0.48103 -0.417232,0.7388 -0.410185,-5.20257 2.403251,-10.42797 7.14862,-12.56503 4.641354,-2.29628 10.082526,-1.3553 13.404879,1.74574 -1.824862,-2.39191 -5.460276,-4.92771 -9.765657,-4.69299 -4.219518,0.0689 -8.167933,2.74975 -9.485056,5.66168 -2.160795,1.36008 -2.412734,5.24555 -3.353803,5.95741 -1.268455,9.31528 2.383197,13.33812 8.561143,18.07302 0.969702,0.65471 0.272942,0.7549 0.402649,1.25315 -2.051983,-0.96011 -3.930292,-2.4109 -5.476469,-4.187 0.820816,1.19966 1.705527,2.36598 2.849912,3.28215 -1.936553,-0.65373 -4.52207,-4.68898 -5.275083,-4.85314 3.335665,5.97274 13.531758,10.4747 18.873648,8.24047 -2.471911,0.091 -5.611031,0.0513 -8.386492,-0.97543 -1.16914,-0.6004 -2.752556,-1.84209 -2.46906,-2.07394 7.287955,2.72105 14.814537,2.05959 21.119422,-2.99408 1.605348,-1.25028 3.357672,-3.37575 3.864448,-3.40442 -0.762588,1.14716 0.130778,0.55174 -0.45541,1.56438 1.595809,-2.57799 -0.69581,-1.04999 1.651154,-4.4515 l 0.86661,1.19303 c -0.324722,-2.14173 2.658034,-4.73969 2.35453,-8.12397 0.68434,-1.0347 0.762602,1.11476 0.03508,3.49509 1.006866,-2.64096 0.266476,-3.0656 0.524024,-5.24552 0.27789,0.73296 0.647085,1.51089 0.835069,2.28481 -0.656633,-2.55305 0.670971,-4.29772 1.001189,-5.78185 -0.326184,-0.14307 -1.01264,1.12815 -1.171073,-1.88597 0.02522,-1.30936 0.365446,-0.68622 0.496131,-1.00877 -0.255714,-0.14797 -0.930555,-1.15198 -1.339992,-3.07704 0.294988,-0.4533 0.794101,1.17293 1.198759,1.23883 -0.260493,-1.52994 -0.708191,-2.69723 -0.727297,-3.87208 -1.183434,-2.47199 -0.41873,0.33021 -1.377212,-1.0613 -1.259796,-3.92651 1.044164,-0.91144 1.200678,-2.69444 1.906936,2.76308 2.993996,7.04849 3.495136,8.82278 -0.38154,-2.16378 -0.99738,-4.26061 -1.75045,-6.28877 0.58124,0.24535 -0.93434,-4.4504 0.75487,-1.34096 -1.802434,-6.62841 -7.709346,-12.82264 -13.144781,-15.72784 0.663355,0.608 1.502293,1.37142 1.202601,1.49173 -2.704846,-1.60817 -2.229516,-1.73512 -2.617042,-2.41478 -2.199954,-0.89617 -2.346938,0.0736 -3.802392,0.002 -4.151747,-2.20281 -4.951558,-1.96891 -8.772104,-3.34708 l 0.173443,0.81307 c -2.749693,-0.91615 -3.203951,0.3456 -6.175082,0.002 -0.180474,-0.14017 0.95252,-0.5115 1.885939,-0.64616 -2.65905,0.35132 -2.534938,-0.52484 -5.13669,0.0962 0.640401,-0.4496 1.319974,-0.74825 2.003314,-1.13006 -2.167504,0.13174 -5.176764,1.2617 -4.248119,0.233 -3.53613,1.57859 -9.817178,3.7938 -13.341848,7.09896 l -0.110605,-0.74071 c -1.614901,1.93845 -7.042696,5.78958 -7.475055,8.30263 l -0.432297,0.10034 c -0.838974,1.4229 -1.38392,3.03497 -2.050121,4.49806 -1.098546,1.87352 -1.611019,0.72152 -1.454541,1.01552 -2.161767,4.38273 -3.237392,8.06487 -4.164126,11.08651 0.660461,0.98784 0.01486,5.94807 0.265389,9.91745 -1.084171,19.60762 13.760874,38.64364 29.987924,43.03781 2.378417,0.85221 5.914599,0.82175 8.922905,0.90569 -3.548539,-1.01555 -4.006674,-0.53741 -7.465504,-1.74273 -2.493879,-1.17584 -3.039822,-2.51692 -4.807385,-4.05056 l 0.699574,1.23592 c -3.464606,-1.22645 -2.014848,-1.51754 -4.834211,-2.41001 l 0.747335,-0.97444 c -1.123384,-0.0854 -2.974938,-1.8916 -3.48078,-2.89472 l -1.229298,0.0493 c -1.475528,-1.81917 -2.262917,-3.13337 -2.204713,-4.15181 l -0.397108,0.70816 c -0.449391,-0.77213 -5.431623,-6.8317 -2.847057,-5.42114 -0.480058,-0.43704 -1.118563,-0.71285 -1.81054,-1.97179 l 0.52589,-0.60039 c -1.241708,-1.60049 -2.288684,-3.65154 -2.208501,-4.3349 0.663333,0.89523 1.123321,1.06323 1.579555,1.21691 -3.141026,-7.79198 -3.317561,-0.42847 -5.695025,-7.93131 l 0.502179,-0.0407 c -0.384545,-0.58283 -0.620404,-1.21173 -0.929603,-1.83114 l 0.219658,-2.18092 c -2.260085,-2.61118 -0.631817,-11.11424 -0.30464,-15.77646 0.22421,-1.89559 1.886904,-3.91411 3.149569,-7.07994 l -0.769232,-0.13172 c 1.471738,-2.56541 8.40083,-10.30681 11.611473,-9.90971 1.554779,-1.95277 -0.309127,-0.006 -0.613662,-0.49825 3.41589,-3.53426 4.489605,-2.4968 6.794528,-3.13332 2.484334,-1.47463 -2.133163,0.57642 -0.955378,-0.56219 4.297722,-1.09658 3.044601,-2.49488 8.649904,-3.05128 0.591747,0.336 -1.371508,0.51919 -1.863972,0.95542 3.579051,-1.75236 11.328009,-1.35238 16.363516,0.97155 5.838245,2.73057 12.401785,10.79834 12.661385,18.38881 l 0.294968,0.0786 c -0.148778,3.01791 0.46194,6.5082 -0.598428,9.71316 l 0.716816,-1.51847"
         id="path4098"
         style="opacity:0.3;fill:#000000;display:inline" />
      <path
         style="fill:#ff5555;display:inline"
         id="path2536"
         d="m 93.998306,761.13872 c 0.08582,2.30591 -0.672896,3.42631 -1.359098,5.40777 l -1.2341,0.61361 c -1.008812,1.96035 0.100054,1.24462 -0.622292,2.80322 -1.57671,1.40006 -4.777854,4.37981 -5.802898,4.65273 -0.749192,-0.0161 0.50684,-0.88376 0.67097,-1.22255 -2.108324,1.44692 -1.692164,2.17221 -4.917178,3.05321 l -0.0936,-0.21089 c -7.950324,3.74143 -18.994884,-3.67164 -18.849812,-13.78468 -0.08395,0.64148 -0.241276,0.48101 -0.417232,0.73879 -0.410185,-5.20256 2.403251,-10.42797 7.14862,-12.56502 4.641354,-2.29629 10.082526,-1.3553 13.404879,1.74574 -1.824862,-2.39192 -5.460276,-4.92772 -9.765657,-4.69301 -4.219518,0.0693 -8.167933,2.74975 -9.485056,5.66169 -2.160795,1.36009 -2.412734,5.24556 -3.353803,5.95742 -1.268455,9.31528 2.383197,13.33812 8.561143,18.07302 0.969702,0.65469 0.272942,0.7549 0.402649,1.25315 -2.051983,-0.96012 -3.930292,-2.41091 -5.476469,-4.18702 0.820816,1.19966 1.705527,2.36598 2.849912,3.28217 -1.936553,-0.65375 -4.52207,-4.68898 -5.275083,-4.85316 3.335665,5.97274 13.531758,10.47468 18.873648,8.24049 -2.471911,0.091 -5.611031,0.0513 -8.386492,-0.97543 -1.16914,-0.6004 -2.752556,-1.84211 -2.46906,-2.07394 7.287955,2.72103 14.814537,2.05958 21.119422,-2.9941 1.605348,-1.25026 3.357672,-3.37573 3.864448,-3.40442 -0.762588,1.14716 0.130778,0.55174 -0.45541,1.56438 1.595809,-2.57797 -0.69581,-1.04999 1.651154,-4.4515 l 0.86661,1.19305 c -0.324722,-2.14175 2.658034,-4.73971 2.35453,-8.12397 0.68434,-1.03471 0.762602,1.11474 0.03508,3.49509 1.006866,-2.64097 0.266476,-3.06562 0.524024,-5.24553 0.27789,0.73296 0.647085,1.51089 0.835069,2.2848 -0.656633,-2.55303 0.670971,-4.29772 1.001189,-5.78185 -0.326184,-0.14307 -1.01264,1.12815 -1.171073,-1.88595 0.02522,-1.30938 0.365446,-0.68623 0.496131,-1.00877 -0.255714,-0.14797 -0.930555,-1.152 -1.339992,-3.07705 0.294988,-0.45329 0.794101,1.17293 1.198759,1.23882 -0.260493,-1.52994 -0.708191,-2.69721 -0.727297,-3.87207 -1.183434,-2.472 -0.41873,0.33022 -1.377212,-1.0613 -1.259796,-3.92652 1.044164,-0.91145 1.200678,-2.69444 1.906936,2.76308 2.993996,7.0485 3.495136,8.82279 -0.38154,-2.16379 -0.99738,-4.26062 -1.75045,-6.28877 0.58124,0.24533 -0.93434,-4.4504 0.75487,-1.34098 -1.802434,-6.6284 -7.709346,-12.82262 -13.144781,-15.72783 0.663355,0.608 1.502293,1.37143 1.202601,1.49174 -2.704846,-1.60818 -2.229516,-1.73512 -2.617042,-2.41478 -2.199954,-0.89617 -2.346938,0.0733 -3.802392,0.002 -4.151747,-2.20281 -4.951558,-1.96891 -8.772104,-3.3471 l 0.173443,0.81307 c -2.749693,-0.91614 -3.203951,0.3456 -6.175082,0.002 -0.180474,-0.14017 0.95252,-0.51151 1.885939,-0.64617 -2.65905,0.35133 -2.534938,-0.52484 -5.13669,0.0962 0.640401,-0.44959 1.319974,-0.74824 2.003314,-1.13007 -2.167504,0.13174 -5.176764,1.26172 -4.248119,0.233 -3.53613,1.57859 -9.817178,3.79382 -13.341848,7.09896 l -0.110598,-0.74067 c -1.614901,1.93845 -7.042696,5.78959 -7.475055,8.30264 l -0.43229,0.10037 c -0.838974,1.42291 -1.38392,3.03498 -2.050121,4.49806 -1.098546,1.87353 -1.611019,0.72153 -1.454541,1.01553 -2.161769,4.38273 -3.237392,8.06487 -4.164126,11.08651 0.660461,0.98784 0.01486,5.94807 0.265387,9.91745 -1.084169,19.60762 13.760876,38.64363 29.987926,43.0378 2.378417,0.85221 5.914597,0.82175 8.922905,0.9057 -3.548539,-1.01555 -4.006674,-0.53742 -7.465504,-1.74272 -2.493879,-1.17587 -3.039822,-2.51693 -4.807387,-4.05057 l 0.699576,1.23591 c -3.464606,-1.22645 -2.014848,-1.51753 -4.834211,-2.41 l 0.747335,-0.97444 c -1.123384,-0.0854 -2.974938,-1.89161 -3.480782,-2.89472 l -1.229298,0.0493 c -1.475526,-1.81917 -2.262915,-3.13339 -2.204711,-4.15181 l -0.397108,0.70816 c -0.449391,-0.77213 -5.431623,-6.8317 -2.847057,-5.42114 -0.480058,-0.43706 -1.118563,-0.71285 -1.81054,-1.97179 l 0.52589,-0.60039 c -1.241708,-1.60049 -2.288684,-3.65154 -2.208501,-4.33493 0.663333,0.89521 1.123321,1.06324 1.579555,1.21692 -3.141026,-7.79198 -3.317561,-0.42848 -5.695026,-7.93129 l 0.50218,-0.0407 c -0.384545,-0.58284 -0.620404,-1.21174 -0.929603,-1.83116 l 0.219658,-2.1809 c -2.260085,-2.61119 -0.631817,-11.11424 -0.30464,-15.77647 0.22421,-1.89558 1.886904,-3.91411 3.149569,-7.07995 l -0.769232,-0.13172 c 1.471738,-2.56541 8.40083,-10.30682 11.611473,-9.9097 1.554779,-1.95279 -0.309127,-0.006 -0.613662,-0.49827 3.41589,-3.53424 4.489605,-2.4968 6.794528,-3.13331 2.484334,-1.47464 -2.133163,0.57641 -0.955378,-0.56219 4.297722,-1.09659 3.044601,-2.49489 8.649904,-3.05128 0.591747,0.33601 -1.371508,0.51918 -1.863972,0.95542 3.579049,-1.75237 11.328009,-1.35238 16.363516,0.97156 5.838245,2.73056 12.401785,10.79833 12.661385,18.3888 l 0.294968,0.0786 c -0.148778,3.01791 0.46194,6.50821 -0.598428,9.71317 l 0.716816,-1.51847"
         i:knockout="Off"
         inkscape:connector-curvature="0" />
    </g>
  </g>
</svg>
