<?xml version="1.0" encoding="UTF-8" standalone="no"?>
<!-- Created with Inkscape (http://www.inkscape.org/) -->

<svg
   version="1.0"
   width="96"
   height="96"
   id="svg2408"
   inkscape:version="1.1.2 (0a00cf5339, 2022-02-04)"
   sodipodi:docname="hicolor_categories_scalable_cs-gestures.svg"
   xmlns:inkscape="http://www.inkscape.org/namespaces/inkscape"
   xmlns:sodipodi="http://sodipodi.sourceforge.net/DTD/sodipodi-0.dtd"
   xmlns:xlink="http://www.w3.org/1999/xlink"
   xmlns="http://www.w3.org/2000/svg"
   xmlns:svg="http://www.w3.org/2000/svg"
   xmlns:rdf="http://www.w3.org/1999/02/22-rdf-syntax-ns#"
   xmlns:cc="http://creativecommons.org/ns#"
   xmlns:dc="http://purl.org/dc/elements/1.1/">
  <sodipodi:namedview
     pagecolor="#ffffff"
     bordercolor="#666666"
     borderopacity="1"
     objecttolerance="10"
     gridtolerance="10"
     guidetolerance="10"
     inkscape:pageopacity="0"
     inkscape:pageshadow="2"
     inkscape:window-width="1920"
     inkscape:window-height="1012"
     id="namedview73"
     showgrid="false"
     inkscape:zoom="4.9166666"
     inkscape:cx="76.067798"
     inkscape:cy="64.271187"
     inkscape:window-x="0"
     inkscape:window-y="0"
     inkscape:window-maximized="1"
     inkscape:current-layer="layer4"
     inkscape:pagecheckerboard="0" />
  <defs
     id="defs2410">
    <linearGradient
       id="linearGradient3849">
      <stop
         id="stop3851"
         style="stop-color:#e5e5e5;stop-opacity:1"
         offset="0" />
      <stop
         id="stop3853"
         style="stop-color:#ffffff;stop-opacity:1"
         offset="1" />
    </linearGradient>
    <linearGradient
       id="linearGradient3833">
      <stop
         id="stop3835"
         style="stop-color:#d9d9d9;stop-opacity:1"
         offset="0" />
      <stop
         id="stop3837"
         style="stop-color:#ffffff;stop-opacity:1"
         offset="1" />
    </linearGradient>
    <linearGradient
       x1="45.447727"
       y1="92.539597"
       x2="45.447727"
       y2="7.0165396"
       id="ButtonShadow"
       gradientUnits="userSpaceOnUse"
       gradientTransform="scale(1.0058652,0.994169)">
      <stop
         id="stop3750"
         style="stop-color:#000000;stop-opacity:1"
         offset="0" />
      <stop
         id="stop3752"
         style="stop-color:#000000;stop-opacity:0.58823532"
         offset="1" />
    </linearGradient>
    <linearGradient
       id="linearGradient3737">
      <stop
         id="stop3739"
         style="stop-color:#ffffff;stop-opacity:1"
         offset="0" />
      <stop
         id="stop3741"
         style="stop-color:#ffffff;stop-opacity:0"
         offset="1" />
    </linearGradient>
    <linearGradient
       id="linearGradient3700">
      <stop
         id="stop3702"
         style="stop-color:#53aec2;stop-opacity:1"
         offset="0" />
      <stop
         id="stop3704"
         style="stop-color:#80c3d2;stop-opacity:1"
         offset="1" />
    </linearGradient>
    <filter
       color-interpolation-filters="sRGB"
       id="filter3174"
       x="-0.047720931"
       y="-0.048282354"
       width="1.0954419"
       height="1.0965647">
      <feGaussianBlur
         id="feGaussianBlur3176"
         stdDeviation="1.71" />
    </filter>
    <linearGradient
       x1="36.357143"
       y1="6"
       x2="36.357143"
       y2="63.893143"
       id="linearGradient3188"
       xlink:href="#linearGradient3737"
       gradientUnits="userSpaceOnUse" />
    <filter
       x="-0.19578789"
       y="-0.19578789"
       width="1.3915758"
       height="1.3915758"
       color-interpolation-filters="sRGB"
       id="filter3794">
      <feGaussianBlur
         id="feGaussianBlur3796"
         stdDeviation="5.28" />
    </filter>
    <linearGradient
       x1="48"
       y1="20.220806"
       x2="48"
       y2="138.66119"
       id="linearGradient3613"
       xlink:href="#linearGradient3737"
       gradientUnits="userSpaceOnUse" />
    <radialGradient
       cx="48"
       cy="90.171875"
       r="42"
       fx="48"
       fy="90.171875"
       id="radialGradient3619"
       xlink:href="#linearGradient3737"
       gradientUnits="userSpaceOnUse"
       gradientTransform="matrix(1.1573129,0,0,0.99590774,-7.5510206,0.19713193)" />
    <clipPath
       id="clipPath3613">
      <rect
         width="84"
         height="84"
         rx="6"
         ry="6"
         x="6"
         y="6"
         id="rect3615"
         style="fill:#ffffff;fill-opacity:1;fill-rule:nonzero;stroke:none" />
    </clipPath>
    <linearGradient
       x1="48"
       y1="90"
       x2="48"
       y2="5.9877172"
       id="linearGradient3617"
       xlink:href="#linearGradient3700"
       gradientUnits="userSpaceOnUse" />
    <linearGradient
       x1="45.447727"
       y1="92.539597"
       x2="45.447727"
       y2="7.0165396"
       id="ButtonShadow-0"
       gradientUnits="userSpaceOnUse"
       gradientTransform="matrix(1.0058652,0,0,0.994169,100,0)">
      <stop
         id="stop3750-8"
         style="stop-color:#000000;stop-opacity:1"
         offset="0" />
      <stop
         id="stop3752-5"
         style="stop-color:#000000;stop-opacity:0.58823532"
         offset="1" />
    </linearGradient>
    <linearGradient
       x1="32.251034"
       y1="6.1317081"
       x2="32.251034"
       y2="90.238609"
       id="linearGradient3780"
       xlink:href="#ButtonShadow-0"
       gradientUnits="userSpaceOnUse"
       gradientTransform="matrix(1.0238095,0,0,1.0119048,-1.1428571,-98.071429)" />
    <linearGradient
       x1="32.251034"
       y1="6.1317081"
       x2="32.251034"
       y2="90.238609"
       id="linearGradient3772"
       xlink:href="#ButtonShadow-0"
       gradientUnits="userSpaceOnUse"
       gradientTransform="matrix(1.0238095,0,0,1.0119048,-1.1428571,-98.071429)" />
    <linearGradient
       x1="32.251034"
       y1="6.1317081"
       x2="32.251034"
       y2="90.238609"
       id="linearGradient3725"
       xlink:href="#ButtonShadow-0"
       gradientUnits="userSpaceOnUse"
       gradientTransform="matrix(1.0238095,0,0,1.0119048,-1.1428571,-98.071429)" />
    <linearGradient
       x1="32.251034"
       y1="6.1317081"
       x2="32.251034"
       y2="90.238609"
       id="linearGradient3721"
       xlink:href="#ButtonShadow-0"
       gradientUnits="userSpaceOnUse"
       gradientTransform="translate(0,-97)" />
    <linearGradient
       x1="32.251034"
       y1="6.1317081"
       x2="32.251034"
       y2="90.238609"
       id="linearGradient3026"
       xlink:href="#ButtonShadow-0"
       gradientUnits="userSpaceOnUse"
       gradientTransform="matrix(1.0238095,0,0,1.0119048,-1.1428571,-98.071429)" />
    <radialGradient
       cx="-67.361107"
       cy="30.722223"
       r="17.5"
       fx="-67.361107"
       fy="30.722223"
       id="radialGradient3839"
       xlink:href="#linearGradient3833"
       gradientUnits="userSpaceOnUse"
       gradientTransform="matrix(1.2777774,-1.5934198e-8,1.3855826e-8,1.1111109,18.711391,-3.4135747)" />
    <radialGradient
       cx="-55.999996"
       cy="29"
       r="17.5"
       fx="-55.999996"
       fy="29"
       id="radialGradient3847"
       xlink:href="#linearGradient3849"
       gradientUnits="userSpaceOnUse"
       gradientTransform="matrix(1.2571429,0,0,0.97142857,14.4,0.82857156)" />
    <radialGradient
       cx="-69.643715"
       cy="31.597223"
       r="17.5"
       fx="-69.643715"
       fy="31.597223"
       id="radialGradient3857"
       xlink:href="#linearGradient3833"
       gradientUnits="userSpaceOnUse"
       gradientTransform="matrix(1.2777774,-1.5934198e-8,1.3855826e-8,1.1111109,18.711391,-3.4135747)" />
    <clipPath
       id="clipPath4882">
      <path
         d="m 44,58 0,-16 13,8 z"
         inkscape:connector-curvature="0"
         id="path4884"
         style="fill:#ff00ff;fill-opacity:1;stroke:none" />
    </clipPath>
    <filter
       color-interpolation-filters="sRGB"
       id="filter4890">
      <feGaussianBlur
         id="feGaussianBlur4892"
         stdDeviation="0.2175" />
    </filter>
  </defs>
  <metadata
     id="metadata2413">
    <rdf:RDF>
      <cc:Work
         rdf:about="">
        <dc:format>image/svg+xml</dc:format>
        <dc:type
           rdf:resource="http://purl.org/dc/dcmitype/StillImage" />
      </cc:Work>
    </rdf:RDF>
  </metadata>
  <g
     id="layer2"
     style="display:none">
    <rect
       width="86"
       height="85"
       rx="6"
       ry="6"
       x="5"
       y="7"
       id="rect3745"
       style="opacity:0.9;fill:url(#ButtonShadow);fill-opacity:1;fill-rule:nonzero;stroke:none;filter:url(#filter3174)" />
  </g>
  <g
     id="layer3">
    <path
       d="m 12,-95.03125 c -5.5110903,0 -10.03125,4.52016 -10.03125,10.03125 l 0,71 c 0,5.5110902 4.5201598,10.03125 10.03125,10.03125 l 72,0 c 5.51109,0 10.03125,-4.5201597 10.03125,-10.03125 l 0,-71 c 0,-5.51109 -4.52016,-10.03125 -10.03125,-10.03125 l -72,0 z"
       transform="scale(1,-1)"
       id="path3786"
       style="opacity:0.07999998;fill:url(#linearGradient3026);fill-opacity:1;fill-rule:nonzero;stroke:none;display:inline" />
    <path
       d="m 12,-94.03125 c -4.971633,0 -9.03125,4.059617 -9.03125,9.03125 l 0,71 c 0,4.9716329 4.0596171,9.03125 9.03125,9.03125 l 72,0 c 4.971633,0 9.03125,-4.059617 9.03125,-9.03125 l 0,-71 c 0,-4.971633 -4.059617,-9.03125 -9.03125,-9.03125 l -72,0 z"
       transform="scale(1,-1)"
       id="path3778"
       style="opacity:0.1;fill:url(#linearGradient3780);fill-opacity:1;fill-rule:nonzero;stroke:none;display:inline" />
    <path
       d="m 12,-93 c -4.4091333,0 -8,3.590867 -8,8 l 0,71 c 0,4.4091333 3.5908667,8 8,8 l 72,0 c 4.409133,0 8,-3.5908667 8,-8 l 0,-71 c 0,-4.409133 -3.590867,-8 -8,-8 l -72,0 z"
       transform="scale(1,-1)"
       id="path3770"
       style="opacity:0.2;fill:url(#linearGradient3772);fill-opacity:1;fill-rule:nonzero;stroke:none;display:inline" />
    <rect
       width="86"
       height="85"
       rx="7"
       ry="7"
       x="5"
       y="-92"
       transform="scale(1,-1)"
       id="rect3723"
       style="opacity:0.3;fill:url(#linearGradient3725);fill-opacity:1;fill-rule:nonzero;stroke:none;display:inline" />
    <rect
       width="84"
       height="84"
       rx="6"
       ry="6"
       x="6"
       y="-91"
       transform="scale(1,-1)"
       id="rect3716"
       style="opacity:0.45;fill:url(#linearGradient3721);fill-opacity:1;fill-rule:nonzero;stroke:none;display:inline" />
  </g>
  <g
     id="layer1">
    <rect
       width="84"
       height="84"
       rx="6"
       ry="6"
       x="6"
       y="6"
       id="rect2419"
       style="fill:url(#linearGradient3617);fill-opacity:1;fill-rule:nonzero;stroke:none" />
    <path
       d="M 12,6 C 8.676,6 6,8.676 6,12 l 0,2 0,68 0,2 c 0,0.334721 0.04135,0.6507 0.09375,0.96875 0.0487,0.295596 0.09704,0.596915 0.1875,0.875 0.00988,0.03038 0.020892,0.0636 0.03125,0.09375 0.098865,0.287771 0.2348802,0.547452 0.375,0.8125 0.1445918,0.273507 0.3156161,0.535615 0.5,0.78125 0.1843839,0.245635 0.3737765,0.473472 0.59375,0.6875 0.439947,0.428056 0.94291,0.814526 1.5,1.09375 0.278545,0.139612 0.5734731,0.246947 0.875,0.34375 -0.2562018,-0.100222 -0.4867109,-0.236272 -0.71875,-0.375 -0.00741,-0.0044 -0.023866,0.0045 -0.03125,0 -0.031933,-0.0193 -0.062293,-0.04251 -0.09375,-0.0625 -0.120395,-0.0767 -0.2310226,-0.163513 -0.34375,-0.25 -0.1061728,-0.0808 -0.2132809,-0.161112 -0.3125,-0.25 C 8.4783201,88.557317 8.3087904,88.373362 8.15625,88.1875 8.0486711,88.057245 7.9378561,87.922215 7.84375,87.78125 7.818661,87.74287 7.805304,87.69538 7.78125,87.65625 7.716487,87.553218 7.6510225,87.451733 7.59375,87.34375 7.4927417,87.149044 7.3880752,86.928049 7.3125,86.71875 7.30454,86.69694 7.288911,86.6782 7.28125,86.65625 7.2494249,86.5643 7.2454455,86.469419 7.21875,86.375 7.1884177,86.268382 7.1483606,86.171969 7.125,86.0625 7.0521214,85.720988 7,85.364295 7,85 L 7,83 7,15 7,13 C 7,10.218152 9.2181517,8 12,8 l 2,0 68,0 2,0 c 2.781848,0 5,2.218152 5,5 l 0,2 0,68 0,2 c 0,0.364295 -0.05212,0.720988 -0.125,1.0625 -0.04415,0.206893 -0.08838,0.397658 -0.15625,0.59375 -0.0077,0.02195 -0.0233,0.04069 -0.03125,0.0625 -0.06274,0.173739 -0.138383,0.367449 -0.21875,0.53125 -0.04158,0.0828 -0.07904,0.169954 -0.125,0.25 -0.0546,0.09721 -0.126774,0.18835 -0.1875,0.28125 -0.09411,0.140965 -0.204921,0.275995 -0.3125,0.40625 -0.143174,0.17445 -0.303141,0.346998 -0.46875,0.5 -0.01117,0.0102 -0.01998,0.02115 -0.03125,0.03125 -0.138386,0.125556 -0.285091,0.234436 -0.4375,0.34375 -0.102571,0.07315 -0.204318,0.153364 -0.3125,0.21875 -0.0074,0.0045 -0.02384,-0.0044 -0.03125,0 -0.232039,0.138728 -0.462548,0.274778 -0.71875,0.375 0.301527,-0.0968 0.596455,-0.204138 0.875,-0.34375 0.55709,-0.279224 1.060053,-0.665694 1.5,-1.09375 0.219973,-0.214028 0.409366,-0.441865 0.59375,-0.6875 0.184384,-0.245635 0.355408,-0.507743 0.5,-0.78125 0.14012,-0.265048 0.276135,-0.524729 0.375,-0.8125 0.01041,-0.03078 0.02133,-0.06274 0.03125,-0.09375 0.09046,-0.278085 0.1388,-0.579404 0.1875,-0.875 C 89.95865,84.6507 90,84.334721 90,84 l 0,-2 0,-68 0,-2 C 90,8.676 87.324,6 84,6 L 12,6 z"
       inkscape:connector-curvature="0"
       id="rect3728"
       style="opacity:0.35;fill:url(#linearGradient3188);fill-opacity:1;fill-rule:nonzero;stroke:none" />
    <path
       d="M 12,90 C 8.676,90 6,87.324 6,84 L 6,82 6,14 6,12 c 0,-0.334721 0.04135,-0.6507 0.09375,-0.96875 0.0487,-0.295596 0.09704,-0.596915 0.1875,-0.875 C 6.29113,10.12587 6.302142,10.09265 6.3125,10.0625 6.411365,9.774729 6.5473802,9.515048 6.6875,9.25 6.8320918,8.976493 7.0031161,8.714385 7.1875,8.46875 7.3718839,8.223115 7.5612765,7.995278 7.78125,7.78125 8.221197,7.353194 8.72416,6.966724 9.28125,6.6875 9.559795,6.547888 9.8547231,6.440553 10.15625,6.34375 9.9000482,6.443972 9.6695391,6.580022 9.4375,6.71875 c -0.00741,0.0044 -0.023866,-0.0045 -0.03125,0 -0.031933,0.0193 -0.062293,0.04251 -0.09375,0.0625 -0.120395,0.0767 -0.2310226,0.163513 -0.34375,0.25 -0.1061728,0.0808 -0.2132809,0.161112 -0.3125,0.25 C 8.4783201,7.442683 8.3087904,7.626638 8.15625,7.8125 8.0486711,7.942755 7.9378561,8.077785 7.84375,8.21875 7.818661,8.25713 7.805304,8.30462 7.78125,8.34375 7.716487,8.446782 7.6510225,8.548267 7.59375,8.65625 7.4927417,8.850956 7.3880752,9.071951 7.3125,9.28125 7.30454,9.30306 7.288911,9.3218 7.28125,9.34375 7.2494249,9.4357 7.2454455,9.530581 7.21875,9.625 7.1884177,9.731618 7.1483606,9.828031 7.125,9.9375 7.0521214,10.279012 7,10.635705 7,11 l 0,2 0,68 0,2 c 0,2.781848 2.2181517,5 5,5 l 2,0 68,0 2,0 c 2.781848,0 5,-2.218152 5,-5 l 0,-2 0,-68 0,-2 C 89,10.635705 88.94788,10.279012 88.875,9.9375 88.83085,9.730607 88.78662,9.539842 88.71875,9.34375 88.71105,9.3218 88.69545,9.30306 88.6875,9.28125 88.62476,9.107511 88.549117,8.913801 88.46875,8.75 88.42717,8.6672 88.38971,8.580046 88.34375,8.5 88.28915,8.40279 88.216976,8.31165 88.15625,8.21875 88.06214,8.077785 87.951329,7.942755 87.84375,7.8125 87.700576,7.63805 87.540609,7.465502 87.375,7.3125 87.36383,7.3023 87.35502,7.29135 87.34375,7.28125 87.205364,7.155694 87.058659,7.046814 86.90625,6.9375 86.803679,6.86435 86.701932,6.784136 86.59375,6.71875 c -0.0074,-0.0045 -0.02384,0.0044 -0.03125,0 -0.232039,-0.138728 -0.462548,-0.274778 -0.71875,-0.375 0.301527,0.0968 0.596455,0.204138 0.875,0.34375 0.55709,0.279224 1.060053,0.665694 1.5,1.09375 0.219973,0.214028 0.409366,0.441865 0.59375,0.6875 0.184384,0.245635 0.355408,0.507743 0.5,0.78125 0.14012,0.265048 0.276135,0.524729 0.375,0.8125 0.01041,0.03078 0.02133,0.06274 0.03125,0.09375 0.09046,0.278085 0.1388,0.579404 0.1875,0.875 C 89.95865,11.3493 90,11.665279 90,12 l 0,2 0,68 0,2 c 0,3.324 -2.676,6 -6,6 l -72,0 z"
       inkscape:connector-curvature="0"
       id="path3615"
       style="opacity:0.2;fill:url(#radialGradient3619);fill-opacity:1;fill-rule:nonzero;stroke:none" />
  </g>
  <g
     id="layer5">
    <rect
       width="66"
       height="66"
       rx="12"
       ry="12"
       x="15"
       y="15"
       clip-path="url(#clipPath3613)"
       id="rect3171"
       style="opacity:0.1;fill:url(#linearGradient3613);fill-opacity:1;fill-rule:nonzero;stroke:#ffffff;stroke-width:0.5;stroke-linecap:round;stroke-linejoin:miter;stroke-miterlimit:4;stroke-opacity:1;stroke-dasharray:none;stroke-dashoffset:0;filter:url(#filter3794)" />
  </g>
  <g
     id="layer4">
    <path
       style="opacity:0.2;stroke-width:2.32176"
       d="m 41.943417,20.783956 c -2.705936,0 -6.116362,2.77559 -6.116362,5.435067 -0.0404,2.347666 -0.03436,7.247592 0.01155,14.476494 0.07197,11.555725 0.05061,15.184629 -0.08986,15.681577 -4.006259,-0.415177 -7.91166,-4.873643 -10.62275,-6.983028 -1.771941,-1.382187 -3.527188,-2.647034 -3.900364,-2.810113 -1.555553,-0.67988 -3.760408,-0.249519 -5.026067,0.981708 -0.875163,0.85134 -1.201926,1.605865 -1.278985,2.971151 -0.05898,1.043303 -0.01857,1.293054 0.306541,1.984217 0.205012,0.435423 0.572615,1.019902 0.819163,1.298558 0.246546,0.278657 3.622239,5.233469 7.499479,10.217836 7.180516,9.230814 12.871162,14.445824 14.101785,14.790326 0.752365,0.211047 36.470692,0.210583 37.249873,0 0.353765,-0.09542 0.860627,-0.452487 1.226141,-0.808505 0.512157,-0.498921 0.706719,-0.865969 1.104575,-2.072538 1.139077,-3.454493 2.277318,-8.246155 2.599345,-11.165437 0.140002,-3.392039 0.06571,-6.558959 0,-9.308197 -0.06037,-2.528832 0.0046,-4.842555 0,-7.978294 0,-2.659502 -2.473297,-5.815115 -5.179232,-5.815115 -2.705937,0 -4.027898,3.155613 -4.027898,5.815115 0.0011,-0.77946 -0.167166,-2.159977 -0.17715,-2.659502 0,-2.659478 -1.912778,-5.477369 -5.714188,-5.477369 -3.80141,0 -4.875339,1.974002 -5.588304,4.100893 -0.08753,0.04248 -0.173898,0.08149 -0.258968,0.12978 -0.0016,-0.339302 0.0046,-1.147482 0,-1.412859 0,-2.659477 -3.407733,-5.139646 -6.113669,-5.139646 -2.296239,0 -4.625122,1.7399 -5.267855,3.944965 -0.05433,0.07894 -0.07082,0.265794 -0.09774,0.27529 -0.08242,0.02925 0,-3.315584 0,-8.316063 0,-3.425287 0.02508,-5.459121 0,-6.721553 0,-2.659478 -2.752209,-5.435043 -5.458145,-5.435043 z"
       id="path2497" />
    <path
       style="fill:#ffb94d;stroke-width:2.32176"
       d="m 41.942235,18.461828 c -2.705936,0 -6.116362,2.775566 -6.116362,5.435045 -0.0404,2.347665 -0.03436,7.247591 0.01155,14.476493 0.07197,11.555725 0.05061,15.184628 -0.08986,15.6816 -4.006259,-0.4152 -7.91166,-4.873666 -10.62275,-6.983051 -1.771941,-1.382187 -3.527188,-2.647034 -3.900364,-2.810113 -1.555553,-0.679857 -3.760408,-0.249519 -5.026067,0.981731 -0.875163,0.851341 -1.201926,1.605842 -1.278985,2.971126 -0.05898,1.043328 -0.01857,1.293056 0.306541,1.984219 0.205012,0.435423 0.572615,1.019925 0.819163,1.298582 0.246546,0.278656 3.622239,5.233468 7.499479,10.217813 7.180516,9.230835 12.871162,14.445824 14.101785,14.790326 0.752365,0.211047 36.470692,0.210582 37.249873,0 0.353765,-0.09542 0.860627,-0.452465 1.226141,-0.808506 0.512157,-0.498898 0.706719,-0.865944 1.104575,-2.072514 1.139077,-3.454517 2.277318,-8.246179 2.599345,-11.165461 0.140002,-3.392015 0.06571,-6.558961 0,-9.308174 -0.06037,-2.528832 0.0046,-4.842555 0,-7.978318 0,-2.659478 -2.473297,-5.815115 -5.179232,-5.815115 -2.705937,0 -4.027898,3.155637 -4.027898,5.815115 0.0011,-0.779459 -0.167166,-2.159975 -0.17715,-2.659478 0,-2.659478 -1.912778,-5.477392 -5.714188,-5.477392 -3.80141,0 -4.875339,1.974026 -5.588304,4.100893 -0.08753,0.04249 -0.173898,0.08149 -0.258968,0.12978 -0.0016,-0.339279 0.0046,-1.147482 0,-1.412834 0,-2.659502 -3.407733,-5.139671 -6.113669,-5.139671 -2.296239,0 -4.625122,1.739923 -5.267855,3.944965 -0.05433,0.07894 -0.07082,0.265793 -0.09774,0.275313 -0.08242,0.02925 0,-3.315582 0,-8.316086 0,-3.425263 0.02531,-5.459121 0,-6.721529 0,-2.659501 -2.752209,-5.435067 -5.458145,-5.435067 z"
       id="path2499" />
    <circle
       style="opacity:0.7;fill:#ffffff;stroke-width:2.32176"
       cx="41.59721"
       cy="24.266659"
       id="circle2501"
       r="3.4826334" />
    <path
       style="opacity:0.1;stroke-width:2.32176"
       d="m 44.875772,25.413931 a 3.4826332,3.4826332 0 0 1 -3.278575,2.335361 3.4826332,3.4826332 0 0 1 -3.274046,-2.321756 3.4826332,3.4826332 0 0 0 -0.208494,1.160878 3.4826332,3.4826332 0 0 0 3.482633,3.482633 3.4826332,3.4826332 0 0 0 3.482634,-3.482633 3.4826332,3.4826332 0 0 0 -0.204083,-1.174483 z"
       id="path2503" />
    <path
       style="opacity:0.7;fill:#ffffff;stroke-width:2.32176"
       d="m 16.057888,48.645092 a 3.4826332,3.4826332 0 0 0 -1.160878,0.208492 c 5.8e-4,0.550397 0.08544,0.824851 0.331036,1.346804 0.205011,0.435423 0.569666,1.018276 0.816236,1.296933 0.119331,0.134894 1.024197,1.441996 2.312677,3.242285 a 3.4826332,3.4826332 0 0 0 1.183562,-2.611975 3.4826332,3.4826332 0 0 0 -3.482633,-3.482632 z"
       id="path2505" />
    <path
       style="opacity:0.2;fill:#ffffff;stroke-width:2.32176"
       d="m 41.941839,18.462271 c -2.70596,0 -6.112764,2.777608 -6.112764,5.437086 -0.02322,1.341093 -0.02856,3.732501 -0.02322,6.697708 0.0016,-1.771849 0.0069,-3.425657 0.02322,-4.375952 0,-2.659479 3.406804,-5.437088 6.112764,-5.437088 2.705937,0 5.459747,2.773059 5.459747,5.432537 1.86e-4,-0.644125 0.0093,-1.881922 0,-2.317205 0,-2.659478 -2.75381,-5.437086 -5.459747,-5.437086 z m 10.824279,16.252287 c -2.29624,0 -4.622057,1.74011 -5.264767,3.945174 -0.05433,0.07894 -0.0729,0.267095 -0.09984,0.276613 -0.01625,0.0046 -0.0209,-0.21778 -0.02716,-0.467066 -0.01393,1.697295 -0.01857,2.80468 0.02716,2.788822 0.02694,-0.0093 0.04551,-0.197814 0.09984,-0.276614 0.64271,-2.205064 2.968527,-3.945173 5.264767,-3.945173 2.705937,0 6.112741,2.478311 6.112741,5.137789 0.0046,0.265377 -0.0016,1.07553 0,1.414831 0.08497,-0.04829 0.175293,-0.08893 0.263008,-0.131413 0.712965,-2.126889 1.785315,-4.099361 5.586725,-4.099361 3.80141,0 5.713701,2.818403 5.713701,5.477904 0.0093,0.499502 0.178078,1.877859 0.176917,2.657319 0,-2.659478 1.320847,-5.813467 4.026783,-5.813467 2.648054,0 5.066976,3.01942 5.169551,5.641146 0.0046,-0.709504 0.0093,-1.350333 0.0093,-2.149434 0,-2.659478 -2.472646,-5.813468 -5.178606,-5.813468 -2.705937,0 -4.026783,3.15399 -4.026783,5.813468 0.0011,-0.77946 -0.166935,-2.157817 -0.176917,-2.657319 0,-2.659502 -1.912291,-5.477904 -5.713701,-5.477904 -3.801411,0 -4.87376,1.972471 -5.586725,4.099362 -0.08753,0.04248 -0.178078,0.08311 -0.263008,0.131413 -0.0016,-0.339302 0.0046,-1.149455 0,-1.414832 0,-2.659479 -3.406804,-5.13779 -6.112741,-5.13779 z m -33.479551,9.237151 c -1.136964,0.06826 -2.297052,0.52286 -3.088097,1.292382 -0.875163,0.851341 -1.201717,1.604937 -1.278777,2.970198 -0.04226,0.75016 -0.02949,1.089624 0.09984,1.478308 0.159737,-0.865434 0.504332,-1.470437 1.179034,-2.126751 1.265658,-1.23125 3.468843,-1.663886 5.024418,-0.98403 0.373153,0.162988 2.132417,1.429319 3.904357,2.811507 2.711091,2.109384 6.613961,6.5682 10.620221,6.983399 0.08173,-0.28936 0.116317,-2.304296 0.122358,-5.663806 -0.01625,2.087955 -0.05688,3.109899 -0.122358,3.34205 -4.00626,-0.415199 -7.90913,-4.874013 -10.620221,-6.983399 -1.77194,-1.382186 -3.531204,-2.643899 -3.904357,-2.806978 -0.583341,-0.254952 -1.254119,-0.353882 -1.93632,-0.31288 z m 60.524357,6.529936 c -0.01393,1.732703 -0.02554,3.359813 0.01393,4.99268 0.03111,1.303968 0.0613,2.714133 0.07244,4.185499 0.0267,-2.336057 -0.02531,-4.531254 -0.07244,-6.507254 -0.0209,-0.897288 -0.01393,-1.781483 -0.01393,-2.670925 z"
       id="path2507" />
  </g>
</svg>
