<?xml version="1.0" encoding="UTF-8" standalone="no"?>
<svg xmlns="http://www.w3.org/2000/svg" height="96" width="96" version="1.1" xmlns:xlink="http://www.w3.org/1999/xlink">
 <defs>
  <linearGradient id="o" stop-color="#dac3a2">
   <stop offset="0"/>
   <stop stop-opacity="0" offset="1"/>
  </linearGradient>
  <linearGradient id="n" stop-color="#8a5b30">
   <stop offset="0"/>
   <stop stop-opacity="0" offset="1"/>
  </linearGradient>
  <linearGradient id="m">
   <stop stop-color="#b88f56" offset="0"/>
   <stop stop-color="#d9bd98" offset="1"/>
  </linearGradient>
  <linearGradient id="g" stop-color="#fff">
   <stop offset="0"/>
   <stop stop-opacity="0" offset="1"/>
  </linearGradient>
  <filter id="as" height="1.8526" width="1.6231" color-interpolation-filters="sRGB" y="-.42628" x="-.31156">
   <feGaussianBlur stdDeviation="6.2124381"/>
  </filter>
  <clipPath id="k">
   <rect fill-rule="evenodd" height="59" width="118" y="160" x="5" fill="#fff"/>
  </clipPath>
  <linearGradient id="at">
   <stop stop-color="#fff" stop-opacity="0" offset="0"/>
   <stop stop-color="#fffc2b" stop-opacity=".23438" offset="0.35"/>
   <stop stop-color="#46d15d" stop-opacity=".21875" offset=".5"/>
   <stop stop-color="#46d1aa" stop-opacity="0" offset="0.65"/>
   <stop stop-color="#fff" stop-opacity="0" offset="1"/>
  </linearGradient>
  <linearGradient id="av">
   <stop stop-color="#fff" stop-opacity="0" offset="0"/>
   <stop stop-color="#afcff3" stop-opacity="0" offset=".2"/>
   <stop stop-color="#60a0e7" stop-opacity=".14844" offset="0.35"/>
   <stop stop-color="#db8ef1" stop-opacity=".21094" offset=".5"/>
   <stop stop-color="#fff" stop-opacity="0" offset="0.65"/>
   <stop stop-color="#fff" stop-opacity="0" offset="1"/>
  </linearGradient>
  <linearGradient id="au">
   <stop stop-color="#fff" stop-opacity="0" offset="0"/>
   <stop stop-color="#d5d5d5" stop-opacity="0" offset="0.3"/>
   <stop stop-color="#eb8888" stop-opacity=".25781" offset=".5"/>
   <stop stop-color="#e28f25" stop-opacity="0" offset="0.7"/>
   <stop stop-color="#fff" stop-opacity="0" offset="1"/>
  </linearGradient>
  <linearGradient id="f" y2="7.0165" gradientUnits="userSpaceOnUse" x2="45.448" gradientTransform="matrix(1.0059 0 0 .99417 100 0)" y1="92.54" x1="45.448">
   <stop offset="0"/>
   <stop stop-opacity=".58824" offset="1"/>
  </linearGradient>
  <linearGradient id="l" stop-color="#3a240f">
   <stop offset="0"/>
   <stop stop-opacity="0" offset="1"/>
  </linearGradient>
  <clipPath id="ar">
   <path d="m0 96v60h96v-60h-96zm68 20c9.9411 0 18 8.0589 18 18s-8.0589 18-18 18-18-8.0589-18-18 8.0589-18 18-18z" fill="#fff"/>
  </clipPath>
  <linearGradient id="aq" stop-color="#fff" y2="84.89" gradientUnits="userSpaceOnUse" x2="64.321" gradientTransform="translate(-2)" y1="55.31" x1="64.321">
   <stop offset="0"/>
   <stop stop-opacity="0" offset="1"/>
  </linearGradient>
  <linearGradient id="ao" stop-color="#fff" y2="64" gradientUnits="userSpaceOnUse" x2="123" gradientTransform="matrix(.26420 .15254 -.15254 .26420 60.854 47.329)" y1="64" x1="5">
   <stop stop-opacity="0" offset="0"/>
   <stop stop-opacity="0" offset="0.15"/>
   <stop offset=".5"/>
   <stop stop-opacity="0" offset="0.85"/>
   <stop stop-opacity="0" offset="1"/>
  </linearGradient>
  <linearGradient id="am" y2="34.607" gradientUnits="userSpaceOnUse" x2="73.016" gradientTransform="matrix(.55068 0 0 .66151 35.018 32.929)" y1="89.131" x1="73.016">
   <stop stop-color="#b8abbd" offset="0"/>
   <stop stop-color="#dddbde" offset="1"/>
  </linearGradient>
  <linearGradient id="ak" y2="61.922" gradientUnits="userSpaceOnUse" x2="94.568" gradientTransform="matrix(0 .070001 -.084093 0 73.208 69.7)" y1="61.922" x1="25.22">
   <stop stop-color="#4d4d4d" offset="0"/>
   <stop stop-color="#fff" offset="1"/>
  </linearGradient>
  <radialGradient id="r" gradientUnits="userSpaceOnUse" cy="61.922" cx="59.894" gradientTransform="matrix(0 0.154 -.15495 0 77.595 64.669)" r="33.714">
   <stop stop-opacity="0" offset="0"/>
   <stop stop-opacity="0" offset="0.85"/>
   <stop offset="1"/>
  </radialGradient>
  <linearGradient id="aj" stop-color="#fff" y2="61.922" gradientUnits="userSpaceOnUse" x2="93.608" gradientTransform="matrix(0 0.154 -0.185 0 79.456 64.669)" y1="61.922" x1="26.18">
   <stop stop-opacity=".20312" offset="0"/>
   <stop stop-opacity=".67969" offset="1"/>
  </linearGradient>
  <linearGradient id="j" y2="64" xlink:href="#at" gradientUnits="userSpaceOnUse" x2="123" gradientTransform="matrix(-.98504 .17149 -.17149 -.98504 138.02 271.07)" y1="64" x1="5"/>
  <linearGradient id="i" y2="64" xlink:href="#av" gradientUnits="userSpaceOnUse" x2="123" gradientTransform="matrix(-.853 .52164 -.52164 -.853 151.98 240.21)" y1="64" x1="5"/>
  <linearGradient id="h" y2="64" xlink:href="#au" gradientUnits="userSpaceOnUse" x2="123" gradientTransform="matrix(-.88145 -.47197 .47197 -.88145 90.207 305.62)" y1="64" x1="5"/>
  <linearGradient id="ai" y2="47.295" gradientUnits="userSpaceOnUse" x2="50.499" gradientTransform="matrix(1.0201,0,0,1.0201,-5.2982,5.7562)" y1="19.882" x1="50.499">
   <stop stop-color="#d8cab2" offset="0"/>
   <stop stop-color="#d2b98c" offset=".45711"/>
   <stop stop-color="#f9f7ef" offset=".48590"/>
   <stop stop-color="#fff" offset=".49110"/>
   <stop stop-color="#fbf9f4" offset=".49180"/>
   <stop stop-color="#efe7d0" offset=".4946"/>
   <stop stop-color="#e4d6b0" offset=".49770"/>
   <stop stop-color="#dac894" offset=".5011"/>
   <stop stop-color="#c7a572" offset=".50490"/>
   <stop stop-color="#d7c198" offset="1"/>
  </linearGradient>
  <linearGradient id="ah" y2="6.0179" xlink:href="#l" gradientUnits="userSpaceOnUse" x2="46.796" y1="60.307" x1="46.796"/>
  <linearGradient id="ag" y2="4.6666" xlink:href="#l" gradientUnits="userSpaceOnUse" x2="48.401" y1="61.991" x1="48.401"/>
  <radialGradient id="q" stop-color="#fff" gradientUnits="userSpaceOnUse" cy="90.172" cx="48" gradientTransform="matrix(1.1573 0 0 .99591 -7.551 .19713)" r="42">
   <stop offset="0"/>
   <stop stop-opacity="0" offset="1"/>
  </radialGradient>
  <linearGradient id="af" y2="52.263" xlink:href="#o" gradientUnits="userSpaceOnUse" x2="8.9651" gradientTransform="matrix(-1,0,0,1,96.087,0)" y1="44.04" x1="8.9651"/>
  <linearGradient id="ae" y2="52.263" xlink:href="#o" gradientUnits="userSpaceOnUse" x2="8.9651" y1="44.04" x1="8.9651"/>
  <linearGradient id="ad" y2="6" xlink:href="#g" gradientUnits="userSpaceOnUse" x2="66.964" y1="42" x1="23.143"/>
  <linearGradient id="ac" y2="18.082" xlink:href="#m" gradientUnits="userSpaceOnUse" x2="6.3304" gradientTransform="matrix(-1,0,0,1,96,0)" y1="29.04" x1="47.227"/>
  <linearGradient id="ab" y2="18.202" xlink:href="#m" gradientUnits="userSpaceOnUse" x2="6.7813" y1="42" x1="48"/>
  <linearGradient id="aa" y2="9.4099" gradientUnits="userSpaceOnUse" x2="6.5963" y1="32.783" x1="47.079">
   <stop stop-color="#be9f6a" offset="0"/>
   <stop stop-color="#e5d2b2" offset="1"/>
  </linearGradient>
  <linearGradient id="z" y2="89.666" xlink:href="#g" gradientUnits="userSpaceOnUse" x2="10" y1="40.263" x1="10"/>
  <linearGradient id="y" y2="89.666" xlink:href="#g" gradientUnits="userSpaceOnUse" x2="10" gradientTransform="matrix(-1,0,0,1,96,0)" y1="40.263" x1="10"/>
  <linearGradient id="x" y2="87.03" xlink:href="#n" gradientUnits="userSpaceOnUse" x2="8" gradientTransform="matrix(-1,0,0,1,96,0)" y1="38.127" x1="8"/>
  <radialGradient id="p" stop-color="#71461e" gradientUnits="userSpaceOnUse" cy="73.146" cx="48" gradientTransform="matrix(.86776 0 0 .095238 6.3473 36.19)" r="42">
   <stop offset="0"/>
   <stop stop-opacity="0" offset="1"/>
  </radialGradient>
  <linearGradient id="w" y2="39.853" gradientUnits="userSpaceOnUse" x2="54.187" y1="90" x1="54.187">
   <stop stop-color="#996c3b" offset="0"/>
   <stop stop-color="#c19e6d" offset="1"/>
  </linearGradient>
  <linearGradient id="v" y2="71.877" xlink:href="#n" gradientUnits="userSpaceOnUse" x2="8" y1="38.127" x1="8"/>
  <linearGradient id="u" y2="6" xlink:href="#f" gradientUnits="userSpaceOnUse" x2="32.251" gradientTransform="translate(0,1)" y1="90" x1="32.251"/>
  <linearGradient id="t" y2="5.9996" xlink:href="#f" gradientUnits="userSpaceOnUse" x2="32.251" gradientTransform="matrix(1.0238 0 0 1.0119 -1.1429 .929)" y1="90" x1="32.251"/>
  <linearGradient id="s" y2="90.239" xlink:href="#f" gradientUnits="userSpaceOnUse" x2="32.251" gradientTransform="matrix(1.0238,0,0,-1.0119,-1.1429,98.071)" y1="6.1317" x1="32.251"/>
 </defs>
 <g fill="url(#s)">
  <path opacity="0.08" d="m12 95.031c-5.5111 0-10.031-4.52-10.031-10.031v-71c0-5.5111 4.5202-10.031 10.031-10.031h72c5.5111 0 10.031 4.5202 10.031 10.031v71c0 5.5111-4.5202 10.031-10.031 10.031h-72z"/>
  <path opacity=".1" d="m12 94.031c-4.9716 0-9.0312-4.0596-9.0312-9.0312v-71c0-4.9718 4.0596-9.0314 9.0312-9.0314h72c4.9716 0 9.0312 4.0596 9.0312 9.0312v71c0 4.9716-4.0596 9.0312-9.0312 9.0312h-72z"/>
  <path opacity=".2" d="m12 93c-4.4091 0-8-3.591-8-8v-71c0-4.4091 3.5909-8 8-8h72c4.4091 0 8 3.5909 8 8v71c0 4.4091-3.5909 8-8 8h-72z"/>
 </g>
 <rect opacity=".3" rx="7" ry="7" height="85" width="86" y="7" x="5" fill="url(#t)"/>
 <rect opacity=".45" rx="6" ry="6" height="84" width="84" y="7" x="6" fill="url(#u)"/>
 <path d="m6 36v48c0 1.7818 0.77457 3.3717 2 4.4688v-52.469h-2z" fill="url(#v)"/>
 <rect rx="6" ry="6" height="84" width="84" y="6" x="6" fill="url(#w)"/>
 <path d="m6 36v2c0 3.324 2.676 6 6 6h72c3.324 0 6-2.676 6-6v-2c0 3.324-2.676 6-6 6h-72c-3.324 0-6-2.676-6-6z" fill="url(#p)"/>
 <path d="m90 36v48c0 1.7818-0.77457 3.3717-2 4.4688v-52.469h2z" fill="url(#x)"/>
 <rect rx="6" ry="6" height="24" width="84" y="18" x="6" fill="#3c2510"/>
 <path opacity=".3" d="m88 36v52.469c-0.57686 0.51642-1.2549 0.92309-2 1.1875v-53.656h2z" fill="url(#y)"/>
 <path opacity=".3" d="m8 36v52.469c0.57686 0.51642 1.2549 0.92309 2 1.1875v-53.656h-2z" fill="url(#z)"/>
 <path d="m12 6c-3.2266 0-6 2.2593-6 7v22.656l42 0.035v-29.691h-36z" fill="url(#aa)"/>
 <rect opacity=".3" transform="matrix(1 0 0 .8556 10 8.5841)" rx="6" ry="6" height="34.977" filter="url(#as)" width="47.856" y="41.957" x="12.753" fill="#dac7a8"/>
 <path d="m12 6c-3.324 0-6 2.676-6 6v24c0 3.324 2.676 6 6 6l36-2v-36l-36 2z" fill="url(#ab)"/>
 <path d="m84 6c3.324 0 6 2.676 6 6v24c0 3.324-2.676 6-6 6l-36-2v-36l36 2z" fill="url(#ac)"/>
 <path opacity=".3" d="m12 6c-3.324 0-6 2.676-6 6v24c0 3.324 2.676 6 6 6l36-2 36 2c3.324 0 6-2.676 6-6v-24c0-3.324-2.676-6-6-6l-36-2-36 2zm0 2 36-2 36 2c2.2458 0 4 1.7542 4 4v24c0 2.2458-1.7542 4-4 4l-36-2-36 2c-2.2458 0-4-1.754-4-4v-24c0-2.2458 1.7542-4 4-4z" fill="url(#ad)"/>
 <path fill="url(#ae)" d="m6.1872 37.285c2.3991 5.5558 1.894 16.036 1.894 16.036l1.8309-0.252c-0.2525-8.208 0.4419-11.238 4.9879-11.365-7.1692-1.195-8.7128-4.419-8.7128-4.419z" fill-rule="evenodd"/>
 <path fill="url(#af)" d="m89.9 37.285c-2.3991 5.5558-1.894 16.036-1.894 16.036l-1.831-0.252c0.252-8.208-0.442-11.238-4.988-11.365 7.169-1.195 8.713-4.419 8.713-4.419z" fill-rule="evenodd"/>
 <path opacity=".2" d="m12 90c-3.324 0-6-2.676-6-6v-72c0-0.33472 0.04135-0.6507 0.09375-0.96875 0.0487-0.2956 0.09704-0.59692 0.1875-0.875 0.0099-0.03 0.0209-0.063 0.0313-0.094 0.0989-0.2873 0.2349-0.547 0.375-0.812 0.1446-0.2735 0.3156-0.5356 0.5-0.7812 0.1844-0.2457 0.3738-0.4735 0.5937-0.6876 0.44-0.428 0.943-0.8145 1.5-1.0937 0.2786-0.1396 0.5735-0.2469 0.8748-0.3437-0.256 0.1002-0.4865 0.2362-0.7185 0.375-0.00741 0.0044-0.023866-0.0045-0.03125 0-0.031933 0.0193-0.062293 0.04251-0.09375 0.0625-0.1204 0.0767-0.23102 0.16351-0.34375 0.25-0.10617 0.0808-0.21328 0.16111-0.3125 0.25-0.1779 0.1614-0.3474 0.3453-0.5 0.5312-0.1075 0.1303-0.2183 0.2653-0.3124 0.4063-0.0251 0.0383-0.0385 0.0858-0.0626 0.125-0.0647 0.103-0.1302 0.2045-0.1874 0.3124-0.1011 0.1948-0.2057 0.4158-0.2813 0.625-0.008 0.0219-0.0236 0.0406-0.0313 0.0626-0.0318 0.0919-0.0358 0.1868-0.0624 0.2812-0.0304 0.1066-0.0704 0.203-0.0938 0.3125-0.0729 0.3415-0.125 0.6985-0.125 1.0625v72c0 2.7818 2.2182 5 5 5h72c2.7818 0 5-2.2182 5-5v-72c0-0.364-0.052-0.721-0.125-1.0625-0.044-0.2069-0.088-0.3977-0.156-0.5937-0.008-0.022-0.024-0.0407-0.031-0.0626-0.063-0.1737-0.139-0.3674-0.219-0.5312-0.042-0.0828-0.079-0.17-0.125-0.25-0.055-0.0972-0.127-0.1884-0.188-0.2812-0.094-0.141-0.205-0.276-0.312-0.4063-0.143-0.1745-0.303-0.347-0.469-0.5-0.011-0.0102-0.02-0.0211-0.031-0.0313-0.139-0.1255-0.285-0.2344-0.438-0.3437-0.102-0.0731-0.204-0.1534-0.312-0.2187-0.0074-0.0045-0.02384 0.0044-0.03125 0-0.23204-0.13873-0.46255-0.27478-0.71875-0.375 0.30153 0.0968 0.59646 0.20414 0.875 0.34375 0.55709 0.27922 1.0601 0.66569 1.5 1.0938 0.21997 0.21403 0.40937 0.44186 0.59375 0.6875s0.35541 0.50774 0.5 0.78125c0.14012 0.26505 0.27614 0.52473 0.375 0.8125 0.01041 0.03078 0.02133 0.06274 0.03125 0.09375 0.09046 0.27808 0.1388 0.5794 0.1875 0.875 0.053 0.318 0.094 0.634 0.094 0.969v72c0 3.324-2.676 6-6 6h-72z" fill="url(#q)"/>
 <path opacity=".5" d="m54.12 7h-12.12l0.06 24.062 0.135 28.938 5.687-0.495 6.044-0.525 0.032-5.551 0.102-22.367 0.06-24.062z" fill="#3a240f"/>
 <path opacity=".1" d="m41.688 5.125c0.0042-0.0007112-0.19165 0.032337-0.1875 0.03125 0.0042-0.00109-0.16029 0.063954-0.15625 0.0625 0.004-0.00145-0.16014 0.064309-0.15625 0.0625 0.0039-0.00181-0.12871 0.06465-0.125 0.0625 0.0037-0.00215-0.15976 0.096223-0.15625 0.09375 0.0035-0.00247-0.12827 0.12778-0.125 0.125 0.0033-0.00278-0.12801 0.096809-0.125 0.09375 0.003-0.00306-0.12772 0.12832-0.125 0.125 0.0027-0.00332-0.09617 0.1598-0.09375 0.15625 0.0024-0.00355-0.09584 0.12875-0.09375 0.125 0.0021-0.00375-0.06424 0.16017-0.0625 0.15625 0.0017-0.00392-0.06389 0.16031-0.0625 0.15625 0.0014-0.00406-0.03227 0.16042-0.03125 0.15625 0.001-0.00417-0.06314 0.16049-0.0625 0.15625 0.000642-0.00424-0.00026 0.19178 0 0.1875 0.000208-0.00343 0.000769 0.08233 0 0.125v0.03125l0.062 24.031 0.124 28.938a1.0058 1.0058 0 0 0 0 0.03125c-0.000042-0.0025 0.000168 0.0962 0 0.09375-0.000168-0.0025 0.000294 0.09619 0 0.09375-0.000294-0.0024 0.03167 0.09617 0.03125 0.09375-0.000419-0.0024 0.000542 0.09615 0 0.09375s0.03191 0.09611 0.03125 0.09375c-0.000664-0.0024 0.03204 0.09608 0.03125 0.09375-0.000785-0.0023 0.03215 0.06479 0.03125 0.0625-0.000903-0.0023 0.03227 0.09599 0.03125 0.09375-0.001-0.0022 0.06363 0.09593 0.0625 0.09375-0.0011-0.0022 0.03249 0.09587 0.03125 0.09375-0.0012-0.0021 0.06385 0.06455 0.0625 0.0625-0.0014-0.0021 0.0327 0.09573 0.03125 0.09375-0.0015-0.002 0.06405 0.0644 0.0625 0.0625-0.0016-0.0019 0.06415 0.09557 0.0625 0.09375-0.0016-0.0018 0.06424 0.06423 0.0625 0.0625-0.0017-0.0017 0.09558 0.06414 0.09375 0.0625-0.0018-0.0016 0.06441 0.06405 0.0625 0.0625-0.0019-0.0015 0.06448 0.06395 0.0625 0.0625-0.002-0.0014 0.09581 0.06384 0.09375 0.0625-0.0021-0.0013 0.06462 0.03249 0.0625 0.03125-0.0021-0.0012 0.09593 0.06363 0.09375 0.0625-0.0022-0.0011 0.09599 0.03226 0.09375 0.03125-0.0022-0.001 0.09604 0.03215 0.09375 0.03125-0.0023-0.000897 0.09608 0.03203 0.09375 0.03125-0.0023-0.000779 0.09612 0.03191 0.09375 0.03125-0.0024-0.000658 0.09615 0.03179 0.09375 0.03125-0.0024-0.000536 0.09617 0.000412 0.09375 0-0.0024-0.000412 0.09619 0.03154 0.09375 0.03125-0.0024-0.000288 0.0962 0.000162 0.09375 0-0.0025-0.000162 0.09621 0.000036 0.09375 0-0.0025-0.000036 0.0962-0.00009 0.09375 0-0.0025 0.00009 0.0962-0.000216 0.09375 0l5.6875-0.5 6.0312-0.53125c-0.000893 0.000051 0.02019 0.0012 0.03125 0 0.04424-0.0047 0.12854-0.000537 0.125 0-0.0044 0.000671 0.19184-0.06358 0.1875-0.0625-0.0043 0.0011 0.16047-0.03273 0.15625-0.03125-0.0042 0.0015 0.16031-0.06437 0.15625-0.0625-0.0041 0.0019 0.16012-0.09599 0.15625-0.09375-0.0039 0.0022 0.1599-0.09634 0.15625-0.09375-0.0036 0.0026 0.12839-0.09667 0.125-0.09375-0.0034 0.0029 0.1281-0.12822 0.125-0.125-0.0031 0.0032 0.12779-0.1285 0.125-0.125-0.0028 0.0035 0.0962-0.15999 0.09375-0.15625-0.0025 0.0037 0.09584-0.1602 0.09375-0.15625-0.0021 0.004 0.09546-0.16038 0.09375-0.15625-0.0017 0.0041 0.06382-0.16052 0.0625-0.15625-0.0013 0.0043 0.03217-0.16063 0.03125-0.15625-0.000916 0.0044 0.03175-0.19194 0.03125-0.1875-0.000504 0.0044 0.000087-0.16072 0-0.15625a1.0058 1.0058 0 0 0 0 -0.03125l0.031-5.531 0.094-22.376 0.06-24.062c-0.000073 0.00479-0.000406-0.16103 0-0.15625s-0.03213-0.19221-0.03125-0.1875c0.000881 0.00471-0.0326-0.1921-0.03125-0.1875 0.0013 0.0046-0.0643-0.19194-0.0625-0.1875s-0.09599-0.16049-0.09375-0.15625c0.0022 0.00424-0.0964-0.16025-0.09375-0.15625 0.0026 0.004-0.09678-0.15996-0.09375-0.15625 0.003 0.00371-0.12839-0.15964-0.125-0.15625 0.0034 0.00339-0.15996-0.12803-0.15625-0.125 0.004 0.0029-0.16-0.0965-0.156-0.0939 0.004 0.0027-0.16-0.096-0.156-0.0937 0.004 0.0022-0.161-0.0956-0.156-0.0938 0.0044 0.0018-0.1921-0.063848-0.1875-0.0625 0.0046 0.00135-0.19221-0.032132-0.1875-0.03125 0.0047 0.0008815-0.19228-0.031656-0.1875-0.03125 0.0048 0.0004063-0.16104 0.000073-0.15625 0h-12.031c0.0026 0.0002364-0.04386 0.00229-0.09375 0-0.03326-0.00153-0.06424 0-0.0625 0 0.0043 0-0.19183 0.000394-0.1875 0a1.0058 1.0058 0 0 0 -0.0625 0z" fill="url(#ag)"/>
 <path opacity=".2" d="m42 6.125a0.86198 0.86198 0 0 0 -0.875 0.875l0.063 24.062 0.124 28.938a0.86198 0.86198 0 0 0 0.9375 0.84375l5.6875-0.5 6.062-0.532a0.86198 0.86198 0 0 0 0.812 -0.844l0.032-5.53 0.094-22.376 0.062-24.062a0.86198 0.86198 0 0 0 -0.875 -0.875h-12.125z" fill="url(#ah)"/>
 <path d="m54.06 4.3687-6.06-0.442l-6.06 0.442 0.06 25.693 0.135 28.938 5.6868-0.49473 6.0439-0.52533 0.03264-5.5512 0.10201-22.367 0.06018-25.694z" fill="url(#ai)"/>
 <rect opacity=".2" height="35.714" width="1" y="4.125" x="47" fill="#8d6137"/>
 <rect opacity=".2" height="35.714" width="1" y="4.125" x="48" fill="#fff"/>
 <rect rx="1.8667" ry="2" height="19" width="14" stroke="#825023" y="47.5" x="15.5" fill="none"/>
 <path d="m18.25 64v-9.25h-1.25l2.5-4.75 2.5 4.75h-1.25v9.25h-2.5z" fill="#825023"/>
 <path d="m24.25 64v-9.25h-1.25l2.5-4.75 2.5 4.75h-1.25v9.25h-2.5z" fill="#825023"/>
 <path opacity=".05" d="m68 55c-11.06 0-20 8.94-20 20s8.94 20 20 20 20-8.94 20-20-8.94-20-20-20z"/>
 <path opacity=".15" d="m68 56c-10.516 0-19 8.484-19 19s8.484 19 19 19 19-8.484 19-19-8.484-19-19-19z"/>
 <rect opacity="0.31" transform="translate(0,-61)" clip-path="url(#ar)" rx="18" ry="18" height="36" width="36" y="118" x="50"/>
 <path opacity=".3" d="m68 65.579c-4.5883 0-8.3132 3.7249-8.3132 8.3132s3.7249 8.3132 8.3132 8.3132 8.3132-3.7249 8.3132-8.3132-3.7249-8.3132-8.3132-8.3132zm0 5.8726c1.3472 0 2.4406 1.0934 2.4406 2.4406s-1.0934 2.4406-2.4406 2.4406-2.4406-1.0934-2.4406-2.4406 1.0934-2.4406 2.4406-2.4406z" fill-rule="evenodd" fill="#fff"/>
 <path opacity=".5" d="m68 78.926a5.0336 5.0337 0 1 1 0 -10.067 5.0336 5.0337 0 1 1 0 10.067z" fill-rule="evenodd" stroke="url(#aj)" stroke-linecap="round" fill="url(#r)"/>
 <path opacity=".6" d="m68.001 76.181a2.288 2.2881 0 1 1 0 -4.5761 2.288 2.2881 0 1 1 0 4.5761z" stroke="url(#ak)" stroke-linecap="round" fill="none"/>
 <path fill="url(#am)" d="m68 55.893c-9.9355 0-17.999 8.0636-17.999 17.999 0 9.9355 8.0636 17.999 17.999 17.999 9.9355 0 17.999-8.0636 17.999-17.999 0-9.9355-8.0636-17.999-17.999-17.999zm0 11.593c3.5364-0.000001 6.4065 2.8701 6.4065 6.4065s-2.8701 6.4065-6.4065 6.4065c-3.5364-0.000001-6.4065-2.8701-6.4065-6.4065s2.8701-6.4065 6.4065-6.4065z" fill-rule="evenodd"/>
 <path opacity=".8" d="m77 58.413c-8.6045-4.9678-19.619-2.0163-24.587 6.588-4.9678 8.6045-2.0164 19.62 6.588 24.588 8.6045 4.9678 19.619 2.0163 24.587-6.5883 4.9665-8.6045 2.0135-19.62-6.5895-24.587zm-5.7963 10.04c3.0626 1.7682 4.1133 5.6886 2.3451 8.7512s-5.6889 4.1133-8.7515 2.3451-4.1133-5.6889-2.3451-8.7515 5.6889-4.113 8.7515-2.3448z" fill-rule="evenodd" fill="url(#ao)"/>
 <path opacity=".15" d="m75.627 73.892a7.6268 7.6266 0 1 1 -15.253 0 7.6268 7.6266 0 1 1 15.253 0z" stroke="#000" stroke-linecap="round" stroke-width="4.0001" fill="none"/>
 <g fill-rule="evenodd" transform="matrix(.18739 -.24074 .24074 .18739 3.286 48.262)" clip-path="url(#k)">
  <path d="m74.118 277.12c32.082-5.59 53.582-36.16 48.002-68.24-5.59-32.08-36.157-53.58-68.238-48-32.081 5.59-53.584 36.16-47.999 68.24s36.154 53.58 68.235 48zm-6.5167-37.432c-11.419 1.9879-22.299-5.6659-24.287-17.085-1.9879-11.419 5.6659-22.299 17.084-24.287 11.419-1.9879 22.299 5.6659 24.287 17.085 1.9879 11.419-5.6659 22.299-17.085 24.287z" fill="url(#j)"/>
  <path d="m94.777 269.33c27.783-16.99 36.543-53.33 19.553-81.11-16.992-27.78-53.326-36.54-81.107-19.55-27.78 16.99-36.539 53.33-19.55 81.11s53.323 36.54 81.104 19.55zm-19.823-32.42c-9.8879 6.0469-22.821 2.9295-28.867-6.9585-6.0469-9.8879-2.9295-22.821 6.9585-28.867 9.8879-6.0469 22.821-2.9295 28.867 6.9584 6.0469 9.8879 2.9295 22.821-6.9585 28.867z" fill="url(#i)"/>
  <path d="m36.154 271.01c28.707 15.371 64.481 4.5478 79.852-24.159s4.5478-64.481-24.159-79.852-64.481-4.5478-79.852 24.159-4.5478 64.481 24.159 79.852zm17.935-33.495c-10.218-5.4711-14.07-18.204-8.5991-28.422 5.4711-10.218 18.204-14.07 28.422-8.5991 10.218 5.4711 14.07 18.204 8.5991 28.422-5.4711 10.218-18.204 14.07-28.422 8.5991z" fill="url(#h)"/>
 </g>
 <g fill-rule="evenodd" transform="matrix(.18739 -.24074 -.24074 -.18739 108.73 130.34)" clip-path="url(#k)">
  <path d="m74.118 277.12c32.082-5.59 53.582-36.16 48.002-68.24-5.59-32.08-36.157-53.58-68.238-48-32.081 5.59-53.584 36.16-47.999 68.24s36.154 53.58 68.235 48zm-6.5167-37.432c-11.419 1.9879-22.299-5.6659-24.287-17.085-1.9879-11.419 5.6659-22.299 17.084-24.287 11.419-1.9879 22.299 5.6659 24.287 17.085 1.9879 11.419-5.6659 22.299-17.085 24.287z" fill="url(#j)"/>
  <path d="m94.777 269.33c27.783-16.99 36.543-53.33 19.553-81.11-16.992-27.78-53.326-36.54-81.107-19.55-27.78 16.99-36.539 53.33-19.55 81.11s53.323 36.54 81.104 19.55zm-19.823-32.42c-9.8879 6.0469-22.821 2.9295-28.867-6.9585-6.0469-9.8879-2.9295-22.821 6.9585-28.867 9.8879-6.0469 22.821-2.9295 28.867 6.9584 6.0469 9.8879 2.9295 22.821-6.9585 28.867z" fill="url(#i)"/>
  <path d="m36.154 271.01c28.707 15.371 64.481 4.5478 79.852-24.159s4.5478-64.481-24.159-79.852-64.481-4.5478-79.852 24.159-4.5478 64.481 24.159 79.852zm17.935-33.495c-10.218-5.4711-14.07-18.204-8.5991-28.422 5.4711-10.218 18.204-14.07 28.422-8.5991 10.218 5.4711 14.07 18.204 8.5991 28.422-5.4711 10.218-18.204 14.07-28.422 8.5991z" fill="url(#h)"/>
 </g>
 <path opacity=".3" d="m68 56c-9.9411 0-18 8.0589-18 18 0 3.6617 1.0907 7.064 2.9688 9.9062-1.247-2.364-1.969-5.047-1.969-7.906 0-9.3888 7.6112-17 17-17s17 7.6112 17 17c0 2.8588-0.72212 5.5418-1.9688 7.9062 1.878-2.842 2.969-6.244 2.969-9.906 0-9.941-8.059-18-18-18z" fill="url(#aq)"/>
 <path opacity=".3" d="m68 56c-9.9411 0-18 8.0589-18 18 0 0.16859 0.02664 0.33252 0.03125 0.5 0.267-9.708 8.196-17.5 17.969-17.5 9.7305 0 17.637 7.7253 17.969 17.375v-1c-0.332-9.65-8.238-17.375-17.969-17.375z" fill="#fff"/>
</svg>
