<?xml version="1.0" encoding="UTF-8" standalone="no"?>
<svg xmlns="http://www.w3.org/2000/svg" height="96" width="96" version="1.1" xmlns:xlink="http://www.w3.org/1999/xlink">
 <defs>
  <linearGradient id="ah" stop-color="#fff">
   <stop offset="0"/>
   <stop stop-opacity="0" offset="1"/>
  </linearGradient>
  <filter id="as" height="1.384" width="1.384" color-interpolation-filters="sRGB" y="-.192" x="-.192">
   <feGaussianBlur stdDeviation="5.28"/>
  </filter>
  <linearGradient id="au" y2="138.66" xlink:href="#ah" gradientUnits="userSpaceOnUse" x2="48" y1="20.221" x1="48"/>
  <clipPath id="ar">
   <rect rx="6" ry="6" height="84" width="84" y="6" x="6" fill="#fff"/>
  </clipPath>
  <linearGradient id="av" stop-color="#fff" y2="104" gradientUnits="userSpaceOnUse" x2="40" y1="56.209" x1="40">
   <stop offset="0"/>
   <stop stop-opacity=".49804" offset=".29592"/>
   <stop stop-opacity="0" offset="1"/>
  </linearGradient>
  <linearGradient id="aw" y2="44.091" gradientUnits="userSpaceOnUse" x2="16" gradientTransform="translate(0,8)" y1="48" x1="16">
   <stop offset="0"/>
   <stop stop-opacity=".49804" offset=".25926"/>
   <stop stop-opacity="0" offset="1"/>
  </linearGradient>
  <filter id="ag" color-interpolation-filters="sRGB">
   <feGaussianBlur stdDeviation="0.8"/>
  </filter>
  <clipPath id="m">
   <path fill="#fff" d="m33 1c-0.277 0-0.54181 0.055313-0.78125 0.15625-0.37163 0.26346-0.71445 0.58231-1 0.9375-0.138 0.2716-0.219 0.5798-0.219 0.9062v4.9688c0.89033 1.2931 2.3739 2.1563 4.0625 2.1562 2.727 0 4.938-2.2106 4.938-4.9375 0-1.7705-0.944-3.316-2.344-4.1875h-4.656zm7.5312 0 0.5625 0.84375 0.46875-0.25 0.437-0.0938h1.125l0.25 0.59375-0.75 0.8125-0.40625 0.25-0.53125 0.15625 0.25 1.0938 0.5-0.0625 0.46875 0.0625 1.0312 0.4375v0.6563l-1.031 0.4688-0.468 0.0312-0.5-0.03125-0.25 1.125 0.531 0.1562 0.406 0.2188 0.75 0.8124-0.25 0.5938-1.125 0.0312-0.438-0.125-0.468-0.2812-0.625 0.96875 0.375 0.3125 0.3125 0.40625 0.4375 1.0312-0.469 0.469-1.031-0.438-0.406-0.25-0.313-0.438-0.96875 0.65625 0.25 0.4375 0.15625 0.5-0.03125 1.0625-0.625 0.282-0.781-0.781-0.281-0.407-0.094-0.531-1.125 0.25 0.03125 0.5-0.0625 0.5-0.4375 1h-0.65625l-0.46875-1-0.03125-0.5 0.03125-0.5-1.125-0.25-0.094 0.531-0.281 0.407-0.781 0.781-0.59375-0.28125-0.0625-1.0625 0.15625-0.5 0.25-0.4375-0.75-0.5v8.281c0 1.108 0.892 2 2 2h6.8438l0.28125-0.25 0.46875-0.25-0.46875-1.1562-0.53125 0.1875-0.5 0.03125-1.1562-0.25-0.15625-0.6875 0.96875-0.6875 0.5-0.15625 0.53125-0.0625v-1.2188l-0.53125-0.03125-0.5-0.1875-1-0.65625 0.15625-0.6875 1.1562-0.25h0.5l0.53125 0.1875 0.46875-1.1562-0.5-0.25-0.40625-0.3125-0.625-1 0.375-0.59375 1.1562 0.1875 0.5 0.25 0.40625 0.34375 0.84375-0.875-0.34375-0.40625-0.21875-0.46875-0.21875-1.1875 0.5625-0.375 1 0.625 0.34375 0.375 0.28125 0.5 1.125-0.46875-0.188-0.5308-0.031-0.5312 0.25-1.1562 0.6875-0.125 0.6875 0.96875 0.15625 0.46875 0.0625 0.5625 1.2188-0.03125 0.03125-0.53125 0.1875-0.5 0.656-0.9688 0.688 0.125 0.281 1.1563-0.031 0.5312-0.188 0.5 1.157 0.469 0.25-0.469 0.281-0.3438v-6.6571c0-1.108-0.892-2-2-2h-8.4688zm-5.5 0.3125c2.1217 0 3.8438 1.7221 3.8438 3.8438 0 2.1216-1.722 3.8437-3.844 3.8437-2.121 0-3.843-1.7221-3.843-3.8438s1.7221-3.8438 3.8438-3.8438zm0 1.7188c-1.242 0-2.25 0.95205-2.25 2.125s1.008 2.125 2.25 2.125 2.25-0.95205 2.25-2.125-1.008-2.125-2.25-2.125zm12.094 8.375c-1.2762 0-2.4599 0.44167-3.4062 1.1562l1.813 1.938c0.46114-0.28724 1.0108-0.4375 1.5938-0.4375 0.29398 0 0.57511 0.04631 0.84375 0.125l1.2188-2.375c-0.642-0.253-1.334-0.407-2.064-0.407zm3.094 0.938-1.219 2.375c0.68574 0.54448 1.1138 1.3722 1.125 2.3125l0.875 0.155v-4.219c-0.24222-0.22776-0.50205-0.44206-0.78125-0.625zm-7.3438 1c-0.87349 0.99394-1.4062 2.2926-1.4062 3.7188 0 0.63718 0.11756 1.2409 0.3125 1.8125l2.407-1.094c-0.056-0.228-0.063-0.474-0.063-0.719 0-0.66266 0.1992-1.2839 0.5625-1.7812l-1.8125-1.9375zm4.25 2.75c-0.53504 0-0.96875 0.43372-0.96875 0.96875 0 0.53504 0.43372 0.96875 0.96875 0.96875 0.53504 0 0.96875-0.43372 0.96875-0.96875 0-0.53504-0.43372-0.96875-0.96875-0.96875zm2.8125 2.0625c-0.32204 0.82378-1.0024 1.4646-1.8438 1.75l0.156 1.094h0.75c1.108 0 2-0.892 2-2v-0.65625l-1.0625-0.1875zm-5.25 0.65625-2.4375 1.125c0.23048 0.39031 0.49754 0.7398 0.8125 1.0625h4l-0.125-0.9375c-0.93376-0.05393-1.7355-0.53535-2.25-1.25z" fill-rule="evenodd"/>
  </clipPath>
  <filter id="ab" height="1.36" width="1.36" color-interpolation-filters="sRGB" y="-0.18" x="-0.18">
   <feGaussianBlur stdDeviation="1.2"/>
  </filter>
  <clipPath id="l">
   <rect fill-rule="evenodd" rx="2" ry="2" height="20" width="20" y="1" x="1" fill="#fff"/>
  </clipPath>
  <clipPath id="aa">
   <rect fill-rule="evenodd" rx="2" ry="2" height="20" width="20" y="1" x="1" fill="#fff"/>
  </clipPath>
  <linearGradient id="a" y2=".9993" gradientUnits="userSpaceOnUse" x2="10.32" y1="21" x1="10.32">
   <stop stop-color="#afafaf" offset="0"/>
   <stop stop-color="#d8d8d8" offset="1"/>
  </linearGradient>
  <linearGradient id="b">
   <stop offset="0"/>
   <stop stop-opacity="0" offset="1"/>
  </linearGradient>
  <linearGradient id="k" y2="7.0165" gradientUnits="userSpaceOnUse" x2="45.448" gradientTransform="matrix(1.0059 0 0 .99417 100 0)" y1="92.54" x1="45.448">
   <stop offset="0"/>
   <stop stop-opacity=".58824" offset="1"/>
  </linearGradient>
  <linearGradient id="aq" y2="6" xlink:href="#k" gradientUnits="userSpaceOnUse" x2="32.251" gradientTransform="translate(0,1)" y1="90" x1="32.251"/>
  <linearGradient id="ap" y2="5.9996" xlink:href="#k" gradientUnits="userSpaceOnUse" x2="32.251" gradientTransform="matrix(1.0238 0 0 1.0119 -1.1429 .929)" y1="90" x1="32.251"/>
  <linearGradient id="ao" y2="90.239" xlink:href="#k" gradientUnits="userSpaceOnUse" x2="32.251" gradientTransform="matrix(1.0238,0,0,-1.0119,-1.1429,98.071)" y1="6.1317" x1="32.251"/>
  <radialGradient id="at" xlink:href="#ah" gradientUnits="userSpaceOnUse" cy="90.172" cx="48" gradientTransform="matrix(1.1573 0 0 .99591 -7.551 .19713)" r="42"/>
  <linearGradient id="an" y2="63.893" xlink:href="#ah" gradientUnits="userSpaceOnUse" x2="36.357" y1="6" x1="36.357"/>
  <linearGradient id="am" y2="5.9877" gradientUnits="userSpaceOnUse" x2="48" y1="56.252" x1="48">
   <stop stop-color="#3465a4" offset="0"/>
   <stop stop-color="#729fcf" offset="1"/>
  </linearGradient>
  <linearGradient id="al" y2="7.2537" xlink:href="#a" gradientUnits="userSpaceOnUse" x2="-3.0608" gradientTransform="translate(22.119,44.742)" y1="27.258" x1="-3.0608"/>
  <linearGradient id="ak" y2="-9.8173" xlink:href="#b" gradientUnits="userSpaceOnUse" x2="11.375" gradientTransform="translate(11,51)" y1="22" x1="11.375"/>
  <linearGradient id="c" y2=".90025" gradientUnits="userSpaceOnUse" x2="5" gradientTransform="matrix(1.0172,0,0,1.0172,-1.1034,-1.1034)" y1="21" x1="5">
   <stop stop-color="#969696" offset="0"/>
   <stop stop-color="#cacaca" offset="1"/>
  </linearGradient>
  <linearGradient id="aj" y2="7.2537" xlink:href="#a" gradientUnits="userSpaceOnUse" x2="-3.0608" gradientTransform="translate(48.119,56.742)" y1="27.258" x1="-3.0608"/>
  <linearGradient id="ai" y2="7.2537" xlink:href="#a" gradientUnits="userSpaceOnUse" x2="-3.0608" gradientTransform="translate(74.119,56.742)" y1="27.258" x1="-3.0608"/>
  <linearGradient id="ay" y2="-9.8173" xlink:href="#b" gradientUnits="userSpaceOnUse" x2="11.375" gradientTransform="translate(63,63)" y1="22" x1="11.375"/>
  <linearGradient id="ax" y2="-9.8173" xlink:href="#b" gradientUnits="userSpaceOnUse" x2="11.375" gradientTransform="translate(37,63)" y1="22" x1="11.375"/>
 </defs>
 <g fill="url(#ao)">
  <path opacity="0.08" d="m12 95.031c-5.5111 0-10.031-4.52-10.031-10.031v-71c0-5.5111 4.5202-10.031 10.031-10.031h72c5.5111 0 10.031 4.5202 10.031 10.031v71c0 5.5111-4.5202 10.031-10.031 10.031h-72z"/>
  <path opacity=".1" d="m12 94.031c-4.9716 0-9.0312-4.0596-9.0312-9.0312v-71c0-4.9722 4.0596-9.0318 9.0312-9.0318h72c4.9716 0 9.0312 4.0596 9.0312 9.0312v71c0 4.9716-4.0596 9.0312-9.0312 9.0312h-72z"/>
  <path opacity=".2" d="m12 93c-4.4091 0-8-3.591-8-8v-71c0-4.4091 3.5909-8 8-8h72c4.4091 0 8 3.5909 8 8v71c0 4.4091-3.5909 8-8 8h-72z"/>
 </g>
 <rect opacity=".3" rx="7" ry="7" height="85" width="86" y="7" x="5" fill="url(#ap)"/>
 <rect opacity=".45" rx="6" ry="6" height="84" width="84" y="7" x="6" fill="url(#aq)"/>
 <rect rx="6" ry="6" height="84" width="84" y="6" x="6" fill="url(#am)"/>
 <path opacity=".3" d="m12 6c-3.324 0-6 2.676-6 6v72c0 0.33472 0.04135 0.6507 0.09375 0.96875 0.0487 0.2956 0.09704 0.59692 0.1875 0.875 0.00988 0.03038 0.020892 0.0636 0.03125 0.09375 0.098865 0.28777 0.23488 0.54745 0.375 0.8125 0.14459 0.27351 0.31562 0.53562 0.5 0.78125 0.18438 0.24564 0.37378 0.47347 0.59375 0.6875 0.43995 0.42806 0.94291 0.81453 1.5 1.0938 0.27854 0.13961 0.57347 0.24695 0.875 0.34375-0.2562-0.10022-0.48671-0.23627-0.71875-0.375-0.00741-0.0044-0.023866 0.0045-0.03125 0-0.0319-0.019-0.0622-0.042-0.0937-0.062-0.1204-0.077-0.231-0.164-0.3437-0.25-0.1062-0.081-0.2133-0.161-0.3126-0.25-0.1778-0.162-0.3473-0.346-0.4999-0.531-0.1075-0.131-0.2183-0.266-0.3124-0.407-0.0251-0.038-0.0385-0.086-0.0626-0.125-0.0647-0.103-0.1302-0.204-0.1874-0.312-0.1011-0.195-0.2057-0.416-0.2813-0.625-0.008-0.022-0.0236-0.041-0.0313-0.063-0.0318-0.092-0.0358-0.187-0.0624-0.281-0.0304-0.107-0.0704-0.203-0.0938-0.313-0.0729-0.341-0.125-0.698-0.125-1.062v-72c0-2.782 2.2182-5 5-5h72c2.7818 0 5 2.2182 5 5v72c0 0.3643-0.05212 0.72099-0.125 1.0625-0.04415 0.20689-0.08838 0.39766-0.15625 0.59375-0.0077 0.02195-0.0233 0.04069-0.03125 0.0625-0.06274 0.17374-0.13838 0.36745-0.21875 0.53125-0.04158 0.0828-0.07904 0.16995-0.125 0.25-0.0546 0.09721-0.12677 0.18835-0.1875 0.28125-0.09411 0.14096-0.20492 0.276-0.3125 0.40625-0.14317 0.17445-0.30314 0.347-0.46875 0.5-0.01117 0.0102-0.01998 0.02115-0.03125 0.03125-0.13839 0.12556-0.28509 0.23444-0.4375 0.34375-0.10257 0.07315-0.20432 0.15336-0.3125 0.21875-0.0074 0.0045-0.02384-0.0044-0.03125 0-0.23204 0.13873-0.46255 0.27478-0.71875 0.375 0.30153-0.0968 0.59646-0.20414 0.875-0.34375 0.55709-0.27922 1.0601-0.66569 1.5-1.0938 0.21997-0.21403 0.40937-0.44186 0.59375-0.6875s0.35541-0.50774 0.5-0.78125c0.14012-0.26505 0.27614-0.52473 0.375-0.8125 0.01041-0.03078 0.02133-0.06274 0.03125-0.09375 0.09046-0.27808 0.1388-0.5794 0.1875-0.875 0.053-0.318 0.094-0.634 0.094-0.969v-72c0-3.324-2.676-6-6-6h-72z" fill="url(#an)"/>
 <path opacity=".2" d="m12 90c-3.324 0-6-2.676-6-6v-72c0-0.33472 0.04135-0.6507 0.09375-0.96875 0.0487-0.2956 0.09704-0.59692 0.1875-0.875 0.0099-0.03 0.0209-0.063 0.0313-0.094 0.0989-0.2873 0.2349-0.547 0.375-0.812 0.1446-0.2735 0.3156-0.5356 0.5-0.7812 0.1844-0.2457 0.3738-0.4735 0.5937-0.6876 0.44-0.428 0.943-0.8145 1.5-1.0937 0.2786-0.1396 0.5735-0.2469 0.8748-0.3437-0.256 0.1002-0.4865 0.2362-0.7185 0.375-0.00741 0.0044-0.023866-0.0045-0.03125 0-0.031933 0.0193-0.062293 0.04251-0.09375 0.0625-0.1204 0.0767-0.23102 0.16351-0.34375 0.25-0.10617 0.0808-0.21328 0.16111-0.3125 0.25-0.1779 0.1614-0.3474 0.3453-0.5 0.5312-0.1075 0.1303-0.2183 0.2653-0.3124 0.4063-0.0251 0.0383-0.0385 0.0858-0.0626 0.125-0.0647 0.103-0.1302 0.2045-0.1874 0.3124-0.1011 0.1948-0.2057 0.4158-0.2813 0.625-0.008 0.0219-0.0236 0.0406-0.0313 0.0626-0.0318 0.0919-0.0358 0.1868-0.0624 0.2812-0.0304 0.1066-0.0704 0.203-0.0938 0.3125-0.0729 0.3415-0.125 0.6985-0.125 1.0625v72c0 2.7818 2.2182 5 5 5h72c2.7818 0 5-2.2182 5-5v-72c0-0.364-0.052-0.721-0.125-1.0625-0.044-0.2069-0.088-0.3977-0.156-0.5937-0.008-0.022-0.024-0.0407-0.031-0.0626-0.063-0.1737-0.139-0.3674-0.219-0.5312-0.042-0.0828-0.079-0.17-0.125-0.25-0.055-0.0972-0.127-0.1884-0.188-0.2812-0.094-0.141-0.205-0.276-0.312-0.4063-0.143-0.1745-0.303-0.347-0.469-0.5-0.011-0.0102-0.02-0.0211-0.031-0.0313-0.139-0.1255-0.285-0.2344-0.438-0.3437-0.102-0.0731-0.204-0.1534-0.312-0.2187-0.0074-0.0045-0.02384 0.0044-0.03125 0-0.23204-0.13873-0.46255-0.27478-0.71875-0.375 0.30153 0.0968 0.59646 0.20414 0.875 0.34375 0.55709 0.27922 1.0601 0.66569 1.5 1.0938 0.21997 0.21403 0.40937 0.44186 0.59375 0.6875s0.35541 0.50774 0.5 0.78125c0.14012 0.26505 0.27614 0.52473 0.375 0.8125 0.01041 0.03078 0.02133 0.06274 0.03125 0.09375 0.09046 0.27808 0.1388 0.5794 0.1875 0.875 0.053 0.318 0.094 0.634 0.094 0.969v72c0 3.324-2.676 6-6 6h-72z" fill="url(#at)"/>
 <rect opacity=".1" clip-path="url(#ar)" rx="12" ry="12" height="66" filter="url(#as)" width="66" stroke="#fff" stroke-linecap="round" y="15" x="15" stroke-width=".5" fill="url(#au)"/>
 <path opacity=".5" d="m6 56v28c0 3.324 2.676 6 6 6h72c3.324 0 6-2.676 6-6v-28h-84z" fill="url(#av)"/>
 <rect opacity=".6" height="1" width="84" y="56" x="6" fill="#fff"/>
 <rect opacity="0" height="1" width="84" y="56" x="6"/>
 <rect opacity=".3" height="4" width="84" y="52" x="6" fill="url(#aw)"/>
 <rect opacity=".3" rx="2.5" ry="2.5" height="21.5" width="21" y="51.5" x="11.5" fill="url(#ak)"/>
 <rect opacity=".5" rx="2.381" ry="2.3256" height="20" width="20" y="53" x="12"/>
 <rect fill-rule="evenodd" rx="2" ry="2" height="20" width="20" y="52" x="12" fill="url(#al)"/>
 <rect opacity=".15" transform="translate(11,51)" clip-path="url(#l)" rx="2" ry="2" height="16" filter="url(#ab)" width="16" y="3" x="3" fill="#fff"/>
 <path d="m0.78125 10.562 0.96875 0.657-0.25 0.4375-0.15625 0.5 0.0624 1.062 0.5938 0.281 0.7812-0.781 0.2813-0.407 0.09375-0.53125 1.125 0.25-0.03125 0.5 0.03125 0.5 0.46875 1h0.65625l0.4375-1 0.0625-0.5-0.03125-0.5 1.1249-0.25 0.0938 0.531 0.2812 0.407 0.7812 0.781 0.625-0.28125 0.03125-1.0625-0.15625-0.5-0.25-0.4375 0.9688-0.657 0.3125 0.438 0.40625 0.25 1.0312 0.4375 0.46875-0.46875-0.4375-1.0312-0.3125-0.40625-0.375-0.3125 0.625-0.9688 0.468 0.2812 0.438 0.125 1.125-0.0312 0.25-0.5938-0.75-0.8124-0.406-0.2188-0.531-0.1562 0.25-1.125 0.5 0.0312 0.468-0.0312 1.032-0.4688v-0.6567l-1.032-0.4375-0.468-0.0625-0.5 0.0625-0.25-1.0938 0.53125-0.15625 0.40625-0.25 0.75-0.8125-0.25-0.5937h-1.125l-0.4375 0.09375-0.46875 0.25-0.625-0.9375c-9.2758-21.675-17.039 17.937-9.6868 9.6577zm4.2812-10.312c2.7269 0 4.9375 2.2106 4.9375 4.9375s-2.2106 4.9375-4.9375 4.9375c-7.039-0.7273-5.197-9.717 0-9.875zm-0.0313 1.0625c-2.1216 0-3.8437 1.7221-3.8437 3.8437 0 2.1217 1.7221 3.8438 3.8437 3.8438 2.1217 0 3.8438-1.7221 3.8438-3.8438 0-2.1216-1.7221-3.8437-3.8438-3.8437zm0 1.7188c1.242 0 2.25 0.95205 2.25 2.125s-1.008 2.125-2.25 2.125-2.25-0.95205-2.25-2.125 1.008-2.125 2.25-2.125zm13.531 4.6562-0.65625 0.96875-0.1875 0.5-0.03 0.5313-1.219 0.0313-0.063-0.5626-0.156-0.4687-0.688-0.9687-0.687 0.125-0.25 1.1562 0.03125 0.53125 0.1875 0.53125-1.125 0.46875-0.28125-0.5-0.34375-0.375-1-0.625-0.5625 0.375 0.21875 1.1875 0.21875 0.46875 0.34375 0.40625-0.84375 0.875-0.407-0.344-0.5-0.25-1.1562-0.1875-0.375 0.59375 0.625 1 0.40625 0.3125 0.5 0.25-0.46875 1.1562-0.53125-0.1875h-0.5l-1.1562 0.25-0.15625 0.6875 1 0.65625 0.5 0.1875 0.53125 0.03125v1.2188l-0.53125 0.0625-0.5 0.15625-0.96875 0.6875 0.15625 0.6875 1.1562 0.25 0.5-0.03125 0.53125-0.1875 0.46875 1.1562-0.46875 0.25-0.4065 0.344c21.838 12.609 14.598-13.705 11.344-11.502l-0.343 0.4062-0.25 0.469-1.157-0.469 0.188-0.5 0.031-0.5312-0.281-1.1563-0.688-0.125zm-1.4375 3.7188c0.72958 0 1.4223 0.15408 2.0625 0.40625l-1.2188 2.375c-0.26864-0.07869-0.54977-0.125-0.84375-0.125-0.5829 0-1.1326 0.15026-1.5938 0.4375l-1.8125-1.9375c0.94634-0.71458 2.13-1.1562 3.4062-1.1562zm3.0938 0.9375c1.5392 1.0085 2.5625 2.7419 2.5625 4.7188 0 0.14764-0.02011 0.29269-0.03125 0.4375l-2.624-0.469c-0.011-0.94-0.439-1.768-1.125-2.312l1.2188-2.375zm-7.3438 1 1.8125 1.9375c-0.3633 0.49738-0.5625 1.1186-0.5625 1.7812 0 0.24463 0.0073 0.49099 0.0625 0.71875l-2.405 1.093c-0.19494-0.57162-0.3125-1.1753-0.3125-1.8125 0-1.4262 0.53276-2.7248 1.4062-3.7188zm4.25 2.75c0.53504 0 0.96875 0.43372 0.96875 0.96875 0 0.53504-0.43372 0.96875-0.96875 0.96875-0.53504 0-0.96875-0.43372-0.96875-0.96875 0-0.53504 0.43372-0.96875 0.96875-0.96875zm2.8125 2.0625 2.625 0.46875c-0.55993 1.9369-2.1538 3.463-4.125 3.9375l-0.34375-2.6562c0.84138-0.28535 1.5217-0.92622 1.8438-1.75zm-5.25 0.65625c0.51451 0.71465 1.3162 1.1961 2.25 1.25l0.375 2.6562c-0.05979 0.0019-0.12725-0.000001-0.1875 0-2.0715 0.000001-3.8919-1.1163-4.875-2.7812z" clip-path="url(#aa)" transform="translate(11,51)" fill="url(#c)"/>
 <path opacity=".2" d="m21.69 52.219-0.21875 0.1875 0.625 0.9375 0.46875-0.25 0.4375-0.09375h1.125l0.0937 0.25 0.15625-0.15625-0.25-0.59375h-1.125l-0.4375 0.09375-0.46875 0.25-0.40625-0.625zm-5.6562 0.09375c-2.1217 0-3.8438 1.7221-3.8438 3.8438 0 0.08492 0.0258 0.16645 0.0312 0.25 0.1303-2.004 1.7758-3.5938 3.8125-3.5938 2.0368 0 3.6822 1.5897 3.8125 3.5938 0.005-0.08355 0.0312-0.16508 0.0312-0.25 0-2.1217-1.7221-3.8438-3.8438-3.8438zm6.75 2.4688-0.0937 0.03125 0.25 1.0938 0.5-0.0625 0.46875 0.0625 1.0312 0.4375v-0.5l-1.0312-0.4375-0.46875-0.0625-0.5 0.0625-0.15625-0.625zm-8.9688 1.625c-0.0101 0.08156-0.0312 0.1659-0.0312 0.25 0 1.173 1.008 2.125 2.25 2.125s2.25-0.95205 2.25-2.125c0-0.0841-0.0212-0.16844-0.0312-0.25-0.1305 1.056-1.0658 1.875-2.2188 1.875-1.1529 0-2.0882-0.81904-2.2188-1.875zm7.1875 0.03125c-0.13175 2.6092-2.2955 4.6875-4.9375 4.6875-1.692 0.000001-3.1709-0.85784-4.0625-2.1562v0.5c0.89033 1.2931 2.3739 2.1563 4.0625 2.1562 2.7269 0 4.9375-2.2106 4.9375-4.9375 0-0.08488 0.004-0.16617 0-0.25zm1.7812 1.6875-0.0937 0.46875 0.53125 0.15625 0.40625 0.21875 0.59375 0.65625 0.15625-0.34375-0.75-0.8125-0.40625-0.21875-0.4375-0.125zm6.7812 0.5625-0.65625 0.96875-0.1875 0.5-0.0312 0.53125-1.2188 0.03125-0.0625-0.5625-0.15-0.468-0.6875-0.96875-0.6875 0.125-0.25 1.1562 0.0312 0.40625 0.21875-1.0625 0.6875-0.125 0.6875 0.96875 0.15625 0.46875 0.0625 0.5625 1.2188-0.03125 0.0312-0.53125 0.1875-0.5 0.65625-0.96875 0.6875 0.125 0.25 1.0625 0.0312-0.40625-0.28-1.157-0.6875-0.125zm-6.875 1.625-0.15625 0.09375 0.0937 0.4375 0.46875-0.3125 1 0.625 0.34375 0.375 0.28125 0.5 1.125-0.46875-0.15625-0.4375-0.96875 0.40625-0.28125-0.5-0.34375-0.375-0.4375-0.28125-0.65625 0.03125-0.3125-0.09375zm-1 0.34375-0.21875 0.3125 0.375 0.3125 0.3125 0.40625 0.28125 0.6875 0.15625-0.15625-0.4375-1.0312-0.3125-0.40625-0.15625-0.125zm10.312 0-0.28125 0.34375-0.25 0.46875-1-0.40625-0.15625 0.4375 1.1562 0.46875 0.25-0.46875 0.28125-0.34375v-0.5zm-11.594 1.9062-0.375 0.59375 0.15625 0.25 0.21875-0.34375 1.1562 0.1875 0.5 0.25 0.40625 0.34375 0.84375-0.875-0.21875-0.28125-0.625 0.65625-0.28125-0.21875-0.0625 0.0625-1.0312-0.4375-0.15625-0.09375-0.53125-0.09375zm-7.875 0.03125-0.0312 0.0625-0.15625 0.5 0.0312 0.40625 0.125-0.40625 0.25-0.4375-0.21875-0.125zm7.0938 0-0.21875 0.125 0.25 0.4375 0.15625 0.46875v-0.469l-0.15625-0.5-0.0312-0.0625zm10.344 0.65625-1 1.9375c-0.26864-0.07869-0.54977-0.125-0.84375-0.125-0.58291 0-1.1326 0.15026-1.5938 0.4375l-1.52-1.625c-0.0946 0.06312-0.19087 0.11925-0.28125 0.1875l1.8125 1.9375c0.46114-0.28724 1.0108-0.4375 1.5938-0.4375 0.29398 0 0.57511 0.04631 0.84375 0.125l1.2188-2.375c-0.07-0.028-0.15-0.038-0.22-0.063zm-14.71 0.281v0.25l0.0312-0.25h-0.0312zm1.625 0v0.15625l0.0312-0.15625h-0.0312zm4.5312 1.5938-0.3125 0.75-0.53125-0.1875h-0.5l-1.1562 0.25-0.15625 0.6875 0.0937 0.0625 0.0625-0.25 1.1562-0.25h0.5l0.53125 0.1875 0.46875-1.1562-0.15625-0.09375zm8.75 0.75-0.15625 0.34375c0.68574 0.54448 1.1138 1.3722 1.125 2.3125l0.875 0.15625v-0.5l-0.875-0.15625c-0.0103-0.86198-0.38054-1.615-0.96875-2.1562zm-4.65 0.719c-0.24217 0.43822-0.375 0.93265-0.375 1.4688 0 0.12232-0.009 0.25436 0 0.375 0.0231-0.61626 0.22181-1.1898 0.5625-1.6562l-0.1875-0.1875zm-3 1.7188c-0.004 0.08572-0.0312 0.1633-0.0312 0.25 0 0.63718 0.11756 1.2409 0.3125 1.8125l2.4062-1.0938c-0.0368-0.15184-0.0563-0.3064-0.0625-0.46875l-2.3438 1.0625c-0.16894-0.49522-0.2547-1.0182-0.2813-1.5625zm4.6875 0c-0.0223 0.08151-0.0312 0.16143-0.0312 0.25 0 0.53504 0.43371 0.96875 0.96875 0.96875 0.53503 0 0.96875-0.43372 0.96875-0.96875 0-0.08857-0.009-0.16849-0.0312-0.25-0.11222 0.41087-0.49104 0.71875-0.9375 0.71875-0.44647 0-0.82528-0.30788-0.9375-0.71875zm-6.4062 0.40625-0.53125 0.0625-0.5 0.15625-0.96875 0.6875 0.0937 0.4375 0.875-0.625 0.5-0.15625 0.53125-0.0625v-0.5zm2.72 2.593-0.25 0.126c0.11547 0.19555 0.23738 0.38301 0.375 0.5625h0.4375c-0.20566-0.21224-0.39189-0.44548-0.5625-0.6875zm5.6562 0.0625c-0.0221 0.0081-0.0401 0.02366-0.0625 0.03125l0.0625 0.59375h0.0937l-0.0937-0.625zm-7.7188 0.21875-0.3125 0.15625-0.28125 0.25h0.75l-0.155-0.406z"/>
 <path opacity=".5" d="m37.656 1c1.4 0.8715 2.344 2.417 2.344 4.1875 0 2.7269-2.211 4.9375-4.938 4.9375-1.688 0-3.172-0.8631-4.062-2.1562v2.75l0.75 0.5-0.25 0.4375-0.15625 0.5 0.0625 1.0625 0.594 0.281 0.78125-0.78125 0.28125-0.40625 0.09375-0.53125 1.125 0.25-0.03125 0.5 0.03125 0.5 0.46875 1h0.65625l0.4375-1 0.0625-0.5-0.03125-0.5 1.125-0.25 0.09375 0.53125 0.28125 0.40625 0.78125 0.78125 0.625-0.28125 0.03125-1.0625-0.15625-0.5-0.25-0.4375 0.969-0.657 0.313 0.438 0.40625 0.25 1.0312 0.4375 0.46875-0.46875-0.4375-1.0312-0.3125-0.40625-0.375-0.3125 0.625-0.9688 0.468 0.2812 0.438 0.125 1.125-0.0312 0.25-0.5938-0.75-0.8124-0.406-0.2188-0.531-0.1562 0.25-1.125 0.5 0.0312 0.468-0.0312 1.032-0.4688v-0.6562l-1.0312-0.4375-0.46875-0.0625-0.5 0.0625-0.25-1.0938 0.53125-0.15625 0.40625-0.25 0.75-0.8125-0.25-0.5937h-1.125l-0.438 0.0938-0.468 0.25-0.563-0.8438h-2.875zm-5.4375 0.15625c-0.45752 0.19287-0.82314 0.55084-1.0312 1 0.29499-0.37574 0.64102-0.72335 1.0312-1zm2.813 0.1563c-2.1217 0-3.8438 1.7221-3.8438 3.8438 0.002 2.1217 1.724 3.8438 3.845 3.8438 2.122 0 3.844-1.7221 3.844-3.8438 0-2.1216-1.722-3.8437-3.844-3.8437zm0 1.7188c1.242 0 2.25 0.95205 2.25 2.125s-1.008 2.125-2.25 2.125-2.25-0.95205-2.25-2.125 1.008-2.125 2.25-2.125zm13.531 4.6562-0.65625 0.96875-0.1875 0.5-0.03 0.5313-1.219 0.0313-0.063-0.5626-0.156-0.4687-0.688-0.9687-0.687 0.125-0.25 1.1562 0.03125 0.53125 0.1875 0.53125-1.125 0.46875-0.28125-0.5-0.34375-0.375-1-0.625-0.5625 0.375 0.21875 1.1875 0.21875 0.46875 0.34375 0.40625-0.84375 0.875-0.407-0.344-0.5-0.25-1.1562-0.1875-0.375 0.59375 0.625 1 0.40625 0.3125 0.5 0.25-0.46875 1.1562-0.53125-0.1875h-0.5l-1.1562 0.25-0.15625 0.6875 1 0.65625 0.5 0.1875 0.53125 0.03125v1.2188l-0.53125 0.0625-0.5 0.15625-0.96875 0.6875 0.15625 0.6875 1.1562 0.25 0.5-0.03125 0.532-0.187 0.469 1.156-0.469 0.25-0.281 0.25h3.218c-0.314-0.323-0.582-0.672-0.812-1.062l2.4375-1.125c0.51451 0.71465 1.3162 1.1961 2.25 1.25l0.124 0.937h1.188l-0.156-1.094c0.84138-0.28535 1.5217-0.92622 1.8438-1.75l1.062 0.188v-1.156l-0.875-0.157c-0.011-0.94-0.439-1.768-1.125-2.312l1.2188-2.375c0.2792 0.18294 0.53903 0.39724 0.78125 0.625v-3.3126l-0.281 0.3438-0.25 0.469-1.157-0.469 0.188-0.5 0.031-0.5312-0.281-1.1563-0.688-0.125zm-1.4375 3.7188c0.72958 0 1.4223 0.15408 2.0625 0.40625l-1.2188 2.375c-0.26864-0.07869-0.54977-0.125-0.84375-0.125-0.5829 0-1.1326 0.15026-1.5938 0.4375l-1.8125-1.9375c0.94634-0.71458 2.13-1.1562 3.4062-1.1562zm-4.25 1.9375 1.8125 1.9375c-0.3633 0.49738-0.5625 1.1186-0.5625 1.7812 0 0.24463 0.0073 0.49099 0.0625 0.71875l-2.405 1.093c-0.193-0.572-0.311-1.176-0.311-1.813 0-1.4262 0.53276-2.7248 1.4062-3.7188zm4.25 2.75c0.53504 0 0.96875 0.43372 0.96875 0.96875 0 0.53504-0.43372 0.96875-0.96875 0.96875-0.53504 0-0.96875-0.43372-0.96875-0.96875 0-0.53504 0.43372-0.96875 0.96875-0.96875z" clip-path="url(#m)" transform="translate(-19,51)" filter="url(#ag)" fill="#fff"/>
 <path opacity=".4" d="m14 52c-1.108 0-2 0.892-2 2v1c0-1.108 0.892-2 2-2h16c1.108 0 2 0.892 2 2v-1c0-1.108-0.892-2-2-2h-16z" fill-rule="evenodd" fill="#fff"/>
 <path opacity=".15" d="m14 72c-1.108 0-2-0.892-2-2v-1c0 1.108 0.892 2 2 2h16c1.108 0 2-0.892 2-2v1c0 1.108-0.892 2-2 2h-16z" fill-rule="evenodd"/>
 <path fill="#fff" d="m22.065 76.686-7.065 7.314 14-0.135-6.935-7.179z" fill-opacity=".67760"/>
 <rect opacity=".3" rx="2.5" ry="2.5" height="21.5" width="21" y="63.5" x="37.5" fill="url(#ax)"/>
 <rect opacity=".5" rx="2.381" ry="2.3256" height="20" width="20" y="65" x="38"/>
 <rect fill-rule="evenodd" rx="2" ry="2" height="20" width="20" y="64" x="38" fill="url(#aj)"/>
 <rect opacity=".15" transform="translate(37,63)" clip-path="url(#l)" rx="2" ry="2" height="16" filter="url(#ab)" width="16" y="3" x="3" fill="#fff"/>
 <path d="m0.78125 10.562 0.96875 0.657-0.25 0.4375-0.15625 0.5 0.0624 1.062 0.5938 0.281 0.7812-0.781 0.2813-0.407 0.09375-0.53125 1.125 0.25-0.03125 0.5 0.03125 0.5 0.46875 1h0.65625l0.4375-1 0.0625-0.5-0.03125-0.5 1.1249-0.25 0.0938 0.531 0.2812 0.407 0.7812 0.781 0.625-0.28125 0.03125-1.0625-0.15625-0.5-0.25-0.4375 0.9688-0.657 0.3125 0.438 0.40625 0.25 1.0312 0.4375 0.46875-0.46875-0.4375-1.0312-0.3125-0.40625-0.375-0.3125 0.625-0.9688 0.468 0.2812 0.438 0.125 1.125-0.0312 0.25-0.5938-0.75-0.8124-0.406-0.2188-0.531-0.1562 0.25-1.125 0.5 0.0312 0.468-0.0312 1.032-0.4688v-0.6567l-1.032-0.4375-0.468-0.0625-0.5 0.0625-0.25-1.0938 0.53125-0.15625 0.40625-0.25 0.75-0.8125-0.25-0.5937h-1.125l-0.4375 0.09375-0.46875 0.25-0.625-0.9375c-11.73-8.8645-12.944 13.469-9.6868 9.6577zm4.2812-10.312c2.7269 0 4.9375 2.2106 4.9375 4.9375s-2.2106 4.9375-4.9375 4.9375-4.9375-2.2106-4.9375-4.9375 2.2106-4.9375 4.9375-4.9375zm-0.0313 1.0625c-2.1216 0-3.8437 1.7221-3.8437 3.8437 0 2.1217 1.7221 3.8438 3.8437 3.8438 2.1217 0 3.8438-1.7221 3.8438-3.8438 0-2.1216-1.7221-3.8437-3.8438-3.8437zm0 1.7188c1.242 0 2.25 0.95205 2.25 2.125s-1.008 2.125-2.25 2.125-2.25-0.95205-2.25-2.125 1.008-2.125 2.25-2.125zm13.531 4.6562-0.65625 0.96875-0.1875 0.5-0.03 0.5313-1.219 0.0313-0.063-0.5626-0.156-0.4687-0.688-0.9687-0.687 0.125-0.25 1.1562 0.03125 0.53125 0.1875 0.53125-1.125 0.46875-0.28125-0.5-0.34375-0.375-1-0.625-0.5625 0.375 0.21875 1.1875 0.21875 0.46875 0.34375 0.40625-0.84375 0.875-0.407-0.344-0.5-0.25-1.1562-0.1875-0.375 0.59375 0.625 1 0.40625 0.3125 0.5 0.25-0.46875 1.1562-0.53125-0.1875h-0.5l-1.1562 0.25-0.15625 0.6875 1 0.65625 0.5 0.1875 0.53125 0.03125v1.2188l-0.53125 0.0625-0.5 0.15625-0.96875 0.6875 0.15625 0.6875 1.1562 0.25 0.5-0.03125 0.53125-0.1875 0.46875 1.1562-0.46875 0.25-0.4065 0.344c20.224 14.466 13.608-13.035 11.344-11.502l-0.343 0.4062-0.25 0.469-1.157-0.469 0.188-0.5 0.031-0.5312-0.281-1.1563-0.688-0.125zm-1.4375 3.7188c0.72958 0 1.4223 0.15408 2.0625 0.40625l-1.2188 2.375c-0.26864-0.07869-0.54977-0.125-0.84375-0.125-0.5829 0-1.1326 0.15026-1.5938 0.4375l-1.8125-1.9375c0.94634-0.71458 2.13-1.1562 3.4062-1.1562zm3.0938 0.9375c1.5392 1.0085 2.5625 2.7419 2.5625 4.7188 0 0.14764-0.02011 0.29269-0.03125 0.4375l-2.624-0.469c-0.011-0.94-0.439-1.768-1.125-2.312l1.2188-2.375zm-7.3438 1 1.8125 1.9375c-0.3633 0.49738-0.5625 1.1186-0.5625 1.7812 0 0.24463 0.0073 0.49099 0.0625 0.71875l-2.405 1.093c-0.19494-0.57162-0.3125-1.1753-0.3125-1.8125 0-1.4262 0.53276-2.7248 1.4062-3.7188zm4.25 2.75c0.53504 0 0.96875 0.43372 0.96875 0.96875 0 0.53504-0.43372 0.96875-0.96875 0.96875-0.53504 0-0.96875-0.43372-0.96875-0.96875 0-0.53504 0.43372-0.96875 0.96875-0.96875zm2.8125 2.0625 2.625 0.46875c-0.55993 1.9369-2.1538 3.463-4.125 3.9375l-0.34375-2.6562c0.84138-0.28535 1.5217-0.92622 1.8438-1.75zm-5.25 0.65625c0.51451 0.71465 1.3162 1.1961 2.25 1.25l0.375 2.6562c-0.05979 0.0019-0.12725-0.000001-0.1875 0-2.0715 0.000001-3.8919-1.1163-4.875-2.7812z" clip-path="url(#aa)" transform="translate(37,63)" fill="url(#c)"/>
 <path opacity=".2" d="m47.69 64.219-0.21875 0.1875 0.625 0.9375 0.46875-0.25 0.4375-0.09375h1.125l0.0937 0.25 0.15625-0.15625-0.25-0.59375h-1.125l-0.4375 0.09375-0.46875 0.25-0.40625-0.625zm-5.6562 0.09375c-2.1217 0-3.8438 1.7221-3.8438 3.8438 0 0.08492 0.0258 0.16645 0.0312 0.25 0.1303-2.004 1.7758-3.5938 3.8125-3.5938 2.0368 0 3.6822 1.5897 3.8125 3.5938 0.005-0.08355 0.0312-0.16508 0.0312-0.25 0-2.1217-1.7221-3.8438-3.8438-3.8438zm6.75 2.4688-0.0937 0.03125 0.25 1.0938 0.5-0.0625 0.46875 0.0625 1.0312 0.4375v-0.5l-1.0312-0.4375-0.46875-0.0625-0.5 0.0625-0.15625-0.625zm-8.9688 1.625c-0.0101 0.08156-0.0312 0.1659-0.0312 0.25 0 1.173 1.008 2.125 2.25 2.125s2.25-0.95205 2.25-2.125c0-0.0841-0.0212-0.16844-0.0312-0.25-0.1305 1.056-1.0658 1.875-2.2188 1.875-1.1529 0-2.0882-0.81904-2.2188-1.875zm7.1875 0.03125c-0.13175 2.6092-2.2955 4.6875-4.9375 4.6875-1.692 0.000001-3.1709-0.85784-4.0625-2.1562v0.5c0.89033 1.2931 2.3739 2.1563 4.0625 2.1562 2.7269 0 4.9375-2.2106 4.9375-4.9375 0-0.08488 0.004-0.16617 0-0.25zm1.7812 1.6875-0.0937 0.46875 0.53125 0.15625 0.40625 0.21875 0.59375 0.65625 0.15625-0.34375-0.75-0.8125-0.40625-0.21875-0.4375-0.125zm6.7812 0.5625-0.65625 0.96875-0.1875 0.5-0.0312 0.53125-1.2188 0.03125-0.0625-0.5625-0.15-0.468-0.6875-0.96875-0.6875 0.125-0.25 1.1562 0.0312 0.40625 0.21875-1.0625 0.6875-0.125 0.6875 0.96875 0.15625 0.46875 0.0625 0.5625 1.2188-0.03125 0.0312-0.53125 0.1875-0.5 0.65625-0.96875 0.6875 0.125 0.25 1.0625 0.0312-0.40625-0.28-1.157-0.6875-0.125zm-6.875 1.625-0.15625 0.09375 0.0937 0.4375 0.46875-0.3125 1 0.625 0.34375 0.375 0.28125 0.5 1.125-0.46875-0.15625-0.4375-0.96875 0.40625-0.28125-0.5-0.34375-0.375-0.4375-0.28125-0.65625 0.03125-0.3125-0.09375zm-1 0.34375-0.21875 0.3125 0.375 0.3125 0.3125 0.40625 0.28125 0.6875 0.15625-0.15625-0.4375-1.0312-0.3125-0.40625-0.15625-0.125zm10.312 0-0.28125 0.34375-0.25 0.46875-1-0.40625-0.15625 0.4375 1.1562 0.46875 0.25-0.46875 0.28125-0.34375v-0.5zm-11.594 1.9062-0.375 0.59375 0.15625 0.25 0.21875-0.34375 1.1562 0.1875 0.5 0.25 0.40625 0.34375 0.84375-0.875-0.21875-0.28125-0.625 0.65625-0.28125-0.21875-0.0625 0.0625-1.0312-0.4375-0.15625-0.09375-0.53125-0.09375zm-7.875 0.03125-0.0312 0.0625-0.15625 0.5 0.0312 0.40625 0.125-0.40625 0.25-0.4375-0.21875-0.125zm7.0938 0-0.21875 0.125 0.25 0.4375 0.15625 0.46875v-0.469l-0.15625-0.5-0.0312-0.0625zm10.344 0.65625-1 1.9375c-0.26864-0.07869-0.54977-0.125-0.84375-0.125-0.58291 0-1.1326 0.15026-1.5938 0.4375l-1.52-1.625c-0.0946 0.06312-0.19087 0.11925-0.28125 0.1875l1.8125 1.9375c0.46114-0.28724 1.0108-0.4375 1.5938-0.4375 0.29398 0 0.57511 0.04631 0.84375 0.125l1.2188-2.375c-0.07-0.028-0.15-0.038-0.22-0.063zm-14.71 0.281v0.25l0.0312-0.25h-0.0312zm1.625 0v0.15625l0.0312-0.15625h-0.0312zm4.5312 1.5938-0.3125 0.75-0.53125-0.1875h-0.5l-1.1562 0.25-0.15625 0.6875 0.0937 0.0625 0.0625-0.25 1.1562-0.25h0.5l0.53125 0.1875 0.46875-1.1562-0.15625-0.09375zm8.75 0.75-0.15625 0.34375c0.68574 0.54448 1.1138 1.3722 1.125 2.3125l0.875 0.15625v-0.5l-0.875-0.15625c-0.0103-0.86198-0.38054-1.615-0.96875-2.1562zm-4.65 0.719c-0.24217 0.43822-0.375 0.93265-0.375 1.4688 0 0.12232-0.009 0.25436 0 0.375 0.0231-0.61626 0.22181-1.1898 0.5625-1.6562l-0.1875-0.1875zm-3 1.7188c-0.004 0.08572-0.0312 0.1633-0.0312 0.25 0 0.63718 0.11756 1.2409 0.3125 1.8125l2.4062-1.0938c-0.0368-0.15184-0.0563-0.3064-0.0625-0.46875l-2.3438 1.0625c-0.16894-0.49522-0.2547-1.0182-0.2813-1.5625zm4.6875 0c-0.0223 0.08151-0.0312 0.16143-0.0312 0.25 0 0.53504 0.43371 0.96875 0.96875 0.96875 0.53503 0 0.96875-0.43372 0.96875-0.96875 0-0.08857-0.009-0.16849-0.0312-0.25-0.11222 0.41087-0.49104 0.71875-0.9375 0.71875-0.44647 0-0.82528-0.30788-0.9375-0.71875zm-6.4062 0.40625-0.53125 0.0625-0.5 0.15625-0.96875 0.6875 0.0937 0.4375 0.875-0.625 0.5-0.15625 0.53125-0.0625v-0.5zm2.72 2.593-0.25 0.126c0.11547 0.19555 0.23738 0.38301 0.375 0.5625h0.4375c-0.20566-0.21224-0.39189-0.44548-0.5625-0.6875zm5.6562 0.0625c-0.0221 0.0081-0.0401 0.02366-0.0625 0.03125l0.0625 0.59375h0.0937l-0.0937-0.625zm-7.7188 0.21875-0.3125 0.15625-0.28125 0.25h0.75l-0.155-0.406z"/>
 <path opacity=".5" d="m37.656 1c1.4 0.8715 2.344 2.417 2.344 4.1875 0 2.7269-2.211 4.9375-4.938 4.9375-1.688 0-3.172-0.8631-4.062-2.1562v2.75l0.75 0.5-0.25 0.4375-0.15625 0.5 0.0625 1.0625 0.594 0.281 0.78125-0.78125 0.28125-0.40625 0.09375-0.53125 1.125 0.25-0.03125 0.5 0.03125 0.5 0.46875 1h0.65625l0.4375-1 0.0625-0.5-0.03125-0.5 1.125-0.25 0.09375 0.53125 0.28125 0.40625 0.78125 0.78125 0.625-0.28125 0.03125-1.0625-0.15625-0.5-0.25-0.4375 0.969-0.657 0.313 0.438 0.40625 0.25 1.0312 0.4375 0.46875-0.46875-0.4375-1.0312-0.3125-0.40625-0.375-0.3125 0.625-0.9688 0.468 0.2812 0.438 0.125 1.125-0.0312 0.25-0.5938-0.75-0.8124-0.406-0.2188-0.531-0.1562 0.25-1.125 0.5 0.0312 0.468-0.0312 1.032-0.4688v-0.6562l-1.0312-0.4375-0.46875-0.0625-0.5 0.0625-0.25-1.0938 0.53125-0.15625 0.40625-0.25 0.75-0.8125-0.25-0.5937h-1.125l-0.438 0.0938-0.468 0.25-0.563-0.8438h-2.875zm-5.4375 0.15625c-0.45752 0.19287-0.82314 0.55084-1.0312 1 0.29499-0.37574 0.64102-0.72335 1.0312-1zm2.813 0.1563c-2.1217 0-3.8438 1.7221-3.8438 3.8438 0.002 2.1217 1.724 3.8438 3.845 3.8438 2.122 0 3.844-1.7221 3.844-3.8438 0-2.1216-1.722-3.8437-3.844-3.8437zm0 1.7188c1.242 0 2.25 0.95205 2.25 2.125s-1.008 2.125-2.25 2.125-2.25-0.95205-2.25-2.125 1.008-2.125 2.25-2.125zm13.531 4.6562-0.65625 0.96875-0.1875 0.5-0.03 0.5313-1.219 0.0313-0.063-0.5626-0.156-0.4687-0.688-0.9687-0.687 0.125-0.25 1.1562 0.03125 0.53125 0.1875 0.53125-1.125 0.46875-0.28125-0.5-0.34375-0.375-1-0.625-0.5625 0.375 0.21875 1.1875 0.21875 0.46875 0.34375 0.40625-0.84375 0.875-0.407-0.344-0.5-0.25-1.1562-0.1875-0.375 0.59375 0.625 1 0.40625 0.3125 0.5 0.25-0.46875 1.1562-0.53125-0.1875h-0.5l-1.1562 0.25-0.15625 0.6875 1 0.65625 0.5 0.1875 0.53125 0.03125v1.2188l-0.53125 0.0625-0.5 0.15625-0.96875 0.6875 0.15625 0.6875 1.1562 0.25 0.5-0.03125 0.532-0.187 0.469 1.156-0.469 0.25-0.281 0.25h3.218c-0.314-0.323-0.582-0.672-0.812-1.062l2.4375-1.125c0.51451 0.71465 1.3162 1.1961 2.25 1.25l0.124 0.937h1.188l-0.156-1.094c0.84138-0.28535 1.5217-0.92622 1.8438-1.75l1.062 0.188v-1.156l-0.875-0.157c-0.011-0.94-0.439-1.768-1.125-2.312l1.2188-2.375c0.2792 0.18294 0.53903 0.39724 0.78125 0.625v-3.3126l-0.281 0.3438-0.25 0.469-1.157-0.469 0.188-0.5 0.031-0.5312-0.281-1.1563-0.688-0.125zm-1.4375 3.7188c0.72958 0 1.4223 0.15408 2.0625 0.40625l-1.2188 2.375c-0.26864-0.07869-0.54977-0.125-0.84375-0.125-0.5829 0-1.1326 0.15026-1.5938 0.4375l-1.8125-1.9375c0.94634-0.71458 2.13-1.1562 3.4062-1.1562zm-4.25 1.9375 1.8125 1.9375c-0.3633 0.49738-0.5625 1.1186-0.5625 1.7812 0 0.24463 0.0073 0.49099 0.0625 0.71875l-2.405 1.093c-0.193-0.572-0.311-1.176-0.311-1.813 0-1.4262 0.53276-2.7248 1.4062-3.7188zm4.25 2.75c0.53504 0 0.96875 0.43372 0.96875 0.96875 0 0.53504-0.43372 0.96875-0.96875 0.96875-0.53504 0-0.96875-0.43372-0.96875-0.96875 0-0.53504 0.43372-0.96875 0.96875-0.96875z" clip-path="url(#m)" transform="translate(7,63)" filter="url(#ag)" fill="#fff"/>
 <path opacity=".4" d="m40 64c-1.108 0-2 0.892-2 2v1c0-1.108 0.892-2 2-2h16c1.108 0 2 0.892 2 2v-1c0-1.108-0.892-2-2-2h-16z" fill-rule="evenodd" fill="#fff"/>
 <path opacity=".15" d="m40 84c-1.108 0-2-0.892-2-2v-1c0 1.108 0.892 2 2 2h16c1.108 0 2-0.892 2-2v1c0 1.108-0.892 2-2 2h-16z" fill-rule="evenodd"/>
 <rect opacity=".3" rx="2.5" ry="2.5" height="21.5" width="21" y="63.5" x="63.5" fill="url(#ay)"/>
 <rect opacity=".5" rx="2.381" ry="2.3256" height="20" width="20" y="65" x="64"/>
 <rect fill-rule="evenodd" rx="2" ry="2" height="20" width="20" y="64" x="64" fill="url(#ai)"/>
 <rect opacity=".15" transform="translate(63,63)" clip-path="url(#l)" rx="2" ry="2" height="16" filter="url(#ab)" width="16" y="3" x="3" fill="#fff"/>
 <path d="m0.78125 10.562 0.96875 0.657-0.25 0.4375-0.15625 0.5 0.0624 1.062 0.5938 0.281 0.7812-0.781 0.2813-0.407 0.09375-0.53125 1.125 0.25-0.03125 0.5 0.03125 0.5 0.46875 1h0.65625l0.4375-1 0.0625-0.5-0.03125-0.5 1.1249-0.25 0.0938 0.531 0.2812 0.407 0.7812 0.781 0.625-0.28125 0.03125-1.0625-0.15625-0.5-0.25-0.4375 0.9688-0.657 0.3125 0.438 0.40625 0.25 1.0312 0.4375 0.46875-0.46875-0.4375-1.0312-0.3125-0.40625-0.375-0.3125 0.625-0.9688 0.468 0.2812 0.438 0.125 1.125-0.0312 0.25-0.5938-0.75-0.8124-0.406-0.2188-0.531-0.1562 0.25-1.125 0.5 0.0312 0.468-0.0312 1.032-0.4688v-0.6567l-1.032-0.4375-0.468-0.0625-0.5 0.0625-0.25-1.0938 0.53125-0.15625 0.40625-0.25 0.75-0.8125-0.25-0.5937h-1.125l-0.4375 0.09375-0.46875 0.25-0.625-0.9375c-11.011-5.309-15.881 10.482-9.6868 9.6577zm4.2812-10.312c2.7269 0 4.9375 2.2106 4.9375 4.9375s-2.2106 4.9375-4.9375 4.9375-4.9375-2.2106-4.9375-4.9375 2.2106-4.9375 4.9375-4.9375zm-0.0313 1.0625c-2.1216 0-3.8437 1.7221-3.8437 3.8437 0 2.1217 1.7221 3.8438 3.8437 3.8438 2.1217 0 3.8438-1.7221 3.8438-3.8438 0-2.1216-1.7221-3.8437-3.8438-3.8437zm0 1.7188c1.242 0 2.25 0.95205 2.25 2.125s-1.008 2.125-2.25 2.125-2.25-0.95205-2.25-2.125 1.008-2.125 2.25-2.125zm13.531 4.6562-0.65625 0.96875-0.1875 0.5-0.03 0.5313-1.219 0.0313-0.063-0.5626-0.156-0.4687-0.688-0.9687-0.687 0.125-0.25 1.1562 0.03125 0.53125 0.1875 0.53125-1.125 0.46875-0.28125-0.5-0.34375-0.375-1-0.625-0.5625 0.375 0.21875 1.1875 0.21875 0.46875 0.34375 0.40625-0.84375 0.875-0.407-0.344-0.5-0.25-1.1562-0.1875-0.375 0.59375 0.625 1 0.40625 0.3125 0.5 0.25-0.46875 1.1562-0.53125-0.1875h-0.5l-1.1562 0.25-0.15625 0.6875 1 0.65625 0.5 0.1875 0.53125 0.03125v1.2188l-0.53125 0.0625-0.5 0.15625-0.96875 0.6875 0.15625 0.6875 1.1562 0.25 0.5-0.03125 0.53125-0.1875 0.46875 1.1562-0.46875 0.25-0.4065 0.344c9.3925 18.238 16.936-12.288 11.344-11.502l-0.343 0.4062-0.25 0.469-1.157-0.469 0.188-0.5 0.031-0.5312-0.281-1.1563-0.688-0.125zm-1.4375 3.7188c0.72958 0 1.4223 0.15408 2.0625 0.40625l-1.2188 2.375c-0.26864-0.07869-0.54977-0.125-0.84375-0.125-0.5829 0-1.1326 0.15026-1.5938 0.4375l-1.8125-1.9375c0.94634-0.71458 2.13-1.1562 3.4062-1.1562zm3.0938 0.9375c1.5392 1.0085 2.5625 2.7419 2.5625 4.7188 0 0.14764-0.02011 0.29269-0.03125 0.4375l-2.624-0.469c-0.011-0.94-0.439-1.768-1.125-2.312l1.2188-2.375zm-7.3438 1 1.8125 1.9375c-0.3633 0.49738-0.5625 1.1186-0.5625 1.7812 0 0.24463 0.0073 0.49099 0.0625 0.71875l-2.405 1.093c-0.19494-0.57162-0.3125-1.1753-0.3125-1.8125 0-1.4262 0.53276-2.7248 1.4062-3.7188zm4.25 2.75c0.53504 0 0.96875 0.43372 0.96875 0.96875 0 0.53504-0.43372 0.96875-0.96875 0.96875-0.53504 0-0.96875-0.43372-0.96875-0.96875 0-0.53504 0.43372-0.96875 0.96875-0.96875zm2.8125 2.0625 2.625 0.46875c-0.55993 1.9369-2.1538 3.463-4.125 3.9375l-0.34375-2.6562c0.84138-0.28535 1.5217-0.92622 1.8438-1.75zm-5.25 0.65625c0.51451 0.71465 1.3162 1.1961 2.25 1.25l0.375 2.6562c-0.05979 0.0019-0.12725-0.000001-0.1875 0-2.0715 0.000001-3.8919-1.1163-4.875-2.7812z" clip-path="url(#aa)" transform="translate(63,63)" fill="url(#c)"/>
 <path opacity=".2" d="m73.69 64.219-0.21875 0.1875 0.625 0.9375 0.46875-0.25 0.4375-0.09375h1.125l0.0937 0.25 0.15625-0.15625-0.25-0.59375h-1.125l-0.4375 0.09375-0.46875 0.25-0.40625-0.625zm-5.6562 0.09375c-2.1217 0-3.8438 1.7221-3.8438 3.8438 0 0.08492 0.0258 0.16645 0.0312 0.25 0.1303-2.004 1.7758-3.5938 3.8125-3.5938 2.0368 0 3.6822 1.5897 3.8125 3.5938 0.005-0.08355 0.0312-0.16508 0.0312-0.25 0-2.1217-1.7221-3.8438-3.8438-3.8438zm6.75 2.4688-0.0937 0.03125 0.25 1.0938 0.5-0.0625 0.46875 0.0625 1.0312 0.4375v-0.5l-1.0312-0.4375-0.46875-0.0625-0.5 0.0625-0.15625-0.625zm-8.9688 1.625c-0.0101 0.08156-0.0312 0.1659-0.0312 0.25 0 1.173 1.008 2.125 2.25 2.125s2.25-0.95205 2.25-2.125c0-0.0841-0.0212-0.16844-0.0312-0.25-0.1305 1.056-1.0658 1.875-2.2188 1.875-1.1529 0-2.0882-0.81904-2.2188-1.875zm7.1875 0.03125c-0.13175 2.6092-2.2955 4.6875-4.9375 4.6875-1.692 0.000001-3.1709-0.85784-4.0625-2.1562v0.5c0.89033 1.2931 2.3739 2.1563 4.0625 2.1562 2.7269 0 4.9375-2.2106 4.9375-4.9375 0-0.08488 0.004-0.16617 0-0.25zm1.7812 1.6875-0.0937 0.46875 0.53125 0.15625 0.40625 0.21875 0.59375 0.65625 0.15625-0.34375-0.75-0.8125-0.40625-0.21875-0.4375-0.125zm6.7812 0.5625-0.65625 0.96875-0.1875 0.5-0.0312 0.53125-1.2188 0.03125-0.0625-0.5625-0.15-0.468-0.6875-0.96875-0.6875 0.125-0.25 1.1562 0.0312 0.40625 0.21875-1.0625 0.6875-0.125 0.6875 0.96875 0.15625 0.46875 0.0625 0.5625 1.2188-0.03125 0.0312-0.53125 0.1875-0.5 0.65625-0.96875 0.6875 0.125 0.25 1.0625 0.0312-0.40625-0.28-1.157-0.6875-0.125zm-6.875 1.625-0.15625 0.09375 0.0937 0.4375 0.46875-0.3125 1 0.625 0.34375 0.375 0.28125 0.5 1.125-0.46875-0.15625-0.4375-0.96875 0.40625-0.28125-0.5-0.34375-0.375-0.4375-0.28125-0.65625 0.03125-0.3125-0.09375zm-1 0.34375-0.21875 0.3125 0.375 0.3125 0.3125 0.40625 0.28125 0.6875 0.15625-0.15625-0.4375-1.0312-0.3125-0.40625-0.15625-0.125zm10.312 0-0.28125 0.34375-0.25 0.46875-1-0.40625-0.15625 0.4375 1.1562 0.46875 0.25-0.46875 0.28125-0.34375v-0.5zm-11.594 1.9062-0.375 0.59375 0.15625 0.25 0.21875-0.34375 1.1562 0.1875 0.5 0.25 0.40625 0.34375 0.84375-0.875-0.21875-0.28125-0.625 0.65625-0.28125-0.21875-0.0625 0.0625-1.0312-0.4375-0.15625-0.09375-0.53125-0.09375zm-7.875 0.03125-0.0312 0.0625-0.15625 0.5 0.0312 0.40625 0.125-0.40625 0.25-0.4375-0.21875-0.125zm7.0938 0-0.21875 0.125 0.25 0.4375 0.15625 0.46875v-0.469l-0.15625-0.5-0.0312-0.0625zm10.344 0.65625-1 1.9375c-0.26864-0.07869-0.54977-0.125-0.84375-0.125-0.58291 0-1.1326 0.15026-1.5938 0.4375l-1.52-1.625c-0.0946 0.06312-0.19087 0.11925-0.28125 0.1875l1.8125 1.9375c0.46114-0.28724 1.0108-0.4375 1.5938-0.4375 0.29398 0 0.57511 0.04631 0.84375 0.125l1.2188-2.375c-0.07-0.028-0.15-0.038-0.22-0.063zm-14.71 0.281v0.25l0.0312-0.25h-0.0312zm1.625 0v0.15625l0.0312-0.15625h-0.0312zm4.5312 1.5938-0.3125 0.75-0.53125-0.1875h-0.5l-1.1562 0.25-0.15625 0.6875 0.0937 0.0625 0.0625-0.25 1.1562-0.25h0.5l0.53125 0.1875 0.46875-1.1562-0.15625-0.09375zm8.75 0.75-0.15625 0.34375c0.68574 0.54448 1.1138 1.3722 1.125 2.3125l0.875 0.15625v-0.5l-0.875-0.15625c-0.0103-0.86198-0.38054-1.615-0.96875-2.1562zm-4.65 0.719c-0.24217 0.43822-0.375 0.93265-0.375 1.4688 0 0.12232-0.009 0.25436 0 0.375 0.0231-0.61626 0.22181-1.1898 0.5625-1.6562l-0.1875-0.1875zm-3 1.7188c-0.004 0.08572-0.0312 0.1633-0.0312 0.25 0 0.63718 0.11756 1.2409 0.3125 1.8125l2.4062-1.0938c-0.0368-0.15184-0.0563-0.3064-0.0625-0.46875l-2.3438 1.0625c-0.16894-0.49522-0.2547-1.0182-0.2813-1.5625zm4.6875 0c-0.0223 0.08151-0.0312 0.16143-0.0312 0.25 0 0.53504 0.43371 0.96875 0.96875 0.96875 0.53503 0 0.96875-0.43372 0.96875-0.96875 0-0.08857-0.009-0.16849-0.0312-0.25-0.11222 0.41087-0.49104 0.71875-0.9375 0.71875-0.44647 0-0.82528-0.30788-0.9375-0.71875zm-6.4062 0.40625-0.53125 0.0625-0.5 0.15625-0.96875 0.6875 0.0937 0.4375 0.875-0.625 0.5-0.15625 0.53125-0.0625v-0.5zm2.72 2.593-0.25 0.126c0.11547 0.19555 0.23738 0.38301 0.375 0.5625h0.4375c-0.20566-0.21224-0.39189-0.44548-0.5625-0.6875zm5.6562 0.0625c-0.0221 0.0081-0.0401 0.02366-0.0625 0.03125l0.0625 0.59375h0.0937l-0.0937-0.625zm-7.7188 0.21875-0.3125 0.15625-0.28125 0.25h0.75l-0.155-0.406z"/>
 <path opacity=".5" d="m37.656 1c1.4 0.8715 2.344 2.417 2.344 4.1875 0 2.7269-2.211 4.9375-4.938 4.9375-1.688 0-3.172-0.8631-4.062-2.1562v2.75l0.75 0.5-0.25 0.4375-0.15625 0.5 0.0625 1.0625 0.594 0.281 0.78125-0.78125 0.28125-0.40625 0.09375-0.53125 1.125 0.25-0.03125 0.5 0.03125 0.5 0.46875 1h0.65625l0.4375-1 0.0625-0.5-0.03125-0.5 1.125-0.25 0.09375 0.53125 0.28125 0.40625 0.78125 0.78125 0.625-0.28125 0.03125-1.0625-0.15625-0.5-0.25-0.4375 0.969-0.657 0.313 0.438 0.40625 0.25 1.0312 0.4375 0.46875-0.46875-0.4375-1.0312-0.3125-0.40625-0.375-0.3125 0.625-0.9688 0.468 0.2812 0.438 0.125 1.125-0.0312 0.25-0.5938-0.75-0.8124-0.406-0.2188-0.531-0.1562 0.25-1.125 0.5 0.0312 0.468-0.0312 1.032-0.4688v-0.6562l-1.0312-0.4375-0.46875-0.0625-0.5 0.0625-0.25-1.0938 0.53125-0.15625 0.40625-0.25 0.75-0.8125-0.25-0.5937h-1.125l-0.438 0.0938-0.468 0.25-0.563-0.8438h-2.875zm-5.4375 0.15625c-0.45752 0.19287-0.82314 0.55084-1.0312 1 0.29499-0.37574 0.64102-0.72335 1.0312-1zm2.813 0.1563c-2.1217 0-3.8438 1.7221-3.8438 3.8438 0.002 2.1217 1.724 3.8438 3.845 3.8438 2.122 0 3.844-1.7221 3.844-3.8438 0-2.1216-1.722-3.8437-3.844-3.8437zm0 1.7188c1.242 0 2.25 0.95205 2.25 2.125s-1.008 2.125-2.25 2.125-2.25-0.95205-2.25-2.125 1.008-2.125 2.25-2.125zm13.531 4.6562-0.65625 0.96875-0.1875 0.5-0.03 0.5313-1.219 0.0313-0.063-0.5626-0.156-0.4687-0.688-0.9687-0.687 0.125-0.25 1.1562 0.03125 0.53125 0.1875 0.53125-1.125 0.46875-0.28125-0.5-0.34375-0.375-1-0.625-0.5625 0.375 0.21875 1.1875 0.21875 0.46875 0.34375 0.40625-0.84375 0.875-0.407-0.344-0.5-0.25-1.1562-0.1875-0.375 0.59375 0.625 1 0.40625 0.3125 0.5 0.25-0.46875 1.1562-0.53125-0.1875h-0.5l-1.1562 0.25-0.15625 0.6875 1 0.65625 0.5 0.1875 0.53125 0.03125v1.2188l-0.53125 0.0625-0.5 0.15625-0.96875 0.6875 0.15625 0.6875 1.1562 0.25 0.5-0.03125 0.532-0.187 0.469 1.156-0.469 0.25-0.281 0.25h3.218c-0.314-0.323-0.582-0.672-0.812-1.062l2.4375-1.125c0.51451 0.71465 1.3162 1.1961 2.25 1.25l0.124 0.937h1.188l-0.156-1.094c0.84138-0.28535 1.5217-0.92622 1.8438-1.75l1.062 0.188v-1.156l-0.875-0.157c-0.011-0.94-0.439-1.768-1.125-2.312l1.2188-2.375c0.2792 0.18294 0.53903 0.39724 0.78125 0.625v-3.3126l-0.281 0.3438-0.25 0.469-1.157-0.469 0.188-0.5 0.031-0.5312-0.281-1.1563-0.688-0.125zm-1.4375 3.7188c0.72958 0 1.4223 0.15408 2.0625 0.40625l-1.2188 2.375c-0.26864-0.07869-0.54977-0.125-0.84375-0.125-0.5829 0-1.1326 0.15026-1.5938 0.4375l-1.8125-1.9375c0.94634-0.71458 2.13-1.1562 3.4062-1.1562zm-4.25 1.9375 1.8125 1.9375c-0.3633 0.49738-0.5625 1.1186-0.5625 1.7812 0 0.24463 0.0073 0.49099 0.0625 0.71875l-2.405 1.093c-0.193-0.572-0.311-1.176-0.311-1.813 0-1.4262 0.53276-2.7248 1.4062-3.7188zm4.25 2.75c0.53504 0 0.96875 0.43372 0.96875 0.96875 0 0.53504-0.43372 0.96875-0.96875 0.96875-0.53504 0-0.96875-0.43372-0.96875-0.96875 0-0.53504 0.43372-0.96875 0.96875-0.96875z" clip-path="url(#m)" transform="translate(33,63)" filter="url(#ag)" fill="#fff"/>
 <path opacity=".4" d="m66 64c-1.108 0-2 0.892-2 2v1c0-1.108 0.892-2 2-2h16c1.108 0 2 0.892 2 2v-1c0-1.108-0.892-2-2-2h-16z" fill-rule="evenodd" fill="#fff"/>
 <path opacity=".15" d="m66 84c-1.108 0-2-0.892-2-2v-1c0 1.108 0.892 2 2 2h16c1.108 0 2-0.892 2-2v1c0 1.108-0.892 2-2 2h-16z" fill-rule="evenodd"/>
 <rect opacity=".4" rx="1" ry="1" height="6" width="24" y="42" x="10"/>
 <text font-size="2.25px" y="45.581726" x="11.779968" font-family="Liberation Sans" font-weight="bold" fill="#ffffff">Default Application</text>
</svg>
