<?xml version="1.0" encoding="UTF-8" standalone="no"?>
<svg xmlns="http://www.w3.org/2000/svg" height="128" width="128" version="1.1" xmlns:xlink="http://www.w3.org/1999/xlink">
 <defs>
  <linearGradient id="h" y2="46.971" stop-color="#fff" spreadMethod="reflect" gradientUnits="userSpaceOnUse" x2="23.578" gradientTransform="matrix(3.1283,0,0,2.6667,-9.7589,-7.756)" y1="46.971" x1="15.574">
   <stop stop-opacity="0" offset="0"/>
   <stop offset="1"/>
  </linearGradient>
  <linearGradient id="i" y2="94.396" gradientUnits="userSpaceOnUse" x2="361.11" gradientTransform="matrix(2.6747,0,0,2.546,-893.98,-122.09)" y1="87.05" x1="361.11">
   <stop stop-color="#787878" offset="0"/>
   <stop stop-color="#b4b4b4" offset=".35047"/>
   <stop stop-color="#c8c8c8" offset=".49418"/>
   <stop stop-color="#e6e6e6" offset=".58907"/>
   <stop stop-color="#8c8c8c" offset="1"/>
  </linearGradient>
  <linearGradient id="j" y2="43.378" gradientUnits="userSpaceOnUse" x2="61.969" gradientTransform="matrix(2.6843,0,0,2.5456,-102.43,7.7671)" y1="35.054" x1="61.969">
   <stop stop-color="#464646" offset="0"/>
   <stop stop-color="#787878" offset=".1008"/>
   <stop stop-color="#828282" offset=".56053"/>
   <stop stop-color="#828282" offset=".64530"/>
   <stop stop-color="#646464" offset="1"/>
  </linearGradient>
  <radialGradient id="k" gradientUnits="userSpaceOnUse" cy="73.616" cx="6.7027" gradientTransform="matrix(5.257,0,0,1.1067,28.764,34.526)" r="7.2284">
   <stop offset="0"/>
   <stop stop-opacity="0" offset="1"/>
  </radialGradient>
  <linearGradient id="d" stop-color="#fff" y2="19.812" gradientUnits="userSpaceOnUse" x2="15.25" gradientTransform="matrix(2.9524 0 0 3.6 -6.8571 -.79999)" y1="8.4375" x1="12.938">
   <stop stop-opacity=".27451" offset="0"/>
   <stop stop-opacity="0" offset="1"/>
  </linearGradient>
  <radialGradient id="a" gradientUnits="userSpaceOnUse" cy="4.8631" cx="12.244" gradientTransform="matrix(3.778 .053548 -.035176 2.9933 -14.202 17.605)" r="21">
   <stop stop-color="#3c3c3c" offset="0"/>
   <stop stop-color="#1e1e1e" offset="1"/>
  </radialGradient>
  <linearGradient id="c" y2="9.0004" gradientUnits="userSpaceOnUse" x2="64" y1="98.145" x1="64">
   <stop stop-color="#bebebe" offset="0"/>
   <stop stop-color="#e6e6e6" offset="1"/>
  </linearGradient>
 </defs>
 <path opacity=".3" d="m102 116c0 4.4183-17.013 8-38 8s-38-3.58-38-8 17.013-8 38-8 38 3.58 38 8z" fill="url(#k)"/>
 <path stroke-linejoin="round" d="m47.5 97.499s0.3975 10.839-1.5006 13.365c-1.8981 2.5263-5.675 4.1366-5.675 4.1366-2.4236 0.2654-2.4437 3.5002 0 3.5002h47.351c2.4437 0 2.4241-3.2382 0-3.5002 0 0-3.7767-1.6103-5.6748-4.1366-1.897-2.52-1.5-13.361-1.5-13.361h-33z" stroke-dashoffset=".5" stroke="url(#j)" stroke-linecap="round" fill="url(#i)"/>
 <path d="m40.525 117.5h46.95" stroke="url(#h)" stroke-linecap="square" stroke-width="1px" fill="none"/>
 <rect stroke-linejoin="round" stroke-dashoffset=".5" rx="2.8" ry="2.7" height="88" width="125" stroke="url(#c)" stroke-linecap="round" y="9.5" x="1.5" fill="#1a1a1a"/>
 <rect fill-rule="evenodd" height="75" width="112" y="16" x="8" fill="url(#a)"/>
 <path d="m2 10h124v28.8l-124 25.2v-54z" fill="url(#d)"/>
 <rect opacity=".3" stroke-linejoin="round" stroke-dashoffset=".5" rx="2.7" ry="2.6" height="86" width="123" stroke="#000" stroke-linecap="round" y="10.5" x="2.5" fill="none"/>
</svg>
