<?xml version="1.0" encoding="UTF-8" standalone="no"?>
<svg
   xmlns:dc="http://purl.org/dc/elements/1.1/"
   xmlns:cc="http://creativecommons.org/ns#"
   xmlns:rdf="http://www.w3.org/1999/02/22-rdf-syntax-ns#"
   xmlns:svg="http://www.w3.org/2000/svg"
   xmlns="http://www.w3.org/2000/svg"
   xmlns:xlink="http://www.w3.org/1999/xlink"
   xmlns:sodipodi="http://sodipodi.sourceforge.net/DTD/sodipodi-0.dtd"
   xmlns:inkscape="http://www.inkscape.org/namespaces/inkscape"
   sodipodi:docname="backgrounds.svg"
   inkscape:version="0.48.4 r9939"
   id="svg2"
   version="1.1"
   width="96"
   height="96">
  <metadata
     id="metadata161">
    <rdf:RDF>
      <cc:Work
         rdf:about="">
        <dc:format>image/svg+xml</dc:format>
        <dc:type
           rdf:resource="http://purl.org/dc/dcmitype/StillImage" />
      </cc:Work>
    </rdf:RDF>
  </metadata>
  <sodipodi:namedview
     pagecolor="#ffffff"
     bordercolor="#666666"
     borderopacity="1"
     objecttolerance="10"
     gridtolerance="10"
     guidetolerance="10"
     inkscape:pageopacity="0"
     inkscape:pageshadow="2"
     inkscape:window-width="1918"
     inkscape:window-height="1150"
     id="namedview159"
     showgrid="false"
     inkscape:snap-object-midpoints="true"
     inkscape:snap-center="true"
     inkscape:zoom="2.4583333"
     inkscape:cx="-60.908571"
     inkscape:cy="-26.585478"
     inkscape:window-x="0"
     inkscape:window-y="0"
     inkscape:window-maximized="1"
     inkscape:current-layer="svg2" />
  <defs
     id="defs4">
    <linearGradient
       id="d"
       stop-color="#fff">
      <stop
         offset="0"
         id="stop7" />
      <stop
         stop-opacity="0"
         offset="1"
         id="stop9" />
    </linearGradient>
    <filter
       id="v"
       height="1.384"
       width="1.384"
       color-interpolation-filters="sRGB"
       y="-.192"
       x="-.192">
      <feGaussianBlur
         stdDeviation="5.28"
         id="feGaussianBlur12" />
    </filter>
    <clipPath
       id="ao">
      <rect
         rx="6"
         ry="6"
         height="84"
         width="84"
         y="6"
         x="6"
         fill="#fff"
         id="rect15" />
    </clipPath>
    <linearGradient
       id="c"
       y2="7.0165"
       gradientUnits="userSpaceOnUse"
       x2="45.448"
       gradientTransform="matrix(1.0059 0 0 .99417 100 0)"
       y1="92.54"
       x1="45.448">
      <stop
         offset="0"
         id="stop18" />
      <stop
         stop-opacity=".58824"
         offset="1"
         id="stop20" />
    </linearGradient>
    <clipPath
       id="ap">
      <path
         fill="#eeeeec"
         d="m184.12 701.5a2.2363 2.2363 0 0 0 -1.4688 0.90625s-3.328 4.7671-4.0312 11.156c-5.0181-4.0229-10.75-5.0625-10.75-5.0625a2.2363 2.2363 0 0 0 -2.5938 2.5625s1.034 5.7649 5.0625 10.781c-6.3978 0.70283-11.188 4.0312-11.188 4.0312a2.2363 2.2363 0 0 0 0 3.625s4.7948 3.3031 11.188 4c-4.0285 5.0164-5.0625 10.781-5.0625 10.781a2.2363 2.2363 0 0 0 2.5938 2.5625s5.7319-1.0396 10.75-5.0625c0.70267 6.3934 4.0312 11.188 4.0312 11.188a2.2363 2.2363 0 0 0 3.625 0s3.3111-4.8145 4-11.219c5.0262 4.0467 10.781 5.0938 10.781 5.0938a2.2363 2.2363 0 0 0 2.5938 -2.5938s-1.0624-5.7373-5.0938-10.75c6.397-0.69632 11.219-4 11.219-4a2.2363 2.2363 0 0 0 0 -3.625s-4.8167-3.329-11.219-4.0312c4.0313-5.0127 5.0938-10.75 5.0938-10.75a2.2363 2.2363 0 0 0 -2.59 -2.6s-5.755 1.047-10.781 5.0938c-0.69265-6.3936-4-11.188-4-11.188a2.2363 2.2363 0 0 0 -2.16 -0.91z"
         fill-rule="evenodd"
         id="path23" />
    </clipPath>
    <clipPath
       id="i">
      <path
         fill="#edd400"
         d="m471.43 685.93c0 22.097-12.842 40.01-12.842 40.01s-12.842-17.913-12.842-40.01 12.842-40.01 12.842-40.01 12.842 17.913 12.842 40.01z"
         fill-rule="evenodd"
         id="path26" />
    </clipPath>
    <filter
       id="al"
       height="1.1585"
       width="1.4939"
       color-interpolation-filters="sRGB"
       y="-.079258"
       x="-.24693">
      <feGaussianBlur
         stdDeviation="2.642588"
         id="feGaussianBlur29" />
    </filter>
    <clipPath
       id="g">
      <path
         fill="#3465a4"
         d="m401.43 865.8c0 22.097-12.842 40.01-12.842 40.01s-12.842-17.913-12.842-40.01 12.842-40.01 12.842-40.01 12.842 17.913 12.842 40.01z"
         fill-rule="evenodd"
         id="path32" />
    </clipPath>
    <filter
       id="z"
       height="1.1585"
       width="1.4939"
       color-interpolation-filters="sRGB"
       y="-.079258"
       x="-.24693">
      <feGaussianBlur
         stdDeviation="2.642588"
         id="feGaussianBlur35" />
    </filter>
    <clipPath
       id="s">
      <path
         fill="#ef2929"
         d="m348.71 698.73c-22.064 0-39.951-12.861-39.951-12.861s17.887-12.861 39.951-12.861 39.951 12.861 39.951 12.861-17.887 12.861-39.951 12.861z"
         fill-rule="evenodd"
         id="path38" />
    </clipPath>
    <filter
       id="am"
       height="1.4928"
       width="1.1586"
       color-interpolation-filters="sRGB"
       y="-.24639"
       x="-.079315">
      <feGaussianBlur
         stdDeviation="2.6406013"
         id="feGaussianBlur41" />
    </filter>
    <clipPath
       id="t">
      <path
         fill="#75507b"
         d="m299.47 763.2c-15.602 15.625-37.33 19.197-37.33 19.197s3.5672-21.76 19.169-37.385 37.33-19.197 37.33-19.197-3.5672 21.76-19.169 37.385z"
         fill-rule="evenodd"
         id="path44" />
    </clipPath>
    <filter
       id="an"
       height="1.2398"
       width="1.2402"
       color-interpolation-filters="sRGB"
       y="-.11991"
       x="-.12009">
      <feGaussianBlur
         stdDeviation="2.8270453"
         id="feGaussianBlur47" />
    </filter>
    <clipPath
       id="f">
      <path
         fill="#65c808"
         d="m538.47 738.73c-22.064 0-39.951-12.861-39.951-12.861s17.887-12.861 39.951-12.861 39.951 12.861 39.951 12.861-17.887 12.861-39.951 12.861z"
         fill-rule="evenodd"
         id="path50" />
    </clipPath>
    <filter
       id="y"
       height="1.4928"
       width="1.1586"
       color-interpolation-filters="sRGB"
       y="-.24639"
       x="-.079315">
      <feGaussianBlur
         stdDeviation="2.6406015"
         id="feGaussianBlur53" />
    </filter>
    <clipPath
       id="aq">
      <path
         fill="#afea2c"
         d="m515.87 706.72c-15.602 15.625-37.33 19.197-37.33 19.197s3.5672-21.76 19.169-37.385 37.33-19.197 37.33-19.197-3.5672 21.76-19.169 37.385z"
         fill-rule="evenodd"
         id="path56" />
    </clipPath>
    <filter
       id="w"
       height="1.2398"
       width="1.2402"
       color-interpolation-filters="sRGB"
       y="-.11991"
       x="-.12009">
      <feGaussianBlur
         stdDeviation="2.8270455"
         id="feGaussianBlur59" />
    </filter>
    <clipPath
       id="e">
      <path
         fill="#729fcf"
         d="m515.87 745.01c15.602 15.625 19.169 37.385 19.169 37.385s-21.729-3.5724-37.33-19.197c-15.602-15.625-19.169-37.385-19.169-37.385s21.729 3.5724 37.33 19.197z"
         fill-rule="evenodd"
         id="path62" />
    </clipPath>
    <filter
       id="x"
       height="1.2398"
       width="1.2402"
       color-interpolation-filters="sRGB"
       y="-.11991"
       x="-.12009">
      <feGaussianBlur
         stdDeviation="2.8270455"
         id="feGaussianBlur65" />
    </filter>
    <clipPath
       id="h">
      <path
         fill="#f57900"
         d="m269.47 688.53c15.602 15.625 19.169 37.385 19.169 37.385s-21.729-3.5724-37.33-19.197c-15.602-15.625-19.169-37.385-19.169-37.385s21.729 3.5724 37.33 19.197z"
         fill-rule="evenodd"
         id="path68" />
    </clipPath>
    <filter
       id="ad"
       height="1.2398"
       width="1.2402"
       color-interpolation-filters="sRGB"
       y="-.11991"
       x="-.12009">
      <feGaussianBlur
         stdDeviation="2.8270453"
         id="feGaussianBlur71" />
    </filter>
    <linearGradient
       id="ak"
       stop-color="#f9f9f9"
       y2="804.8"
       gradientUnits="userSpaceOnUse"
       x2="184.46"
       y1="711.15"
       x1="184.46">
      <stop
         offset="0"
         id="stop74" />
      <stop
         stop-opacity="0"
         offset="1"
         id="stop76" />
    </linearGradient>
    <linearGradient
       id="aj"
       y2="138.66"
       xlink:href="#d"
       gradientUnits="userSpaceOnUse"
       x2="48"
       y1="20.221"
       x1="48" />
    <linearGradient
       id="ai"
       y2="63.893"
       xlink:href="#d"
       gradientUnits="userSpaceOnUse"
       x2="36.357"
       y1="6"
       x1="36.357"
       gradientTransform="translate(1.0015741e-4,0.3440695)" />
    <radialGradient
       id="u"
       xlink:href="#d"
       gradientUnits="userSpaceOnUse"
       cy="90.172"
       cx="48"
       gradientTransform="matrix(1.1573 0 0 .99591 -7.551 .19713)"
       r="42" />
    <linearGradient
       id="ah"
       y2="5.9877"
       gradientUnits="userSpaceOnUse"
       x2="48"
       y1="90"
       x1="48"
       gradientTransform="translate(140.51051,-2.0134566)">
      <stop
         stop-color="#b4b4b4"
         offset="0"
         id="stop82" />
      <stop
         stop-color="#e6e6e6"
         offset="1"
         id="stop84" />
    </linearGradient>
    <linearGradient
       id="ag"
       y2="6"
       xlink:href="#c"
       gradientUnits="userSpaceOnUse"
       x2="32.251"
       gradientTransform="translate(0,1)"
       y1="90"
       x1="32.251" />
    <linearGradient
       id="af"
       y2="5.9996"
       xlink:href="#c"
       gradientUnits="userSpaceOnUse"
       x2="32.251"
       gradientTransform="matrix(1.0238 0 0 1.0119 -1.1429 .929)"
       y1="90"
       x1="32.251" />
    <linearGradient
       id="ae"
       y2="90.239"
       xlink:href="#c"
       gradientUnits="userSpaceOnUse"
       x2="32.251"
       gradientTransform="matrix(1.0238,0,0,-1.0119,-1.1429,98.071)"
       y1="6.1317"
       x1="32.251" />
    <linearGradient
       inkscape:collect="always"
       xlink:href="#linearGradient913"
       id="linearGradient911"
       x1="43.999996"
       y1="48.375"
       x2="43.999996"
       y2="0.37500235"
       gradientUnits="userSpaceOnUse"
       gradientTransform="matrix(1.2,0,0,1,-9.5999985,1004.3622)" />
    <linearGradient
       inkscape:collect="always"
       id="linearGradient913">
      <stop
         style="stop-color:#dc406c;stop-opacity:1"
         offset="0"
         id="stop915" />
      <stop
         style="stop-color:#f5a4c4;stop-opacity:1"
         offset="1"
         id="stop917" />
    </linearGradient>
    <linearGradient
       inkscape:collect="always"
       xlink:href="#linearGradient919"
       id="linearGradient925"
       x1="35.75"
       y1="48.25"
       x2="35.75"
       y2="0.25000235"
       gradientUnits="userSpaceOnUse"
       gradientTransform="matrix(1.2,0,0,1,-9.5999988,1004.3622)" />
    <linearGradient
       inkscape:collect="always"
       id="linearGradient919">
      <stop
         style="stop-color:#5d8300;stop-opacity:1"
         offset="0"
         id="stop921" />
      <stop
         style="stop-color:#b0d100;stop-opacity:1"
         offset="1"
         id="stop923" />
    </linearGradient>
    <linearGradient
       inkscape:collect="always"
       xlink:href="#linearGradient945"
       id="linearGradient933"
       gradientUnits="userSpaceOnUse"
       gradientTransform="matrix(1.2,0,0,1,-19.199999,1004.3622)"
       x1="35.75"
       y1="48.25"
       x2="35.75"
       y2="0.25000235" />
    <linearGradient
       id="linearGradient945"
       inkscape:collect="always">
      <stop
         id="stop947"
         offset="0"
         style="stop-color:#ff8300;stop-opacity:1" />
      <stop
         id="stop949"
         offset="1"
         style="stop-color:#ffd200;stop-opacity:1" />
    </linearGradient>
    <linearGradient
       inkscape:collect="always"
       xlink:href="#linearGradient939"
       id="linearGradient937"
       gradientUnits="userSpaceOnUse"
       gradientTransform="matrix(1.2,0,0,1,-28.8,1004.3622)"
       x1="35.75"
       y1="48.25"
       x2="35.75"
       y2="0.25000235" />
    <linearGradient
       id="linearGradient939"
       inkscape:collect="always">
      <stop
         id="stop941"
         offset="0"
         style="stop-color:#a60c0c;stop-opacity:1" />
      <stop
         id="stop943"
         offset="1"
         style="stop-color:#ea2b2b;stop-opacity:1" />
    </linearGradient>
    <linearGradient
       inkscape:collect="always"
       xlink:href="#linearGradient955"
       id="linearGradient953"
       gradientUnits="userSpaceOnUse"
       gradientTransform="matrix(-1.2,0,0,1,57.6,1004.3622)"
       x1="43.999996"
       y1="48.375"
       x2="43.999996"
       y2="0.37500235" />
    <linearGradient
       id="linearGradient955"
       inkscape:collect="always">
      <stop
         id="stop957"
         offset="0"
         style="stop-color:#00468c;stop-opacity:1" />
      <stop
         id="stop959"
         offset="1"
         style="stop-color:#00a0d8;stop-opacity:1" />
    </linearGradient>
    <linearGradient
       y2="0.37500235"
       x2="43.999996"
       y1="48.375"
       x1="43.999996"
       gradientTransform="matrix(-1.2,0,0,1,57.6,1004.3622)"
       gradientUnits="userSpaceOnUse"
       id="linearGradient3096"
       xlink:href="#linearGradient955"
       inkscape:collect="always" />
    <linearGradient
       inkscape:collect="always"
       xlink:href="#linearGradient919"
       id="linearGradient3263"
       gradientUnits="userSpaceOnUse"
       gradientTransform="matrix(1.2,0,0,1,-9.5999988,1004.3622)"
       x1="35.75"
       y1="48.25"
       x2="35.75"
       y2="0.25000235" />
    <linearGradient
       inkscape:collect="always"
       xlink:href="#linearGradient945"
       id="linearGradient3265"
       gradientUnits="userSpaceOnUse"
       gradientTransform="matrix(1.2,0,0,1,-19.199999,1004.3622)"
       x1="35.75"
       y1="48.25"
       x2="35.75"
       y2="0.25000235" />
    <linearGradient
       inkscape:collect="always"
       xlink:href="#linearGradient939"
       id="linearGradient3267"
       gradientUnits="userSpaceOnUse"
       gradientTransform="matrix(1.2,0,0,1,-28.8,1004.3622)"
       x1="35.75"
       y1="48.25"
       x2="35.75"
       y2="0.25000235" />
    <linearGradient
       id="d-8"
       stop-color="#fff"
       y2="19.812"
       gradientUnits="userSpaceOnUse"
       x2="15.25"
       gradientTransform="matrix(2.9524,0,0,3.6,-6.8571,-0.79999)"
       y1="8.4375"
       x1="12.938">
      <stop
         stop-opacity=".27451"
         offset="0"
         id="stop39" />
      <stop
         stop-opacity="0"
         offset="1"
         id="stop41" />
    </linearGradient>
    <linearGradient
       y2="19.812"
       x2="15.25"
       y1="8.4375"
       x1="12.938"
       gradientTransform="matrix(1.9456652,0,0,3.6,17.695781,10.465011)"
       gradientUnits="userSpaceOnUse"
       id="linearGradient3083"
       xlink:href="#d-8"
       inkscape:collect="always" />
    <linearGradient
       id="m"
       y2="6"
       gradientUnits="userSpaceOnUse"
       x2="48"
       y1="90"
       x1="48">
      <stop
         stop-opacity=".19608"
         offset="0"
         id="stop34" />
      <stop
         stop-color="#808080"
         stop-opacity="0"
         offset=".5"
         id="stop36" />
      <stop
         stop-color="#fff"
         stop-opacity=".39216"
         offset="1"
         id="stop38" />
    </linearGradient>
    <linearGradient
       gradientTransform="translate(2.9986428e-4,0.17234532)"
       y2="6"
       x2="48"
       y1="90"
       x1="48"
       gradientUnits="userSpaceOnUse"
       id="linearGradient3100"
       xlink:href="#m"
       inkscape:collect="always" />
    <linearGradient
       id="e-2"
       stop-color="#fff"
       y2="72.765999"
       gradientUnits="userSpaceOnUse"
       x2="76.450996"
       y1="8.0625"
       x1="76.450996">
      <stop
         offset="0"
         id="stop47" />
      <stop
         stop-opacity="0"
         offset="1"
         id="stop49" />
    </linearGradient>
    <linearGradient
       id="f-5"
       y2="69.688004"
       gradientUnits="userSpaceOnUse"
       x2="65.155998"
       y1="16.125"
       x1="65.155998">
      <stop
         stop-color="#9cb7d2"
         offset="0"
         id="stop42" />
      <stop
         stop-color="#e7edf3"
         stop-opacity="0"
         offset="1"
         id="stop44" />
    </linearGradient>
    <linearGradient
       id="g-7"
       y2="69.688004"
       xlink:href="#b"
       gradientUnits="userSpaceOnUse"
       x2="65.155998"
       y1="16.125"
       x1="65.155998" />
    <linearGradient
       id="b"
       stop-color="#fff">
      <stop
         offset="0"
         id="stop7-2" />
      <stop
         stop-opacity="0"
         offset="1"
         id="stop9-3" />
    </linearGradient>
    <radialGradient
       id="c-7"
       stop-color="#fff"
       gradientUnits="userSpaceOnUse"
       cy="90.171997"
       cx="48"
       gradientTransform="matrix(1.1573,0,0,0.99591,-7.5506971,0.36947426)"
       r="42">
      <stop
         offset="0"
         id="stop25" />
      <stop
         stop-opacity="0"
         offset="1"
         id="stop27" />
    </radialGradient>
    <linearGradient
       id="j"
       y2="83.294998"
       gradientUnits="userSpaceOnUse"
       x2="43.179001"
       gradientTransform="matrix(1.0294,0,0,1.0294,-1.4114971,-1.2394557)"
       y1="13"
       x1="43.179001">
      <stop
         stop-color="#919191"
         offset="0"
         id="stop30" />
      <stop
         stop-color="#fdfdfd"
         offset="1"
         id="stop32" />
    </linearGradient>
    <linearGradient
       gradientTransform="translate(3.0291494e-4,0.17234426)"
       id="i-3"
       y2="63.893002"
       xlink:href="#b"
       gradientUnits="userSpaceOnUse"
       x2="36.356998"
       y1="6"
       x1="36.356998" />
    <linearGradient
       id="linearGradient3095"
       stop-color="#fff">
      <stop
         offset="0"
         id="stop3097" />
      <stop
         stop-opacity="0"
         offset="1"
         id="stop3099" />
    </linearGradient>
    <linearGradient
       gradientTransform="translate(3.0291494e-4,0.17234426)"
       id="h-4"
       y2="5.9877"
       gradientUnits="userSpaceOnUse"
       x2="48"
       y1="90"
       x1="48">
      <stop
         stop-color="#b4b4b4"
         offset="0"
         id="stop36-2" />
      <stop
         stop-color="#e6e6e6"
         offset="1"
         id="stop38-1" />
    </linearGradient>
    <radialGradient
       id="d-3"
       gradientUnits="userSpaceOnUse"
       cy="-15.871"
       cx="56.066002"
       gradientTransform="matrix(-0.0022616,-1.2346,1.3856,0,-65.930818,155.4176)"
       r="35.938">
      <stop
         stop-color="#80a2c8"
         offset="0"
         id="stop20-4" />
      <stop
         stop-color="#2e4c6d"
         offset="1"
         id="stop22" />
    </radialGradient>
    <linearGradient
       id="m-7"
       y2="6"
       xlink:href="#a"
       gradientUnits="userSpaceOnUse"
       x2="32.250999"
       gradientTransform="translate(-136.01682,16.147604)"
       y1="90"
       x1="32.250999" />
    <linearGradient
       id="a"
       y2="7.0165"
       gradientUnits="userSpaceOnUse"
       x2="45.448002"
       gradientTransform="matrix(1.0059,0,0,0.99417,100,0)"
       y1="92.540001"
       x1="45.448002">
      <stop
         offset="0"
         id="stop12" />
      <stop
         stop-opacity=".58824"
         offset="1"
         id="stop14" />
    </linearGradient>
    <linearGradient
       id="l"
       y2="6"
       xlink:href="#a"
       gradientUnits="userSpaceOnUse"
       x2="32.250999"
       gradientTransform="matrix(1.0238,0,0,1.0119,-137.15972,16.076174)"
       y1="90"
       x1="32.250999" />
    <linearGradient
       id="linearGradient3112"
       y2="7.0165"
       gradientUnits="userSpaceOnUse"
       x2="45.448002"
       gradientTransform="matrix(1.0059,0,0,0.99417,100,0)"
       y1="92.540001"
       x1="45.448002">
      <stop
         offset="0"
         id="stop3114" />
      <stop
         stop-opacity=".58824"
         offset="1"
         id="stop3116" />
    </linearGradient>
    <linearGradient
       id="k"
       y2="90.238998"
       xlink:href="#a"
       gradientUnits="userSpaceOnUse"
       x2="32.250999"
       gradientTransform="matrix(1.0238,0,0,-1.0119,-1.1429,98.071)"
       y1="6.1317"
       x1="32.250999" />
    <linearGradient
       id="linearGradient3119"
       y2="7.0165"
       gradientUnits="userSpaceOnUse"
       x2="45.448002"
       gradientTransform="matrix(1.0059,0,0,0.99417,100,0)"
       y1="92.540001"
       x1="45.448002">
      <stop
         offset="0"
         id="stop3121" />
      <stop
         stop-opacity=".58824"
         offset="1"
         id="stop3123" />
    </linearGradient>
    <linearGradient
       id="linearGradient3125"
       y2="90.238998"
       xlink:href="#a"
       gradientUnits="userSpaceOnUse"
       x2="32.250999"
       gradientTransform="matrix(1.0238,0,0,-1.0119,-1.1429,98.071)"
       y1="6.1317"
       x1="32.250999" />
    <linearGradient
       id="linearGradient3127"
       y2="7.0165"
       gradientUnits="userSpaceOnUse"
       x2="45.448002"
       gradientTransform="matrix(1.0059,0,0,0.99417,100,0)"
       y1="92.540001"
       x1="45.448002">
      <stop
         offset="0"
         id="stop3129" />
      <stop
         stop-opacity=".58824"
         offset="1"
         id="stop3131" />
    </linearGradient>
    <linearGradient
       id="linearGradient3133"
       y2="90.238998"
       xlink:href="#a"
       gradientUnits="userSpaceOnUse"
       x2="32.250999"
       gradientTransform="matrix(1.0238,0,0,-1.0119,-1.1429,98.071)"
       y1="6.1317"
       x1="32.250999" />
    <linearGradient
       id="linearGradient3135"
       y2="7.0165"
       gradientUnits="userSpaceOnUse"
       x2="45.448002"
       gradientTransform="matrix(1.0059,0,0,0.99417,100,0)"
       y1="92.540001"
       x1="45.448002">
      <stop
         offset="0"
         id="stop3137" />
      <stop
         stop-opacity=".58824"
         offset="1"
         id="stop3139" />
    </linearGradient>
    <linearGradient
       id="linearGradient3141"
       y2="90.238998"
       xlink:href="#a"
       gradientUnits="userSpaceOnUse"
       x2="32.250999"
       gradientTransform="matrix(1.0238,0,0,-1.0119,-1.1429,98.071)"
       y1="6.1317"
       x1="32.250999" />
    <linearGradient
       id="linearGradient3143"
       y2="7.0165"
       gradientUnits="userSpaceOnUse"
       x2="45.448002"
       gradientTransform="matrix(1.0059,0,0,0.99417,100,0)"
       y1="92.540001"
       x1="45.448002">
      <stop
         offset="0"
         id="stop3145" />
      <stop
         stop-opacity=".58824"
         offset="1"
         id="stop3147" />
    </linearGradient>
    <linearGradient
       y2="90.238998"
       x2="32.250999"
       y1="6.1317"
       x1="32.250999"
       gradientTransform="matrix(1.0238,0,0,-1.0119,-1.1429,98.071)"
       gradientUnits="userSpaceOnUse"
       id="linearGradient3168"
       xlink:href="#a"
       inkscape:collect="always" />
    <linearGradient
       y2="90.238998"
       x2="32.250999"
       y1="6.1317"
       x1="32.250999"
       gradientTransform="matrix(1.0238,0,0,-1.0119,-1.1429,98.071)"
       gradientUnits="userSpaceOnUse"
       id="linearGradient3170"
       xlink:href="#a"
       inkscape:collect="always" />
    <linearGradient
       y2="90.238998"
       x2="32.250999"
       y1="6.1317"
       x1="32.250999"
       gradientTransform="matrix(1.0238,0,0,-1.0119,-1.1429,98.071)"
       gradientUnits="userSpaceOnUse"
       id="linearGradient3172"
       xlink:href="#a"
       inkscape:collect="always" />
    <linearGradient
       y2="90.238998"
       x2="32.250999"
       y1="6.1317"
       x1="32.250999"
       gradientTransform="matrix(1.0238,0,0,-1.0119,-1.1429,98.071)"
       gradientUnits="userSpaceOnUse"
       id="linearGradient3174"
       xlink:href="#a"
       inkscape:collect="always" />
    <linearGradient
       id="ab"
       stop-color="#fff"
       y2="72.765999"
       gradientUnits="userSpaceOnUse"
       x2="76.450996"
       y1="8.0625"
       x1="76.450996">
      <stop
         offset="0"
         id="stop109" />
      <stop
         stop-opacity="0"
         offset="1"
         id="stop111" />
    </linearGradient>
    <linearGradient
       inkscape:collect="always"
       xlink:href="#h-7"
       id="linearGradient3190"
       gradientUnits="userSpaceOnUse"
       x1="65.155998"
       y1="16.125"
       x2="65.155998"
       y2="69.688004" />
    <linearGradient
       id="h-7"
       stop-color="#fff">
      <stop
         offset="0"
         id="stop7-6" />
      <stop
         stop-opacity="0"
         offset="1"
         id="stop9-9" />
    </linearGradient>
    <linearGradient
       id="i-7"
       y2="69.688004"
       xlink:href="#h-7"
       gradientUnits="userSpaceOnUse"
       x2="65.155998"
       y1="16.125"
       x1="65.155998" />
    <linearGradient
       id="linearGradient3107"
       stop-color="#fff">
      <stop
         offset="0"
         id="stop3109" />
      <stop
         stop-opacity="0"
         offset="1"
         id="stop3111" />
    </linearGradient>
    <linearGradient
       y2="69.688004"
       x2="65.155998"
       y1="16.125"
       x1="65.155998"
       gradientUnits="userSpaceOnUse"
       id="linearGradient3117"
       xlink:href="#h-7"
       inkscape:collect="always" />
    <linearGradient
       id="m-6"
       y2="6"
       gradientUnits="userSpaceOnUse"
       x2="48"
       y1="90"
       x1="48">
      <stop
         stop-opacity=".19608"
         offset="0"
         id="stop34-8" />
      <stop
         stop-color="#808080"
         stop-opacity="0"
         offset=".5"
         id="stop36-9" />
      <stop
         stop-color="#fff"
         stop-opacity=".39216"
         offset="1"
         id="stop38-2" />
    </linearGradient>
    <linearGradient
       gradientTransform="translate(5.0425365e-4,1.9102309e-4)"
       y2="6"
       x2="48"
       y1="90"
       x1="48"
       gradientUnits="userSpaceOnUse"
       id="linearGradient3083-2"
       xlink:href="#m-6"
       inkscape:collect="always" />
  </defs>
  <g
     fill="url(#ae)"
     id="g89">
    <path
       opacity="0.08"
       d="m12 95.031c-5.5111 0-10.031-4.52-10.031-10.031v-71c0-5.5111 4.5202-10.031 10.031-10.031h72c5.5111 0 10.031 4.5202 10.031 10.031v71c0 5.5111-4.5202 10.031-10.031 10.031h-72z"
       id="path91" />
    <path
       opacity=".1"
       d="m12 94.031c-4.9716 0-9.0312-4.0596-9.0312-9.0312v-71c0-4.9718 4.0596-9.0314 9.0312-9.0314h72c4.9716 0 9.0312 4.0596 9.0312 9.0312v71c0 4.9716-4.0596 9.0312-9.0312 9.0312h-72z"
       id="path93" />
    <path
       opacity=".2"
       d="m12 93c-4.4091 0-8-3.591-8-8v-71c0-4.4091 3.5909-8 8-8h72c4.4091 0 8 3.5909 8 8v71c0 4.4091-3.5909 8-8 8h-72z"
       id="path95" />
  </g>
  <rect
     opacity=".3"
     rx="7"
     ry="7"
     height="85"
     width="86"
     y="7"
     x="5"
     fill="url(#af)"
     id="rect97" />
  <rect
     opacity=".45"
     rx="6"
     ry="6"
     height="84"
     width="84"
     y="7"
     x="6"
     fill="url(#ag)"
     id="rect99" />
  <g
     transform="matrix(1.7074079,0,0,1.7074079,7.0225087,-1707.6614)"
     id="g961">
    <path
       inkscape:connector-curvature="0"
       id="rect874"
       d="m 38.400002,1004.3622 0,48 7.275,0 c 1.292732,0 2.325,-0.8602 2.325,-1.9375 l 0,-44.125 c 0,-1.0773 -1.032268,-1.9375 -2.325,-1.9375 l -7.275,0 z"
       style="fill:url(#linearGradient911);fill-opacity:1;stroke:none" />
    <path
       inkscape:connector-curvature="0"
       id="rect876"
       d="m 28.800001,1004.3622 0,48 9.6,0 0,-48 -9.6,0 z"
       style="fill:url(#linearGradient3263);fill-opacity:1;stroke:none" />
    <path
       id="path931"
       d="m 19.200001,1004.3622 0,48 9.6,0 0,-48 -9.6,0 z"
       style="fill:url(#linearGradient3265);fill-opacity:1;stroke:none"
       inkscape:connector-curvature="0" />
    <path
       inkscape:connector-curvature="0"
       style="fill:url(#linearGradient3267);fill-opacity:1;stroke:none"
       d="m 9.6000004,1004.3622 0,48 9.5999996,0 0,-48 -9.5999996,0 z"
       id="path935" />
    <path
       style="fill:url(#linearGradient3096);fill-opacity:1;stroke:none"
       d="m 9.6,1004.3622 0,48 -7.275,0 c -1.292732,0 -2.325,-0.8602 -2.325,-1.9375 l 0,-44.125 c 0,-1.0773 1.032268,-1.9375 2.325,-1.9375 l 7.275,0 z"
       id="path951"
       inkscape:connector-curvature="0" />
  </g>
  <path
     d="m12 90c-3.324 0-6-2.676-6-6v-72c0-0.33472 0.04135-0.6507 0.09375-0.96875 0.0487-0.2956 0.09704-0.59692 0.1875-0.875 0.0099-0.03 0.0209-0.063 0.0313-0.094 0.0989-0.2873 0.2349-0.547 0.375-0.812 0.1446-0.2735 0.3156-0.5356 0.5-0.7812 0.1844-0.2457 0.3738-0.4735 0.5937-0.6876 0.44-0.428 0.943-0.8145 1.5-1.0937 0.2786-0.1396 0.5735-0.2469 0.8748-0.3437-0.256 0.1002-0.4865 0.2362-0.7185 0.375-0.00741 0.0044-0.023866-0.0045-0.03125 0-0.031933 0.0193-0.062293 0.04251-0.09375 0.0625-0.1204 0.0767-0.23102 0.16351-0.34375 0.25-0.10617 0.0808-0.21328 0.16111-0.3125 0.25-0.1779 0.1614-0.3474 0.3453-0.5 0.5312-0.1075 0.1303-0.2183 0.2653-0.3124 0.4063-0.0251 0.0383-0.0385 0.0858-0.0626 0.125-0.0647 0.103-0.1302 0.2045-0.1874 0.3124-0.1011 0.1948-0.2057 0.4158-0.2813 0.625-0.008 0.0219-0.0236 0.0406-0.0313 0.0626-0.0318 0.0919-0.0358 0.1868-0.0624 0.2812-0.0304 0.1066-0.0704 0.203-0.0938 0.3125-0.0729 0.3415-0.125 0.6985-0.125 1.0625v72c0 2.7818 2.2182 5 5 5h72c2.7818 0 5-2.2182 5-5v-72c0-0.364-0.052-0.721-0.125-1.0625-0.044-0.2069-0.088-0.3977-0.156-0.5937-0.008-0.022-0.024-0.0407-0.031-0.0626-0.063-0.1737-0.139-0.3674-0.219-0.5312-0.042-0.0828-0.079-0.17-0.125-0.25-0.055-0.0972-0.127-0.1884-0.188-0.2812-0.094-0.141-0.205-0.276-0.312-0.4063-0.143-0.1745-0.303-0.347-0.469-0.5-0.011-0.0102-0.02-0.0211-0.031-0.0313-0.139-0.1255-0.285-0.2344-0.438-0.3437-0.102-0.0731-0.204-0.1534-0.312-0.2187-0.0074-0.0045-0.02384 0.0044-0.03125 0-0.23204-0.13873-0.46255-0.27478-0.71875-0.375 0.30153 0.0968 0.59646 0.20414 0.875 0.34375 0.55709 0.27922 1.0601 0.66569 1.5 1.0938 0.21997 0.21403 0.40937 0.44186 0.59375 0.6875s0.35541 0.50774 0.5 0.78125c0.14012 0.26505 0.27614 0.52473 0.375 0.8125 0.01041 0.03078 0.02133 0.06274 0.03125 0.09375 0.09046 0.27808 0.1388 0.5794 0.1875 0.875 0.053 0.318 0.094 0.634 0.094 0.969v72c0 3.324-2.676 6-6 6h-72z"
     id="path103"
     fill="url(#u)"
     opacity=".2" />
  <path
     d="m 12.0001,6.3440695 c -3.3240001,0 -5.9999998,2.676 -5.9999998,5.9999995 v 72 c 0,0.33472 0.04135,0.6507 0.09375,0.96875 0.0487,0.2956 0.09704,0.59692 0.1875,0.875 0.00988,0.03038 0.020892,0.0636 0.03125,0.09375 0.098865,0.28777 0.23488,0.54745 0.375,0.8125 0.14459,0.27351 0.31562,0.53562 0.5,0.78125 0.18438,0.24564 0.37378,0.47347 0.59375,0.6875 0.43995,0.42806 0.9429097,0.81453 1.4999997,1.0938 0.27854,0.13961 0.57347,0.24695 0.8750001,0.34375 -0.2562001,-0.10022 -0.4867101,-0.23627 -0.7187501,-0.375 -0.0074,-0.0044 -0.02387,0.0045 -0.03125,0 -0.0319,-0.019 -0.0622,-0.042 -0.0937,-0.062 -0.1204,-0.077 -0.231,-0.164 -0.3437,-0.25 -0.1062,-0.081 -0.2133,-0.161 -0.3126,-0.25 -0.1777997,-0.162 -0.3472997,-0.346 -0.4998997,-0.531 -0.1075,-0.131 -0.2183,-0.266 -0.3124,-0.407 -0.0251,-0.038 -0.0385,-0.086 -0.0626,-0.125 -0.0647,-0.103 -0.1302,-0.204 -0.1874,-0.312 -0.1011,-0.195 -0.2057,-0.416 -0.2813,-0.625 -0.008,-0.022 -0.0236,-0.041 -0.0313,-0.063 -0.0318,-0.092 -0.0358,-0.187 -0.0624,-0.281 -0.0304,-0.107 -0.0704,-0.203 -0.0938,-0.313 -0.0729,-0.341 -0.125,-0.698 -0.125,-1.062 v -72 c 0,-2.782 2.2181997,-4.9999995 4.9999998,-4.9999995 h 72 c 2.7818,0 5,2.2181995 5,4.9999995 v 72 c 0,0.3643 -0.05212,0.72099 -0.125,1.0625 -0.04415,0.20689 -0.08838,0.39766 -0.15625,0.59375 -0.0077,0.02195 -0.0233,0.04069 -0.03125,0.0625 -0.06274,0.17374 -0.13838,0.36745 -0.21875,0.53125 -0.04158,0.0828 -0.07904,0.16995 -0.125,0.25 -0.0546,0.09721 -0.12677,0.18835 -0.1875,0.28125 -0.09411,0.14096 -0.20492,0.276 -0.3125,0.40625 -0.14317,0.17445 -0.30314,0.347 -0.46875,0.5 -0.01117,0.0102 -0.01998,0.02115 -0.03125,0.03125 -0.13839,0.12556 -0.28509,0.23444 -0.4375,0.34375 -0.10257,0.07315 -0.20432,0.15336 -0.3125,0.21875 -0.0074,0.0045 -0.02384,-0.0044 -0.03125,0 -0.23204,0.13873 -0.46255,0.27478 -0.71875,0.375 0.30153,-0.0968 0.59646,-0.20414 0.875,-0.34375 0.55709,-0.27922 1.0601,-0.66569 1.5,-1.0938 0.21997,-0.21403 0.40937,-0.44186 0.59375,-0.6875 0.18438,-0.24564 0.35541,-0.50774 0.5,-0.78125 0.14012,-0.26505 0.27614,-0.52473 0.375,-0.8125 0.01041,-0.03078 0.02133,-0.06274 0.03125,-0.09375 0.09046,-0.27808 0.1388,-0.5794 0.1875,-0.875 0.053,-0.318 0.094,-0.634 0.094,-0.969 v -72 c 0,-3.3239995 -2.676,-5.9999995 -6,-5.9999995 h -72 z"
     id="path105"
     style="opacity:0.4;fill:url(#ai)"
     inkscape:connector-curvature="0" />
  <rect
     style="fill:url(#linearGradient3100)"
     rx="6"
     ry="6"
     height="84"
     width="84"
     y="6.1723442"
     x="6.0002999"
     id="rect87" />
  <rect
     style="opacity:0.85232068;fill:#606060;fill-opacity:1"
     height="10"
     width="72"
     y="72.172348"
     x="12.0003"
     id="rect65" />
  <path
     style="opacity:0.07999998"
     inkscape:connector-curvature="0"
     d="m 19.000303,13.172344 c -3.2894,0 -6,2.7106 -6,6 v 58 c 0,3.2894 2.7106,6 6,6 h 58.000002 c 3.2894,0 6,-2.7106 6,-6 v -58 c 0,-3.2894 -2.7106,-6 -6,-6 H 19.000303 z m 0,4 h 58.000002 c 1.1426,0 2,0.85741 2,2 v 58 c 0,1.1426 -0.85741,2 -2,2 H 19.000303 c -1.1426,0 -2,-0.85741 -2,-2 v -58 c 0,-1.1426 0.85741,-2 2,-2 z"
     id="path67" />
  <path
     style="opacity:0.1"
     inkscape:connector-curvature="0"
     d="m 17.000303,14.172344 c -1.662,0 -3,1.338 -3,3 v 62 c 0,1.662 1.338,3 3,3 h 62.000002 c 1.662,0 3,-1.338 3,-3 v -62 c 0,-1.662 -1.338,-3 -3,-3 H 17.000303 z m 0,1.9375 h 62.000002 c 0.61816,0 1.0625,0.44434 1.0625,1.0625 v 62 c 0,0.61816 -0.44434,1.0625 -1.0625,1.0625 H 17.000303 c -0.61816,0 -1.0625,-0.44434 -1.0625,-1.0625 v -62 c 0,-0.61816 0.44434,-1.0625 1.0625,-1.0625 z"
     id="path69" />
  <path
     style="opacity:0.25"
     inkscape:connector-curvature="0"
     d="m 17.000303,14.172344 c -1.662,0 -3,1.338 -3,3 v 62 c 0,1.662 1.338,3 3,3 h 62.000002 c 1.662,0 3,-1.338 3,-3 v -62 c 0,-1.662 -1.338,-3 -3,-3 H 17.000303 z m 0,0.96875 h 62.000002 c 1.1401,0 2.0312,0.89117 2.0312,2.0312 v 62 c 0,1.1401 -0.89117,2.0312 -2.0312,2.0312 H 17.000303 c -1.1401,0 -2.0312,-0.89117 -2.0312,-2.0312 v -62 c 0,-1.1401 0.89117,-2.0312 2.0312,-2.0312 z"
     id="path71" />
  <path
     style="fill:url(#h-4)"
     inkscape:connector-curvature="0"
     d="m 12.000303,6.1723443 c -3.3240001,0 -6.0000001,2.676 -6.0000001,5.9999997 v 72 c 0,3.323996 2.676,5.999996 6.0000001,5.999996 h 72.000002 c 3.324,0 6,-2.676 6,-5.999996 v -72 c 0,-3.3239997 -2.676,-5.9999997 -6,-5.9999997 H 12.000303 z m 5,7.9999997 h 1 60.000002 1 c 1.6838,0 3,1.3162 3,3 v 1 60 1 c 10e-7,1.6838 -1.3162,3 -3,3 h -1 -60.000002 -1 c -1.6838,1e-6 -3,-1.3162 -3,-3 v -1 -60 -1 c 0,-1.6838 1.3162,-3 3,-3 z"
     id="path73" />
  <path
     style="opacity:0.7;fill:url(#i-3)"
     inkscape:connector-curvature="0"
     d="m 12.000303,6.1723443 c -3.3240001,0 -6.0000001,2.676 -6.0000001,5.9999997 v 2 68 2 c 0,0.33472 0.0413,0.6507 0.0937,0.968746 0.0487,0.2956 0.097,0.59692 0.1875,0.875 0.01,0.0304 0.0209,0.0636 0.0312,0.0937 0.0989,0.28777 0.23488,0.54745 0.375,0.8125 0.14459,0.27351 0.31562,0.53562 0.5,0.78125 0.18438,0.24564 0.37378,0.47347 0.59375,0.6875 0.43995,0.42806 0.94291,0.81453 1.5,1.0938 0.27854,0.13961 0.57347,0.24695 0.8750001,0.34375 -0.2562001,-0.10022 -0.4867101,-0.23627 -0.7187501,-0.375 -0.007,-0.004 -0.0239,0.005 -0.0312,0 -0.0319,-0.0193 -0.0623,-0.0425 -0.0937,-0.0625 -0.1204,-0.0767 -0.23102,-0.16351 -0.34375,-0.25 -0.10617,-0.0808 -0.21328,-0.16111 -0.3125,-0.25 -0.1778,-0.162 -0.3473,-0.346 -0.4999,-0.531 -0.1075,-0.131 -0.2183,-0.266 -0.3124,-0.407 -0.0251,-0.038 -0.0385,-0.086 -0.0626,-0.125 -0.0647,-0.103 -0.1302,-0.204 -0.1874,-0.312 -0.1011,-0.195 -0.2057,-0.416 -0.2813,-0.625 -0.008,-0.022 -0.0236,-0.041 -0.0313,-0.063 -0.0318,-0.092 -0.0358,-0.187 -0.0624,-0.281 -0.0304,-0.107 -0.0704,-0.203 -0.0938,-0.313 -0.0729,-0.341 -0.125,-0.698 -0.125,-1.062 v -1.999996 -68 -2 c 0,-2.782 2.2182,-4.9999997 5.0000001,-4.9999997 h 2 68.000002 2 c 2.7818,0 5,2.2181997 5,4.9999997 v 2 68 1.999996 c 0,0.3643 -0.05212,0.72099 -0.125,1.0625 -0.04415,0.20689 -0.08838,0.39766 -0.15625,0.59375 -0.0077,0.0219 -0.0233,0.0407 -0.03125,0.0625 -0.06274,0.17374 -0.13838,0.36745 -0.21875,0.53125 -0.04158,0.0828 -0.07904,0.16995 -0.125,0.25 -0.0546,0.0972 -0.12677,0.18835 -0.1875,0.28125 -0.09411,0.14096 -0.20492,0.276 -0.3125,0.40625 -0.14317,0.17445 -0.30314,0.347 -0.46875,0.5 -0.01117,0.0102 -0.01998,0.0211 -0.03125,0.0312 -0.13839,0.12556 -0.28509,0.23444 -0.4375,0.34375 -0.10257,0.0731 -0.20432,0.15336 -0.3125,0.21875 -0.0074,0.004 -0.02384,-0.004 -0.03125,0 -0.23204,0.13873 -0.46255,0.27478 -0.71875,0.375 0.30153,-0.0968 0.59646,-0.20414 0.875,-0.34375 0.55709,-0.27922 1.0601,-0.66569 1.5,-1.0938 0.21997,-0.21403 0.40937,-0.44186 0.59375,-0.6875 0.18438,-0.24564 0.35541,-0.50774 0.5,-0.78125 0.14012,-0.26505 0.27614,-0.52473 0.375,-0.8125 0.01041,-0.0308 0.02133,-0.0627 0.03125,-0.0937 0.09046,-0.27808 0.1388,-0.5794 0.1875,-0.875 0.053,-0.317996 0.094,-0.633996 0.094,-0.968996 v -2 -68 -2 c 0,-3.3239997 -2.676,-5.9999997 -6,-5.9999997 H 12.000703 z"
     id="path75" />
  <rect
     style="fill:none;stroke:url(#j);stroke-width:2;stroke-linecap:square;stroke-linejoin:round;stroke-opacity:0.7"
     rx="4"
     ry="4"
     height="70"
     width="70"
     y="13.172344"
     x="13.0003"
     id="rect77" />
  <path
     style="opacity:0.4;fill:url(#c-7)"
     inkscape:connector-curvature="0"
     d="m 12.000303,90.17234 c -3.3240001,0 -6.0000001,-2.676 -6.0000001,-5.999996 v -2 -68 -2 c 0,-0.33472 0.0413,-0.6507 0.0937,-0.96875 0.0487,-0.2956 0.097,-0.59692 0.1875,-0.875 0.01,-0.03 0.0209,-0.063 0.0313,-0.094 0.0989,-0.2872997 0.2349,-0.5469997 0.375,-0.8119997 0.1446,-0.2735 0.3156,-0.5356 0.5,-0.7812 0.1844,-0.2457 0.3738,-0.4735 0.5937,-0.6876 0.44,-0.428 0.943,-0.8145 1.5,-1.0937 0.2786,-0.1396 0.5735,-0.2469 0.8748001,-0.3437 -0.2560001,0.1002 -0.4865001,0.2362 -0.7185001,0.375 -0.007,0.0044 -0.0239,-0.0045 -0.0312,0 -0.0319,0.0193 -0.0623,0.04251 -0.0937,0.0625 -0.1204,0.0767 -0.23102,0.16351 -0.34375,0.25 -0.10617,0.0808 -0.21328,0.16111 -0.3125,0.25 -0.1779,0.1614 -0.3474,0.3453 -0.5,0.5312 -0.1075,0.1303 -0.2183,0.2653 -0.3124,0.4063 -0.0251,0.0383 -0.0385,0.0858 -0.0626,0.125 -0.0647,0.103 -0.1302,0.2045 -0.1874,0.3124 -0.1011,0.1948 -0.2057,0.4158 -0.2813,0.625 -0.008,0.0219 -0.0236,0.0406 -0.0313,0.0626 -0.0318,0.0919 -0.0358,0.1868 -0.0624,0.2812 -0.0304,0.1066 -0.0704,0.2029997 -0.0938,0.3124997 -0.0729,0.3415 -0.125,0.6985 -0.125,1.0625 v 2 68 2 c 0,2.781796 2.2182,4.999996 5.0000001,4.999996 h 2 68.000002 2 c 2.7818,0 5,-2.2182 5,-4.999996 v -2 -68 -2 c 0,-0.364 -0.052,-0.721 -0.125,-1.0625 -0.044,-0.2068997 -0.088,-0.3976997 -0.156,-0.5936997 -0.008,-0.022 -0.024,-0.0407 -0.031,-0.0626 -0.063,-0.1737 -0.139,-0.3674 -0.219,-0.5312 -0.042,-0.0828 -0.079,-0.17 -0.125,-0.25 -0.055,-0.0972 -0.127,-0.1884 -0.188,-0.2812 -0.094,-0.141 -0.205,-0.276 -0.312,-0.4063 -0.143,-0.1745 -0.303,-0.347 -0.469,-0.5 -0.011,-0.0102 -0.02,-0.0211 -0.031,-0.0313 -0.139,-0.1255 -0.285,-0.2344 -0.438,-0.3437 -0.102,-0.0731 -0.204,-0.1534 -0.312,-0.2187 -0.0074,-0.0045 -0.02384,0.0044 -0.03125,0 -0.23204,-0.13873 -0.46255,-0.27478 -0.71875,-0.375 0.30153,0.0968 0.59646,0.20414 0.875,0.34375 0.55709,0.27922 1.0601,0.66569 1.5,1.0938 0.21997,0.21403 0.40937,0.44186 0.59375,0.6875 0.18438,0.24564 0.35541,0.50774 0.5,0.78125 0.14012,0.26505 0.27614,0.52473 0.375,0.8124997 0.01041,0.03078 0.02133,0.06274 0.03125,0.09375 0.09046,0.27808 0.1388,0.5794 0.1875,0.875 0.053,0.318 0.094,0.634 0.094,0.969 v 2 68 2 c 0,3.323996 -2.676,5.999996 -6,5.999996 H 12.000953 z"
     id="path79" />
  <rect
     style="fill:url(#linearGradient3083-2)"
     rx="6"
     ry="6"
     height="84"
     width="84"
     y="6.0001907"
     x="6.000505"
     id="rect87-9" />
  <g
     transform="translate(0.79634,-0.101695)"
     id="g203"
     style="fill-rule:evenodd;enable-background:new">
    <path
       d="m 44.844,8.0625 1.3438,3.875 h 32.812 c 2.754,0 5.0625,2.3085 5.0625,5.0625 v 62 c 2e-6,2.754 -2.3085,5.0625 -5.0625,5.0625 h -7.875 l 1.3438,3.875 h 11.531 c 2.2218,0 3.9375,-1.7157 3.9375,-3.9375 V 12 c 0,-2.2218 -1.716,-3.9375 -3.938,-3.9375 h -39.156 z"
       id="path205"
       style="opacity:0.4;fill:url(#ab)"
       inkscape:connector-curvature="0" />
    <path
       d="m 47.656,16.125 22.031,63.75 h 9.3125 c 0.5388,0 0.875,-0.3362 0.875,-0.875 V 17 c 0,-0.5388 -0.33619,-0.875 -0.875,-0.875 h -31.344 z"
       id="path207"
       style="opacity:0.6;fill:url(#linearGradient3190)"
       inkscape:connector-curvature="0" />
    <path
       d="m 47.656,16.125 22.031,63.75 h 1 L 48.656,16.125 h -1 z"
       id="path209"
       style="opacity:0.5;fill:url(#linearGradient3117)"
       inkscape:connector-curvature="0" />
  </g>
</svg>
