<?xml version="1.0" encoding="UTF-8" standalone="no"?>
<svg xmlns="http://www.w3.org/2000/svg" height="96" width="96" version="1.1" xmlns:xlink="http://www.w3.org/1999/xlink">
 <defs>
  <linearGradient id="a" stop-color="#fff">
   <stop offset="0"/>
   <stop stop-opacity="0" offset="1"/>
  </linearGradient>
  <filter id="f" height="1.384" width="1.384" color-interpolation-filters="sRGB" y="-.192" x="-.192">
   <feGaussianBlur stdDeviation="5.28"/>
  </filter>
  <linearGradient id="p" y2="138.66" xlink:href="#a" gradientUnits="userSpaceOnUse" x2="48" y1="20.221" x1="48"/>
  <clipPath id="e">
   <rect rx="6" ry="6" height="84" width="84" y="6" x="6" fill="#fff"/>
  </clipPath>
  <linearGradient id="b" y2="7.0165" gradientUnits="userSpaceOnUse" x2="45.448" gradientTransform="matrix(1.0059 0 0 .99417 100 0)" y1="92.54" x1="45.448">
   <stop offset="0"/>
   <stop stop-opacity=".58824" offset="1"/>
  </linearGradient>
  <linearGradient id="o" y2="34.886" xlink:href="#a" gradientUnits="userSpaceOnUse" x2="35.103" gradientTransform="matrix(1.0571,0,0,1,11.126,9.5098)" y1="6.854" x1="35.103"/>
  <linearGradient id="n" y2="-6.5482" xlink:href="#a" gradientUnits="userSpaceOnUse" x2="62.339" y1="48" x1="62.339"/>
  <linearGradient id="m" y2="56.875" gradientUnits="userSpaceOnUse" x2="59.752" gradientTransform="matrix(-.67083 0 0 -.70833 90.936 93.333)" y1="16" x1="48.8">
   <stop offset="0"/>
   <stop stop-opacity="0" offset="1"/>
  </linearGradient>
  <radialGradient id="d" gradientUnits="userSpaceOnUse" cy="66.45" cx="48" gradientTransform="matrix(1.3301,-7.4935e-8,9.5652e-8,1.6979,-15.846,-37.549)" r="23">
   <stop stop-color="#2782e9" offset="0"/>
   <stop stop-color="#193693" offset="1"/>
  </radialGradient>
  <radialGradient id="c" xlink:href="#a" gradientUnits="userSpaceOnUse" cy="90.172" cx="48" gradientTransform="matrix(1.1573 0 0 .99591 -7.551 .19713)" r="42"/>
  <linearGradient id="k" y2="63.893" xlink:href="#a" gradientUnits="userSpaceOnUse" x2="36.357" y1="6" x1="36.357"/>
  <linearGradient id="j" y2="5.9877" gradientUnits="userSpaceOnUse" x2="48" gradientTransform="matrix(1.0172,0,0,1.0172,-1.1034,-1.1034)" y1="90" x1="48">
   <stop stop-color="#27429c" offset="0"/>
   <stop stop-color="#5072e1" offset="1"/>
  </linearGradient>
  <linearGradient id="i" y2="6" xlink:href="#b" gradientUnits="userSpaceOnUse" x2="32.251" gradientTransform="translate(0,1)" y1="90" x1="32.251"/>
  <linearGradient id="h" y2="5.9996" xlink:href="#b" gradientUnits="userSpaceOnUse" x2="32.251" gradientTransform="matrix(1.0238 0 0 1.0119 -1.1429 .929)" y1="90" x1="32.251"/>
  <linearGradient id="g" y2="90.239" xlink:href="#b" gradientUnits="userSpaceOnUse" x2="32.251" gradientTransform="matrix(1.0238,0,0,-1.0119,-1.1429,98.071)" y1="6.1317" x1="32.251"/>
 </defs>
 <g fill="url(#g)">
  <path opacity="0.08" d="m12 95.031c-5.5111 0-10.031-4.52-10.031-10.031v-71c0-5.5111 4.5202-10.031 10.031-10.031h72c5.5111 0 10.031 4.5202 10.031 10.031v71c0 5.5111-4.5202 10.031-10.031 10.031h-72z"/>
  <path opacity=".1" d="m12 94.031c-4.9716 0-9.0312-4.0596-9.0312-9.0312v-71c0-4.9718 4.0596-9.0314 9.0312-9.0314h72c4.9716 0 9.0312 4.0596 9.0312 9.0312v71c0 4.9716-4.0596 9.0312-9.0312 9.0312h-72z"/>
  <path opacity=".2" d="m12 93c-4.4091 0-8-3.591-8-8v-71c0-4.4091 3.5909-8 8-8h72c4.4091 0 8 3.5909 8 8v71c0 4.4091-3.5909 8-8 8h-72z"/>
 </g>
 <rect opacity=".3" rx="7" ry="7" height="85" width="86" y="7" x="5" fill="url(#h)"/>
 <rect opacity=".45" rx="6" ry="6" height="84" width="84" y="7" x="6" fill="url(#i)"/>
 <rect rx="6" ry="6" height="84" width="84" y="6" x="6" fill="url(#j)"/>
 <path opacity=".25" d="m12 6c-3.324 0-6 2.676-6 6v72c0 0.33472 0.04135 0.6507 0.09375 0.96875 0.0487 0.2956 0.09704 0.59692 0.1875 0.875 0.00988 0.03038 0.020892 0.0636 0.03125 0.09375 0.098865 0.28777 0.23488 0.54745 0.375 0.8125 0.14459 0.27351 0.31562 0.53562 0.5 0.78125 0.18438 0.24564 0.37378 0.47347 0.59375 0.6875 0.43995 0.42806 0.94291 0.81453 1.5 1.0938 0.27854 0.13961 0.57347 0.24695 0.875 0.34375-0.2562-0.10022-0.48671-0.23627-0.71875-0.375-0.00741-0.0044-0.023866 0.0045-0.03125 0-0.0319-0.019-0.0622-0.042-0.0937-0.062-0.1204-0.077-0.231-0.164-0.3437-0.25-0.1062-0.081-0.2133-0.161-0.3126-0.25-0.1778-0.162-0.3473-0.346-0.4999-0.531-0.1075-0.131-0.2183-0.266-0.3124-0.407-0.0251-0.038-0.0385-0.086-0.0626-0.125-0.0647-0.103-0.1302-0.204-0.1874-0.312-0.1011-0.195-0.2057-0.416-0.2813-0.625-0.008-0.022-0.0236-0.041-0.0313-0.063-0.0318-0.092-0.0358-0.187-0.0624-0.281-0.0304-0.107-0.0704-0.203-0.0938-0.313-0.0729-0.341-0.125-0.698-0.125-1.062v-72c0-2.782 2.2182-5 5-5h72c2.7818 0 5 2.2182 5 5v72c0 0.3643-0.05212 0.72099-0.125 1.0625-0.04415 0.20689-0.08838 0.39766-0.15625 0.59375-0.0077 0.02195-0.0233 0.04069-0.03125 0.0625-0.06274 0.17374-0.13838 0.36745-0.21875 0.53125-0.04158 0.0828-0.07904 0.16995-0.125 0.25-0.0546 0.09721-0.12677 0.18835-0.1875 0.28125-0.09411 0.14096-0.20492 0.276-0.3125 0.40625-0.14317 0.17445-0.30314 0.347-0.46875 0.5-0.01117 0.0102-0.01998 0.02115-0.03125 0.03125-0.13839 0.12556-0.28509 0.23444-0.4375 0.34375-0.10257 0.07315-0.20432 0.15336-0.3125 0.21875-0.0074 0.0045-0.02384-0.0044-0.03125 0-0.23204 0.13873-0.46255 0.27478-0.71875 0.375 0.30153-0.0968 0.59646-0.20414 0.875-0.34375 0.55709-0.27922 1.0601-0.66569 1.5-1.0938 0.21997-0.21403 0.40937-0.44186 0.59375-0.6875s0.35541-0.50774 0.5-0.78125c0.14012-0.26505 0.27614-0.52473 0.375-0.8125 0.01041-0.03078 0.02133-0.06274 0.03125-0.09375 0.09046-0.27808 0.1388-0.5794 0.1875-0.875 0.053-0.318 0.094-0.634 0.094-0.969v-72c0-3.324-2.676-6-6-6h-72z" fill="url(#k)"/>
 <path opacity=".15" d="m12 90c-3.324 0-6-2.676-6-6v-72c0-0.33472 0.04135-0.6507 0.09375-0.96875 0.0487-0.2956 0.09704-0.59692 0.1875-0.875 0.0099-0.03 0.0209-0.063 0.0313-0.094 0.0989-0.2873 0.2349-0.547 0.375-0.812 0.1446-0.2735 0.3156-0.5356 0.5-0.7812 0.1844-0.2457 0.3738-0.4735 0.5937-0.6876 0.44-0.428 0.943-0.8145 1.5-1.0937 0.2786-0.1396 0.5735-0.2469 0.8748-0.3437-0.256 0.1002-0.4865 0.2362-0.7185 0.375-0.00741 0.0044-0.023866-0.0045-0.03125 0-0.031933 0.0193-0.062293 0.04251-0.09375 0.0625-0.1204 0.0767-0.23102 0.16351-0.34375 0.25-0.10617 0.0808-0.21328 0.16111-0.3125 0.25-0.1779 0.1614-0.3474 0.3453-0.5 0.5312-0.1075 0.1303-0.2183 0.2653-0.3124 0.4063-0.0251 0.0383-0.0385 0.0858-0.0626 0.125-0.0647 0.103-0.1302 0.2045-0.1874 0.3124-0.1011 0.1948-0.2057 0.4158-0.2813 0.625-0.008 0.0219-0.0236 0.0406-0.0313 0.0626-0.0318 0.0919-0.0358 0.1868-0.0624 0.2812-0.0304 0.1066-0.0704 0.203-0.0938 0.3125-0.0729 0.3415-0.125 0.6985-0.125 1.0625v72c0 2.7818 2.2182 5 5 5h72c2.7818 0 5-2.2182 5-5v-72c0-0.364-0.052-0.721-0.125-1.0625-0.044-0.2069-0.088-0.3977-0.156-0.5937-0.008-0.022-0.024-0.0407-0.031-0.0626-0.063-0.1737-0.139-0.3674-0.219-0.5312-0.042-0.0828-0.079-0.17-0.125-0.25-0.055-0.0972-0.127-0.1884-0.188-0.2812-0.094-0.141-0.205-0.276-0.312-0.4063-0.143-0.1745-0.303-0.347-0.469-0.5-0.011-0.0102-0.02-0.0211-0.031-0.0313-0.139-0.1255-0.285-0.2344-0.438-0.3437-0.102-0.0731-0.204-0.1534-0.312-0.2187-0.0074-0.0045-0.02384 0.0044-0.03125 0-0.23204-0.13873-0.46255-0.27478-0.71875-0.375 0.30153 0.0968 0.59646 0.20414 0.875 0.34375 0.55709 0.27922 1.0601 0.66569 1.5 1.0938 0.21997 0.21403 0.40937 0.44186 0.59375 0.6875s0.35541 0.50774 0.5 0.78125c0.14012 0.26505 0.27614 0.52473 0.375 0.8125 0.01041 0.03078 0.02133 0.06274 0.03125 0.09375 0.09046 0.27808 0.1388 0.5794 0.1875 0.875 0.053 0.318 0.094 0.634 0.094 0.969v72c0 3.324-2.676 6-6 6h-72z" fill="url(#c)"/>
 <rect opacity=".1" clip-path="url(#e)" rx="12" ry="12" height="66" filter="url(#f)" width="66" stroke="#fff" stroke-linecap="round" y="15" x="15" stroke-width=".5" fill="url(#p)"/>
 <path opacity=".1" d="m48 12.938c-6.6157 0-13.2 1.2955-17.875 6.75-4.669 5.4475-7.1875 14.498-7.1875 29.312 0 14.815 2.5185 23.865 7.1875 29.312 4.675 5.4545 11.259 6.75 17.875 6.75 6.6157 0 13.2-1.2955 17.875-6.75 4.668-5.447 7.186-14.497 7.186-29.312s-2.518-23.865-7.187-29.312c-4.675-5.455-11.259-6.75-17.875-6.75z"/>
 <path opacity=".2" d="m48 14.062c-6.4695 0-12.606 1.2482-17 6.375-4.3941 5.1268-6.9375 13.879-6.9375 28.562 0 14.684 2.5434 23.436 6.9375 28.562 4.3941 5.1268 10.53 6.375 17 6.375 6.4695 0 12.606-1.2482 17-6.375 4.394-5.125 6.938-13.877 6.938-28.561s-2.544-23.436-6.938-28.562c-4.394-5.127-10.53-6.376-17-6.376z"/>
 <path opacity=".4" d="m71 49c0 29.143-10.304 34-23 34s-23-4.857-23-34 10.304-34 23-34 23 4.8571 23 34z"/>
 <path d="m71 48c0 29.143-10.304 34-23 34s-23-4.857-23-34 10.304-34 23-34 23 4.8571 23 34z" fill="url(#d)"/>
 <path opacity="0.87" d="m48 14c-12.696 0-23 4.857-23 34s10.304 34 23 34 23-4.857 23-34-10.304-34-23-34zm0 1.4688c6.159 0 11.321 1.1246 15.125 5.5625 3.8037 4.4379 6.4062 12.572 6.4062 26.969s-2.6026 22.531-6.4062 26.969c-3.8037 4.4379-8.966 5.5625-15.125 5.5625s-11.321-1.1246-15.125-5.5625c-3.804-4.44-6.406-12.574-6.406-26.971s2.6026-22.531 6.4062-26.969c3.8037-4.4379 8.966-5.5625 15.125-5.5625z" fill="#103876"/>
 <path opacity=".2" d="m48.003 82c12.696 0 22.997-4.857 22.997-34 0-11.839-1.7-19.666-4.57-24.792 2.0473 5.0512 3.2284 12.111 3.2284 21.958 0 29.143-10.301 34-22.997 34-7.5383 0-14.232-1.7169-18.427-9.2083 4.012 9.898 11.363 12.042 19.769 12.042z" fill="url(#m)"/>
 <path fill="url(#n)" d="m46.139 21v21.6l-9.121-9.121-3.2672 3.3126 11.163 11.163-11.254 11.254 3.3126 3.2672 9.1664-9.1664v21.691l16.2-16.201-10.981-10.982 10.936-10.89zm4.2202 10.346 5.5815 5.6723-5.5815 5.5815zm0 21.555 5.5815 5.7176-5.5815 5.5815z" fill-rule="evenodd"/>
 <path opacity=".9" d="m66.92 34.042a18.687 17.678 0 1 1 -37.374 0 18.687 17.678 0 1 1 37.374 0z" fill="url(#o)"/>
 <path opacity=".25" d="m27.5 47c-0.003 0.33658 0 0.65605 0 1 0 14.276 2.6008 22.164 6.1562 26.312 3.556 4.149 8.315 5.188 14.344 5.188 6.028 0 10.788-1.039 14.344-5.188 3.555-4.148 6.156-12.036 6.156-26.312 0-0.34395 0.003-0.66342 0-1-0.121 13.633-2.686 21.264-6.156 25.312-3.556 4.149-8.316 5.188-14.344 5.188-6.029 0-10.788-1.039-14.344-5.188-3.47-4.048-6.035-11.679-6.156-25.312z" fill="#fff"/>
 <path opacity="0" d="m48 14c-12.696 0-22.997 4.8571-22.997 34 0 11.839 1.7 19.666 4.5701 24.792-2.0473-5.0512-3.2284-12.111-3.2284-21.958 0-29.143 10.301-34 22.997-34 7.5382 0 14.232 1.7169 18.427 9.2083-4.012-9.898-11.363-12.042-19.769-12.042z"/>
</svg>
