<?xml version="1.0" encoding="UTF-8" standalone="no"?>
<svg xmlns="http://www.w3.org/2000/svg" height="96" width="96" version="1.1" xmlns:xlink="http://www.w3.org/1999/xlink">
 <defs>
  <linearGradient id="g">
   <stop stop-color="#818181" offset="0"/>
   <stop stop-color="#bebebe" offset=".1371"/>
   <stop stop-color="#c8c8c8" offset=".5"/>
   <stop stop-color="#bebebe" offset=".75183"/>
   <stop stop-color="#fff" offset="1"/>
  </linearGradient>
  <linearGradient id="k">
   <stop offset="0"/>
   <stop stop-opacity="0" offset="1"/>
  </linearGradient>
  <linearGradient id="l">
   <stop stop-color="#e2e2e2" offset="0"/>
   <stop stop-color="#e2e2e2" offset="1"/>
  </linearGradient>
  <linearGradient id="a" stop-color="#fff">
   <stop offset="0"/>
   <stop stop-opacity="0" offset="1"/>
  </linearGradient>
  <filter id="x" height="1.384" width="1.384" color-interpolation-filters="sRGB" y="-.192" x="-.192">
   <feGaussianBlur stdDeviation="5.28"/>
  </filter>
  <linearGradient id="aa" y2="138.66" xlink:href="#a" gradientUnits="userSpaceOnUse" x2="48" y1="20.221" x1="48"/>
  <clipPath id="w">
   <rect rx="6" ry="6" height="84" width="84" y="6" x="6" fill="#fff"/>
  </clipPath>
  <linearGradient id="f">
   <stop stop-color="#b4b4b4" offset="0"/>
   <stop stop-color="#c8c8c8" offset="0.45"/>
   <stop stop-color="#d2d2d2" offset=".5"/>
   <stop stop-color="#dcdcdc" offset="0.55"/>
   <stop stop-color="#fff" offset="1"/>
  </linearGradient>
  <linearGradient id="e">
   <stop stop-color="#252525" offset="0"/>
   <stop stop-color="#5f5f5f" offset="1"/>
  </linearGradient>
  <filter id="j" height="1.1584" width="1.2437" color-interpolation-filters="sRGB" y="-.0792" x="-.12185">
   <feGaussianBlur stdDeviation="0.66"/>
  </filter>
  <filter id="y" color-interpolation-filters="sRGB">
   <feGaussianBlur stdDeviation="0.615"/>
  </filter>
  <filter id="z" height="1.1582" width="1.2433" color-interpolation-filters="sRGB" y="-.079077" x="-.12166">
   <feGaussianBlur stdDeviation="0.65897547"/>
  </filter>
  <linearGradient id="d" y2="7.0165" gradientUnits="userSpaceOnUse" x2="45.448" gradientTransform="matrix(1.0059 0 0 .99417 100 0)" y1="92.54" x1="45.448">
   <stop offset="0"/>
   <stop stop-opacity=".58824" offset="1"/>
  </linearGradient>
  <linearGradient id="v" y2="105" xlink:href="#e" gradientUnits="userSpaceOnUse" x2="51.484" gradientTransform="matrix(.5625 0 0 .73125 5 -4.8)" y1="23" x1="51.484"/>
  <linearGradient id="u" y2="22.99" gradientUnits="userSpaceOnUse" x2="45.987" gradientTransform="matrix(.5625 0 0 .73125 5 -4.8)" y1="105" x1="45.987">
   <stop stop-color="#cecece" offset="0"/>
   <stop stop-color="#d6d6d6" offset="1"/>
  </linearGradient>
  <linearGradient id="t" y2="105" xlink:href="#e" gradientUnits="userSpaceOnUse" x2="51.484" gradientTransform="matrix(.5625 0 0 .73125 31 1.2)" y1="23" x1="51.484"/>
  <linearGradient id="s" y2="22.99" xlink:href="#l" gradientUnits="userSpaceOnUse" x2="45.987" gradientTransform="matrix(.5625 0 0 .73125 31 1.2)" y1="105" x1="45.987"/>
  <linearGradient id="r" y2="105" xlink:href="#e" gradientUnits="userSpaceOnUse" x2="51.484" gradientTransform="matrix(.5625 0 0 .73125 53 1.2)" y1="23" x1="51.484"/>
  <linearGradient id="q" y2="22.99" xlink:href="#l" gradientUnits="userSpaceOnUse" x2="45.987" gradientTransform="matrix(.5625 0 0 .73125 53 1.2)" y1="105" x1="45.987"/>
  <radialGradient id="ac" xlink:href="#a" gradientUnits="userSpaceOnUse" cy="90.172" cx="48" gradientTransform="matrix(1.1573 0 0 .99591 -7.551 .19713)" r="42"/>
  <linearGradient id="p" y2="63.893" xlink:href="#a" gradientUnits="userSpaceOnUse" x2="36.357" y1="6" x1="36.357"/>
  <linearGradient id="o" y2="5.9877" gradientUnits="userSpaceOnUse" x2="48" y1="90" x1="48">
   <stop stop-color="#a0a0a0" offset="0"/>
   <stop stop-color="#dcdcdc" offset="1"/>
  </linearGradient>
  <radialGradient id="ab" gradientUnits="userSpaceOnUse" cy="85.062" cx="18.089" gradientTransform="matrix(1.1923 0 0 1.1923 .9231 -21.912)" r="2.0893">
   <stop stop-color="#ffe35f" offset="0"/>
   <stop stop-color="#e20000" offset="1"/>
  </radialGradient>
  <linearGradient id="n" y2="85.062" gradientUnits="userSpaceOnUse" x2="20.179" gradientTransform="matrix(0,1.6709,1.6638,0,-119.04,49.283)" y1="85.062" x1="16">
   <stop stop-color="#767676" offset="0"/>
   <stop stop-color="#fdfdfd" offset="1"/>
  </linearGradient>
  <linearGradient id="m" y2="-38.107" xlink:href="#k" gradientUnits="userSpaceOnUse" x2="60" y1="86.476" x1="60"/>
  <linearGradient id="as" y2="64.308" xlink:href="#a" gradientUnits="userSpaceOnUse" x2="60" y1="12" x1="60"/>
  <linearGradient id="ar" y2="84.191" gradientUnits="userSpaceOnUse" x2="60" y1="12" x1="60">
   <stop stop-color="#e2e2e2" offset="0"/>
   <stop stop-color="#bfbfbf" offset="1"/>
  </linearGradient>
  <linearGradient id="c" y2="17.04" xlink:href="#k" gradientUnits="userSpaceOnUse" x2="21.5" y1="57.584" x1="21.5"/>
  <linearGradient id="aq" y2="62.264" xlink:href="#f" gradientUnits="userSpaceOnUse" x2="29.247" gradientTransform="matrix(.71429 0 0 .81818 48.143 3.4545)" y1="41.248" x1="29.247"/>
  <linearGradient id="ap" y2="40" xlink:href="#g" gradientUnits="userSpaceOnUse" x2="34.003" gradientTransform="matrix(.71429 0 0 .81818 48.143 3.4545)" y1="64.02" x1="34.003"/>
  <linearGradient id="ao" y2="62.264" xlink:href="#f" gradientUnits="userSpaceOnUse" x2="29.247" gradientTransform="matrix(.71429 0 0 .81818 .143 -12.545)" y1="41.248" x1="29.247"/>
  <linearGradient id="an" y2="40" gradientUnits="userSpaceOnUse" x2="34.003" gradientTransform="matrix(.71429 0 0 .81818 .143 -12.545)" y1="64.02" x1="34.003">
   <stop stop-color="#818181" offset="0"/>
   <stop stop-color="#bebebe" offset=".1371"/>
   <stop stop-color="#c8c8c8" offset=".5"/>
   <stop stop-color="#bebebe" offset=".76091"/>
   <stop stop-color="#fff" offset="1"/>
  </linearGradient>
  <linearGradient id="am" y2="62.264" xlink:href="#f" gradientUnits="userSpaceOnUse" x2="29.247" gradientTransform="matrix(.71429 0 0 .81818 26.143 15.455)" y1="41.248" x1="29.247"/>
  <linearGradient id="ak" y2="40" xlink:href="#g" gradientUnits="userSpaceOnUse" x2="34.003" gradientTransform="matrix(.71429 0 0 .81818 26.143 15.455)" y1="64.02" x1="34.003"/>
  <linearGradient id="ag" y2="6" xlink:href="#d" gradientUnits="userSpaceOnUse" x2="32.251" gradientTransform="translate(0,1)" y1="90" x1="32.251"/>
  <linearGradient id="af" y2="5.9996" xlink:href="#d" gradientUnits="userSpaceOnUse" x2="32.251" gradientTransform="matrix(1.0238 0 0 1.0119 -1.1429 .929)" y1="90" x1="32.251"/>
  <linearGradient id="ad" y2="90.239" xlink:href="#d" gradientUnits="userSpaceOnUse" x2="32.251" gradientTransform="matrix(1.0238,0,0,-1.0119,-1.1429,98.071)" y1="6.1317" x1="32.251"/>
 </defs>
 <g fill="url(#ad)">
  <path opacity="0.08" d="m12 95.031c-5.5111 0-10.031-4.52-10.031-10.031v-71c0-5.5111 4.5202-10.031 10.031-10.031h72c5.5111 0 10.031 4.5202 10.031 10.031v71c0 5.5111-4.5202 10.031-10.031 10.031h-72z"/>
  <path opacity=".1" d="m12 94.031c-4.9716 0-9.0312-4.0596-9.0312-9.0312v-71c0-4.9722 4.0596-9.0318 9.0312-9.0318h72c4.9716 0 9.0312 4.0596 9.0312 9.0312v71c0 4.9716-4.0596 9.0312-9.0312 9.0312h-72z"/>
  <path opacity=".2" d="m12 93c-4.4091 0-8-3.591-8-8v-71c0-4.4091 3.5909-8 8-8h72c4.4091 0 8 3.5909 8 8v71c0 4.4091-3.5909 8-8 8h-72z"/>
 </g>
 <rect opacity=".3" rx="7" ry="7" height="85" width="86" y="7" x="5" fill="url(#af)"/>
 <rect opacity=".45" rx="6" ry="6" height="84" width="84" y="7" x="6" fill="url(#ag)"/>
 <rect rx="6" ry="6" height="84" width="84" y="6" x="6" fill="url(#o)"/>
 <path opacity=".5" d="m12 6c-3.324 0-6 2.676-6 6v72c0 0.33472 0.04135 0.6507 0.09375 0.96875 0.0487 0.2956 0.09704 0.59692 0.1875 0.875 0.00988 0.03038 0.020892 0.0636 0.03125 0.09375 0.098865 0.28777 0.23488 0.54745 0.375 0.8125 0.14459 0.27351 0.31562 0.53562 0.5 0.78125 0.18438 0.24564 0.37378 0.47347 0.59375 0.6875 0.43995 0.42806 0.94291 0.81453 1.5 1.0938 0.27854 0.13961 0.57347 0.24695 0.875 0.34375-0.2562-0.10022-0.48671-0.23627-0.71875-0.375-0.00741-0.0044-0.023866 0.0045-0.03125 0-0.0319-0.019-0.0622-0.042-0.0937-0.062-0.1204-0.077-0.231-0.164-0.3437-0.25-0.1062-0.081-0.2133-0.161-0.3126-0.25-0.1778-0.162-0.3473-0.346-0.4999-0.531-0.1075-0.131-0.2183-0.266-0.3124-0.407-0.0251-0.038-0.0385-0.086-0.0626-0.125-0.0647-0.103-0.1302-0.204-0.1874-0.312-0.1011-0.195-0.2057-0.416-0.2813-0.625-0.008-0.022-0.0236-0.041-0.0313-0.063-0.0318-0.092-0.0358-0.187-0.0624-0.281-0.0304-0.107-0.0704-0.203-0.0938-0.313-0.0729-0.341-0.125-0.698-0.125-1.062v-72c0-2.782 2.2182-5 5-5h72c2.7818 0 5 2.2182 5 5v72c0 0.3643-0.05212 0.72099-0.125 1.0625-0.04415 0.20689-0.08838 0.39766-0.15625 0.59375-0.0077 0.02195-0.0233 0.04069-0.03125 0.0625-0.06274 0.17374-0.13838 0.36745-0.21875 0.53125-0.04158 0.0828-0.07904 0.16995-0.125 0.25-0.0546 0.09721-0.12677 0.18835-0.1875 0.28125-0.09411 0.14096-0.20492 0.276-0.3125 0.40625-0.14317 0.17445-0.30314 0.347-0.46875 0.5-0.01117 0.0102-0.01998 0.02115-0.03125 0.03125-0.13839 0.12556-0.28509 0.23444-0.4375 0.34375-0.10257 0.07315-0.20432 0.15336-0.3125 0.21875-0.0074 0.0045-0.02384-0.0044-0.03125 0-0.23204 0.13873-0.46255 0.27478-0.71875 0.375 0.30153-0.0968 0.59646-0.20414 0.875-0.34375 0.55709-0.27922 1.0601-0.66569 1.5-1.0938 0.21997-0.21403 0.40937-0.44186 0.59375-0.6875s0.35541-0.50774 0.5-0.78125c0.14012-0.26505 0.27614-0.52473 0.375-0.8125 0.01041-0.03078 0.02133-0.06274 0.03125-0.09375 0.09046-0.27808 0.1388-0.5794 0.1875-0.875 0.053-0.318 0.094-0.634 0.094-0.969v-72c0-3.324-2.676-6-6-6h-72z" fill="url(#p)"/>
 <path opacity=".2" d="m12 90c-3.324 0-6-2.676-6-6v-72c0-0.33472 0.04135-0.6507 0.09375-0.96875 0.0487-0.2956 0.09704-0.59692 0.1875-0.875 0.0099-0.03 0.0209-0.063 0.0313-0.094 0.0989-0.2873 0.2349-0.547 0.375-0.812 0.1446-0.2735 0.3156-0.5356 0.5-0.7812 0.1844-0.2457 0.3738-0.4735 0.5937-0.6876 0.44-0.428 0.943-0.8145 1.5-1.0937 0.2786-0.1396 0.5735-0.2469 0.8748-0.3437-0.256 0.1002-0.4865 0.2362-0.7185 0.375-0.00741 0.0044-0.023866-0.0045-0.03125 0-0.031933 0.0193-0.062293 0.04251-0.09375 0.0625-0.1204 0.0767-0.23102 0.16351-0.34375 0.25-0.10617 0.0808-0.21328 0.16111-0.3125 0.25-0.1779 0.1614-0.3474 0.3453-0.5 0.5312-0.1075 0.1303-0.2183 0.2653-0.3124 0.4063-0.0251 0.0383-0.0385 0.0858-0.0626 0.125-0.0647 0.103-0.1302 0.2045-0.1874 0.3124-0.1011 0.1948-0.2057 0.4158-0.2813 0.625-0.008 0.0219-0.0236 0.0406-0.0313 0.0626-0.0318 0.0919-0.0358 0.1868-0.0624 0.2812-0.0304 0.1066-0.0704 0.203-0.0938 0.3125-0.0729 0.3415-0.125 0.6985-0.125 1.0625v72c0 2.7818 2.2182 5 5 5h72c2.7818 0 5-2.2182 5-5v-72c0-0.364-0.052-0.721-0.125-1.0625-0.044-0.2069-0.088-0.3977-0.156-0.5937-0.008-0.022-0.024-0.0407-0.031-0.0626-0.063-0.1737-0.139-0.3674-0.219-0.5312-0.042-0.0828-0.079-0.17-0.125-0.25-0.055-0.0972-0.127-0.1884-0.188-0.2812-0.094-0.141-0.205-0.276-0.312-0.4063-0.143-0.1745-0.303-0.347-0.469-0.5-0.011-0.0102-0.02-0.0211-0.031-0.0313-0.139-0.1255-0.285-0.2344-0.438-0.3437-0.102-0.0731-0.204-0.1534-0.312-0.2187-0.0074-0.0045-0.02384 0.0044-0.03125 0-0.23204-0.13873-0.46255-0.27478-0.71875-0.375 0.30153 0.0968 0.59646 0.20414 0.875 0.34375 0.55709 0.27922 1.0601 0.66569 1.5 1.0938 0.21997 0.21403 0.40937 0.44186 0.59375 0.6875s0.35541 0.50774 0.5 0.78125c0.14012 0.26505 0.27614 0.52473 0.375 0.8125 0.01041 0.03078 0.02133 0.06274 0.03125 0.09375 0.09046 0.27808 0.1388 0.5794 0.1875 0.875 0.053 0.318 0.094 0.634 0.094 0.969v72c0 3.324-2.676 6-6 6h-72z" fill="url(#ac)"/>
 <g fill-rule="evenodd">
  <rect opacity=".4" rx="4" ry="4" height="73" filter="url(#y)" width="50" y="12" x="35" fill="url(#m)"/>
  <rect rx="4" ry="4" height="72" width="48" y="12" x="36" fill="url(#ar)"/>
  <path opacity=".8" d="m39.969 12c-2.193 0-3.969 1.831-3.969 4.094v63.812c0 1.075 0.40917 2.0533 1.0625 2.7812-0.043-0.248-0.062-0.519-0.062-0.781v-63.812c0-2.263 1.679-4.094 3.781-4.094h38.438c2.102 0 3.781 1.831 3.781 4.094v63.812c0 0.26205-0.01912 0.53317-0.0625 0.78125 0.653-0.727 1.062-1.706 1.062-2.781v-63.812c0-2.263-1.776-4.094-3.969-4.094h-40.062z" fill="url(#as)"/>
 </g>
 <path d="m22.486 83a3.491 3.491 0 1 0 0 -6.982 3.491 3.491 0 1 0 0 6.982z" fill="url(#n)"/>
 <path d="m24.983 79.506a2.4911 2.491 0 1 1 -4.9821 0 2.4911 2.491 0 1 1 4.9821 0z" stroke-opacity="0.53" stroke="#000" stroke-linecap="square" fill="url(#ab)"/>
 <rect opacity=".1" clip-path="url(#w)" rx="12" ry="12" height="66" filter="url(#x)" width="66" stroke="#fff" stroke-linecap="round" y="15" x="15" stroke-width=".5" fill="url(#aa)"/>
 <g fill-rule="evenodd">
  <path stroke-linejoin="round" d="m69.875 18.75h2.25c0.62325 0 1.125 0.65228 1.125 1.4625v55.575c0 0.81022-0.50175 1.4625-1.125 1.4625h-2.25c-0.62325 0-1.125-0.65228-1.125-1.4625v-55.575c0-0.81022 0.50175-1.4625 1.125-1.4625z" stroke="url(#q)" stroke-width="1.5" fill="url(#r)"/>
  <path stroke-linejoin="round" d="m47.875 18.75h2.25c0.62325 0 1.125 0.65228 1.125 1.4625v55.575c0 0.81022-0.50175 1.4625-1.125 1.4625h-2.25c-0.62325 0-1.125-0.65228-1.125-1.4625v-55.575c0-0.81022 0.50175-1.4625 1.125-1.4625z" stroke="url(#s)" stroke-width="1.5" fill="url(#t)"/>
  <path opacity=".8" d="m17.562 36c-1.429 0-2.562 1.203-2.562 2.625v14.75c0 1.422 1.133 2.625 2.562 2.625h7.875c1.43 0 2.563-1.203 2.563-2.625v-14.75c0-1.422-1.133-2.625-2.562-2.625h-7.875z" transform="matrix(1.0515,0,0,1.0359,26.394,11.348)" filter="url(#z)" fill="url(#c)"/>
  <rect stroke-linejoin="round" rx="1.4286" ry="1.6364" height="18" width="10" stroke="url(#ak)" y="49" x="44" stroke-width="2" fill="url(#am)"/>
 </g>
 <path opacity=".2" d="m45 57v2h8v-2h-8z"/>
 <g fill-rule="evenodd">
  <path stroke-linejoin="round" d="m21.875 12.75h2.25c0.62325 0 1.125 0.65228 1.125 1.4625v55.575c0 0.81022-0.50175 1.4625-1.125 1.4625h-2.25c-0.62325 0-1.125-0.65228-1.125-1.4625v-55.575c0-0.81022 0.50175-1.4625 1.125-1.4625z" stroke="url(#u)" stroke-width="1.5" fill="url(#v)"/>
  <path opacity=".8" d="m17.562 36c-1.429 0-2.562 1.203-2.562 2.625v14.75c0 1.422 1.133 2.625 2.562 2.625h7.875c1.43 0 2.563-1.203 2.563-2.625v-14.75c0-1.422-1.133-2.625-2.562-2.625h-7.875z" transform="matrix(1.0515 0 0 1.0359 .394 -16.652)" filter="url(#j)" fill="url(#c)"/>
  <rect stroke-linejoin="round" rx="1.4286" ry="1.6364" height="18" width="10" stroke="url(#an)" y="21" x="18" stroke-width="2" fill="url(#ao)"/>
 </g>
 <path opacity=".2" d="m19 29v2h8v-2h-8z"/>
 <path opacity=".8" d="m17.562 36c-1.429 0-2.562 1.203-2.562 2.625v14.75c0 1.422 1.133 2.625 2.562 2.625h7.875c1.43 0 2.563-1.203 2.563-2.625v-14.75c0-1.422-1.133-2.625-2.562-2.625h-7.875z" fill-rule="evenodd" transform="matrix(1.0515 0 0 1.0359 48.394 -.6519)" filter="url(#j)" fill="url(#c)"/>
 <rect stroke-linejoin="round" fill-rule="evenodd" rx="1.4286" ry="1.6364" height="18" width="10" stroke="url(#ap)" y="37" x="66" stroke-width="2" fill="url(#aq)"/>
 <path opacity=".2" d="m67 45v2h8v-2h-8z"/>
</svg>
