<?xml version="1.0" encoding="UTF-8" standalone="no"?>
<!-- Created with Inkscape (http://www.inkscape.org/) -->
<svg id="svg5555" xmlns="http://www.w3.org/2000/svg" height="48" width="48" version="1.0" xmlns:xlink="http://www.w3.org/1999/xlink">
 <defs id="defs5557">
  <radialGradient id="radialGradient3199" gradientUnits="userSpaceOnUse" cy="24" cx="24" r="17">
   <stop id="stop3303" style="stop-color:#fff;stop-opacity:0" offset="0"/>
   <stop id="stop3309" style="stop-color:#fff;stop-opacity:0" offset="0.7"/>
   <stop id="stop3305" offset="1"/>
  </radialGradient>
  <linearGradient id="linearGradient3201" y2="26.494" gradientUnits="userSpaceOnUse" x2="29.05" gradientTransform="matrix(1 0 0 -1 .000001 48)" y1="7.028" x1="29.05">
   <stop id="stop3710" offset="0"/>
   <stop id="stop3712" offset="1"/>
  </linearGradient>
  <linearGradient id="linearGradient3212" y2="26.091" gradientUnits="userSpaceOnUse" x2="24.398" gradientTransform="translate(-.39768 .39813)" y1="3.6019" x1="24.398">
   <stop id="stop3998" style="stop-color:#fff" offset="0"/>
   <stop id="stop4000" style="stop-color:#fff;stop-opacity:0" offset="1"/>
  </linearGradient>
  <radialGradient id="radialGradient3215" gradientUnits="userSpaceOnUse" cy="12.08" cx="27.412" gradientTransform="matrix(1.7638e-8 1.7731 -2.6591 2.6451e-8 59.48 -17.999)" r="18">
   <stop id="stop3270" style="stop-color:#fff" offset="0"/>
   <stop id="stop3272" style="stop-color:#d8d8d8" offset="1"/>
  </radialGradient>
  <linearGradient id="linearGradient3217" y2="40.32" gradientUnits="userSpaceOnUse" x2="29.05" gradientTransform="matrix(1.0606 0 0 1.0606 -1.4545 -1.4545)" y1="7.028" x1="29.05">
   <stop id="stop2482" style="stop-color:#3d3e40" offset="0"/>
   <stop id="stop2484" style="stop-color:#4e4e4e" offset="1"/>
  </linearGradient>
  <radialGradient id="radialGradient3220" gradientUnits="userSpaceOnUse" cy="24.003" cx="24.012" gradientTransform="matrix(.95321 0 0 .95321 1.1236 1.1232)" r="21">
   <stop id="stop5026" style="stop-color:#808080" offset="0"/>
   <stop id="stop5028" style="stop-color:#6d6d6d" offset=".87327"/>
   <stop id="stop5030" style="stop-color:#4f5053" offset="1"/>
  </radialGradient>
  <linearGradient id="linearGradient3222" y2="45.184" gradientUnits="userSpaceOnUse" x2="7.5542" y1="3" x1="7.5542">
   <stop id="stop3229" style="stop-color:#4d4d4d" offset="0"/>
   <stop id="stop3231" style="stop-color:#333" offset="1"/>
  </linearGradient>
  <radialGradient id="radialGradient3225" gradientUnits="userSpaceOnUse" cy="4.625" cx="62.625" gradientTransform="matrix(2.1647 0 0 .75294 -111.56 36.518)" r="10.625">
   <stop id="stop8840" offset="0"/>
   <stop id="stop8842" style="stop-opacity:0" offset="1"/>
  </radialGradient>
 </defs>
 <path id="path8836" style="opacity:.3;fill-rule:evenodd;fill:url(#radialGradient3225)" d="m47 40c0 4.4183-10.297 8-23 8s-23-3.5817-23-8 10.297-8 23-8 23 3.5817 23 8z"/>
 <path id="path6495" style="stroke:url(#linearGradient3222);fill:url(#radialGradient3220)" d="m44.5 23.999c0 11.322-9.179 20.501-20.5 20.501-11.322 0-20.5-9.179-20.5-20.501 0-11.321 9.178-20.499 20.5-20.499 11.321 0 20.5 9.178 20.5 20.499z"/>
 <path id="path3215" style="stroke:url(#linearGradient3217);fill:url(#radialGradient3215)" d="m41.5 23.999c0 9.6653-7.8356 17.501-17.5 17.501-9.6651 0-17.5-7.8354-17.5-17.501 0-9.6649 7.8352-17.499 17.5-17.499 9.6642 0 17.5 7.8345 17.5 17.499z"/>
 <path id="path3222" style="opacity:.4;stroke:url(#linearGradient3212);fill:none" d="m43.5 23.999c0 10.77-8.7311 19.501-19.5 19.501-10.77 0-19.5-8.7309-19.5-19.501 0-10.769 8.7306-19.499 19.5-19.499s19.5 8.73 19.5 19.499z"/>
 <path id="path2291" style="opacity:.5;stroke:#000;stroke-linecap:round;fill:none" d="m9.8617 24.537c2.7663 0 3.1166-0.07959 3.1166-0.07959"/>
 <path id="path2296" style="opacity:.5;stroke:#000;stroke-linecap:round;fill:none" d="m35.022 24.537c2.7663 0 3.1166-0.07959 3.1166-0.07959"/>
 <path id="path2306" style="opacity:.6;stroke:#000;stroke-linecap:round;fill:none" d="m23.543 38.033c0-2.7663-0.07959-3.1166-0.07959-3.1166"/>
 <path id="path2308" style="opacity:.4;stroke:#000;stroke-linecap:round;fill:none" d="m23.543 13.083c0-2.7664-0.07959-3.1166-0.07959-3.1166"/>
 <path id="path2312" style="stroke:#000;stroke-linecap:round;stroke-width:0.9;fill:none" d="m23.103 25.537 10.787-10.992"/>
 <path id="path2314" style="stroke:#000;stroke-linecap:round;stroke-width:0.9;fill:none" d="m24.75 25.537-7.287-7.287"/>
 <path id="path2316" style="fill-rule:evenodd;stroke:#f00;stroke-linecap:round;stroke-width:0.9;fill:#f00" d="m24.672 24.653 10.973-3.089"/>
 <path id="path3215-4" style="opacity:.2;stroke:url(#linearGradient3201);fill:url(#radialGradient3199)" d="m40.5 24.001c0-9.113-7.388-16.501-16.5-16.501-9.113 0-16.5 7.388-16.5 16.501 0 9.112 7.387 16.499 16.5 16.499 9.112 0 16.5-7.387 16.5-16.499z"/>
</svg>
