<?xml version="1.0" encoding="UTF-8" standalone="no"?>
<svg xmlns="http://www.w3.org/2000/svg" height="48" width="48" version="1.1" xmlns:xlink="http://www.w3.org/1999/xlink">
 <defs>
  <radialGradient id="k" gradientUnits="userSpaceOnUse" cy="24" cx="24" r="17">
   <stop stop-color="#fff" stop-opacity="0" offset="0"/>
   <stop stop-color="#fff" stop-opacity="0" offset="0.7"/>
   <stop offset="1"/>
  </radialGradient>
  <linearGradient id="h" y2="26.494" gradientUnits="userSpaceOnUse" x2="29.05" gradientTransform="matrix(1,0,0,-1,1e-6,48)" y1="7.028" x1="29.05">
   <stop offset="0"/>
   <stop offset="1"/>
  </linearGradient>
  <radialGradient id="l" gradientUnits="userSpaceOnUse" cy="12.08" cx="27.412" gradientTransform="matrix(1.7638e-8,1.7731,-2.6591,2.6451e-8,59.48,-17.999)" r="18">
   <stop stop-color="#fff" offset="0"/>
   <stop stop-color="#d8d8d8" offset="1"/>
  </radialGradient>
  <linearGradient id="i" y2="40.32" gradientUnits="userSpaceOnUse" x2="29.05" gradientTransform="matrix(1.0606,0,0,1.0606,-1.4545,-1.4545)" y1="7.028" x1="29.05">
   <stop stop-color="#3d3e40" offset="0"/>
   <stop stop-color="#4e4e4e" offset="1"/>
  </linearGradient>
  <radialGradient id="m" gradientUnits="userSpaceOnUse" cy="24.003" cx="24.012" gradientTransform="matrix(.95321 0 0 .95321 1.1236 1.1232)" r="21">
   <stop stop-color="#808080" offset="0"/>
   <stop stop-color="#6d6d6d" offset=".87327"/>
   <stop stop-color="#4f5053" offset="1"/>
  </radialGradient>
  <linearGradient id="j" y2="45.184" gradientUnits="userSpaceOnUse" x2="7.5542" y1="3" x1="7.5542">
   <stop stop-color="#4d4d4d" offset="0"/>
   <stop stop-color="#333" offset="1"/>
  </linearGradient>
  <radialGradient id="n" gradientUnits="userSpaceOnUse" cy="4.625" cx="62.625" gradientTransform="matrix(2.1647 0 0 .75294 -111.56 36.518)" r="10.625">
   <stop offset="0"/>
   <stop stop-opacity="0" offset="1"/>
  </radialGradient>
  <linearGradient id="g" stop-color="#fff" y2="26.091" gradientUnits="userSpaceOnUse" x2="24.398" gradientTransform="translate(-.39768 .39813)" y1="3.6019" x1="24.398">
   <stop offset="0"/>
   <stop stop-opacity="0" offset="1"/>
  </linearGradient>
 </defs>
 <path opacity=".3" d="m47 40c0 4.4183-10.297 8-23 8s-23-3.5817-23-8 10.297-8 23-8 23 3.5817 23 8z" fill-rule="evenodd" fill="url(#n)"/>
 <path d="m44.5 23.999c0 11.322-9.179 20.501-20.5 20.501-11.322 0-20.5-9.179-20.5-20.501 0-11.321 9.178-20.499 20.5-20.499 11.321 0 20.5 9.178 20.5 20.499z" stroke="url(#j)" fill="url(#m)"/>
 <path d="m41.5 23.999c0 9.665-7.836 17.501-17.5 17.501-9.665 0-17.5-7.835-17.5-17.501 0-9.665 7.835-17.499 17.5-17.499 9.6642 0 17.5 7.8345 17.5 17.499z" stroke="url(#i)" fill="url(#l)"/>
 <g fill="none">
  <path opacity=".4" d="m43.5 23.999c0 10.77-8.731 19.501-19.5 19.501-10.77 0-19.5-8.731-19.5-19.501 0-10.769 8.731-19.499 19.5-19.499s19.5 8.73 19.5 19.499z" stroke="url(#g)"/>
  <g stroke="#000" stroke-linecap="round">
   <path opacity=".5" d="m9.8617 24.537c2.7663 0 3.1166-0.07959 3.1166-0.07959"/>
   <path opacity=".5" d="m35.022 24.537c2.7663 0 3.1166-0.07959 3.1166-0.07959"/>
   <path opacity=".6" d="m23.543 38.033c0-2.7663-0.07959-3.1166-0.07959-3.1166"/>
   <path opacity=".4" d="m23.543 13.083c0-2.7664-0.07959-3.1166-0.07959-3.1166"/>
   <g stroke-width="0.9">
    <path d="m23.103 25.537 10.787-10.992"/>
    <path d="m24.75 25.537-7.287-7.287"/>
   </g>
  </g>
 </g>
 <path d="m24.672 24.653 10.973-3.089" fill-rule="evenodd" stroke="#f00" stroke-linecap="round" stroke-width="0.9" fill="#f00"/>
 <path opacity=".2" d="m40.5 24.001c0-9.113-7.388-16.501-16.5-16.501-9.113 0-16.5 7.388-16.5 16.501 0 9.112 7.387 16.499 16.5 16.499 9.112 0 16.5-7.387 16.5-16.499z" stroke="url(#h)" fill="url(#k)"/>
</svg>
