<?xml version="1.0" encoding="UTF-8" standalone="no"?>
<!-- Created with Inkscape (http://www.inkscape.org/) -->

<svg
   xmlns:svg="http://www.w3.org/2000/svg"
   xmlns="http://www.w3.org/2000/svg"
   xmlns:xlink="http://www.w3.org/1999/xlink"
   version="1.0"
   width="96"
   height="96"
   id="svg2408">
  <defs
     id="defs2410">
    <linearGradient
       id="linearGradient3701">
      <stop
         id="stop3703"
         style="stop-color:#ffffff;stop-opacity:1"
         offset="0" />
      <stop
         id="stop3705"
         style="stop-color:#ffffff;stop-opacity:0"
         offset="1" />
    </linearGradient>
    <linearGradient
       id="linearGradient3686">
      <stop
         id="stop3688"
         style="stop-color:#dcdcdc;stop-opacity:1"
         offset="0" />
      <stop
         id="stop3690"
         style="stop-color:#f0f0f0;stop-opacity:1"
         offset="1" />
    </linearGradient>
    <linearGradient
       x1="58.650177"
       y1="122"
       x2="58.650177"
       y2="5.4252338"
       id="linearGradient3848"
       gradientUnits="userSpaceOnUse"
       gradientTransform="matrix(1.0172414,0,0,1.0172414,-1.1034483,-1.1034483)">
      <stop
         id="stop3850"
         style="stop-color:#969696;stop-opacity:1"
         offset="0" />
      <stop
         id="stop3852"
         style="stop-color:#d2d2d2;stop-opacity:1"
         offset="1" />
    </linearGradient>
    <linearGradient
       x1="45.447727"
       y1="92.539597"
       x2="45.447727"
       y2="7.0165396"
       id="ButtonShadow"
       gradientUnits="userSpaceOnUse"
       gradientTransform="scale(1.0058652,0.994169)">
      <stop
         id="stop3750"
         style="stop-color:#000000;stop-opacity:1"
         offset="0" />
      <stop
         id="stop3752"
         style="stop-color:#000000;stop-opacity:0.58823532"
         offset="1" />
    </linearGradient>
    <linearGradient
       id="linearGradient3737">
      <stop
         id="stop3739"
         style="stop-color:#ffffff;stop-opacity:1"
         offset="0" />
      <stop
         id="stop3741"
         style="stop-color:#ffffff;stop-opacity:0"
         offset="1" />
    </linearGradient>
    <filter
       color-interpolation-filters="sRGB"
       id="filter3174">
      <feGaussianBlur
         id="feGaussianBlur3176"
         stdDeviation="1.71" />
    </filter>
    <linearGradient
       x1="36.357143"
       y1="6"
       x2="36.357143"
       y2="63.893143"
       id="linearGradient3188"
       xlink:href="#linearGradient3737"
       gradientUnits="userSpaceOnUse" />
    <filter
       x="-0.192"
       y="-0.192"
       width="1.3839999"
       height="1.3839999"
       color-interpolation-filters="sRGB"
       id="filter3794">
      <feGaussianBlur
         id="feGaussianBlur3796"
         stdDeviation="5.28" />
    </filter>
    <linearGradient
       x1="48"
       y1="20.220806"
       x2="48"
       y2="138.66119"
       id="linearGradient3613"
       xlink:href="#linearGradient3737"
       gradientUnits="userSpaceOnUse" />
    <radialGradient
       cx="48"
       cy="90.171875"
       r="42"
       fx="48"
       fy="90.171875"
       id="radialGradient3619"
       xlink:href="#linearGradient3737"
       gradientUnits="userSpaceOnUse"
       gradientTransform="matrix(1.1573129,0,0,0.99590774,-7.5510206,0.19713193)" />
    <clipPath
       id="clipPath3613">
      <rect
         width="84"
         height="84"
         rx="6"
         ry="6"
         x="6"
         y="6"
         id="rect3615"
         style="fill:#ffffff;fill-opacity:1;fill-rule:nonzero;stroke:none" />
    </clipPath>
    <linearGradient
       x1="48"
       y1="90"
       x2="48"
       y2="5.9877172"
       id="linearGradient3617"
       xlink:href="#ButtonColor-7"
       gradientUnits="userSpaceOnUse" />
    <clipPath
       id="clipPath3836">
      <path
         d="m 112,6 c -3.324,0 -6,2.676 -6,6 l 0,23.71875 c 4.16476,5.590927 10.83896,9.218751 18.34375,9.21875 12.61273,0 22.84375,-10.231021 22.84375,-22.84375 0,-6.274884 -2.52698,-11.964405 -6.625,-16.09375 l -7.34375,0 c 5.78119,3.1123067 9.71875,9.225149 9.71875,16.25 0,10.181526 -8.25597,18.4375 -18.4375,18.4375 -10.18153,0 -18.4375,-8.255974 -18.4375,-18.4375 0,-7.024851 3.93756,-13.1376933 9.71875,-16.25 L 112,6 z m 34.375,0 0.46875,0.59375 0.5625,-0.40625 0.5,-0.1875 -1.53125,0 z m 5.96875,0 0.40625,0.75 -1.65625,2.15625 -1.4375,1.1875 -0.625,0.28125 1.0625,2.5625 0.65625,-0.25 1.84375,-0.15625 2.71875,0.34375 0.4375,1.71875 -2.15625,1.6875 -1.6875,0.75 -0.6875,0.125 0.375,2.75 0.6875,-0.0625 1.8125,0.3125 2.53125,1.0625 0,1.78125 -2.53125,1.03125 -1.8125,0.3125 -0.6875,-0.0625 -0.375,2.75 0.6875,0.125 1.6875,0.75 2.15625,1.6875 -0.4375,1.71875 -2.71875,0.375 L 150.75,31.5 l -0.65625,-0.21875 -1.0625,2.5625 0.625,0.25 1.4375,1.1875 1.65625,2.1875 L 151.875,39 149.15625,38.65625 147.40625,38 l -0.5625,-0.375 -1.6875,2.1875 0.53125,0.4375 1.0625,1.5 1.0625,2.53125 -1.25,1.28125 L 144,44.5 l -1.5,-1.0625 -0.4375,-0.53125 -2.1875,1.6875 0.375,0.5625 0.65625,1.75 0.34375,2.71875 -1.53125,0.875 -2.1875,-1.65625 -1.15625,-1.4375 -0.3125,-0.625 -2.53125,1.0625 0.21875,0.65625 0.1875,1.84375 -0.375,2.71875 -1.71875,0.46875 -1.65625,-2.1875 -0.78125,-1.6875 -0.125,-0.6875 -2.71875,0.375 0.0625,0.65625 -0.3125,1.84375 -1.0625,2.53125 -1.78125,0 -1.0625,-2.53125 L 122.125,50 l 0.0625,-0.65625 -2.75,-0.375 -0.125,0.6875 -0.75,1.6875 -1.6875,2.1875 -1.71875,-0.46875 -0.375,-2.71875 0.15625,-1.84375 0.25,-0.65625 -2.53125,-1.0625 -0.3125,0.625 -1.1875,1.4375 L 109,50.5 l -1.5625,-0.875 0.375,-2.71875 0.625,-1.75 0.40625,-0.5625 -2.1875,-1.6875 -0.4375,0.53125 L 106,43.59375 106,84 c 0,3.324 2.676,6 6,6 l 25.875,0 -0.25,-0.40625 1.84375,-2.4375 1.59375,-1.28125 0.65625,-0.34375 -1.15625,-2.8125 -0.71875,0.25 -2.03125,0.21875 -3,-0.40625 -0.53125,-1.90625 2.40625,-1.875 1.875,-0.8125 0.75,-0.15625 L 138.90625,75 l -0.75,0.0625 -2.03125,-0.34375 -2.8125,-1.15625 0,-1.96875 2.8125,-1.1875 2.03125,-0.3125 0.75,0.0625 0.40625,-3.03125 -0.75,-0.15625 -1.875,-0.84375 -2.40625,-1.84375 0.53125,-1.90625 3,-0.40625 2.03125,0.1875 0.71875,0.25 1.15625,-2.8125 -0.65625,-0.3125 -1.59375,-1.3125 -1.84375,-2.40625 1,-1.71875 3,0.40625 1.90625,0.71875 0.625,0.4375 1.875,-2.4375 -0.59375,-0.5 L 144.25,50.8125 143.09375,48 144.5,46.625 l 2.8125,1.125 1.65625,1.21875 0.5,0.5625 2.40625,-1.84375 -0.4375,-0.65625 -0.6875,-1.875 -0.40625,-3.03125 1.6875,-1 2.4375,1.84375 1.3125,1.59375 0.3125,0.6875 2.8125,-1.1875 -0.25,-0.6875 -0.1875,-2.0625 0.40625,-3 1.875,-0.5 1.875,2.40625 0.84375,1.875 0.125,0.71875 3.03125,-0.375 -0.0625,-0.78125 0.34375,-2 1.1875,-2.8125 1.96875,0 1.15625,2.8125 0.34375,2 -0.0625,0.78125 3.03125,0.375 0.125,-0.71875 0.84375,-1.875 1.875,-2.40625 1.875,0.5 0.4375,3 -0.21875,2.0625 -0.25,0.6875 2.8125,1.1875 0.34375,-0.6875 1.28125,-1.59375 2.40625,-1.84375 1.71875,1 -0.375,3.03125 -0.75,1.875 -0.40625,0.65625 2.40625,1.84375 0.5,-0.5625 L 190,48.34375 190,12 c 0,-3.324 -2.676,-6 -6,-6 L 152.34375,6 z M 124.5,8.625 c -7.53154,0 -13.65625,6.09346 -13.65625,13.625 0,7.53154 6.12471,13.65625 13.65625,13.65625 7.53154,0 13.625,-6.12471 13.625,-13.65625 0,-7.53154 -6.09346,-13.625 -13.625,-13.625 z m 44.5625,38.53125 c -5.74578,0 -11.05193,1.907852 -15.3125,5.125 l 8.15625,8.78125 c 2.0761,-1.293182 4.53192,-2.03125 7.15625,-2.03125 1.32352,0 2.60305,0.17696 3.8125,0.53125 l 5.5,-10.625 c -2.88236,-1.135296 -6.0278,-1.78125 -9.3125,-1.78125 z m 13.90625,4.15625 -5.5,10.65625 c 3.0873,2.451345 5.10585,6.203919 5.15625,10.4375 L 190,73.75 190,58.1875 c -1.87421,-2.717952 -4.26324,-5.061314 -7.03125,-6.875 z m -62.65625,2.15625 1.21875,0 0.9375,2.09375 0.0625,0.71875 -0.1875,1.28125 2.21875,0.59375 0.46875,-1.1875 0.4375,-0.59375 1.875,-1.3125 1.0625,0.625 -0.25,2.25 -0.28125,0.6875 -0.8125,0.96875 1.625,1.65625 1,-0.78125 0.6875,-0.3125 2.25,-0.21875 0.625,1.0625 -1.34375,1.84375 -0.59375,0.4375 -1.1875,0.46875 0.59375,2.21875 1.25,-0.1875 0.75,0.09375 2.0625,0.9375 0,1.25 -2.09375,0.9375 -0.71875,0.0625 -1.25,-0.1875 -0.625,2.21875 1.1875,0.46875 0.59375,0.4375 1.34375,1.84375 -0.625,1.0625 -2.28125,-0.21875 -0.65625,-0.3125 -1,-0.78125 -1.625,1.625 0.78125,1 0.28125,0.65625 0.21875,2.28125 -1.0625,0.59375 -1.84375,-1.3125 -0.4375,-0.625 -0.46875,-1.15625 -2.21875,0.5625 0.1875,1.28125 -0.0625,0.71875 -0.96875,2.09375 -1.21875,0 -0.9375,-2.09375 -0.0625,-0.75 0.1875,-1.25 -2.21875,-0.59375 -0.5,1.1875 -0.40625,0.59375 -1.875,1.3125 -1.0625,-0.625 0.21875,-2.25 0.3125,-0.6875 0.8125,-1 -1.625,-1.625 -1,0.78125 -0.6875,0.3125 -2.28125,0.21875 -0.59375,-1.0625 1.34375,-1.875 0.59375,-0.40625 1.1875,-0.46875 -0.59375,-2.21875 -1.25,0.15625 -0.75,-0.0625 -2.0625,-0.9375 0,-1.25 2.0625,-0.9375 0.75,-0.0625 1.25,0.1875 0.59375,-2.21875 -1.15625,-0.46875 -0.59375,-0.4375 -1.34375,-1.84375 0.625,-1.0625 2.28125,0.21875 0.65625,0.3125 1,0.78125 1.625,-1.625 -0.78125,-1 L 113.625,57.90625 113.40625,55.625 114.5,55 l 1.84375,1.34375 0.4375,0.59375 0.4375,1.1875 2.25,-0.59375 -0.1875,-1.25 0.0625,-0.71875 0.96875,-2.09375 z m 29.625,2.34375 c -3.93256,4.474843 -6.3125,10.329221 -6.3125,16.75 0,2.868692 0.49734,5.613964 1.375,8.1875 l 10.90625,-4.96875 C 155.65791,74.755862 155.5,73.663871 155.5,72.5625 c 0,-2.983379 0.9581,-5.72947 2.59375,-7.96875 L 149.9375,55.8125 z m -29.09375,8.375 c -1.81315,0 -3.28125,1.468102 -3.28125,3.28125 0,1.813148 1.4681,3.28125 3.28125,3.28125 1.81315,0 3.28125,-1.468102 3.28125,-3.28125 0,-1.813148 -1.4681,-3.28125 -3.28125,-3.28125 z m 48.21875,3.28125 c -2.78946,0 -5.03125,2.241791 -5.03125,5.03125 0,2.789459 2.24179,5.0625 5.03125,5.0625 2.78946,0 5.0625,-2.273041 5.0625,-5.0625 0,-2.789459 -2.27304,-5.03125 -5.0625,-5.03125 z M 181.6875,77.5 c -1.44987,3.708793 -4.49322,6.621554 -8.28125,7.90625 L 174.03125,90 184,90 c 3.324,0 6,-2.676 6,-6 L 190,79.03125 181.6875,77.5 z m -23.625,2.96875 -10.90625,5 c 0.96641,1.636602 2.11102,3.15601 3.40625,4.53125 l 18.25,0 -0.53125,-3.90625 c -4.20392,-0.242792 -7.90236,-2.407521 -10.21875,-5.625 z M 144.15625,89.75 143.8125,90 l 0.53125,0 -0.1875,-0.25 z"
         id="path3838"
         style="fill:#ffffff;fill-opacity:1;fill-rule:nonzero;stroke:none" />
    </clipPath>
    <linearGradient
       x1="57.51778"
       y1="90"
       x2="57.51778"
       y2="5.5969558"
       id="linearGradient3846"
       xlink:href="#linearGradient3848"
       gradientUnits="userSpaceOnUse" />
    <clipPath
       id="clipPath3867">
      <path
         d="m 115.78125,6 c -5.78119,3.1123067 -9.71875,9.225149 -9.71875,16.25 0,10.181526 8.25597,18.4375 18.4375,18.4375 10.18153,0 18.4375,-8.255974 18.4375,-18.4375 0,-7.024851 -3.93756,-13.1376933 -9.71875,-16.25 l -17.4375,0 z m 24.78125,0 c 4.09802,4.129345 6.625,9.818866 6.625,16.09375 0,12.612729 -10.23102,22.84375 -22.84375,22.84375 -7.50479,10e-7 -14.17899,-3.627823 -18.34375,-9.21875 l 0,7.875 0.21875,-0.15625 0.4375,-0.53125 2.1875,1.6875 -0.40625,0.5625 -0.625,1.75 -0.375,2.71875 1.5625,0.875 2.15625,-1.65625 1.1875,-1.4375 0.3125,-0.625 2.53125,1.0625 -0.25,0.65625 -0.15625,1.84375 0.375,2.71875 1.71875,0.46875 1.6875,-2.1875 0.75,-1.6875 0.125,-0.6875 2.75,0.375 L 122.125,50 l 0.28125,1.84375 1.0625,2.53125 1.78125,0 1.0625,-2.53125 L 126.625,50 l -0.0625,-0.65625 2.71875,-0.375 0.125,0.6875 0.78125,1.6875 1.65625,2.1875 1.71875,-0.46875 0.375,-2.71875 L 133.75,48.5 l -0.21875,-0.65625 2.53125,-1.0625 0.3125,0.625 1.15625,1.4375 2.1875,1.65625 1.53125,-0.875 -0.34375,-2.71875 -0.65625,-1.75 -0.375,-0.5625 2.1875,-1.6875 0.4375,0.53125 1.5,1.0625 2.5625,1.0625 1.25,-1.28125 -1.0625,-2.53125 -1.0625,-1.5 -0.53125,-0.4375 1.6875,-2.1875 0.5625,0.375 1.75,0.65625 L 151.875,39 l 0.875,-1.53125 -1.65625,-2.1875 -1.4375,-1.1875 -0.625,-0.25 1.0625,-2.5625 0.65625,0.21875 1.84375,0.1875 2.71875,-0.375 0.4375,-1.71875 -2.15625,-1.6875 -1.6875,-0.75 -0.6875,-0.125 0.375,-2.75 0.6875,0.0625 1.8125,-0.3125 L 156.625,23 l 0,-1.78125 -2.53125,-1.0625 -1.8125,-0.3125 -0.6875,0.0625 -0.375,-2.75 0.6875,-0.125 1.6875,-0.75 2.15625,-1.6875 -0.4375,-1.71875 -2.71875,-0.34375 -1.84375,0.15625 -0.65625,0.25 -1.0625,-2.5625 0.625,-0.28125 1.4375,-1.1875 L 152.75,6.75 152.34375,6 l -4.4375,0 -0.5,0.1875 -0.5625,0.40625 L 146.375,6 140.5625,6 z M 124.5,8.625 c 7.53154,0 13.625,6.09346 13.625,13.625 0,7.53154 -6.09346,13.65625 -13.625,13.65625 -7.53154,0 -13.65625,-6.12471 -13.65625,-13.65625 0,-7.53154 6.12471,-13.625 13.65625,-13.625 z m 43.59375,28.21875 -1.1875,2.8125 -0.34375,2 0.0625,0.78125 -3.03125,0.375 -0.125,-0.71875 -0.84375,-1.875 -1.875,-2.40625 -1.875,0.5 -0.40625,3 0.1875,2.0625 0.25,0.6875 -2.8125,1.1875 -0.3125,-0.6875 -1.3125,-1.59375 -2.4375,-1.84375 -1.6875,1 0.40625,3.03125 0.6875,1.875 0.4375,0.65625 -2.40625,1.84375 -0.5,-0.5625 L 147.3125,47.75 144.5,46.625 143.09375,48 l 1.15625,2.8125 1.1875,1.65625 0.59375,0.5 -1.875,2.4375 -0.625,-0.4375 -1.90625,-0.71875 -3,-0.40625 -1,1.71875 1.84375,2.40625 1.59375,1.3125 0.65625,0.3125 -1.15625,2.8125 -0.71875,-0.25 -2.03125,-0.1875 -3,0.40625 -0.53125,1.90625 2.40625,1.84375 1.875,0.84375 0.75,0.15625 -0.40625,3.03125 -0.75,-0.0625 -2.03125,0.3125 -2.8125,1.1875 0,1.96875 2.8125,1.15625 2.03125,0.34375 0.75,-0.0625 0.40625,3.03125 -0.75,0.15625 -1.875,0.8125 -2.40625,1.875 0.53125,1.90625 3,0.40625 2.03125,-0.21875 0.71875,-0.25 1.15625,2.8125 -0.65625,0.34375 -1.59375,1.28125 -1.84375,2.4375 0.25,0.40625 5.9375,0 0.34375,-0.25 0.1875,0.25 6.21875,0 c -1.29523,-1.37524 -2.43984,-2.894648 -3.40625,-4.53125 l 10.90625,-5 c 2.31639,3.217479 6.01482,5.382208 10.21875,5.625 L 168.8125,90 l 5.21875,0 -0.625,-4.59375 c 3.78803,-1.284696 6.83138,-4.197457 8.28125,-7.90625 L 190,79.03125 190,73.75 182.625,72.40625 c -0.0504,-4.233581 -2.06895,-7.986155 -5.15625,-10.4375 l 5.5,-10.65625 c 2.76801,1.813686 5.15704,4.157048 7.03125,6.875 l 0,-9.84375 -0.84375,0.625 -0.5,0.5625 -2.40625,-1.84375 0.40625,-0.65625 0.75,-1.875 0.375,-3.03125 -1.71875,-1 -2.40625,1.84375 -1.28125,1.59375 -0.34375,0.6875 -2.8125,-1.1875 0.25,-0.6875 0.21875,-2.0625 -0.4375,-3 -1.875,-0.5 -1.875,2.40625 -0.84375,1.875 -0.125,0.71875 -3.03125,-0.375 0.0625,-0.78125 -0.34375,-2 -1.15625,-2.8125 -1.96875,0 z m 0.96875,10.3125 c 3.2847,0 6.43014,0.645954 9.3125,1.78125 l -5.5,10.625 c -1.20945,-0.35429 -2.48898,-0.53125 -3.8125,-0.53125 -2.62433,0 -5.08015,0.738068 -7.15625,2.03125 L 153.75,52.28125 c 4.26057,-3.217148 9.56672,-5.125 15.3125,-5.125 z m -48.75,6.3125 -0.96875,2.09375 -0.0625,0.71875 0.1875,1.25 -2.25,0.59375 -0.4375,-1.1875 -0.4375,-0.59375 L 114.5,55 l -1.09375,0.625 0.21875,2.28125 0.3125,0.65625 0.78125,1 -1.625,1.625 -1,-0.78125 -0.65625,-0.3125 -2.28125,-0.21875 -0.625,1.0625 1.34375,1.84375 0.59375,0.4375 1.15625,0.46875 -0.59375,2.21875 -1.25,-0.1875 -0.75,0.0625 -2.0625,0.9375 0,1.25 2.0625,0.9375 0.75,0.0625 1.25,-0.15625 0.59375,2.21875 -1.1875,0.46875 -0.59375,0.40625 -1.34375,1.875 0.59375,1.0625 2.28125,-0.21875 0.6875,-0.3125 1,-0.78125 1.625,1.625 -0.8125,1 -0.3125,0.6875 -0.21875,2.25 1.0625,0.625 1.875,-1.3125 0.40625,-0.59375 0.5,-1.1875 2.21875,0.59375 -0.1875,1.25 0.0625,0.75 0.9375,2.09375 1.21875,0 0.96875,-2.09375 0.0625,-0.71875 -0.1875,-1.28125 2.21875,-0.5625 0.46875,1.15625 0.4375,0.625 1.84375,1.3125 1.0625,-0.59375 -0.21875,-2.28125 -0.28125,-0.65625 -0.78125,-1 1.625,-1.625 1,0.78125 0.65625,0.3125 2.28125,0.21875 0.625,-1.0625 L 131.875,72 l -0.59375,-0.4375 -1.1875,-0.46875 0.625,-2.21875 1.25,0.1875 0.71875,-0.0625 2.09375,-0.9375 0,-1.25 -2.0625,-0.9375 -0.75,-0.09375 -1.25,0.1875 -0.59375,-2.21875 1.1875,-0.46875 0.59375,-0.4375 L 133.25,61 l -0.625,-1.0625 -2.25,0.21875 -0.6875,0.3125 -1,0.78125 -1.625,-1.65625 0.8125,-0.96875 0.28125,-0.6875 0.25,-2.25 -1.0625,-0.625 -1.875,1.3125 -0.4375,0.59375 -0.46875,1.1875 -2.21875,-0.59375 0.1875,-1.28125 -0.0625,-0.71875 -0.9375,-2.09375 -1.21875,0 z m 29.625,2.34375 8.15625,8.78125 C 156.4581,66.83303 155.5,69.579121 155.5,72.5625 c 0,1.101371 0.15791,2.193362 0.40625,3.21875 L 145,80.75 c -0.87766,-2.573536 -1.375,-5.318808 -1.375,-8.1875 0,-6.420779 2.37994,-12.275157 6.3125,-16.75 z m -29.09375,8.375 c 1.81315,0 3.28125,1.468102 3.28125,3.28125 0,1.813148 -1.4681,3.28125 -3.28125,3.28125 -1.81315,0 -3.28125,-1.468102 -3.28125,-3.28125 0,-1.813148 1.4681,-3.28125 3.28125,-3.28125 z m 48.21875,3.28125 c 2.78946,0 5.0625,2.241791 5.0625,5.03125 0,2.789459 -2.27304,5.0625 -5.0625,5.0625 -2.78946,0 -5.03125,-2.273041 -5.03125,-5.0625 0,-2.789459 2.24179,-5.03125 5.03125,-5.03125 z"
         id="path3869"
         style="fill:#ffffff;fill-opacity:1;stroke:none;display:inline" />
    </clipPath>
    <filter
       color-interpolation-filters="sRGB"
       id="filter3875">
      <feGaussianBlur
         id="feGaussianBlur3877"
         stdDeviation="0.42" />
    </filter>
    <filter
       x="-0.12"
       y="-0.12"
       width="1.24"
       height="1.24"
       color-interpolation-filters="sRGB"
       id="filter3879">
      <feGaussianBlur
         id="feGaussianBlur3881"
         stdDeviation="4.2" />
    </filter>
    <linearGradient
       x1="10.31979"
       y1="21"
       x2="10.31979"
       y2="0.99929649"
       id="ButtonColor-7"
       gradientUnits="userSpaceOnUse">
      <stop
         id="stop3189"
         style="stop-color:#afafaf;stop-opacity:1"
         offset="0" />
      <stop
         id="stop3191"
         style="stop-color:#d8d8d8;stop-opacity:1"
         offset="1" />
    </linearGradient>
    <linearGradient
       id="linearGradient3658">
      <stop
         id="stop3660"
         style="stop-color:#ff9604;stop-opacity:1"
         offset="0" />
      <stop
         id="stop3662"
         style="stop-color:#fff580;stop-opacity:1"
         offset="1" />
    </linearGradient>
    <linearGradient
       x1="11.087322"
       y1="15.37313"
       x2="10.540542"
       y2="4.9937253"
       id="linearGradient3790"
       xlink:href="#linearGradient3658"
       gradientUnits="userSpaceOnUse" />
    <linearGradient
       x1="48.714287"
       y1="76.203125"
       x2="48.714287"
       y2="18.702017"
       id="linearGradient3692"
       xlink:href="#linearGradient3686"
       gradientUnits="userSpaceOnUse" />
    <linearGradient
       x1="52.82143"
       y1="32.810268"
       x2="52.82143"
       y2="74.18531"
       id="linearGradient3707"
       xlink:href="#linearGradient3701"
       gradientUnits="userSpaceOnUse" />
    <clipPath
       id="clipPath3725">
      <path
         d="M 10.5,5.875 9.28125,8.5 A 0.3963786,0.3963786 0 0 1 9,8.71875 l -2.875,0.6875 2.15625,2 a 0.3963786,0.3963786 0 0 1 0.125,0.3125 l -0.25,2.90625 2.5625,-1.40625 A 0.3963786,0.3963786 0 0 1 11.0625,13.1875 L 13.75,14.34375 13.1875,11.4375 a 0.3963786,0.3963786 0 0 1 0.09375,-0.3125 l 1.9375,-2.1875 -2.9375,-0.34375 A 0.3963786,0.3963786 0 0 1 12,8.40625 L 10.5,5.875 z"
         transform="matrix(5.594521,0.29482098,-0.29471615,5.5955932,-8.977093,-12.185726)"
         id="path3727"
         style="fill:#ff00ff;fill-opacity:1;stroke:none;display:inline" />
    </clipPath>
    <linearGradient
       x1="45.447727"
       y1="92.539597"
       x2="45.447727"
       y2="7.0165396"
       id="ButtonShadow-0"
       gradientUnits="userSpaceOnUse"
       gradientTransform="matrix(1.0058652,0,0,0.994169,100,0)">
      <stop
         id="stop3750-8"
         style="stop-color:#000000;stop-opacity:1"
         offset="0" />
      <stop
         id="stop3752-5"
         style="stop-color:#000000;stop-opacity:0.58823532"
         offset="1" />
    </linearGradient>
    <linearGradient
       x1="32.251034"
       y1="6.1317081"
       x2="32.251034"
       y2="90.238609"
       id="linearGradient3780"
       xlink:href="#ButtonShadow-0"
       gradientUnits="userSpaceOnUse"
       gradientTransform="matrix(1.0238095,0,0,1.0119048,-1.1428571,-98.071429)" />
    <linearGradient
       x1="32.251034"
       y1="6.1317081"
       x2="32.251034"
       y2="90.238609"
       id="linearGradient3772"
       xlink:href="#ButtonShadow-0"
       gradientUnits="userSpaceOnUse"
       gradientTransform="matrix(1.0238095,0,0,1.0119048,-1.1428571,-98.071429)" />
    <linearGradient
       x1="32.251034"
       y1="6.1317081"
       x2="32.251034"
       y2="90.238609"
       id="linearGradient3725"
       xlink:href="#ButtonShadow-0"
       gradientUnits="userSpaceOnUse"
       gradientTransform="matrix(1.0238095,0,0,1.0119048,-1.1428571,-98.071429)" />
    <linearGradient
       x1="32.251034"
       y1="6.1317081"
       x2="32.251034"
       y2="90.238609"
       id="linearGradient3721"
       xlink:href="#ButtonShadow-0"
       gradientUnits="userSpaceOnUse"
       gradientTransform="translate(0,-97)" />
    <linearGradient
       x1="32.251034"
       y1="6.1317081"
       x2="32.251034"
       y2="90.238609"
       id="linearGradient3020"
       xlink:href="#ButtonShadow-0"
       gradientUnits="userSpaceOnUse"
       gradientTransform="matrix(1.0238095,0,0,1.0119048,-1.1428571,-98.071429)" />
  </defs>
  <g
     id="layer2"
     style="display:none">
    <rect
       width="86"
       height="85"
       rx="6"
       ry="6"
       x="5"
       y="7"
       id="rect3745"
       style="opacity:0.9;fill:url(#ButtonShadow);fill-opacity:1;fill-rule:nonzero;stroke:none;filter:url(#filter3174)" />
  </g>
  <g
     id="layer6"
     style="display:inline">
    <path
       d="m 12,-95.03125 c -5.5110903,0 -10.03125,4.52016 -10.03125,10.03125 l 0,71 c 0,5.5110902 4.5201598,10.03125 10.03125,10.03125 l 72,0 c 5.51109,0 10.03125,-4.5201597 10.03125,-10.03125 l 0,-71 c 0,-5.51109 -4.52016,-10.03125 -10.03125,-10.03125 l -72,0 z"
       transform="scale(1,-1)"
       id="path3786-6"
       style="opacity:0.07999998;fill:url(#linearGradient3020);fill-opacity:1;fill-rule:nonzero;stroke:none;display:inline" />
    <path
       d="m 12,-94.03125 c -4.971633,0 -9.03125,4.059617 -9.03125,9.03125 l 0,71 c 0,4.9716329 4.0596171,9.03125 9.03125,9.03125 l 72,0 c 4.971633,0 9.03125,-4.059617 9.03125,-9.03125 l 0,-71 c 0,-4.971633 -4.059617,-9.03125 -9.03125,-9.03125 l -72,0 z"
       transform="scale(1,-1)"
       id="path3778"
       style="opacity:0.1;fill:url(#linearGradient3780);fill-opacity:1;fill-rule:nonzero;stroke:none;display:inline" />
    <path
       d="m 12,-93 c -4.4091333,0 -8,3.590867 -8,8 l 0,71 c 0,4.4091333 3.5908667,8 8,8 l 72,0 c 4.409133,0 8,-3.5908667 8,-8 l 0,-71 c 0,-4.409133 -3.590867,-8 -8,-8 l -72,0 z"
       transform="scale(1,-1)"
       id="path3770"
       style="opacity:0.2;fill:url(#linearGradient3772);fill-opacity:1;fill-rule:nonzero;stroke:none;display:inline" />
    <rect
       width="86"
       height="85"
       rx="7"
       ry="7"
       x="5"
       y="-92"
       transform="scale(1,-1)"
       id="rect3723"
       style="opacity:0.3;fill:url(#linearGradient3725);fill-opacity:1;fill-rule:nonzero;stroke:none;display:inline" />
    <rect
       width="84"
       height="84"
       rx="6"
       ry="6"
       x="6"
       y="-91"
       transform="scale(1,-1)"
       id="rect3716"
       style="opacity:0.45;fill:url(#linearGradient3721);fill-opacity:1;fill-rule:nonzero;stroke:none;display:inline" />
  </g>
  <g
     id="layer1">
    <rect
       width="84"
       height="84"
       rx="6"
       ry="6"
       x="6"
       y="6"
       id="rect2419"
       style="fill:url(#linearGradient3617);fill-opacity:1;fill-rule:nonzero;stroke:none" />
  </g>
  <g
     id="layer3">
    <path
       d="m 115.78125,6 c -5.78119,3.1123067 -9.71875,9.225149 -9.71875,16.25 0,10.181526 8.25597,18.4375 18.4375,18.4375 10.18153,0 18.4375,-8.255974 18.4375,-18.4375 0,-7.024851 -3.93756,-13.1376933 -9.71875,-16.25 l -17.4375,0 z m 24.78125,0 c 4.09802,4.129345 6.625,9.818866 6.625,16.09375 0,12.612729 -10.23102,22.84375 -22.84375,22.84375 -7.50479,10e-7 -14.17899,-3.627823 -18.34375,-9.21875 l 0,7.875 0.21875,-0.15625 0.4375,-0.53125 2.1875,1.6875 -0.40625,0.5625 -0.625,1.75 -0.375,2.71875 1.5625,0.875 2.15625,-1.65625 1.1875,-1.4375 0.3125,-0.625 2.53125,1.0625 -0.25,0.65625 -0.15625,1.84375 0.375,2.71875 1.71875,0.46875 1.6875,-2.1875 0.75,-1.6875 0.125,-0.6875 2.75,0.375 L 122.125,50 l 0.28125,1.84375 1.0625,2.53125 1.78125,0 1.0625,-2.53125 L 126.625,50 l -0.0625,-0.65625 2.71875,-0.375 0.125,0.6875 0.78125,1.6875 1.65625,2.1875 1.71875,-0.46875 0.375,-2.71875 L 133.75,48.5 l -0.21875,-0.65625 2.53125,-1.0625 0.3125,0.625 1.15625,1.4375 2.1875,1.65625 1.53125,-0.875 -0.34375,-2.71875 -0.65625,-1.75 -0.375,-0.5625 2.1875,-1.6875 0.4375,0.53125 1.5,1.0625 2.5625,1.0625 1.25,-1.28125 -1.0625,-2.53125 -1.0625,-1.5 -0.53125,-0.4375 1.6875,-2.1875 0.5625,0.375 1.75,0.65625 L 151.875,39 l 0.875,-1.53125 -1.65625,-2.1875 -1.4375,-1.1875 -0.625,-0.25 1.0625,-2.5625 0.65625,0.21875 1.84375,0.1875 2.71875,-0.375 0.4375,-1.71875 -2.15625,-1.6875 -1.6875,-0.75 -0.6875,-0.125 0.375,-2.75 0.6875,0.0625 1.8125,-0.3125 L 156.625,23 l 0,-1.78125 -2.53125,-1.0625 -1.8125,-0.3125 -0.6875,0.0625 -0.375,-2.75 0.6875,-0.125 1.6875,-0.75 2.15625,-1.6875 -0.4375,-1.71875 -2.71875,-0.34375 -1.84375,0.15625 -0.65625,0.25 -1.0625,-2.5625 0.625,-0.28125 1.4375,-1.1875 L 152.75,6.75 152.34375,6 l -4.4375,0 -0.5,0.1875 -0.5625,0.40625 L 146.375,6 140.5625,6 z M 124.5,8.625 c 7.53154,0 13.625,6.09346 13.625,13.625 0,7.53154 -6.09346,13.65625 -13.625,13.65625 -7.53154,0 -13.65625,-6.12471 -13.65625,-13.65625 0,-7.53154 6.12471,-13.625 13.65625,-13.625 z m 43.59375,28.21875 -1.1875,2.8125 -0.34375,2 0.0625,0.78125 -3.03125,0.375 -0.125,-0.71875 -0.84375,-1.875 -1.875,-2.40625 -1.875,0.5 -0.40625,3 0.1875,2.0625 0.25,0.6875 -2.8125,1.1875 -0.3125,-0.6875 -1.3125,-1.59375 -2.4375,-1.84375 -1.6875,1 0.40625,3.03125 0.6875,1.875 0.4375,0.65625 -2.40625,1.84375 -0.5,-0.5625 L 147.3125,47.75 144.5,46.625 143.09375,48 l 1.15625,2.8125 1.1875,1.65625 0.59375,0.5 -1.875,2.4375 -0.625,-0.4375 -1.90625,-0.71875 -3,-0.40625 -1,1.71875 1.84375,2.40625 1.59375,1.3125 0.65625,0.3125 -1.15625,2.8125 -0.71875,-0.25 -2.03125,-0.1875 -3,0.40625 -0.53125,1.90625 2.40625,1.84375 1.875,0.84375 0.75,0.15625 -0.40625,3.03125 -0.75,-0.0625 -2.03125,0.3125 -2.8125,1.1875 0,1.96875 2.8125,1.15625 2.03125,0.34375 0.75,-0.0625 0.40625,3.03125 -0.75,0.15625 -1.875,0.8125 -2.40625,1.875 0.53125,1.90625 3,0.40625 2.03125,-0.21875 0.71875,-0.25 1.15625,2.8125 -0.65625,0.34375 -1.59375,1.28125 -1.84375,2.4375 0.25,0.40625 5.9375,0 0.34375,-0.25 0.1875,0.25 6.21875,0 c -1.29523,-1.37524 -2.43984,-2.894648 -3.40625,-4.53125 l 10.90625,-5 c 2.31639,3.217479 6.01483,5.382208 10.21875,5.625 L 168.8125,90 l 5.21875,0 -0.625,-4.59375 c 3.78803,-1.284696 6.83138,-4.197457 8.28125,-7.90625 L 190,79.03125 190,73.75 182.625,72.40625 c -0.0504,-4.233581 -2.06895,-7.986155 -5.15625,-10.4375 l 5.5,-10.65625 c 2.76801,1.813686 5.15704,4.157048 7.03125,6.875 l 0,-9.84375 -0.84375,0.625 -0.5,0.5625 -2.40625,-1.84375 0.40625,-0.65625 0.75,-1.875 0.375,-3.03125 -1.71875,-1 -2.40625,1.84375 -1.28125,1.59375 -0.34375,0.6875 -2.8125,-1.1875 0.25,-0.6875 0.21875,-2.0625 -0.4375,-3 -1.875,-0.5 -1.875,2.40625 -0.84375,1.875 -0.125,0.71875 -3.03125,-0.375 0.0625,-0.78125 -0.34375,-2 -1.15625,-2.8125 -1.96875,0 z m 0.96875,10.3125 c 3.2847,0 6.43014,0.645954 9.3125,1.78125 l -5.5,10.625 c -1.20945,-0.35429 -2.48898,-0.53125 -3.8125,-0.53125 -2.62433,0 -5.08015,0.738068 -7.15625,2.03125 L 153.75,52.28125 c 4.26057,-3.217148 9.56672,-5.125 15.3125,-5.125 z m -48.75,6.3125 -0.96875,2.09375 -0.0625,0.71875 0.1875,1.25 -2.25,0.59375 -0.4375,-1.1875 -0.4375,-0.59375 L 114.5,55 l -1.09375,0.625 0.21875,2.28125 0.3125,0.65625 0.78125,1 -1.625,1.625 -1,-0.78125 -0.65625,-0.3125 -2.28125,-0.21875 -0.625,1.0625 1.34375,1.84375 0.59375,0.4375 1.15625,0.46875 -0.59375,2.21875 -1.25,-0.1875 -0.75,0.0625 -2.0625,0.9375 0,1.25 2.0625,0.9375 0.75,0.0625 1.25,-0.15625 0.59375,2.21875 -1.1875,0.46875 -0.59375,0.40625 -1.34375,1.875 0.59375,1.0625 2.28125,-0.21875 0.6875,-0.3125 1,-0.78125 1.625,1.625 -0.8125,1 -0.3125,0.6875 -0.21875,2.25 1.0625,0.625 1.875,-1.3125 0.40625,-0.59375 0.5,-1.1875 2.21875,0.59375 -0.1875,1.25 0.0625,0.75 0.9375,2.09375 1.21875,0 0.96875,-2.09375 0.0625,-0.71875 -0.1875,-1.28125 2.21875,-0.5625 0.46875,1.15625 0.4375,0.625 1.84375,1.3125 1.0625,-0.59375 -0.21875,-2.28125 -0.28125,-0.65625 -0.78125,-1 1.625,-1.625 1,0.78125 0.65625,0.3125 2.28125,0.21875 0.625,-1.0625 L 131.875,72 l -0.59375,-0.4375 -1.1875,-0.46875 0.625,-2.21875 1.25,0.1875 0.71875,-0.0625 2.09375,-0.9375 0,-1.25 -2.0625,-0.9375 -0.75,-0.09375 -1.25,0.1875 -0.59375,-2.21875 1.1875,-0.46875 0.59375,-0.4375 L 133.25,61 l -0.625,-1.0625 -2.25,0.21875 -0.6875,0.3125 -1,0.78125 -1.625,-1.65625 0.8125,-0.96875 0.28125,-0.6875 0.25,-2.25 -1.0625,-0.625 -1.875,1.3125 -0.4375,0.59375 -0.46875,1.1875 -2.21875,-0.59375 0.1875,-1.28125 -0.0625,-0.71875 -0.9375,-2.09375 -1.21875,0 z m 29.625,2.34375 8.15625,8.78125 C 156.4581,66.83303 155.5,69.579121 155.5,72.5625 c 0,1.101371 0.15791,2.193362 0.40625,3.21875 L 145,80.75 c -0.87766,-2.573536 -1.375,-5.318808 -1.375,-8.1875 0,-6.420779 2.37994,-12.275157 6.3125,-16.75 z m -29.09375,8.375 c 1.81315,0 3.28125,1.468102 3.28125,3.28125 0,1.813148 -1.4681,3.28125 -3.28125,3.28125 -1.81315,0 -3.28125,-1.468102 -3.28125,-3.28125 0,-1.813148 1.4681,-3.28125 3.28125,-3.28125 z m 48.21875,3.28125 c 2.78946,0 5.0625,2.241791 5.0625,5.03125 0,2.789459 -2.27304,5.0625 -5.0625,5.0625 -2.78946,0 -5.03125,-2.273041 -5.03125,-5.0625 0,-2.789459 2.24179,-5.03125 5.03125,-5.03125 z"
       transform="translate(-100,0)"
       clip-path="url(#clipPath3836)"
       id="path3830"
       style="opacity:0.5;fill:#ffffff;fill-opacity:1;stroke:none;display:inline;filter:url(#filter3879)" />
    <path
       d="M 15.78125,6 C 10.000055,9.112307 6.0625,15.225149 6.0625,22.25 c 0,10.181526 8.255974,18.4375 18.4375,18.4375 10.181526,0 18.4375,-8.255974 18.4375,-18.4375 0,-7.024851 -3.937555,-13.137693 -9.71875,-16.25 L 15.78125,6 z M 40.5625,6 c 4.098021,4.129345 6.625,9.818866 6.625,16.09375 0,12.612729 -10.231018,22.84375 -22.84375,22.84375 C 16.838963,44.937501 10.164764,41.309677 6,35.71875 l 0,7.875 0.21875,-0.15625 0.4375,-0.53125 2.1875,1.6875 -0.40625,0.5625 -0.625,1.75 L 7.4375,49.625 9,50.5 l 2.15625,-1.65625 1.1875,-1.4375 0.3125,-0.625 2.53125,1.0625 -0.25,0.65625 -0.15625,1.84375 0.375,2.71875 1.71875,0.46875 1.6875,-2.1875 0.75,-1.6875 0.125,-0.6875 2.75,0.375 L 22.125,50 l 0.28125,1.84375 1.0625,2.53125 1.78125,0 1.0625,-2.53125 L 26.625,50 l -0.0625,-0.65625 2.71875,-0.375 0.125,0.6875 0.78125,1.6875 1.65625,2.1875 1.71875,-0.46875 0.375,-2.71875 L 33.75,48.5 l -0.21875,-0.65625 2.53125,-1.0625 0.3125,0.625 1.15625,1.4375 L 39.71875,50.5 41.25,49.625 40.90625,46.90625 40.25,45.15625 39.875,44.59375 42.0625,42.90625 42.5,43.4375 44,44.5 l 2.5625,1.0625 1.25,-1.28125 L 46.75,41.75 l -1.0625,-1.5 -0.53125,-0.4375 1.6875,-2.1875 0.5625,0.375 1.75,0.65625 L 51.875,39 l 0.875,-1.53125 -1.65625,-2.1875 -1.4375,-1.1875 -0.625,-0.25 1.0625,-2.5625 L 50.75,31.5 l 1.84375,0.1875 2.71875,-0.375 0.4375,-1.71875 -2.15625,-1.6875 -1.6875,-0.75 -0.6875,-0.125 0.375,-2.75 0.6875,0.0625 1.8125,-0.3125 L 56.625,23 l 0,-1.78125 -2.53125,-1.0625 -1.8125,-0.3125 -0.6875,0.0625 -0.375,-2.75 0.6875,-0.125 1.6875,-0.75 L 55.75,14.59375 55.3125,12.875 52.59375,12.53125 50.75,12.6875 l -0.65625,0.25 -1.0625,-2.5625 0.625,-0.28125 1.4375,-1.1875 L 52.75,6.75 52.34375,6 l -4.4375,0 -0.5,0.1875 -0.5625,0.40625 L 46.375,6 40.5625,6 z M 24.5,8.625 c 7.53154,0 13.625,6.09346 13.625,13.625 0,7.53154 -6.09346,13.65625 -13.625,13.65625 -7.53154,0 -13.65625,-6.12471 -13.65625,-13.65625 0,-7.53154 6.12471,-13.625 13.65625,-13.625 z m 43.59375,28.21875 -1.1875,2.8125 -0.34375,2 0.0625,0.78125 -3.03125,0.375 -0.125,-0.71875 -0.84375,-1.875 -1.875,-2.40625 -1.875,0.5 -0.40625,3 0.1875,2.0625 0.25,0.6875 -2.8125,1.1875 -0.3125,-0.6875 -1.3125,-1.59375 -2.4375,-1.84375 -1.6875,1 0.40625,3.03125 0.6875,1.875 0.4375,0.65625 -2.40625,1.84375 -0.5,-0.5625 L 47.3125,47.75 44.5,46.625 43.09375,48 44.25,50.8125 l 1.1875,1.65625 0.59375,0.5 -1.875,2.4375 -0.625,-0.4375 L 41.625,54.25 l -3,-0.40625 -1,1.71875 1.84375,2.40625 1.59375,1.3125 0.65625,0.3125 -1.15625,2.8125 -0.71875,-0.25 -2.03125,-0.1875 -3,0.40625 -0.53125,1.90625 2.40625,1.84375 1.875,0.84375 0.75,0.15625 -0.40625,3.03125 -0.75,-0.0625 -2.03125,0.3125 -2.8125,1.1875 0,1.96875 2.8125,1.15625 2.03125,0.34375 0.75,-0.0625 0.40625,3.03125 -0.75,0.15625 -1.875,0.8125 -2.40625,1.875 0.53125,1.90625 3,0.40625 2.03125,-0.21875 0.71875,-0.25 1.15625,2.8125 -0.65625,0.34375 -1.59375,1.28125 -1.84375,2.4375 0.25,0.40625 5.9375,0 0.34375,-0.25 0.1875,0.25 6.21875,0 c -1.295234,-1.37524 -2.43984,-2.894648 -3.40625,-4.53125 l 10.90625,-5 c 2.316387,3.217479 6.014825,5.382208 10.21875,5.625 L 68.8125,90 l 5.21875,0 -0.625,-4.59375 C 77.19428,84.121554 80.237632,81.208793 81.6875,77.5 L 90,79.03125 90,73.75 82.625,72.40625 c -0.05044,-4.233581 -2.068949,-7.986155 -5.15625,-10.4375 l 5.5,-10.65625 c 2.768009,1.813686 5.157045,4.157048 7.03125,6.875 l 0,-9.84375 -0.84375,0.625 -0.5,0.5625 -2.40625,-1.84375 0.40625,-0.65625 0.75,-1.875 0.375,-3.03125 -1.71875,-1 -2.40625,1.84375 -1.28125,1.59375 -0.34375,0.6875 -2.8125,-1.1875 0.25,-0.6875 0.21875,-2.0625 -0.4375,-3 -1.875,-0.5 -1.875,2.40625 -0.84375,1.875 -0.125,0.71875 -3.03125,-0.375 0.0625,-0.78125 -0.34375,-2 -1.15625,-2.8125 -1.96875,0 z m 0.96875,10.3125 c 3.284696,0 6.430143,0.645954 9.3125,1.78125 l -5.5,10.625 c -1.209447,-0.35429 -2.488978,-0.53125 -3.8125,-0.53125 -2.624326,0 -5.080149,0.738068 -7.15625,2.03125 L 53.75,52.28125 c 4.260574,-3.217148 9.566723,-5.125 15.3125,-5.125 z m -48.75,6.3125 -0.96875,2.09375 -0.0625,0.71875 0.1875,1.25 -2.25,0.59375 -0.4375,-1.1875 -0.4375,-0.59375 L 14.5,55 l -1.09375,0.625 0.21875,2.28125 0.3125,0.65625 0.78125,1 -1.625,1.625 -1,-0.78125 -0.65625,-0.3125 -2.28125,-0.21875 -0.625,1.0625 1.34375,1.84375 0.59375,0.4375 1.15625,0.46875 -0.59375,2.21875 -1.25,-0.1875 -0.75,0.0625 -2.0625,0.9375 0,1.25 2.0625,0.9375 0.75,0.0625 1.25,-0.15625 L 11.625,71.03125 10.4375,71.5 9.84375,71.90625 8.5,73.78125 9.09375,74.84375 11.375,74.625 l 0.6875,-0.3125 1,-0.78125 1.625,1.625 -0.8125,1 -0.3125,0.6875 -0.21875,2.25 1.0625,0.625 1.875,-1.3125 0.40625,-0.59375 0.5,-1.1875 2.21875,0.59375 -0.1875,1.25 0.0625,0.75 0.9375,2.09375 1.21875,0 0.96875,-2.09375 0.0625,-0.71875 -0.1875,-1.28125 2.21875,-0.5625 0.46875,1.15625 0.4375,0.625 L 27.25,79.75 28.3125,79.15625 28.09375,76.875 27.8125,76.21875 l -0.78125,-1 1.625,-1.625 1,0.78125 0.65625,0.3125 2.28125,0.21875 0.625,-1.0625 L 31.875,72 l -0.59375,-0.4375 -1.1875,-0.46875 0.625,-2.21875 1.25,0.1875 L 32.6875,69 l 2.09375,-0.9375 0,-1.25 -2.0625,-0.9375 -0.75,-0.09375 -1.25,0.1875 L 30.125,63.75 31.3125,63.28125 31.90625,62.84375 33.25,61 l -0.625,-1.0625 -2.25,0.21875 -0.6875,0.3125 -1,0.78125 -1.625,-1.65625 0.8125,-0.96875 0.28125,-0.6875 0.25,-2.25 -1.0625,-0.625 -1.875,1.3125 -0.4375,0.59375 -0.46875,1.1875 -2.21875,-0.59375 0.1875,-1.28125 -0.0625,-0.71875 -0.9375,-2.09375 -1.21875,0 z m 29.625,2.34375 8.15625,8.78125 C 56.458102,66.83303 55.5,69.579121 55.5,72.5625 c 0,1.101371 0.157912,2.193362 0.40625,3.21875 L 45,80.75 c -0.877661,-2.573536 -1.375,-5.318808 -1.375,-8.1875 0,-6.420779 2.379937,-12.275157 6.3125,-16.75 z m -29.09375,8.375 c 1.813148,0 3.28125,1.468102 3.28125,3.28125 0,1.813148 -1.468102,3.28125 -3.28125,3.28125 -1.813148,0 -3.28125,-1.468102 -3.28125,-3.28125 0,-1.813148 1.468102,-3.28125 3.28125,-3.28125 z m 48.21875,3.28125 c 2.789459,0 5.0625,2.241791 5.0625,5.03125 0,2.789459 -2.273041,5.0625 -5.0625,5.0625 -2.789459,0 -5.03125,-2.273041 -5.03125,-5.0625 0,-2.789459 2.241791,-5.03125 5.03125,-5.03125 z"
       id="path6159"
       style="fill:url(#linearGradient3846);fill-opacity:1;stroke:none;display:inline" />
    <path
       d="m 115.78125,6.5 c -5.78119,3.112307 -9.71875,9.225149 -9.71875,16.25 0,10.181526 8.25597,18.4375 18.4375,18.4375 10.18153,0 18.4375,-8.255974 18.4375,-18.4375 0,-7.024851 -3.93756,-13.137693 -9.71875,-16.25 l -17.4375,0 z m 24.78125,0 c 4.09802,4.129345 6.625,9.818866 6.625,16.09375 0,12.612729 -10.23102,22.84375 -22.84375,22.84375 -7.50479,10e-7 -14.17899,-3.627823 -18.34375,-9.21875 l 0,7.875 0.21875,-0.15625 0.4375,-0.53125 2.1875,1.6875 -0.40625,0.5625 -0.625,1.75 -0.375,2.71875 L 109,51 l 2.15625,-1.65625 1.1875,-1.4375 0.3125,-0.625 2.53125,1.0625 -0.25,0.65625 -0.15625,1.84375 0.375,2.71875 1.71875,0.46875 1.6875,-2.1875 0.75,-1.6875 0.125,-0.6875 2.75,0.375 -0.0625,0.65625 0.28125,1.84375 1.0625,2.53125 1.78125,0 1.0625,-2.53125 0.3125,-1.84375 -0.0625,-0.65625 2.71875,-0.375 0.125,0.6875 0.78125,1.6875 1.65625,2.1875 1.71875,-0.46875 0.375,-2.71875 L 133.75,49 l -0.21875,-0.65625 2.53125,-1.0625 0.3125,0.625 1.15625,1.4375 2.1875,1.65625 1.53125,-0.875 -0.34375,-2.71875 -0.65625,-1.75 -0.375,-0.5625 2.1875,-1.6875 L 142.5,43.9375 144,45 l 2.5625,1.0625 1.25,-1.28125 -1.0625,-2.53125 -1.0625,-1.5 -0.53125,-0.4375 1.6875,-2.1875 0.5625,0.375 1.75,0.65625 2.71875,0.34375 0.875,-1.53125 -1.65625,-2.1875 -1.4375,-1.1875 -0.625,-0.25 1.0625,-2.5625 L 150.75,32 l 1.84375,0.1875 2.71875,-0.375 0.4375,-1.71875 -2.15625,-1.6875 -1.6875,-0.75 -0.6875,-0.125 0.375,-2.75 0.6875,0.0625 1.8125,-0.3125 2.53125,-1.03125 0,-1.78125 -2.53125,-1.0625 -1.8125,-0.3125 -0.6875,0.0625 -0.375,-2.75 0.6875,-0.125 1.6875,-0.75 2.15625,-1.6875 -0.4375,-1.71875 -2.71875,-0.34375 -1.84375,0.15625 -0.65625,0.25 -1.0625,-2.5625 0.625,-0.28125 1.4375,-1.1875 L 152.75,7.25 152.34375,6.5 l -4.4375,0 -0.5,0.1875 -0.5625,0.40625 L 146.375,6.5 l -5.8125,0 z M 124.5,9.125 c 7.53154,0 13.625,6.09346 13.625,13.625 0,7.53154 -6.09346,13.65625 -13.625,13.65625 -7.53154,0 -13.65625,-6.12471 -13.65625,-13.65625 0,-7.53154 6.12471,-13.625 13.65625,-13.625 z m 43.59375,28.21875 -1.1875,2.8125 -0.34375,2 0.0625,0.78125 -3.03125,0.375 -0.125,-0.71875 -0.84375,-1.875 -1.875,-2.40625 -1.875,0.5 -0.40625,3 0.1875,2.0625 0.25,0.6875 -2.8125,1.1875 -0.3125,-0.6875 -1.3125,-1.59375 -2.4375,-1.84375 -1.6875,1 0.40625,3.03125 0.6875,1.875 0.4375,0.65625 -2.40625,1.84375 -0.5,-0.5625 L 147.3125,48.25 144.5,47.125 l -1.40625,1.375 1.15625,2.8125 1.1875,1.65625 0.59375,0.5 -1.875,2.4375 -0.625,-0.4375 -1.90625,-0.71875 -3,-0.40625 -1,1.71875 1.84375,2.40625 1.59375,1.3125 0.65625,0.3125 -1.15625,2.8125 -0.71875,-0.25 -2.03125,-0.1875 -3,0.40625 -0.53125,1.90625 2.40625,1.84375 1.875,0.84375 0.75,0.15625 -0.40625,3.03125 -0.75,-0.0625 -2.03125,0.3125 -2.8125,1.1875 0,1.96875 2.8125,1.15625 2.03125,0.34375 0.75,-0.0625 0.40625,3.03125 -0.75,0.15625 -1.875,0.8125 -2.40625,1.875 0.53125,1.90625 3,0.40625 2.03125,-0.21875 0.71875,-0.25 1.15625,2.8125 -0.65625,0.34375 -1.59375,1.28125 -1.84375,2.4375 0.25,0.40625 5.9375,0 0.34375,-0.25 0.1875,0.25 6.21875,0 c -1.29523,-1.37524 -2.43984,-2.894648 -3.40625,-4.53125 l 10.90625,-5 c 2.31639,3.217479 6.01482,5.382208 10.21875,5.625 l 0.53125,3.90625 5.21875,0 -0.625,-4.59375 C 177.19428,84.621554 180.23763,81.708793 181.6875,78 L 190,79.53125 190,74.25 182.625,72.90625 c -0.0504,-4.233581 -2.06895,-7.986155 -5.15625,-10.4375 l 5.5,-10.65625 c 2.76801,1.813686 5.15704,4.157048 7.03125,6.875 l 0,-9.84375 -0.84375,0.625 -0.5,0.5625 -2.40625,-1.84375 0.40625,-0.65625 0.75,-1.875 0.375,-3.03125 -1.71875,-1 -2.40625,1.84375 -1.28125,1.59375 -0.34375,0.6875 -2.8125,-1.1875 0.25,-0.6875 0.21875,-2.0625 -0.4375,-3 -1.875,-0.5 -1.875,2.40625 -0.84375,1.875 -0.125,0.71875 -3.03125,-0.375 0.0625,-0.78125 -0.34375,-2 -1.15625,-2.8125 -1.96875,0 z m 0.96875,10.3125 c 3.2847,0 6.43014,0.645954 9.3125,1.78125 l -5.5,10.625 c -1.20945,-0.35429 -2.48898,-0.53125 -3.8125,-0.53125 -2.62433,0 -5.08015,0.738068 -7.15625,2.03125 L 153.75,52.78125 c 4.26057,-3.217148 9.56672,-5.125 15.3125,-5.125 z m -48.75,6.3125 -0.96875,2.09375 -0.0625,0.71875 0.1875,1.25 -2.25,0.59375 -0.4375,-1.1875 -0.4375,-0.59375 L 114.5,55.5 l -1.09375,0.625 0.21875,2.28125 0.3125,0.65625 0.78125,1 -1.625,1.625 -1,-0.78125 -0.65625,-0.3125 -2.28125,-0.21875 -0.625,1.0625 1.34375,1.84375 0.59375,0.4375 1.15625,0.46875 -0.59375,2.21875 -1.25,-0.1875 -0.75,0.0625 -2.0625,0.9375 0,1.25 2.0625,0.9375 0.75,0.0625 1.25,-0.15625 0.59375,2.21875 -1.1875,0.46875 -0.59375,0.40625 -1.34375,1.875 0.59375,1.0625 2.28125,-0.21875 0.6875,-0.3125 1,-0.78125 1.625,1.625 -0.8125,1 -0.3125,0.6875 -0.21875,2.25 1.0625,0.625 1.875,-1.3125 0.40625,-0.59375 0.5,-1.1875 2.21875,0.59375 -0.1875,1.25 0.0625,0.75 0.9375,2.09375 1.21875,0 0.96875,-2.09375 0.0625,-0.71875 -0.1875,-1.28125 2.21875,-0.5625 0.46875,1.15625 0.4375,0.625 1.84375,1.3125 1.0625,-0.59375 -0.21875,-2.28125 -0.28125,-0.65625 -0.78125,-1 1.625,-1.625 1,0.78125 0.65625,0.3125 2.28125,0.21875 0.625,-1.0625 L 131.875,72.5 l -0.59375,-0.4375 -1.1875,-0.46875 0.625,-2.21875 1.25,0.1875 0.71875,-0.0625 2.09375,-0.9375 0,-1.25 -2.0625,-0.9375 -0.75,-0.09375 -1.25,0.1875 -0.59375,-2.21875 1.1875,-0.46875 0.59375,-0.4375 L 133.25,61.5 l -0.625,-1.0625 -2.25,0.21875 -0.6875,0.3125 -1,0.78125 -1.625,-1.65625 0.8125,-0.96875 0.28125,-0.6875 0.25,-2.25 -1.0625,-0.625 -1.875,1.3125 -0.4375,0.59375 -0.46875,1.1875 -2.21875,-0.59375 0.1875,-1.28125 -0.0625,-0.71875 -0.9375,-2.09375 -1.21875,0 z m 29.625,2.34375 8.15625,8.78125 C 156.4581,67.33303 155.5,70.079121 155.5,73.0625 c 0,1.101371 0.15791,2.193362 0.40625,3.21875 L 145,81.25 c -0.87766,-2.573536 -1.375,-5.318808 -1.375,-8.1875 0,-6.420779 2.37994,-12.275157 6.3125,-16.75 z m -29.09375,8.375 c 1.81315,0 3.28125,1.468102 3.28125,3.28125 0,1.813148 -1.4681,3.28125 -3.28125,3.28125 -1.81315,0 -3.28125,-1.468102 -3.28125,-3.28125 0,-1.813148 1.4681,-3.28125 3.28125,-3.28125 z m 48.21875,3.28125 c 2.78946,0 5.0625,2.241791 5.0625,5.03125 0,2.789459 -2.27304,5.0625 -5.0625,5.0625 -2.78946,0 -5.03125,-2.273041 -5.03125,-5.0625 0,-2.789459 2.24179,-5.03125 5.03125,-5.03125 z"
       transform="translate(-100,0)"
       clip-path="url(#clipPath3867)"
       id="path3786"
       style="opacity:0.2;fill:none;stroke:#000000;stroke-width:1.5;stroke-miterlimit:4;stroke-dasharray:none;display:inline;filter:url(#filter3875)" />
    <path
       d="m -51.90625,36.84375 -1.1875,2.8125 -0.34375,2 0.0625,0.78125 -3.03125,0.375 -0.125,-0.71875 -0.84375,-1.875 -1.875,-2.40625 -1.875,0.5 -0.40625,3 0.1875,2.0625 0.25,0.6875 -2.8125,1.1875 -0.3125,-0.6875 -1.3125,-1.59375 -2.4375,-1.84375 -1.6875,1 0.40625,3.03125 0.6875,1.875 0.4375,0.65625 -2.40625,1.84375 -0.5,-0.5625 L -72.6875,47.75 -75.5,46.625 -76.90625,48 l 1.15625,2.8125 1.1875,1.65625 0.59375,0.5 -1.875,2.4375 -0.625,-0.4375 -1.90625,-0.71875 -3,-0.40625 -1,1.71875 1.84375,2.40625 1.59375,1.3125 0.65625,0.3125 -1.15625,2.8125 -0.71875,-0.25 -2.03125,-0.1875 -3,0.40625 -0.53125,1.90625 2.40625,1.84375 1.875,0.84375 0.75,0.15625 -0.40625,3.03125 -0.75,-0.0625 -2.03125,0.3125 -2.8125,1.1875 0,1.96875 2.8125,1.15625 2.03125,0.34375 0.75,-0.0625 0.40625,3.03125 -0.75,0.15625 -1.875,0.8125 -2.40625,1.875 0.53125,1.90625 3,0.40625 2.03125,-0.21875 0.71875,-0.25 1.15625,2.8125 -0.65625,0.34375 -1.59375,1.28125 -1.84375,2.4375 1,1.6875 3,-0.375 1.90625,-0.71875 0.625,-0.4375 1.875,2.40625 -0.59375,0.5 -1.1875,1.6875 -1.15625,2.8125 1.40625,1.375 2.8125,-1.15625 1.65625,-1.1875 0.5,-0.5625 2.40625,1.84375 -0.4375,0.625 L -69.25,100 l -0.40625,3.03125 1.6875,0.96875 2.4375,-1.8125 1.3125,-1.59375 0.3125,-0.6875 2.8125,1.15625 -0.25,0.71875 -0.1875,2.03125 0.40625,3.03125 1.875,0.5 1.875,-2.40625 0.84375,-1.875 0.125,-0.75 3.03125,0.40625 -0.0625,0.75 0.34375,2.03125 1.1875,2.8125 1.96875,0 1.15625,-2.8125 0.34375,-2.03125 -0.0625,-0.75 3.03125,-0.40625 0.125,0.75 0.84375,1.875 1.875,2.40625 1.875,-0.5 0.4375,-3.03125 -0.21875,-2.03125 -0.25,-0.71875 2.8125,-1.15625 0.34375,0.6875 1.28125,1.59375 2.40625,1.8125 1.71875,-0.96875 -0.375,-3.03125 -0.75,-1.90625 -0.40625,-0.625 2.40625,-1.84375 0.5,0.5625 1.65625,1.1875 2.8125,1.15625 1.40625,-1.375 -1.15625,-2.8125 -1.1875,-1.6875 -0.59375,-0.5 1.875,-2.40625 0.625,0.4375 1.90625,0.71875 3.03125,0.375 0.96875,-1.6875 -1.84375,-2.4375 -1.59375,-1.28125 -0.6875,-0.34375 1.1875,-2.8125 0.71875,0.25 2.03125,0.21875 3,-0.40625 0.53125,-1.90625 -2.4375,-1.875 -1.84375,-0.8125 -0.75,-0.15625 0.40625,-3.03125 0.75,0.0625 2.03125,-0.34375 2.78125,-1.15625 0,-1.96875 -2.78125,-1.1875 -2.03125,-0.3125 -0.75,0.0625 -0.40625,-3.03125 0.75,-0.15625 1.84375,-0.84375 2.4375,-1.84375 -0.53125,-1.90625 -3,-0.40625 -2.03125,0.1875 -0.71875,0.25 -1.1875,-2.8125 0.6875,-0.3125 1.59375,-1.3125 L -19.5,55.5625 -20.46875,53.84375 -23.5,54.25 l -1.90625,0.71875 -0.625,0.4375 -1.875,-2.4375 0.59375,-0.5 1.1875,-1.65625 1.15625,-2.8125 -1.40625,-1.375 -2.8125,1.125 -1.65625,1.21875 -0.5,0.5625 -2.40625,-1.84375 0.40625,-0.65625 0.75,-1.875 0.375,-3.03125 -1.71875,-1 -2.40625,1.84375 -1.28125,1.59375 -0.34375,0.6875 -2.8125,-1.1875 0.25,-0.6875 0.21875,-2.0625 -0.4375,-3 -1.875,-0.5 -1.875,2.40625 -0.84375,1.875 -0.125,0.71875 -3.03125,-0.375 0.0625,-0.78125 -0.34375,-2 -1.15625,-2.8125 -1.96875,0 z m 0.96875,10.3125 c 3.284696,0 6.430143,0.645954 9.3125,1.78125 l -5.5,10.625 c -1.209447,-0.35429 -2.488978,-0.53125 -3.8125,-0.53125 -2.624326,0 -5.080149,0.738068 -7.15625,2.03125 L -66.25,52.28125 c 4.260574,-3.217148 9.566723,-5.125 15.3125,-5.125 z m 13.90625,4.15625 c 6.929687,4.540548 11.5,12.349721 11.5,21.25 0,0.664694 -0.01235,1.316818 -0.0625,1.96875 l -11.78125,-2.125 c -0.05044,-4.233581 -2.068949,-7.986155 -5.15625,-10.4375 l 5.5,-10.65625 z m -33.03125,4.5 8.15625,8.78125 C -63.541898,66.83303 -64.5,69.579121 -64.5,72.5625 c 0,1.101371 0.157912,2.193362 0.40625,3.21875 L -75,80.75 c -0.877661,-2.573536 -1.375,-5.318808 -1.375,-8.1875 0,-6.420779 2.379937,-12.275157 6.3125,-16.75 z m 19.125,11.65625 c 2.789459,0 5.0625,2.241791 5.0625,5.03125 0,2.789459 -2.273041,5.0625 -5.0625,5.0625 -2.789459,0 -5.03125,-2.273041 -5.03125,-5.0625 0,-2.789459 2.241791,-5.03125 5.03125,-5.03125 z m 12.625,10.03125 11.78125,2.15625 c -2.520899,8.720021 -9.563054,15.51994 -18.4375,17.65625 l -1.625,-11.90625 c 3.78803,-1.284696 6.831382,-4.197457 8.28125,-7.90625 z m -23.625,2.96875 c 2.316387,3.217479 6.014825,5.382208 10.21875,5.625 L -50.125,98 c -0.269203,0.009 -0.541251,0 -0.8125,0 -9.326138,0 -17.480084,-5.0356 -21.90625,-12.53125 l 10.90625,-5 z"
       id="path3767"
       style="fill:#000000;fill-opacity:1;stroke:none;display:inline" />
    <path
       d="m -96.53125,-10.15625 -1.0625,2.5 -0.28125,1.84375 0.0625,0.6875 -2.75,0.375 -0.125,-0.6875 -0.75,-1.6875 -1.6875,-2.1875 -1.71875,0.46875 -0.375,2.71875 0.15625,1.84375 0.25,0.625 -2.53125,1.0625 -0.3125,-0.625 -1.1875,-1.40625 -2.15625,-1.6875 -1.5625,0.90625 0.375,2.71875 0.625,1.75 0.40625,0.5625 -2.1875,1.6875 -0.4375,-0.53125 -1.5,-1.09375 -2.5625,-1.03125 -1.25,1.25 1.03125,2.5625 1.09375,1.5 0.5,0.4375 -1.65625,2.1875 -0.5625,-0.40625 -1.75,-0.65625 -2.71875,-0.34375 -0.875,1.5625 1.65625,2.15625 1.4375,1.1875 0.625,0.28125 -1.0625,2.5625 -0.65625,-0.25 -1.84375,-0.15625 -2.71875,0.34375 -0.46875,1.71875 2.1875,1.6875 1.6875,0.75 0.65625,0.125 -0.34375,2.75 -0.6875,-0.0625 -1.8125,0.3125 -2.53125,1.0625 0,1.78125 2.53125,1.03125 1.8125,0.3125 0.6875,-0.0625 0.34375,2.75 -0.65625,0.125 -1.6875,0.75 -2.1875,1.6875 0.46875,1.71875 2.71875,0.375 1.84375,-0.1875 0.65625,-0.21875 1.0625,2.5625 -0.625,0.25 -1.4375,1.1875 -1.65625,2.1875 0.875,1.53125 2.71875,-0.34375 1.75,-0.65625 0.5625,-0.375 1.65625,2.1875 -0.5,0.4375 -1.09375,1.5 -1.03125,2.53125 1.25,1.28125 2.5625,-1.0625 1.5,-1.0625 0.4375,-0.53125 2.1875,1.6875 -0.40625,0.5625 -0.625,1.75 -0.375,2.71875 1.5625,0.875 2.15625,-1.65625 1.1875,-1.4375 0.3125,-0.625 2.53125,1.0625 -0.25,0.65625 -0.15625,1.84375 0.375,2.71875 1.71875,0.46875 1.6875,-2.1875 0.75,-1.6875 0.125,-0.6875 2.75,0.375 L -97.875,50 l 0.28125,1.84375 1.0625,2.53125 1.78125,0 1.0625,-2.53125 L -93.375,50 l -0.0625,-0.65625 2.71875,-0.375 0.125,0.6875 0.78125,1.6875 1.65625,2.1875 1.71875,-0.46875 0.375,-2.71875 L -86.25,48.5 l -0.21875,-0.65625 2.53125,-1.0625 0.3125,0.625 1.15625,1.4375 2.1875,1.65625 1.53125,-0.875 -0.34375,-2.71875 -0.65625,-1.75 -0.375,-0.5625 2.1875,-1.6875 0.4375,0.53125 1.5,1.0625 2.5625,1.0625 1.25,-1.28125 -1.0625,-2.53125 -1.0625,-1.5 -0.53125,-0.4375 1.6875,-2.1875 0.5625,0.375 1.75,0.65625 L -68.125,39 l 0.875,-1.53125 -1.65625,-2.1875 -1.4375,-1.1875 -0.625,-0.25 1.0625,-2.5625 0.65625,0.21875 1.84375,0.1875 2.71875,-0.375 0.4375,-1.71875 -2.15625,-1.6875 -1.6875,-0.75 -0.6875,-0.125 0.375,-2.75 0.6875,0.0625 1.8125,-0.3125 L -63.375,23 l 0,-1.78125 -2.53125,-1.0625 -1.8125,-0.3125 -0.6875,0.0625 -0.375,-2.75 0.6875,-0.125 1.6875,-0.75 2.15625,-1.6875 -0.4375,-1.71875 -2.71875,-0.34375 -1.84375,0.15625 -0.65625,0.25 -1.0625,-2.5625 0.625,-0.28125 1.4375,-1.1875 L -67.25,6.75 l -0.875,-1.5625 -2.71875,0.34375 -1.75,0.65625 -0.5625,0.40625 -1.6875,-2.1875 0.53125,-0.4375 1.0625,-1.5 1.0625,-2.5625 -1.25,-1.25 -2.5625,1.03125 -1.5,1.09375 -0.4375,0.53125 -2.1875,-1.6875 0.375,-0.5625 0.65625,-1.75 0.34375,-2.71875 -1.53125,-0.90625 -2.1875,1.6875 -1.15625,1.40625 -0.3125,0.625 -2.53125,-1.0625 0.21875,-0.625 0.1875,-1.84375 -0.375,-2.71875 -1.71875,-0.46875 -1.65625,2.1875 -0.78125,1.6875 -0.125,0.6875 -2.71875,-0.375 0.0625,-0.6875 -0.3125,-1.84375 -1.0625,-2.5 -1.78125,0 z m 0.875,9.40625 c 12.612727,0 22.84375,10.2310197 22.84375,22.84375 0,12.612729 -10.231018,22.84375 -22.84375,22.84375 C -108.26898,44.937501 -118.5,34.70648 -118.5,22.09375 -118.5,9.4810197 -108.26898,-0.75 -95.65625,-0.75 z M -95.5,3.8125 c -10.18153,0 -18.4375,8.255974 -18.4375,18.4375 0,10.181526 8.25597,18.4375 18.4375,18.4375 10.181526,0 18.4375,-8.255974 18.4375,-18.4375 0,-10.181526 -8.255974,-18.4375 -18.4375,-18.4375 z m 0,4.8125 c 7.53154,0 13.625,6.09346 13.625,13.625 0,7.53154 -6.09346,13.65625 -13.625,13.65625 -7.53154,0 -13.65625,-6.12471 -13.65625,-13.65625 0,-7.53154 6.12471,-13.625 13.65625,-13.625 z"
       id="path3769"
       style="fill:#000000;fill-opacity:1;stroke:none" />
    <path
       d="m -99.6875,53.46875 -0.96875,2.09375 -0.0625,0.71875 0.1875,1.25 -2.25,0.59375 -0.4375,-1.1875 -0.4375,-0.59375 L -105.5,55 l -1.09375,0.625 0.21875,2.28125 0.3125,0.65625 0.78125,1 -1.625,1.625 -1,-0.78125 -0.65625,-0.3125 -2.28125,-0.21875 -0.625,1.0625 1.34375,1.84375 0.59375,0.4375 1.15625,0.46875 -0.59375,2.21875 -1.25,-0.1875 -0.75,0.0625 -2.0625,0.9375 0,1.25 2.0625,0.9375 0.75,0.0625 1.25,-0.15625 0.59375,2.21875 -1.1875,0.46875 -0.59375,0.40625 -1.34375,1.875 0.59375,1.0625 2.28125,-0.21875 0.6875,-0.3125 1,-0.78125 1.625,1.625 -0.8125,1 -0.3125,0.6875 -0.21875,2.25 1.0625,0.625 1.875,-1.3125 0.40625,-0.59375 0.5,-1.1875 2.21875,0.59375 -0.1875,1.25 0.0625,0.75 0.9375,2.09375 1.21875,0 0.96875,-2.09375 0.0625,-0.71875 -0.1875,-1.28125 2.21875,-0.5625 0.46875,1.15625 0.4375,0.625 1.84375,1.3125 1.0625,-0.59375 -0.21875,-2.28125 -0.28125,-0.65625 -0.78125,-1 1.625,-1.625 1,0.78125 0.65625,0.3125 2.28125,0.21875 0.625,-1.0625 L -88.125,72 l -0.59375,-0.4375 -1.1875,-0.46875 0.625,-2.21875 1.25,0.1875 0.71875,-0.0625 2.09375,-0.9375 0,-1.25 -2.0625,-0.9375 -0.75,-0.09375 -1.25,0.1875 -0.59375,-2.21875 1.1875,-0.46875 0.59375,-0.4375 L -86.75,61 l -0.625,-1.0625 -2.25,0.21875 -0.6875,0.3125 -1,0.78125 -1.625,-1.65625 0.8125,-0.96875 0.28125,-0.6875 0.25,-2.25 -1.0625,-0.625 -1.875,1.3125 -0.4375,0.59375 -0.46875,1.1875 -2.21875,-0.59375 0.1875,-1.28125 -0.0625,-0.71875 -0.9375,-2.09375 -1.21875,0 z m 0.53125,10.71875 c 1.813148,0 3.28125,1.468102 3.28125,3.28125 0,1.813148 -1.468102,3.28125 -3.28125,3.28125 -1.81315,0 -3.28125,-1.468102 -3.28125,-3.28125 0,-1.813148 1.4681,-3.28125 3.28125,-3.28125 z"
       id="path3771"
       style="fill:#000000;fill-opacity:1;stroke:none" />
    <rect
       width="84"
       height="84"
       rx="6"
       ry="6"
       x="6"
       y="106"
       id="rect3774"
       style="fill:#000000;fill-opacity:1;fill-rule:nonzero;stroke:none" />
  </g>
  <g
     id="layer5">
    <rect
       width="66"
       height="66"
       rx="12"
       ry="12"
       x="15"
       y="15"
       clip-path="url(#clipPath3613)"
       id="rect3171"
       style="opacity:0.1;fill:url(#linearGradient3613);fill-opacity:1;fill-rule:nonzero;stroke:#ffffff;stroke-width:0.5;stroke-linecap:round;stroke-linejoin:miter;stroke-miterlimit:4;stroke-opacity:1;stroke-dasharray:none;stroke-dashoffset:0;filter:url(#filter3794)" />
    <path
       d="M 12,6 C 8.676,6 6,8.676 6,12 l 0,2 0,68 0,2 c 0,0.334721 0.04135,0.6507 0.09375,0.96875 0.0487,0.295596 0.09704,0.596915 0.1875,0.875 0.00988,0.03038 0.020892,0.0636 0.03125,0.09375 0.098865,0.287771 0.2348802,0.547452 0.375,0.8125 0.1445918,0.273507 0.3156161,0.535615 0.5,0.78125 0.1843839,0.245635 0.3737765,0.473472 0.59375,0.6875 0.439947,0.428056 0.94291,0.814526 1.5,1.09375 0.278545,0.139612 0.5734731,0.246947 0.875,0.34375 -0.2562018,-0.100222 -0.4867109,-0.236272 -0.71875,-0.375 -0.00741,-0.0044 -0.023866,0.0045 -0.03125,0 -0.031933,-0.0193 -0.062293,-0.04251 -0.09375,-0.0625 -0.120395,-0.0767 -0.2310226,-0.163513 -0.34375,-0.25 -0.1061728,-0.0808 -0.2132809,-0.161112 -0.3125,-0.25 C 8.4783201,88.557317 8.3087904,88.373362 8.15625,88.1875 8.0486711,88.057245 7.9378561,87.922215 7.84375,87.78125 7.818661,87.74287 7.805304,87.69538 7.78125,87.65625 7.716487,87.553218 7.6510225,87.451733 7.59375,87.34375 7.4927417,87.149044 7.3880752,86.928049 7.3125,86.71875 7.30454,86.69694 7.288911,86.6782 7.28125,86.65625 7.2494249,86.5643 7.2454455,86.469419 7.21875,86.375 7.1884177,86.268382 7.1483606,86.171969 7.125,86.0625 7.0521214,85.720988 7,85.364295 7,85 L 7,83 7,15 7,13 C 7,10.218152 9.2181517,8 12,8 l 2,0 68,0 2,0 c 2.781848,0 5,2.218152 5,5 l 0,2 0,68 0,2 c 0,0.364295 -0.05212,0.720988 -0.125,1.0625 -0.04415,0.206893 -0.08838,0.397658 -0.15625,0.59375 -0.0077,0.02195 -0.0233,0.04069 -0.03125,0.0625 -0.06274,0.173739 -0.138383,0.367449 -0.21875,0.53125 -0.04158,0.0828 -0.07904,0.169954 -0.125,0.25 -0.0546,0.09721 -0.126774,0.18835 -0.1875,0.28125 -0.09411,0.140965 -0.204921,0.275995 -0.3125,0.40625 -0.143174,0.17445 -0.303141,0.346998 -0.46875,0.5 -0.01117,0.0102 -0.01998,0.02115 -0.03125,0.03125 -0.138386,0.125556 -0.285091,0.234436 -0.4375,0.34375 -0.102571,0.07315 -0.204318,0.153364 -0.3125,0.21875 -0.0074,0.0045 -0.02384,-0.0044 -0.03125,0 -0.232039,0.138728 -0.462548,0.274778 -0.71875,0.375 0.301527,-0.0968 0.596455,-0.204138 0.875,-0.34375 0.55709,-0.279224 1.060053,-0.665694 1.5,-1.09375 0.219973,-0.214028 0.409366,-0.441865 0.59375,-0.6875 0.184384,-0.245635 0.355408,-0.507743 0.5,-0.78125 0.14012,-0.265048 0.276135,-0.524729 0.375,-0.8125 0.01041,-0.03078 0.02133,-0.06274 0.03125,-0.09375 0.09046,-0.278085 0.1388,-0.579404 0.1875,-0.875 C 89.95865,84.6507 90,84.334721 90,84 l 0,-2 0,-68 0,-2 C 90,8.676 87.324,6 84,6 L 12,6 z"
       id="rect3728"
       style="opacity:0.5;fill:url(#linearGradient3188);fill-opacity:1;fill-rule:nonzero;stroke:none" />
    <path
       d="M 12,90 C 8.676,90 6,87.324 6,84 L 6,82 6,14 6,12 c 0,-0.334721 0.04135,-0.6507 0.09375,-0.96875 0.0487,-0.295596 0.09704,-0.596915 0.1875,-0.875 C 6.29113,10.12587 6.302142,10.09265 6.3125,10.0625 6.411365,9.774729 6.5473802,9.515048 6.6875,9.25 6.8320918,8.976493 7.0031161,8.714385 7.1875,8.46875 7.3718839,8.223115 7.5612765,7.995278 7.78125,7.78125 8.221197,7.353194 8.72416,6.966724 9.28125,6.6875 9.559795,6.547888 9.8547231,6.440553 10.15625,6.34375 9.9000482,6.443972 9.6695391,6.580022 9.4375,6.71875 c -0.00741,0.0044 -0.023866,-0.0045 -0.03125,0 -0.031933,0.0193 -0.062293,0.04251 -0.09375,0.0625 -0.120395,0.0767 -0.2310226,0.163513 -0.34375,0.25 -0.1061728,0.0808 -0.2132809,0.161112 -0.3125,0.25 C 8.4783201,7.442683 8.3087904,7.626638 8.15625,7.8125 8.0486711,7.942755 7.9378561,8.077785 7.84375,8.21875 7.818661,8.25713 7.805304,8.30462 7.78125,8.34375 7.716487,8.446782 7.6510225,8.548267 7.59375,8.65625 7.4927417,8.850956 7.3880752,9.071951 7.3125,9.28125 7.30454,9.30306 7.288911,9.3218 7.28125,9.34375 7.2494249,9.4357 7.2454455,9.530581 7.21875,9.625 7.1884177,9.731618 7.1483606,9.828031 7.125,9.9375 7.0521214,10.279012 7,10.635705 7,11 l 0,2 0,68 0,2 c 0,2.781848 2.2181517,5 5,5 l 2,0 68,0 2,0 c 2.781848,0 5,-2.218152 5,-5 l 0,-2 0,-68 0,-2 C 89,10.635705 88.94788,10.279012 88.875,9.9375 88.83085,9.730607 88.78662,9.539842 88.71875,9.34375 88.71105,9.3218 88.69545,9.30306 88.6875,9.28125 88.62476,9.107511 88.549117,8.913801 88.46875,8.75 88.42717,8.6672 88.38971,8.580046 88.34375,8.5 88.28915,8.40279 88.216976,8.31165 88.15625,8.21875 88.06214,8.077785 87.951329,7.942755 87.84375,7.8125 87.700576,7.63805 87.540609,7.465502 87.375,7.3125 87.36383,7.3023 87.35502,7.29135 87.34375,7.28125 87.205364,7.155694 87.058659,7.046814 86.90625,6.9375 86.803679,6.86435 86.701932,6.784136 86.59375,6.71875 c -0.0074,-0.0045 -0.02384,0.0044 -0.03125,0 -0.232039,-0.138728 -0.462548,-0.274778 -0.71875,-0.375 0.301527,0.0968 0.596455,0.204138 0.875,0.34375 0.55709,0.279224 1.060053,0.665694 1.5,1.09375 0.219973,0.214028 0.409366,0.441865 0.59375,0.6875 0.184384,0.245635 0.355408,0.507743 0.5,0.78125 0.14012,0.265048 0.276135,0.524729 0.375,0.8125 0.01041,0.03078 0.02133,0.06274 0.03125,0.09375 0.09046,0.278085 0.1388,0.579404 0.1875,0.875 C 89.95865,11.3493 90,11.665279 90,12 l 0,2 0,68 0,2 c 0,3.324 -2.676,6 -6,6 l -72,0 z"
       id="path3615"
       style="opacity:0.2;fill:url(#radialGradient3619);fill-opacity:1;fill-rule:nonzero;stroke:none" />
  </g>
  <g
     id="layer4">
    <path
       d="m 47.28125,16.71875 c 0.0045,-3.13e-4 -0.08594,0.02723 -0.125,0.03125 -0.0093,9.56e-4 -0.03231,1.49e-4 -0.03125,0 -0.0433,0.0088 -0.226159,0.03313 -0.21875,0.03125 0.0084,-0.0021 -0.258163,0.06555 -0.25,0.0625 0.0082,-0.0031 -0.226529,0.128932 -0.21875,0.125 0.0078,-0.0039 -0.226051,0.129761 -0.21875,0.125 0.0073,-0.0048 -0.194234,0.130533 -0.1875,0.125 0.0067,-0.0055 -0.193587,0.193738 -0.1875,0.1875 0.0061,-0.0062 -0.161616,0.194368 -0.15625,0.1875 0.0054,-0.0069 -0.16083,0.194915 -0.15625,0.1875 a 1.2463047,1.2463047 0 0 0 0,0.03125 c -2.078474,3.472465 -3.745606,7.097009 -5.5625,10.46875 -0.01296,0.02405 -0.04953,0.03848 -0.0625,0.0625 A 1.2463047,1.2463047 0 0 0 39.875,28.375 1.2463047,1.2463047 0 0 0 39.8125,28.53125 1.2463047,1.2463047 0 0 0 39.78125,28.5625 l -3.5625,6.8125 c -6.380192,1.134582 -12.778593,2.252808 -19.15625,3.40625 0.0055,-0.001 -0.161643,0.03264 -0.15625,0.03125 0.0054,-0.0014 -0.161532,0.03302 -0.15625,0.03125 0.0053,-0.0018 -0.161394,0.06464 -0.15625,0.0625 0.0051,-0.0021 -0.129982,0.06499 -0.125,0.0625 0.005,-0.0025 -0.161045,0.09658 -0.15625,0.09375 0.0048,-0.0028 -0.129584,0.06566 -0.125,0.0625 0.0046,-0.0032 -0.129351,0.09723 -0.125,0.09375 0.0038,-0.003 -0.1032,0.0752 -0.125,0.09375 l 0,0.03125 c -1.100452,1.012096 -1.236039,2.430662 -0.875,3.53125 0.204306,0.622803 0.639791,0.961564 1.03125,1.34375 a 1.2463047,1.2463047 0 0 0 0,0.03125 1.2463047,1.2463047 0 0 0 0.28125,0.5 l 12.65625,13.09375 c -0.884898,6.360959 -1.821426,12.716835 -2.65625,19.125 0.001,-0.008 -2.01e-4,0.226816 0,0.21875 2.01e-4,-0.0081 6.19e-4,0.258045 0,0.25 -6.19e-4,-0.008 0.03268,0.22669 0.03125,0.21875 -0.0014,-0.0079 0.06473,0.226504 0.0625,0.21875 a 1.2463047,1.2463047 0 0 0 0,0.03125 C 26.7185,78.727333 27.227114,79.347033 28,79.75 c 0.655332,0.341677 1.322083,0.406367 1.8125,0.375 0.645129,-0.04126 1.070931,-0.330827 1.53125,-0.5625 0.0083,-0.0042 0.02303,0.0042 0.03125,0 A 1.2463047,1.2463047 0 0 0 32,79.375 l 0.03125,-0.03125 0.125,-0.0625 L 48.125,71.5 c 5.6382,2.762596 11.303483,5.556112 17,8.28125 0.03364,0.0161 0.0601,0.04641 0.09375,0.0625 0.01578,0.0086 0.03263,0.03194 0.03125,0.03125 -0.0049,-0.0025 0.161329,0.06461 0.15625,0.0625 A 1.2463047,1.2463047 0 0 0 65.5,79.96875 c 1.434603,0.450988 2.829485,-0.10192 3.59375,-1.21875 0.487898,-0.712973 0.547383,-1.544571 0.4375,-2.3125 a 1.2463047,1.2463047 0 0 0 0,-0.46875 L 66.9375,57.6875 c 4.45115,-4.564405 9.013937,-9.102277 13.4375,-13.78125 0.02546,-0.02693 0.03705,-0.06681 0.0625,-0.09375 0.03194,-0.03136 0.06461,-0.06476 0.0625,-0.0625 -0.0048,0.0052 0.129325,-0.16181 0.125,-0.15625 -0.0043,0.0056 0.128815,-0.162172 0.125,-0.15625 -0.0038,0.0059 0.09702,-0.162487 0.09375,-0.15625 a 1.2463047,1.2463047 0 0 0 0.0625,-0.09375 c 0.558873,-1.270018 0.244602,-2.650149 -0.625,-3.5625 C 79.719001,39.035112 79.028179,38.842519 78.375,38.75 A 1.2463047,1.2463047 0 0 0 77.9375,38.59375 L 59.84375,35.40625 C 56.800977,29.697707 53.821429,23.908463 50.6875,18.1875 c 4.07e-4,7.89e-4 0.0039,-0.02422 0,-0.03125 -0.01559,-0.02814 -0.0643,-0.09681 -0.0625,-0.09375 0.0023,0.0038 -0.06496,-0.09745 -0.0625,-0.09375 0.0025,0.0037 -0.06517,-0.128552 -0.0625,-0.125 0.0027,0.0036 -0.06536,-0.09715 -0.0625,-0.09375 A 1.2463047,1.2463047 0 0 0 50.40625,17.71875 C 49.713585,16.94722 48.83038,16.791381 48.3125,16.75 c -0.195382,-0.01561 -0.351499,-0.02741 -0.46875,-0.03125 -0.117251,-0.0038 -0.331791,-0.03277 -0.09375,0 l 0,0.03125 c -0.03906,-0.004 -0.129471,-0.03156 -0.125,-0.03125 0.0055,3.88e-4 -0.193049,0 -0.1875,0 0.0055,0 -0.161786,3.88e-4 -0.15625,0 z"
       id="path3755"
       style="opacity:0.05;fill:#000000;fill-opacity:1;stroke:none;display:inline" />
    <path
       d="m 47.3125,17.96875 a 1.0082373,1.0082373 0 0 0 -0.71875,0.46875 c -2.083476,3.480822 -3.791176,7.195874 -5.6875,10.6875 a 1.0082373,1.0082373 0 0 0 -0.03125,0 L 37.03125,36.5 c -6.580051,1.172212 -13.181862,2.312108 -19.75,3.5 a 1.0082373,1.0082373 0 0 0 -0.5,0.25 c -0.662593,0.598706 -0.752472,1.575628 -0.53125,2.25 0.19364,0.59029 0.591323,0.995251 1.0625,1.34375 L 17.28125,43.875 30.375,57.40625 C 29.465609,63.974 28.48377,70.533023 27.625,77.125 a 1.0082373,1.0082373 0 0 0 0.03125,0.40625 c 0.142802,0.469478 0.50554,0.916078 0.90625,1.125 0.40071,0.208922 0.800995,0.241472 1.15625,0.21875 0.647546,-0.04142 1.170735,-0.299861 1.625,-0.59375 l 0,0.03125 0.15625,-0.09375 16.65625,-8.125 c 5.859881,2.866252 11.697182,5.805844 17.59375,8.625 a 1.0082373,1.0082373 0 0 0 0.125,0.0625 c 0.833237,0.26194 1.769096,-0.138581 2.1875,-0.75 0.370956,-0.542083 0.396948,-1.218765 0.1875,-1.875 l 0.0625,0 -2.6875,-18.9375 c 4.613117,-4.740557 9.346288,-9.423138 13.90625,-14.25 A 1.0082373,1.0082373 0 0 0 79.75,42.6875 C 80.086208,41.92348 79.87495,41.024527 79.375,40.5 78.946118,40.050035 78.31352,39.909174 77.6875,39.90625 L 77.71875,39.8125 59.03125,36.53125 C 55.878191,30.631429 52.817422,24.633664 49.59375,18.75 a 1.0082373,1.0082373 0 0 0 -0.125,-0.1875 c -0.375903,-0.418702 -0.912359,-0.535521 -1.25,-0.5625 -0.337641,-0.02698 -0.571209,-0.02385 -0.625,-0.03125 a 1.0082373,1.0082373 0 0 0 -0.28125,0 z"
       id="path3751"
       style="opacity:0.1;fill:#000000;fill-opacity:1;stroke:none;display:inline" />
    <path
       d="m 47.463702,18.967483 c -2.048078,3.421683 -3.755154,7.113857 -5.670633,10.640753 -1.355157,2.594572 -2.710315,5.189144 -4.065473,7.783716 -6.749025,1.204011 -13.529278,2.384984 -20.259044,3.602107 -0.723725,0.653944 -0.166445,1.753775 0.543578,2.194151 4.473559,4.620548 8.947118,9.241098 13.420677,13.861648 -0.928478,6.731509 -1.939128,13.456095 -2.816634,20.191894 0.297049,0.976582 1.683906,0.579684 2.291223,0.149573 5.751079,-2.804346 11.502159,-5.608693 17.253238,-8.41304 6.015155,2.937472 12.005604,5.961968 18.036161,8.845184 0.895107,0.28139 1.46965,-0.718597 1.114223,-1.500676 C 66.399599,69.837749 65.488174,63.352704 64.576755,56.86766 69.305782,51.998095 74.154152,47.221071 78.808884,42.293892 79.186702,41.435315 78.400646,40.704391 77.542087,40.809561 71.165612,39.683018 64.789132,38.556475 58.412652,37.429931 55.171634,31.376647 52.018811,25.262998 48.72282,19.247341 48.395909,18.883209 47.891776,19.026415 47.463702,18.967483 z"
       id="path3741"
       style="opacity:0.15;fill:#000000;fill-opacity:1;stroke:none;display:inline" />
    <path
       d="M 5.3053385,9.1740304 8.9014493,8.35593 10.449345,5.0084956 12.338664,8.1757933 16.00059,8.6135157 13.572142,11.389114 14.287441,15.007075 10.897259,13.555192 7.677412,15.353493 8.0106117,11.680581 5.3053385,9.1740304 z"
       transform="matrix(5.594521,0.29482098,-0.29471615,5.5955932,-8.9770928,-11.185726)"
       id="path3709"
       style="opacity:0.3;fill:#000000;fill-opacity:1;stroke:none;display:inline" />
    <path
       d="M 5.3053385,9.1740304 8.9014493,8.35593 10.449345,5.0084956 12.338664,8.1757933 16.00059,8.6135157 13.572142,11.389114 14.287441,15.007075 10.897259,13.555192 7.677412,15.353493 8.0106117,11.680581 5.3053385,9.1740304 z"
       transform="matrix(5.594521,0.29482098,-0.29471615,5.5955932,-8.9770928,-12.185726)"
       id="path3748"
       style="fill:url(#linearGradient3790);fill-opacity:1;stroke:none;display:inline" />
    <path
       d="M 48,23.727678 40.000616,38.921314 23.066854,41.856152 35.039959,54.166894 32.572616,71.178572 48,63.59474 63.401413,71.178572 60.960041,54.166894 72.933146,41.856152 56.025356,38.921314 48,23.727678 z m 0.02598,4.051637 6.363146,12.128937 a 1.8459256,1.8455706 1.5483833 0 0 1.246658,0.960964 l 13.583369,2.31151 -9.557705,9.687567 a 1.8459256,1.8455706 1.5483833 0 0 -0.493469,1.428461 L 61.063933,67.95804 48.857081,61.93253 a 1.8459256,1.8455706 1.5483833 0 0 -1.610267,0.05194 L 34.988015,67.906096 36.858,54.452586 a 1.8459256,1.8455706 1.5483833 0 0 -0.493468,-1.480405 l -9.531734,-9.843398 13.531426,-2.493315 a 1.8459256,1.8455706 1.5483833 0 0 1.350546,-0.934994 l 6.311202,-11.921159 z"
       id="path3684"
       style="opacity:0.1;fill:#aa4400;fill-opacity:1;stroke:none;display:inline" />
    <path
       d="M 48,22.299107 39.518952,38.407591 21.565564,41.519144 34.259601,54.571148 31.643693,72.607143 48,64.566669 64.328772,72.607143 61.740399,54.571148 74.434436,41.519144 56.508584,38.407591 48,22.299107 z m 0.02754,4.295596 6.746288,12.859252 a 1.9570736,1.9566972 1.5483833 0 0 1.321722,1.018827 l 14.40126,2.450692 -10.1332,10.27088 a 1.9570736,1.9566972 1.5483833 0 0 -0.523182,1.514473 l 2.010119,14.483868 -12.941859,-6.388322 a 1.9570736,1.9566972 1.5483833 0 0 -1.707225,0.05507 l -12.996934,6.27818 1.982582,-14.263581 A 1.9570736,1.9566972 1.5483833 0 0 35.66393,53.304498 L 25.558265,42.868403 39.904454,40.224959 a 1.9570736,1.9566972 1.5483833 0 0 1.431866,-0.991292 l 6.691216,-12.638964 z"
       id="path3682"
       style="opacity:0.2;fill:#aa4400;fill-opacity:1;stroke:none;display:inline" />
    <path
       d="M 48,20.513393 38.916872,37.765438 19.688951,41.097884 33.284153,55.076465 30.482539,74.392857 48,65.78158 65.487971,74.392857 62.715847,55.076465 76.311049,41.097884 57.112619,37.765438 48,20.513393 z m 0.02949,4.600545 7.225215,13.772146 a 2.0960086,2.0956055 1.5483833 0 0 1.415553,1.091155 l 15.423623,2.62467 -10.852569,11.000022 a 2.0960086,2.0956055 1.5483833 0 0 -0.560323,1.621987 l 2.15282,15.512095 -13.860618,-6.841836 a 2.0960086,2.0956055 1.5483833 0 0 -1.828422,0.05898 L 33.225172,70.677032 35.3485,55.400862 A 2.0960086,2.0956055 1.5483833 0 0 34.788177,53.719894 L 23.965099,42.542928 39.329741,39.711823 a 2.0960086,2.0956055 1.5483833 0 0 1.533516,-1.061665 l 7.166234,-13.53622 z"
       id="path3680"
       style="opacity:0.4;fill:#aa4400;fill-opacity:1;stroke:none;display:inline" />
    <path
       d="M 48,18.90625 38.375,37.1875 18,40.71875 32.40625,55.53125 29.4375,76 48,66.875 66.53125,76 63.59375,55.53125 78,40.71875 57.65625,37.1875 48,18.90625 z m 0.03125,4.875 7.65625,14.59375 a 2.2210501,2.220623 1.5483833 0 0 1.5,1.15625 l 16.34375,2.78125 -11.5,11.65625 A 2.2210501,2.220623 1.5483833 0 0 61.4375,55.6875 l 2.28125,16.4375 -14.6875,-7.25 a 2.2210501,2.220623 1.5483833 0 0 -1.9375,0.0625 l -14.75,7.125 2.25,-16.1875 A 2.2210501,2.220623 1.5483833 0 0 34,54.09375 L 22.53125,42.25 l 16.28125,-3 a 2.2210501,2.220623 1.5483833 0 0 1.625,-1.125 l 7.59375,-14.34375 z"
       id="path3677"
       style="fill:url(#linearGradient3692);fill-opacity:1;stroke:none;display:inline" />
    <path
       d="M 48,18.90625 38.375,37.1875 18,40.71875 32.40625,55.53125 29.4375,76 48,66.875 66.53125,76 63.59375,55.53125 78,40.71875 57.65625,37.1875 48,18.90625 z m 0.03125,1.71875 8.90625,16.96875 a 0.72744712,0.72730726 1.5483833 0 0 0.1875,0.15625 0.72744712,0.72730726 1.5483833 0 0 0.15625,0.1875 0.72744712,0.72730726 1.5483833 0 0 0.1875,0.03125 0.72744712,0.72730726 1.5483833 0 0 0.15625,0 l 18.9375,3.28125 -13.5,13.65625 a 0.72744712,0.72730726 1.5483833 0 0 -0.1875,0.15625 0.72744712,0.72730726 1.5483833 0 0 -0.03125,0.1875 0.72744712,0.72730726 1.5483833 0 0 0,0.1875 0.72744712,0.72730726 1.5483833 0 0 0,0.15625 L 65.5,74.6875 48.4375,66.25 a 0.72744712,0.72730726 1.5483833 0 0 -0.1875,-0.03125 0.72744712,0.72730726 1.5483833 0 0 -0.1875,0 0.72744712,0.72730726 1.5483833 0 0 -0.15625,0 0.72744712,0.72730726 1.5483833 0 0 -0.1875,-0.03125 l -17.25,8.40625 2.5625,-19 a 0.72744712,0.72730726 1.5483833 0 0 0,-0.15625 A 0.72744712,0.72730726 1.5483833 0 0 33.0625,55.25 0.72744712,0.72730726 1.5483833 0 0 32.875,55.0625 l -13.28125,-13.84375 18.9375,-3.375 a 0.72744712,0.72730726 1.5483833 0 0 0.15625,0 A 0.72744712,0.72730726 1.5483833 0 0 38.875,37.6875 0.72744712,0.72730726 1.5483833 0 0 39.0625,37.5 l 8.96875,-16.875 z"
       id="path3694"
       style="fill:url(#linearGradient3707);fill-opacity:1;stroke:none;display:inline" />
    <path
       d="M 48,18.15625 A 0.7363425,0.7363425 0 0 0 47.34375,18.5625 L 37.875,36.53125 17.875,40 a 0.7363425,0.7363425 0 0 0 -0.40625,1.21875 l 14.15625,14.5625 -2.90625,20.125 a 0.7363425,0.7363425 0 0 0 1.03125,0.75 L 48,67.6875 66.21875,76.65625 a 0.7363425,0.7363425 0 0 0 1.03125,-0.75 l -2.875,-20.125 14.15625,-14.5625 A 0.7363425,0.7363425 0 0 0 78.125,40 l -19.96875,-3.46875 -9.5,-17.96875 A 0.7363425,0.7363425 0 0 0 48,18.15625 z m 0.03125,7.21875 7,13.34375 c 0.01243,0.02425 0.08001,0.101475 0.09375,0.125 0.01374,0.02352 0.04748,0.133516 0.0625,0.15625 0.01502,0.02273 0.07751,0.103127 0.09375,0.125 0.01624,0.02187 0.07633,0.104053 0.09375,0.125 0.01742,0.02095 0.106449,0.105043 0.125,0.125 0.01855,0.01996 0.105378,0.106094 0.125,0.125 0.01962,0.01891 0.07312,0.07595 0.09375,0.09375 0.02063,0.0178 0.103418,0.108364 0.125,0.125 0.02158,0.01664 0.133785,0.07833 0.15625,0.09375 0.02246,0.01542 0.10172,0.04834 0.125,0.0625 0.02328,0.01416 0.132225,0.08089 0.15625,0.09375 0.02403,0.01286 0.100303,0.05098 0.125,0.0625 0.0247,0.01152 0.130956,0.05236 0.15625,0.0625 0.02529,0.01014 0.130436,0.05376 0.15625,0.0625 0.02581,0.0087 0.129994,0.0552 0.15625,0.0625 0.02626,0.0073 0.129631,0.0254 0.15625,0.03125 a 0.7363425,0.7363425 0 0 0 0.03125,0 L 72,42.78125 61.5,53.4375 a 0.7363425,0.7363425 0 0 0 0,0.03125 c -0.01787,0.01901 -0.07691,0.105073 -0.09375,0.125 -0.01684,0.01993 -0.10923,0.07296 -0.125,0.09375 -0.01577,0.02079 -0.0791,0.134662 -0.09375,0.15625 -0.01465,0.02159 -0.04901,0.10267 -0.0625,0.125 -0.01349,0.02233 -0.08145,0.10199 -0.09375,0.125 -0.0123,0.02301 -0.05143,0.132625 -0.0625,0.15625 -0.01107,0.02363 -0.05269,0.100825 -0.0625,0.125 -0.0098,0.02417 -0.05398,0.131592 -0.0625,0.15625 -0.0085,0.02466 -0.02404,0.131177 -0.03125,0.15625 -0.0072,0.02507 -0.02537,0.09958 -0.03125,0.125 -0.0059,0.02542 -0.02672,0.130559 -0.03125,0.15625 -0.0045,0.02569 -0.02808,0.130356 -0.03125,0.15625 -0.0032,0.02589 -0.02945,0.130225 -0.03125,0.15625 -0.0018,0.02602 4.22e-4,0.130167 0,0.15625 -4.22e-4,0.02608 -9.53e-4,0.130181 0,0.15625 9.53e-4,0.02607 0.02892,0.130267 0.03125,0.15625 a 0.7363425,0.7363425 0 0 0 0,0.03125 L 62.8125,70.875 49.34375,64.21875 a 0.7363425,0.7363425 0 0 0 0,-0.03125 c -0.02552,-0.01137 -0.13013,-0.05258 -0.15625,-0.0625 -0.02612,-0.0099 -0.129612,-0.02282 -0.15625,-0.03125 -0.02664,-0.0084 -0.160428,-0.05559 -0.1875,-0.0625 -0.02707,-0.0069 -0.128831,-0.02588 -0.15625,-0.03125 -0.02742,-0.0054 -0.128572,-0.02743 -0.15625,-0.03125 -0.02768,-0.0038 -0.1284,0.0022 -0.15625,0 -0.02785,-0.0022 -0.159568,-0.03057 -0.1875,-0.03125 -0.02793,-6.76e-4 -0.128324,-9.01e-4 -0.15625,0 -0.02793,9.01e-4 -0.128419,0.02878 -0.15625,0.03125 -0.02783,0.0025 -0.159853,-0.004 -0.1875,0 -0.02765,0.004 -0.128876,0.02566 -0.15625,0.03125 -0.02737,0.0056 -0.129235,0.02412 -0.15625,0.03125 -0.02701,0.0071 -0.129681,0.05386 -0.15625,0.0625 -0.02657,0.0086 -0.130211,0.05237 -0.15625,0.0625 -0.02604,0.01013 -0.130824,0.05092 -0.15625,0.0625 -0.02104,0.0096 -0.0868,0.04331 -0.125,0.0625 -0.008,0.004 -0.02699,-0.0022 -0.03125,0 l -13.5,6.53125 2.0625,-14.84375 c 0.0031,-0.02682 0.02963,-0.129306 0.03125,-0.15625 0.0016,-0.02694 -1.53e-4,-0.160507 0,-0.1875 1.53e-4,-0.02699 0.0013,-0.129289 0,-0.15625 -0.0013,-0.02696 0.0028,-0.129401 0,-0.15625 -0.0028,-0.02685 -0.027,-0.129593 -0.03125,-0.15625 -0.0042,-0.02666 -0.02555,-0.129864 -0.03125,-0.15625 -0.0057,-0.02639 -0.02412,-0.130214 -0.03125,-0.15625 -0.0071,-0.02604 -0.05396,-0.130641 -0.0625,-0.15625 -0.0085,-0.02561 -0.05258,-0.131144 -0.0625,-0.15625 -0.0099,-0.02511 -0.05123,-0.131722 -0.0625,-0.15625 -0.01127,-0.02453 -0.0499,-0.101123 -0.0625,-0.125 -0.0126,-0.02388 -0.04862,-0.133095 -0.0625,-0.15625 -0.01388,-0.02316 -0.07863,-0.102636 -0.09375,-0.125 -0.01512,-0.02236 -0.07743,-0.103494 -0.09375,-0.125 -0.01632,-0.02151 -0.07628,-0.104415 -0.09375,-0.125 -0.01747,-0.02058 -0.106433,-0.105398 -0.125,-0.125 L 24,42.71875 l 14.90625,-2.75 c 0.0046,-6.66e-4 0.023,0.0014 0.03125,0 0.04265,-0.007 0.132833,-0.02645 0.15625,-0.03125 0.02795,-0.0057 0.128677,-0.02392 0.15625,-0.03125 0.02757,-0.0073 0.129145,-0.02235 0.15625,-0.03125 0.0271,-0.0089 0.129704,-0.05205 0.15625,-0.0625 0.02655,-0.01045 0.13035,-0.05054 0.15625,-0.0625 0.0259,-0.01196 0.131083,-0.08032 0.15625,-0.09375 0.02517,-0.01343 0.131899,-0.07889 0.15625,-0.09375 0.02435,-0.01486 0.132796,-0.07751 0.15625,-0.09375 0.02345,-0.01624 0.102521,-0.07619 0.125,-0.09375 0.02248,-0.01756 0.10357,-0.07492 0.125,-0.09375 0.02143,-0.01883 0.104691,-0.104971 0.125,-0.125 0.02031,-0.02003 0.105879,-0.103835 0.125,-0.125 0.01912,-0.02117 0.107131,-0.102769 0.125,-0.125 0.01787,-0.02223 0.07719,-0.101777 0.09375,-0.125 0.01656,-0.02322 0.07856,-0.132112 0.09375,-0.15625 0.01519,-0.02414 0.07997,-0.131278 0.09375,-0.15625 L 48.03125,25.375 z"
       transform="translate(80,0)"
       clip-path="url(#clipPath3725)"
       id="path3723"
       style="opacity:0.6;fill:#9a3e00;fill-opacity:1;stroke:none;display:inline" />
  </g>
</svg>
