<?xml version="1.0" encoding="UTF-8" standalone="no"?>
<!-- Created with Inkscape (http://www.inkscape.org/) -->

<svg
   xmlns:svg="http://www.w3.org/2000/svg"
   xmlns="http://www.w3.org/2000/svg"
   xmlns:xlink="http://www.w3.org/1999/xlink"
   version="1.0"
   width="96"
   height="96"
   id="svg2408">
  <defs
     id="defs2410">
    <linearGradient
       x1="45.447727"
       y1="92.539597"
       x2="45.447727"
       y2="7.0165396"
       id="ButtonShadow"
       gradientUnits="userSpaceOnUse"
       gradientTransform="scale(1.0058652,0.994169)">
      <stop
         id="stop3750"
         style="stop-color:#000000;stop-opacity:1"
         offset="0" />
      <stop
         id="stop3752"
         style="stop-color:#000000;stop-opacity:0.58823532"
         offset="1" />
    </linearGradient>
    <linearGradient
       id="linearGradient3737">
      <stop
         id="stop3739"
         style="stop-color:#ffffff;stop-opacity:1"
         offset="0" />
      <stop
         id="stop3741"
         style="stop-color:#ffffff;stop-opacity:0"
         offset="1" />
    </linearGradient>
    <filter
       color-interpolation-filters="sRGB"
       id="filter3174">
      <feGaussianBlur
         id="feGaussianBlur3176"
         stdDeviation="1.71" />
    </filter>
    <linearGradient
       x1="36.357143"
       y1="6"
       x2="36.357143"
       y2="63.893143"
       id="linearGradient3188"
       xlink:href="#linearGradient3737"
       gradientUnits="userSpaceOnUse" />
    <filter
       x="-0.192"
       y="-0.192"
       width="1.3839999"
       height="1.3839999"
       color-interpolation-filters="sRGB"
       id="filter3794">
      <feGaussianBlur
         id="feGaussianBlur3796"
         stdDeviation="5.28" />
    </filter>
    <linearGradient
       x1="48"
       y1="20.220806"
       x2="48"
       y2="138.66119"
       id="linearGradient3613"
       xlink:href="#linearGradient3737"
       gradientUnits="userSpaceOnUse" />
    <radialGradient
       cx="48"
       cy="90.171875"
       r="42"
       fx="48"
       fy="90.171875"
       id="radialGradient3619"
       xlink:href="#linearGradient3737"
       gradientUnits="userSpaceOnUse"
       gradientTransform="matrix(1.1573129,0,0,0.99590774,-7.5510206,0.19713193)" />
    <clipPath
       id="clipPath3613">
      <rect
         width="84"
         height="84"
         rx="6"
         ry="6"
         x="6"
         y="6"
         id="rect3615"
         style="fill:#ffffff;fill-opacity:1;fill-rule:nonzero;stroke:none" />
    </clipPath>
    <linearGradient
       x1="48"
       y1="90"
       x2="48"
       y2="5.9877172"
       id="linearGradient3617"
       xlink:href="#ButtonColor"
       gradientUnits="userSpaceOnUse" />
    <filter
       color-interpolation-filters="sRGB"
       id="filter3263">
      <feGaussianBlur
         id="feGaussianBlur3265"
         stdDeviation="1.5967586" />
    </filter>
    <linearGradient
       x1="59.387539"
       y1="44.471016"
       x2="110.98586"
       y2="112.4099"
       id="linearGradient3185"
       xlink:href="#linearGradient3766"
       gradientUnits="userSpaceOnUse"
       gradientTransform="matrix(0.71186441,0,0,0.71186441,2.44068,2.440678)" />
    <linearGradient
       x1="58.650177"
       y1="122"
       x2="58.650177"
       y2="5.4252338"
       id="ButtonColor"
       gradientUnits="userSpaceOnUse"
       gradientTransform="matrix(1.0172414,0,0,1.0172414,-1.1034483,-1.1034483)">
      <stop
         id="stop3189"
         style="stop-color:#e4b31e;stop-opacity:1"
         offset="0" />
      <stop
         id="stop3191"
         style="stop-color:#ffef64;stop-opacity:1"
         offset="1" />
    </linearGradient>
    <linearGradient
       id="linearGradient3766">
      <stop
         id="stop3768"
         style="stop-color:#e7ba26;stop-opacity:0"
         offset="0" />
      <stop
         id="stop3770"
         style="stop-color:#e9ab2c;stop-opacity:0.83137256"
         offset="0.4841198" />
      <stop
         id="stop3772"
         style="stop-color:#eaa82e;stop-opacity:1"
         offset="0.69662797" />
      <stop
         id="stop3774"
         style="stop-color:#ebba3f;stop-opacity:1"
         offset="0.842659" />
      <stop
         id="stop3776"
         style="stop-color:#f3e38c;stop-opacity:1"
         offset="1" />
    </linearGradient>
    <linearGradient
       x1="48"
       y1="90"
       x2="48"
       y2="5.9877172"
       id="linearGradient3783"
       xlink:href="#ButtonColor"
       gradientUnits="userSpaceOnUse"
       gradientTransform="translate(0,110)" />
    <clipPath
       id="clipPath3800">
      <path
         d="m 62,6 c -3.324,0 -6,2.676 -6,6 l 0,0.53125 C 56,8.9207 58.9207,6 62.53125,6 L 62,6 z m 71.46875,0 C 137.0793,6 140,8.9207 140,12.53125 L 140,12 c 0,-3.324 -2.676,-6 -6,-6 l -0.53125,0 z M 140,12.53125 c 0,36.73465 -3.54263,60.10471 -7.84375,69.9375 C 121.33994,87.4996 96.479512,90 62.53125,90 L 134,90 c 3.324,0 6,-2.676 6,-6 l 0,-71.46875 z M 62.53125,90 C 58.9207,89.9945 56,87.0793 56,83.46875 L 56,84 c 0,3.324 2.676,6 6,6 l 0.53125,0 z"
         id="path3802"
         style="fill:url(#linearGradient3804);fill-opacity:1;fill-rule:nonzero;stroke:none" />
    </clipPath>
    <linearGradient
       x1="48"
       y1="90"
       x2="48"
       y2="5.9877172"
       id="linearGradient3804"
       xlink:href="#ButtonColor"
       gradientUnits="userSpaceOnUse"
       gradientTransform="translate(50,0)" />
    <filter
       color-interpolation-filters="sRGB"
       id="filter3810">
      <feGaussianBlur
         id="feGaussianBlur3812"
         stdDeviation="1.2600071" />
    </filter>
    <linearGradient
       x1="82.08036"
       y1="82.290176"
       x2="59.611588"
       y2="59.821404"
       id="linearGradient3825"
       xlink:href="#linearGradient3737"
       gradientUnits="userSpaceOnUse" />
    <linearGradient
       x1="45.447727"
       y1="92.539597"
       x2="45.447727"
       y2="7.0165396"
       id="ButtonShadow-0"
       gradientUnits="userSpaceOnUse"
       gradientTransform="matrix(1.0058652,0,0,0.994169,100,0)">
      <stop
         id="stop3750-8"
         style="stop-color:#000000;stop-opacity:1"
         offset="0" />
      <stop
         id="stop3752-5"
         style="stop-color:#000000;stop-opacity:0.58823532"
         offset="1" />
    </linearGradient>
    <linearGradient
       x1="32.251034"
       y1="6.1317081"
       x2="32.251034"
       y2="90.238609"
       id="linearGradient3780"
       xlink:href="#ButtonShadow-0"
       gradientUnits="userSpaceOnUse"
       gradientTransform="matrix(1.0238095,0,0,1.0119048,-1.1428571,-98.071429)" />
    <linearGradient
       x1="32.251034"
       y1="6.1317081"
       x2="32.251034"
       y2="90.238609"
       id="linearGradient3772"
       xlink:href="#ButtonShadow-0"
       gradientUnits="userSpaceOnUse"
       gradientTransform="matrix(1.0238095,0,0,1.0119048,-1.1428571,-98.071429)" />
    <linearGradient
       x1="32.251034"
       y1="6.1317081"
       x2="32.251034"
       y2="90.238609"
       id="linearGradient3725"
       xlink:href="#ButtonShadow-0"
       gradientUnits="userSpaceOnUse"
       gradientTransform="matrix(1.0238095,0,0,1.0119048,-1.1428571,-98.071429)" />
    <linearGradient
       x1="32.251034"
       y1="6.1317081"
       x2="32.251034"
       y2="90.238609"
       id="linearGradient3721"
       xlink:href="#ButtonShadow-0"
       gradientUnits="userSpaceOnUse"
       gradientTransform="translate(0,-97)" />
    <linearGradient
       x1="32.251034"
       y1="6.1317081"
       x2="32.251034"
       y2="90.238609"
       id="linearGradient3020"
       xlink:href="#ButtonShadow-0"
       gradientUnits="userSpaceOnUse"
       gradientTransform="matrix(1.0238095,0,0,1.0119048,-1.1428571,-98.071429)" />
  </defs>
  <g
     id="layer2"
     style="display:none">
    <rect
       width="86"
       height="85"
       rx="6"
       ry="6"
       x="5"
       y="7"
       id="rect3745"
       style="opacity:0.9;fill:url(#ButtonShadow);fill-opacity:1;fill-rule:nonzero;stroke:none;filter:url(#filter3174)" />
  </g>
  <g
     id="layer3"
     style="display:inline">
    <path
       d="m 12,-95.03125 c -5.5110903,0 -10.03125,4.52016 -10.03125,10.03125 l 0,71 c 0,5.5110902 4.5201598,10.03125 10.03125,10.03125 l 72,0 c 5.51109,0 10.03125,-4.5201597 10.03125,-10.03125 l 0,-71 c 0,-5.51109 -4.52016,-10.03125 -10.03125,-10.03125 l -72,0 z"
       transform="scale(1,-1)"
       id="path3786"
       style="opacity:0.07999998;fill:url(#linearGradient3020);fill-opacity:1;fill-rule:nonzero;stroke:none;display:inline" />
    <path
       d="m 12,-94.03125 c -4.971633,0 -9.03125,4.059617 -9.03125,9.03125 l 0,71 c 0,4.9716329 4.0596171,9.03125 9.03125,9.03125 l 72,0 c 4.971633,0 9.03125,-4.059617 9.03125,-9.03125 l 0,-71 c 0,-4.971633 -4.059617,-9.03125 -9.03125,-9.03125 l -72,0 z"
       transform="scale(1,-1)"
       id="path3778"
       style="opacity:0.1;fill:url(#linearGradient3780);fill-opacity:1;fill-rule:nonzero;stroke:none;display:inline" />
    <path
       d="m 12,-93 c -4.4091333,0 -8,3.590867 -8,8 l 0,71 c 0,4.4091333 3.5908667,8 8,8 l 72,0 c 4.409133,0 8,-3.5908667 8,-8 l 0,-71 c 0,-4.409133 -3.590867,-8 -8,-8 l -72,0 z"
       transform="scale(1,-1)"
       id="path3770"
       style="opacity:0.2;fill:url(#linearGradient3772);fill-opacity:1;fill-rule:nonzero;stroke:none;display:inline" />
    <rect
       width="86"
       height="85"
       rx="7"
       ry="7"
       x="5"
       y="-92"
       transform="scale(1,-1)"
       id="rect3723"
       style="opacity:0.3;fill:url(#linearGradient3725);fill-opacity:1;fill-rule:nonzero;stroke:none;display:inline" />
    <rect
       width="84"
       height="84"
       rx="6"
       ry="6"
       x="6"
       y="-91"
       transform="scale(1,-1)"
       id="rect3716"
       style="opacity:0.45;fill:url(#linearGradient3721);fill-opacity:1;fill-rule:nonzero;stroke:none;display:inline" />
  </g>
  <g
     id="layer1">
    <path
       d="m 189.96875,19.28125 c -0.40529,32.853499 -3.78151,53.972258 -7.8125,63.1875 -10.14029,4.716417 -32.62864,7.205224 -63.375,7.5 31.14298,-0.03671 56.97907,-0.434437 66.78125,-4.3125 3.02403,-9.875444 4.25911,-33.292211 4.40625,-66.375 z"
       id="path3833"
       style="opacity:0.2;fill:#000000;fill-opacity:1;stroke:none;display:inline" />
    <rect
       width="84"
       height="84"
       rx="6"
       ry="6"
       x="6"
       y="6"
       id="rect2419"
       style="fill:url(#linearGradient3617);fill-opacity:1;fill-rule:nonzero;stroke:none" />
    <path
       d="M 12,90 C 8.676,90 6,87.324 6,84 L 6,82 6,14 6,12 c 0,-0.334721 0.04135,-0.6507 0.09375,-0.96875 0.0487,-0.295596 0.09704,-0.596915 0.1875,-0.875 C 6.29113,10.12587 6.302142,10.09265 6.3125,10.0625 6.411365,9.774729 6.5473802,9.515048 6.6875,9.25 6.8320918,8.976493 7.0031161,8.714385 7.1875,8.46875 7.3718839,8.223115 7.5612765,7.995278 7.78125,7.78125 8.221197,7.353194 8.72416,6.966724 9.28125,6.6875 9.559795,6.547888 9.8547231,6.440553 10.15625,6.34375 9.9000482,6.443972 9.6695391,6.580022 9.4375,6.71875 c -0.00741,0.0044 -0.023866,-0.0045 -0.03125,0 -0.031933,0.0193 -0.062293,0.04251 -0.09375,0.0625 -0.120395,0.0767 -0.2310226,0.163513 -0.34375,0.25 -0.1061728,0.0808 -0.2132809,0.161112 -0.3125,0.25 C 8.4783201,7.442683 8.3087904,7.626638 8.15625,7.8125 8.0486711,7.942755 7.9378561,8.077785 7.84375,8.21875 7.818661,8.25713 7.805304,8.30462 7.78125,8.34375 7.716487,8.446782 7.6510225,8.548267 7.59375,8.65625 7.4927417,8.850956 7.3880752,9.071951 7.3125,9.28125 7.30454,9.30306 7.288911,9.3218 7.28125,9.34375 7.2494249,9.4357 7.2454455,9.530581 7.21875,9.625 7.1884177,9.731618 7.1483606,9.828031 7.125,9.9375 7.0521214,10.279012 7,10.635705 7,11 l 0,2 0,68 0,2 c 0,2.781848 2.2181517,5 5,5 l 2,0 68,0 2,0 c 2.781848,0 5,-2.218152 5,-5 l 0,-2 0,-68 0,-2 C 89,10.635705 88.94788,10.279012 88.875,9.9375 88.83085,9.730607 88.78662,9.539842 88.71875,9.34375 88.71105,9.3218 88.69545,9.30306 88.6875,9.28125 88.62476,9.107511 88.549117,8.913801 88.46875,8.75 88.42717,8.6672 88.38971,8.580046 88.34375,8.5 88.28915,8.40279 88.216976,8.31165 88.15625,8.21875 88.06214,8.077785 87.951329,7.942755 87.84375,7.8125 87.700576,7.63805 87.540609,7.465502 87.375,7.3125 87.36383,7.3023 87.35502,7.29135 87.34375,7.28125 87.205364,7.155694 87.058659,7.046814 86.90625,6.9375 86.803679,6.86435 86.701932,6.784136 86.59375,6.71875 c -0.0074,-0.0045 -0.02384,0.0044 -0.03125,0 -0.232039,-0.138728 -0.462548,-0.274778 -0.71875,-0.375 0.301527,0.0968 0.596455,0.204138 0.875,0.34375 0.55709,0.279224 1.060053,0.665694 1.5,1.09375 0.219973,0.214028 0.409366,0.441865 0.59375,0.6875 0.184384,0.245635 0.355408,0.507743 0.5,0.78125 0.14012,0.265048 0.276135,0.524729 0.375,0.8125 0.01041,0.03078 0.02133,0.06274 0.03125,0.09375 0.09046,0.278085 0.1388,0.579404 0.1875,0.875 C 89.95865,11.3493 90,11.665279 90,12 l 0,2 0,68 0,2 c 0,3.324 -2.676,6 -6,6 l -72,0 z"
       id="path3615"
       style="opacity:0.2;fill:url(#radialGradient3619);fill-opacity:1;fill-rule:nonzero;stroke:none" />
    <path
       d="M 62.51724,6 C 58.90669,6 56,8.90669 56,12.517241 l 0,70.965519 c 0,3.610548 2.90669,6.511737 6.51724,6.51724 33.948262,0 61.15737,0.163148 73.40225,-3.796268 C 139.14918,76.192373 140,49.251888 140,12.517241 140,8.90669 137.09331,6 133.48276,6 L 62.51724,6 z"
       transform="translate(-50,0)"
       clip-path="url(#clipPath3800)"
       id="path3785"
       style="opacity:0.5;fill:#a14b09;fill-opacity:1;stroke:none;display:inline;filter:url(#filter3810)" />
    <path
       d="M 12,6 C 8.676,6 6,8.676 6,12 l 0,6 84,0 0,-6 C 90,8.676 87.324,6 84,6 L 12,6 z"
       id="rect3839"
       style="opacity:0.35;fill:#ffffff;fill-opacity:1;fill-rule:nonzero;stroke:none" />
    <path
       d="M 12.51724,6 C 8.90669,6 6,8.90669 6,12.517241 L 6,83.48276 C 6,87.093308 8.90669,89.994497 12.51724,90 46.465502,90 71.353177,87.484577 82.169492,82.453732 86.470605,72.620944 90,49.251888 90,12.517241 90,8.90669 87.093308,6 83.48276,6 L 12.51724,6 z"
       id="path3177"
       style="fill:url(#linearGradient3185);fill-opacity:1;stroke:none;display:inline" />
    <path
       d="m -18.64602,-8.4760596 c -0.54916,48.6146006 -9.3668,76.3093396 -15.21875,89.6874996 -15.194361,7.06714 -45.904521,14.34375 -93.59375,14.34375 47.689229,0 87.243039,1.06703 102.43739,-6.00011 5.85011,-13.37396 6.07391,-49.221747 6.37511,-98.0311396 z"
       id="path3233"
       style="opacity:0.6;fill:#a14b09;fill-opacity:1;stroke:none;display:inline;filter:url(#filter3263)" />
    <path
       d="m 12.519008,46.914781 c 0.0293,-0.439798 0.11361,-0.762318 0.25288,-0.967565 0.13927,-0.205235 0.43246,-0.45812 0.87961,-0.758657 0.44712,-0.300525 0.93457,-0.42147 1.46234,-0.362836 0.527753,0.05865 0.601053,0.355512 0.2199,0.890598 -0.38117,0.535097 -0.56442,1.062858 -0.54976,1.583286 0.0147,0.520435 0.2932,0.894266 0.835623,1.121493 0.542415,0.227234 1.132488,0.186919 1.770203,-0.120944 0.637706,-0.307859 1.381702,-0.765985 2.231996,-1.374381 0.85027,-0.608387 1.707886,-1.378039 2.572837,-2.308958 0.864931,-0.930905 1.601598,-1.858153 2.210003,-2.781745 0.608378,-0.923574 1.095824,-1.784851 1.462341,-2.583834 0.366485,-0.798961 0.593716,-1.586938 0.681692,-2.363934 0.08794,-0.776967 -0.157612,-1.509969 -0.736668,-2.199008 -0.579087,-0.689006 -0.879617,-1.268076 -0.901593,-1.737215 -0.02201,-0.469104 0.245542,-0.923566 0.802638,-1.363386 0.996868,1.9e-5 1.689554,0.29322 2.078062,0.879603 0.388475,0.586421 0.740315,1.187482 1.055524,1.803187 0.315173,0.615738 0.586384,1.242455 0.813634,1.880152 0.227211,0.637727 0.465437,1.216798 0.714677,1.737215 0.249201,0.520446 0.432451,1.055538 0.549752,1.605278 0.11726,0.549762 0.304176,1.136164 0.560748,1.759205 0.256529,0.623062 0.476429,1.279099 0.659702,1.968112 0.183228,0.689031 0.480094,0.722015 0.890598,0.09896 0.410458,-0.623044 1.059165,-1.407356 1.946122,-2.352938 0.886907,-0.945563 1.65656,-1.744535 2.308958,-2.396919 0.652345,-0.652359 1.381682,-1.301066 2.188013,-1.946122 0.806273,-0.645028 1.627236,-1.224099 2.462889,-1.737217 0.835591,-0.513086 1.766503,-0.974876 2.79274,-1.385374 1.026169,-0.410464 1.942421,-0.608374 2.74876,-0.593733 0.806266,0.01468 1.561258,0.142954 2.264978,0.384827 0.703643,0.241908 1.282713,0.520449 1.737217,0.835623 0.45442,0.315208 0.820921,0.707364 1.099504,1.176469 0.278498,0.469137 0.432429,1.290099 0.461791,2.462889 -0.219943,0.498454 -0.487488,0.725685 -0.802637,0.681693 -0.315233,-0.04396 -0.494819,-0.388479 -0.538757,-1.033534 -0.04402,-0.645029 -0.282247,-1.176455 -0.714678,-1.594281 -0.432511,-0.417795 -0.864983,-0.721992 -1.297415,-0.912588 -0.43251,-0.190565 -1.000587,-0.344495 -1.704231,-0.461792 -0.703719,-0.117264 -1.396406,-0.06228 -2.078063,0.164925 -0.681727,0.227247 -1.418393,0.586419 -2.210003,1.077515 -0.791675,0.491126 -1.715257,1.095853 -2.77075,1.814181 -1.055553,0.718356 -2.078091,1.579633 -3.067615,2.583834 -0.989581,1.004224 -1.803213,1.938802 -2.440899,2.803736 -0.637737,0.86495 -1.202149,1.696907 -1.693237,2.495874 -0.491134,0.798978 -0.850305,1.64926 -1.077513,2.550849 -0.227254,0.901595 -0.513124,1.762873 -0.857614,2.583834 -0.344532,0.820963 -0.780668,1.451345 -1.308409,1.891147 -0.791662,-0.117282 -1.205809,-0.355507 -1.24244,-0.714678 -0.03667,-0.359171 0.06962,-0.765987 0.318856,-1.220449 0.249201,-0.454461 0.461772,-1.029867 0.637713,-1.726221 0.175899,-0.696349 0.27852,-1.418357 0.307859,-2.166023 0.0293,-0.747658 -0.08065,-1.513645 -0.32985,-2.297963 -0.24924,-0.784305 -0.487467,-1.444007 -0.714678,-1.979108 -0.227249,-0.535082 -0.476469,-0.978548 -0.747663,-1.330399 -0.271229,-0.351831 -0.560765,-0.340836 -0.868608,0.03298 -0.307878,0.373842 -0.751344,0.934588 -1.3304,1.682242 -0.579087,0.74767 -1.297429,1.542977 -2.155028,2.385923 -0.857626,0.842959 -1.979118,1.795861 -3.364479,2.85871 -1.385388,1.062857 -2.638819,1.773869 -3.760308,2.133039 -1.121498,0.359171 -2.034085,0.432472 -2.737765,0.2199 -0.70368,-0.212566 -1.1838,-0.568072 -1.44035,-1.066515 -0.25655,-0.49844 -0.43614,-1.268092 -0.53875,-2.308958 m 26.08023,2.001096 c 0.234559,0.351843 0.524095,0.535094 0.868609,0.549752 0.344507,0.01466 0.670694,-0.08063 0.978558,-0.285871 0.307857,-0.205238 0.670693,-0.399484 1.088509,-0.582736 0.417806,-0.183248 0.824622,-0.410479 1.22045,-0.681693 0.395814,-0.271208 0.593725,-0.612053 0.593731,-1.022538 -6e-6,-0.410478 -0.153936,-0.729333 -0.461791,-0.95657 -0.307867,-0.227225 -0.436142,-0.51676 -0.384826,-0.868607 0.0513,-0.351836 0.212564,-0.593726 0.483782,-0.725673 0.271203,-0.131934 0.722,-0.205234 1.352389,-0.219901 0.659694,0.131948 1.062845,0.461798 1.209454,0.989554 0.146592,0.527767 0.135597,1.018879 -0.03298,1.473335 -0.168599,0.454466 0.0403,0.864947 0.626718,1.231445 0.586392,0.366504 1.110488,0.487449 1.572291,0.362836 0.461779,-0.124607 0.721995,0.01833 0.780647,0.428807 -0.07331,0.439803 -0.194257,0.703684 -0.362836,0.791642 -0.168602,0.08796 -0.509448,0.168593 -1.022539,0.241891 -0.513111,0.0733 -1.128833,-0.08429 -1.847166,-0.472787 -0.718351,-0.388489 -1.231452,-0.465454 -1.539306,-0.230896 -0.307868,0.234564 -0.769659,0.538759 -1.385375,0.912589 -0.615728,0.373832 -1.220454,0.670698 -1.814181,0.890598 -0.593736,0.219901 -1.271763,0.329852 -2.034083,0.329852 -0.703684,-0.234561 -1.202125,-0.597397 -1.495325,-1.08851 -0.293202,-0.49111 -0.439802,-1.029866 -0.439802,-1.61627 0.0733,-0.410479 0.377496,-0.861275 0.912588,-1.35239 0.535091,-0.491107 1.048192,-0.901589 1.539306,-1.231445 0.491109,-0.329846 0.98955,-0.571736 1.495326,-0.725673 0.505767,-0.153924 0.864937,-0.131934 1.077513,0.06597 0.212566,0.197916 0.351836,0.439806 0.417812,0.725673 0.06596,0.285876 0.03664,0.516771 -0.08796,0.692687 -0.124615,0.175925 -0.307866,0.293205 -0.549752,0.351842 -0.241895,0.05864 -0.575411,0.135609 -1.000548,0.230895 -0.425145,0.09529 -0.883272,0.329855 -1.37438,0.703683 -0.491114,0.373834 -0.619389,0.73667 -0.384827,1.088508 m 9.455735,-0.32985 c 0.146601,-0.395819 0.348176,-0.81363 0.604728,-1.253435 0.256549,-0.439797 0.846616,-1.077509 1.770201,-1.913137 0.92358,-0.835617 1.605271,-1.583279 2.045077,-2.242988 -0.674366,0.08797 -1.125162,0.135613 -1.352389,0.142935 -0.227235,0.0073 -0.36284,-0.128268 -0.406817,-0.406816 -0.04398,-0.278533 0.02199,-0.483774 0.19791,-0.615723 0.175918,-0.131931 0.520429,-0.230887 1.033534,-0.296866 0.513097,-0.06596 1.048189,-0.150256 1.605277,-0.252886 0.982216,-0.923572 1.784853,-1.663904 2.407913,-2.220998 0.623043,-0.557069 1.290075,-1.158131 2.001097,-1.803186 0.711002,-0.645028 1.385364,-1.183784 2.023088,-1.616271 0.637699,-0.432456 1.191115,-0.656022 1.660251,-0.670697 0.278526,0.366516 0.01831,0.905273 -0.780648,1.61627 -0.798985,0.711026 -1.433032,1.301093 -1.902142,1.770202 -0.469133,0.469133 -0.919928,0.91993 -1.35239,1.35239 -0.432481,0.432482 -0.927257,0.949248 -1.484331,1.550301 0.718334,-0.08795 1.792182,-0.212562 3.221547,-0.373832 1.429342,-0.161251 2.891681,-0.311516 4.387022,-0.450796 1.495307,-0.139261 3.001627,-0.260206 4.518962,-0.362837 1.517293,-0.10261 3.005286,-0.16858 4.463986,-0.197911 1.458647,-0.02931 2.975961,-0.02564 4.55194,0.011 1.57593,0.03666 2.85868,0.102632 3.848269,0.197911 0.989517,0.0953 1.777493,0.399497 2.36393,0.912589 -0.601097,0.190589 -1.150852,0.252895 -1.649255,0.186915 -0.498474,-0.06596 -1.033569,-0.117271 -1.605272,-0.153931 -0.571776,-0.03664 -1.257132,-0.04397 -2.056077,-0.02199 -0.798998,0.022 -1.76656,0.05132 -2.902686,0.08796 -1.13618,0.03666 -2.349299,0.06232 -3.639359,0.07696 -1.290107,0.01467 -2.598515,0.07698 -3.925229,0.186916 -1.326753,0.10996 -2.587516,0.22724 -3.782293,0.351842 -1.194809,0.124618 -2.437248,0.238233 -3.727318,0.340845 -1.290097,0.102629 -2.206349,0.172264 -2.748761,0.208906 -0.542431,0.03666 -0.989562,0.07698 -1.341395,0.120946 -0.351849,0.04399 -0.641385,0.120954 -0.868607,0.230895 -0.227239,0.109959 -0.469129,0.274884 -0.725673,0.494777 -0.256557,0.219908 -0.575414,0.524105 -0.956568,0.912588 -0.381168,0.388498 -0.831964,0.89427 -1.352391,1.517316 -0.520436,0.623057 -0.982226,1.158148 -1.385374,1.605276 -0.403155,0.447135 -0.692691,0.864945 -0.868609,1.253435 -0.175923,0.388492 -0.197913,0.733003 -0.06597,1.033533 0.131937,0.300532 0.381158,0.483782 0.747662,0.549752 0.366498,0.06597 1.07018,-0.08063 2.111048,-0.439801 1.040857,-0.35917 1.781189,-0.678026 2.220998,-0.956569 0.439794,-0.278538 0.773309,-0.454459 1.000548,-0.527762 0.227222,-0.0733 0.403143,-0.02565 0.527762,0.142935 0.124602,0.168593 -0.05499,0.458128 -0.538757,0.868609 -0.48379,0.410483 -0.91626,0.725673 -1.297415,0.945573 -0.381167,0.219902 -0.817304,0.425142 -1.308409,0.615723 -0.491117,0.19058 -1.044534,0.329851 -1.660251,0.417811 -0.395826,0.05864 -0.769657,0.08796 -1.121494,0.08796 -0.219904,-10e-7 -0.432475,-0.0073 -0.637713,-0.02199 -0.557084,-0.05864 -0.993219,-0.186917 -1.308409,-0.384827 -0.315192,-0.197911 -0.524098,-0.458127 -0.626718,-0.780648 -0.117281,-0.2932 -0.17592,-0.557081 -0.17592,-0.791642 0,-0.01466 0.0073,-0.03665 0.02199,-0.06597 0,-0.249219 0.0733,-0.57174 0.219901,-0.967563 m 9.785584,-1.099505 c 0.894261,-0.293197 1.491657,-0.571737 1.792192,-0.835622 0.300527,-0.263877 0.428802,-0.505767 0.384826,-0.725673 -0.04399,-0.219896 -0.293205,-0.212566 -0.747663,0.02199 -0.454465,0.234567 -0.76599,0.472792 -0.934578,0.714679 -0.168593,0.241895 -0.333518,0.51677 -0.494777,0.824627 m -1.935127,1.451345 c 0,-0.762319 0.09529,-1.348721 0.285871,-1.759206 0.19058,-0.410477 0.502106,-0.835618 0.934578,-1.275424 0.43247,-0.439797 0.864942,-0.820958 1.297415,-1.143485 0.432469,-0.322514 0.875935,-0.542415 1.3304,-0.659702 l 0.505772,-0.02199 c 0.454456,0.01467 0.850277,0.139277 1.187464,0.373831 0.337176,0.234567 0.480111,0.648713 0.428807,1.242439 -0.05132,0.593738 -0.344517,1.106839 -0.879604,1.539306 -0.535096,0.432476 -1.139823,0.744001 -1.814182,0.934578 -0.674364,0.190584 -1.0372,0.36284 -1.088508,0.516767 -0.05131,0.153933 0.05864,0.322524 0.329851,0.505772 0.271208,0.183253 0.8796,0.300533 1.825177,0.351842 0.945568,0.05131 1.718885,2e-6 2.319953,-0.153931 0.601055,-0.153929 1.088501,-0.318854 1.462341,-0.494777 0.373822,-0.175918 0.667023,-0.293198 0.879602,-0.351841 0.212562,-0.05864 0.384818,0.05131 0.516767,0.329852 -0.38117,0.542423 -0.798981,0.941909 -1.253434,1.198459 -0.454469,0.256552 -1.022546,0.487447 -1.704231,0.692687 -0.681698,0.205241 -1.513656,0.329852 -2.495875,0.373831 l -0.593731,0 c -1.070187,-0.10262 -1.792194,-0.245555 -2.166024,-0.428806 -0.373831,-0.18325 -0.663368,-0.399485 -0.868607,-0.648707 -0.205241,-0.24922 -0.351842,-0.623051 -0.439802,-1.121495 m 9.972503,0.197912 c 0.153929,0.425143 0.4398,0.604728 0.857613,0.538756 0.417809,-0.06597 0.79897,-0.208904 1.143485,-0.428806 0.351836,-0.227229 0.707343,-0.560745 1.066518,-1.000549 0.359167,-0.447128 0.516762,-0.751324 0.472787,-0.912588 -0.864947,0.630385 -1.54664,1.048196 -2.045077,1.253435 -0.491115,0.205243 -0.989556,0.388493 -1.495326,0.549752 m -2.210003,-0.989554 c 0.01466,-0.469118 0.06231,-0.828289 0.142935,-1.077514 0.08063,-0.249217 0.216237,-0.417807 0.406817,-0.505772 0.190581,-0.08796 0.432471,-0.117276 0.725672,-0.08796 0.293201,0.02933 0.513101,0.524101 0.659703,1.484331 0.61572,-0.117277 1.147147,-0.289532 1.59428,-0.516767 0.44713,-0.227227 0.87227,-0.443463 1.275425,-0.648707 0.403147,-0.212567 0.875934,-0.436132 1.41836,-0.670697 0.542417,-0.234556 1.048188,-0.491107 1.517316,-0.769653 0.469114,-0.285866 0.820955,-0.564406 1.055524,-0.835624 0.234553,-0.278533 0.410473,-0.557075 0.527762,-0.835623 0.117272,-0.285863 0.315182,-0.461783 0.593732,-0.527761 0.329841,0.0073 0.571732,0.07697 0.725672,0.208905 0.153921,0.124619 0.249211,0.421484 0.285871,0.890598 -0.01467,0.205248 -0.06598,0.406824 -0.15393,0.604728 -0.08797,0.197916 -0.282216,0.436142 -0.582737,0.714677 -0.29321,0.271216 -0.608401,0.494782 -0.945574,0.670698 -0.329859,0.168595 -0.700025,0.3775 -1.110498,0.626717 -0.403159,0.249225 -0.809975,0.582741 -1.22045,1.000549 -0.403157,0.417814 -0.696358,0.82463 -0.879603,1.220449 -0.175926,0.388493 -0.359176,0.743999 -0.549752,1.066519 -0.190585,0.315192 -0.480121,0.575407 -0.868608,0.780648 -0.388495,0.19791 -0.989557,0.322521 -1.803187,0.373831 -0.542423,-0.01466 -0.967564,-0.08429 -1.275425,-0.208905 -0.307861,-0.124611 -0.630382,-0.494777 -0.967563,-1.1105 -0.337181,-0.61572 -0.527761,-1.231442 -0.571742,-1.847166"
       id="text2443"
       style="font-size:27.92438889px;font-style:normal;font-variant:normal;font-weight:normal;font-stretch:normal;text-align:start;line-height:100%;writing-mode:lr-tb;text-anchor:start;opacity:0.9;fill:#22225e;fill-opacity:1;stroke:none;display:inline;font-family:JaneAusten;-inkscape-font-specification:JaneAusten" />
    <rect
       width="84"
       height="84"
       rx="6"
       ry="6"
       x="6"
       y="116"
       id="rect3781"
       style="fill:url(#linearGradient3783);fill-opacity:1;fill-rule:nonzero;stroke:none" />
    <path
       d="M 87.5625,7.4375 C 88.457536,8.5531297 89,9.9832263 89,11.53125 89,48.265897 85.457363,71.635962 81.15625,81.46875 70.339935,86.499595 45.479512,89 11.53125,89 9.9832267,88.997641 8.5531295,88.457151 7.4375,87.5625 8.6300118,89.04796 10.468723,89.996856 12.53125,90 46.479512,90 71.339935,87.499595 82.15625,82.46875 86.457363,72.635962 90,49.265897 90,12.53125 90,10.468723 89.048922,8.6300119 87.5625,7.4375 z"
       id="path3814"
       style="opacity:0.3;fill:url(#linearGradient3825);fill-opacity:1;stroke:none;display:inline" />
    <path
       d="m 89.96875,19.28125 c -0.40529,32.853499 -3.78151,53.972258 -7.8125,63.1875 -10.14029,4.716417 -32.62864,7.205224 -63.375,7.5 30.86516,-0.09992 54.68077,-1.006315 64.8125,-5.71875 4.0323,-9.218239 6.12845,-31.900739 6.375,-64.96875 z"
       id="path3831"
       style="opacity:0.2;fill:#552200;fill-opacity:1;stroke:none;display:inline" />
    <path
       d="M 12,6 C 8.676,6 6,8.676 6,12 l 0,2 0,68 0,2 c 0,0.334721 0.04135,0.6507 0.09375,0.96875 0.0487,0.295596 0.09704,0.596915 0.1875,0.875 0.00988,0.03038 0.020892,0.0636 0.03125,0.09375 0.098865,0.287771 0.2348802,0.547452 0.375,0.8125 0.1445918,0.273507 0.3156161,0.535615 0.5,0.78125 0.1843839,0.245635 0.3737765,0.473472 0.59375,0.6875 0.439947,0.428056 0.94291,0.814526 1.5,1.09375 0.278545,0.139612 0.5734731,0.246947 0.875,0.34375 -0.2562018,-0.100222 -0.4867109,-0.236272 -0.71875,-0.375 -0.00741,-0.0044 -0.023866,0.0045 -0.03125,0 -0.031933,-0.0193 -0.062293,-0.04251 -0.09375,-0.0625 -0.120395,-0.0767 -0.2310226,-0.163513 -0.34375,-0.25 -0.1061728,-0.0808 -0.2132809,-0.161112 -0.3125,-0.25 C 8.4783201,88.557317 8.3087904,88.373362 8.15625,88.1875 8.0486711,88.057245 7.9378561,87.922215 7.84375,87.78125 7.818661,87.74287 7.805304,87.69538 7.78125,87.65625 7.716487,87.553218 7.6510225,87.451733 7.59375,87.34375 7.4927417,87.149044 7.3880752,86.928049 7.3125,86.71875 7.30454,86.69694 7.288911,86.6782 7.28125,86.65625 7.2494249,86.5643 7.2454455,86.469419 7.21875,86.375 7.1884177,86.268382 7.1483606,86.171969 7.125,86.0625 7.0521214,85.720988 7,85.364295 7,85 L 7,83 7,15 7,13 C 7,10.218152 9.2181517,8 12,8 l 2,0 68,0 2,0 c 2.781848,0 5,2.218152 5,5 l 0,2 0,68 0,2 c 0,0.364295 -0.05212,0.720988 -0.125,1.0625 -0.04415,0.206893 -0.08838,0.397658 -0.15625,0.59375 -0.0077,0.02195 -0.0233,0.04069 -0.03125,0.0625 -0.06274,0.173739 -0.138383,0.367449 -0.21875,0.53125 -0.04158,0.0828 -0.07904,0.169954 -0.125,0.25 -0.0546,0.09721 -0.126774,0.18835 -0.1875,0.28125 -0.09411,0.140965 -0.204921,0.275995 -0.3125,0.40625 -0.143174,0.17445 -0.303141,0.346998 -0.46875,0.5 -0.01117,0.0102 -0.01998,0.02115 -0.03125,0.03125 -0.138386,0.125556 -0.285091,0.234436 -0.4375,0.34375 -0.102571,0.07315 -0.204318,0.153364 -0.3125,0.21875 -0.0074,0.0045 -0.02384,-0.0044 -0.03125,0 -0.232039,0.138728 -0.462548,0.274778 -0.71875,0.375 0.301527,-0.0968 0.596455,-0.204138 0.875,-0.34375 0.55709,-0.279224 1.060053,-0.665694 1.5,-1.09375 0.219973,-0.214028 0.409366,-0.441865 0.59375,-0.6875 0.184384,-0.245635 0.355408,-0.507743 0.5,-0.78125 0.14012,-0.265048 0.276135,-0.524729 0.375,-0.8125 0.01041,-0.03078 0.02133,-0.06274 0.03125,-0.09375 0.09046,-0.278085 0.1388,-0.579404 0.1875,-0.875 C 89.95865,84.6507 90,84.334721 90,84 l 0,-2 0,-68 0,-2 C 90,8.676 87.324,6 84,6 L 12,6 z"
       id="rect3728"
       style="opacity:0.6;fill:url(#linearGradient3188);fill-opacity:1;fill-rule:nonzero;stroke:none" />
  </g>
  <g
     id="layer5">
    <rect
       width="66"
       height="66"
       rx="12"
       ry="12"
       x="15"
       y="15"
       clip-path="url(#clipPath3613)"
       id="rect3171"
       style="opacity:0.1;fill:url(#linearGradient3613);fill-opacity:1;fill-rule:nonzero;stroke:#ffffff;stroke-width:0.5;stroke-linecap:round;stroke-linejoin:miter;stroke-miterlimit:4;stroke-opacity:1;stroke-dasharray:none;stroke-dashoffset:0;filter:url(#filter3794)" />
  </g>
</svg>
