<?xml version="1.0" encoding="UTF-8" standalone="no"?>
<svg xmlns="http://www.w3.org/2000/svg" height="96" width="96" version="1.1" xmlns:xlink="http://www.w3.org/1999/xlink">
 <defs>
  <linearGradient id="a" stop-color="#fff">
   <stop offset="0"/>
   <stop stop-opacity="0" offset="1"/>
  </linearGradient>
  <filter id="j" height="1.384" width="1.384" color-interpolation-filters="sRGB" y="-.192" x="-.192">
   <feGaussianBlur stdDeviation="5.28"/>
  </filter>
  <linearGradient id="t" y2="138.66" xlink:href="#a" gradientUnits="userSpaceOnUse" x2="48" y1="20.221" x1="48"/>
  <clipPath id="g">
   <rect rx="6" ry="6" height="84" width="84" y="6" x="6" fill="#fff"/>
  </clipPath>
  <linearGradient id="e" y2="5.4252" gradientUnits="userSpaceOnUse" x2="58.65" gradientTransform="matrix(1.0172,0,0,1.0172,-1.1034,-1.1034)" y1="122" x1="58.65">
   <stop stop-color="#e4b31e" offset="0"/>
   <stop stop-color="#ffef64" offset="1"/>
  </linearGradient>
  <clipPath id="i">
   <path d="m62 6c-3.324 0-6 2.676-6 6v0.53125c0-3.6103 2.921-6.531 6.531-6.531h-0.531zm71.469 0c3.61 0 6.53 2.9207 6.53 6.531v-0.531c0-3.324-2.676-6-6-6h-0.53125zm6.53 6.531c0 36.735-3.5426 60.105-7.8438 69.938-10.82 5.031-35.685 7.531-69.634 7.531h71.469c3.324 0 6-2.676 6-6v-71.469zm-77.47 77.469c-3.61-0.006-6.531-2.921-6.531-6.531v0.531c0 3.324 2.676 6 6 6h0.53125z" fill="url(#u)"/>
  </clipPath>
  <linearGradient id="u" y2="5.9877" xlink:href="#e" gradientUnits="userSpaceOnUse" x2="48" gradientTransform="translate(50)" y1="90" x1="48"/>
  <filter id="l" color-interpolation-filters="sRGB">
   <feGaussianBlur stdDeviation="1.2600071"/>
  </filter>
  <linearGradient id="d" y2="7.0165" gradientUnits="userSpaceOnUse" x2="45.448" gradientTransform="matrix(1.0059 0 0 .99417 100 0)" y1="92.54" x1="45.448">
   <stop offset="0"/>
   <stop stop-opacity=".58824" offset="1"/>
  </linearGradient>
  <linearGradient id="s" y2="63.893" xlink:href="#a" gradientUnits="userSpaceOnUse" x2="36.357" y1="6" x1="36.357"/>
  <linearGradient id="r" y2="59.821" xlink:href="#a" gradientUnits="userSpaceOnUse" x2="59.612" y1="82.29" x1="82.08"/>
  <linearGradient id="q" y2="112.41" gradientUnits="userSpaceOnUse" x2="110.99" gradientTransform="matrix(.71186 0 0 .71186 2.4407 2.4407)" y1="44.471" x1="59.388">
   <stop stop-color="#e7ba26" stop-opacity="0" offset="0"/>
   <stop stop-color="#e9ab2c" stop-opacity=".83137" offset=".48412"/>
   <stop stop-color="#eaa82e" offset=".69663"/>
   <stop stop-color="#ebba3f" offset=".84266"/>
   <stop stop-color="#f3e38c" offset="1"/>
  </linearGradient>
  <radialGradient id="h" xlink:href="#a" gradientUnits="userSpaceOnUse" cy="90.172" cx="48" gradientTransform="matrix(1.1573 0 0 .99591 -7.551 .19713)" r="42"/>
  <linearGradient id="p" y2="6" xlink:href="#e" gradientUnits="userSpaceOnUse" x2="48" y1="90" x1="48"/>
  <linearGradient id="o" y2="6" xlink:href="#d" gradientUnits="userSpaceOnUse" x2="32.251" gradientTransform="translate(0,1)" y1="90" x1="32.251"/>
  <linearGradient id="n" y2="6" xlink:href="#d" gradientUnits="userSpaceOnUse" x2="32.251" gradientTransform="matrix(1.0238 0 0 1.0119 -1.1429 .929)" y1="90" x1="32.251"/>
  <linearGradient id="m" y2="90.239" xlink:href="#d" gradientUnits="userSpaceOnUse" x2="32.251" gradientTransform="matrix(1.0238,0,0,-1.0119,-1.1429,98.071)" y1="6.1317" x1="32.251"/>
 </defs>
 <g fill="url(#m)">
  <path opacity="0.08" d="m12 95.031c-5.5111 0-10.031-4.52-10.031-10.031v-71c0-5.5111 4.5202-10.031 10.031-10.031h72c5.5111 0 10.031 4.5202 10.031 10.031v71c0 5.5111-4.5202 10.031-10.031 10.031h-72z"/>
  <path opacity=".1" d="m12 94.031c-4.9716 0-9.0312-4.0596-9.0312-9.0312v-71c0-4.9718 4.0596-9.0314 9.0312-9.0314h72c4.9716 0 9.0312 4.0596 9.0312 9.0312v71c0 4.9716-4.0596 9.0312-9.0312 9.0312h-72z"/>
  <path opacity=".2" d="m12 93c-4.4091 0-8-3.591-8-8v-71c0-4.4091 3.5909-8 8-8h72c4.4091 0 8 3.5909 8 8v71c0 4.4091-3.5909 8-8 8h-72z"/>
 </g>
 <rect opacity=".3" rx="7" ry="7" height="85" width="86" y="7" x="5" fill="url(#n)"/>
 <rect opacity=".45" rx="6" ry="6" height="84" width="84" y="7" x="6" fill="url(#o)"/>
 <rect rx="6" ry="6" height="84" width="84" y="6" x="6" fill="url(#p)"/>
 <path opacity=".2" d="m12 90c-3.324 0-6-2.676-6-6v-72c0-0.33472 0.04135-0.6507 0.09375-0.96875 0.0487-0.2956 0.09704-0.59692 0.1875-0.875 0.0099-0.03 0.0209-0.063 0.0313-0.094 0.0989-0.2873 0.2349-0.547 0.375-0.812 0.1446-0.2735 0.3156-0.5356 0.5-0.7812 0.1844-0.2457 0.3738-0.4735 0.5937-0.6876 0.44-0.428 0.943-0.8145 1.5-1.0937 0.2786-0.1396 0.5735-0.2469 0.8748-0.3437-0.256 0.1002-0.4865 0.2362-0.7185 0.375-0.00741 0.0044-0.023866-0.0045-0.03125 0-0.031933 0.0193-0.062293 0.04251-0.09375 0.0625-0.1204 0.0767-0.23102 0.16351-0.34375 0.25-0.10617 0.0808-0.21328 0.16111-0.3125 0.25-0.1779 0.1614-0.3474 0.3453-0.5 0.5312-0.1075 0.1303-0.2183 0.2653-0.3124 0.4063-0.0251 0.0383-0.0385 0.0858-0.0626 0.125-0.0647 0.103-0.1302 0.2045-0.1874 0.3124-0.1011 0.1948-0.2057 0.4158-0.2813 0.625-0.008 0.0219-0.0236 0.0406-0.0313 0.0626-0.0318 0.0919-0.0358 0.1868-0.0624 0.2812-0.0304 0.1066-0.0704 0.203-0.0938 0.3125-0.0729 0.3415-0.125 0.6985-0.125 1.0625v72c0 2.7818 2.2182 5 5 5h72c2.7818 0 5-2.2182 5-5v-72c0-0.364-0.052-0.721-0.125-1.0625-0.044-0.2069-0.088-0.3977-0.156-0.5937-0.008-0.022-0.024-0.0407-0.031-0.0626-0.063-0.1737-0.139-0.3674-0.219-0.5312-0.042-0.0828-0.079-0.17-0.125-0.25-0.055-0.0972-0.127-0.1884-0.188-0.2812-0.094-0.141-0.205-0.276-0.312-0.4063-0.143-0.1745-0.303-0.347-0.469-0.5-0.011-0.0102-0.02-0.0211-0.031-0.0313-0.139-0.1255-0.285-0.2344-0.438-0.3437-0.102-0.0731-0.204-0.1534-0.312-0.2187-0.0074-0.0045-0.02384 0.0044-0.03125 0-0.23204-0.13873-0.46255-0.27478-0.71875-0.375 0.30153 0.0968 0.59646 0.20414 0.875 0.34375 0.55709 0.27922 1.0601 0.66569 1.5 1.0938 0.21997 0.21403 0.40937 0.44186 0.59375 0.6875s0.35541 0.50774 0.5 0.78125c0.14012 0.26505 0.27614 0.52473 0.375 0.8125 0.01041 0.03078 0.02133 0.06274 0.03125 0.09375 0.09046 0.27808 0.1388 0.5794 0.1875 0.875 0.053 0.318 0.094 0.634 0.094 0.969v72c0 3.324-2.676 6-6 6h-72z" fill="url(#h)"/>
 <path opacity=".5" d="m62.517 6c-3.61 0-6.517 2.9067-6.517 6.517v70.966c0 3.6105 2.9067 6.5117 6.5172 6.5172 33.948 0 61.157 0.16315 73.402-3.7963 3.23-10.012 4.08-36.952 4.08-73.687 0-3.6103-2.91-6.517-6.52-6.517h-70.963z" clip-path="url(#i)" transform="translate(-50)" filter="url(#l)" fill="#a14b09"/>
 <path opacity=".35" d="m12 6c-3.324 0-6 2.676-6 6v6h84v-6c0-3.324-2.676-6-6-6h-72z" fill="#fff"/>
 <path d="m12.517 6c-3.6103 0-6.517 2.9067-6.517 6.517v70.966c0 3.61 2.9067 6.511 6.517 6.517 33.949 0 58.836-2.515 69.652-7.546 4.302-9.833 7.831-33.202 7.831-69.937 0-3.6103-2.907-6.517-6.517-6.517h-70.966z" fill="url(#q)"/>
 <path opacity=".9" d="m12.519 46.915c0.0293-0.4398 0.11361-0.76232 0.25288-0.96756s0.43246-0.45812 0.87961-0.75866c0.44712-0.30052 0.93457-0.42147 1.4623-0.36284 0.52775 0.05865 0.60105 0.35551 0.2199 0.8906-0.38117 0.5351-0.56442 1.0629-0.54976 1.5833 0.0147 0.52044 0.2932 0.89427 0.83562 1.1215s1.1325 0.18692 1.7702-0.12094c0.63771-0.30786 1.3817-0.76598 2.232-1.3744 0.85027-0.60839 1.7079-1.378 2.5728-2.309 0.86493-0.9309 1.6016-1.8582 2.21-2.7817 0.60838-0.92357 1.0958-1.7849 1.4623-2.5838 0.36648-0.79896 0.59372-1.5869 0.68169-2.3639 0.08794-0.77697-0.15761-1.51-0.73667-2.199-0.57909-0.68901-0.87962-1.2681-0.90159-1.7372-0.02201-0.4691 0.24554-0.92357 0.80264-1.3634 0.99687 0.000019 1.6896 0.29322 2.0781 0.8796 0.38848 0.58642 0.74032 1.1875 1.0555 1.8032 0.31517 0.61574 0.58638 1.2425 0.81363 1.8802 0.22721 0.63773 0.46544 1.2168 0.71468 1.7372 0.2492 0.52045 0.43245 1.0555 0.54975 1.6053 0.11726 0.54976 0.30418 1.1362 0.56075 1.7592 0.25653 0.62306 0.47643 1.2791 0.6597 1.9681 0.18323 0.68903 0.48009 0.72202 0.8906 0.09896 0.41046-0.62304 1.0592-1.4074 1.9461-2.3529 0.88691-0.94556 1.6566-1.7445 2.309-2.3969 0.65234-0.65236 1.3817-1.3011 2.188-1.9461 0.80627-0.64503 1.6272-1.2241 2.4629-1.7372 0.83559-0.51309 1.7665-0.97488 2.7927-1.3854 1.0262-0.41046 1.9424-0.60837 2.7488-0.59373 0.80627 0.01468 1.5613 0.14295 2.265 0.38483 0.70364 0.24191 1.2827 0.52045 1.7372 0.83562 0.45442 0.31521 0.82092 0.70736 1.0995 1.1765 0.2785 0.46914 0.43243 1.2901 0.46179 2.4629-0.21994 0.49845-0.48749 0.72568-0.80264 0.68169-0.31523-0.04396-0.49482-0.38848-0.53876-1.0335-0.04402-0.64503-0.28225-1.1765-0.71468-1.5943-0.43251-0.4178-0.86498-0.72199-1.2974-0.91259-0.43251-0.19056-1.0006-0.3445-1.7042-0.46179-0.70372-0.11726-1.3964-0.06228-2.0781 0.16492-0.68173 0.22725-1.4184 0.58642-2.21 1.0775-0.79168 0.49113-1.7153 1.0959-2.7708 1.8142-1.0556 0.71836-2.0781 1.5796-3.0676 2.5838-0.98958 1.0042-1.8032 1.9388-2.4409 2.8037-0.63774 0.86495-1.2021 1.6969-1.6932 2.4959-0.49113 0.79898-0.8503 1.6493-1.0775 2.5508-0.22725 0.9016-0.51312 1.7629-0.85761 2.5838-0.34453 0.82096-0.78067 1.4513-1.3084 1.8911-0.79166-0.11728-1.2058-0.35551-1.2424-0.71468-0.03667-0.35917 0.06962-0.76599 0.31886-1.2204 0.2492-0.45446 0.46177-1.0299 0.63771-1.7262 0.1759-0.69635 0.27852-1.4184 0.30786-2.166 0.0293-0.74766-0.08065-1.5136-0.32985-2.298-0.24924-0.7843-0.48747-1.444-0.71468-1.9791-0.22725-0.53508-0.47647-0.97855-0.74766-1.3304-0.27123-0.35183-0.56076-0.34084-0.86861 0.03298-0.30788 0.37384-0.75134 0.93459-1.3304 1.6822-0.57909 0.74767-1.2974 1.543-2.155 2.3859-0.85763 0.84296-1.9791 1.7959-3.3645 2.8587-1.3854 1.0629-2.6388 1.7739-3.7603 2.133-1.1215 0.35917-2.0341 0.43247-2.7378 0.2199-0.70368-0.21257-1.1838-0.56807-1.4404-1.0665-0.25655-0.49844-0.43614-1.2681-0.53875-2.309m26.08 2.0011c0.23456 0.35184 0.5241 0.53509 0.86861 0.54975s0.67069-0.08063 0.97856-0.28587c0.30786-0.20524 0.67069-0.39948 1.0885-0.58274 0.41781-0.18325 0.82462-0.41048 1.2204-0.68169 0.39581-0.27121 0.59372-0.61205 0.59373-1.0225-0.000006-0.41048-0.15394-0.72933-0.46179-0.95657-0.30787-0.22722-0.43614-0.51676-0.38483-0.86861 0.0513-0.35184 0.21256-0.59373 0.48378-0.72567 0.2712-0.13193 0.722-0.20523 1.3524-0.2199 0.65969 0.13195 1.0628 0.4618 1.2095 0.98955 0.14659 0.52777 0.1356 1.0189-0.03298 1.4733-0.1686 0.45447 0.0403 0.86495 0.62672 1.2314 0.58639 0.3665 1.1105 0.48745 1.5723 0.36284 0.46178-0.12461 0.722 0.01833 0.78065 0.42881-0.07331 0.4398-0.19426 0.70368-0.36284 0.79164-0.1686 0.08796-0.50945 0.16859-1.0225 0.24189-0.51311 0.0733-1.1288-0.08429-1.8472-0.47279-0.71835-0.38849-1.2315-0.46545-1.5393-0.2309-0.30787 0.23456-0.76966 0.53876-1.3854 0.91259-0.61573 0.37383-1.2205 0.6707-1.8142 0.8906-0.59374 0.2199-1.2718 0.32985-2.0341 0.32985-0.70368-0.23456-1.2021-0.5974-1.4953-1.0885-0.2932-0.49111-0.4398-1.0299-0.4398-1.6163 0.0733-0.41048 0.3775-0.86128 0.91259-1.3524 0.53509-0.49111 1.0482-0.90159 1.5393-1.2314 0.49111-0.32985 0.98955-0.57174 1.4953-0.72567 0.50577-0.15392 0.86494-0.13193 1.0775 0.06597 0.21257 0.19792 0.35184 0.43981 0.41781 0.72567 0.06596 0.28588 0.03664 0.51677-0.08796 0.69269-0.12462 0.17592-0.30787 0.2932-0.54975 0.35184-0.2419 0.05864-0.57541 0.13561-1.0005 0.2309-0.42514 0.09529-0.88327 0.32986-1.3744 0.70368-0.49111 0.37383-0.61939 0.73667-0.38483 1.0885m9.4557-0.32985c0.1466-0.39582 0.34818-0.81363 0.60473-1.2534 0.25655-0.4398 0.84662-1.0775 1.7702-1.9131 0.92358-0.83562 1.6053-1.5833 2.0451-2.243-0.67437 0.08797-1.1252 0.13561-1.3524 0.14294-0.22724 0.0073-0.36284-0.12827-0.40682-0.40682-0.04398-0.27853 0.02199-0.48377 0.19791-0.61572 0.17592-0.13193 0.52043-0.23089 1.0335-0.29687 0.5131-0.06596 1.0482-0.15026 1.6053-0.25289 0.98222-0.92357 1.7849-1.6639 2.4079-2.221 0.62304-0.55707 1.2901-1.1581 2.0011-1.8032 0.711-0.64503 1.3854-1.1838 2.0231-1.6163 0.6377-0.43246 1.1911-0.65602 1.6603-0.6707 0.27853 0.36652 0.01831 0.90527-0.78065 1.6163-0.79898 0.71103-1.433 1.3011-1.9021 1.7702l-1.3524 1.3524c-0.43248 0.43248-0.92726 0.94925-1.4843 1.5503 0.71833-0.08795 1.7922-0.21256 3.2215-0.37383 1.4293-0.16125 2.8917-0.31152 4.387-0.4508 1.4953-0.13926 3.0016-0.26021 4.519-0.36284 1.5173-0.10261 3.0053-0.16858 4.464-0.19791 1.4586-0.02931 2.976-0.02564 4.5519 0.011 1.5759 0.03666 2.8587 0.10263 3.8483 0.19791 0.98952 0.0953 1.7775 0.3995 2.3639 0.91259-0.6011 0.19059-1.1509 0.2529-1.6493 0.18692-0.49847-0.06596-1.0336-0.11727-1.6053-0.15393-0.57178-0.03664-1.2571-0.04397-2.0561-0.02199-0.799 0.022-1.7666 0.05132-2.9027 0.08796-1.1362 0.03666-2.3493 0.06232-3.6394 0.07696-1.2901 0.01467-2.5985 0.07698-3.9252 0.18692-1.3268 0.10996-2.5875 0.22724-3.7823 0.35184-1.1948 0.12462-2.4372 0.23823-3.7273 0.34084-1.2901 0.10263-2.2063 0.17226-2.7488 0.20891-0.54243 0.03666-0.98956 0.07698-1.3414 0.12095-0.35185 0.04399-0.64138 0.12095-0.86861 0.2309-0.22724 0.10996-0.46913 0.27488-0.72567 0.49478-0.25656 0.21991-0.57541 0.5241-0.95657 0.91259-0.38117 0.3885-0.83196 0.89427-1.3524 1.5173-0.52044 0.62306-0.98223 1.1581-1.3854 1.6053-0.40316 0.44714-0.69269 0.86494-0.86861 1.2534-0.17592 0.38849-0.19791 0.733-0.06597 1.0335 0.13194 0.30053 0.38116 0.48378 0.74766 0.54975s1.0702-0.08063 2.111-0.4398c1.0409-0.35917 1.7812-0.67803 2.221-0.95657 0.43979-0.27854 0.77331-0.45446 1.0005-0.52776 0.22722-0.0733 0.40314-0.02565 0.52776 0.14294 0.1246 0.16859-0.05499 0.45813-0.53876 0.86861-0.48379 0.41048-0.91626 0.72567-1.2974 0.94557-0.38117 0.2199-0.8173 0.42514-1.3084 0.61572-0.49112 0.19058-1.0445 0.32985-1.6603 0.41781-0.39583 0.05864-0.76966 0.08796-1.1215 0.08796-0.2199-0.000001-0.43248-0.0073-0.63771-0.02199-0.55708-0.05864-0.99322-0.18692-1.3084-0.38483-0.31519-0.19791-0.5241-0.45813-0.62672-0.78065-0.11728-0.2932-0.17592-0.55708-0.17592-0.79164 0-0.01466 0.0073-0.03665 0.02199-0.06597 0-0.24922 0.0733-0.57174 0.2199-0.96756m9.7856-1.0995c0.89426-0.2932 1.4917-0.57174 1.7922-0.83562 0.30053-0.26388 0.4288-0.50577 0.38483-0.72567-0.04399-0.2199-0.2932-0.21257-0.74766 0.02199-0.45446 0.23457-0.76599 0.47279-0.93458 0.71468-0.16859 0.2419-0.33352 0.51677-0.49478 0.82463m-1.9351 1.4513c0-0.76232 0.09529-1.3487 0.28587-1.7592 0.19058-0.41048 0.50211-0.83562 0.93458-1.2754 0.43247-0.4398 0.86494-0.82096 1.2974-1.1435 0.43247-0.32251 0.87594-0.54242 1.3304-0.6597l0.50577-0.02199c0.45446 0.01467 0.85028 0.13928 1.1875 0.37383 0.33718 0.23457 0.48011 0.64871 0.42881 1.2424-0.05132 0.59374-0.34452 1.1068-0.8796 1.5393-0.5351 0.43248-1.1398 0.744-1.8142 0.93458-0.67436 0.19058-1.0372 0.36284-1.0885 0.51677-0.05131 0.15393 0.05864 0.32252 0.32985 0.50577s0.8796 0.30053 1.8252 0.35184c0.94557 0.05131 1.7189 0.000002 2.32-0.15393 0.60106-0.15393 1.0885-0.31885 1.4623-0.49478 0.37382-0.17592 0.66702-0.2932 0.8796-0.35184 0.21256-0.05864 0.38482 0.05131 0.51677 0.32985-0.38117 0.54242-0.79898 0.94191-1.2534 1.1985-0.45447 0.25655-1.0225 0.48745-1.7042 0.69269s-1.5137 0.32985-2.4959 0.37383h-0.59373c-1.0702-0.10262-1.7922-0.24556-2.166-0.42881-0.37383-0.18325-0.66337-0.39948-0.86861-0.64871-0.20524-0.24922-0.35184-0.62305-0.4398-1.1215m9.9725 0.19791c0.15393 0.42514 0.4398 0.60473 0.85761 0.53876s0.79897-0.2089 1.1435-0.42881c0.35184-0.22723 0.70734-0.56074 1.0665-1.0005 0.35917-0.44713 0.51676-0.75132 0.47279-0.91259-0.86495 0.63038-1.5466 1.0482-2.0451 1.2534-0.49112 0.20524-0.98956 0.38849-1.4953 0.54975m-2.21-0.98955c0.01466-0.46912 0.06231-0.82829 0.14294-1.0775 0.08063-0.24922 0.21624-0.41781 0.40682-0.50577s0.43247-0.11728 0.72567-0.08796c0.2932 0.02933 0.5131 0.5241 0.6597 1.4843 0.61572-0.11728 1.1471-0.28953 1.5943-0.51677 0.44713-0.22723 0.87227-0.44346 1.2754-0.64871 0.40315-0.21257 0.87593-0.43613 1.4184-0.6707 0.54242-0.23456 1.0482-0.49111 1.5173-0.76965 0.46911-0.28587 0.82096-0.56441 1.0555-0.83562 0.23455-0.27853 0.41047-0.55708 0.52776-0.83562 0.11727-0.28586 0.31518-0.46178 0.59373-0.52776 0.32984 0.0073 0.57173 0.07697 0.72567 0.2089 0.15392 0.12462 0.24921 0.42148 0.28587 0.8906-0.01467 0.20525-0.06598 0.40682-0.15393 0.60473-0.08797 0.19792-0.28222 0.43614-0.58274 0.71468-0.29321 0.27122-0.6084 0.49478-0.94557 0.6707-0.32986 0.1686-0.70002 0.3775-1.1105 0.62672-0.40316 0.24922-0.80998 0.58274-1.2204 1.0005-0.40316 0.41781-0.69636 0.82463-0.8796 1.2204-0.17593 0.38849-0.35918 0.744-0.54975 1.0665-0.19058 0.31519-0.48012 0.57541-0.86861 0.78065-0.3885 0.19791-0.98956 0.32252-1.8032 0.37383-0.54242-0.01466-0.96756-0.08429-1.2754-0.2089-0.30786-0.12461-0.63038-0.49478-0.96756-1.1105s-0.52776-1.2314-0.57174-1.8472" fill="#22225e"/>
 <path opacity=".3" d="m87.562 7.4375c0.896 1.1156 1.438 2.5457 1.438 4.0935 0 36.735-3.543 60.105-7.844 69.938-10.816 5.031-35.676 7.531-69.625 7.531-1.5478-0.002-2.9779-0.543-4.0935-1.438 1.1925 1.486 3.0315 2.435 5.0935 2.438 33.949 0 58.809-2.5 69.625-7.531 4.301-9.833 7.844-33.203 7.844-69.938 0-2.062-0.951-3.901-2.438-5.0935z" fill="url(#r)"/>
 <path opacity=".2" d="m89.969 19.281c-0.40529 32.853-3.7815 53.972-7.8125 63.188-10.14 4.7164-32.629 7.2052-63.375 7.5 30.865-0.09992 54.681-1.0063 64.812-5.7188 4.0323-9.2182 6.1284-31.901 6.375-64.969z" fill="#520"/>
 <path opacity=".6" d="m12 6c-3.324 0-6 2.676-6 6v72c0 0.33472 0.04135 0.6507 0.09375 0.96875 0.0487 0.2956 0.09704 0.59692 0.1875 0.875 0.00988 0.03038 0.020892 0.0636 0.03125 0.09375 0.098865 0.28777 0.23488 0.54745 0.375 0.8125 0.14459 0.27351 0.31562 0.53562 0.5 0.78125 0.18438 0.24564 0.37378 0.47347 0.59375 0.6875 0.43995 0.42806 0.94291 0.81453 1.5 1.0938 0.27854 0.13961 0.57347 0.24695 0.875 0.34375-0.2562-0.10022-0.48671-0.23627-0.71875-0.375-0.00741-0.0044-0.023866 0.0045-0.03125 0-0.0319-0.019-0.0622-0.042-0.0937-0.062-0.1204-0.077-0.231-0.164-0.3437-0.25-0.1062-0.081-0.2133-0.161-0.3126-0.25-0.1778-0.162-0.3473-0.346-0.4999-0.531-0.1075-0.131-0.2183-0.266-0.3124-0.407-0.0251-0.038-0.0385-0.086-0.0626-0.125-0.0647-0.103-0.1302-0.204-0.1874-0.312-0.1011-0.195-0.2057-0.416-0.2813-0.625-0.008-0.022-0.0236-0.041-0.0313-0.063-0.0318-0.092-0.0358-0.187-0.0624-0.281-0.0304-0.107-0.0704-0.203-0.0938-0.313-0.0729-0.341-0.125-0.698-0.125-1.062v-72c0-2.782 2.2182-5 5-5h72c2.7818 0 5 2.2182 5 5v72c0 0.3643-0.05212 0.72099-0.125 1.0625-0.04415 0.20689-0.08838 0.39766-0.15625 0.59375-0.0077 0.02195-0.0233 0.04069-0.03125 0.0625-0.06274 0.17374-0.13838 0.36745-0.21875 0.53125-0.04158 0.0828-0.07904 0.16995-0.125 0.25-0.0546 0.09721-0.12677 0.18835-0.1875 0.28125-0.09411 0.14096-0.20492 0.276-0.3125 0.40625-0.14317 0.17445-0.30314 0.347-0.46875 0.5-0.01117 0.0102-0.01998 0.02115-0.03125 0.03125-0.13839 0.12556-0.28509 0.23444-0.4375 0.34375-0.10257 0.07315-0.20432 0.15336-0.3125 0.21875-0.0074 0.0045-0.02384-0.0044-0.03125 0-0.23204 0.13873-0.46255 0.27478-0.71875 0.375 0.30153-0.0968 0.59646-0.20414 0.875-0.34375 0.55709-0.27922 1.0601-0.66569 1.5-1.0938 0.21997-0.21403 0.40937-0.44186 0.59375-0.6875s0.35541-0.50774 0.5-0.78125c0.14012-0.26505 0.27614-0.52473 0.375-0.8125 0.01041-0.03078 0.02133-0.06274 0.03125-0.09375 0.09046-0.27808 0.1388-0.5794 0.1875-0.875 0.053-0.318 0.094-0.634 0.094-0.969v-72c0-3.324-2.676-6-6-6h-72z" fill="url(#s)"/>
 <rect opacity=".1" clip-path="url(#g)" rx="12" ry="12" height="66" filter="url(#j)" width="66" stroke="#fff" stroke-linecap="round" y="15" x="15" stroke-width=".5" fill="url(#t)"/>
</svg>
