<?xml version="1.0" encoding="UTF-8" standalone="no"?>
<!-- Created with Inkscape (http://www.inkscape.org/) -->

<svg
   xmlns:dc="http://purl.org/dc/elements/1.1/"
   xmlns:cc="http://creativecommons.org/ns#"
   xmlns:rdf="http://www.w3.org/1999/02/22-rdf-syntax-ns#"
   xmlns:svg="http://www.w3.org/2000/svg"
   xmlns="http://www.w3.org/2000/svg"
   xmlns:xlink="http://www.w3.org/1999/xlink"
   xmlns:sodipodi="http://sodipodi.sourceforge.net/DTD/sodipodi-0.dtd"
   xmlns:inkscape="http://www.inkscape.org/namespaces/inkscape"
   version="1.0"
   width="96"
   height="96"
   id="svg2408"
   style="display:inline"
   inkscape:version="0.48.2 r9819"
   sodipodi:docname="gconf-editor.svg">
  <sodipodi:namedview
     pagecolor="#ffffff"
     bordercolor="#666666"
     borderopacity="1"
     objecttolerance="10"
     gridtolerance="10"
     guidetolerance="10"
     inkscape:pageopacity="0"
     inkscape:pageshadow="2"
     inkscape:window-width="640"
     inkscape:window-height="480"
     id="namedview146"
     showgrid="false"
     inkscape:zoom="2.4583333"
     inkscape:cx="48"
     inkscape:cy="48"
     inkscape:window-x="530"
     inkscape:window-y="69"
     inkscape:window-maximized="0"
     inkscape:current-layer="svg2408" />
  <defs
     id="defs2410">
    <linearGradient
       id="linearGradient3932">
      <stop
         id="stop3934"
         style="stop-color:#000000;stop-opacity:1"
         offset="0" />
      <stop
         id="stop3936"
         style="stop-color:#000000;stop-opacity:0"
         offset="1" />
    </linearGradient>
    <linearGradient
       id="linearGradient3865">
      <stop
         id="stop3867"
         style="stop-color:#ffe99d;stop-opacity:1"
         offset="0" />
      <stop
         id="stop3869"
         style="stop-color:#ffe99d;stop-opacity:0"
         offset="1" />
    </linearGradient>
    <linearGradient
       id="linearGradient3777">
      <stop
         id="stop3779"
         style="stop-color:#ff6600;stop-opacity:1"
         offset="0" />
      <stop
         id="stop3781"
         style="stop-color:#ff6600;stop-opacity:0"
         offset="1" />
    </linearGradient>
    <linearGradient
       id="linearGradient3751">
      <stop
         id="stop3753"
         style="stop-color:#f89400;stop-opacity:1"
         offset="0" />
      <stop
         id="stop3755"
         style="stop-color:#f89400;stop-opacity:0"
         offset="1" />
    </linearGradient>
    <linearGradient
       id="linearGradient3741">
      <stop
         id="stop3743"
         style="stop-color:#ffffff;stop-opacity:1"
         offset="0" />
      <stop
         id="stop3745"
         style="stop-color:#ffffff;stop-opacity:0"
         offset="1" />
    </linearGradient>
    <linearGradient
       id="linearGradient3724">
      <stop
         id="stop3726"
         style="stop-color:#ffa92a;stop-opacity:1"
         offset="0" />
      <stop
         id="stop3728"
         style="stop-color:#ffcf2a;stop-opacity:1"
         offset="1" />
    </linearGradient>
    <linearGradient
       x1="45.447727"
       y1="92.539597"
       x2="45.447727"
       y2="7.0165396"
       id="ButtonShadow"
       gradientUnits="userSpaceOnUse"
       gradientTransform="scale(1.0058652,0.994169)">
      <stop
         id="stop3750"
         style="stop-color:#000000;stop-opacity:1"
         offset="0" />
      <stop
         id="stop3752"
         style="stop-color:#000000;stop-opacity:0.58823532"
         offset="1" />
    </linearGradient>
    <linearGradient
       id="linearGradient3737">
      <stop
         id="stop3739"
         style="stop-color:#ffffff;stop-opacity:1"
         offset="0" />
      <stop
         id="stop3741"
         style="stop-color:#ffffff;stop-opacity:0"
         offset="1" />
    </linearGradient>
    <linearGradient
       id="linearGradient3700">
      <stop
         id="stop3702"
         style="stop-color:#70a83e;stop-opacity:1"
         offset="0" />
      <stop
         id="stop3704"
         style="stop-color:#9fd058;stop-opacity:1"
         offset="1" />
    </linearGradient>
    <filter
       color-interpolation-filters="sRGB"
       id="filter3174">
      <feGaussianBlur
         id="feGaussianBlur3176"
         stdDeviation="1.71" />
    </filter>
    <linearGradient
       x1="36.357143"
       y1="6"
       x2="36.357143"
       y2="63.893143"
       id="linearGradient3188"
       xlink:href="#linearGradient3737"
       gradientUnits="userSpaceOnUse" />
    <filter
       x="-0.192"
       y="-0.192"
       width="1.3839999"
       height="1.3839999"
       color-interpolation-filters="sRGB"
       id="filter3794">
      <feGaussianBlur
         id="feGaussianBlur3796"
         stdDeviation="5.28" />
    </filter>
    <linearGradient
       x1="48"
       y1="20.220806"
       x2="48"
       y2="138.66119"
       id="linearGradient3613"
       xlink:href="#linearGradient3737"
       gradientUnits="userSpaceOnUse" />
    <radialGradient
       cx="48"
       cy="90.171875"
       r="42"
       fx="48"
       fy="90.171875"
       id="radialGradient3619"
       xlink:href="#linearGradient3737"
       gradientUnits="userSpaceOnUse"
       gradientTransform="matrix(1.1573129,0,0,0.99590774,-7.5510206,0.19713193)" />
    <clipPath
       id="clipPath3613">
      <rect
         width="84"
         height="84"
         rx="6"
         ry="6"
         x="6"
         y="6"
         id="rect3615"
         style="fill:#ffffff;fill-opacity:1;fill-rule:nonzero;stroke:none" />
    </clipPath>
    <linearGradient
       x1="48"
       y1="90"
       x2="48"
       y2="5.9877172"
       id="linearGradient3617"
       xlink:href="#linearGradient3700"
       gradientUnits="userSpaceOnUse" />
    <linearGradient
       id="linearGradient5128">
      <stop
         id="stop5130"
         style="stop-color:#e5e5e5;stop-opacity:1"
         offset="0" />
      <stop
         id="stop5132"
         style="stop-color:#ababab;stop-opacity:1"
         offset="1" />
    </linearGradient>
    <linearGradient
       x1="63.9995"
       y1="3.1001"
       x2="63.9995"
       y2="122.8994"
       id="linearGradient3309"
       gradientUnits="userSpaceOnUse">
      <stop
         id="stop3311"
         style="stop-color:#f6f6f6;stop-opacity:1"
         offset="0" />
      <stop
         id="stop3313"
         style="stop-color:#d2d2d2;stop-opacity:1"
         offset="1" />
    </linearGradient>
    <linearGradient
       id="linearGradient3397">
      <stop
         id="stop3399"
         style="stop-color:#aaaaaa;stop-opacity:1"
         offset="0" />
      <stop
         id="stop3401"
         style="stop-color:#8c8c8c;stop-opacity:1"
         offset="1" />
    </linearGradient>
    <linearGradient
       x1="86.132919"
       y1="105.105"
       x2="84.63858"
       y2="20.895"
       id="linearGradient3801"
       xlink:href="#linearGradient5128"
       gradientUnits="userSpaceOnUse"
       gradientTransform="matrix(0.41503146,0,0,0.41503146,21.437996,21.853023)" />
    <linearGradient
       x1="20.758585"
       y1="1"
       x2="20.758585"
       y2="45.017357"
       id="linearGradient3804"
       xlink:href="#linearGradient3309"
       gradientUnits="userSpaceOnUse"
       gradientTransform="matrix(1.2790652,0,0,1.2790652,17.302433,18.5815)" />
    <linearGradient
       x1="37.201294"
       y1="1"
       x2="37.201294"
       y2="45"
       id="linearGradient3806"
       xlink:href="#linearGradient3397"
       gradientUnits="userSpaceOnUse"
       gradientTransform="matrix(1.2790652,0,0,1.2790652,17.302433,18.5815)" />
    <filter
       color-interpolation-filters="sRGB"
       id="filter3814">
      <feGaussianBlur
         id="feGaussianBlur3816"
         stdDeviation="2.1999956" />
    </filter>
    <linearGradient
       x1="48"
       y1="90"
       x2="48"
       y2="5.9877172"
       id="linearGradient3878"
       xlink:href="#linearGradient3700"
       gradientUnits="userSpaceOnUse" />
    <linearGradient
       id="linearGradient3700-4">
      <stop
         id="stop3702-4"
         style="stop-color:#70a83e;stop-opacity:1"
         offset="0" />
      <stop
         id="stop3704-4"
         style="stop-color:#9fd058;stop-opacity:1"
         offset="1" />
    </linearGradient>
    <clipPath
       id="clipPath2973">
      <rect
         width="84"
         height="84"
         rx="6"
         ry="6"
         x="6"
         y="6"
         id="rect2975"
         style="fill:url(#linearGradient2977);fill-opacity:1;fill-rule:nonzero;stroke:none" />
    </clipPath>
    <linearGradient
       x1="48"
       y1="90"
       x2="48"
       y2="5.9877172"
       id="linearGradient2977"
       xlink:href="#linearGradient3700-4"
       gradientUnits="userSpaceOnUse" />
    <linearGradient
       x1="52.51516"
       y1="44.039856"
       x2="54.767216"
       y2="64.307716"
       id="linearGradient3747"
       xlink:href="#linearGradient3741"
       gradientUnits="userSpaceOnUse" />
    <radialGradient
       cx="48.089584"
       cy="53.8909"
       r="5.4927044"
       fx="48.089584"
       fy="53.8909"
       id="radialGradient3791"
       xlink:href="#linearGradient3777"
       gradientUnits="userSpaceOnUse"
       gradientTransform="matrix(-0.01155242,1.9830883,-2.0305783,-0.02269268,158.07483,-40.252061)" />
    <linearGradient
       x1="64.669502"
       y1="71.888321"
       x2="59.574085"
       y2="52.871964"
       id="linearGradient3800"
       xlink:href="#linearGradient3724"
       gradientUnits="userSpaceOnUse" />
    <radialGradient
       cx="47.644325"
       cy="54.10635"
       r="4.8616066"
       fx="47.644325"
       fy="54.10635"
       id="radialGradient3811"
       xlink:href="#linearGradient3751"
       gradientUnits="userSpaceOnUse"
       gradientTransform="matrix(2.3125312,2.3348434,1.2717514,-1.2595982,-125.14605,4.532606)" />
    <linearGradient
       x1="60.755741"
       y1="66.836105"
       x2="69.693596"
       y2="69.230995"
       id="linearGradient3871"
       xlink:href="#linearGradient3865"
       gradientUnits="userSpaceOnUse"
       gradientTransform="matrix(0.5,0.8660254,-0.8660254,0.5,91.523702,-24.523702)" />
    <linearGradient
       x1="32.237946"
       y1="21.650217"
       x2="36.821369"
       y2="47.535378"
       id="linearGradient3879"
       xlink:href="#linearGradient3309"
       gradientUnits="userSpaceOnUse" />
    <linearGradient
       x1="5.2744913"
       y1="62.878765"
       x2="-6.5244856"
       y2="66.807335"
       id="linearGradient3887"
       xlink:href="#linearGradient5128"
       gradientUnits="userSpaceOnUse" />
    <linearGradient
       x1="5.2744913"
       y1="62.878765"
       x2="-6.5244856"
       y2="66.807335"
       id="linearGradient3916"
       xlink:href="#linearGradient5128"
       gradientUnits="userSpaceOnUse"
       gradientTransform="matrix(0.44988627,0,0,0.44988627,-7.7869415e-6,-94.532869)" />
    <linearGradient
       x1="45.312279"
       y1="48.267761"
       x2="42.662289"
       y2="45.617771"
       id="linearGradient3938"
       xlink:href="#linearGradient3932"
       gradientUnits="userSpaceOnUse"
       gradientTransform="matrix(-1,0,0,-1,91.080609,91.12006)" />
    <linearGradient
       id="linearGradient3224">
      <stop
         id="stop3226"
         style="stop-color:#80a2c8;stop-opacity:1"
         offset="0" />
      <stop
         id="stop3228"
         style="stop-color:#2e4c6d;stop-opacity:1"
         offset="1" />
    </linearGradient>
    <linearGradient
       x1="48"
       y1="90"
       x2="48"
       y2="5.9877172"
       id="linearGradient3757"
       xlink:href="#linearGradient3224"
       gradientUnits="userSpaceOnUse"
       gradientTransform="translate(0,-96)" />
    <linearGradient
       x1="32.251034"
       y1="6.1317081"
       x2="32.251034"
       y2="90.238609"
       id="linearGradient3721"
       xlink:href="#ButtonShadow-0"
       gradientUnits="userSpaceOnUse"
       gradientTransform="translate(0,-97)" />
    <linearGradient
       x1="45.447727"
       y1="92.539597"
       x2="45.447727"
       y2="7.0165396"
       id="ButtonShadow-0"
       gradientUnits="userSpaceOnUse"
       gradientTransform="matrix(1.0058652,0,0,0.994169,100,0)">
      <stop
         id="stop3750-8"
         style="stop-color:#000000;stop-opacity:1"
         offset="0" />
      <stop
         id="stop3752-5"
         style="stop-color:#000000;stop-opacity:0.58823532"
         offset="1" />
    </linearGradient>
    <linearGradient
       x1="32.251034"
       y1="6.1317081"
       x2="32.251034"
       y2="90.238609"
       id="linearGradient3725"
       xlink:href="#ButtonShadow-0"
       gradientUnits="userSpaceOnUse"
       gradientTransform="matrix(1.0238095,0,0,1.0119048,-1.1428571,-98.071429)" />
    <linearGradient
       x1="32.251034"
       y1="6.1317081"
       x2="32.251034"
       y2="90.238609"
       id="linearGradient3772"
       xlink:href="#ButtonShadow-0"
       gradientUnits="userSpaceOnUse"
       gradientTransform="matrix(1.0238095,0,0,1.0119048,-1.1428571,-98.071429)" />
    <linearGradient
       x1="32.251034"
       y1="6.1317081"
       x2="32.251034"
       y2="90.238609"
       id="linearGradient3780"
       xlink:href="#ButtonShadow-0"
       gradientUnits="userSpaceOnUse"
       gradientTransform="matrix(1.0238095,0,0,1.0119048,-1.1428571,-98.071429)" />
    <linearGradient
       x1="32.251034"
       y1="6.1317081"
       x2="32.251034"
       y2="90.238609"
       id="linearGradient2969"
       xlink:href="#ButtonShadow-0"
       gradientUnits="userSpaceOnUse"
       gradientTransform="matrix(1.0238095,0,0,1.0119048,-1.1428571,-98.071429)" />
    <linearGradient
       x1="20.758585"
       y1="1"
       x2="20.758585"
       y2="45.017357"
       id="linearGradient3804-5"
       xlink:href="#linearGradient3309-6"
       gradientUnits="userSpaceOnUse"
       gradientTransform="matrix(1.2790652,0,0,1.2790652,17.302433,18.5815)" />
    <linearGradient
       x1="63.9995"
       y1="3.1001"
       x2="63.9995"
       y2="122.8994"
       id="linearGradient3309-6"
       gradientUnits="userSpaceOnUse">
      <stop
         id="stop3311-9"
         style="stop-color:#f6f6f6;stop-opacity:1"
         offset="0" />
      <stop
         id="stop3313-3"
         style="stop-color:#d2d2d2;stop-opacity:1"
         offset="1" />
    </linearGradient>
    <linearGradient
       x1="37.201294"
       y1="1"
       x2="37.201294"
       y2="45"
       id="linearGradient3806-7"
       xlink:href="#linearGradient3397-4"
       gradientUnits="userSpaceOnUse"
       gradientTransform="matrix(1.2790652,0,0,1.2790652,17.302433,18.5815)" />
    <linearGradient
       id="linearGradient3397-4">
      <stop
         id="stop3399-5"
         style="stop-color:#aaaaaa;stop-opacity:1"
         offset="0" />
      <stop
         id="stop3401-2"
         style="stop-color:#8c8c8c;stop-opacity:1"
         offset="1" />
    </linearGradient>
    <linearGradient
       x1="86.132919"
       y1="105.105"
       x2="84.63858"
       y2="20.895"
       id="linearGradient3801-5"
       xlink:href="#linearGradient5128-4"
       gradientUnits="userSpaceOnUse"
       gradientTransform="matrix(0.41503146,0,0,0.41503146,21.437996,21.853023)" />
    <linearGradient
       id="linearGradient5128-4">
      <stop
         id="stop5130-7"
         style="stop-color:#e5e5e5;stop-opacity:1"
         offset="0" />
      <stop
         id="stop5132-4"
         style="stop-color:#ababab;stop-opacity:1"
         offset="1" />
    </linearGradient>
  </defs>
  <metadata
     id="metadata2413">
    <rdf:RDF>
      <cc:Work
         rdf:about="">
        <dc:format>image/svg+xml</dc:format>
        <dc:type
           rdf:resource="http://purl.org/dc/dcmitype/StillImage" />
        <dc:title></dc:title>
      </cc:Work>
    </rdf:RDF>
  </metadata>
  <g
     id="layer2"
     style="display:none">
    <rect
       width="86"
       height="85"
       rx="6"
       ry="6"
       x="5"
       y="7"
       id="rect3745"
       style="opacity:0.9;fill:url(#ButtonShadow);fill-opacity:1;fill-rule:nonzero;stroke:none;filter:url(#filter3174)" />
  </g>
  <g
     id="layer4"
     style="display:inline">
    <path
       d="m 12,-95.03125 c -5.5110903,0 -10.03125,4.52016 -10.03125,10.03125 l 0,71 c 0,5.5110902 4.5201598,10.03125 10.03125,10.03125 l 72,0 c 5.51109,0 10.03125,-4.5201597 10.03125,-10.03125 l 0,-71 c 0,-5.51109 -4.52016,-10.03125 -10.03125,-10.03125 l -72,0 z"
       transform="scale(1,-1)"
       id="path3786"
       style="opacity:0.07999998;fill:url(#linearGradient2969);fill-opacity:1;fill-rule:nonzero;stroke:none;display:inline" />
    <path
       d="m 12,-94.03125 c -4.971633,0 -9.03125,4.059617 -9.03125,9.03125 l 0,71 c 0,4.9716329 4.0596171,9.03125 9.03125,9.03125 l 72,0 c 4.971633,0 9.03125,-4.059617 9.03125,-9.03125 l 0,-71 c 0,-4.971633 -4.059617,-9.03125 -9.03125,-9.03125 l -72,0 z"
       transform="scale(1,-1)"
       id="path3778"
       style="opacity:0.1;fill:url(#linearGradient3780);fill-opacity:1;fill-rule:nonzero;stroke:none;display:inline" />
    <path
       d="m 12,-93 c -4.4091333,0 -8,3.590867 -8,8 l 0,71 c 0,4.4091333 3.5908667,8 8,8 l 72,0 c 4.409133,0 8,-3.5908667 8,-8 l 0,-71 c 0,-4.409133 -3.590867,-8 -8,-8 l -72,0 z"
       transform="scale(1,-1)"
       id="path3770"
       style="opacity:0.2;fill:url(#linearGradient3772);fill-opacity:1;fill-rule:nonzero;stroke:none;display:inline" />
    <rect
       width="86"
       height="85"
       rx="7"
       ry="7"
       x="5"
       y="-92"
       transform="scale(1,-1)"
       id="rect3723"
       style="opacity:0.3;fill:url(#linearGradient3725);fill-opacity:1;fill-rule:nonzero;stroke:none;display:inline" />
    <rect
       width="84"
       height="84"
       rx="6"
       ry="6"
       x="6"
       y="-91"
       transform="scale(1,-1)"
       id="rect3716"
       style="opacity:0.45;fill:url(#linearGradient3721);fill-opacity:1;fill-rule:nonzero;stroke:none;display:inline" />
  </g>
  <g
     id="layer1"
     style="display:inline">
    <rect
       width="84"
       height="84"
       rx="6"
       ry="6"
       x="6"
       y="-90"
       transform="scale(1,-1)"
       id="rect2419"
       style="fill:url(#linearGradient3757);fill-opacity:1;fill-rule:nonzero;stroke:none" />
    <path
       d="M 12,6 C 8.676,6 6,8.676 6,12 l 0,2 0,68 0,2 c 0,0.334721 0.04135,0.6507 0.09375,0.96875 0.0487,0.295596 0.09704,0.596915 0.1875,0.875 0.00988,0.03038 0.020892,0.0636 0.03125,0.09375 0.098865,0.287771 0.2348802,0.547452 0.375,0.8125 0.1445918,0.273507 0.3156161,0.535615 0.5,0.78125 0.1843839,0.245635 0.3737765,0.473472 0.59375,0.6875 0.439947,0.428056 0.94291,0.814526 1.5,1.09375 0.278545,0.139612 0.5734731,0.246947 0.875,0.34375 -0.2562018,-0.100222 -0.4867109,-0.236272 -0.71875,-0.375 -0.00741,-0.0044 -0.023866,0.0045 -0.03125,0 -0.031933,-0.0193 -0.062293,-0.04251 -0.09375,-0.0625 -0.120395,-0.0767 -0.2310226,-0.163513 -0.34375,-0.25 -0.1061728,-0.0808 -0.2132809,-0.161112 -0.3125,-0.25 C 8.4783201,88.557317 8.3087904,88.373362 8.15625,88.1875 8.0486711,88.057245 7.9378561,87.922215 7.84375,87.78125 7.818661,87.74287 7.805304,87.69538 7.78125,87.65625 7.716487,87.553218 7.6510225,87.451733 7.59375,87.34375 7.4927417,87.149044 7.3880752,86.928049 7.3125,86.71875 7.30454,86.69694 7.288911,86.6782 7.28125,86.65625 7.2494249,86.5643 7.2454455,86.469419 7.21875,86.375 7.1884177,86.268382 7.1483606,86.171969 7.125,86.0625 7.0521214,85.720988 7,85.364295 7,85 L 7,83 7,15 7,13 C 7,10.218152 9.2181517,8 12,8 l 2,0 68,0 2,0 c 2.781848,0 5,2.218152 5,5 l 0,2 0,68 0,2 c 0,0.364295 -0.05212,0.720988 -0.125,1.0625 -0.04415,0.206893 -0.08838,0.397658 -0.15625,0.59375 -0.0077,0.02195 -0.0233,0.04069 -0.03125,0.0625 -0.06274,0.173739 -0.138383,0.367449 -0.21875,0.53125 -0.04158,0.0828 -0.07904,0.169954 -0.125,0.25 -0.0546,0.09721 -0.126774,0.18835 -0.1875,0.28125 -0.09411,0.140965 -0.204921,0.275995 -0.3125,0.40625 -0.143174,0.17445 -0.303141,0.346998 -0.46875,0.5 -0.01117,0.0102 -0.01998,0.02115 -0.03125,0.03125 -0.138386,0.125556 -0.285091,0.234436 -0.4375,0.34375 -0.102571,0.07315 -0.204318,0.153364 -0.3125,0.21875 -0.0074,0.0045 -0.02384,-0.0044 -0.03125,0 -0.232039,0.138728 -0.462548,0.274778 -0.71875,0.375 0.301527,-0.0968 0.596455,-0.204138 0.875,-0.34375 0.55709,-0.279224 1.060053,-0.665694 1.5,-1.09375 0.219973,-0.214028 0.409366,-0.441865 0.59375,-0.6875 0.184384,-0.245635 0.355408,-0.507743 0.5,-0.78125 0.14012,-0.265048 0.276135,-0.524729 0.375,-0.8125 0.01041,-0.03078 0.02133,-0.06274 0.03125,-0.09375 0.09046,-0.278085 0.1388,-0.579404 0.1875,-0.875 C 89.95865,84.6507 90,84.334721 90,84 l 0,-2 0,-68 0,-2 C 90,8.676 87.324,6 84,6 L 12,6 z"
       inkscape:connector-curvature="0"
       id="rect3728"
       style="opacity:0.4;fill:url(#linearGradient3188);fill-opacity:1;fill-rule:nonzero;stroke:none" />
    <path
       d="M 12,90 C 8.676,90 6,87.324 6,84 L 6,82 6,14 6,12 c 0,-0.334721 0.04135,-0.6507 0.09375,-0.96875 0.0487,-0.295596 0.09704,-0.596915 0.1875,-0.875 C 6.29113,10.12587 6.302142,10.09265 6.3125,10.0625 6.411365,9.774729 6.5473802,9.515048 6.6875,9.25 6.8320918,8.976493 7.0031161,8.714385 7.1875,8.46875 7.3718839,8.223115 7.5612765,7.995278 7.78125,7.78125 8.221197,7.353194 8.72416,6.966724 9.28125,6.6875 9.559795,6.547888 9.8547231,6.440553 10.15625,6.34375 9.9000482,6.443972 9.6695391,6.580022 9.4375,6.71875 c -0.00741,0.0044 -0.023866,-0.0045 -0.03125,0 -0.031933,0.0193 -0.062293,0.04251 -0.09375,0.0625 -0.120395,0.0767 -0.2310226,0.163513 -0.34375,0.25 -0.1061728,0.0808 -0.2132809,0.161112 -0.3125,0.25 C 8.4783201,7.442683 8.3087904,7.626638 8.15625,7.8125 8.0486711,7.942755 7.9378561,8.077785 7.84375,8.21875 7.818661,8.25713 7.805304,8.30462 7.78125,8.34375 7.716487,8.446782 7.6510225,8.548267 7.59375,8.65625 7.4927417,8.850956 7.3880752,9.071951 7.3125,9.28125 7.30454,9.30306 7.288911,9.3218 7.28125,9.34375 7.2494249,9.4357 7.2454455,9.530581 7.21875,9.625 7.1884177,9.731618 7.1483606,9.828031 7.125,9.9375 7.0521214,10.279012 7,10.635705 7,11 l 0,2 0,68 0,2 c 0,2.781848 2.2181517,5 5,5 l 2,0 68,0 2,0 c 2.781848,0 5,-2.218152 5,-5 l 0,-2 0,-68 0,-2 C 89,10.635705 88.94788,10.279012 88.875,9.9375 88.83085,9.730607 88.78662,9.539842 88.71875,9.34375 88.71105,9.3218 88.69545,9.30306 88.6875,9.28125 88.62476,9.107511 88.549117,8.913801 88.46875,8.75 88.42717,8.6672 88.38971,8.580046 88.34375,8.5 88.28915,8.40279 88.216976,8.31165 88.15625,8.21875 88.06214,8.077785 87.951329,7.942755 87.84375,7.8125 87.700576,7.63805 87.540609,7.465502 87.375,7.3125 87.36383,7.3023 87.35502,7.29135 87.34375,7.28125 87.205364,7.155694 87.058659,7.046814 86.90625,6.9375 86.803679,6.86435 86.701932,6.784136 86.59375,6.71875 c -0.0074,-0.0045 -0.02384,0.0044 -0.03125,0 -0.232039,-0.138728 -0.462548,-0.274778 -0.71875,-0.375 0.301527,0.0968 0.596455,0.204138 0.875,0.34375 0.55709,0.279224 1.060053,0.665694 1.5,1.09375 0.219973,0.214028 0.409366,0.441865 0.59375,0.6875 0.184384,0.245635 0.355408,0.507743 0.5,0.78125 0.14012,0.265048 0.276135,0.524729 0.375,0.8125 0.01041,0.03078 0.02133,0.06274 0.03125,0.09375 0.09046,0.278085 0.1388,0.579404 0.1875,0.875 C 89.95865,11.3493 90,11.665279 90,12 l 0,2 0,68 0,2 c 0,3.324 -2.676,6 -6,6 l -72,0 z"
       inkscape:connector-curvature="0"
       id="path3615"
       style="opacity:0.2;fill:url(#radialGradient3619);fill-opacity:1;fill-rule:nonzero;stroke:none" />
  </g>
  <g
     id="layer7"
     style="opacity:0.9;display:inline">
    <g
       clip-path="url(#clipPath2973)"
       id="g3855"
       style="fill:#aaccff">
      <path
         d="M 48,48 72,-8 88,-8 48,48 z"
         inkscape:connector-curvature="0"
         id="path3819"
         style="opacity:0.15;fill:#aaccff;stroke:none" />
      <path
         d="M 48,48 103.25122,73.67688 102.769,89.669611 48,48 z"
         inkscape:connector-curvature="0"
         id="path3821"
         style="opacity:0.15;fill:#aaccff;stroke:none" />
      <path
         d="M 48,47.999999 -11.82794,59.515947 -20.796753,46.266027 48,47.999999 z"
         inkscape:connector-curvature="0"
         id="path3823"
         style="opacity:0.15;fill:#aaccff;stroke:none" />
      <path
         d="M 48,48 -1.3111997,12.217252 2.2248524,-3.3871168 48,48 z"
         inkscape:connector-curvature="0"
         id="path3825"
         style="opacity:0.15;fill:#aaccff;stroke:none" />
      <path
         d="M 48,48 65.519239,-14.073153 95.955194,-1.3588835 48,48 z"
         inkscape:connector-curvature="0"
         id="path3827"
         style="opacity:0.15;fill:#aaccff;stroke:none" />
      <path
         d="M 48,48 109.6356,28.998609 115.4895,61.459846 48,48 z"
         inkscape:connector-curvature="0"
         id="path3829"
         style="opacity:0.15;fill:#aaccff;stroke:none" />
      <path
         d="M 48,48 16.754067,104.42421 -9.9692451,85.088633 48,48 z"
         inkscape:connector-curvature="0"
         id="path3831"
         style="opacity:0.15;fill:#aaccff;stroke:none" />
      <path
         d="M 48,48 -14.811967,33.348835 -3.5083336,2.3612922 48,48 z"
         inkscape:connector-curvature="0"
         id="path3833"
         style="opacity:0.15;fill:#aaccff;stroke:none" />
      <path
         d="M 48,48 93.809637,93.403493 90.117903,102.42501 48,48 z"
         inkscape:connector-curvature="0"
         id="path3835"
         style="opacity:0.15;fill:#aaccff;stroke:none" />
      <path
         d="m 48,48 -2.970052,64.42964 -9.168463,3.30998 L 48,48 z"
         inkscape:connector-curvature="0"
         id="path3837"
         style="opacity:0.15;fill:#aaccff;stroke:none" />
      <path
         d="M 48,48 3.1405789,94.342551 -5.923902,90.757601 48,48 z"
         inkscape:connector-curvature="0"
         id="path3839"
         style="opacity:0.15;fill:#aaccff;stroke:none" />
      <path
         d="M 48,47.999999 -14.116138,65.366204 -20.132068,57.696441 48,47.999999 z"
         inkscape:connector-curvature="0"
         id="path3841"
         style="opacity:0.15;fill:#aaccff;stroke:none" />
      <path
         d="M 48.000001,47.999998 18.853372,-9.5367177 25.202646,-16.932892 48.000001,47.999998 z"
         inkscape:connector-curvature="0"
         id="path3843"
         style="opacity:0.15;fill:#aaccff;stroke:none" />
      <path
         d="m 48.000003,48.000001 59.481677,-24.938521 6.921,6.864135 -66.402677,18.074386 z"
         inkscape:connector-curvature="0"
         id="path3845"
         style="opacity:0.15;fill:#aaccff;stroke:none" />
      <path
         d="M 47.999999,47.999999 88.186743,93.793286 81.290444,108.23077 47.999999,47.999999 z"
         inkscape:connector-curvature="0"
         id="path3849"
         style="opacity:0.15;fill:#aaccff;stroke:none" />
      <path
         d="M 48.000001,48 12.042033,-1.1835747 20.194136,-14.95104 48.000001,48 z"
         inkscape:connector-curvature="0"
         id="path3851"
         style="opacity:0.15;fill:#aaccff;stroke:none" />
    </g>
    <rect
       width="84"
       height="84"
       rx="6"
       ry="6"
       x="6"
       y="6"
       id="rect3873"
       style="fill:url(#linearGradient3617);fill-opacity:1;fill-rule:nonzero;stroke:none;display:none" />
    <rect
       width="84"
       height="84"
       rx="6"
       ry="6"
       x="6"
       y="6"
       id="rect3880"
       style="fill:url(#linearGradient3878);fill-opacity:1;fill-rule:nonzero;stroke:none;display:none" />
  </g>
  <g
     id="layer5"
     style="display:inline">
    <rect
       width="66"
       height="66"
       rx="12"
       ry="12"
       x="15"
       y="15"
       clip-path="url(#clipPath3613)"
       id="rect3171"
       style="opacity:0.1;fill:url(#linearGradient3613);fill-opacity:1;fill-rule:nonzero;stroke:#ffffff;stroke-width:0.5;stroke-linecap:round;stroke-linejoin:miter;stroke-miterlimit:4;stroke-opacity:1;stroke-dasharray:none;stroke-dashoffset:0;filter:url(#filter3794)" />
  </g>
  <g
     id="layer6"
     style="display:none">
    <path
       d="m 44.202778,21.500099 c -1.082262,0 -1.958577,0.897784 -1.958577,1.998539 l 0,3.877166 c -1.935147,0.515597 -3.784186,1.294397 -5.475994,2.278335 l -2.757989,-2.757984 c -0.389179,-0.389176 -0.855369,-0.595295 -1.359003,-0.599563 -0.503633,-0.0043 -1.016343,0.176957 -1.398974,0.559591 l -5.396062,5.396057 c -0.765262,0.76527 -0.738376,1.979633 0.03989,2.757985 l 2.757989,2.757984 c -0.983934,1.691803 -1.76273,3.540846 -2.27834,5.475997 l -3.877162,0 c -1.100753,0 -1.998541,0.876313 -1.998541,1.958569 l 0,7.59445 c 0,1.082256 0.897788,1.958569 1.998541,1.958569 l 3.877162,0 c 0.51561,1.935152 1.294406,3.784195 2.27834,5.475998 l -2.757989,2.757984 c -0.778348,0.77835 -0.805234,1.992713 -0.03989,2.757984 l 5.396062,5.396057 c 0.765262,0.76527 1.979629,0.738377 2.757977,-0.03997 l 2.757989,-2.757984 c 1.691808,0.983939 3.540847,1.762736 5.475994,2.278334 l 0,3.877167 c 0,1.100754 0.876315,1.99854 1.958577,1.99854 l 7.594448,0 c 1.082252,0 1.958566,-0.897786 1.958566,-1.99854 l 0,-3.877167 c 1.935147,-0.515598 3.784186,-1.294395 5.475995,-2.278334 l 2.757988,2.757984 c 0.778348,0.77835 1.992715,0.805242 2.757988,0.03997 l 5.396051,-5.396057 c 0.765263,-0.76527 0.738377,-1.979634 -0.03989,-2.757984 l -2.757977,-2.757984 c 0.983933,-1.691803 1.762729,-3.540846 2.278328,-5.475998 l 3.877173,0 c 1.100744,0 1.998538,-0.876312 1.998538,-1.958569 l 0,-7.59445 c 0,-1.082255 -0.897794,-1.958569 -1.998538,-1.958569 l -3.877173,0 C 69.10868,41.309055 68.329884,39.460012 67.345951,37.768209 l 2.757977,-2.757984 c 0.778348,-0.778351 0.805245,-1.992715 0.03989,-2.757985 l -5.396051,-5.396057 c -0.765273,-0.76527 -1.97964,-0.738379 -2.757988,0.03997 l -2.757988,2.757984 c -1.691809,-0.983938 -3.540848,-1.762738 -5.475995,-2.278335 l 0,-3.877166 c 0,-1.100755 -0.876314,-1.998539 -1.958566,-1.998539 l -7.594448,0 z m 3.797219,19.185977 c 4.589292,0 8.313926,3.724638 8.313926,8.313924 0,4.589287 -3.724634,8.313924 -8.313926,8.313924 -4.589282,0 -8.313926,-3.724637 -8.313926,-8.313924 0,-4.589286 3.724644,-8.313924 8.313926,-8.313924 z"
       inkscape:connector-curvature="0"
       id="path3808"
       style="fill:#000000;fill-opacity:1;fill-rule:nonzero;stroke:none;stroke-width:1;marker:none;visibility:visible;display:block;overflow:visible;filter:url(#filter3814);enable-background:accumulate" />
    <path
       d="m 44.202778,20.500099 c -1.082262,0 -1.958577,0.897784 -1.958577,1.998539 l 0,3.877166 c -1.935147,0.515597 -3.784186,1.294397 -5.475994,2.278335 l -2.757989,-2.757984 c -0.389179,-0.389176 -0.855369,-0.595295 -1.359003,-0.599563 -0.503633,-0.0043 -1.016343,0.176957 -1.398974,0.559591 l -5.396062,5.396057 c -0.765262,0.76527 -0.738376,1.979633 0.03989,2.757985 l 2.757989,2.757984 c -0.983934,1.691803 -1.76273,3.540846 -2.27834,5.475997 l -3.877162,0 c -1.100753,0 -1.998541,0.876313 -1.998541,1.958569 l 0,7.59445 c 0,1.082256 0.897788,1.958569 1.998541,1.958569 l 3.877162,0 c 0.51561,1.935152 1.294406,3.784195 2.27834,5.475998 l -2.757989,2.757984 c -0.778348,0.77835 -0.805234,1.992713 -0.03989,2.757984 l 5.396062,5.396057 c 0.765262,0.76527 1.979629,0.738377 2.757977,-0.03997 l 2.757989,-2.757984 c 1.691808,0.983939 3.540847,1.762736 5.475994,2.278334 l 0,3.877167 c 0,1.100754 0.876315,1.99854 1.958577,1.99854 l 7.594448,0 c 1.082252,0 1.958566,-0.897786 1.958566,-1.99854 l 0,-3.877167 c 1.935147,-0.515598 3.784186,-1.294395 5.475995,-2.278334 l 2.757988,2.757984 c 0.778348,0.77835 1.992715,0.805242 2.757988,0.03997 l 5.396051,-5.396057 c 0.765263,-0.76527 0.738377,-1.979634 -0.03989,-2.757984 l -2.757977,-2.757984 c 0.983933,-1.691803 1.762729,-3.540846 2.278328,-5.475998 l 3.877173,0 c 1.100744,0 1.998538,-0.876312 1.998538,-1.958569 l 0,-7.59445 c 0,-1.082255 -0.897794,-1.958569 -1.998538,-1.958569 l -3.877173,0 C 69.10868,40.309055 68.329884,38.460012 67.345951,36.768209 l 2.757977,-2.757984 c 0.778348,-0.778351 0.805245,-1.992715 0.03989,-2.757985 l -5.396051,-5.396057 c -0.765273,-0.76527 -1.97964,-0.738379 -2.757988,0.03997 l -2.757988,2.757984 c -1.691809,-0.983938 -3.540848,-1.762738 -5.475995,-2.278335 l 0,-3.877166 c 0,-1.100755 -0.876314,-1.998539 -1.958566,-1.998539 l -7.594448,0 z m 3.797219,19.185977 c 4.589292,0 8.313926,3.724638 8.313926,8.313924 0,4.589287 -3.724634,8.313924 -8.313926,8.313924 -4.589282,0 -8.313926,-3.724637 -8.313926,-8.313924 0,-4.589286 3.724644,-8.313924 8.313926,-8.313924 z"
       inkscape:connector-curvature="0"
       id="rect3267"
       style="fill:url(#linearGradient3804);fill-opacity:1;fill-rule:nonzero;stroke:url(#linearGradient3806);stroke-width:1;stroke-linecap:butt;stroke-linejoin:round;stroke-miterlimit:4;stroke-opacity:1;stroke-dasharray:none;stroke-dashoffset:0;marker:none;visibility:visible;display:block;overflow:visible;enable-background:accumulate" />
    <path
       d="m 47.999997,30.732619 c -9.521233,0 -17.267377,7.746146 -17.267377,17.267381 0,9.521234 7.746144,17.267381 17.267377,17.267381 9.521233,0 17.267387,-7.746147 17.267387,-17.267381 0,-9.521235 -7.746154,-17.267381 -17.267387,-17.267381 z"
       inkscape:connector-curvature="0"
       id="path28"
       style="fill:none;stroke:url(#linearGradient3801);stroke-width:2;stroke-miterlimit:4;stroke-dasharray:none" />
    <path
       d="m 47.999997,31.372152 c -9.168751,0 -16.627852,7.459099 -16.627852,16.627848 0,9.168749 7.459101,16.627848 16.627852,16.627848 9.168751,-2e-6 16.627852,-7.459099 16.627852,-16.627848 0,-9.168749 -7.459101,-16.627848 -16.627852,-16.627848 z m 0,7.674391 c 4.942307,0 8.953461,4.011149 8.953461,8.953457 0,4.942308 -4.011154,8.953457 -8.953461,8.953457 -4.942307,0 -8.953461,-4.011149 -8.953461,-8.953457 0,-4.942308 4.011154,-8.953457 8.953461,-8.953457 z"
       inkscape:connector-curvature="0"
       id="path3315"
       style="opacity:0.05;fill:#000000;fill-opacity:1;stroke:none" />
  </g>
  <g
     transform="translate(0,-1)"
     style="display:inline"
     id="layer6-4">
    <path
       inkscape:connector-curvature="0"
       d="M 34.1875,18 C 31.155937,18 28.75,20.541726 28.75,23.5 l 0,1.5 c -0.403751,0.156549 -0.791242,0.354239 -1.1875,0.53125 L 26.46875,24.4375 c -0.885004,-0.884998 -2.211631,-1.642684 -3.8125,-1.65625 -1.39814,-0.01194 -2.80684,0.525583 -3.875,1.59375 L 13.375,29.78125 c -2.147809,2.147834 -2.004295,5.620477 0.0625,7.6875 l 1.09375,1.09375 C 14.35424,38.958758 14.156549,39.346249 14,39.75 l -1.5,0 C 9.5417238,39.75 7,42.155939 7,45.1875 l 0,7.625 c 0,3.031561 2.5417238,5.4375 5.5,5.4375 l 1.5,0 c 0.156549,0.403751 0.35424,0.791242 0.53125,1.1875 l -1.09375,1.09375 c -2.06699,2.066995 -2.210497,5.539709 -0.0625,7.6875 l 5.40625,5.40625 c 2.147761,2.147783 5.620442,2.004555 7.6875,-0.0625 L 27.5625,72.46875 C 27.958758,72.645761 28.346249,72.843451 28.75,73 l 0,1.5 c 0,2.958274 2.405937,5.5 5.4375,5.5 l 7.625,0 c 3.031557,0 5.4375,-2.54172 5.4375,-5.5 l 0,-1.5 c 0.403751,-0.156549 0.791242,-0.354239 1.1875,-0.53125 l 1.09375,1.09375 c 2.067061,2.067067 5.539739,2.21026 7.6875,0.0625 L 62.625,68.21875 c 2.147812,-2.147833 2.004301,-5.620478 -0.0625,-7.6875 L 61.46875,59.4375 C 61.64576,59.041242 61.843451,58.653751 62,58.25 l 1.5,0 c 2.95827,0 5.5,-2.405934 5.5,-5.4375 l 0,-7.625 C 69,42.155935 66.458271,39.75 63.5,39.75 l -1.5,0 c -0.156549,-0.403751 -0.35424,-0.791242 -0.53125,-1.1875 l 1.09375,-1.09375 c 2.066975,-2.066985 2.210534,-5.539704 0.0625,-7.6875 L 57.21875,24.375 c -2.147762,-2.147752 -5.620438,-2.004563 -7.6875,0.0625 L 48.4375,25.53125 C 48.041242,25.354239 47.653751,25.156549 47.25,25 l 0,-1.5 c 0,-2.958281 -2.405944,-5.5 -5.4375,-5.5 l -7.625,0 z M 38,44.1875 c 2.717087,0 4.8125,2.095418 4.8125,4.8125 0,2.717083 -2.095412,4.8125 -4.8125,4.8125 -2.71707,0 -4.8125,-2.095425 -4.8125,-4.8125 0,-2.717073 2.09543,-4.8125 4.8125,-4.8125 z"
       transform="translate(10,0)"
       id="path3706"
       style="opacity:0.05;fill:#000000;fill-opacity:1;stroke:none;stroke-width:1;marker:none;visibility:visible;display:block;overflow:visible;enable-background:accumulate" />
    <path
       inkscape:connector-curvature="0"
       d="m 34.1875,19.03125 c -2.46546,0 -4.40625,2.056511 -4.40625,4.46875 l 0,2.1875 c -0.84674,0.306174 -1.673035,0.642503 -2.46875,1.03125 L 25.75,25.15625 C 25.020737,24.426992 23.943816,23.823411 22.65625,23.8125 21.515781,23.802763 20.367737,24.226007 19.5,25.09375 L 14.09375,30.5 c -1.741142,1.741162 -1.618168,4.569147 0.0625,6.25 l 1.5625,1.5625 c -0.388746,0.795715 -0.725075,1.622011 -1.03125,2.46875 l -2.1875,0 c -2.412241,0 -4.46875,1.940792 -4.46875,4.40625 l 0,7.625 c 0,2.465458 2.056509,4.40625 4.46875,4.40625 l 2.1875,0 c 0.306175,0.846739 0.642504,1.673035 1.03125,2.46875 l -1.5625,1.5625 c -1.680826,1.68083 -1.803795,4.508872 -0.0625,6.25 L 19.5,72.90625 c 1.741108,1.741126 4.569123,1.618374 6.25,-0.0625 l 1.5625,-1.5625 c 0.795715,0.388747 1.62201,0.725076 2.46875,1.03125 l 0,2.1875 c 0,2.412239 1.94079,4.46875 4.40625,4.46875 l 7.625,0 c 2.465454,0 4.40625,-2.056505 4.40625,-4.46875 l 0,-2.1875 c 0.84674,-0.306174 1.673035,-0.642503 2.46875,-1.03125 l 1.5625,1.5625 c 1.680877,1.680882 4.50889,1.803609 6.25,0.0625 L 61.90625,67.5 c 1.741144,-1.741161 1.618172,-4.569148 -0.0625,-6.25 l -1.5625,-1.5625 c 0.388746,-0.795714 0.725075,-1.622009 1.03125,-2.46875 l 2.1875,0 c 2.412235,0 4.46875,-1.940787 4.46875,-4.40625 l 0,-7.625 c 0,-2.465462 -2.056514,-4.40625 -4.46875,-4.40625 l -2.1875,0 C 61.006325,39.934509 60.669996,39.108214 60.28125,38.3125 l 1.5625,-1.5625 c 1.680815,-1.680823 1.803824,-4.508869 0.0625,-6.25 L 56.5,25.09375 c -1.741111,-1.741103 -4.569122,-1.618379 -6.25,0.0625 l -1.5625,1.5625 C 47.891785,26.330003 47.06549,25.993674 46.21875,25.6875 l 0,-2.1875 c 0,-2.412245 -1.940797,-4.46875 -4.40625,-4.46875 l -7.625,0 z M 38,43.15625 c 3.256346,0 5.84375,2.58741 5.84375,5.84375 0,3.256341 -2.587404,5.84375 -5.84375,5.84375 -3.256332,0 -5.84375,-2.587413 -5.84375,-5.84375 0,-3.256335 2.587418,-5.84375 5.84375,-5.84375 z"
       transform="translate(10,0)"
       id="path3702"
       style="opacity:0.07999998;fill:#000000;fill-opacity:1;stroke:none;stroke-width:1;marker:none;visibility:visible;display:block;overflow:visible;enable-background:accumulate" />
    <path
       inkscape:connector-curvature="0"
       d="m 34.1875,20.03125 c -1.897504,0 -3.40625,1.6003 -3.40625,3.46875 l 0,2.875 c -1.282775,0.419081 -2.520102,0.94925 -3.6875,1.5625 l -2.0625,-2.0625 c -0.583419,-0.583415 -1.411714,-1.054337 -2.375,-1.0625 -0.876482,-0.0075 -1.766047,0.328542 -2.4375,1 l -5.40625,5.40625 c -1.335661,1.335676 -1.237573,3.512284 0.0625,4.8125 l 2.0625,2.0625 c -0.613248,1.167398 -1.143416,2.404727 -1.5625,3.6875 l -2.875,0 c -1.868452,0 -3.46875,1.508748 -3.46875,3.40625 l 0,7.625 c 0,1.897502 1.600298,3.40625 3.46875,3.40625 l 2.875,0 c 0.419084,1.282773 0.949252,2.520102 1.5625,3.6875 l -2.0625,2.0625 c -1.300195,1.300198 -1.39828,3.476848 -0.0625,4.8125 l 5.40625,5.40625 c 1.33564,1.335654 3.512272,1.237726 4.8125,-0.0625 l 2.0625,-2.0625 c 1.167399,0.613251 2.404725,1.143419 3.6875,1.5625 l 0,2.875 c 0,1.86845 1.508745,3.46875 3.40625,3.46875 l 7.625,0 c 1.897498,0 3.40625,-1.600295 3.40625,-3.46875 l 0,-2.875 c 1.282775,-0.419081 2.520101,-0.949249 3.6875,-1.5625 l 2.0625,2.0625 c 1.300226,1.30023 3.476856,1.398143 4.8125,0.0625 l 5.40625,-5.40625 c 1.335663,-1.335676 1.237576,-3.512285 -0.0625,-4.8125 l -2.0625,-2.0625 c 0.613249,-1.167396 1.143418,-2.404723 1.5625,-3.6875 l 2.875,0 c 1.868446,0 3.46875,-1.508743 3.46875,-3.40625 l 0,-7.625 c 0,-1.897506 -1.600303,-3.40625 -3.46875,-3.40625 l -2.875,0 c -0.419082,-1.282778 -0.949251,-2.520104 -1.5625,-3.6875 l 2.0625,-2.0625 c 1.300188,-1.300194 1.398301,-3.476847 0.0625,-4.8125 L 55.78125,25.8125 c -1.335645,-1.335639 -3.512273,-1.237728 -4.8125,0.0625 l -2.0625,2.0625 c -1.167399,-0.61325 -2.404725,-1.143419 -3.6875,-1.5625 l 0,-2.875 c 0,-1.868456 -1.508752,-3.46875 -3.40625,-3.46875 l -7.625,0 z M 38,42.15625 c 3.796786,0 6.84375,3.04697 6.84375,6.84375 0,3.796781 -3.046964,6.84375 -6.84375,6.84375 -3.796774,0 -6.84375,-3.046971 -6.84375,-6.84375 0,-3.796778 3.046976,-6.84375 6.84375,-6.84375 z"
       transform="translate(10,0)"
       id="path3698"
       style="opacity:0.2;fill:#000000;fill-opacity:1;stroke:none;stroke-width:1;marker:none;visibility:visible;display:block;overflow:visible;enable-background:accumulate" />
    <path
       inkscape:connector-curvature="0"
       d="M 34.1875,21 C 32.825461,21 31.75,22.13763 31.75,23.5 l 0,3.5 c -1.717872,0.490944 -3.349062,1.207555 -4.875,2.0625 l -2.53125,-2.5 c -0.456286,-0.456283 -1.031625,-0.775692 -1.6875,-0.78125 -0.629717,-0.0054 -1.262886,0.231632 -1.75,0.71875 L 15.5,31.90625 c -0.960628,0.960639 -0.892699,2.482196 0.0625,3.4375 l 2.5,2.53125 C 17.207558,39.400935 16.490953,41.032127 16,42.75 l -3.5,0 c -1.36237,0 -2.5,1.075465 -2.5,2.4375 l 0,7.625 c 0,1.362035 1.13763,2.4375 2.5,2.4375 l 3.5,0 c 0.490953,1.717873 1.207558,3.349065 2.0625,4.875 l -2.5,2.53125 c -0.955292,0.955294 -1.02322,2.476872 -0.0625,3.4375 L 20.90625,71.5 c 0.960621,0.960631 2.482195,0.892804 3.4375,-0.0625 l 2.53125,-2.5 c 1.525938,0.854946 3.157128,1.571555 4.875,2.0625 l 0,3.5 c 0,1.362369 1.075461,2.5 2.4375,2.5 l 7.625,0 c 1.362031,0 2.4375,-1.137628 2.4375,-2.5 l 0,-3.5 c 1.717872,-0.490945 3.349061,-1.207554 4.875,-2.0625 l 2.53125,2.5 c 0.955303,0.955306 2.476872,1.023127 3.4375,0.0625 L 60.5,66.09375 c 0.96063,-0.960639 0.892701,-2.482197 -0.0625,-3.4375 l -2.5,-2.53125 C 58.792442,58.599066 59.509054,56.967876 60,55.25 l 3.5,0 c 1.362363,0 2.5,-1.075462 2.5,-2.4375 l 0,-7.625 C 66,43.825463 64.862363,42.75 63.5,42.75 l -3.5,0 c -0.490944,-1.717876 -1.207558,-3.349066 -2.0625,-4.875 l 2.5,-2.53125 c 0.955289,-0.955293 1.023234,-2.476872 0.0625,-3.4375 L 55.09375,26.5 c -0.960629,-0.960625 -2.482196,-0.892805 -3.4375,0.0625 l -2.53125,2.5 C 47.599061,28.207555 45.967872,27.490944 44.25,27 l 0,-3.5 c 0,-1.362373 -1.075469,-2.5 -2.4375,-2.5 l -7.625,0 z M 38,41.1875 c 4.316119,0 7.8125,3.496387 7.8125,7.8125 0,4.316114 -3.496381,7.8125 -7.8125,7.8125 -4.316108,0 -7.8125,-3.496387 -7.8125,-7.8125 0,-4.316112 3.496392,-7.8125 7.8125,-7.8125 z"
       transform="translate(10,0)"
       id="path3694"
       style="opacity:0.3;fill:#000000;fill-opacity:1;stroke:none;stroke-width:1;marker:none;visibility:visible;display:block;overflow:visible;enable-background:accumulate" />
    <path
       inkscape:connector-curvature="0"
       d="m 44.202778,20.500099 c -1.082262,0 -1.958577,0.897784 -1.958577,1.998539 l 0,3.877166 c -1.935147,0.515597 -3.784186,1.294397 -5.475994,2.278335 l -2.757989,-2.757984 c -0.389179,-0.389176 -0.855369,-0.595295 -1.359003,-0.599563 -0.503633,-0.0043 -1.016343,0.176957 -1.398974,0.559591 l -5.396062,5.396057 c -0.765262,0.76527 -0.738376,1.979633 0.03989,2.757985 l 2.757989,2.757984 c -0.983934,1.691803 -1.76273,3.540846 -2.27834,5.475997 l -3.877162,0 c -1.100753,0 -1.998541,0.876313 -1.998541,1.958569 l 0,7.59445 c 0,1.082256 0.897788,1.958569 1.998541,1.958569 l 3.877162,0 c 0.51561,1.935152 1.294406,3.784195 2.27834,5.475998 l -2.757989,2.757984 c -0.778348,0.77835 -0.805234,1.992713 -0.03989,2.757984 l 5.396062,5.396057 c 0.765262,0.76527 1.979629,0.738377 2.757977,-0.03997 l 2.757989,-2.757984 c 1.691808,0.983939 3.540847,1.762736 5.475994,2.278334 l 0,3.877167 c 0,1.100754 0.876315,1.99854 1.958577,1.99854 l 7.594448,0 c 1.082252,0 1.958566,-0.897786 1.958566,-1.99854 l 0,-3.877167 c 1.935147,-0.515598 3.784186,-1.294395 5.475995,-2.278334 l 2.757988,2.757984 c 0.778348,0.77835 1.992715,0.805242 2.757988,0.03997 l 5.396051,-5.396057 c 0.765263,-0.76527 0.738377,-1.979634 -0.03989,-2.757984 l -2.757977,-2.757984 c 0.983933,-1.691803 1.762729,-3.540846 2.278328,-5.475998 l 3.877173,0 c 1.100744,0 1.998538,-0.876312 1.998538,-1.958569 l 0,-7.59445 c 0,-1.082255 -0.897794,-1.958569 -1.998538,-1.958569 l -3.877173,0 C 69.10868,40.309055 68.329884,38.460012 67.345951,36.768209 l 2.757977,-2.757984 c 0.778348,-0.778351 0.805245,-1.992715 0.03989,-2.757985 l -5.396051,-5.396057 c -0.765273,-0.76527 -1.97964,-0.738379 -2.757988,0.03997 l -2.757988,2.757984 c -1.691809,-0.983938 -3.540848,-1.762738 -5.475995,-2.278335 l 0,-3.877166 c 0,-1.100755 -0.876314,-1.998539 -1.958566,-1.998539 l -7.594448,0 z m 3.797219,19.185977 c 4.589292,0 8.313926,3.724638 8.313926,8.313924 0,4.589287 -3.724634,8.313924 -8.313926,8.313924 -4.589282,0 -8.313926,-3.724637 -8.313926,-8.313924 0,-4.589286 3.724644,-8.313924 8.313926,-8.313924 z"
       id="rect3267-3"
       style="fill:url(#linearGradient3804-5);fill-opacity:1;fill-rule:nonzero;stroke:url(#linearGradient3806-7);stroke-width:1;stroke-linecap:butt;stroke-linejoin:round;stroke-miterlimit:4;stroke-opacity:1;stroke-dasharray:none;stroke-dashoffset:0;marker:none;visibility:visible;display:block;overflow:visible;enable-background:accumulate" />
    <path
       inkscape:connector-curvature="0"
       d="m 47.999997,30.732619 c -9.521233,0 -17.267377,7.746146 -17.267377,17.267381 0,9.521234 7.746144,17.267381 17.267377,17.267381 9.521233,0 17.267387,-7.746147 17.267387,-17.267381 0,-9.521235 -7.746154,-17.267381 -17.267387,-17.267381 z"
       id="path28-0"
       style="fill:none;stroke:url(#linearGradient3801-5);stroke-width:2;stroke-miterlimit:4;stroke-dasharray:none" />
    <path
       inkscape:connector-curvature="0"
       d="m 47.999997,31.372152 c -9.168751,0 -16.627852,7.459099 -16.627852,16.627848 0,9.168749 7.459101,16.627848 16.627852,16.627848 9.168751,-2e-6 16.627852,-7.459099 16.627852,-16.627848 0,-9.168749 -7.459101,-16.627848 -16.627852,-16.627848 z m 0,7.674391 c 4.942307,0 8.953461,4.011149 8.953461,8.953457 0,4.942308 -4.011154,8.953457 -8.953461,8.953457 -4.942307,0 -8.953461,-4.011149 -8.953461,-8.953457 0,-4.942308 4.011154,-8.953457 8.953461,-8.953457 z"
       id="path3315-7"
       style="opacity:0.05;fill:#000000;fill-opacity:1;stroke:none" />
  </g>
</svg>
