<?xml version="1.0" encoding="UTF-8" standalone="no"?>
<svg xmlns="http://www.w3.org/2000/svg" height="96" width="96" version="1.1" xmlns:xlink="http://www.w3.org/1999/xlink">
 <defs>
  <linearGradient id="c">
   <stop stop-color="#ad432d" offset="0"/>
   <stop stop-color="#ce5b43" offset="1"/>
  </linearGradient>
  <linearGradient id="b">
   <stop stop-color="#a2351c" offset="0"/>
   <stop stop-color="#c14929" offset="1"/>
  </linearGradient>
  <linearGradient id="a">
   <stop stop-color="#b01e1e" offset="0"/>
   <stop stop-color="#bc3d29" offset="1"/>
  </linearGradient>
  <linearGradient id="at" stop-color="#fff">
   <stop offset="0"/>
   <stop stop-opacity="0" offset="1"/>
  </linearGradient>
  <filter id="bn" height="1.384" width="1.384" color-interpolation-filters="sRGB" y="-.192" x="-.192">
   <feGaussianBlur stdDeviation="5.28"/>
  </filter>
  <linearGradient id="bl" y2="138.66" xlink:href="#at" gradientUnits="userSpaceOnUse" x2="48" y1="20.221" x1="48"/>
  <clipPath id="bp">
   <rect rx="6" ry="6" height="84" width="84" y="6" x="6" fill="#fff"/>
  </clipPath>
  <linearGradient id="au" y2="7.0165" gradientUnits="userSpaceOnUse" x2="45.448" gradientTransform="matrix(1.0059 0 0 .99417 100 0)" y1="92.54" x1="45.448">
   <stop offset="0"/>
   <stop stop-opacity=".58824" offset="1"/>
  </linearGradient>
  <clipPath id="bo">
   <rect transform="matrix(0,-1,-1,0,0,0)" rx="6" ry="6" height="84" width="84" y="-90" x="-90" fill="#f0f"/>
  </clipPath>
  <linearGradient id="bq" y2="63.893" xlink:href="#at" gradientUnits="userSpaceOnUse" x2="36.357" y1="6" x1="36.357"/>
  <linearGradient id="br" y2="41.783" xlink:href="#a" gradientUnits="userSpaceOnUse" x2="55.353" y1="54.752" x1="61.471"/>
  <linearGradient id="bs" y2="28.106" xlink:href="#b" gradientUnits="userSpaceOnUse" x2="42.061" y1="39.743" x1="48.135"/>
  <linearGradient id="bt" y2="14.147" xlink:href="#b" gradientUnits="userSpaceOnUse" x2="54.165" y1="25.929" x1="59.431"/>
  <linearGradient id="bu" y2="13.792" xlink:href="#c" gradientUnits="userSpaceOnUse" x2="30.545" y1="26.196" x1="33.868"/>
  <linearGradient id="bv" y2="-.083031" xlink:href="#c" gradientUnits="userSpaceOnUse" x2="38.572" y1="11.929" x1="45.507"/>
  <linearGradient id="bw" y2="6" xlink:href="#au" gradientUnits="userSpaceOnUse" x2="32.251" gradientTransform="translate(0,1)" y1="90" x1="32.251"/>
  <linearGradient id="bx" y2="5.9996" xlink:href="#au" gradientUnits="userSpaceOnUse" x2="32.251" gradientTransform="matrix(1.0238 0 0 1.0119 -1.1429 .929)" y1="90" x1="32.251"/>
  <linearGradient id="by" y2="90.239" xlink:href="#au" gradientUnits="userSpaceOnUse" x2="32.251" gradientTransform="matrix(1.0238,0,0,-1.0119,-1.1429,98.071)" y1="6.1317" x1="32.251"/>
  <linearGradient id="bz" y2="48" gradientUnits="userSpaceOnUse" x2="90" gradientTransform="translate(-96,-96)" y1="48" x1="6">
   <stop stop-color="#bfb179" offset="0"/>
   <stop stop-color="#d4c588" offset="1"/>
  </linearGradient>
  <linearGradient id="ca" y2="-48" gradientUnits="userSpaceOnUse" x2="-47.358" y1="-48" x1="-90">
   <stop offset="0"/>
   <stop stop-opacity="0" offset="1"/>
  </linearGradient>
  <radialGradient id="bm" xlink:href="#at" gradientUnits="userSpaceOnUse" cy="90.172" cx="48" gradientTransform="matrix(1.1573 0 0 .99591 -7.551 .19713)" r="42"/>
  <linearGradient id="cb" y2="48" gradientUnits="userSpaceOnUse" x2="90" gradientTransform="translate(-96,-206)" y1="48" x1="6">
   <stop stop-color="#bfb179" offset="0"/>
   <stop stop-color="#d4c588" offset="1"/>
  </linearGradient>
  <linearGradient id="cc" y2="14.147" xlink:href="#b" gradientUnits="userSpaceOnUse" x2="54.165" gradientTransform="translate(-98,70)" y1="25.929" x1="59.431"/>
  <linearGradient id="cd" y2="14.147" xlink:href="#b" gradientUnits="userSpaceOnUse" x2="54.165" gradientTransform="translate(-150,14)" y1="25.929" x1="59.431"/>
  <linearGradient id="ce" y2="28.106" xlink:href="#b" gradientUnits="userSpaceOnUse" x2="42.061" gradientTransform="translate(-110,28)" y1="39.743" x1="48.135"/>
  <linearGradient id="cf" y2="14.147" xlink:href="#b" gradientUnits="userSpaceOnUse" x2="54.165" gradientTransform="translate(-14,42)" y1="25.929" x1="59.431"/>
  <linearGradient id="cg" y2="14.147" xlink:href="#b" gradientUnits="userSpaceOnUse" x2="54.165" gradientTransform="translate(-52,56)" y1="25.929" x1="59.431"/>
  <linearGradient id="ch" y2="28.106" xlink:href="#b" gradientUnits="userSpaceOnUse" x2="42.061" gradientTransform="translate(-46,14)" y1="39.743" x1="48.135"/>
  <linearGradient id="ci" y2="14.147" xlink:href="#b" gradientUnits="userSpaceOnUse" x2="54.165" gradientTransform="translate(-60)" y1="25.929" x1="59.431"/>
  <linearGradient id="av" y2="28.106" xlink:href="#b" gradientUnits="userSpaceOnUse" x2="42.061" gradientTransform="translate(-110,-28)" y1="39.743" x1="48.135"/>
  <linearGradient id="aw" y2="41.783" xlink:href="#a" gradientUnits="userSpaceOnUse" x2="55.353" gradientTransform="translate(26,28)" y1="54.752" x1="61.471"/>
  <linearGradient id="ax" y2="41.82" xlink:href="#a" gradientUnits="userSpaceOnUse" x2="29.697" gradientTransform="translate(38,42)" y1="54.081" x1="36.776"/>
  <linearGradient id="ay" y2="41.82" xlink:href="#a" gradientUnits="userSpaceOnUse" x2="29.697" gradientTransform="translate(-14,42)" y1="54.081" x1="36.776"/>
  <linearGradient id="az" y2="41.783" xlink:href="#a" gradientUnits="userSpaceOnUse" x2="55.353" gradientTransform="translate(-40,14)" y1="54.752" x1="61.471"/>
  <linearGradient id="ba" y2="41.82" xlink:href="#a" gradientUnits="userSpaceOnUse" x2="29.697" gradientTransform="translate(-60,28)" y1="54.081" x1="36.776"/>
  <linearGradient id="bb" y2="41.82" xlink:href="#a" gradientUnits="userSpaceOnUse" x2="29.697" gradientTransform="translate(-14,-42)" y1="54.081" x1="36.776"/>
  <linearGradient id="bc" y2="41.82" xlink:href="#a" gradientUnits="userSpaceOnUse" x2="29.697" gradientTransform="translate(-124,-42)" y1="54.081" x1="36.776"/>
  <linearGradient id="bd" y2="41.783" xlink:href="#a" gradientUnits="userSpaceOnUse" x2="55.353" gradientTransform="translate(-138,-28)" y1="54.752" x1="61.471"/>
  <linearGradient id="be" y2="41.783" xlink:href="#a" gradientUnits="userSpaceOnUse" x2="55.353" gradientTransform="translate(-72,-14)" y1="54.752" x1="61.471"/>
  <linearGradient id="bf" y2="41.82" xlink:href="#a" gradientUnits="userSpaceOnUse" x2="29.697" gradientTransform="translate(38,-14)" y1="54.081" x1="36.776"/>
  <linearGradient id="bg" y2="41.82" xlink:href="#a" gradientUnits="userSpaceOnUse" x2="29.697" y1="54.081" x1="36.776"/>
  <linearGradient id="bh" y2="41.82" xlink:href="#a" gradientUnits="userSpaceOnUse" x2="29.697" gradientTransform="translate(-124,14)" y1="54.081" x1="36.776"/>
  <linearGradient id="bi" y2="-.083031" xlink:href="#c" gradientUnits="userSpaceOnUse" x2="38.572" gradientTransform="translate(52,84)" y1="11.929" x1="45.507"/>
  <linearGradient id="bj" y2="13.792" xlink:href="#c" gradientUnits="userSpaceOnUse" x2="30.545" gradientTransform="translate(-86,56)" y1="26.196" x1="33.868"/>
  <linearGradient id="bk" y2="-.083031" xlink:href="#c" gradientUnits="userSpaceOnUse" x2="38.572" gradientTransform="translate(40,42)" y1="11.929" x1="45.507"/>
 </defs>
 <g fill="url(#by)">
  <path opacity="0.08" d="m12 95.031c-5.5111 0-10.031-4.52-10.031-10.031v-71c0-5.5111 4.5202-10.031 10.031-10.031h72c5.5111 0 10.031 4.5202 10.031 10.031v71c0 5.5111-4.5202 10.031-10.031 10.031h-72z"/>
  <path opacity=".1" d="m12 94.031c-4.9716 0-9.0312-4.0596-9.0312-9.0312v-71c0-4.972 4.0596-9.0316 9.0312-9.0316h72c4.9716 0 9.0312 4.0596 9.0312 9.0312v71c0 4.9716-4.0596 9.0312-9.0312 9.0312h-72z"/>
  <path opacity=".2" d="m12 93c-4.4091 0-8-3.591-8-8v-71c0-4.4091 3.5909-8 8-8h72c4.4091 0 8 3.5909 8 8v71c0 4.4091-3.5909 8-8 8h-72z"/>
 </g>
 <rect opacity=".3" rx="7" ry="7" height="85" width="86" y="7" x="5" fill="url(#bx)"/>
 <rect opacity=".45" rx="6" ry="6" height="84" width="84" y="7" x="6" fill="url(#bw)"/>
 <rect transform="matrix(0,-1,-1,0,0,0)" rx="6" ry="6" height="84" width="84" y="-90" x="-90" fill="url(#bz)"/>
 <g clip-path="url(#bo)">
  <path opacity=".5" d="m83.5 83.406c-1.1574 0-2.0938 0.93637-2.0938 2.0938v4.5008c0 10.923 8.6194 0 8.6194 0v-6.595z" fill="#7f7037"/>
  <rect rx="1.5" ry="1.5" height="12" width="24" y="84" x="82" fill="url(#bi)"/>
  <path opacity=".3" d="m85.031 84c0.42908 0.3739 0.9604 0.64797 1.4688 0.90625 1.0233-0.03516 1.9699-0.78397 3-0.1875 4.832 0.201 0.5-0.719 0.5-0.719h-4.97zm-1.843 0.03125c-0.685 0.14-1.188 0.742-1.188 1.469v1.75c0.259-0.0649 0.497-0.1032 0.594-0.0938-0.36-0.9824-0.555-2.1861 0.5-2.7812 0.045-0.07688 0.059-0.22054 0.094-0.34375z" fill="#f4d7d7"/>
  <path opacity=".5" d="m104.5 55.406v13.188h-21c-1.1574 0-2.0938-0.93637-2.0938-2.0938v-9c0-1.1574 0.93637-2.0938 2.0938-2.0938z" fill="#7f7037"/>
  <rect transform="scale(-1,1)" rx="1.5" ry="1.5" height="12" width="24" y="56" x="-106" fill="url(#bh)"/>
  <path opacity=".3" d="m90.001 56s0.39697-0.35422-0.3135 1.313c-1.1061 0.54922-1.6506-0.89209-2.75-0.59375-0.9275-0.03221-2.0013-0.95355-2.75 0.0625-0.77614 0.07291-1.4764 0.34296-1.5938 1.25-0.07283 0.35636-0.33049 0.51258-0.59375 0.53125v-1.063c0-0.831 0.669-1.5 1.5-1.5h6.501z" fill="#e9c6af"/>
  <path opacity=".3" d="m90.001 68h-6.501c-0.831 0-1.5-0.669-1.5-1.5v-3.4688c0.06512 0.20664 0.15642 0.40848 0.28125 0.59375 0.23442 0.58765 0.28496 1.0388 0.375 1.625-0.004 0.52142 0.22256 1.0538 0.6875 1.1875 0.36664 0.22111 1.0092 0.13993 1.5312 0.15625 0.56351-0.04729 1.2044-0.19694 1.7188 0.0625 0.83586 0.000501 1.6639-0.000366 2.5 0 5.067 0.154 0.907 1.344 0.907 1.344z" fill="#501616"/>
  <path opacity=".5" d="m19.5 41.406c-1.1574 0-2.0938 0.93637-2.0938 2.0938v9c0 1.1574 0.93637 2.0938 2.0938 2.0938h21c1.1574 0 2.0938-0.93637 2.0938-2.0938v-9c0-1.1574-0.93637-2.0938-2.0938-2.0938h-21z" fill="#7f7037"/>
  <rect rx="1.5" ry="1.5" height="12" width="24" y="42" x="18" fill="url(#bg)"/>
  <path opacity=".3" d="m19.5 42c-0.14889 0-0.30193 0.02246-0.4375 0.0625-0.621 0.184-1.062 0.756-1.062 1.438v0.96875c0.21712-0.46321 0.6086-0.71409 0.53125-1.3438 0.696-0.6017 1.6516-0.65128 2.5312-0.65625 0.63712-0.0082 0.91336 1.0837 1.0938 1.5938-0.09807-0.54106 0.25661-0.95139 0.71875-0.96875 0.92512-0.77658 2.0106-0.25402 3.125-0.375 0.90374-0.36661 1.8226-0.22054 2.625 0.21875 1.051-0.15974 2.0935-0.16665 3.1562-0.0625 0.91209 0.24591 2.0863-0.74769 2.5312 0.4375 1.1061 0.54922 1.6506-0.89209 2.75-0.59375 0.9275-0.03221 2.0013-0.95355 2.75 0.0625 0.77614 0.07291 1.4764 0.34296 1.5938 1.25 0.07283 0.35636 0.33049 0.51258 0.59375 0.53125v-1.063c0-0.831-0.669-1.5-1.5-1.5h-20.969c-0.009 0.002-0.021-0.002-0.031 0z" fill="#e9c6af"/>
  <path opacity=".3" d="m18 47.062v5.438c0 0.831 0.669 1.5 1.5 1.5h21c0.831 0 1.5-0.669 1.5-1.5v-3.4688c-0.06512 0.20664-0.15642 0.40848-0.28125 0.59375-0.23442 0.58765-0.28496 1.0388-0.375 1.625 0.004 0.52142-0.22256 1.0538-0.6875 1.1875-0.36664 0.22111-1.0092 0.13993-1.5312 0.15625-0.56351-0.04729-1.2044-0.19694-1.7188 0.0625-0.83586 0.000501-1.6639-0.000366-2.5 0-0.43101 0.13571-0.95906 0.07256-1.4375 0.09375-0.5958-0.05869-1.1004 0.1036-1.6875 0.0625-0.78848-0.05152-0.63444-0.73136-1.25-0.9375-0.57128-0.18938-0.31569 0.86941-0.65625 0.9375-0.62851-0.2777-0.79688-0.73863-1.2188-1.2812-0.24491-0.59158-0.12514 0.68286-0.15625 1-0.09065 0.48052-0.64157 0.23157-1.0312 0.28125-0.79-0.129-1.617-0.045-2.438-0.062-0.499 0.003-0.941 0.191-1.156 0.469-0.506 0.241-1.242-0.147-1.875-0.094-0.48698 0.06669-1.2518 0.22082-1.625-0.0625-0.42377-0.33032-0.5477-0.4792-0.75-1 0.01408-0.48868 0.11403-0.94281-0.46875-1.2188-0.04549-0.5147 0.01284-1.1329 0.53125-1.2188 0.29732-0.38364 0.30333-1.2631 0-1.4375-0.33923-0.25892-0.84834-0.41878-1.2812-0.625-0.231-0.079-0.343-0.268-0.406-0.5z" fill="#501616"/>
  <path opacity=".5" d="m19.5 41.406c-1.1574 0-2.0938 0.93637-2.0938 2.0938v9c0 1.1574 0.93637 2.0938 2.0938 2.0938h21c1.1574 0 2.0938-0.93637 2.0938-2.0938v-9c0-1.1574-0.93637-2.0938-2.0938-2.0938h-21z" transform="translate(26)" fill="#7f7037"/>
  <rect rx="1.5" ry="1.5" height="12" width="24" y="42" x="44" fill="url(#br)"/>
  <path opacity=".3" d="m45.5 42c-0.831 0-1.5 0.669-1.5 1.5v2.2188c0.17218 0.03194 0.38499-0.04094 0.6875-0.25 0.55536 0.07408 1.5362 1.6221 1.3438 0.34375 0.5816-0.40029-2.2387-2.1865-0.6875-2.9688 1.3035 0.62761 2.4577-0.35877 3.7812-0.125 1.101-0.014 2.289-1.164 2.969 0.281 1.48 0.076 2.888-0.812 4.406-0.594 1.417-0.151 2.852-0.089 4.281-0.094 0.256-0.095 0.578-0.212 0.907-0.312h-16.188zm18.344 0c0.23784 0.17122 0.40979 0.4492 0.46875 0.875-0.03849 0.75934-0.11974 1.3986 0.5 0.5 0.38005-1.2783 1.4005-1.8336 2.0625-0.5 0.30534 0.14673 0.6859 0.14012 1 0.03125-0.227-0.538-0.752-0.906-1.375-0.906h-2.6562z" fill="#e9c6af"/>
  <path opacity=".3" d="m63.156 51.156c-0.39166 0.24384-1.0516 0.59047-1.3125 1.0625 0.25476 0.87774-0.49968 1.2212-1.25 1.0312-0.9898-0.11438-1.9582 0.49597-2.9375 0.09375-1.9969-0.0052-3.9718 0.0057-5.9688 0-0.8723-0.02878-1.7261-0.04093-2.5625 0.1875-0.94258 0.36229-1.6573-0.51494-2.5-0.3125-1.1384 0.43752-1.0235-0.83921-1.2188-1.5312-0.35834 0.44614-0.86227 0.79168-1.375 1.1562 0.152 0.671 0.753 1.157 1.47 1.157h21c0.831 0 1.5-0.669 1.5-1.5v-0.625c-0.63275 0.14683-0.51223 1.1312-1.125 1.0938-0.675 0.14576-1.4454 0.08574-2.2188 0.25-1.0866-0.0058-1.2075-1.2616-1.5-2.0625z" fill="#501616"/>
  <path opacity=".5" d="m26.5 27.406c1.1574 0 2.0938 0.93637 2.0938 2.0938v9c0 1.1574-0.93637 2.0938-2.0938 2.0938h-20.5v-13.188z" fill="#7f7037"/>
  <rect transform="scale(-1,1)" rx="1.5" ry="1.5" height="12" width="24" y="28" x="-28" fill="url(#be)"/>
  <path opacity=".3" d="m26.5 28c0.831 0 1.5 0.669 1.5 1.5v2.2188c-0.17218 0.03194-0.38499-0.04094-0.6875-0.25-0.55536 0.07408-1.5362 1.6221-1.3438 0.34375-0.5816-0.40029 2.2387-2.1865 0.6875-2.9688-1.3035 0.62761-2.4577-0.35877-3.7812-0.125-1.101-0.014-2.289-1.164-2.969 0.281-1.48 0.076-2.888-0.812-4.406-0.594-1.417-0.151-2.852-0.089-4.281-0.094-0.256-0.095-0.578-0.212-0.907-0.312h16.188zm-18.344 0c-0.23784 0.17122-0.40979 0.4492-0.46875 0.875 0.03849 0.75934 0.11974 1.3986-0.5 0.5-1.28-1.405-1.1872-1.375-1.1872-1.375l2.156 0.00025z" fill="#e9c6af"/>
  <path opacity=".3" d="m8.844 37.156c0.39166 0.24384 1.0516 0.59047 1.3125 1.0625-0.25476 0.87774 0.49968 1.2212 1.25 1.0312 0.9898-0.11438 1.9582 0.49597 2.9375 0.09375 1.9969-0.0052 3.9718 0.0057 5.9688 0 0.8723-0.02878 1.7261-0.04093 2.5625 0.1875 0.94258 0.36229 1.6573-0.51494 2.5-0.3125 1.1384 0.43752 1.0235-0.83921 1.2188-1.5312 0.35834 0.44614 0.86227 0.79168 1.375 1.1562-0.152 0.671-0.753 1.157-1.47 1.157h-21c-0.831 0-1.5-0.669-1.5-1.5v-0.625c0.63275 0.14683 0.51223 1.1312 1.125 1.0938 0.675 0.14576 1.4454 0.08574 2.2188 0.25 1.0866-0.0058 1.2075-1.2616 1.5-2.0625z" fill="#501616"/>
  <path opacity=".5" d="m57.5 27.406c-1.1574 0-2.0938 0.93637-2.0938 2.0938v9c0 1.1574 0.93637 2.0938 2.0938 2.0938h21c1.1574 0 2.0938-0.93637 2.0938-2.0938v-9c0-1.1574-0.93637-2.0938-2.0938-2.0938h-21z" fill="#7f7037"/>
  <rect rx="1.5" ry="1.5" height="12" width="24" y="28" x="56" fill="url(#bf)"/>
  <path opacity=".3" d="m57.5 28c-0.14889 0-0.30193 0.02246-0.4375 0.0625-0.621 0.184-1.062 0.756-1.062 1.438v0.96875c0.21712-0.46321 0.6086-0.71409 0.53125-1.3438 0.696-0.6017 1.6516-0.65128 2.5312-0.65625 0.63712-0.0082 0.91336 1.0837 1.0938 1.5938-0.09807-0.54106 0.25661-0.95139 0.71875-0.96875 0.92512-0.77658 2.0106-0.25402 3.125-0.375 0.90374-0.36661 1.8226-0.22054 2.625 0.21875 1.051-0.15974 2.0935-0.16665 3.1562-0.0625 0.91209 0.24591 2.0863-0.74769 2.5312 0.4375 1.1061 0.54922 1.6506-0.89209 2.75-0.59375 0.9275-0.03221 2.0013-0.95355 2.75 0.0625 0.77614 0.07291 1.4764 0.34296 1.5938 1.25 0.07283 0.35636 0.33049 0.51258 0.59375 0.53125v-1.063c0-0.831-0.669-1.5-1.5-1.5h-20.969c-0.009 0.002-0.021-0.002-0.031 0z" fill="#e9c6af"/>
  <path opacity=".3" d="m56 33.062v5.438c0 0.831 0.669 1.5 1.5 1.5h21c0.831 0 1.5-0.669 1.5-1.5v-3.4688c-0.06512 0.20664-0.15642 0.40848-0.28125 0.59375-0.23442 0.58765-0.28496 1.0388-0.375 1.625 0.004 0.52142-0.22256 1.0538-0.6875 1.1875-0.36664 0.22111-1.0092 0.13993-1.5312 0.15625-0.56351-0.04729-1.2044-0.19694-1.7188 0.0625-0.83586 0.000501-1.6639-0.000366-2.5 0-0.43101 0.13571-0.95906 0.07256-1.4375 0.09375-0.5958-0.05869-1.1004 0.1036-1.6875 0.0625-0.78848-0.05152-0.63444-0.73136-1.25-0.9375-0.57128-0.18938-0.31569 0.86941-0.65625 0.9375-0.62851-0.2777-0.79688-0.73863-1.2188-1.2812-0.24491-0.59158-0.12514 0.68286-0.15625 1-0.09065 0.48052-0.64157 0.23157-1.0312 0.28125-0.79-0.129-1.617-0.045-2.438-0.062-0.499 0.003-0.941 0.191-1.156 0.469-0.506 0.241-1.242-0.147-1.875-0.094-0.48698 0.06669-1.2518 0.22082-1.625-0.0625-0.42377-0.33032-0.5477-0.4792-0.75-1 0.01408-0.48868 0.11403-0.94281-0.46875-1.2188-0.04549-0.5147 0.01284-1.1329 0.53125-1.2188 0.29732-0.38364 0.30333-1.2631 0-1.4375-0.33923-0.25892-0.84834-0.41878-1.2812-0.625-0.231-0.079-0.343-0.268-0.406-0.5z" fill="#501616"/>
  <path opacity=".5" d="m92.5 13.406v13.188h-21c-1.1574 0-2.0938-0.93637-2.0938-2.0938v-9c0-1.1574 0.93637-2.0938 2.0938-2.0938z" fill="#7f7037"/>
  <rect transform="scale(-1,1)" rx="1.5" ry="1.5" height="12" width="24" y="14" x="-94" fill="url(#bd)"/>
  <path opacity=".3" d="m92.5 14c1.6526 0.51399 1.9352 2.2726 0.1562 0.84375-1.3035 0.62761-2.4577-0.35877-3.7812-0.125-1.101-0.014-2.289-1.164-2.969 0.281-1.48 0.076-2.888-0.812-4.406-0.594-1.417-0.151-2.852-0.089-4.281-0.094-0.256-0.095-0.578-0.212-0.907-0.312 5.3959 0.000312 10.793-0.000551 16.188 0.00025zm-18.344 0c-0.23784 0.17122-0.40979 0.4492-0.46875 0.875 0.03849 0.75934 0.11974 1.3986-0.5 0.5-0.38005-1.2783-1.4005-1.8336-2.0625-0.5-0.30534 0.14673-0.6859 0.14012-1 0.03125 0.227-0.538 0.752-0.906 1.375-0.906h2.6562z" fill="#e9c6af"/>
  <path opacity=".3" d="m74.844 23.156c0.39166 0.24384 1.0516 0.59047 1.3125 1.0625-0.25476 0.87774 0.49968 1.2212 1.25 1.0312 0.9898-0.11438 1.9582 0.49597 2.9375 0.09375 1.9969-0.0052 3.9718 0.0057 5.9688 0 0.8723-0.02878 1.7261-0.04093 2.5625 0.1875 0.94258 0.36229 2.5-0.3125 2.5-0.3125l1.1238 0.782h-21c-0.831 0-1.5-0.669-1.5-1.5v-0.625c0.63275 0.14683 0.51223 1.1312 1.125 1.0938 0.675 0.14576 1.4454 0.08574 2.2188 0.25 1.0866-0.0058 1.2075-1.2616 1.5-2.0625z" fill="#501616"/>
  <path opacity=".5" d="m104.5 12.594h-21c-1.1574 0-2.0938-0.93637-2.0938-2.0938v-9z" fill="#7f7037"/>
  <rect transform="scale(-1,1)" rx="1.5" ry="1.5" height="12" width="24" y="0" x="-106" fill="url(#bc)"/>
  <path opacity=".3" d="m83.5 12c-0.831 0-1.5-0.669-1.5-1.5v-3.4688c0.06512 0.20664 0.15642 0.40848 0.28125 0.59375 0.23442 0.58765 0.28496 1.0388 0.375 1.625-0.004 0.52142 0.22256 1.0538 0.6875 1.1875 0.36664 0.22111 1.0092 0.13993 1.5312 0.15625 0.56351-0.04729 1.2044-0.19694 1.7188 0.0625 0.83586 0.000501 1.6639-0.000366 2.5 0 7.612-2.6393 0.906 1.344 0.906 1.344h-6.5z" fill="#501616"/>
  <path opacity=".5" d="m5.5 12.594h21c1.1574 0 2.0938-0.93637 2.0938-2.0938v-4.5001c0-18.585-23.094 6.5943-23.094 6.5943z" fill="#7f7037"/>
  <rect rx="1.5" ry="1.5" height="12" width="24" y="0" x="4" fill="url(#bb)"/>
  <path opacity=".3" d="m6 12h20.5c0.831 0 1.5-0.669 1.5-1.5v-3.4688c-0.06512 0.20664-0.15642 0.40848-0.28125 0.59375-0.23442 0.58765-0.28496 1.0388-0.375 1.625 0.004 0.52142-0.22256 1.0538-0.6875 1.1875-0.36664 0.22111-1.0092 0.13993-1.5312 0.15625-0.56351-0.04729-1.2044-0.19694-1.7188 0.0625-0.83586 0.000501-1.6639-0.000366-2.5 0-0.43101 0.13571-0.95906 0.07256-1.4375 0.09375-0.5958-0.05869-1.1004 0.1036-1.6875 0.0625-0.78848-0.05152-0.63444-0.73136-1.25-0.9375-0.57128-0.18938-0.31569 0.86941-0.65625 0.9375-0.62851-0.2777-0.79688-0.73863-1.2188-1.2812-0.24491-0.59158-0.12514 0.68286-0.15625 1-0.09065 0.48052-0.64157 0.23157-1.0312 0.28125-0.79-0.129-1.617-0.045-2.438-0.062-0.499 0.003-0.941 0.191-1.156 0.469-0.506 0.241-1.242-0.147-1.875-0.094-0.48698 0.06669-1.2518 0.22082-1.625-0.0625-0.3752-2.905-0.3752 0.937-0.3752 0.937z" fill="#501616"/>
  <path opacity=".5" d="m5.5 55.406c-1.1574 0-2.0938 0.93637-2.0938 2.0938v9c0 1.1574 0.93637 2.0938 2.0938 2.0938h21c1.1574 0 2.0938-0.93637 2.0938-2.0938v-9c0-1.1574-0.93637-2.0938-2.0938-2.0938h-21z" fill="#7f7037"/>
  <rect rx="1.5" ry="1.5" height="12" width="24" y="56" x="4" fill="url(#az)"/>
  <path opacity=".3" d="m5.5 56c-0.831 0-1.5 0.669-1.5 1.5v2.2188c0.17218 0.03194 0.38499-0.04094 0.6875-0.25 0.55536 0.07408 1.5362 1.6221 1.3438 0.34375 0.5816-0.40029-2.2387-2.1865-0.6875-2.9688 1.3035 0.62761 2.4577-0.35877 3.7812-0.125 1.101-0.014 2.289-1.164 2.969 0.281 1.48 0.076 2.888-0.812 4.406-0.594 1.417-0.151 2.852-0.089 4.281-0.094 0.256-0.095 0.578-0.212 0.907-0.312h-16.188zm18.344 0c0.23784 0.17122 0.40979 0.4492 0.46875 0.875-0.03849 0.75934-0.11974 1.3986 0.5 0.5 0.38005-1.2783 1.4005-1.8336 2.0625-0.5 0.30534 0.14673 0.6859 0.14012 1 0.03125-0.227-0.538-0.752-0.906-1.375-0.906h-2.6562z" fill="#e9c6af"/>
  <path opacity=".3" d="m23.156 65.156c-0.39166 0.24384-1.0516 0.59047-1.3125 1.0625 0.25476 0.87774-0.49968 1.2212-1.25 1.0312-0.9898-0.11438-1.9582 0.49597-2.9375 0.09375-1.9969-0.0052-3.9718 0.0057-5.9688 0-0.8723-0.02878-1.7261-0.04093-2.5625 0.1875-0.94258 0.36229-1.6573-0.51494-2.5-0.3125-2.3082-1.6746-1.1238 0.782-1.1238 0.782h21c0.831 0 1.5-0.669 1.5-1.5v-0.625c-0.63275 0.14683-0.51223 1.1312-1.125 1.0938-0.675 0.14576-1.4454 0.08574-2.2188 0.25-1.0866-0.0058-1.2075-1.2616-1.5-2.0625z" fill="#501616"/>
  <path opacity=".5" d="m40.5 69.406c1.1574 0 2.0938 0.93637 2.0938 2.0938v9c0 1.1574-0.93637 2.0938-2.0938 2.0938h-21c-1.1574 0-2.0938-0.93637-2.0938-2.0938v-9c0-1.1574 0.93637-2.0938 2.0938-2.0938h21z" fill="#7f7037"/>
  <rect transform="scale(-1,1)" rx="1.5" ry="1.5" height="12" width="24" y="70" x="-42" fill="url(#ba)"/>
  <path opacity=".3" d="m40.5 70c0.14889 0 0.30193 0.02246 0.4375 0.0625 0.621 0.184 1.062 0.756 1.062 1.438v0.96875c-0.21712-0.46321-0.6086-0.71409-0.53125-1.3438-0.696-0.6017-1.6516-0.65128-2.5312-0.65625-0.63712-0.0082-0.91336 1.0837-1.0938 1.5938 0.09807-0.54106-0.25661-0.95139-0.71875-0.96875-0.92512-0.77658-2.0106-0.25402-3.125-0.375-0.90374-0.36661-1.8226-0.22054-2.625 0.21875-1.051-0.15974-2.0935-0.16665-3.1562-0.0625-0.91209 0.24591-2.0863-0.74769-2.5312 0.4375-1.1061 0.54922-1.6506-0.89209-2.75-0.59375-0.9275-0.03221-2.0013-0.95355-2.75 0.0625-0.77614 0.07291-1.4764 0.34296-1.5938 1.25-0.07283 0.35636-0.33049 0.51258-0.59375 0.53125v-1.063c0-0.831 0.669-1.5 1.5-1.5h20.969c0.009 0.002 0.021-0.002 0.031 0z" fill="#e9c6af"/>
  <path opacity=".3" d="m42 75.062v5.438c0 0.831-0.669 1.5-1.5 1.5h-21c-0.831 0-1.5-0.669-1.5-1.5v-3.4688c0.06512 0.20664 0.15642 0.40848 0.28125 0.59375 0.23442 0.58765 0.28496 1.0388 0.375 1.625-0.004 0.52142 0.22256 1.0538 0.6875 1.1875 0.36664 0.22111 1.0092 0.13993 1.5312 0.15625 0.56351-0.04729 1.2044-0.19694 1.7188 0.0625 0.83586 0.000501 1.6639-0.000366 2.5 0 0.43101 0.13571 0.95906 0.07256 1.4375 0.09375 0.5958-0.05869 1.1004 0.1036 1.6875 0.0625 0.78848-0.05152 0.63444-0.73136 1.25-0.9375 0.57128-0.18938 0.31569 0.86941 0.65625 0.9375 0.62851-0.2777 0.79688-0.73863 1.2188-1.2812 0.24491-0.59158 0.12514 0.68286 0.15625 1 0.09065 0.48052 0.64157 0.23157 1.0312 0.28125 0.79-0.129 1.617-0.045 2.438-0.062 0.499 0.003 0.941 0.191 1.156 0.469 0.506 0.241 1.242-0.147 1.875-0.094 0.48698 0.06669 1.2518 0.22082 1.625-0.0625 0.42377-0.33032 0.5477-0.4792 0.75-1-0.01408-0.48868-0.11403-0.94281 0.46875-1.2188 0.04549-0.5147-0.01284-1.1329-0.53125-1.2188-0.29732-0.38364-0.30333-1.2631 0-1.4375 0.33923-0.25892 0.84834-0.41878 1.2812-0.625 0.231-0.079 0.343-0.268 0.406-0.5z" fill="#501616"/>
  <path opacity=".5" d="m5.5 83.406c-1.1574 0-2.0938 2.0938-2.0938 2.0938l25.188 9v-9c0-1.1574-0.93637-2.0938-2.0938-2.0938z" fill="#7f7037"/>
  <rect rx="1.5" ry="1.5" height="12" width="24" y="84" x="4" fill="url(#ay)"/>
  <path opacity=".3" d="m5.5 84c-0.14889 0-0.30193 0.02246-0.4375 0.0625-0.621 0.184-1.062 0.756-1.062 1.438v0.96875c0.21712-0.46321 0.6086-0.71409 0.53125-1.3438 0.696-0.6017 1.6516-0.65128 2.5312-0.65625 0.63712-0.0082 0.91336 1.0837 1.0938 1.5938-0.09807-0.54106 0.25661-0.95139 0.71875-0.96875 0.92512-0.77658 2.0106-0.25402 3.125-0.375 0.90374-0.36661 1.8226-0.22054 2.625 0.21875 1.051-0.15974 2.0935-0.16665 3.1562-0.0625 0.91209 0.24591 2.0863-0.74769 2.5312 0.4375 1.1061 0.54922 1.6506-0.89209 2.75-0.59375 0.9275-0.03221 2.0013-0.95355 2.75 0.0625 0.77614 0.07291 1.4764 0.34296 1.5938 1.25 0.07283 0.35636 0.33049 0.51258 0.59375 0.53125v-1.063c0-0.831-0.669-1.5-1.5-1.5h-20.969c-0.009 0.002-0.021-0.002-0.031 0z" fill="#e9c6af"/>
  <path opacity=".5" d="m57.5 83.406c-1.1574 0-2.0938 0.93637-2.0938 2.0938v9h25.188v-9c0-1.1574-0.93637-2.0938-2.0938-2.0938z" fill="#7f7037"/>
  <rect rx="1.5" ry="1.5" height="12" width="24" y="84" x="56" fill="url(#ax)"/>
  <path opacity=".3" d="m57.5 84c-0.14889 0-0.30193 0.02246-0.4375 0.0625-0.621 0.184-1.062 0.756-1.062 1.438v0.96875c0.21712-0.46321 0.6086-0.71409 0.53125-1.3438 0.696-0.6017 1.6516-0.65128 2.5312-0.65625 0.63712-0.0082 0.91336 1.0837 1.0938 1.5938-0.09807-0.54106 0.25661-0.95139 0.71875-0.96875 0.92512-0.77658 2.0106-0.25402 3.125-0.375 0.90374-0.36661 1.8226-0.22054 2.625 0.21875 1.051-0.15974 2.0935-0.16665 3.1562-0.0625 0.91209 0.24591 2.0863-0.74769 2.5312 0.4375 1.1061 0.54922 1.6506-0.89209 2.75-0.59375 0.9275-0.03221 2.0013-0.95355 2.75 0.0625 0.77614 0.07291 1.4764 0.34296 1.5938 1.25 0.07283 0.35636 0.33049 0.51258 0.59375 0.53125v-1.063c0-0.831-0.669-1.5-1.5-1.5h-20.969c-0.009 0.002-0.021-0.002-0.031 0z" fill="#e9c6af"/>
  <path opacity=".3" d="m56 89.062v0.94368s5.2087 10.355 1.6872 0.18222c-0.33923-0.25892-0.84834-0.41878-1.2812-0.625-0.231-0.079-0.343-0.268-0.406-0.5z" fill="#501616"/>
  <path opacity=".5" d="m71.5 69.406c-1.1574 0-2.0938 0.93637-2.0938 2.0938v9c0 1.1574 0.93637 2.0938 2.0938 2.0938h21v-13.188z" fill="#7f7037"/>
  <rect rx="1.5" ry="1.5" height="12" width="24" y="70" x="70" fill="url(#aw)"/>
  <path opacity=".3" d="m71.5 70c-0.831 0-1.5 0.669-1.5 1.5v2.2188c0.17218 0.03194 0.38499-0.04094 0.6875-0.25 0.55536 0.07408 1.5362 1.6221 1.3438 0.34375 0.5816-0.40029-2.2387-2.1865-0.6875-2.9688 1.3035 0.62761 2.4577-0.35877 3.7812-0.125 1.101-0.014 2.289-1.164 2.969 0.281 1.48 0.076 2.888-0.812 4.406-0.594 1.417-0.151 2.852-0.089 4.281-0.094 0.256-0.095 0.578-0.212 0.907-0.312h-16.188zm18.344 0c0.23784 0.17122 0.40979 0.4492 0.46875 0.875-0.03849 0.75934-0.11974 1.3986 0.5 0.5 0.38005-1.2783 1.4005-1.8336 2.0625-0.5 0.30534 0.14673 0.6859 0.14012 1 0.03125-0.227-0.538-0.752-0.906-1.375-0.906h-2.6562z" fill="#e9c6af"/>
  <path opacity=".3" d="m89.156 79.156c-0.39166 0.24384-1.0516 0.59047-1.3125 1.0625 0.25476 0.87774-0.49968 1.2212-1.25 1.0312-0.9898-0.11438-1.9582 0.49597-2.9375 0.09375-1.9969-0.0052-3.9718 0.0057-5.9688 0-0.8723-0.02878-1.7261-0.04093-2.5625 0.1875-0.94258 0.36229-1.6573-0.51494-2.5-0.3125-1.1384 0.43752-1.0235-0.83921-1.2188-1.5312-0.35834 0.44614-0.86227 0.79168-1.375 1.1562 0.152 0.671 0.753 1.157 1.47 1.157h18.5s0.2527 0.75627-0.8433-2.8432z" fill="#501616"/>
  <path opacity=".3" d="m35.515 45.977c-0.38045-0.07576-0.6432 0.3814-1.0251 0.33321 0.07688 0.36723 0.58595 0.24373 0.87456 0.29111 0.29479 0.26387 0.7368 0.04317 1.0381 0.27639 0.41976-0.08331 0.64901 0.27128 0.7649 0.60241-0.10149 0.42228 0.25747 0.69808 0.32194 1.0868 0.10049 0.18201-0.17558 0.80248 0.13137 0.67046 0.20648-0.40008 0.08434-0.89569 0.27262-1.2988 0.11934-0.37999-0.02005-0.7849 0.0482-1.1739 0.08501-0.47372-0.54977-0.45469-0.87247-0.48506-0.44133-0.01801-0.8107-0.35084-1.2739-0.29413-0.09336-0.004-0.1868-0.0059-0.28021-0.0084z" fill="#501616"/>
  <g opacity=".3" fill="#782121">
   <path d="m81.565 23.481a1.0642 1.0642 0 1 1 -2.1284 0 1.0642 1.0642 0 1 1 2.1284 0z"/>
   <path d="m78.144 22.607a0.72215 0.72215 0 1 1 -1.4443 0 0.72215 0.72215 0 1 1 1.4443 0z"/>
   <path d="m78.676 36.48a0.76016 0.76016 0 1 1 -1.5203 0 0.76016 0.76016 0 1 1 1.5203 0z"/>
   <path d="m76.168 35.606a1.7864 1.7864 0 1 1 -3.5727 0 1.7864 1.7864 0 1 1 3.5727 0z"/>
   <path d="m22.425 33.705a0.76016 0.87418 0 1 1 -1.5203 0 0.76016 0.87418 0 1 1 1.5203 0z"/>
   <path d="m12.342 33.743a1.23 0.76016 0 1 1 -2.4599 0 1.23 0.76016 0 1 1 2.4599 0z"/>
   <path d="m15.735 36.594a1.9004 0.9502 0 0 1 -3.8008 0 1.9004 0.9502 0 1 1 3.8008 0z"/>
   <path d="m67.122 50.885a1.3683 0.72215 0 1 1 -2.7366 0 1.3683 0.72215 0 1 1 2.7366 0z"/>
   <path d="m50.094 45.184a0.9882 0.4941 0 1 1 -1.9764 0 0.9882 0.4941 0 1 1 1.9764 0z"/>
   <path d="m52.983 47.274a1.5203 0.76016 0 1 1 -3.0406 0 1.5203 0.76016 0 1 1 3.0406 0z"/>
   <path d="m35.575 48.452a1.1402 0.57016 0 0 1 -2.2805 0 1.1402 0.57016 0 1 1 2.2805 0z"/>
   <path d="m23.483 47.236a1.7834 1.1022 0 0 1 -3.5669 0 1.7834 1.1022 0 1 1 3.5669 0z"/>
   <path d="m23.791 7.7839a1.2915 0.79816 0 1 1 -2.5829 0 1.2915 0.79816 0 1 1 2.5829 0z"/>
   <path d="m16.115 7.7078a1.4443 0.72215 0 0 1 -2.8886 0 1.4443 0.72215 0 1 1 2.8886 0z"/>
   <path d="m10.967 9.3802a0.92247 0.57012 0 1 1 -1.8449 0 0.92247 0.57012 0 1 1 1.8449 0z"/>
   <path d="m9.3499 63.465a1.0642 0.53211 0 0 1 -2.1284 0 1.0642 0.53211 0 1 1 2.1284 0z"/>
   <path d="m23.033 58.562a1.1402 0.57016 0 0 1 -2.2805 0 1.1402 0.57016 0 1 1 2.2805 0z"/>
   <path d="m38.236 74.906a1.1402 0.57016 0 1 1 -2.2805 0 1.1402 0.57016 0 1 1 2.2805 0z"/>
   <path d="m25.541 76.008a2.2805 1.1402 0 1 1 -4.5609 0 2.2805 1.1402 0 1 1 4.5609 0z"/>
   <path d="m27.697 74.64a1.23 0.76016 0 1 1 -2.4599 0 1.23 0.76016 0 1 1 2.4599 0z"/>
   <path d="m62.485 91.743a1.3683 0.68414 0 0 1 -2.7366 0 1.3683 0.68414 0 1 1 2.7366 0z"/>
   <path d="m67.654 87.03a1.5964 0.53213 0 0 1 -3.1927 0 1.5964 0.53213 0 1 1 3.1927 0z"/>
   <path d="m71.759 88.55a0.9122 0.4561 0 1 1 -1.8244 0 0.9122 0.4561 0 1 1 1.8244 0z"/>
   <path d="m12.695 86.764a0.83617 0.41809 0 1 1 -1.6723 0 0.83617 0.41809 0 1 1 1.6723 0z"/>
   <path d="m16.951 88.893a1.1402 0.57016 0 0 1 -2.2805 0 1.1402 0.57016 0 1 1 2.2805 0z"/>
   <path d="m86.278 72.625a1.9384 0.64613 0 0 1 -3.8768 0 1.9384 0.64613 0 1 1 3.8768 0z"/>
  </g>
  <g opacity=".1" fill="#e9c6af">
   <path d="m30.178 45.07a1.0642 0.53211 0 1 1 -2.1284 0 1.0642 0.53211 0 1 1 2.1284 0z"/>
   <path d="m64.841 45.944a1.5583 0.4941 0 1 1 -3.1166 0 1.5583 0.4941 0 1 1 3.1166 0z"/>
   <path d="m20.752 37.05a1.4443 0.64613 0 0 1 -2.8886 0 1.4443 0.64613 0 1 1 2.8886 0z"/>
   <path d="m83.237 16.868a1.8624 0.53211 0 0 1 -3.7248 0 1.8624 0.53211 0 1 1 3.7248 0z"/>
   <path d="m34.207 76.806a0.9502 0.57012 0 1 1 -1.9004 0 0.9502 0.57012 0 1 1 1.9004 0z"/>
   <path d="m37.02 77.87a0.8742 0.49411 0 1 1 -1.7484 0 0.8742 0.49411 0 1 1 1.7484 0z"/>
  </g>
  <path opacity=".5" d="m19.5 41.406c-1.1574 0-2.0938 0.93637-2.0938 2.0938v9c0 1.1574 0.93637 2.0938 2.0938 2.0938h21c1.1574 0 2.0938-0.93637 2.0938-2.0938v-9c0-1.1574-0.93637-2.0938-2.0938-2.0938h-21z" transform="translate(12,-14)" fill="#7f7037"/>
  <rect rx="1.5" ry="1.5" height="12" width="24" y="28" x="30" fill="url(#bs)"/>
  <path opacity=".3" d="m31.5 28c-0.78986 0-1.4382 0.60156-1.5 1.375 0.49595-0.26287 1.1986-0.23748 1.375-0.09375-0.06605-0.89457 0.91623-1.1897 1.5312-0.75 0.72997-0.1202 1.5028-0.6548 2.0312 0.09375 0.9557 0.08592 1.9032-0.16836 2.8438-0.21875 0.70222 0.27893 1.4991 0.12458 2.0938 0.5-0.39536 0.2309-0.92376 1.4978-0.0625 1.4062 0.38541-0.72225 1.6109-0.753 1.4375-1.6875 0.64261-0.77069 1.6816-0.0602 2.25 0.4375 0.37549 0.44581 0.77461 0.38455 0.53125-0.25 0.48123-0.8993 1.6501-0.47792 2.4688-0.5 1.1623 0.11016 2.3817 0.36827 3.5312 0.03125 1.2249-0.15037 2.2016 0.66839 3.2188 0.9375 0.21756 0.10332 0.49618 0.15264 0.75 0.15625-0.032-0.802-0.69-1.437-1.5-1.437h-21z" fill="#fca"/>
  <path opacity=".3" d="m30 32.656v3.625c0.25078-0.26974 0.52319-0.53156 0.75-0.8125-0.944-0.833 0.427-1.341 1.125-1.468 0.343-0.908-1.023-1.042-1.875-1.344zm24 3.125c-0.2403 0.2015-0.45664 0.6699-0.71875 0.9375-0.41498 0.9317-0.39667 2.2292-1.75 2.3438-1.2066 0.83329-2.5108 0.10497-3.75-0.1875-1.2764 0.39639-2.2934-0.76032-3.5-0.90625-0.93115 0.13843-1.5584 1.1061-2.4688 1.4062-1.1321 0.51859-2.3259-0.31198-3.5 0.03125-1.3884 0.36368-2.8077 0.15449-4.2188 0.0625-0.922 0.114-1.749-0.736-2.655-0.218-0.195 0.262-0.447 0.435-0.719 0.531 0.227 0.138 0.495 0.219 0.781 0.219h21c0.831 0 1.5-0.669 1.5-1.5v-2.7188z" fill="#502d16"/>
  <path opacity=".5" d="m19.5 41.406c-1.1574 0-2.0938 0.93637-2.0938 2.0938v9c0 1.1574 0.93637 2.0938 2.0938 2.0938h21c1.1574 0 2.0938-0.93637 2.0938-2.0938v-9c0-1.1574-0.93637-2.0938-2.0938-2.0938h-21z" transform="translate(26,-28)" fill="#7f7037"/>
  <rect rx="1.5" ry="1.5" height="12" width="24" y="14" x="44" fill="url(#bt)"/>
  <path opacity=".3" d="m48.281 14c0.63601 0.94092 1.8157 1.2641 2.5938 0.25 0.11295-0.09197 0.24712-0.16592 0.375-0.25h-2.969zm5.8438 0c1.2013 0.61919 2.6276 0.5759 3.9375 0.8125 1.964 0.0654 3.9499-0.38518 5.9062-0.0625 0.93643 0.49398 1.8179 0.7228 2.875 0.84375 0.332 0.306 0.732 0.889 1.156 1.156v-1.25c0-0.831-0.669-1.5-1.5-1.5h-12.375zm-10.125 2.781v1.3125c0.68465 0.01896 1.5322 0.49786 1.8438 0.28125 0.104-1.215-1.057-1.264-1.844-1.594z" fill="#e9c6af"/>
  <path opacity=".3" d="m44 21.531v2.969c0 0.831 0.669 1.5 1.5 1.5h21c0.831 0 1.5-0.669 1.5-1.5v-1.5c-0.63233 0.24671-1.1657 1.5606-1.8125 1.875-1.0009 0.68391-2.0449-0.2579-3-0.5625-0.75684 0.35133-1.7511 0.79559-2.7188 0.78125-0.79424 0.24914-1.6254 0.20437-2.4375 0.0625-0.82971-0.2488-1.6619 0.06977-2.4688 0-0.94739-0.49256-0.89364-1.7175-1.2812-2.5625-0.15494 1.0117-1.6061 0.5333-1.8125 1.625-0.33941 1.4773-2.0689 0.54927-2.375-0.46875-0.30903 0.05833-0.75747 1.7728-1.7812 1.4062-1.0924 0.09798-2.4959 0.15844-3.1875-0.875-0.28-0.916-0.363-2.08-1.124-2.75z" fill="#502d16"/>
  <path opacity=".5" d="m80.594 5.9995v4.5003c0 1.1574-0.93637 2.0938-2.0938 2.0938h-21c-1.1574 0-2.0938-0.93637-2.0938-2.0938v-4.5005z" fill="#7f7037"/>
  <rect transform="scale(-1,1)" rx="1.5" ry="1.5" height="12" width="24" y="0" x="-80" fill="url(#av)"/>
  <path opacity=".3" d="m80 5.9995v2.2815c-0.251-0.2697-0.523-0.5316-0.75-0.8125 0.944-0.833-0.427-1.341-1.125-1.468 1.097-0.001 1.875-0.001 1.875-0.001zm-24 1.7815c0.2403 0.2015 0.45664 0.6699 0.71875 0.9375 0.41498 0.9317 0.39667 2.2292 1.75 2.3438 1.2066 0.83329 2.5108 0.10497 3.75-0.1875 1.2764 0.39639 2.2934-0.76032 3.5-0.90625 0.93115 0.13843 1.5584 1.1061 2.4688 1.4062 1.1321 0.51859 2.3259-0.31198 3.5 0.03125 1.3884 0.36368 2.8077 0.15449 4.2188 0.0625 0.922 0.114 1.749-0.736 2.655-0.218 0.195 0.262 0.447 0.435 0.719 0.531-0.227 0.138-0.495 0.219-0.781 0.219h-21c-0.831 0-1.5-0.669-1.5-1.5-0.001-0.9059-0.001-1.8131 0-2.719z" fill="#502d16"/>
  <path opacity=".5" d="m14.5 13.406c1.1574 0 2.0938 0.93637 2.0938 2.0938v9c0 1.1574-0.93637 2.0938-2.0938 2.0938h-21v-13.188z" fill="#7f7037"/>
  <rect transform="scale(-1,1)" rx="1.5" ry="1.5" height="12" width="24" y="14" x="-16" fill="url(#ci)"/>
  <path opacity=".3" d="m11.719 14c-0.636 0.941-1.8157 1.264-2.5938 0.25-0.113-0.092-0.2471-0.166-0.375-0.25zm4.2812 2.781v1.3125c-0.68465 0.01896-1.5322 0.49786-1.8438 0.28125-0.104-1.215 1.057-1.264 1.844-1.594z" fill="#e9c6af"/>
  <path opacity=".3" d="m16 21.531v2.969c0 0.831-0.669 1.5-1.5 1.5-49.29 0-7.2601-2.9851-6.9687-1.7812 0.33941 1.4773 2.0689 0.54927 2.375-0.46875 0.30903 0.05833 0.75747 1.7728 1.7812 1.4062 1.0924 0.09798 2.4959 0.15844 3.1875-0.875 0.28082-0.91635 0.36441-2.0802 1.125-2.75z" fill="#502d16"/>
  <path opacity=".5" d="m14.5 41.406c1.1574 0 2.0938 0.93637 2.0938 2.0938v9c0 1.1574-0.93637 2.0938-2.0938 2.0938h-21v-13.188z" fill="#7f7037"/>
  <rect transform="scale(-1,1)" rx="1.5" ry="1.5" height="12" width="24" y="42" x="-16" fill="url(#ch)"/>
  <path opacity=".3" d="m14.5 42c0.78986 0 1.4382 0.60156 1.5 1.375-0.49595-0.26287-1.1986-0.23748-1.375-0.09375 0.06605-0.89457-0.91623-1.1897-1.5312-0.75-0.72997-0.1202-1.5028-0.6548-2.0312 0.09375-0.9557 0.08592-1.9032-0.16836-2.8438-0.21875-0.70222 0.27893-1.4991 0.12458-2.0938 0.5 0.39536 0.2309 0.92376 1.4978 0.0625 1.4062-10.096-4.4976-26.352-2.312 8.3124-2.312z" fill="#fca"/>
  <path opacity=".3" d="m16 46.656v3.625c-0.25078-0.26974-0.52319-0.53156-0.75-0.8125 0.944-0.833-0.427-1.341-1.125-1.468-0.343-0.908 1.023-1.042 1.875-1.344zm-8.3124 6.75c1.3884 0.36368 2.8077 0.15449 4.2188 0.0625 0.922 0.114 1.749-0.736 2.655-0.218 0.195 0.262 0.447 0.435 0.719 0.531-0.227 0.138-0.495 0.219-0.781 0.219-30.243 0.27062-25.23-5.3238-6.8118-0.5945z" fill="#502d16"/>
  <path opacity=".5" d="m-6.5 69.406v13.188h21c1.1574 0 2.0938-0.93637 2.0938-2.0938v-9c0-1.1574-0.93637-2.0938-2.0938-2.0938z" fill="#7f7037"/>
  <rect rx="1.5" ry="1.5" height="12" width="24" y="70" x="-8" fill="url(#cg)"/>
  <path opacity=".3" d="m2.1248 70s2.6276 0.5759 3.9375 0.8125c1.964 0.0654 3.9499-0.38518 5.9062-0.0625 0.93643 0.49398 1.8179 0.7228 2.875 0.84375 0.332 0.306 0.732 0.889 1.156 1.156v-1.25c0-0.831-0.669-1.5-1.5-1.5h-12.376z" fill="#e9c6af"/>
  <path opacity=".3" d="m-6.5 82h21c0.831 0 1.5-0.669 1.5-1.5v-1.5c-0.63233 0.24671-1.1657 1.5606-1.8125 1.875-1.0009 0.68391-2.0449-0.2579-3-0.5625-0.75684 0.35133-1.7511 0.79559-2.7188 0.78125-0.79424 0.24914-1.6254 0.20437-2.4375 0.0625-4.2086-0.724-12.531 0.844-12.531 0.844z" fill="#502d16"/>
  <path opacity=".5" d="m31.5 55.406c-1.1574 0-2.0938 0.93637-2.0938 2.0938v9c0 1.1574 0.93637 2.0938 2.0938 2.0938h21c1.1574 0 2.0938-0.93637 2.0938-2.0938v-9c0-1.1574-0.93637-2.0938-2.0938-2.0938h-21z" fill="#7f7037"/>
  <rect rx="1.5" ry="1.5" height="12" width="24" y="56" x="30" fill="url(#cf)"/>
  <path opacity=".3" d="m34.281 56c0.63601 0.94092 1.8157 1.2641 2.5938 0.25 0.11295-0.09197 0.24712-0.16592 0.375-0.25h-2.969zm5.8438 0c1.2013 0.61919 2.6276 0.5759 3.9375 0.8125 1.964 0.0654 3.9499-0.38518 5.9062-0.0625 0.93643 0.49398 1.8179 0.7228 2.875 0.84375 0.332 0.306 0.732 0.889 1.156 1.156v-1.25c0-0.831-0.669-1.5-1.5-1.5h-12.375zm-10.125 2.781v1.3125c0.68465 0.01896 1.5322 0.49786 1.8438 0.28125 0.104-1.215-1.057-1.264-1.844-1.594z" fill="#e9c6af"/>
  <path opacity=".3" d="m30 63.531v2.969c0 0.831 0.669 1.5 1.5 1.5h21c0.831 0 1.5-0.669 1.5-1.5v-1.5c-0.63233 0.24671-1.1657 1.5606-1.8125 1.875-1.0009 0.68391-2.0449-0.2579-3-0.5625-0.75684 0.35133-1.7511 0.79559-2.7188 0.78125-0.79424 0.24914-1.6254 0.20437-2.4375 0.0625-0.82971-0.2488-1.6619 0.06977-2.4688 0-0.94739-0.49256-0.89364-1.7175-1.2812-2.5625-0.15494 1.0117-1.6061 0.5333-1.8125 1.625-0.33941 1.4773-2.0689 0.54927-2.375-0.46875-0.30903 0.05833-0.75747 1.7728-1.7812 1.4062-1.0924 0.09798-2.4959 0.15844-3.1875-0.875-0.28-0.916-0.363-2.08-1.124-2.75z" fill="#502d16"/>
  <path opacity=".5" d="m78.5 55.406c1.1574 0 2.0938 0.93637 2.0938 2.0938v9c0 1.1574-0.93637 2.0938-2.0938 2.0938h-21c-1.1574 0-2.0938-0.93637-2.0938-2.0938v-9c0-1.1574 0.93637-2.0938 2.0938-2.0938h21z" fill="#7f7037"/>
  <rect transform="scale(-1,1)" rx="1.5" ry="1.5" height="12" width="24" y="56" x="-80" fill="url(#ce)"/>
  <path opacity=".3" d="m78.5 56c0.78986 0 1.4382 0.60156 1.5 1.375-0.49595-0.26287-1.1986-0.23748-1.375-0.09375 0.06605-0.89457-0.91623-1.1897-1.5312-0.75-0.72997-0.1202-1.5028-0.6548-2.0312 0.09375-0.9557 0.08592-1.9032-0.16836-2.8438-0.21875-0.70222 0.27893-1.4991 0.12458-2.0938 0.5 0.39536 0.2309 0.92376 1.4978 0.0625 1.4062-0.38541-0.72225-1.6109-0.753-1.4375-1.6875-0.64261-0.77069-1.6816-0.0602-2.25 0.4375-0.37549 0.44581-0.77461 0.38455-0.53125-0.25-0.48123-0.8993-1.6501-0.47792-2.4688-0.5-1.1623 0.11016-2.3817 0.36827-3.5312 0.03125-1.2249-0.15037-2.2016 0.66839-3.2188 0.9375-0.21756 0.10332-0.49618 0.15264-0.75 0.15625 0.032-0.802 0.69-1.437 1.5-1.437h21z" fill="#fca"/>
  <path opacity=".3" d="m80 60.656v3.625c-0.25078-0.26974-0.52319-0.53156-0.75-0.8125 0.944-0.833-0.427-1.341-1.125-1.468-0.343-0.908 1.023-1.042 1.875-1.344zm-24 3.125c0.2403 0.2015 0.45664 0.6699 0.71875 0.9375 0.41498 0.9317 0.39667 2.2292 1.75 2.3438 1.2066 0.83329 2.5108 0.10497 3.75-0.1875 1.2764 0.39639 2.2934-0.76032 3.5-0.90625 0.93115 0.13843 1.5584 1.1061 2.4688 1.4062 1.1321 0.51859 2.3259-0.31198 3.5 0.03125 1.3884 0.36368 2.8077 0.15449 4.2188 0.0625 0.922 0.114 1.749-0.736 2.655-0.218 0.195 0.262 0.447 0.435 0.719 0.531-0.227 0.138-0.495 0.219-0.781 0.219h-21c-0.831 0-1.5-0.669-1.5-1.5v-2.7188z" fill="#502d16"/>
  <path opacity=".5" d="m104.5 27.406v13.188h-21c-1.1574 0-2.0938-0.93637-2.0938-2.0938v-9c0-1.1574 0.93637-2.0938 2.0938-2.0938z" fill="#7f7037"/>
  <rect transform="scale(-1,1)" rx="1.5" ry="1.5" height="12" width="24" y="28" x="-106" fill="url(#cd)"/>
  <path opacity=".3" d="m95.875 28s-2.6276 0.5759-3.9375 0.8125c-1.964 0.0654-3.9499-0.38518-5.9062-0.0625-0.93643 0.49398-1.8179 0.7228-2.875 0.84375-0.332 0.306-0.732 0.889-1.156 1.156v-1.25c0-0.831 0.669-1.5 1.5-1.5h12.375z" fill="#e9c6af"/>
  <path opacity=".3" d="m83.5 40c-0.831 0-1.5-0.669-1.5-1.5v-1.5c0.63233 0.24671 1.1657 1.5606 1.8125 1.875 1.0009 0.68391 2.0449-0.2579 3-0.5625 0.75684 0.35133 1.7511 0.79559 2.7188 0.78125 14.389-4.321 28.829 0.906-6.031 0.906z" fill="#502d16"/>
  <path opacity=".5" d="m52.5 83.406c1.1574 0 2.0938 0.93637 2.0938 2.0938v9h-25.188v-9c0-1.1574 0.93637-2.0938 2.0938-2.0938z" fill="#7f7037"/>
  <rect transform="scale(-1,1)" rx="1.5" ry="1.5" height="12" width="24" y="84" x="-54" fill="url(#cc)"/>
  <path opacity=".3" d="m49.719 84c-0.63601 0.94092-1.8157 1.2641-2.5938 0.25-0.11295-0.09197-0.24712-0.16592-0.375-0.25h2.9688zm-5.8438 0c-1.2013 0.61919-2.6276 0.5759-3.9375 0.8125-1.964 0.0654-3.9499-0.38518-5.9062-0.0625-0.93643 0.49398-1.8179 0.7228-2.875 0.84375-0.332 0.306-0.732 0.889-1.156 1.156v-1.25c0-0.831 0.669-1.5 1.5-1.5h12.375zm10.125 2.781v1.3125c-0.68465 0.01896-1.5322 0.49786-1.8438 0.28125-0.104-1.215 1.057-1.264 1.844-1.594z" fill="#e9c6af"/>
  <g opacity=".3" fill="#502d16">
   <path d="m13.379 45.184a1.2923 0.79816 0 1 1 -2.5845 0 1.2923 0.79816 0 1 1 2.5845 0z"/>
   <path d="m35.195 64.644a0.76016 0.4941 0 1 1 -1.5203 0 0.76016 0.4941 0 1 1 1.5203 0z"/>
   <path d="m41.809 62.857a1.5203 0.91219 0 1 1 -3.0406 0 1.5203 0.91219 0 1 1 3.0406 0z"/>
   <path d="m52.451 60.729a1.0642 0.45609 0 1 1 -2.1284 0 1.0642 0.45609 0 1 1 2.1284 0z"/>
   <path d="m60.356 63.085a1.1782 0.60819 0 1 1 -2.3565 0 1.1782 0.60819 0 1 1 2.3565 0z"/>
   <path d="m70.999 60.615a1.2543 0.72215 0 1 1 -2.5085 0 1.2543 0.72215 0 1 1 2.5085 0z"/>
   <path d="m7.6016 73.081a1.0642 0.41809 0 0 1 -2.1284 0 1.0642 0.41809 0 1 1 2.1284 0z"/>
   <path d="m13.987 77.148a1.3683 0.9882 0 0 1 -2.7366 0 1.3683 0.9882 0 1 1 2.7366 0z"/>
   <path d="m7.7536 77.794a1.2923 0.57012 0 1 1 -2.5845 0 1.2923 0.57012 0 1 1 2.5845 0z"/>
   <path d="m40.06 87.752a1.0262 0.41809 0 1 1 -2.0524 0 1.0262 0.41809 0 1 1 2.0524 0z"/>
   <path d="m45.077 86.574a1.1782 0.60819 0 1 1 -2.3565 0 1.1782 0.60819 0 1 1 2.3565 0z"/>
   <path d="m35.575 32.565a1.0262 0.34207 0 1 1 -2.0524 0 1.0262 0.34207 0 1 1 2.0524 0z"/>
   <path d="m44.241 35.834a1.2543 0.64613 0 1 1 -2.5085 0 1.2543 0.64613 0 1 1 2.5085 0z"/>
   <path d="m47.586 35.111a1.0642 0.60813 0 1 1 -2.1284 0 1.0642 0.60813 0 1 1 2.1284 0z"/>
   <path d="m50.778 31.805a1.5203 0.79816 0 1 1 -3.0406 0 1.5203 0.79816 0 1 1 3.0406 0z"/>
   <path d="m52.603 17.78a2.0144 0.76016 0 1 1 -4.0288 0 2.0144 0.76016 0 1 1 4.0288 0z"/>
   <path d="m51.843 19.87a1.0262 0.19004 0 1 1 -2.0524 0 1.0262 0.19004 0 1 1 2.0524 0z"/>
   <path d="m61.649 22.873a1.1022 0.53215 0 0 1 -2.2045 0 1.1022 0.53215 0 1 1 2.2045 0z"/>
   <path d="m61.345 9.1521a0.79816 0.34207 0 1 1 -1.5963 0 0.79816 0.34207 0 1 1 1.5963 0z"/>
   <path d="m12.391 21.011a1.2543 0.72215 0 1 1 -2.5085 0 1.2543 0.72215 0 1 1 2.5085 0z"/>
   <path d="m87.114 33.933a0.83617 0.34207 0 1 1 -1.6723 0 0.83617 0.34207 0 1 1 1.6723 0z"/>
   <path d="m88.026 36.176a1.9004 0.53211 0 1 1 -3.8008 0 1.9004 0.53211 0 1 1 3.8008 0z"/>
  </g>
  <g opacity=".1" fill="#e9c6af">
   <path d="m58.152 21.923a1.2163 0.72215 0 1 1 -2.4325 0 1.2163 0.72215 0 1 1 2.4325 0z"/>
   <path d="m76.776 8.24a1.6344 0.64615 0 1 1 -3.2687 0 1.6344 0.64615 0 1 1 3.2687 0z"/>
   <path d="m90.079 31.501a0.83617 0.41809 0 1 1 -1.6723 0 0.83617 0.41809 0 1 1 1.6723 0z"/>
   <path d="m35.347 36.974a1.2543 0.57012 0 1 1 -2.5085 0 1.2543 0.57012 0 1 1 2.5085 0z"/>
   <path d="m9.0459 45.792a0.64615 0.26606 0 1 1 -1.2923 0 0.64615 0.26606 0 1 1 1.2923 0z"/>
   <path d="m13.987 50.923a1.4063 0.83617 0 1 1 -2.8126 0 1.4063 0.83617 0 1 1 2.8126 0z"/>
   <path d="m36.183 59.018a0.64615 0.26606 0 1 1 -1.2923 0 0.64615 0.26606 0 1 1 1.2923 0z"/>
   <path d="m52.299 64.035a1.1402 0.57016 0 1 1 -2.2805 0 1.1402 0.57016 0 1 1 2.2805 0z"/>
   <path d="m60.813 59.36a1.3683 0.60813 0 0 1 -2.7366 0 1.3683 0.60813 0 1 1 2.7366 0z"/>
   <path d="m63.397 61.071a0.9882 0.4941 0 1 1 -1.9764 0 0.9882 0.4941 0 1 1 1.9764 0z"/>
   <path d="m12.467 73.423a1.1402 0.45613 0 0 1 -2.2805 0 1.1402 0.45613 0 1 1 2.2805 0z"/>
   <path d="m15.507 74.526a0.9502 0.41809 0 1 1 -1.9004 0 0.9502 0.41809 0 1 1 1.9004 0z"/>
   <path d="m49.106 87.144a0.8742 0.49411 0 1 1 -1.7484 0 0.8742 0.49411 0 1 1 1.7484 0z"/>
  </g>
  <path opacity=".5" d="m19.5 41.406c-1.1574 0-2.0938 0.93637-2.0938 2.0938v9c0 1.1574 0.93637 2.0938 2.0938 2.0938h21c1.1574 0 2.0938-0.93637 2.0938-2.0938v-9c0-1.1574-0.93637-2.0938-2.0938-2.0938h-21z" transform="translate(0,-28)" fill="#7f7037"/>
  <rect rx="1.5" ry="1.5" height="12" width="24" y="14" x="18" fill="url(#bu)"/>
  <path opacity=".3" d="m19.5 14c-0.831 0-1.5 0.669-1.5 1.5v0.28125c0.38313-0.53322 0.78347-1.0024 1.4375-0.53125 0.77081-0.497 1.6632-0.64878 2.5625-0.59375 1.0898-0.10845 2.5145-0.39278 3.0625 0.875 0.25396 0.41335 0.3875 1.019 0.5 0.21875 0.36482-1.0175 1.5194-1.0899 2.4375-1.0625 1.8328-0.05682 3.6669-0.1806 5.5-0.1875 1.2747 0.03031 2.5757-0.0776 3.8125 0.3125 0.87126 0.58062 1.8456-0.53133 2.5938 0.03125 0.05472 0.2652-0.64444 1.5141-0.1875 1.2812 0.26455-1.1156 1.8637-1.276 2.2188-0.125 0.02133 0.012 0.04131 0.02072 0.0625 0.03125v-0.531c0-0.831-0.669-1.5-1.5-1.5h-21z" fill="#f4d7d7"/>
  <path opacity=".3" d="m42 19.812c-0.20071 0.02776-0.41188 0.14152-0.59375 0.375-0.88527-0.3707-0.84412 0.69148-0.53125 1.1875 0.14917 0.50735 0.64387 0.66599 1.125 0.84375v-2.406zm-24 3.094v1.594c0 0.831 0.669 1.5 1.5 1.5h21c0.831 0 1.5-0.669 1.5-1.5v-0.03125c-0.46304 0.07658-0.95921 0.14408-1.25 0.375-1.3167 0.60047-2.6001-0.2783-3.9375-0.15625-1.1662 0.1405-2.2749 0.3956-3.4375 0.53125-1.4142 0.05498-2.8499-0.18702-4.25 0.125-1.4008 0.55802-2.3313-0.46982-3.0312-1.5-1.3681-0.73505-0.99136 1.8353-2.4375 1.2812-1.291-0.422-2.612 0.004-3.906-0.094-0.806-0.45-1.216-1.346-1.75-2.125z" fill="#501616"/>
  <path opacity=".5" d="m17.406 48v4.5003c0 1.1574 0.93637 2.0938 2.0938 2.0938h21c1.1574 0 2.0938-0.93637 2.0938-2.0938v-4.5z" transform="translate(12,-42)" fill="#7f7037"/>
  <rect rx="1.5" ry="1.5" height="12" width="24" y="0" x="30" fill="url(#bv)"/>
  <path opacity=".3" d="m53.938 6c-0.453 0.0629-0.723 0.3889-0.563 0.9375-0.14 0.5182 0.212 0.6468 0.625 0.75v-1.6875c-0.019 0.0017-0.044-0.0026-0.062 0zm-23.938 1.25v3.25c0 0.831 0.669 1.5 1.5 1.5h21c0.831 0 1.5-0.669 1.5-1.5v-0.875c-0.26507 0.21539-0.4878 0.46913-0.5625 0.75-0.57575 1.2809-2.0687 0.6229-3.1562 0.8125-1.2502 0.29507-2.5413 0.18223-3.8125 0.21875-1.1264 0.11033-1.358-0.96089-1.375-1.7812-0.80403 0.070726-0.81852 2.0299-1.7188 1.0938-0.7057-0.69368-0.29283 0.08315-0.21875 0.53125-0.57826 0.54987-1.7083 0.007-2.4688 0.46875-0.99899 0.56037-1.9195 0.11082-2.5-0.8125-0.55793-0.08221-0.83568 1.0574-1.6562 0.8125-1.1724 0.04933-2.3306-0.06061-3.5-0.09375-1.213 0.477-2.415-0.335-2.406-1.6562-0.567-0.9888 0.806-1.3783 0.781-2.125-0.467-0.1181-1.01-0.2639-1.406-0.5938z" fill="#501616"/>
  <path opacity=".5" d="m71.5 41.406c-1.1574 0-2.0938 0.93637-2.0938 2.0938v9c0 1.1574 0.93637 2.0938 2.0938 2.0938h21v-13.188z" fill="#7f7037"/>
  <rect rx="1.5" ry="1.5" height="12" width="24" y="42" x="70" fill="url(#bk)"/>
  <path opacity=".3" d="m73.031 42c0.42908 0.3739 0.9604 0.64797 1.4688 0.90625 1.0233-0.03516 1.9699-0.78397 3-0.1875 1.0819 0.09427 2.2961-0.44293 3.25 0.28125 0.65929 0.74519 1.2573-0.79964 2.1875-0.40625 1.334 0.21193 2.6928 0.11051 4.0312 0 1.2039-0.07328 2.6119-0.12324 3.4375 0.9375 0.102 0.338 2.092-1.531 2.092-1.531h-19.47zm-1.843 0.03125c-0.685 0.14-1.188 0.742-1.188 1.469v1.75c0.259-0.0649 0.497-0.1032 0.594-0.0938-0.36-0.9824-0.555-2.1861 0.5-2.7812 0.045-0.07688 0.059-0.22054 0.094-0.34375z" fill="#f4d7d7"/>
  <path opacity=".3" d="m70 49.25v3.25c0 0.831 0.669 1.5 1.5 1.5h21s-0.1066-1.1209-2.2187-0.8125c-1.2502 0.29507-2.5413 0.18223-3.8125 0.21875-1.1264 0.11033-1.358-0.96089-1.375-1.7812-0.80403 0.07073-0.81852 2.0299-1.7188 1.0938-0.7057-0.69368-0.29283 0.08315-0.21875 0.53125-0.57826 0.54987-1.7083 0.007-2.4688 0.46875-0.99899 0.56037-1.9195 0.11082-2.5-0.8125-0.55793-0.08221-0.83568 1.0574-1.6562 0.8125-1.1724 0.04933-2.3306-0.06061-3.5-0.09375-1.213 0.477-2.415-0.335-2.406-1.6562-0.567-0.9888 0.806-1.3783 0.781-2.125-0.467-0.1181-1.01-0.2639-1.406-0.5938z" fill="#501616"/>
  <path opacity=".5" d="m66.5 69.406c1.1574 0 2.0938 0.93637 2.0938 2.0938v9c0 1.1574-0.93637 2.0938-2.0938 2.0938h-21c-1.1574 0-2.0938-0.93637-2.0938-2.0938v-9c0-1.1574 0.93637-2.0938 2.0938-2.0938h21z" fill="#7f7037"/>
  <rect transform="scale(-1,1)" rx="1.5" ry="1.5" height="12" width="24" y="70" x="-68" fill="url(#bj)"/>
  <path opacity=".3" d="m66.5 70c0.831 0 1.5 0.669 1.5 1.5v0.28125c-0.383-0.533-0.783-1.002-1.438-0.531-0.77-0.497-1.663-0.649-2.562-0.594-1.09-0.108-2.514-0.393-3.062 0.875-0.254 0.414-0.388 1.019-0.5 0.219-0.365-1.018-1.52-1.09-2.438-1.062-1.833-0.057-3.667-0.181-5.5-0.188-1.2747 0.03031-2.5757-0.0776-3.8125 0.3125-0.87126 0.58062-1.8456-0.53133-2.5938 0.03125-0.05472 0.2652 0.64444 1.5141 0.1875 1.2812-0.26455-1.1156-1.8637-1.276-2.2188-0.125-0.02133 0.012-0.04131 0.02072-0.0625 0.03125v-0.531c0-0.831 0.669-1.5 1.5-1.5h21z" fill="#f4d7d7"/>
  <g opacity=".3" fill="#501616">
   <path d="m44 75.812c0.20071 0.02776 0.41188 0.14152 0.59375 0.375 0.88527-0.3707 0.84412 0.69148 0.53125 1.1875-0.14917 0.50735-0.64387 0.66599-1.125 0.84375v-2.406zm24 3.094v1.594c0 0.831-0.669 1.5-1.5 1.5h-21c-0.831 0-1.5-0.669-1.5-1.5v-0.03125c0.46304 0.07658 0.95921 0.14408 1.25 0.375 1.3167 0.60047 2.6001-0.2783 3.9375-0.15625 1.1662 0.1405 2.2749 0.3956 3.4375 0.53125 1.4142 0.05498 2.8499-0.18702 4.25 0.125 1.4008 0.55802 2.3313-0.46982 3.0312-1.5 1.3681-0.73505 0.99136 1.8353 2.4375 1.2812 1.291-0.422 2.612 0.004 3.906-0.094 0.806-0.45 1.216-1.346 1.75-2.125z"/>
   <path d="m35.156 22.741a1.5006 0.6967 0 0 1 -3.0011 0 1.5006 0.6967 0 1 1 3.0011 0z"/>
   <path d="m37.835 20.115a0.53591 0.32155 0 1 1 -1.0718 0 0.53591 0.32155 0 1 1 1.0718 0z"/>
   <path d="m21.329 21.884a0.75027 0.48232 0 1 1 -1.5005 0 0.75027 0.48232 0 1 1 1.5005 0z"/>
   <path d="m35.584 10.04a0.91105 0.53591 0 1 1 -1.8221 0 0.91105 0.53591 0 1 1 1.8221 0z"/>
   <path d="m74.92 45.732a1.3398 0.85746 0 1 1 -2.6796 0 1.3398 0.85746 0 1 1 2.6796 0z"/>
   <path d="m78.136 50.072a0.6967 0.48233 0 1 1 -1.3934 0 0.6967 0.48233 0 1 1 1.3934 0z"/>
   <path d="m54.127 78.529a1.7685 0.85746 0 1 1 -3.537 0 1.7685 0.85746 0 1 1 3.537 0z"/>
   <path d="m64.095 75.475a0.6967 0.37515 0 1 1 -1.3934 0 0.6967 0.37515 0 1 1 1.3934 0z"/>
   <path d="m84.459 46.268a1.0182 0.42877 0 0 1 -2.0365 0 1.0182 0.42877 0 1 1 2.0365 0z"/>
  </g>
  <g opacity=".1" fill="#f4d7d7">
   <path d="m32.369 16.525a1.1254 0.5895 0 1 1 -2.2508 0 1.1254 0.5895 0 1 1 2.2508 0z"/>
   <path d="m75.456 51.68a1.3398 0.69668 0 1 1 -2.6796 0 1.3398 0.69668 0 1 1 2.6796 0z"/>
   <path d="m81.458 47.768a2.09 1.0718 0 1 1 -4.1801 0 2.09 1.0718 0 1 1 4.1801 0z"/>
   <path d="m60.022 74.188a1.6613 0.91105 0 0 1 -3.3226 0 1.6613 0.91105 0 1 1 3.3226 0z"/>
  </g>
 </g>
 <rect transform="matrix(0,-1,-1,0,0,0)" display="none" rx="6" ry="6" height="84" width="84" y="-200" x="-90" fill="url(#cb)"/>
 <path opacity=".2" d="m12 90c-3.324 0-6-2.676-6-6v-72c0-0.33472 0.04135-0.6507 0.09375-0.96875 0.0487-0.2956 0.09704-0.59692 0.1875-0.875 0.0099-0.03 0.0209-0.063 0.0313-0.094 0.0989-0.2873 0.2349-0.547 0.375-0.812 0.1446-0.2735 0.3156-0.5356 0.5-0.7812 0.1844-0.2457 0.3738-0.4735 0.5937-0.6876 0.44-0.428 0.943-0.8145 1.5-1.0937 0.2786-0.1396 0.5735-0.2469 0.8748-0.3437-0.256 0.1002-0.4865 0.2362-0.7185 0.375-0.00741 0.0044-0.023866-0.0045-0.03125 0-0.031933 0.0193-0.062293 0.04251-0.09375 0.0625-0.1204 0.0767-0.23102 0.16351-0.34375 0.25-0.10617 0.0808-0.21328 0.16111-0.3125 0.25-0.1779 0.1614-0.3474 0.3453-0.5 0.5312-0.1075 0.1303-0.2183 0.2653-0.3124 0.4063-0.0251 0.0383-0.0385 0.0858-0.0626 0.125-0.0647 0.103-0.1302 0.2045-0.1874 0.3124-0.1011 0.1948-0.2057 0.4158-0.2813 0.625-0.008 0.0219-0.0236 0.0406-0.0313 0.0626-0.0318 0.0919-0.0358 0.1868-0.0624 0.2812-0.0304 0.1066-0.0704 0.203-0.0938 0.3125-0.0729 0.3415-0.125 0.6985-0.125 1.0625v72c0 2.7818 2.2182 5 5 5h72c2.7818 0 5-2.2182 5-5v-72c0-0.364-0.052-0.721-0.125-1.0625-0.044-0.2069-0.088-0.3977-0.156-0.5937-0.008-0.022-0.024-0.0407-0.031-0.0626-0.063-0.1737-0.139-0.3674-0.219-0.5312-0.042-0.0828-0.079-0.17-0.125-0.25-0.055-0.0972-0.127-0.1884-0.188-0.2812-0.094-0.141-0.205-0.276-0.312-0.4063-0.143-0.1745-0.303-0.347-0.469-0.5-0.011-0.0102-0.02-0.0211-0.031-0.0313-0.139-0.1255-0.285-0.2344-0.438-0.3437-0.102-0.0731-0.204-0.1534-0.312-0.2187-0.0074-0.0045-0.02384 0.0044-0.03125 0-0.23204-0.13873-0.46255-0.27478-0.71875-0.375 0.30153 0.0968 0.59646 0.20414 0.875 0.34375 0.55709 0.27922 1.0601 0.66569 1.5 1.0938 0.21997 0.21403 0.40937 0.44186 0.59375 0.6875s0.35541 0.50774 0.5 0.78125c0.14012 0.26505 0.27614 0.52473 0.375 0.8125 0.01041 0.03078 0.02133 0.06274 0.03125 0.09375 0.09046 0.27808 0.1388 0.5794 0.1875 0.875 0.053 0.318 0.094 0.634 0.094 0.969v72c0 3.324-2.676 6-6 6h-72z" fill="url(#bm)"/>
 <rect opacity=".15" transform="matrix(0,-1,-1,0,0,0)" rx="6" ry="6" height="84" width="84" y="-90" x="-90" fill="url(#ca)"/>
 <rect opacity=".1" clip-path="url(#bp)" rx="12" ry="12" height="66" filter="url(#bn)" width="66" stroke="#fff" stroke-linecap="round" y="15" x="15" stroke-width=".5" fill="url(#bl)"/>
 <path opacity=".4" d="m12 6c-3.324 0-6 2.676-6 6v72c0 0.33472 0.04135 0.6507 0.09375 0.96875 0.0487 0.2956 0.09704 0.59692 0.1875 0.875 0.00988 0.03038 0.020892 0.0636 0.03125 0.09375 0.098865 0.28777 0.23488 0.54745 0.375 0.8125 0.14459 0.27351 0.31562 0.53562 0.5 0.78125 0.18438 0.24564 0.37378 0.47347 0.59375 0.6875 0.43995 0.42806 0.94291 0.81453 1.5 1.0938 0.27854 0.13961 0.57347 0.24695 0.875 0.34375-0.2562-0.10022-0.48671-0.23627-0.71875-0.375-0.00741-0.0044-0.023866 0.0045-0.03125 0-0.0319-0.019-0.0622-0.042-0.0937-0.062-0.1204-0.077-0.231-0.164-0.3437-0.25-0.1062-0.081-0.2133-0.161-0.3126-0.25-0.1778-0.162-0.3473-0.346-0.4999-0.531-0.1075-0.131-0.2183-0.266-0.3124-0.407-0.0251-0.038-0.0385-0.086-0.0626-0.125-0.0647-0.103-0.1302-0.204-0.1874-0.312-0.1011-0.195-0.2057-0.416-0.2813-0.625-0.008-0.022-0.0236-0.041-0.0313-0.063-0.0318-0.092-0.0358-0.187-0.0624-0.281-0.0304-0.107-0.0704-0.203-0.0938-0.313-0.0729-0.341-0.125-0.698-0.125-1.062v-72c0-2.782 2.2182-5 5-5h72c2.7818 0 5 2.2182 5 5v72c0 0.3643-0.05212 0.72099-0.125 1.0625-0.04415 0.20689-0.08838 0.39766-0.15625 0.59375-0.0077 0.02195-0.0233 0.04069-0.03125 0.0625-0.06274 0.17374-0.13838 0.36745-0.21875 0.53125-0.04158 0.0828-0.07904 0.16995-0.125 0.25-0.0546 0.09721-0.12677 0.18835-0.1875 0.28125-0.09411 0.14096-0.20492 0.276-0.3125 0.40625-0.14317 0.17445-0.30314 0.347-0.46875 0.5-0.01117 0.0102-0.01998 0.02115-0.03125 0.03125-0.13839 0.12556-0.28509 0.23444-0.4375 0.34375-0.10257 0.07315-0.20432 0.15336-0.3125 0.21875-0.0074 0.0045-0.02384-0.0044-0.03125 0-0.23204 0.13873-0.46255 0.27478-0.71875 0.375 0.30153-0.0968 0.59646-0.20414 0.875-0.34375 0.55709-0.27922 1.0601-0.66569 1.5-1.0938 0.21997-0.21403 0.40937-0.44186 0.59375-0.6875s0.35541-0.50774 0.5-0.78125c0.14012-0.26505 0.27614-0.52473 0.375-0.8125 0.01041-0.03078 0.02133-0.06274 0.03125-0.09375 0.09046-0.27808 0.1388-0.5794 0.1875-0.875 0.053-0.318 0.094-0.634 0.094-0.969v-72c0-3.324-2.676-6-6-6h-72z" fill="url(#bq)"/>
</svg>
