<?xml version="1.0" encoding="UTF-8" standalone="no"?>
<svg xmlns="http://www.w3.org/2000/svg" height="96" width="96" version="1.1" xmlns:xlink="http://www.w3.org/1999/xlink">
 <defs>
  <linearGradient id="e">
   <stop stop-color="#b3b3b3" offset="0"/>
   <stop stop-color="#d2d2d2" offset="1"/>
  </linearGradient>
  <linearGradient id="c" stop-color="#fff">
   <stop offset="0"/>
   <stop stop-opacity="0" offset="1"/>
  </linearGradient>
  <filter id="ay" height="1.384" width="1.384" color-interpolation-filters="sRGB" y="-.192" x="-.192">
   <feGaussianBlur stdDeviation="5.28"/>
  </filter>
  <linearGradient id="az" y2="138.66" xlink:href="#c" gradientUnits="userSpaceOnUse" x2="48" y1="20.221" x1="48"/>
  <clipPath id="ax">
   <rect rx="6" ry="6" height="84" width="84" y="6" x="6" fill="#fff"/>
  </clipPath>
  <linearGradient id="a">
   <stop stop-opacity="0" offset="0"/>
   <stop stop-opacity="0" offset="0.3"/>
   <stop stop-opacity=".11765" offset=".5"/>
   <stop stop-opacity="0" offset="0.7"/>
   <stop stop-opacity="0" offset="1"/>
  </linearGradient>
  <linearGradient id="b" stop-color="#fff">
   <stop stop-opacity="0" offset="0"/>
   <stop stop-opacity="0" offset="0.3"/>
   <stop stop-opacity=".6124" offset=".5"/>
   <stop stop-opacity="0" offset=".75265"/>
   <stop stop-opacity="0" offset="1"/>
  </linearGradient>
  <linearGradient id="d">
   <stop stop-color="#d6d6d6" offset="0"/>
   <stop stop-color="#eaeaea" offset="1"/>
  </linearGradient>
  <linearGradient id="f" y2="7.0165" gradientUnits="userSpaceOnUse" x2="45.448" gradientTransform="matrix(1.0059 0 0 .99417 100 0)" y1="92.54" x1="45.448">
   <stop offset="0"/>
   <stop stop-opacity=".58824" offset="1"/>
  </linearGradient>
  <linearGradient id="aw" y2="6" xlink:href="#f" gradientUnits="userSpaceOnUse" x2="32.251" gradientTransform="translate(0,1)" y1="90" x1="32.251"/>
  <radialGradient id="ba" xlink:href="#c" gradientUnits="userSpaceOnUse" cy="90.172" cx="48" gradientTransform="matrix(1.1573 0 0 .99591 -7.551 .19713)" r="42"/>
  <linearGradient id="av" y2="63.893" xlink:href="#c" gradientUnits="userSpaceOnUse" x2="36.357" y1="6" x1="36.357"/>
  <linearGradient id="au" y2="5.9877" gradientUnits="userSpaceOnUse" x2="48" y1="90" x1="48">
   <stop stop-color="#b4b4b4" offset="0"/>
   <stop stop-color="#dcdcdc" offset="1"/>
  </linearGradient>
  <linearGradient id="at" y2="21.964" xlink:href="#c" gradientUnits="userSpaceOnUse" x2="25" y1="36" x1="25"/>
  <linearGradient id="as" y2="77.998" xlink:href="#d" gradientUnits="userSpaceOnUse" x2="48" gradientTransform="matrix(.21875 0 0 .21875 14.5 18.938)" y1="13.998" x1="48"/>
  <linearGradient id="ar" y2="81.071" xlink:href="#a" gradientUnits="userSpaceOnUse" x2="48" gradientTransform="matrix(-.21429 0 0 .21429 35.286 18.714)" y1="48" x1="6"/>
  <linearGradient id="aq" y2="81.071" xlink:href="#a" gradientUnits="userSpaceOnUse" x2="48" gradientTransform="matrix(.21429 0 0 .21429 14.714 18.714)" y1="48" x1="6"/>
  <linearGradient id="ap" y2="84.286" xlink:href="#b" gradientUnits="userSpaceOnUse" x2="48" gradientTransform="matrix(.21429 0 0 -.21429 14.714 39.286)" y1="48" x1="13.321"/>
  <linearGradient id="ao" y2="84.286" xlink:href="#b" gradientUnits="userSpaceOnUse" x2="48" gradientTransform="matrix(-.21429 0 0 -.21429 35.286 39.286)" y1="48" x1="13.321"/>
  <linearGradient id="an" y2="6" xlink:href="#e" gradientUnits="userSpaceOnUse" x2="32.071" gradientTransform="matrix(.21429 0 0 .21429 14.714 18.714)" y1="90" x1="63.536"/>
  <linearGradient id="am" y2="21.964" xlink:href="#c" gradientUnits="userSpaceOnUse" x2="25" gradientTransform="translate(20)" y1="36" x1="25"/>
  <linearGradient id="al" y2="77.998" xlink:href="#d" gradientUnits="userSpaceOnUse" x2="48" gradientTransform="matrix(.21875 0 0 .21875 34.5 18.938)" y1="13.998" x1="48"/>
  <linearGradient id="ak" y2="81.071" xlink:href="#a" gradientUnits="userSpaceOnUse" x2="48" gradientTransform="matrix(-.21429 0 0 .21429 55.286 18.714)" y1="48" x1="6"/>
  <linearGradient id="aj" y2="81.071" xlink:href="#a" gradientUnits="userSpaceOnUse" x2="48" gradientTransform="matrix(.21429 0 0 .21429 34.714 18.714)" y1="48" x1="6"/>
  <linearGradient id="ai" y2="84.286" xlink:href="#b" gradientUnits="userSpaceOnUse" x2="48" gradientTransform="matrix(.21429 0 0 -.21429 34.714 39.286)" y1="48" x1="13.321"/>
  <linearGradient id="ah" y2="84.286" xlink:href="#b" gradientUnits="userSpaceOnUse" x2="48" gradientTransform="matrix(-.21429 0 0 -.21429 55.286 39.286)" y1="48" x1="13.321"/>
  <linearGradient id="ag" y2="6" xlink:href="#e" gradientUnits="userSpaceOnUse" x2="32.071" gradientTransform="matrix(.21429 0 0 .21429 34.714 18.714)" y1="90" x1="63.536"/>
  <linearGradient id="af" y2="21.964" xlink:href="#c" gradientUnits="userSpaceOnUse" x2="25" gradientTransform="translate(40)" y1="36" x1="25"/>
  <linearGradient id="ae" y2="77.998" xlink:href="#d" gradientUnits="userSpaceOnUse" x2="48" gradientTransform="matrix(.21875 0 0 .21875 54.5 18.938)" y1="14" x1="48"/>
  <linearGradient id="ad" y2="81.071" xlink:href="#a" gradientUnits="userSpaceOnUse" x2="48" gradientTransform="matrix(-.21429 0 0 .21429 75.286 18.714)" y1="48" x1="6"/>
  <linearGradient id="ac" y2="81.071" xlink:href="#a" gradientUnits="userSpaceOnUse" x2="48" gradientTransform="matrix(.21429 0 0 .21429 54.714 18.714)" y1="48" x1="6"/>
  <linearGradient id="ab" y2="84.286" xlink:href="#b" gradientUnits="userSpaceOnUse" x2="48" gradientTransform="matrix(.21429 0 0 -.21429 54.714 39.286)" y1="48" x1="13.321"/>
  <linearGradient id="aa" y2="84.286" xlink:href="#b" gradientUnits="userSpaceOnUse" x2="48" gradientTransform="matrix(-.21429 0 0 -.21429 75.286 39.286)" y1="48" x1="13.321"/>
  <linearGradient id="z" y2="6" xlink:href="#e" gradientUnits="userSpaceOnUse" x2="32.071" gradientTransform="matrix(.21429 0 0 .21429 54.714 18.714)" y1="90" x1="63.536"/>
  <linearGradient id="y" y2="21.964" xlink:href="#c" gradientUnits="userSpaceOnUse" x2="25" gradientTransform="translate(6,20)" y1="36" x1="25"/>
  <linearGradient id="x" y2="77.998" xlink:href="#d" gradientUnits="userSpaceOnUse" x2="48" gradientTransform="matrix(.21875 0 0 .21875 20.5 38.938)" y1="13.998" x1="48"/>
  <linearGradient id="w" y2="81.071" xlink:href="#a" gradientUnits="userSpaceOnUse" x2="48" gradientTransform="matrix(-.21429 0 0 .21429 41.286 38.714)" y1="48" x1="6"/>
  <linearGradient id="v" y2="81.071" xlink:href="#a" gradientUnits="userSpaceOnUse" x2="48" gradientTransform="matrix(.21429 0 0 .21429 20.714 38.714)" y1="48" x1="6"/>
  <linearGradient id="u" y2="84.286" xlink:href="#b" gradientUnits="userSpaceOnUse" x2="48" gradientTransform="matrix(.21429 0 0 -.21429 20.714 59.286)" y1="48" x1="13.321"/>
  <linearGradient id="t" y2="84.286" xlink:href="#b" gradientUnits="userSpaceOnUse" x2="48" gradientTransform="matrix(-.21429 0 0 -.21429 41.286 59.286)" y1="48" x1="13.321"/>
  <linearGradient id="s" y2="6" xlink:href="#e" gradientUnits="userSpaceOnUse" x2="32.071" gradientTransform="matrix(.21429 0 0 .21429 20.714 38.714)" y1="90" x1="63.536"/>
  <linearGradient id="r" y2="21.964" xlink:href="#c" gradientUnits="userSpaceOnUse" x2="25" gradientTransform="translate(26,20)" y1="36" x1="25"/>
  <linearGradient id="q" y2="77.998" xlink:href="#d" gradientUnits="userSpaceOnUse" x2="48" gradientTransform="matrix(.21875 0 0 .21875 40.5 38.938)" y1="13.998" x1="48"/>
  <linearGradient id="p" y2="81.071" xlink:href="#a" gradientUnits="userSpaceOnUse" x2="48" gradientTransform="matrix(-.21429 0 0 .21429 61.286 38.714)" y1="48" x1="6"/>
  <linearGradient id="o" y2="81.071" xlink:href="#a" gradientUnits="userSpaceOnUse" x2="48" gradientTransform="matrix(.21429 0 0 .21429 40.714 38.714)" y1="48" x1="6"/>
  <linearGradient id="n" y2="84.286" xlink:href="#b" gradientUnits="userSpaceOnUse" x2="48" gradientTransform="matrix(.21429 0 0 -.21429 40.714 59.286)" y1="48" x1="13.321"/>
  <linearGradient id="m" y2="84.286" xlink:href="#b" gradientUnits="userSpaceOnUse" x2="48" gradientTransform="matrix(-.21429 0 0 -.21429 61.286 59.286)" y1="48" x1="13.321"/>
  <linearGradient id="l" y2="6" xlink:href="#e" gradientUnits="userSpaceOnUse" x2="32.071" gradientTransform="matrix(.21429 0 0 .21429 40.714 38.714)" y1="90" x1="63.536"/>
  <linearGradient id="k" y2="21.964" xlink:href="#c" gradientUnits="userSpaceOnUse" x2="25" gradientTransform="translate(46,20)" y1="36" x1="25"/>
  <linearGradient id="j" y2="77.998" xlink:href="#d" gradientUnits="userSpaceOnUse" x2="48" gradientTransform="matrix(.21875 0 0 .21875 60.5 38.938)" y1="13.998" x1="48"/>
  <linearGradient id="i" y2="81.071" xlink:href="#a" gradientUnits="userSpaceOnUse" x2="48" gradientTransform="matrix(-.21429 0 0 .21429 81.286 38.714)" y1="48" x1="6"/>
  <linearGradient id="h" y2="81.071" xlink:href="#a" gradientUnits="userSpaceOnUse" x2="48" gradientTransform="matrix(.21429 0 0 .21429 60.714 38.714)" y1="48" x1="6"/>
  <linearGradient id="g" y2="84.286" xlink:href="#b" gradientUnits="userSpaceOnUse" x2="48" gradientTransform="matrix(.21429 0 0 -.21429 60.714 59.286)" y1="48" x1="13.321"/>
  <linearGradient id="bs" y2="84.286" xlink:href="#b" gradientUnits="userSpaceOnUse" x2="48" gradientTransform="matrix(-.21429 0 0 -.21429 81.286 59.286)" y1="48" x1="13.321"/>
  <linearGradient id="br" y2="6" xlink:href="#e" gradientUnits="userSpaceOnUse" x2="32.071" gradientTransform="matrix(.21429 0 0 .21429 60.714 38.714)" y1="90" x1="63.536"/>
  <linearGradient id="bq" y2="21.964" xlink:href="#c" gradientUnits="userSpaceOnUse" x2="25" gradientTransform="translate(42,40)" y1="36" x1="25"/>
  <linearGradient id="bp" y2="77.998" xlink:href="#d" gradientUnits="userSpaceOnUse" x2="48" gradientTransform="matrix(.21875 0 0 .21875 56.5 58.938)" y1="13.998" x1="48"/>
  <linearGradient id="bo" y2="81.071" xlink:href="#a" gradientUnits="userSpaceOnUse" x2="48" gradientTransform="matrix(-.21429 0 0 .21429 77.286 58.714)" y1="48" x1="6"/>
  <linearGradient id="bn" y2="81.071" xlink:href="#a" gradientUnits="userSpaceOnUse" x2="48" gradientTransform="matrix(.21429 0 0 .21429 56.714 58.714)" y1="48" x1="6"/>
  <linearGradient id="bm" y2="84.286" xlink:href="#b" gradientUnits="userSpaceOnUse" x2="48" gradientTransform="matrix(.21429 0 0 -.21429 56.714 79.286)" y1="48" x1="13.321"/>
  <linearGradient id="bl" y2="84.286" xlink:href="#b" gradientUnits="userSpaceOnUse" x2="48" gradientTransform="matrix(-.21429 0 0 -.21429 77.286 79.286)" y1="48" x1="13.321"/>
  <linearGradient id="bk" y2="6" xlink:href="#e" gradientUnits="userSpaceOnUse" x2="32.071" gradientTransform="matrix(.21429 0 0 .21429 56.714 58.714)" y1="90" x1="63.536"/>
  <linearGradient id="bj" y2="21.964" xlink:href="#c" gradientUnits="userSpaceOnUse" x2="25" gradientTransform="translate(2,40)" y1="36" x1="25"/>
  <linearGradient id="bi" y2="46" xlink:href="#d" gradientUnits="userSpaceOnUse" x2="80" gradientTransform="matrix(0 .21875 -.21875 0 37.062 58.5)" y1="46" x1="16"/>
  <linearGradient id="bh" y2="81.071" xlink:href="#a" gradientUnits="userSpaceOnUse" x2="48" gradientTransform="matrix(-.21429 0 0 .21429 57.286 58.714)" y1="48" x1="6"/>
  <linearGradient id="bg" y2="81.071" xlink:href="#a" gradientUnits="userSpaceOnUse" x2="48" gradientTransform="matrix(.21429 0 0 .21429 16.714 58.714)" y1="48" x1="6"/>
  <linearGradient id="bf" y2="84.286" xlink:href="#b" gradientUnits="userSpaceOnUse" x2="48" gradientTransform="matrix(.21429 0 0 -.21429 16.714 79.286)" y1="48" x1="13.321"/>
  <linearGradient id="be" y2="84.286" xlink:href="#b" gradientUnits="userSpaceOnUse" x2="48" gradientTransform="matrix(-.21429 0 0 -.21429 57.286 79.286)" y1="48" x1="13.321"/>
  <linearGradient id="bd" y2="6" xlink:href="#e" gradientUnits="userSpaceOnUse" x2="32.071" gradientTransform="matrix(.21429 0 0 .21429 16.714 58.714)" y1="90" x1="63.536"/>
  <linearGradient id="bc" y2="5.9996" xlink:href="#f" gradientUnits="userSpaceOnUse" x2="32.251" gradientTransform="matrix(1.0238 0 0 1.0119 -1.1429 .929)" y1="90" x1="32.251"/>
  <linearGradient id="bb" y2="90.239" xlink:href="#f" gradientUnits="userSpaceOnUse" x2="32.251" gradientTransform="matrix(1.0238,0,0,-1.0119,-1.1429,98.071)" y1="6.1317" x1="32.251"/>
 </defs>
 <g fill="url(#bb)">
  <path opacity="0.08" d="m12 95.031c-5.5111 0-10.031-4.52-10.031-10.031v-71c0-5.5111 4.5202-10.031 10.031-10.031h72c5.5111 0 10.031 4.5202 10.031 10.031v71c0 5.5111-4.5202 10.031-10.031 10.031h-72z"/>
  <path opacity=".1" d="m12 94.031c-4.9716 0-9.0312-4.0596-9.0312-9.0312v-71c0-4.9722 4.0596-9.0318 9.0312-9.0318h72c4.9716 0 9.0312 4.0596 9.0312 9.0312v71c0 4.9716-4.0596 9.0312-9.0312 9.0312h-72z"/>
  <path opacity=".2" d="m12 93c-4.4091 0-8-3.591-8-8v-71c0-4.4091 3.5909-8 8-8h72c4.4091 0 8 3.5909 8 8v71c0 4.4091-3.5909 8-8 8h-72z"/>
 </g>
 <rect opacity=".3" rx="7" ry="7" height="85" width="86" y="7" x="5" fill="url(#bc)"/>
 <rect opacity=".45" rx="6" ry="6" height="84" width="84" y="7" x="6" fill="url(#aw)"/>
 <rect rx="6" ry="6" height="84" width="84" y="6" x="6" fill="url(#au)"/>
 <path opacity=".5" d="m12 6c-3.324 0-6 2.676-6 6v72c0 0.33472 0.04135 0.6507 0.09375 0.96875 0.0487 0.2956 0.09704 0.59692 0.1875 0.875 0.00988 0.03038 0.020892 0.0636 0.03125 0.09375 0.098865 0.28777 0.23488 0.54745 0.375 0.8125 0.14459 0.27351 0.31562 0.53562 0.5 0.78125 0.18438 0.24564 0.37378 0.47347 0.59375 0.6875 0.43995 0.42806 0.94291 0.81453 1.5 1.0938 0.27854 0.13961 0.57347 0.24695 0.875 0.34375-0.2562-0.10022-0.48671-0.23627-0.71875-0.375-0.00741-0.0044-0.023866 0.0045-0.03125 0-0.0319-0.019-0.0622-0.042-0.0937-0.062-0.1204-0.077-0.231-0.164-0.3437-0.25-0.1062-0.081-0.2133-0.161-0.3126-0.25-0.1778-0.162-0.3473-0.346-0.4999-0.531-0.1075-0.131-0.2183-0.266-0.3124-0.407-0.0251-0.038-0.0385-0.086-0.0626-0.125-0.0647-0.103-0.1302-0.204-0.1874-0.312-0.1011-0.195-0.2057-0.416-0.2813-0.625-0.008-0.022-0.0236-0.041-0.0313-0.063-0.0318-0.092-0.0358-0.187-0.0624-0.281-0.0304-0.107-0.0704-0.203-0.0938-0.313-0.0729-0.341-0.125-0.698-0.125-1.062v-72c0-2.782 2.2182-5 5-5h72c2.7818 0 5 2.2182 5 5v72c0 0.3643-0.05212 0.72099-0.125 1.0625-0.04415 0.20689-0.08838 0.39766-0.15625 0.59375-0.0077 0.02195-0.0233 0.04069-0.03125 0.0625-0.06274 0.17374-0.13838 0.36745-0.21875 0.53125-0.04158 0.0828-0.07904 0.16995-0.125 0.25-0.0546 0.09721-0.12677 0.18835-0.1875 0.28125-0.09411 0.14096-0.20492 0.276-0.3125 0.40625-0.14317 0.17445-0.30314 0.347-0.46875 0.5-0.01117 0.0102-0.01998 0.02115-0.03125 0.03125-0.13839 0.12556-0.28509 0.23444-0.4375 0.34375-0.10257 0.07315-0.20432 0.15336-0.3125 0.21875-0.0074 0.0045-0.02384-0.0044-0.03125 0-0.23204 0.13873-0.46255 0.27478-0.71875 0.375 0.30153-0.0968 0.59646-0.20414 0.875-0.34375 0.55709-0.27922 1.0601-0.66569 1.5-1.0938 0.21997-0.21403 0.40937-0.44186 0.59375-0.6875s0.35541-0.50774 0.5-0.78125c0.14012-0.26505 0.27614-0.52473 0.375-0.8125 0.01041-0.03078 0.02133-0.06274 0.03125-0.09375 0.09046-0.27808 0.1388-0.5794 0.1875-0.875 0.053-0.318 0.094-0.634 0.094-0.969v-72c0-3.324-2.676-6-6-6h-72z" fill="url(#av)"/>
 <path opacity=".3" d="m12 90c-3.324 0-6-2.676-6-6v-72c0-0.33472 0.04135-0.6507 0.09375-0.96875 0.0487-0.2956 0.09704-0.59692 0.1875-0.875 0.0099-0.03 0.0209-0.063 0.0313-0.094 0.0989-0.2873 0.2349-0.547 0.375-0.812 0.1446-0.2735 0.3156-0.5356 0.5-0.7812 0.1844-0.2457 0.3738-0.4735 0.5937-0.6876 0.44-0.428 0.943-0.8145 1.5-1.0937 0.2786-0.1396 0.5735-0.2469 0.8748-0.3437-0.256 0.1002-0.4865 0.2362-0.7185 0.375-0.00741 0.0044-0.023866-0.0045-0.03125 0-0.031933 0.0193-0.062293 0.04251-0.09375 0.0625-0.1204 0.0767-0.23102 0.16351-0.34375 0.25-0.10617 0.0808-0.21328 0.16111-0.3125 0.25-0.1779 0.1614-0.3474 0.3453-0.5 0.5312-0.1075 0.1303-0.2183 0.2653-0.3124 0.4063-0.0251 0.0383-0.0385 0.0858-0.0626 0.125-0.0647 0.103-0.1302 0.2045-0.1874 0.3124-0.1011 0.1948-0.2057 0.4158-0.2813 0.625-0.008 0.0219-0.0236 0.0406-0.0313 0.0626-0.0318 0.0919-0.0358 0.1868-0.0624 0.2812-0.0304 0.1066-0.0704 0.203-0.0938 0.3125-0.0729 0.3415-0.125 0.6985-0.125 1.0625v72c0 2.7818 2.2182 5 5 5h72c2.7818 0 5-2.2182 5-5v-72c0-0.364-0.052-0.721-0.125-1.0625-0.044-0.2069-0.088-0.3977-0.156-0.5937-0.008-0.022-0.024-0.0407-0.031-0.0626-0.063-0.1737-0.139-0.3674-0.219-0.5312-0.042-0.0828-0.079-0.17-0.125-0.25-0.055-0.0972-0.127-0.1884-0.188-0.2812-0.094-0.141-0.205-0.276-0.312-0.4063-0.143-0.1745-0.303-0.347-0.469-0.5-0.011-0.0102-0.02-0.0211-0.031-0.0313-0.139-0.1255-0.285-0.2344-0.438-0.3437-0.102-0.0731-0.204-0.1534-0.312-0.2187-0.0074-0.0045-0.02384 0.0044-0.03125 0-0.23204-0.13873-0.46255-0.27478-0.71875-0.375 0.30153 0.0968 0.59646 0.20414 0.875 0.34375 0.55709 0.27922 1.0601 0.66569 1.5 1.0938 0.21997 0.21403 0.40937 0.44186 0.59375 0.6875s0.35541 0.50774 0.5 0.78125c0.14012 0.26505 0.27614 0.52473 0.375 0.8125 0.01041 0.03078 0.02133 0.06274 0.03125 0.09375 0.09046 0.27808 0.1388 0.5794 0.1875 0.875 0.053 0.318 0.094 0.634 0.094 0.969v72c0 3.324-2.676 6-6 6h-72z" fill="url(#ba)"/>
 <rect opacity=".5" clip-path="url(#ax)" rx="12" ry="12" height="66" filter="url(#ay)" width="66" stroke="#fff" stroke-linecap="round" display="none" y="15" x="15" stroke-width=".5" fill="url(#az)"/>
 <path opacity=".7" style="color:#000000" d="m17 18c-1.662 0-3 1.338-3 3v16c0 1.662 1.338 3 3 3h3v18h-1c-1.662 0-3 1.338-3 3v16c0 1.662 1.338 3 3 3h56c1.662 0 3-1.338 3-3v-17h1c1.662 0 3-1.338 3-3v-16c0-1.662-1.338-3-3-3h-3v-17c0-1.662-1.338-3-3-3h-56z"/>
 <rect rx="1.3" ry="1.3" height="18" width="18" y="20" x="16" fill="url(#an)"/>
 <path d="m34 29v-7.7143c0-0.713-0.573-1.286-1.286-1.286h-7.714v9h9z" fill="url(#ao)"/>
 <path d="m16 29v-7.7143c0-0.713 0.573-1.286 1.286-1.286h7.714v9h-9z" fill="url(#ap)"/>
 <path d="m16 29v7.7143c0 0.713 0.573 1.286 1.286 1.286h7.714v-9h-9z" fill="url(#aq)"/>
 <path d="m34 29v7.7143c0 0.713-0.573 1.286-1.286 1.286h-7.714v-9h9z" fill="url(#ar)"/>
 <rect rx="1.3" ry="1.3" height="14" width="14" y="22" x="18" fill="url(#as)"/>
 <path d="m19.281 22c-0.705 0-1.281 0.576-1.281 1.281v11.438c0 0.705 0.576 1.281 1.281 1.281h11.438c0.705 0 1.281-0.576 1.281-1.281v-11.438c0-0.705-0.576-1.281-1.281-1.281h-11.438zm0 1.0938h11.438c0.11617 0 0.1875 0.07133 0.1875 0.1875v11.438c0 0.11617-0.07133 0.1875-0.1875 0.1875h-11.435c-0.11617 0-0.1875-0.07133-0.1875-0.1875v-11.438c0-0.11617 0.07133-0.1875 0.1875-0.1875z" fill="url(#at)"/>
 <path opacity=".2" d="m17.281 19c-1.245 0-2.281 1.036-2.281 2.281v15.438c0 1.245 1.036 2.281 2.281 2.281h15.438c1.245 0 2.281-1.036 2.281-2.281v-15.438c0-1.245-1.036-2.281-2.281-2.281h-15.438zm0 1h15.438c0.712 0 1.281 0.569 1.281 1.281v15.438c0 0.712-0.569 1.281-1.281 1.281h-15.438c-0.712 0-1.281-0.569-1.281-1.281v-15.438c0-0.712 0.569-1.281 1.281-1.281z" fill="#fff"/>
 <rect rx="1.3" ry="1.3" height="18" width="18" y="20" x="36" fill="url(#ag)"/>
 <path d="m54 29v-7.7143c0-0.713-0.573-1.286-1.286-1.286h-7.714v9h9z" fill="url(#ah)"/>
 <path d="m36 29v-7.7143c0-0.713 0.573-1.286 1.286-1.286h7.714v9h-9z" fill="url(#ai)"/>
 <path d="m36 29v7.7143c0 0.713 0.573 1.286 1.286 1.286h7.714v-9h-9z" fill="url(#aj)"/>
 <path d="m54 29v7.7143c0 0.713-0.573 1.286-1.286 1.286h-7.714v-9h9z" fill="url(#ak)"/>
 <rect rx="1.3" ry="1.3" height="14" width="14" y="22" x="38" fill="url(#al)"/>
 <path d="m39.281 22c-0.705 0-1.281 0.576-1.281 1.281v11.438c0 0.705 0.576 1.281 1.281 1.281h11.438c0.705 0 1.281-0.576 1.281-1.281v-11.438c0-0.705-0.576-1.281-1.281-1.281h-11.438zm0 1.0938h11.438c0.11617 0 0.1875 0.07133 0.1875 0.1875v11.438c0 0.11617-0.07133 0.1875-0.1875 0.1875h-11.435c-0.11617 0-0.1875-0.07133-0.1875-0.1875v-11.438c0-0.11617 0.07133-0.1875 0.1875-0.1875z" fill="url(#am)"/>
 <path opacity=".2" d="m37.281 19c-1.245 0-2.281 1.036-2.281 2.281v15.438c0 1.245 1.036 2.281 2.281 2.281h15.438c1.245 0 2.281-1.036 2.281-2.281v-15.438c0-1.245-1.036-2.281-2.281-2.281h-15.438zm0 1h15.438c0.712 0 1.281 0.569 1.281 1.281v15.438c0 0.712-0.569 1.281-1.281 1.281h-15.438c-0.712 0-1.281-0.569-1.281-1.281v-15.438c0-0.712 0.569-1.281 1.281-1.281z" fill="#fff"/>
 <rect rx="1.3" ry="1.3" height="18" width="18" y="20" x="56" fill="url(#z)"/>
 <path d="m74 29v-7.7143c0-0.713-0.573-1.286-1.286-1.286h-7.714v9h9z" fill="url(#aa)"/>
 <path d="m56 29v-7.7143c0-0.713 0.573-1.286 1.286-1.286h7.714v9h-9z" fill="url(#ab)"/>
 <path d="m56 29v7.7143c0 0.713 0.573 1.286 1.286 1.286h7.714v-9h-9z" fill="url(#ac)"/>
 <path d="m74 29v7.7143c0 0.713-0.573 1.286-1.286 1.286h-7.714v-9h9z" fill="url(#ad)"/>
 <rect rx="1.3" ry="1.3" height="14" width="14" y="22" x="58" fill="url(#ae)"/>
 <path d="m59.281 22c-0.705 0-1.281 0.576-1.281 1.281v11.438c0 0.705 0.576 1.281 1.281 1.281h11.438c0.705 0 1.281-0.576 1.281-1.281v-11.438c0-0.705-0.576-1.281-1.281-1.281h-11.438zm0 1.0938h11.438c0.11617 0 0.1875 0.07133 0.1875 0.1875v11.438c0 0.11617-0.07133 0.1875-0.1875 0.1875h-11.435c-0.11617 0-0.1875-0.07133-0.1875-0.1875v-11.438c0-0.11617 0.07133-0.1875 0.1875-0.1875z" fill="url(#af)"/>
 <path opacity=".2" d="m57.281 19c-1.245 0-2.281 1.036-2.281 2.281v15.438c0 1.245 1.036 2.281 2.281 2.281h15.438c1.245 0 2.281-1.036 2.281-2.281v-15.438c0-1.245-1.036-2.281-2.281-2.281h-15.438zm0 1h15.438c0.712 0 1.281 0.569 1.281 1.281v15.438c0 0.712-0.569 1.281-1.281 1.281h-15.438c-0.712 0-1.281-0.569-1.281-1.281v-15.438c0-0.712 0.569-1.281 1.281-1.281z" fill="#fff"/>
 <rect rx="1.3" ry="1.3" height="18" width="18" y="40" x="22" fill="url(#s)"/>
 <path d="m40 49v-7.7143c0-0.713-0.573-1.286-1.286-1.286h-7.714v9h9z" fill="url(#t)"/>
 <path d="m22 49v-7.7143c0-0.713 0.573-1.286 1.286-1.286h7.714v9h-9z" fill="url(#u)"/>
 <path d="m22 49v7.7143c0 0.713 0.573 1.286 1.286 1.286h7.714v-9h-9z" fill="url(#v)"/>
 <path d="m40 49v7.7143c0 0.713-0.573 1.286-1.286 1.286h-7.714v-9h9z" fill="url(#w)"/>
 <rect rx="1.3" ry="1.3" height="14" width="14" y="42" x="24" fill="url(#x)"/>
 <path d="m25.281 42c-0.705 0-1.281 0.576-1.281 1.281v11.438c0 0.705 0.576 1.281 1.281 1.281h11.438c0.705 0 1.281-0.576 1.281-1.281v-11.438c0-0.705-0.576-1.281-1.281-1.281h-11.438zm0 1.0938h11.438c0.11617 0 0.1875 0.07133 0.1875 0.1875v11.438c0 0.11617-0.07133 0.1875-0.1875 0.1875h-11.435c-0.11617 0-0.1875-0.07133-0.1875-0.1875v-11.438c0-0.11617 0.07133-0.1875 0.1875-0.1875z" fill="url(#y)"/>
 <path opacity=".2" d="m23.281 39c-1.245 0-2.281 1.036-2.281 2.281v15.438c0 1.245 1.036 2.281 2.281 2.281h15.438c1.245 0 2.281-1.036 2.281-2.281v-15.438c0-1.245-1.036-2.281-2.281-2.281h-15.438zm0 1h15.438c0.712 0 1.281 0.569 1.281 1.281v15.438c0 0.712-0.569 1.281-1.281 1.281h-15.438c-0.712 0-1.281-0.569-1.281-1.281v-15.438c0-0.712 0.569-1.281 1.281-1.281z" fill="#fff"/>
 <rect rx="1.3" ry="1.3" height="18" width="18" y="40" x="42" fill="url(#l)"/>
 <path d="m60 49v-7.7143c0-0.713-0.573-1.286-1.286-1.286h-7.714v9h9z" fill="url(#m)"/>
 <path d="m42 49v-7.7143c0-0.713 0.573-1.286 1.286-1.286h7.714v9h-9z" fill="url(#n)"/>
 <path d="m42 49v7.7143c0 0.713 0.573 1.286 1.286 1.286h7.714v-9h-9z" fill="url(#o)"/>
 <path d="m60 49v7.7143c0 0.713-0.573 1.286-1.286 1.286h-7.714v-9h9z" fill="url(#p)"/>
 <rect rx="1.3" ry="1.3" height="14" width="14" y="42" x="44" fill="url(#q)"/>
 <path d="m45.281 42c-0.705 0-1.281 0.576-1.281 1.281v11.438c0 0.705 0.576 1.281 1.281 1.281h11.438c0.705 0 1.281-0.576 1.281-1.281v-11.438c0-0.705-0.576-1.281-1.281-1.281h-11.438zm0 1.0938h11.438c0.11617 0 0.1875 0.07133 0.1875 0.1875v11.438c0 0.11617-0.07133 0.1875-0.1875 0.1875h-11.435c-0.11617 0-0.1875-0.07133-0.1875-0.1875v-11.438c0-0.11617 0.07133-0.1875 0.1875-0.1875z" fill="url(#r)"/>
 <path opacity=".2" d="m43.281 39c-1.245 0-2.281 1.036-2.281 2.281v15.438c0 1.245 1.036 2.281 2.281 2.281h15.438c1.245 0 2.281-1.036 2.281-2.281v-15.438c0-1.245-1.036-2.281-2.281-2.281h-15.438zm0 1h15.438c0.712 0 1.281 0.569 1.281 1.281v15.438c0 0.712-0.569 1.281-1.281 1.281h-15.438c-0.712 0-1.281-0.569-1.281-1.281v-15.438c0-0.712 0.569-1.281 1.281-1.281z" fill="#fff"/>
 <rect rx="1.3" ry="1.3" height="18" width="18" y="40" x="62" fill="url(#br)"/>
 <path d="m80 49v-7.7143c0-0.713-0.573-1.286-1.286-1.286h-7.714v9h9z" fill="url(#bs)"/>
 <path d="m62 49v-7.7143c0-0.713 0.573-1.286 1.286-1.286h7.714v9h-9z" fill="url(#g)"/>
 <path d="m62 49v7.7143c0 0.713 0.573 1.286 1.286 1.286h7.714v-9h-9z" fill="url(#h)"/>
 <path d="m80 49v7.7143c0 0.713-0.573 1.286-1.286 1.286h-7.714v-9h9z" fill="url(#i)"/>
 <rect rx="1.3" ry="1.3" height="14" width="14" y="42" x="64" fill="url(#j)"/>
 <path d="m65.281 42c-0.705 0-1.281 0.576-1.281 1.281v11.438c0 0.705 0.576 1.281 1.281 1.281h11.438c0.705 0 1.281-0.576 1.281-1.281v-11.438c0-0.705-0.576-1.281-1.281-1.281h-11.438zm0 1.0938h11.438c0.11617 0 0.1875 0.07133 0.1875 0.1875v11.438c0 0.11617-0.07133 0.1875-0.1875 0.1875h-11.435c-0.11617 0-0.1875-0.07133-0.1875-0.1875v-11.438c0-0.11617 0.07133-0.1875 0.1875-0.1875z" fill="url(#k)"/>
 <path opacity=".2" d="m63.281 39c-1.245 0-2.281 1.036-2.281 2.281v15.438c0 1.245 1.036 2.281 2.281 2.281h15.438c1.245 0 2.281-1.036 2.281-2.281v-15.438c0-1.245-1.036-2.281-2.281-2.281h-15.438zm0 1h15.438c0.712 0 1.281 0.569 1.281 1.281v15.438c0 0.712-0.569 1.281-1.281 1.281h-15.438c-0.712 0-1.281-0.569-1.281-1.281v-15.438c0-0.712 0.569-1.281 1.281-1.281z" fill="#fff"/>
 <rect rx="1.3" ry="1.3" height="18" width="18" y="60" x="58" fill="url(#bk)"/>
 <path d="m76 69v-7.7143c0-0.713-0.573-1.286-1.286-1.286h-7.714v9h9z" fill="url(#bl)"/>
 <path d="m58 69v-7.7143c0-0.713 0.573-1.286 1.286-1.286h7.714v9h-9z" fill="url(#bm)"/>
 <path d="m58 69v7.7143c0 0.713 0.573 1.286 1.286 1.286h7.714v-9h-9z" fill="url(#bn)"/>
 <path d="m76 69v7.7143c0 0.713-0.573 1.286-1.286 1.286h-7.714v-9h9z" fill="url(#bo)"/>
 <rect rx="1.3" ry="1.3" height="14" width="14" y="62" x="60" fill="url(#bp)"/>
 <path d="m61.281 62c-0.705 0-1.281 0.576-1.281 1.281v11.438c0 0.705 0.576 1.281 1.281 1.281h11.438c0.705 0 1.281-0.576 1.281-1.281v-11.438c0-0.705-0.576-1.281-1.281-1.281h-11.438zm0 1.0938h11.438c0.11617 0 0.1875 0.07133 0.1875 0.1875v11.438c0 0.11617-0.07133 0.1875-0.1875 0.1875h-11.435c-0.11617 0-0.1875-0.07133-0.1875-0.1875v-11.438c0-0.11617 0.07133-0.1875 0.1875-0.1875z" fill="url(#bq)"/>
 <path opacity=".2" d="m59.281 59c-1.245 0-2.281 1.036-2.281 2.281v15.438c0 1.245 1.036 2.281 2.281 2.281h15.438c1.245 0 2.281-1.036 2.281-2.281v-15.438c0-1.245-1.036-2.281-2.281-2.281h-15.438zm0 1h15.438c0.712 0 1.281 0.569 1.281 1.281v15.438c0 0.712-0.569 1.281-1.281 1.281h-15.438c-0.712 0-1.281-0.569-1.281-1.281v-15.438c0-0.712 0.569-1.281 1.281-1.281z" fill="#fff"/>
 <path d="m19.286 60h35.429c0.712 0 1.285 0.573 1.285 1.286v15.429c0 0.712-0.573 1.285-1.286 1.285h-35.428c-0.713 0-1.286-0.573-1.286-1.286v-15.428c0-0.713 0.573-1.286 1.286-1.286z" fill="url(#bd)"/>
 <path d="m56 69v-7.7143c0-0.713-0.573-1.286-1.286-1.286h-7.714v9h9z" fill="url(#be)"/>
 <path d="m18 69v-7.7143c0-0.713 0.573-1.286 1.286-1.286h7.714v9h-9z" fill="url(#bf)"/>
 <path d="m18 69v7.7143c0 0.713 0.573 1.286 1.286 1.286h7.714v-9h-9z" fill="url(#bg)"/>
 <path d="m56 69v7.7143c0 0.713-0.573 1.286-1.286 1.286h-7.714v-9h9z" fill="url(#bh)"/>
 <path d="m54 63.273v11.455c0 0.704-0.568 1.272-1.273 1.272h-31.455c-0.704 0-1.272-0.568-1.272-1.273v-11.455c0-0.704 0.568-1.272 1.273-1.272h31.455c0.704 0 1.272 0.568 1.272 1.273z" fill="url(#bi)"/>
 <path d="m21.281 62c-0.705 0-1.281 0.576-1.281 1.281v11.438c0 0.705 0.576 1.281 1.281 1.281h31.438c0.705 0 1.281-0.576 1.281-1.281v-11.438c0-0.705-0.576-1.281-1.281-1.281h-31.438zm0 1.0938h31.438c0.11617 0 0.1875 0.07133 0.1875 0.1875v11.438c0 0.11617-0.07133 0.1875-0.1875 0.1875h-31.435c-0.11617 0-0.1875-0.07133-0.1875-0.1875v-11.438c0-0.11617 0.07133-0.1875 0.1875-0.1875z" fill="url(#bj)"/>
 <path opacity=".2" d="m19.281 59c-1.245 0-2.281 1.036-2.281 2.281v15.438c0 1.245 1.036 2.281 2.281 2.281h35.438c1.245 0 2.281-1.036 2.281-2.281v-15.438c0-1.245-1.036-2.281-2.281-2.281h-35.438zm0 1h35.438c0.712 0 1.281 0.569 1.281 1.281v15.438c0 0.712-0.569 1.281-1.281 1.281h-35.438c-0.712 0-1.281-0.569-1.281-1.281v-15.438c0-0.712 0.569-1.281 1.281-1.281z" fill="#fff"/>
 <path opacity=".6" style="color:#000000" d="m14 37v1c0 1.662 1.338 3 3 3h3v-1h-3c-1.662 0-3-1.338-3-3zm68 20c0 1.662-1.338 3-3 3h-1v1h1c1.662 0 3-1.338 3-3v-1zm-66 20v1c0 1.662 1.338 3 3 3h56c1.662 0 3-1.338 3-3v-1c0 1.662-1.338 3-3 3h-56c-1.662 0-3-1.338-3-3z" fill="#fff"/>
 <g font-family="Liberation Sans" fill="#333333">
  <g font-size="10px">
   <text y="72.573997" x="23.299978">Ctrl</text>
   <text y="32.440281" x="21.66474">A</text>
   <text y="32.440022" x="41.948116">Z</text>
   <text y="32.422012" x="61.682556">E</text>
   <text y="52.439682" x="27.118195">Q</text>
   <text y="52.440231" x="47.66515">S</text>
   <text y="52.439732" x="67.391785">D</text>
  </g>
  <text font-weight="bold" transform="scale(1.119 .89363)" font-size="13.359px" y="81.689262" x="54.276627">⇧</text>
 </g>
</svg>
