<?xml version="1.0" encoding="UTF-8" standalone="no"?>
<svg xmlns="http://www.w3.org/2000/svg" height="96" width="96" version="1.1" xmlns:xlink="http://www.w3.org/1999/xlink">
 <defs>
  <linearGradient id="e">
   <stop stop-color="#b3b3b3" offset="0"/>
   <stop stop-color="#d2d2d2" offset="1"/>
  </linearGradient>
  <linearGradient id="c" stop-color="#fff">
   <stop offset="0"/>
   <stop stop-opacity="0" offset="1"/>
  </linearGradient>
  <filter id="bu" height="1.384" width="1.384" color-interpolation-filters="sRGB" y="-.192" x="-.192">
   <feGaussianBlur stdDeviation="5.28"/>
  </filter>
  <linearGradient id="g" y2="138.66" xlink:href="#c" gradientUnits="userSpaceOnUse" x2="48" y1="20.221" x1="48"/>
  <clipPath id="bt">
   <rect rx="6" ry="6" height="84" width="84" y="6" x="6" fill="#fff"/>
  </clipPath>
  <linearGradient id="a">
   <stop stop-opacity="0" offset="0"/>
   <stop stop-opacity="0" offset="0.3"/>
   <stop stop-opacity=".11765" offset=".5"/>
   <stop stop-opacity="0" offset="0.7"/>
   <stop stop-opacity="0" offset="1"/>
  </linearGradient>
  <linearGradient id="b" stop-color="#fff">
   <stop stop-opacity="0" offset="0"/>
   <stop stop-opacity="0" offset="0.3"/>
   <stop stop-opacity=".6124" offset=".5"/>
   <stop stop-opacity="0" offset=".75265"/>
   <stop stop-opacity="0" offset="1"/>
  </linearGradient>
  <linearGradient id="d">
   <stop stop-color="#d6d6d6" offset="0"/>
   <stop stop-color="#eaeaea" offset="1"/>
  </linearGradient>
  <linearGradient id="f" y2="7.0165" gradientUnits="userSpaceOnUse" x2="45.448" gradientTransform="matrix(1.0059 0 0 .99417 100 0)" y1="92.54" x1="45.448">
   <stop offset="0"/>
   <stop stop-opacity=".58824" offset="1"/>
  </linearGradient>
  <linearGradient id="bs" y2="6" xlink:href="#f" gradientUnits="userSpaceOnUse" x2="32.251" gradientTransform="translate(0,1)" y1="90" x1="32.251"/>
  <radialGradient id="h" xlink:href="#c" gradientUnits="userSpaceOnUse" cy="90.172" cx="48" gradientTransform="matrix(1.1573 0 0 .99591 -7.551 .19713)" r="42"/>
  <linearGradient id="br" y2="63.893" xlink:href="#c" gradientUnits="userSpaceOnUse" x2="36.357" y1="6" x1="36.357"/>
  <linearGradient id="bq" y2="5.9877" gradientUnits="userSpaceOnUse" x2="48" y1="90" x1="48">
   <stop stop-color="#b4b4b4" offset="0"/>
   <stop stop-color="#dcdcdc" offset="1"/>
  </linearGradient>
  <linearGradient id="bp" y2="21.964" xlink:href="#c" gradientUnits="userSpaceOnUse" x2="25" y1="36" x1="25"/>
  <linearGradient id="bo" y2="77.998" xlink:href="#d" gradientUnits="userSpaceOnUse" x2="48" gradientTransform="matrix(.21875 0 0 .21875 14.5 18.938)" y1="13.998" x1="48"/>
  <linearGradient id="bn" y2="81.071" xlink:href="#a" gradientUnits="userSpaceOnUse" x2="48" gradientTransform="matrix(-.21429 0 0 .21429 35.286 18.714)" y1="48" x1="6"/>
  <linearGradient id="bm" y2="81.071" xlink:href="#a" gradientUnits="userSpaceOnUse" x2="48" gradientTransform="matrix(.21429 0 0 .21429 14.714 18.714)" y1="48" x1="6"/>
  <linearGradient id="bl" y2="84.286" xlink:href="#b" gradientUnits="userSpaceOnUse" x2="48" gradientTransform="matrix(.21429 0 0 -.21429 14.714 39.286)" y1="48" x1="13.321"/>
  <linearGradient id="bk" y2="84.286" xlink:href="#b" gradientUnits="userSpaceOnUse" x2="48" gradientTransform="matrix(-.21429 0 0 -.21429 35.286 39.286)" y1="48" x1="13.321"/>
  <linearGradient id="bj" y2="6" xlink:href="#e" gradientUnits="userSpaceOnUse" x2="32.071" gradientTransform="matrix(.21429 0 0 .21429 14.714 18.714)" y1="90" x1="63.536"/>
  <linearGradient id="bi" y2="21.964" xlink:href="#c" gradientUnits="userSpaceOnUse" x2="25" gradientTransform="translate(20)" y1="36" x1="25"/>
  <linearGradient id="bh" y2="77.998" xlink:href="#d" gradientUnits="userSpaceOnUse" x2="48" gradientTransform="matrix(.21875 0 0 .21875 34.5 18.938)" y1="13.998" x1="48"/>
  <linearGradient id="bg" y2="81.071" xlink:href="#a" gradientUnits="userSpaceOnUse" x2="48" gradientTransform="matrix(-.21429 0 0 .21429 55.286 18.714)" y1="48" x1="6"/>
  <linearGradient id="bf" y2="81.071" xlink:href="#a" gradientUnits="userSpaceOnUse" x2="48" gradientTransform="matrix(.21429 0 0 .21429 34.714 18.714)" y1="48" x1="6"/>
  <linearGradient id="be" y2="84.286" xlink:href="#b" gradientUnits="userSpaceOnUse" x2="48" gradientTransform="matrix(.21429 0 0 -.21429 34.714 39.286)" y1="48" x1="13.321"/>
  <linearGradient id="bd" y2="84.286" xlink:href="#b" gradientUnits="userSpaceOnUse" x2="48" gradientTransform="matrix(-.21429 0 0 -.21429 55.286 39.286)" y1="48" x1="13.321"/>
  <linearGradient id="bc" y2="6" xlink:href="#e" gradientUnits="userSpaceOnUse" x2="32.071" gradientTransform="matrix(.21429 0 0 .21429 34.714 18.714)" y1="90" x1="63.536"/>
  <linearGradient id="bb" y2="21.964" xlink:href="#c" gradientUnits="userSpaceOnUse" x2="25" gradientTransform="translate(40)" y1="36" x1="25"/>
  <linearGradient id="ba" y2="77.998" xlink:href="#d" gradientUnits="userSpaceOnUse" x2="48" gradientTransform="matrix(.21875 0 0 .21875 54.5 18.938)" y1="14" x1="48"/>
  <linearGradient id="az" y2="81.071" xlink:href="#a" gradientUnits="userSpaceOnUse" x2="48" gradientTransform="matrix(-.21429 0 0 .21429 75.286 18.714)" y1="48" x1="6"/>
  <linearGradient id="ay" y2="81.071" xlink:href="#a" gradientUnits="userSpaceOnUse" x2="48" gradientTransform="matrix(.21429 0 0 .21429 54.714 18.714)" y1="48" x1="6"/>
  <linearGradient id="ax" y2="84.286" xlink:href="#b" gradientUnits="userSpaceOnUse" x2="48" gradientTransform="matrix(.21429 0 0 -.21429 54.714 39.286)" y1="48" x1="13.321"/>
  <linearGradient id="aw" y2="84.286" xlink:href="#b" gradientUnits="userSpaceOnUse" x2="48" gradientTransform="matrix(-.21429 0 0 -.21429 75.286 39.286)" y1="48" x1="13.321"/>
  <linearGradient id="av" y2="6" xlink:href="#e" gradientUnits="userSpaceOnUse" x2="32.071" gradientTransform="matrix(.21429 0 0 .21429 54.714 18.714)" y1="90" x1="63.536"/>
  <linearGradient id="au" y2="21.964" xlink:href="#c" gradientUnits="userSpaceOnUse" x2="25" gradientTransform="translate(6,20)" y1="36" x1="25"/>
  <linearGradient id="at" y2="77.998" xlink:href="#d" gradientUnits="userSpaceOnUse" x2="48" gradientTransform="matrix(.21875 0 0 .21875 20.5 38.938)" y1="13.998" x1="48"/>
  <linearGradient id="as" y2="81.071" xlink:href="#a" gradientUnits="userSpaceOnUse" x2="48" gradientTransform="matrix(-.21429 0 0 .21429 41.286 38.714)" y1="48" x1="6"/>
  <linearGradient id="ar" y2="81.071" xlink:href="#a" gradientUnits="userSpaceOnUse" x2="48" gradientTransform="matrix(.21429 0 0 .21429 20.714 38.714)" y1="48" x1="6"/>
  <linearGradient id="aq" y2="84.286" xlink:href="#b" gradientUnits="userSpaceOnUse" x2="48" gradientTransform="matrix(.21429 0 0 -.21429 20.714 59.286)" y1="48" x1="13.321"/>
  <linearGradient id="ap" y2="84.286" xlink:href="#b" gradientUnits="userSpaceOnUse" x2="48" gradientTransform="matrix(-.21429 0 0 -.21429 41.286 59.286)" y1="48" x1="13.321"/>
  <linearGradient id="ao" y2="6" xlink:href="#e" gradientUnits="userSpaceOnUse" x2="32.071" gradientTransform="matrix(.21429 0 0 .21429 20.714 38.714)" y1="90" x1="63.536"/>
  <linearGradient id="an" y2="21.964" xlink:href="#c" gradientUnits="userSpaceOnUse" x2="25" gradientTransform="translate(26,20)" y1="36" x1="25"/>
  <linearGradient id="am" y2="77.998" xlink:href="#d" gradientUnits="userSpaceOnUse" x2="48" gradientTransform="matrix(.21875 0 0 .21875 40.5 38.938)" y1="13.998" x1="48"/>
  <linearGradient id="al" y2="81.071" xlink:href="#a" gradientUnits="userSpaceOnUse" x2="48" gradientTransform="matrix(-.21429 0 0 .21429 61.286 38.714)" y1="48" x1="6"/>
  <linearGradient id="ak" y2="81.071" xlink:href="#a" gradientUnits="userSpaceOnUse" x2="48" gradientTransform="matrix(.21429 0 0 .21429 40.714 38.714)" y1="48" x1="6"/>
  <linearGradient id="aj" y2="84.286" xlink:href="#b" gradientUnits="userSpaceOnUse" x2="48" gradientTransform="matrix(.21429 0 0 -.21429 40.714 59.286)" y1="48" x1="13.321"/>
  <linearGradient id="ai" y2="84.286" xlink:href="#b" gradientUnits="userSpaceOnUse" x2="48" gradientTransform="matrix(-.21429 0 0 -.21429 61.286 59.286)" y1="48" x1="13.321"/>
  <linearGradient id="ah" y2="6" xlink:href="#e" gradientUnits="userSpaceOnUse" x2="32.071" gradientTransform="matrix(.21429 0 0 .21429 40.714 38.714)" y1="90" x1="63.536"/>
  <linearGradient id="ag" y2="21.964" xlink:href="#c" gradientUnits="userSpaceOnUse" x2="25" gradientTransform="translate(46,20)" y1="36" x1="25"/>
  <linearGradient id="af" y2="77.998" xlink:href="#d" gradientUnits="userSpaceOnUse" x2="48" gradientTransform="matrix(.21875 0 0 .21875 60.5 38.938)" y1="13.998" x1="48"/>
  <linearGradient id="ae" y2="81.071" xlink:href="#a" gradientUnits="userSpaceOnUse" x2="48" gradientTransform="matrix(-.21429 0 0 .21429 81.286 38.714)" y1="48" x1="6"/>
  <linearGradient id="ad" y2="81.071" xlink:href="#a" gradientUnits="userSpaceOnUse" x2="48" gradientTransform="matrix(.21429 0 0 .21429 60.714 38.714)" y1="48" x1="6"/>
  <linearGradient id="ab" y2="84.286" xlink:href="#b" gradientUnits="userSpaceOnUse" x2="48" gradientTransform="matrix(.21429 0 0 -.21429 60.714 59.286)" y1="48" x1="13.321"/>
  <linearGradient id="z" y2="84.286" xlink:href="#b" gradientUnits="userSpaceOnUse" x2="48" gradientTransform="matrix(-.21429 0 0 -.21429 81.286 59.286)" y1="48" x1="13.321"/>
  <linearGradient id="y" y2="6" xlink:href="#e" gradientUnits="userSpaceOnUse" x2="32.071" gradientTransform="matrix(.21429 0 0 .21429 60.714 38.714)" y1="90" x1="63.536"/>
  <linearGradient id="x" y2="21.964" xlink:href="#c" gradientUnits="userSpaceOnUse" x2="25" gradientTransform="translate(42,40)" y1="36" x1="25"/>
  <linearGradient id="w" y2="77.998" xlink:href="#d" gradientUnits="userSpaceOnUse" x2="48" gradientTransform="matrix(.21875 0 0 .21875 56.5 58.938)" y1="13.998" x1="48"/>
  <linearGradient id="v" y2="81.071" xlink:href="#a" gradientUnits="userSpaceOnUse" x2="48" gradientTransform="matrix(-.21429 0 0 .21429 77.286 58.714)" y1="48" x1="6"/>
  <linearGradient id="u" y2="81.071" xlink:href="#a" gradientUnits="userSpaceOnUse" x2="48" gradientTransform="matrix(.21429 0 0 .21429 56.714 58.714)" y1="48" x1="6"/>
  <linearGradient id="t" y2="84.286" xlink:href="#b" gradientUnits="userSpaceOnUse" x2="48" gradientTransform="matrix(.21429 0 0 -.21429 56.714 79.286)" y1="48" x1="13.321"/>
  <linearGradient id="s" y2="84.286" xlink:href="#b" gradientUnits="userSpaceOnUse" x2="48" gradientTransform="matrix(-.21429 0 0 -.21429 77.286 79.286)" y1="48" x1="13.321"/>
  <linearGradient id="r" y2="6" xlink:href="#e" gradientUnits="userSpaceOnUse" x2="32.071" gradientTransform="matrix(.21429 0 0 .21429 56.714 58.714)" y1="90" x1="63.536"/>
  <linearGradient id="q" y2="21.964" xlink:href="#c" gradientUnits="userSpaceOnUse" x2="25" gradientTransform="translate(2,40)" y1="36" x1="25"/>
  <linearGradient id="p" y2="46" xlink:href="#d" gradientUnits="userSpaceOnUse" x2="80" gradientTransform="matrix(0 .21875 -.21875 0 37.062 58.5)" y1="46" x1="16"/>
  <linearGradient id="o" y2="81.071" xlink:href="#a" gradientUnits="userSpaceOnUse" x2="48" gradientTransform="matrix(-.21429 0 0 .21429 57.286 58.714)" y1="48" x1="6"/>
  <linearGradient id="n" y2="81.071" xlink:href="#a" gradientUnits="userSpaceOnUse" x2="48" gradientTransform="matrix(.21429 0 0 .21429 16.714 58.714)" y1="48" x1="6"/>
  <linearGradient id="m" y2="84.286" xlink:href="#b" gradientUnits="userSpaceOnUse" x2="48" gradientTransform="matrix(.21429 0 0 -.21429 16.714 79.286)" y1="48" x1="13.321"/>
  <linearGradient id="l" y2="84.286" xlink:href="#b" gradientUnits="userSpaceOnUse" x2="48" gradientTransform="matrix(-.21429 0 0 -.21429 57.286 79.286)" y1="48" x1="13.321"/>
  <linearGradient id="k" y2="6" xlink:href="#e" gradientUnits="userSpaceOnUse" x2="32.071" gradientTransform="matrix(.21429 0 0 .21429 16.714 58.714)" y1="90" x1="63.536"/>
  <linearGradient id="j" y2="5.9996" xlink:href="#f" gradientUnits="userSpaceOnUse" x2="32.251" gradientTransform="matrix(1.0238 0 0 1.0119 -1.1429 .929)" y1="90" x1="32.251"/>
  <linearGradient id="i" y2="90.239" xlink:href="#f" gradientUnits="userSpaceOnUse" x2="32.251" gradientTransform="matrix(1.0238,0,0,-1.0119,-1.1429,98.071)" y1="6.1317" x1="32.251"/>
 </defs>
 <g fill="url(#i)">
  <path opacity="0.08" d="m12 95.031c-5.5111 0-10.031-4.52-10.031-10.031v-71c0-5.5111 4.5202-10.031 10.031-10.031h72c5.5111 0 10.031 4.5202 10.031 10.031v71c0 5.5111-4.5202 10.031-10.031 10.031h-72z"/>
  <path opacity=".1" d="m12 94.031c-4.9716 0-9.0312-4.0596-9.0312-9.0312v-71c0-4.9718 4.0596-9.0314 9.0312-9.0314h72c4.9716 0 9.0312 4.0596 9.0312 9.0312v71c0 4.9716-4.0596 9.0312-9.0312 9.0312h-72z"/>
  <path opacity=".2" d="m12 93c-4.4091 0-8-3.591-8-8v-71c0-4.4091 3.5909-8 8-8h72c4.4091 0 8 3.5909 8 8v71c0 4.4091-3.5909 8-8 8h-72z"/>
 </g>
 <rect opacity=".3" rx="7" ry="7" height="85" width="86" y="7" x="5" fill="url(#j)"/>
 <rect opacity=".45" rx="6" ry="6" height="84" width="84" y="7" x="6" fill="url(#bs)"/>
 <rect rx="6" ry="6" height="84" width="84" y="6" x="6" fill="url(#bq)"/>
 <path opacity=".5" d="m12 6c-3.324 0-6 2.676-6 6v72c0 0.33472 0.04135 0.6507 0.09375 0.96875 0.0487 0.2956 0.09704 0.59692 0.1875 0.875 0.00988 0.03038 0.020892 0.0636 0.03125 0.09375 0.098865 0.28777 0.23488 0.54745 0.375 0.8125 0.14459 0.27351 0.31562 0.53562 0.5 0.78125 0.18438 0.24564 0.37378 0.47347 0.59375 0.6875 0.43995 0.42806 0.94291 0.81453 1.5 1.0938 0.27854 0.13961 0.57347 0.24695 0.875 0.34375-0.2562-0.10022-0.48671-0.23627-0.71875-0.375-0.00741-0.0044-0.023866 0.0045-0.03125 0-0.0319-0.019-0.0622-0.042-0.0937-0.062-0.1204-0.077-0.231-0.164-0.3437-0.25-0.1062-0.081-0.2133-0.161-0.3126-0.25-0.1778-0.162-0.3473-0.346-0.4999-0.531-0.1075-0.131-0.2183-0.266-0.3124-0.407-0.0251-0.038-0.0385-0.086-0.0626-0.125-0.0647-0.103-0.1302-0.204-0.1874-0.312-0.1011-0.195-0.2057-0.416-0.2813-0.625-0.008-0.022-0.0236-0.041-0.0313-0.063-0.0318-0.092-0.0358-0.187-0.0624-0.281-0.0304-0.107-0.0704-0.203-0.0938-0.313-0.0729-0.341-0.125-0.698-0.125-1.062v-72c0-2.782 2.2182-5 5-5h72c2.7818 0 5 2.2182 5 5v72c0 0.3643-0.05212 0.72099-0.125 1.0625-0.04415 0.20689-0.08838 0.39766-0.15625 0.59375-0.0077 0.02195-0.0233 0.04069-0.03125 0.0625-0.06274 0.17374-0.13838 0.36745-0.21875 0.53125-0.04158 0.0828-0.07904 0.16995-0.125 0.25-0.0546 0.09721-0.12677 0.18835-0.1875 0.28125-0.09411 0.14096-0.20492 0.276-0.3125 0.40625-0.14317 0.17445-0.30314 0.347-0.46875 0.5-0.01117 0.0102-0.01998 0.02115-0.03125 0.03125-0.13839 0.12556-0.28509 0.23444-0.4375 0.34375-0.10257 0.07315-0.20432 0.15336-0.3125 0.21875-0.0074 0.0045-0.02384-0.0044-0.03125 0-0.23204 0.13873-0.46255 0.27478-0.71875 0.375 0.30153-0.0968 0.59646-0.20414 0.875-0.34375 0.55709-0.27922 1.0601-0.66569 1.5-1.0938 0.21997-0.21403 0.40937-0.44186 0.59375-0.6875s0.35541-0.50774 0.5-0.78125c0.14012-0.26505 0.27614-0.52473 0.375-0.8125 0.01041-0.03078 0.02133-0.06274 0.03125-0.09375 0.09046-0.27808 0.1388-0.5794 0.1875-0.875 0.053-0.318 0.094-0.634 0.094-0.969v-72c0-3.324-2.676-6-6-6h-72z" fill="url(#br)"/>
 <path opacity=".3" d="m12 90c-3.324 0-6-2.676-6-6v-72c0-0.33472 0.04135-0.6507 0.09375-0.96875 0.0487-0.2956 0.09704-0.59692 0.1875-0.875 0.0099-0.03 0.0209-0.063 0.0313-0.094 0.0989-0.2873 0.2349-0.547 0.375-0.812 0.1446-0.2735 0.3156-0.5356 0.5-0.7812 0.1844-0.2457 0.3738-0.4735 0.5937-0.6876 0.44-0.428 0.943-0.8145 1.5-1.0937 0.2786-0.1396 0.5735-0.2469 0.8748-0.3437-0.256 0.1002-0.4865 0.2362-0.7185 0.375-0.00741 0.0044-0.023866-0.0045-0.03125 0-0.031933 0.0193-0.062293 0.04251-0.09375 0.0625-0.1204 0.0767-0.23102 0.16351-0.34375 0.25-0.10617 0.0808-0.21328 0.16111-0.3125 0.25-0.1779 0.1614-0.3474 0.3453-0.5 0.5312-0.1075 0.1303-0.2183 0.2653-0.3124 0.4063-0.0251 0.0383-0.0385 0.0858-0.0626 0.125-0.0647 0.103-0.1302 0.2045-0.1874 0.3124-0.1011 0.1948-0.2057 0.4158-0.2813 0.625-0.008 0.0219-0.0236 0.0406-0.0313 0.0626-0.0318 0.0919-0.0358 0.1868-0.0624 0.2812-0.0304 0.1066-0.0704 0.203-0.0938 0.3125-0.0729 0.3415-0.125 0.6985-0.125 1.0625v72c0 2.7818 2.2182 5 5 5h72c2.7818 0 5-2.2182 5-5v-72c0-0.364-0.052-0.721-0.125-1.0625-0.044-0.2069-0.088-0.3977-0.156-0.5937-0.008-0.022-0.024-0.0407-0.031-0.0626-0.063-0.1737-0.139-0.3674-0.219-0.5312-0.042-0.0828-0.079-0.17-0.125-0.25-0.055-0.0972-0.127-0.1884-0.188-0.2812-0.094-0.141-0.205-0.276-0.312-0.4063-0.143-0.1745-0.303-0.347-0.469-0.5-0.011-0.0102-0.02-0.0211-0.031-0.0313-0.139-0.1255-0.285-0.2344-0.438-0.3437-0.102-0.0731-0.204-0.1534-0.312-0.2187-0.0074-0.0045-0.02384 0.0044-0.03125 0-0.23204-0.13873-0.46255-0.27478-0.71875-0.375 0.30153 0.0968 0.59646 0.20414 0.875 0.34375 0.55709 0.27922 1.0601 0.66569 1.5 1.0938 0.21997 0.21403 0.40937 0.44186 0.59375 0.6875s0.35541 0.50774 0.5 0.78125c0.14012 0.26505 0.27614 0.52473 0.375 0.8125 0.01041 0.03078 0.02133 0.06274 0.03125 0.09375 0.09046 0.27808 0.1388 0.5794 0.1875 0.875 0.053 0.318 0.094 0.634 0.094 0.969v72c0 3.324-2.676 6-6 6h-72z" fill="url(#h)"/>
 <rect opacity=".5" clip-path="url(#bt)" rx="12" ry="12" height="66" filter="url(#bu)" width="66" stroke="#fff" stroke-linecap="round" display="none" y="15" x="15" stroke-width=".5" fill="url(#g)"/>
 <path opacity=".7" style="color:#000000" d="m17 18c-1.662 0-3 1.338-3 3v16c0 1.662 1.338 3 3 3h3v18h-1c-1.662 0-3 1.338-3 3v16c0 1.662 1.338 3 3 3h56c1.662 0 3-1.338 3-3v-17h1c1.662 0 3-1.338 3-3v-16c0-1.662-1.338-3-3-3h-3v-17c0-1.662-1.338-3-3-3h-56z"/>
 <rect rx="1.3" ry="1.3" height="18" width="18" y="20" x="16" fill="url(#bj)"/>
 <path d="m34 29v-7.7143c0-0.713-0.573-1.286-1.286-1.286h-7.714v9h9z" fill="url(#bk)"/>
 <path d="m16 29v-7.7143c0-0.713 0.573-1.286 1.286-1.286h7.714v9h-9z" fill="url(#bl)"/>
 <path d="m16 29v7.7143c0 0.713 0.573 1.286 1.286 1.286h7.714v-9h-9z" fill="url(#bm)"/>
 <path d="m34 29v7.7143c0 0.713-0.573 1.286-1.286 1.286h-7.714v-9h9z" fill="url(#bn)"/>
 <rect rx="1.3" ry="1.3" height="14" width="14" y="22" x="18" fill="url(#bo)"/>
 <path d="m19.281 22c-0.705 0-1.281 0.576-1.281 1.281v11.438c0 0.705 0.576 1.281 1.281 1.281h11.438c0.705 0 1.281-0.576 1.281-1.281v-11.438c0-0.705-0.576-1.281-1.281-1.281h-11.438zm0 1.0938h11.438c0.11617 0 0.1875 0.07133 0.1875 0.1875v11.438c0 0.11617-0.07133 0.1875-0.1875 0.1875h-11.437c-0.11617 0-0.1875-0.07133-0.1875-0.1875v-11.438c0-0.11617 0.07133-0.1875 0.1875-0.1875z" fill="url(#bp)"/>
 <path opacity=".2" d="m17.281 19c-1.245 0-2.281 1.036-2.281 2.281v15.438c0 1.245 1.036 2.281 2.281 2.281h15.438c1.245 0 2.281-1.036 2.281-2.281v-15.438c0-1.245-1.036-2.281-2.281-2.281h-15.438zm0 1h15.438c0.712 0 1.281 0.569 1.281 1.281v15.438c0 0.712-0.569 1.281-1.281 1.281h-15.438c-0.712 0-1.281-0.569-1.281-1.281v-15.438c0-0.712 0.569-1.281 1.281-1.281z" fill="#fff"/>
 <rect rx="1.3" ry="1.3" height="18" width="18" y="20" x="36" fill="url(#bc)"/>
 <path d="m54 29v-7.7143c0-0.713-0.573-1.286-1.286-1.286h-7.714v9h9z" fill="url(#bd)"/>
 <path d="m36 29v-7.7143c0-0.713 0.573-1.286 1.286-1.286h7.714v9h-9z" fill="url(#be)"/>
 <path d="m36 29v7.7143c0 0.713 0.573 1.286 1.286 1.286h7.714v-9h-9z" fill="url(#bf)"/>
 <path d="m54 29v7.7143c0 0.713-0.573 1.286-1.286 1.286h-7.714v-9h9z" fill="url(#bg)"/>
 <rect rx="1.3" ry="1.3" height="14" width="14" y="22" x="38" fill="url(#bh)"/>
 <path d="m39.281 22c-0.705 0-1.281 0.576-1.281 1.281v11.438c0 0.705 0.576 1.281 1.281 1.281h11.438c0.705 0 1.281-0.576 1.281-1.281v-11.438c0-0.705-0.576-1.281-1.281-1.281h-11.438zm0 1.0938h11.438c0.11617 0 0.1875 0.07133 0.1875 0.1875v11.438c0 0.11617-0.07133 0.1875-0.1875 0.1875h-11.437c-0.11617 0-0.1875-0.07133-0.1875-0.1875v-11.438c0-0.11617 0.07133-0.1875 0.1875-0.1875z" fill="url(#bi)"/>
 <path opacity=".2" d="m37.281 19c-1.245 0-2.281 1.036-2.281 2.281v15.438c0 1.245 1.036 2.281 2.281 2.281h15.438c1.245 0 2.281-1.036 2.281-2.281v-15.438c0-1.245-1.036-2.281-2.281-2.281h-15.438zm0 1h15.438c0.712 0 1.281 0.569 1.281 1.281v15.438c0 0.712-0.569 1.281-1.281 1.281h-15.438c-0.712 0-1.281-0.569-1.281-1.281v-15.438c0-0.712 0.569-1.281 1.281-1.281z" fill="#fff"/>
 <rect rx="1.3" ry="1.3" height="18" width="18" y="20" x="56" fill="url(#av)"/>
 <path d="m74 29v-7.7143c0-0.713-0.573-1.286-1.286-1.286h-7.714v9h9z" fill="url(#aw)"/>
 <path d="m56 29v-7.7143c0-0.713 0.573-1.286 1.286-1.286h7.714v9h-9z" fill="url(#ax)"/>
 <path d="m56 29v7.7143c0 0.713 0.573 1.286 1.286 1.286h7.714v-9h-9z" fill="url(#ay)"/>
 <path d="m74 29v7.7143c0 0.713-0.573 1.286-1.286 1.286h-7.714v-9h9z" fill="url(#az)"/>
 <rect rx="1.3" ry="1.3" height="14" width="14" y="22" x="58" fill="url(#ba)"/>
 <path d="m59.281 22c-0.705 0-1.281 0.576-1.281 1.281v11.438c0 0.705 0.576 1.281 1.281 1.281h11.438c0.705 0 1.281-0.576 1.281-1.281v-11.438c0-0.705-0.576-1.281-1.281-1.281h-11.438zm0 1.0938h11.438c0.11617 0 0.1875 0.07133 0.1875 0.1875v11.438c0 0.11617-0.07133 0.1875-0.1875 0.1875h-11.437c-0.11617 0-0.1875-0.07133-0.1875-0.1875v-11.438c0-0.11617 0.07133-0.1875 0.1875-0.1875z" fill="url(#bb)"/>
 <path opacity=".2" d="m57.281 19c-1.245 0-2.281 1.036-2.281 2.281v15.438c0 1.245 1.036 2.281 2.281 2.281h15.438c1.245 0 2.281-1.036 2.281-2.281v-15.438c0-1.245-1.036-2.281-2.281-2.281h-15.438zm0 1h15.438c0.712 0 1.281 0.569 1.281 1.281v15.438c0 0.712-0.569 1.281-1.281 1.281h-15.438c-0.712 0-1.281-0.569-1.281-1.281v-15.438c0-0.712 0.569-1.281 1.281-1.281z" fill="#fff"/>
 <rect rx="1.3" ry="1.3" height="18" width="18" y="40" x="22" fill="url(#ao)"/>
 <path d="m40 49v-7.7143c0-0.713-0.573-1.286-1.286-1.286h-7.714v9h9z" fill="url(#ap)"/>
 <path d="m22 49v-7.7143c0-0.713 0.573-1.286 1.286-1.286h7.714v9h-9z" fill="url(#aq)"/>
 <path d="m22 49v7.7143c0 0.713 0.573 1.286 1.286 1.286h7.714v-9h-9z" fill="url(#ar)"/>
 <path d="m40 49v7.7143c0 0.713-0.573 1.286-1.286 1.286h-7.714v-9h9z" fill="url(#as)"/>
 <rect rx="1.3" ry="1.3" height="14" width="14" y="42" x="24" fill="url(#at)"/>
 <path d="m25.281 42c-0.705 0-1.281 0.576-1.281 1.281v11.438c0 0.705 0.576 1.281 1.281 1.281h11.438c0.705 0 1.281-0.576 1.281-1.281v-11.438c0-0.705-0.576-1.281-1.281-1.281h-11.438zm0 1.0938h11.438c0.11617 0 0.1875 0.07133 0.1875 0.1875v11.438c0 0.11617-0.07133 0.1875-0.1875 0.1875h-11.437c-0.11617 0-0.1875-0.07133-0.1875-0.1875v-11.438c0-0.11617 0.07133-0.1875 0.1875-0.1875z" fill="url(#au)"/>
 <path opacity=".2" d="m23.281 39c-1.245 0-2.281 1.036-2.281 2.281v15.438c0 1.245 1.036 2.281 2.281 2.281h15.438c1.245 0 2.281-1.036 2.281-2.281v-15.438c0-1.245-1.036-2.281-2.281-2.281h-15.438zm0 1h15.438c0.712 0 1.281 0.569 1.281 1.281v15.438c0 0.712-0.569 1.281-1.281 1.281h-15.438c-0.712 0-1.281-0.569-1.281-1.281v-15.438c0-0.712 0.569-1.281 1.281-1.281z" fill="#fff"/>
 <rect rx="1.3" ry="1.3" height="18" width="18" y="40" x="42" fill="url(#ah)"/>
 <path d="m60 49v-7.7143c0-0.713-0.573-1.286-1.286-1.286h-7.714v9h9z" fill="url(#ai)"/>
 <path d="m42 49v-7.7143c0-0.713 0.573-1.286 1.286-1.286h7.714v9h-9z" fill="url(#aj)"/>
 <path d="m42 49v7.7143c0 0.713 0.573 1.286 1.286 1.286h7.714v-9h-9z" fill="url(#ak)"/>
 <path d="m60 49v7.7143c0 0.713-0.573 1.286-1.286 1.286h-7.714v-9h9z" fill="url(#al)"/>
 <rect rx="1.3" ry="1.3" height="14" width="14" y="42" x="44" fill="url(#am)"/>
 <path d="m45.281 42c-0.705 0-1.281 0.576-1.281 1.281v11.438c0 0.705 0.576 1.281 1.281 1.281h11.438c0.705 0 1.281-0.576 1.281-1.281v-11.438c0-0.705-0.576-1.281-1.281-1.281h-11.438zm0 1.0938h11.438c0.11617 0 0.1875 0.07133 0.1875 0.1875v11.438c0 0.11617-0.07133 0.1875-0.1875 0.1875h-11.437c-0.11617 0-0.1875-0.07133-0.1875-0.1875v-11.438c0-0.11617 0.07133-0.1875 0.1875-0.1875z" fill="url(#an)"/>
 <path opacity=".2" d="m43.281 39c-1.245 0-2.281 1.036-2.281 2.281v15.438c0 1.245 1.036 2.281 2.281 2.281h15.438c1.245 0 2.281-1.036 2.281-2.281v-15.438c0-1.245-1.036-2.281-2.281-2.281h-15.438zm0 1h15.438c0.712 0 1.281 0.569 1.281 1.281v15.438c0 0.712-0.569 1.281-1.281 1.281h-15.438c-0.712 0-1.281-0.569-1.281-1.281v-15.438c0-0.712 0.569-1.281 1.281-1.281z" fill="#fff"/>
 <rect rx="1.3" ry="1.3" height="18" width="18" y="40" x="62" fill="url(#y)"/>
 <path d="m80 49v-7.7143c0-0.713-0.573-1.286-1.286-1.286h-7.714v9h9z" fill="url(#z)"/>
 <path d="m62 49v-7.7143c0-0.713 0.573-1.286 1.286-1.286h7.714v9h-9z" fill="url(#ab)"/>
 <path d="m62 49v7.7143c0 0.713 0.573 1.286 1.286 1.286h7.714v-9h-9z" fill="url(#ad)"/>
 <path d="m80 49v7.7143c0 0.713-0.573 1.286-1.286 1.286h-7.714v-9h9z" fill="url(#ae)"/>
 <rect rx="1.3" ry="1.3" height="14" width="14" y="42" x="64" fill="url(#af)"/>
 <path d="m65.281 42c-0.705 0-1.281 0.576-1.281 1.281v11.438c0 0.705 0.576 1.281 1.281 1.281h11.438c0.705 0 1.281-0.576 1.281-1.281v-11.438c0-0.705-0.576-1.281-1.281-1.281h-11.438zm0 1.0938h11.438c0.11617 0 0.1875 0.07133 0.1875 0.1875v11.438c0 0.11617-0.07133 0.1875-0.1875 0.1875h-11.437c-0.11617 0-0.1875-0.07133-0.1875-0.1875v-11.438c0-0.11617 0.07133-0.1875 0.1875-0.1875z" fill="url(#ag)"/>
 <path opacity=".2" d="m63.281 39c-1.245 0-2.281 1.036-2.281 2.281v15.438c0 1.245 1.036 2.281 2.281 2.281h15.438c1.245 0 2.281-1.036 2.281-2.281v-15.438c0-1.245-1.036-2.281-2.281-2.281h-15.438zm0 1h15.438c0.712 0 1.281 0.569 1.281 1.281v15.438c0 0.712-0.569 1.281-1.281 1.281h-15.438c-0.712 0-1.281-0.569-1.281-1.281v-15.438c0-0.712 0.569-1.281 1.281-1.281z" fill="#fff"/>
 <rect rx="1.3" ry="1.3" height="18" width="18" y="60" x="58" fill="url(#r)"/>
 <path d="m76 69v-7.7143c0-0.713-0.573-1.286-1.286-1.286h-7.714v9h9z" fill="url(#s)"/>
 <path d="m58 69v-7.7143c0-0.713 0.573-1.286 1.286-1.286h7.714v9h-9z" fill="url(#t)"/>
 <path d="m58 69v7.7143c0 0.713 0.573 1.286 1.286 1.286h7.714v-9h-9z" fill="url(#u)"/>
 <path d="m76 69v7.7143c0 0.713-0.573 1.286-1.286 1.286h-7.714v-9h9z" fill="url(#v)"/>
 <rect rx="1.3" ry="1.3" height="14" width="14" y="62" x="60" fill="url(#w)"/>
 <path d="m61.281 62c-0.705 0-1.281 0.576-1.281 1.281v11.438c0 0.705 0.576 1.281 1.281 1.281h11.438c0.705 0 1.281-0.576 1.281-1.281v-11.438c0-0.705-0.576-1.281-1.281-1.281h-11.438zm0 1.0938h11.438c0.11617 0 0.1875 0.07133 0.1875 0.1875v11.438c0 0.11617-0.07133 0.1875-0.1875 0.1875h-11.437c-0.11617 0-0.1875-0.07133-0.1875-0.1875v-11.438c0-0.11617 0.07133-0.1875 0.1875-0.1875z" fill="url(#x)"/>
 <path opacity=".2" d="m59.281 59c-1.245 0-2.281 1.036-2.281 2.281v15.438c0 1.245 1.036 2.281 2.281 2.281h15.438c1.245 0 2.281-1.036 2.281-2.281v-15.438c0-1.245-1.036-2.281-2.281-2.281h-15.438zm0 1h15.438c0.712 0 1.281 0.569 1.281 1.281v15.438c0 0.712-0.569 1.281-1.281 1.281h-15.438c-0.712 0-1.281-0.569-1.281-1.281v-15.438c0-0.712 0.569-1.281 1.281-1.281z" fill="#fff"/>
 <path d="m19.286 60h35.429c0.712 0 1.285 0.573 1.285 1.286v15.429c0 0.712-0.573 1.285-1.286 1.285h-35.428c-0.713 0-1.286-0.573-1.286-1.286v-15.428c0-0.713 0.573-1.286 1.286-1.286z" fill="url(#k)"/>
 <path d="m56 69v-7.7143c0-0.713-0.573-1.286-1.286-1.286h-7.714v9h9z" fill="url(#l)"/>
 <path d="m18 69v-7.7143c0-0.713 0.573-1.286 1.286-1.286h7.714v9h-9z" fill="url(#m)"/>
 <path d="m18 69v7.7143c0 0.713 0.573 1.286 1.286 1.286h7.714v-9h-9z" fill="url(#n)"/>
 <path d="m56 69v7.7143c0 0.713-0.573 1.286-1.286 1.286h-7.714v-9h9z" fill="url(#o)"/>
 <path d="m54 63.273v11.455c0 0.704-0.568 1.272-1.273 1.272h-31.455c-0.704 0-1.272-0.568-1.272-1.273v-11.455c0-0.704 0.568-1.272 1.273-1.272h31.455c0.704 0 1.272 0.568 1.272 1.273z" fill="url(#p)"/>
 <path d="m21.281 62c-0.705 0-1.281 0.576-1.281 1.281v11.438c0 0.705 0.576 1.281 1.281 1.281h31.438c0.705 0 1.281-0.576 1.281-1.281v-11.438c0-0.705-0.576-1.281-1.281-1.281h-31.438zm0 1.0938h31.438c0.11617 0 0.1875 0.07133 0.1875 0.1875v11.438c0 0.11617-0.07133 0.1875-0.1875 0.1875h-31.437c-0.11617 0-0.1875-0.07133-0.1875-0.1875v-11.438c0-0.11617 0.07133-0.1875 0.1875-0.1875z" fill="url(#q)"/>
 <path opacity=".2" d="m19.281 59c-1.245 0-2.281 1.036-2.281 2.281v15.438c0 1.245 1.036 2.281 2.281 2.281h35.438c1.245 0 2.281-1.036 2.281-2.281v-15.438c0-1.245-1.036-2.281-2.281-2.281h-35.438zm0 1h35.438c0.712 0 1.281 0.569 1.281 1.281v15.438c0 0.712-0.569 1.281-1.281 1.281h-35.438c-0.712 0-1.281-0.569-1.281-1.281v-15.438c0-0.712 0.569-1.281 1.281-1.281z" fill="#fff"/>
 <path opacity=".6" style="color:#000000" d="m14 37v1c0 1.662 1.338 3 3 3h3v-1h-3c-1.662 0-3-1.338-3-3zm68 20c0 1.662-1.338 3-3 3h-1v1h1c1.662 0 3-1.338 3-3v-1zm-66 20v1c0 1.662 1.338 3 3 3h56c1.662 0 3-1.338 3-3v-1c0 1.662-1.338 3-3 3h-56c-1.662 0-3-1.338-3-3z" fill="#fff"/>
 <g fill="#333">
  <path d="m27.363 32.44-0.78613-2.0117h-3.1348l-0.791 2.012h-0.9668l2.8076-6.8799h1.0596l2.7637 6.8799h-0.953m-1.948-5.01c-0.052-0.13-0.103-0.262-0.152-0.395-0.045-0.134-0.086-0.254-0.122-0.362-0.035-0.11-0.066-0.201-0.092-0.273-0.023-0.075-0.036-0.121-0.039-0.137-0.0065 0.01628-0.02116 0.06186-0.04395 0.13672-0.02279 0.07488-0.05371 0.16765-0.09277 0.27832-0.03581 0.11068-0.07813 0.23275-0.12695 0.36621-0.04558 0.13347-0.09278 0.2653-0.1416 0.39551l-0.87891 2.2607h2.5732l-0.88379-2.2705"/>
  <path d="m27.167 66.354c-0.39063 0.000006-0.73731 0.06511-1.04 0.19531-0.29948 0.13021-0.55176 0.31576-0.75684 0.55664-0.20182 0.24089-0.35482 0.5306-0.45898 0.86914-0.10417 0.33855-0.15625 0.71452-0.15625 1.1279-0.000002 0.41342 0.05534 0.79265 0.16602 1.1377 0.11393 0.3418 0.27506 0.6364 0.4834 0.88379 0.21159 0.2474 0.46875 0.43946 0.77148 0.57617 0.30599 0.13672 0.64941 0.20508 1.0303 0.20508 0.26692 0.000001 0.50944-0.03418 0.72754-0.10254 0.22135-0.07161 0.41992-0.1709 0.5957-0.29785 0.17903-0.12695 0.33854-0.27669 0.47852-0.44922 0.13997-0.17578 0.26367-0.36946 0.37109-0.58106l0.76172 0.38086c-0.1237 0.25716-0.2767 0.49642-0.45898 0.71777-0.1823 0.22136-0.39714 0.41341-0.64453 0.57617-0.24415 0.16276-0.52247 0.29134-0.83496 0.38574-0.30925 0.09115-0.65593 0.13672-1.04 0.13672-0.55664 0-1.0449-0.08789-1.4648-0.26367-0.41667-0.17904-0.7666-0.42643-1.0498-0.74219-0.27995-0.31901-0.48991-0.69661-0.62988-1.1328-0.13997-0.4362-0.20996-0.91308-0.20996-1.4307 0-0.5371 0.07324-1.0221 0.21973-1.4551 0.14974-0.43294 0.36621-0.80078 0.64941-1.1035 0.28646-0.30598 0.63802-0.54036 1.0547-0.70312 0.41666-0.16601 0.89192-0.24902 1.4258-0.24902 0.73242 0.000007 1.3444 0.14324 1.8359 0.42969 0.49153 0.28646 0.85286 0.71127 1.084 1.2744l-0.88379 0.29297c-0.066-0.162-0.153-0.317-0.264-0.464-0.111-0.149-0.249-0.281-0.415-0.395s-0.361-0.205-0.586-0.274c-0.221-0.068-0.475-0.102-0.762-0.102"/>
  <path d="m33.231 72.535c-0.13347 0.03581-0.27018 0.06348-0.41016 0.08301-0.13672 0.02279-0.29623 0.03418-0.47852 0.03418-0.70313 0-1.0547-0.39876-1.0547-1.1963v-3.5254h-0.61035v-0.63965h0.64453l0.25879-1.1816h0.58594v1.1816h0.97656v0.63965h-0.97656v3.335c-0.000001 0.25391 0.04069 0.43294 0.12207 0.53711 0.08463 0.10091 0.22949 0.15137 0.43457 0.15137 0.08463 0 0.16601-0.0065 0.24414-0.01953 0.08138-0.01302 0.16927-0.0293 0.26367-0.04883v0.64941"/>
  <path d="m33.993 72.574v-4.0527c-0.000001-0.11067-0.0016-0.22298-0.0049-0.33691 0-0.11718-0.0016-0.22949-0.0049-0.33691s-0.0065-0.20833-0.0098-0.30273-0.0065-0.17903-0.0098-0.25391h0.83008c0.0033 0.07488 0.0065 0.16114 0.0098 0.25879 0.0065 0.09441 0.01139 0.19206 0.01465 0.29297 0.0065 0.10092 0.0098 0.19857 0.0098 0.29297 0.0033 0.09115 0.0049 0.16928 0.0049 0.23438h0.01953c0.06185-0.20182 0.12695-0.37597 0.19531-0.52246 0.07161-0.14973 0.15462-0.2718 0.24902-0.36621 0.0944-0.09765 0.2067-0.16926 0.33691-0.21484 0.13021-0.04882 0.28808-0.07324 0.47363-0.07324 0.07161 0.000006 0.13997 0.0065 0.20508 0.01953 0.0651 0.0098 0.11556 0.01954 0.15137 0.0293v0.80566c-0.0586-0.01627-0.12696-0.02766-0.20508-0.03418-0.07813-0.0098-0.16602-0.01464-0.26367-0.01465-0.20182 0.000005-0.37435 0.04558-0.51758 0.13672-0.13998 0.09115-0.25554 0.2181-0.34668 0.38086-0.08789 0.15951-0.153 0.35157-0.19531 0.57617-0.04232 0.22136-0.06348 0.46387-0.06348 0.72754v2.7539h-0.87891"/>
  <path d="m37.313 72.574v-7.2461h0.87891v7.246h-0.879"/>
  <path d="m47.744 32.44h-5.4785v-0.69824l4.1895-5.4199h-3.833v-0.76172h4.8926v0.67871l-4.1895 5.4395h4.4189v0.76172"/>
  <path d="m62.485 32.44v-6.8799h5.2197v0.76172h-4.2871v2.207h3.9941v0.75195h-3.9941v2.3975h4.4873v0.76172h-5.42"/>
  <path d="m34.418 48.968c-0.000008 0.48503-0.06348 0.92936-0.19043 1.333-0.1237 0.40039-0.30437 0.75195-0.54199 1.0547-0.23438 0.30274-0.5241 0.55013-0.86914 0.74219-0.3418 0.1888-0.7308 0.3125-1.167 0.37109 0.06836 0.20833 0.14485 0.38574 0.22949 0.53223 0.08789 0.14648 0.18717 0.2653 0.29785 0.35644 0.11067 0.0944 0.23274 0.16276 0.36621 0.20508 0.13671 0.04557 0.28808 0.06836 0.4541 0.06836 0.09114-0.000002 0.1888-0.0065 0.29297-0.01953 0.10416-0.01302 0.19368-0.02767 0.26856-0.04395v0.6543c-0.1237 0.02929-0.26042 0.05371-0.41016 0.07324-0.14649 0.02279-0.29948 0.03418-0.45898 0.03418-0.27995-0.000002-0.52409-0.04232-0.73242-0.12695-0.208-0.081-0.392-0.2-0.552-0.356-0.156-0.153-0.291-0.342-0.405-0.566-0.11394-0.22461-0.21485-0.47852-0.30273-0.76172-0.51433-0.02604-0.9668-0.13184-1.3574-0.31738-0.38737-0.1888-0.71126-0.43945-0.97168-0.75195-0.25716-0.31575-0.45085-0.68359-0.58106-1.1035-0.13021-0.42318-0.19531-0.88216-0.19531-1.377-0.000001-0.53711 0.07487-1.0221 0.22461-1.4551 0.14974-0.43294 0.36946-0.80078 0.65918-1.1035 0.28971-0.30598 0.64616-0.54036 1.0693-0.70312 0.42643-0.16601 0.91471-0.24902 1.4648-0.24902 0.54687 0.000007 1.0319 0.08301 1.4551 0.24902 0.42643 0.16602 0.78287 0.40202 1.0693 0.70801 0.28971 0.306 0.50943 0.67546 0.65918 1.1084 0.14973 0.43295 0.2246 0.91472 0.22461 1.4453m-0.95215 0c-0.000006-0.41341-0.05372-0.78938-0.16113-1.1279-0.10417-0.33854-0.26042-0.62825-0.46875-0.86914-0.20508-0.24088-0.46062-0.42643-0.7666-0.55664-0.30599-0.1302-0.65918-0.19531-1.0596-0.19531-0.41016 0.000007-0.76986 0.06511-1.0791 0.19531-0.30925 0.13021-0.56804 0.31576-0.77637 0.55664-0.20508 0.24089-0.3597 0.5306-0.46387 0.86914-0.10091 0.33855-0.15137 0.71452-0.15137 1.1279-0.000001 0.41341 0.05208 0.79265 0.15625 1.1377 0.10742 0.3418 0.26367 0.63802 0.46875 0.88867 0.20833 0.2474 0.46549 0.44108 0.77148 0.58106 0.30924 0.13672 0.66406 0.20508 1.0645 0.20508 0.42968 0 0.79915-0.06999 1.1084-0.20996 0.3125-0.13997 0.56803-0.33366 0.7666-0.58106 0.20182-0.25065 0.34993-0.5485 0.44434-0.89356 0.09765-0.34505 0.14648-0.72102 0.14648-1.1279"/>
  <path d="m53.876 50.541c-0.000007 0.28972-0.05697 0.55664-0.1709 0.80078-0.11068 0.24414-0.28321 0.45573-0.51758 0.63476-0.23438 0.17578-0.5306 0.31413-0.88867 0.41504-0.35482 0.09766-0.77637 0.14648-1.2646 0.14648-0.85612 0-1.5234-0.14974-2.002-0.44922-0.478-0.3-0.783-0.733-0.913-1.299l0.90332-0.18066c0.04557 0.17904 0.11556 0.3418 0.20996 0.48828 0.0944 0.14649 0.22135 0.27344 0.38086 0.38086 0.16276 0.10417 0.36295 0.18555 0.60059 0.24414 0.23763 0.05859 0.52246 0.08789 0.85449 0.08789 0.27669 0 0.5306-0.02279 0.76172-0.06836 0.23112-0.04883 0.42968-0.12207 0.5957-0.21973 0.16601-0.09766 0.29459-0.22298 0.38574-0.37598 0.0944-0.15625 0.1416-0.3418 0.1416-0.55664-0.000005-0.22461-0.05209-0.4069-0.15625-0.54688-0.10092-0.13997-0.24415-0.25553-0.42969-0.34668-0.18555-0.09114-0.4069-0.16764-0.66406-0.22949s-0.542-0.12858-0.85449-0.2002c-0.19206-0.04231-0.38574-0.08789-0.58106-0.13672-0.19206-0.05208-0.37761-0.1123-0.55664-0.18066-0.17578-0.07161-0.3418-0.15462-0.49805-0.24902s-0.29134-0.2067-0.40527-0.33691c-0.11393-0.13346-0.20345-0.28645-0.26856-0.45898-0.0651-0.17578-0.09766-0.3776-0.09766-0.60547-0.000001-0.32552 0.0651-0.60384 0.19531-0.83496 0.13346-0.23437 0.31738-0.42643 0.55176-0.57617 0.23437-0.14973 0.51106-0.25878 0.83008-0.32715 0.31901-0.06835 0.66406-0.10253 1.0352-0.10254 0.42643 0.000007 0.79101 0.03419 1.0938 0.10254 0.30273 0.06511 0.55826 0.16439 0.7666 0.29785 0.20833 0.13347 0.37434 0.29949 0.49805 0.49805 0.12695 0.19532 0.22786 0.42318 0.30274 0.68359l-0.91797 0.16113c-0.04558-0.16601-0.11231-0.31412-0.2002-0.44434-0.08464-0.1302-0.19694-0.23925-0.33691-0.32715-0.13998-0.08788-0.31088-0.15462-0.5127-0.2002-0.19857-0.04557-0.43295-0.06835-0.70312-0.06836-0.31901 0.000006-0.58757 0.0293-0.80566 0.08789-0.21485 0.05535-0.389 0.13184-0.52246 0.22949-0.13021 0.09766-0.22461 0.21322-0.2832 0.34668-0.05534 0.13021-0.08301 0.27182-0.08301 0.4248-0.000001 0.20508 0.05045 0.37435 0.15137 0.50781 0.10416 0.13021 0.24414 0.23926 0.41992 0.32715s0.37923 0.16114 0.61035 0.21973c0.23112 0.0586 0.47688 0.11719 0.7373 0.17578 0.21158 0.04883 0.42154 0.09929 0.62988 0.15137 0.21158 0.04883 0.41341 0.10905 0.60547 0.18066 0.19205 0.06836 0.37109 0.14974 0.53711 0.24414 0.16926 0.09441 0.31575 0.20996 0.43945 0.34668 0.12369 0.13672 0.21972 0.29785 0.28809 0.4834 0.07161 0.18555 0.10742 0.40365 0.10742 0.6543"/>
  <path d="m74.135 48.929c-0.000007 0.57292-0.08627 1.0791-0.25879 1.5186-0.17253 0.4362-0.40854 0.80241-0.70801 1.0986-0.29948 0.29297-0.6543 0.51595-1.0645 0.66894-0.40691 0.14974-0.84636 0.22461-1.3184 0.22461h-2.5732v-6.8799h2.2754c0.5306 0.000006 1.0189 0.06674 1.4648 0.2002 0.44921 0.13022 0.83496 0.33366 1.1572 0.61035 0.32226 0.27344 0.57291 0.62175 0.75195 1.0449 0.18228 0.42318 0.27343 0.92774 0.27344 1.5137m-0.9375 0c-0.000006-0.46549-0.06674-0.86263-0.2002-1.1914-0.13347-0.33203-0.32064-0.60384-0.56152-0.81543-0.24089-0.21158-0.52898-0.3662-0.86426-0.46387-0.33529-0.1009-0.70313-0.15136-1.1035-0.15137h-1.3232v5.3857h1.5332c0.36132 0.000001 0.69498-0.05859 1.001-0.17578 0.30924-0.11719 0.57617-0.29134 0.80078-0.52246 0.2246-0.23112 0.40038-0.5192 0.52734-0.86426 0.12695-0.34505 0.19042-0.74544 0.19043-1.2012"/>
  <path style="color:#000000" d="m67 64-4 4h2v5h4v-5h2l-4-4zm0 1 2 2h-1v5h-2v-5h-1l2-2z"/>
 </g>
</svg>
