<?xml version="1.0" encoding="UTF-8" standalone="no"?>
<!-- Created with Inkscape (http://www.inkscape.org/) -->

<svg
   xmlns:svg="http://www.w3.org/2000/svg"
   xmlns="http://www.w3.org/2000/svg"
   xmlns:xlink="http://www.w3.org/1999/xlink"
   version="1.0"
   width="96"
   height="96"
   id="svg2408"
   style="display:inline;enable-background:new">
  <defs
     id="defs2410">
    <linearGradient
       id="linearGradient3687">
      <stop
         id="stop3689"
         style="stop-color:#ffffff;stop-opacity:1"
         offset="0" />
      <stop
         id="stop3691"
         style="stop-color:#ffffff;stop-opacity:0"
         offset="1" />
    </linearGradient>
    <linearGradient
       id="linearGradient3487">
      <stop
         id="stop3489"
         style="stop-color:#9cb7d2;stop-opacity:1"
         offset="0" />
      <stop
         id="stop3491"
         style="stop-color:#e7edf3;stop-opacity:0"
         offset="1" />
    </linearGradient>
    <radialGradient
       cx="56.065952"
       cy="-15.871236"
       r="35.9375"
       fx="56.065952"
       fy="-15.871236"
       id="radialGradient3465"
       xlink:href="#linearGradient3224"
       gradientUnits="userSpaceOnUse"
       gradientTransform="matrix(0.00225966,0.925477,-1.3844339,0,25.901984,-30.21143)" />
    <linearGradient
       x1="58.650177"
       y1="122"
       x2="58.650177"
       y2="5.4252338"
       id="ButtonColor"
       gradientUnits="userSpaceOnUse"
       gradientTransform="matrix(1.0172414,0,0,1.0172414,-1.1034483,-1.1034483)">
      <stop
         id="stop3792"
         style="stop-color:#2fc044;stop-opacity:1"
         offset="0" />
      <stop
         id="stop3794"
         style="stop-color:#246d2f;stop-opacity:1"
         offset="1" />
    </linearGradient>
    <linearGradient
       id="linearGradient3465">
      <stop
         id="stop3467"
         style="stop-color:#919191;stop-opacity:1"
         offset="0" />
      <stop
         id="stop3469"
         style="stop-color:#fdfdfd;stop-opacity:1"
         offset="1" />
    </linearGradient>
    <linearGradient
       id="linearGradient3187">
      <stop
         id="stop3189"
         style="stop-color:#b4b4b4;stop-opacity:1"
         offset="0" />
      <stop
         id="stop3191"
         style="stop-color:#e6e6e6;stop-opacity:1"
         offset="1" />
    </linearGradient>
    <linearGradient
       x1="45.447727"
       y1="92.539597"
       x2="45.447727"
       y2="7.0165396"
       id="ButtonShadow"
       gradientUnits="userSpaceOnUse"
       gradientTransform="scale(1.0058652,0.994169)">
      <stop
         id="stop3750"
         style="stop-color:#000000;stop-opacity:1"
         offset="0" />
      <stop
         id="stop3752"
         style="stop-color:#000000;stop-opacity:0.58823532"
         offset="1" />
    </linearGradient>
    <linearGradient
       id="linearGradient3737">
      <stop
         id="stop3739"
         style="stop-color:#ffffff;stop-opacity:1"
         offset="0" />
      <stop
         id="stop3741"
         style="stop-color:#ffffff;stop-opacity:0"
         offset="1" />
    </linearGradient>
    <filter
       color-interpolation-filters="sRGB"
       id="filter3174">
      <feGaussianBlur
         id="feGaussianBlur3176"
         stdDeviation="1.71" />
    </filter>
    <linearGradient
       x1="36.357143"
       y1="6"
       x2="36.357143"
       y2="63.893143"
       id="linearGradient3188"
       xlink:href="#linearGradient3737"
       gradientUnits="userSpaceOnUse" />
    <linearGradient
       x1="43.17857"
       y1="13"
       x2="43.17857"
       y2="83.294571"
       id="linearGradient3436"
       xlink:href="#linearGradient3465"
       gradientUnits="userSpaceOnUse"
       gradientTransform="matrix(1.0294118,0,0,1.0294118,-1.4117647,-1.4117647)" />
    <radialGradient
       cx="47.098362"
       cy="80.842926"
       r="38.957481"
       fx="47.098362"
       fy="80.842926"
       id="radialGradient3366"
       xlink:href="#ButtonColor"
       gradientUnits="userSpaceOnUse"
       gradientTransform="matrix(1.3112996,-5.281739e-8,4.5811678e-8,1.1373685,-14.661706,-10.847943)" />
    <linearGradient
       x1="48"
       y1="90"
       x2="48"
       y2="5.9877172"
       id="linearGradient3466"
       xlink:href="#linearGradient3187"
       gradientUnits="userSpaceOnUse" />
    <filter
       color-interpolation-filters="sRGB"
       id="filter5085">
      <feGaussianBlur
         id="feGaussianBlur5087"
         stdDeviation="0.525" />
    </filter>
    <linearGradient
       x1="76.45089"
       y1="8.0625"
       x2="76.45089"
       y2="72.765785"
       id="linearGradient3693"
       xlink:href="#linearGradient3687"
       gradientUnits="userSpaceOnUse" />
    <linearGradient
       x1="65.15625"
       y1="16.125"
       x2="65.15625"
       y2="69.687508"
       id="linearGradient3701"
       xlink:href="#linearGradient3487"
       gradientUnits="userSpaceOnUse" />
    <linearGradient
       x1="65.15625"
       y1="16.125"
       x2="65.15625"
       y2="69.687508"
       id="linearGradient2675"
       xlink:href="#linearGradient3737"
       gradientUnits="userSpaceOnUse" />
    <linearGradient
       id="linearGradient3737-1">
      <stop
         id="stop3739-7"
         style="stop-color:#ffffff;stop-opacity:1"
         offset="0" />
      <stop
         id="stop3741-2"
         style="stop-color:#ffffff;stop-opacity:0"
         offset="1" />
    </linearGradient>
    <radialGradient
       cx="48"
       cy="90.171875"
       r="42"
       fx="48"
       fy="90.171875"
       id="radialGradient2893"
       xlink:href="#linearGradient3737-1"
       gradientUnits="userSpaceOnUse"
       gradientTransform="matrix(1.1573129,0,0,0.99590774,-7.551021,0.1971319)" />
    <linearGradient
       id="linearGradient3224">
      <stop
         id="stop3226"
         style="stop-color:#80a2c8;stop-opacity:1"
         offset="0" />
      <stop
         id="stop3228"
         style="stop-color:#2e4c6d;stop-opacity:1"
         offset="1" />
    </linearGradient>
    <linearGradient
       x1="32.251034"
       y1="6.1317081"
       x2="32.251034"
       y2="90.238609"
       id="linearGradient3721"
       xlink:href="#ButtonShadow-0"
       gradientUnits="userSpaceOnUse"
       gradientTransform="translate(0,-97)" />
    <linearGradient
       x1="45.447727"
       y1="92.539597"
       x2="45.447727"
       y2="7.0165396"
       id="ButtonShadow-0"
       gradientUnits="userSpaceOnUse"
       gradientTransform="matrix(1.0058652,0,0,0.994169,100,0)">
      <stop
         id="stop3750-8"
         style="stop-color:#000000;stop-opacity:1"
         offset="0" />
      <stop
         id="stop3752-5"
         style="stop-color:#000000;stop-opacity:0.58823532"
         offset="1" />
    </linearGradient>
    <linearGradient
       x1="32.251034"
       y1="6.1317081"
       x2="32.251034"
       y2="90.238609"
       id="linearGradient3725"
       xlink:href="#ButtonShadow-0"
       gradientUnits="userSpaceOnUse"
       gradientTransform="matrix(1.0238095,0,0,1.0119048,-1.1428571,-98.071429)" />
    <linearGradient
       x1="32.251034"
       y1="6.1317081"
       x2="32.251034"
       y2="90.238609"
       id="linearGradient3772"
       xlink:href="#ButtonShadow-0"
       gradientUnits="userSpaceOnUse"
       gradientTransform="matrix(1.0238095,0,0,1.0119048,-1.1428571,-98.071429)" />
    <linearGradient
       x1="32.251034"
       y1="6.1317081"
       x2="32.251034"
       y2="90.238609"
       id="linearGradient3780"
       xlink:href="#ButtonShadow-0"
       gradientUnits="userSpaceOnUse"
       gradientTransform="matrix(1.0238095,0,0,1.0119048,-1.1428571,-98.071429)" />
    <linearGradient
       x1="32.251034"
       y1="6.1317081"
       x2="32.251034"
       y2="90.238609"
       id="linearGradient2969"
       xlink:href="#ButtonShadow-0"
       gradientUnits="userSpaceOnUse"
       gradientTransform="matrix(1.0238095,0,0,1.0119048,-1.1428571,-98.071429)" />
  </defs>
  <g
     id="layer2"
     style="display:none">
    <rect
       width="86"
       height="85"
       rx="6"
       ry="6"
       x="5"
       y="7"
       id="rect3745"
       style="opacity:0.9;fill:url(#ButtonShadow);fill-opacity:1;fill-rule:nonzero;stroke:none;filter:url(#filter3174)" />
  </g>
  <g
     id="layer4"
     style="display:inline">
    <path
       d="m 12,-95.03125 c -5.5110903,0 -10.03125,4.52016 -10.03125,10.03125 l 0,71 c 0,5.5110902 4.5201598,10.03125 10.03125,10.03125 l 72,0 c 5.51109,0 10.03125,-4.5201597 10.03125,-10.03125 l 0,-71 c 0,-5.51109 -4.52016,-10.03125 -10.03125,-10.03125 l -72,0 z"
       transform="scale(1,-1)"
       id="path3786"
       style="opacity:0.07999998;fill:url(#linearGradient2969);fill-opacity:1;fill-rule:nonzero;stroke:none;display:inline" />
    <path
       d="m 12,-94.03125 c -4.971633,0 -9.03125,4.059617 -9.03125,9.03125 l 0,71 c 0,4.9716329 4.0596171,9.03125 9.03125,9.03125 l 72,0 c 4.971633,0 9.03125,-4.059617 9.03125,-9.03125 l 0,-71 c 0,-4.971633 -4.059617,-9.03125 -9.03125,-9.03125 l -72,0 z"
       transform="scale(1,-1)"
       id="path3778"
       style="opacity:0.1;fill:url(#linearGradient3780);fill-opacity:1;fill-rule:nonzero;stroke:none;display:inline" />
    <path
       d="m 12,-93 c -4.4091333,0 -8,3.590867 -8,8 l 0,71 c 0,4.4091333 3.5908667,8 8,8 l 72,0 c 4.409133,0 8,-3.5908667 8,-8 l 0,-71 c 0,-4.409133 -3.590867,-8 -8,-8 l -72,0 z"
       transform="scale(1,-1)"
       id="path3770"
       style="opacity:0.2;fill:url(#linearGradient3772);fill-opacity:1;fill-rule:nonzero;stroke:none;display:inline" />
    <rect
       width="86"
       height="85"
       rx="7"
       ry="7"
       x="5"
       y="-92"
       transform="scale(1,-1)"
       id="rect3723"
       style="opacity:0.3;fill:url(#linearGradient3725);fill-opacity:1;fill-rule:nonzero;stroke:none;display:inline" />
    <rect
       width="84"
       height="84"
       rx="6"
       ry="6"
       x="6"
       y="-91"
       transform="scale(1,-1)"
       id="rect3716"
       style="opacity:0.45;fill:url(#linearGradient3721);fill-opacity:1;fill-rule:nonzero;stroke:none;display:inline" />
  </g>
  <g
     id="layer3"
     style="display:inline">
    <rect
       width="77.914963"
       height="78.516495"
       rx="5.8527675"
       ry="6.1732869"
       x="8.1408806"
       y="8.2544327"
       id="rect3461"
       style="fill:url(#radialGradient3366);fill-opacity:1;stroke:none" />
    <path
       d="m 12.0625,12.0625 0,53.875 71.875,0 0,-53.875 -71.875,0 z"
       transform="matrix(-1.0008688,0,0,-1.3339699,96.010447,99.965928)"
       id="path3215"
       style="fill:url(#radialGradient3465);fill-opacity:1;fill-rule:nonzero;stroke:none" />
    <rect
       width="68"
       height="68"
       rx="3"
       ry="3"
       x="-76"
       y="14"
       id="rect3469"
       style="fill:none;stroke:#263d58;stroke-width:2;stroke-linecap:square;stroke-linejoin:miter;stroke-miterlimit:4;stroke-opacity:1;stroke-dasharray:none;stroke-dashoffset:0;filter:url(#filter5085)" />
    <rect
       width="72"
       height="10"
       x="12"
       y="72"
       id="rect3115"
       style="opacity:0.2;fill:#ffffff;fill-opacity:1;stroke:none" />
    <rect
       width="44"
       height="32"
       rx="3.5198207"
       ry="4.0226521"
       x="26"
       y="30"
       id="rect3889"
       style="opacity:0.3;fill:#ffffff;fill-opacity:1;stroke:none" />
    <rect
       width="34"
       height="12"
       rx="2"
       ry="2"
       x="31"
       y="43"
       id="rect3899"
       style="fill:#ffffff;fill-opacity:1;stroke:none" />
    <path
       d="m 33,42.03125 c -1.620765,0 -2.96875,1.347985 -2.96875,2.96875 l 0,8 c 0,1.620765 1.347985,2.96875 2.96875,2.96875 l 30,0 c 1.620765,0 2.96875,-1.347985 2.96875,-2.96875 l 0,-8 c 0,-1.620765 -1.347985,-2.96875 -2.96875,-2.96875 l -30,0 z m 0,2.03125 30,0 c 0.500577,0 0.9375,0.436923 0.9375,0.9375 l 0,8 c 0,0.500577 -0.436923,0.9375 -0.9375,0.9375 l -30,0 c -0.500577,0 -0.9375,-0.436923 -0.9375,-0.9375 l 0,-8 c 0,-0.500577 0.436923,-0.9375 0.9375,-0.9375 z"
       id="path3915"
       style="fill:#2e4c6d;fill-opacity:1;stroke:none" />
    <path
       d="m 33,44.0625 c -0.500577,0 -0.9375,0.436923 -0.9375,0.9375 l 0,8 c 0,0.309921 0.191124,0.577464 0.4375,0.75 l 0,-7.75 c 0,-0.500577 0.421386,-0.9375 0.90625,-0.9375 l 29.1875,0 C 63.078617,45.0625 63.5,45.499423 63.5,46 l 0,7.75 c 0.246376,-0.172536 0.4375,-0.440079 0.4375,-0.75 l 0,-8 c 0,-0.500577 -0.43692,-0.9375 -0.9375,-0.9375 l -30,0 z"
       id="rect3927"
       style="opacity:0.3;fill:#000000;fill-opacity:1;stroke:none" />
    <path
       d="m 40.658639,50.795673 a 3.0304575,3.0304575 0 1 1 -6.060915,0 3.0304575,3.0304575 0 1 1 6.060915,0 z"
       transform="matrix(0.82495795,0,0,0.82495795,6.4583326,7.0957054)"
       id="path3935"
       style="fill:#000000;fill-opacity:1;stroke:none" />
    <path
       d="m 40.658639,50.795673 a 3.0304575,3.0304575 0 1 1 -6.060915,0 3.0304575,3.0304575 0 1 1 6.060915,0 z"
       transform="matrix(0.82495795,0,0,0.82495795,13.458333,7.0957054)"
       id="path3941"
       style="fill:#000000;fill-opacity:1;stroke:none" />
    <path
       d="m 40.658639,50.795673 a 3.0304575,3.0304575 0 1 1 -6.060915,0 3.0304575,3.0304575 0 1 1 6.060915,0 z"
       transform="matrix(0.82495795,0,0,0.82495795,20.458333,7.0957054)"
       id="path3943"
       style="fill:#000000;fill-opacity:1;stroke:none" />
    <path
       d="m 40.658639,50.795673 a 3.0304575,3.0304575 0 1 1 -6.060915,0 3.0304575,3.0304575 0 1 1 6.060915,0 z"
       transform="matrix(0.82495795,0,0,0.82495795,27.458333,7.0957054)"
       id="path3945"
       style="fill:#000000;fill-opacity:1;stroke:none" />
    <g
       id="text3947"
       style="font-size:4.78869057px;font-style:normal;font-variant:normal;font-weight:normal;font-stretch:normal;text-align:start;line-height:125%;writing-mode:lr-tb;text-anchor:start;fill:#ffffff;fill-opacity:1;stroke:none;font-family:Liberation Sans;-inkscape-font-specification:Liberation Sans">
      <path
         d="m 32.54867,35.650077 c -3e-6,0.143414 -0.02416,0.277472 -0.07249,0.402176 -0.04677,0.123148 -0.117693,0.230706 -0.212779,0.322675 -0.09353,0.09041 -0.211222,0.162119 -0.353072,0.215117 -0.141855,0.053 -0.307089,0.0795 -0.495704,0.0795 l -0.968027,0 0,1.283687 -0.446601,0 0,-3.294563 1.386569,0 c 0.19485,3e-6 0.364761,0.02416 0.509734,0.07248 0.144967,0.04677 0.265776,0.113797 0.362425,0.201087 0.09664,0.08574 0.169129,0.190179 0.217455,0.313323 0.04832,0.12159 0.07248,0.256428 0.07249,0.404513 m -0.44894,0.0047 c -2e-6,-0.208879 -0.06391,-0.367099 -0.191734,-0.47466 -0.127825,-0.109115 -0.31956,-0.163673 -0.575204,-0.163676 l -0.886189,0 0,1.300054 0.904895,0 c 0.257203,2e-6 0.44582,-0.05689 0.565851,-0.17069 0.121585,-0.113792 0.182379,-0.277468 0.182381,-0.491028"
         id="path3952" />
      <path
         d="m 33.773902,37.999996 c -0.254089,0 -0.445044,-0.06703 -0.572866,-0.201087 -0.127824,-0.134058 -0.191735,-0.317999 -0.191735,-0.551822 0,-0.166793 0.03118,-0.303189 0.09353,-0.40919 0.06391,-0.107557 0.146529,-0.191733 0.247852,-0.252528 0.102882,-0.06079 0.219793,-0.102881 0.350735,-0.126265 0.130939,-0.02338 0.264218,-0.03663 0.399837,-0.03975 l 0.568189,-0.0094 0,-0.137955 c -2e-6,-0.104439 -0.01091,-0.193292 -0.03274,-0.266558 -0.02183,-0.07326 -0.05534,-0.132497 -0.100544,-0.177705 -0.04521,-0.0452 -0.102104,-0.07794 -0.170691,-0.09821 -0.06703,-0.02182 -0.14653,-0.03273 -0.238499,-0.03274 -0.08106,2e-6 -0.154324,0.0062 -0.219793,0.01871 -0.06547,0.01091 -0.122369,0.03196 -0.170691,0.06313 -0.04832,0.02962 -0.0873,0.07093 -0.116911,0.123926 -0.02962,0.05144 -0.0491,0.116913 -0.05846,0.196411 l -0.439587,-0.03975 c 0.01559,-0.09976 0.04521,-0.190953 0.08885,-0.273572 0.04365,-0.08417 0.105219,-0.156659 0.18472,-0.217456 0.08106,-0.06079 0.181601,-0.107556 0.301631,-0.140293 0.121587,-0.03429 0.268116,-0.05144 0.439587,-0.05144 0.317997,2e-6 0.557276,0.07327 0.717836,0.219793 0.160556,0.144973 0.240835,0.355413 0.240837,0.631322 l 0,1.089614 c -2e-6,0.124706 0.01637,0.219014 0.0491,0.282925 0.03273,0.06235 0.09509,0.09353 0.187058,0.09353 0.02338,0 0.04676,-0.0016 0.07015,-0.0047 0.02338,-0.0031 0.04598,-0.007 0.06781,-0.01169 l 0,0.261881 c -0.053,0.01247 -0.106002,0.02182 -0.159,0.02806 -0.05144,0.0062 -0.106781,0.0094 -0.166014,0.0094 -0.0795,0 -0.14809,-0.01013 -0.205764,-0.0304 -0.05612,-0.02182 -0.102105,-0.05378 -0.137955,-0.09587 -0.03585,-0.04365 -0.06313,-0.09665 -0.08184,-0.159 -0.01871,-0.06391 -0.0304,-0.137955 -0.03507,-0.222131 l -0.01403,0 c -0.04521,0.08106 -0.09509,0.154323 -0.149647,0.219793 -0.053,0.06547 -0.115354,0.121588 -0.187058,0.168352 -0.07171,0.04521 -0.153545,0.08028 -0.245514,0.105221 -0.09041,0.02494 -0.194853,0.03741 -0.313322,0.03741 m 0.09587,-0.31566 c 0.134057,0 0.250968,-0.02416 0.350734,-0.07249 0.101322,-0.04988 0.184719,-0.113014 0.250191,-0.189397 0.06703,-0.07638 0.116909,-0.159778 0.149646,-0.25019 0.03273,-0.09041 0.0491,-0.176925 0.0491,-0.259544 l 0,-0.208102 -0.460631,0.0094 c -0.102883,0.0016 -0.201089,0.0094 -0.294617,0.02338 -0.09197,0.01247 -0.17303,0.03819 -0.243175,0.07716 -0.07015,0.03897 -0.126265,0.09353 -0.168353,0.163676 -0.04053,0.07015 -0.06079,0.162118 -0.06079,0.275911 0,0.137176 0.03663,0.243176 0.109897,0.317999 0.07482,0.07482 0.180822,0.112235 0.317999,0.112235"
         id="path3954" />
      <path
         d="m 37.692772,37.254102 c -3e-6,0.11847 -0.02338,0.22447 -0.07015,0.317999 -0.04521,0.09197 -0.111458,0.169911 -0.19875,0.233822 -0.0873,0.06235 -0.194854,0.110677 -0.322675,0.144971 -0.126266,0.03274 -0.271236,0.0491 -0.43491,0.0491 -0.14653,0 -0.27903,-0.01169 -0.397499,-0.03507 -0.116912,-0.02182 -0.219794,-0.05768 -0.308646,-0.107559 -0.08885,-0.04988 -0.163677,-0.115352 -0.22447,-0.196411 -0.05924,-0.08262 -0.102882,-0.18316 -0.130941,-0.301631 l 0.371778,-0.07249 c 0.03585,0.135618 0.109896,0.235382 0.222132,0.299293 0.112234,0.06235 0.268116,0.09353 0.467646,0.09353 0.09041,0 0.173027,-0.0062 0.247852,-0.01871 0.07638,-0.01247 0.141851,-0.03351 0.196411,-0.06313 0.05456,-0.03118 0.09664,-0.07171 0.126264,-0.121588 0.03117,-0.05144 0.04676,-0.114572 0.04677,-0.189396 -2e-6,-0.07638 -0.01793,-0.138734 -0.05378,-0.187058 -0.03585,-0.04988 -0.08574,-0.09119 -0.149646,-0.123926 -0.06391,-0.03274 -0.141854,-0.06079 -0.233823,-0.08418 -0.09041,-0.02494 -0.190177,-0.05222 -0.299293,-0.08184 -0.101324,-0.0265 -0.201868,-0.05612 -0.301631,-0.08885 -0.09977,-0.03273 -0.190177,-0.0756 -0.271235,-0.128603 -0.0795,-0.05456 -0.144191,-0.121586 -0.194073,-0.201087 -0.04988,-0.0795 -0.07482,-0.179263 -0.07482,-0.299294 0,-0.230703 0.08184,-0.406069 0.245514,-0.526101 0.165234,-0.121585 0.405292,-0.182379 0.720174,-0.182382 0.279027,3e-6 0.500379,0.04911 0.664057,0.147309 0.165232,0.09821 0.269673,0.255648 0.313322,0.472322 l -0.378793,0.04676 c -0.01403,-0.06547 -0.03975,-0.120027 -0.07716,-0.163676 -0.03741,-0.0452 -0.08262,-0.08106 -0.135617,-0.107558 -0.053,-0.02806 -0.113016,-0.04754 -0.180044,-0.05846 -0.06547,-0.01247 -0.13406,-0.0187 -0.205764,-0.01871 -0.190177,3e-6 -0.33047,0.02884 -0.420881,0.08651 -0.09041,0.05768 -0.135618,0.144972 -0.135617,0.261881 -1e-6,0.06859 0.01637,0.125487 0.0491,0.170691 0.03429,0.04365 0.08106,0.08106 0.140293,0.112235 0.06079,0.02962 0.133278,0.05612 0.217455,0.0795 0.08418,0.02182 0.176925,0.04521 0.278249,0.07015 0.06703,0.01715 0.135616,0.03585 0.205765,0.05612 0.07014,0.01871 0.137953,0.04209 0.203425,0.07015 0.06703,0.0265 0.12938,0.05846 0.187059,0.09587 0.05923,0.03585 0.110674,0.0795 0.154323,0.130941 0.04364,0.05144 0.07794,0.111456 0.102882,0.180043 0.0265,0.06859 0.03975,0.148089 0.03975,0.2385"
         id="path3956" />
      <path
         d="m 40.087117,37.254102 c -2e-6,0.11847 -0.02338,0.22447 -0.07015,0.317999 -0.04521,0.09197 -0.111457,0.169911 -0.198749,0.233822 -0.0873,0.06235 -0.194854,0.110677 -0.322675,0.144971 -0.126266,0.03274 -0.271236,0.0491 -0.434911,0.0491 -0.14653,0 -0.279029,-0.01169 -0.397498,-0.03507 -0.116913,-0.02182 -0.219794,-0.05768 -0.308647,-0.107559 -0.08885,-0.04988 -0.163676,-0.115352 -0.224469,-0.196411 -0.05924,-0.08262 -0.102883,-0.18316 -0.130941,-0.301631 l 0.371778,-0.07249 c 0.03585,0.135618 0.109896,0.235382 0.222132,0.299293 0.112234,0.06235 0.268116,0.09353 0.467645,0.09353 0.09041,0 0.173028,-0.0062 0.247852,-0.01871 0.07638,-0.01247 0.141851,-0.03351 0.196412,-0.06313 0.05456,-0.03118 0.09664,-0.07171 0.126264,-0.121588 0.03117,-0.05144 0.04676,-0.114572 0.04676,-0.189396 -10e-7,-0.07638 -0.01793,-0.138734 -0.05378,-0.187058 -0.03585,-0.04988 -0.08574,-0.09119 -0.149646,-0.123926 -0.06391,-0.03274 -0.141854,-0.06079 -0.233823,-0.08418 -0.09041,-0.02494 -0.190177,-0.05222 -0.299293,-0.08184 -0.101325,-0.0265 -0.201868,-0.05612 -0.301632,-0.08885 -0.09977,-0.03273 -0.190176,-0.0756 -0.271234,-0.128603 -0.0795,-0.05456 -0.144191,-0.121586 -0.194073,-0.201087 -0.04988,-0.0795 -0.07482,-0.179263 -0.07482,-0.299294 -10e-7,-0.230703 0.08184,-0.406069 0.245514,-0.526101 0.165234,-0.121585 0.405291,-0.182379 0.720174,-0.182382 0.279027,3e-6 0.500379,0.04911 0.664056,0.147309 0.165233,0.09821 0.269674,0.255648 0.313323,0.472322 l -0.378793,0.04676 c -0.01403,-0.06547 -0.03975,-0.120027 -0.07716,-0.163676 -0.03741,-0.0452 -0.08262,-0.08106 -0.135618,-0.107558 -0.053,-0.02806 -0.113015,-0.04754 -0.180043,-0.05846 -0.06547,-0.01247 -0.13406,-0.0187 -0.205764,-0.01871 -0.190177,3e-6 -0.330471,0.02884 -0.420881,0.08651 -0.09041,0.05768 -0.135618,0.144972 -0.135617,0.261881 -10e-7,0.06859 0.01637,0.125487 0.0491,0.170691 0.03429,0.04365 0.08106,0.08106 0.140294,0.112235 0.06079,0.02962 0.133278,0.05612 0.217455,0.0795 0.08418,0.02182 0.176925,0.04521 0.278249,0.07015 0.06703,0.01715 0.135616,0.03585 0.205764,0.05612 0.07015,0.01871 0.137954,0.04209 0.203426,0.07015 0.06703,0.0265 0.12938,0.05846 0.187058,0.09587 0.05923,0.03585 0.110674,0.0795 0.154323,0.130941 0.04364,0.05144 0.07794,0.111456 0.102882,0.180043 0.0265,0.06859 0.03975,0.148089 0.03975,0.2385"
         id="path3958" />
      <path
         d="m 43.005225,37.953232 -0.48869,0 -0.404513,-1.632083 c -0.01247,-0.04209 -0.02572,-0.09431 -0.03975,-0.156661 -0.01247,-0.06235 -0.02494,-0.123145 -0.03741,-0.182382 -0.01559,-0.06859 -0.0304,-0.139512 -0.04443,-0.212779 -0.01403,0.07015 -0.02884,0.139516 -0.04443,0.208102 -0.01247,0.05924 -0.0265,0.120811 -0.04209,0.18472 -0.01403,0.06391 -0.02728,0.120031 -0.03975,0.168353 l -0.416204,1.62273 -0.486351,0 -0.708483,-2.529963 0.416204,0 0.427896,1.718598 c 0.01091,0.03585 0.02182,0.08028 0.03274,0.133279 0.01091,0.05144 0.02182,0.102103 0.03273,0.151985 0.01091,0.05768 0.0226,0.116911 0.03507,0.177705 0.01247,-0.05924 0.02572,-0.116911 0.03975,-0.173029 0.01247,-0.04832 0.02494,-0.09743 0.03741,-0.147308 0.01247,-0.04988 0.02338,-0.09119 0.03274,-0.123926 l 0.458293,-1.737304 0.451278,0 0.441925,1.737304 c 0.01091,0.04053 0.0226,0.08651 0.03507,0.137955 0.01247,0.05144 0.02416,0.09977 0.03507,0.14497 0.01247,0.053 0.02494,0.10678 0.03741,0.161338 0.01247,-0.05924 0.02494,-0.116911 0.03741,-0.173029 0.01091,-0.04832 0.02182,-0.09821 0.03274,-0.149647 0.01247,-0.053 0.02416,-0.09976 0.03507,-0.140293 l 0.446601,-1.718598 0.411528,0 -0.72485,2.529963"
         id="path3960" />
      <path
         d="m 46.182877,36.685912 c -2e-6,0.442706 -0.09743,0.772395 -0.292278,0.989071 -0.194855,0.216676 -0.47778,0.325013 -0.848777,0.325013 -0.176148,0 -0.333588,-0.0265 -0.472322,-0.0795 -0.138736,-0.053 -0.256426,-0.134059 -0.353073,-0.243176 -0.09509,-0.109117 -0.168352,-0.245513 -0.219793,-0.40919 -0.04988,-0.165234 -0.07482,-0.359307 -0.07482,-0.582219 0,-0.872936 0.378013,-1.309405 1.13404,-1.309407 0.19641,2e-6 0.365541,0.02728 0.507396,0.08184 0.143409,0.05456 0.26032,0.136399 0.350734,0.245514 0.09197,0.109119 0.159776,0.245516 0.203426,0.40919 0.04364,0.163677 0.06547,0.354632 0.06547,0.572865 m -0.441925,0 c -2e-6,-0.196409 -0.01559,-0.358526 -0.04677,-0.486351 -0.02962,-0.127821 -0.07404,-0.229924 -0.133279,-0.306308 -0.05768,-0.07638 -0.128604,-0.12938 -0.212778,-0.158999 -0.08418,-0.03117 -0.179266,-0.04676 -0.285264,-0.04677 -0.10756,2e-6 -0.204986,0.01637 -0.292279,0.0491 -0.08574,0.03118 -0.159,0.08574 -0.219793,0.163676 -0.0608,0.07638 -0.107559,0.178486 -0.140294,0.306308 -0.03118,0.127824 -0.04677,0.287603 -0.04676,0.479336 -10e-7,0.196413 0.01715,0.359309 0.05144,0.48869 0.03429,0.127824 0.08106,0.229926 0.140293,0.306308 0.06079,0.07638 0.13172,0.130161 0.212779,0.161338 0.08262,0.03118 0.172248,0.04676 0.268896,0.04676 0.107557,0 0.204984,-0.01481 0.292279,-0.04443 0.08729,-0.03118 0.161336,-0.08495 0.222132,-0.161338 0.06079,-0.07638 0.107556,-0.179263 0.140293,-0.308646 0.03273,-0.129381 0.0491,-0.292277 0.0491,-0.48869"
         id="path3962" />
      <path
         d="m 46.718331,37.953232 0,-1.940729 c 0,-0.053 -7.79e-4,-0.106777 -0.0023,-0.161338 0,-0.05611 -7.8e-4,-0.109894 -0.0023,-0.161338 -0.0016,-0.05144 -0.0031,-0.09976 -0.0047,-0.14497 -0.0016,-0.0452 -0.0031,-0.08573 -0.0047,-0.121588 l 0.397499,0 c 0.0016,0.03586 0.0031,0.07716 0.0047,0.123926 0.0031,0.04521 0.0055,0.09197 0.007,0.140294 0.0031,0.04833 0.0047,0.09509 0.0047,0.140294 0.0016,0.04365 0.0023,0.08106 0.0023,0.112235 l 0.0094,0 c 0.02962,-0.09665 0.06079,-0.180042 0.09353,-0.250191 0.03429,-0.0717 0.07404,-0.130159 0.119249,-0.175367 0.0452,-0.04676 0.09898,-0.08106 0.161338,-0.102882 0.06235,-0.02338 0.137954,-0.03507 0.226808,-0.03507 0.03429,2e-6 0.06703,0.0031 0.09821,0.0094 0.03117,0.0047 0.05534,0.0094 0.07249,0.01403 l 0,0.385808 c -0.02806,-0.0078 -0.0608,-0.01325 -0.09821,-0.01637 -0.03741,-0.0047 -0.0795,-0.007 -0.126264,-0.007 -0.09665,3e-6 -0.179266,0.02183 -0.247852,0.06547 -0.06703,0.04365 -0.122369,0.104443 -0.166015,0.182381 -0.04209,0.07638 -0.07326,0.168355 -0.09353,0.275911 -0.02027,0.106002 -0.0304,0.222133 -0.0304,0.348396 l 0,1.318761 -0.420881,0"
         id="path3964" />
      <path
         d="m 49.905336,37.54638 c -0.07794,0.162118 -0.181604,0.278249 -0.310984,0.348396 -0.127825,0.07015 -0.286824,0.10522 -0.476999,0.10522 -0.319558,0 -0.55494,-0.107558 -0.706145,-0.322675 -0.149646,-0.215117 -0.22447,-0.540909 -0.224469,-0.977379 -1e-6,-0.882289 0.310204,-1.323435 0.930614,-1.323437 0.191734,2e-6 0.351512,0.03508 0.479337,0.10522 0.127821,0.07015 0.230703,0.181605 0.308646,0.334367 l 0.0047,0 c -2e-6,-0.01559 -7.82e-4,-0.03975 -0.0023,-0.07249 -2e-6,-0.03429 -7.81e-4,-0.06937 -0.0023,-0.105221 -2e-6,-0.03741 -2e-6,-0.07248 0,-0.10522 -2e-6,-0.03273 -2e-6,-0.05611 0,-0.07015 l 0,-0.979717 0.420881,0 0,2.948505 c -2e-6,0.06079 -2e-6,0.11925 0,0.175367 0.0016,0.05612 0.0031,0.107559 0.0047,0.154323 0.0016,0.04677 0.0031,0.08729 0.0047,0.121588 0.0016,0.03273 0.0031,0.05612 0.0047,0.07015 l -0.402175,0 c -0.0031,-0.01559 -0.0062,-0.03741 -0.0094,-0.06547 -0.0016,-0.02962 -0.0039,-0.06313 -0.007,-0.100543 -0.0016,-0.03741 -0.0031,-0.07638 -0.0047,-0.116912 -0.0016,-0.04209 -0.0023,-0.0834 -0.0023,-0.123926 l -0.0094,0 M 48.62877,36.685908 c -1e-6,0.174589 0.01091,0.324236 0.03274,0.44894 0.02182,0.124706 0.0569,0.227588 0.10522,0.308646 0.04832,0.0795 0.109896,0.137956 0.18472,0.175367 0.07482,0.03741 0.166013,0.05612 0.273573,0.05612 0.110675,0 0.208101,-0.01793 0.292278,-0.05378 0.08573,-0.03585 0.15666,-0.09353 0.212779,-0.173028 0.05767,-0.08106 0.101321,-0.186279 0.130941,-0.315661 0.02961,-0.129381 0.04442,-0.287601 0.04443,-0.47466 -2e-6,-0.179263 -0.01481,-0.330468 -0.04443,-0.453617 -0.02962,-0.124703 -0.07327,-0.225247 -0.130941,-0.301631 -0.05768,-0.07638 -0.128604,-0.130939 -0.212779,-0.163676 -0.08262,-0.03429 -0.178486,-0.05144 -0.287602,-0.05144 -0.102883,2e-6 -0.191736,0.01793 -0.266558,0.05378 -0.07482,0.03586 -0.137177,0.09353 -0.187058,0.173029 -0.04988,0.0795 -0.0873,0.183163 -0.112235,0.310984 -0.02338,0.126266 -0.03507,0.27981 -0.03507,0.460631"
         id="path3966" />
      <path
         d="m 52.416592,35.907282 0,-0.484013 0.455954,0 0,0.484013 -0.455954,0 m 0,2.04595 0,-0.484013 0.455954,0 0,0.484013 -0.455954,0"
         id="path3968" />
    </g>
    <path
       d="m 19,13 c -3.289406,0 -6,2.710594 -6,6 l 0,58 c 0,3.289406 2.710594,6 6,6 l 58,0 c 3.289406,0 6,-2.710594 6,-6 l 0,-58 c 0,-3.289406 -2.710594,-6 -6,-6 l -58,0 z m 0,4 58,0 c 1.142594,0 2,0.857406 2,2 l 0,58 c 0,1.142594 -0.857406,2 -2,2 l -58,0 c -1.142594,0 -2,-0.857406 -2,-2 l 0,-58 c 0,-1.142594 0.857406,-2 2,-2 z"
       id="rect3222"
       style="font-size:medium;font-style:normal;font-variant:normal;font-weight:normal;font-stretch:normal;text-indent:0;text-align:start;text-decoration:none;line-height:normal;letter-spacing:normal;word-spacing:normal;text-transform:none;direction:ltr;block-progression:tb;writing-mode:lr-tb;text-anchor:start;opacity:0.07999998;color:#000000;fill:#000000;fill-opacity:1;stroke:none;stroke-width:4;marker:none;visibility:visible;display:inline;overflow:visible;enable-background:accumulate;font-family:Abandoned Bitplane;-inkscape-font-specification:Abandoned Bitplane" />
    <path
       d="M 29.53125,30 C 27.581269,30 26,31.802701 26,34.03125 l 0,23.9375 C 26,60.197299 27.581269,62 29.53125,62 l 36.9375,0 C 68.418731,62 70,60.197299 70,57.96875 l 0,-23.9375 C 70,31.802701 68.418731,30 66.46875,30 l -36.9375,0 z m 0,1 36.9375,0 C 67.79616,31 69,32.280537 69,34.03125 l 0,23.9375 C 69,59.719463 67.79616,61 66.46875,61 l -36.9375,0 C 28.20384,61 27,59.719463 27,57.96875 l 0,-23.9375 C 27,32.280537 28.20384,31 29.53125,31 z"
       id="rect3970"
       style="opacity:0.3;fill:#ffffff;fill-opacity:1;stroke:none" />
    <path
       d="m 17,14 c -1.662,0 -3,1.338 -3,3 l 0,62 c 0,1.662 1.338,3 3,3 l 62,0 c 1.662,0 3,-1.338 3,-3 l 0,-62 c 0,-1.662 -1.338,-3 -3,-3 l -62,0 z m 0,1.9375 62,0 c 0.618163,0 1.0625,0.444337 1.0625,1.0625 l 0,62 c 0,0.618163 -0.444337,1.0625 -1.0625,1.0625 l -62,0 c -0.618163,0 -1.0625,-0.444337 -1.0625,-1.0625 l 0,-62 c 0,-0.618163 0.444337,-1.0625 1.0625,-1.0625 z"
       id="rect3981"
       style="opacity:0.1;color:#000000;fill:#000000;fill-opacity:1;fill-rule:nonzero;stroke:none;stroke-width:1;marker:none;visibility:visible;display:inline;overflow:visible;enable-background:accumulate" />
    <path
       d="m 17,14 c -1.662,0 -3,1.338 -3,3 l 0,62 c 0,1.662 1.338,3 3,3 l 62,0 c 1.662,0 3,-1.338 3,-3 l 0,-62 c 0,-1.662 -1.338,-3 -3,-3 l -62,0 z m 0,0.96875 62,0 c 1.140081,0 2.03125,0.891169 2.03125,2.03125 l 0,62 c 0,1.140081 -0.891169,2.03125 -2.03125,2.03125 l -62,0 c -1.140081,0 -2.03125,-0.891169 -2.03125,-2.03125 l 0,-62 c 0,-1.140081 0.891169,-2.03125 2.03125,-2.03125 z"
       id="rect3977"
       style="opacity:0.25;color:#000000;fill:#000000;fill-opacity:1;fill-rule:nonzero;stroke:none;stroke-width:1;marker:none;visibility:visible;display:inline;overflow:visible;enable-background:accumulate" />
  </g>
  <g
     id="layer1"
     style="display:inline">
    <path
       d="M 12,6 C 8.676,6 6,8.676 6,12 l 0,72 c 0,3.324 2.676,6 6,6 l 72,0 c 3.324,0 6,-2.676 6,-6 L 90,12 C 90,8.676 87.324,6 84,6 L 12,6 z m 5,8 1,0 60,0 1,0 c 1.683774,0 3,1.316227 3,3 l 0,1 0,60 0,1 c 10e-7,1.683774 -1.316227,3 -3,3 l -1,0 -60,0 -1,0 c -1.683771,10e-7 -3,-1.316227 -3,-3 l 0,-1 0,-60 0,-1 c 0,-1.683772 1.316227,-3 3,-3 z"
       id="rect2419"
       style="fill:url(#linearGradient3466);fill-opacity:1;fill-rule:nonzero;stroke:none" />
    <path
       d="M 12,6 C 8.676,6 6,8.676 6,12 l 0,2 0,68 0,2 c 0,0.334721 0.04135,0.6507 0.09375,0.96875 0.0487,0.295596 0.09704,0.596915 0.1875,0.875 0.00988,0.03038 0.020892,0.0636 0.03125,0.09375 0.098865,0.287771 0.2348802,0.547452 0.375,0.8125 0.1445918,0.273507 0.3156161,0.535615 0.5,0.78125 0.1843839,0.245635 0.3737765,0.473472 0.59375,0.6875 0.439947,0.428056 0.94291,0.814526 1.5,1.09375 0.278545,0.139612 0.5734731,0.246947 0.875,0.34375 -0.2562018,-0.100222 -0.4867109,-0.236272 -0.71875,-0.375 -0.00741,-0.0044 -0.023866,0.0045 -0.03125,0 -0.031933,-0.0193 -0.062293,-0.04251 -0.09375,-0.0625 -0.120395,-0.0767 -0.2310226,-0.163513 -0.34375,-0.25 -0.1061728,-0.0808 -0.2132809,-0.161112 -0.3125,-0.25 C 8.4783201,88.557317 8.3087904,88.373362 8.15625,88.1875 8.0486711,88.057245 7.9378561,87.922215 7.84375,87.78125 7.818661,87.74287 7.805304,87.69538 7.78125,87.65625 7.716487,87.553218 7.6510225,87.451733 7.59375,87.34375 7.4927417,87.149044 7.3880752,86.928049 7.3125,86.71875 7.30454,86.69694 7.288911,86.6782 7.28125,86.65625 7.2494249,86.5643 7.2454455,86.469419 7.21875,86.375 7.1884177,86.268382 7.1483606,86.171969 7.125,86.0625 7.0521214,85.720988 7,85.364295 7,85 L 7,83 7,15 7,13 C 7,10.218152 9.2181517,8 12,8 l 2,0 68,0 2,0 c 2.781848,0 5,2.218152 5,5 l 0,2 0,68 0,2 c 0,0.364295 -0.05212,0.720988 -0.125,1.0625 -0.04415,0.206893 -0.08838,0.397658 -0.15625,0.59375 -0.0077,0.02195 -0.0233,0.04069 -0.03125,0.0625 -0.06274,0.173739 -0.138383,0.367449 -0.21875,0.53125 -0.04158,0.0828 -0.07904,0.169954 -0.125,0.25 -0.0546,0.09721 -0.126774,0.18835 -0.1875,0.28125 -0.09411,0.140965 -0.204921,0.275995 -0.3125,0.40625 -0.143174,0.17445 -0.303141,0.346998 -0.46875,0.5 -0.01117,0.0102 -0.01998,0.02115 -0.03125,0.03125 -0.138386,0.125556 -0.285091,0.234436 -0.4375,0.34375 -0.102571,0.07315 -0.204318,0.153364 -0.3125,0.21875 -0.0074,0.0045 -0.02384,-0.0044 -0.03125,0 -0.232039,0.138728 -0.462548,0.274778 -0.71875,0.375 0.301527,-0.0968 0.596455,-0.204138 0.875,-0.34375 0.55709,-0.279224 1.060053,-0.665694 1.5,-1.09375 0.219973,-0.214028 0.409366,-0.441865 0.59375,-0.6875 0.184384,-0.245635 0.355408,-0.507743 0.5,-0.78125 0.14012,-0.265048 0.276135,-0.524729 0.375,-0.8125 0.01041,-0.03078 0.02133,-0.06274 0.03125,-0.09375 0.09046,-0.278085 0.1388,-0.579404 0.1875,-0.875 C 89.95865,84.6507 90,84.334721 90,84 l 0,-2 0,-68 0,-2 C 90,8.676 87.324,6 84,6 L 12,6 z"
       id="rect3728"
       style="opacity:0.7;fill:url(#linearGradient3188);fill-opacity:1;fill-rule:nonzero;stroke:none" />
    <rect
       width="70"
       height="70"
       rx="4"
       ry="4"
       x="13.000001"
       y="13.000001"
       id="rect3425"
       style="fill:none;stroke:url(#linearGradient3436);stroke-width:2;stroke-linecap:square;stroke-linejoin:round;stroke-miterlimit:4;stroke-opacity:0.69658119;stroke-dasharray:none;stroke-dashoffset:0" />
    <path
       d="M 12,90 C 8.676,90 6,87.324 6,84 L 6,82 6,14 6,12 c 0,-0.334721 0.04135,-0.6507 0.09375,-0.96875 0.0487,-0.295596 0.09704,-0.596915 0.1875,-0.875 C 6.29113,10.12587 6.302142,10.09265 6.3125,10.0625 6.411365,9.774729 6.5473802,9.515048 6.6875,9.25 6.8320918,8.976493 7.0031161,8.714385 7.1875,8.46875 7.3718839,8.223115 7.5612765,7.995278 7.78125,7.78125 8.221197,7.353194 8.72416,6.966724 9.28125,6.6875 9.559795,6.547888 9.8547231,6.440553 10.15625,6.34375 9.9000482,6.443972 9.6695391,6.580022 9.4375,6.71875 c -0.00741,0.0044 -0.023866,-0.0045 -0.03125,0 -0.031933,0.0193 -0.062293,0.04251 -0.09375,0.0625 -0.120395,0.0767 -0.2310226,0.163513 -0.34375,0.25 -0.1061728,0.0808 -0.2132809,0.161112 -0.3125,0.25 C 8.4783201,7.442683 8.3087904,7.626638 8.15625,7.8125 8.0486711,7.942755 7.9378561,8.077785 7.84375,8.21875 7.818661,8.25713 7.805304,8.30462 7.78125,8.34375 7.716487,8.446782 7.6510225,8.548267 7.59375,8.65625 7.4927417,8.850956 7.3880752,9.071951 7.3125,9.28125 7.30454,9.30306 7.288911,9.3218 7.28125,9.34375 7.2494249,9.4357 7.2454455,9.530581 7.21875,9.625 7.1884177,9.731618 7.1483606,9.828031 7.125,9.9375 7.0521214,10.279012 7,10.635705 7,11 l 0,2 0,68 0,2 c 0,2.781848 2.2181517,5 5,5 l 2,0 68,0 2,0 c 2.781848,0 5,-2.218152 5,-5 l 0,-2 0,-68 0,-2 C 89,10.635705 88.94788,10.279012 88.875,9.9375 88.83085,9.730607 88.78662,9.539842 88.71875,9.34375 88.71105,9.3218 88.69545,9.30306 88.6875,9.28125 88.62476,9.107511 88.549117,8.913801 88.46875,8.75 88.42717,8.6672 88.38971,8.580046 88.34375,8.5 88.28915,8.40279 88.216976,8.31165 88.15625,8.21875 88.06214,8.077785 87.951329,7.942755 87.84375,7.8125 87.700576,7.63805 87.540609,7.465502 87.375,7.3125 87.36383,7.3023 87.35502,7.29135 87.34375,7.28125 87.205364,7.155694 87.058659,7.046814 86.90625,6.9375 86.803679,6.86435 86.701932,6.784136 86.59375,6.71875 c -0.0074,-0.0045 -0.02384,0.0044 -0.03125,0 -0.232039,-0.138728 -0.462548,-0.274778 -0.71875,-0.375 0.301527,0.0968 0.596455,0.204138 0.875,0.34375 0.55709,0.279224 1.060053,0.665694 1.5,1.09375 0.219973,0.214028 0.409366,0.441865 0.59375,0.6875 0.184384,0.245635 0.355408,0.507743 0.5,0.78125 0.14012,0.265048 0.276135,0.524729 0.375,0.8125 0.01041,0.03078 0.02133,0.06274 0.03125,0.09375 0.09046,0.278085 0.1388,0.579404 0.1875,0.875 C 89.95865,11.3493 90,11.665279 90,12 l 0,2 0,68 0,2 c 0,3.324 -2.676,6 -6,6 l -72,0 z"
       id="path3615"
       style="opacity:0.4;fill:url(#radialGradient2893);fill-opacity:1;fill-rule:nonzero;stroke:none" />
  </g>
  <g
     id="layer5"
     style="opacity:0.81280787;display:inline">
    <path
       d="m 44.84375,8.0625 1.34375,3.875 31.8125,0 1,0 c 2.753976,0 5.0625,2.308526 5.0625,5.0625 l 0,1 0,60 0,1 c 2e-6,2.753977 -2.308526,5.0625 -5.0625,5.0625 l -1,0 -6.875,0 1.34375,3.875 11.53125,0 c 2.221843,0 3.9375,-1.715657 3.9375,-3.9375 l 0,-72 C 87.9375,9.7781575 86.221843,8.0625 84,8.0625 l -39.15625,0 z"
       id="path3660"
       style="opacity:0.4;fill:url(#linearGradient3693);fill-opacity:1;fill-rule:evenodd;stroke:none" />
    <path
       d="m 47.65625,16.125 22.03125,63.75 9.3125,0 c 0.538805,0 0.875,-0.336196 0.875,-0.875 l 0,-62 c 0,-0.538805 -0.336194,-0.875 -0.875,-0.875 l -31.34375,0 z"
       id="path3664"
       style="opacity:0.7;fill:url(#linearGradient3701);fill-opacity:1;fill-rule:evenodd;stroke:none" />
    <path
       d="m 47.65625,16.125 22.03125,63.75 1,0 -22.03125,-63.75 -1,0 z"
       id="path2669"
       style="opacity:0.5;fill:url(#linearGradient2675);fill-opacity:1;fill-rule:evenodd;stroke:none" />
  </g>
</svg>
