<?xml version="1.0" encoding="UTF-8" standalone="no"?>
<svg xmlns="http://www.w3.org/2000/svg" height="96" width="96" version="1.1" xmlns:xlink="http://www.w3.org/1999/xlink">
 <defs>
  <linearGradient id="b">
   <stop stop-color="#6f6f6f" offset="0"/>
   <stop stop-color="#9c9c9c" offset="1"/>
  </linearGradient>
  <linearGradient id="a">
   <stop stop-opacity=".65116" offset="0"/>
   <stop stop-opacity=".23256" offset=".5"/>
   <stop stop-opacity="0" offset="1"/>
  </linearGradient>
  <linearGradient id="g" stop-color="#fff">
   <stop offset="0"/>
   <stop stop-opacity="0" offset="1"/>
  </linearGradient>
  <filter id="k" height="1.384" width="1.384" color-interpolation-filters="sRGB" y="-.192" x="-.192">
   <feGaussianBlur stdDeviation="5.28"/>
  </filter>
  <linearGradient id="l" y2="138.66" xlink:href="#g" gradientUnits="userSpaceOnUse" x2="48" y1="20.221" x1="48"/>
  <clipPath id="j">
   <rect rx="6" ry="6" height="84" width="84" y="6" x="6" fill="#fff"/>
  </clipPath>
  <linearGradient id="f" y2="7.0165" gradientUnits="userSpaceOnUse" x2="45.448" gradientTransform="matrix(1.0059 0 0 .99417 100 0)" y1="92.54" x1="45.448">
   <stop offset="0"/>
   <stop stop-opacity=".58824" offset="1"/>
  </linearGradient>
  <linearGradient id="i" y2="6" xlink:href="#f" gradientUnits="userSpaceOnUse" x2="32.251" gradientTransform="translate(0,1)" y1="90" x1="32.251"/>
  <linearGradient id="h" y2="5.9996" xlink:href="#f" gradientUnits="userSpaceOnUse" x2="32.251" gradientTransform="matrix(1.0238 0 0 1.0119 -1.1429 .929)" y1="90" x1="32.251"/>
  <linearGradient id="ae" y2="90.239" xlink:href="#f" gradientUnits="userSpaceOnUse" x2="32.251" gradientTransform="matrix(1.0238,0,0,-1.0119,-1.1429,98.071)" y1="6.1317" x1="32.251"/>
  <linearGradient id="ad" y2="63.893" xlink:href="#g" gradientUnits="userSpaceOnUse" x2="36.357" y1="6" x1="36.357"/>
  <linearGradient id="aa" y2="62" gradientUnits="userSpaceOnUse" x2="41" y1="76" x1="41">
   <stop stop-color="#3a77d3" offset="0"/>
   <stop stop-color="#6192dc" offset="1"/>
  </linearGradient>
  <linearGradient id="z" y2="76" xlink:href="#a" gradientUnits="userSpaceOnUse" x2="40" gradientTransform="translate(0,-56)" y1="90" x1="40"/>
  <linearGradient id="y" y2="76" xlink:href="#a" gradientUnits="userSpaceOnUse" x2="40" gradientTransform="translate(0,-42)" y1="90" x1="40"/>
  <linearGradient id="x" y2="76" xlink:href="#a" gradientUnits="userSpaceOnUse" x2="40" gradientTransform="translate(0,-28)" y1="90" x1="40"/>
  <radialGradient id="m" xlink:href="#g" gradientUnits="userSpaceOnUse" cy="90.172" cx="48" gradientTransform="matrix(1.1573 0 0 .99591 -7.551 .19713)" r="42"/>
  <linearGradient id="w" y2="76" xlink:href="#a" gradientUnits="userSpaceOnUse" x2="40" gradientTransform="translate(0,-14)" y1="90" x1="40"/>
  <linearGradient id="v" y2="76" xlink:href="#a" gradientUnits="userSpaceOnUse" x2="40" y1="90" x1="40"/>
  <linearGradient id="u" y2="76" xlink:href="#a" gradientUnits="userSpaceOnUse" x2="40" gradientTransform="translate(0,-70)" y1="90" x1="40"/>
  <linearGradient id="t" y2="5.9877" gradientUnits="userSpaceOnUse" x2="48" y1="90" x1="48">
   <stop stop-color="#e1e1e1" offset="0"/>
   <stop stop-color="#f5f5f5" offset="1"/>
  </linearGradient>
  <linearGradient id="s" y2="83" xlink:href="#b" gradientUnits="userSpaceOnUse" x2="22" gradientTransform="matrix(0,1,-1,0,100,38)" y1="83" x1="12"/>
  <linearGradient id="r" y2="83" xlink:href="#b" gradientUnits="userSpaceOnUse" x2="22" gradientTransform="matrix(0,1,-1,0,100,10)" y1="83" x1="12"/>
  <linearGradient id="q" y2="83" xlink:href="#b" gradientUnits="userSpaceOnUse" x2="22" gradientTransform="matrix(0,1,-1,0,100,24)" y1="83" x1="12"/>
  <linearGradient id="p" y2="83" xlink:href="#b" gradientUnits="userSpaceOnUse" x2="22" gradientTransform="matrix(0,1,-1,0,100,-4)" y1="83" x1="12"/>
  <linearGradient id="o" y2="83" gradientUnits="userSpaceOnUse" x2="22" gradientTransform="matrix(0,1,-1,0,100,52)" y1="83" x1="12">
   <stop stop-color="#014382" offset="0"/>
   <stop stop-color="#1d75c8" offset="1"/>
  </linearGradient>
  <linearGradient id="n" y2="83" xlink:href="#b" gradientUnits="userSpaceOnUse" x2="22" gradientTransform="matrix(0,1,-1,0,100,66)" y1="83" x1="12"/>
 </defs>
 <g fill="url(#ae)">
  <path opacity="0.08" d="m12 95.031c-5.5111 0-10.031-4.52-10.031-10.031v-71c0-5.5111 4.5202-10.031 10.031-10.031h72c5.5111 0 10.031 4.5202 10.031 10.031v71c0 5.5111-4.5202 10.031-10.031 10.031h-72z"/>
  <path opacity=".1" d="m12 94.031c-4.9716 0-9.0312-4.0596-9.0312-9.0312v-71c0-4.9722 4.0596-9.0318 9.0312-9.0318h72c4.9716 0 9.0312 4.0596 9.0312 9.0312v71c0 4.9716-4.0596 9.0312-9.0312 9.0312h-72z"/>
  <path opacity=".2" d="m12 93c-4.4091 0-8-3.591-8-8v-71c0-4.4091 3.5909-8 8-8h72c4.4091 0 8 3.5909 8 8v71c0 4.4091-3.5909 8-8 8h-72z"/>
 </g>
 <rect opacity=".3" rx="7" ry="7" height="85" width="86" y="7" x="5" fill="url(#h)"/>
 <rect opacity=".45" rx="6" ry="6" height="84" width="84" y="7" x="6" fill="url(#i)"/>
 <rect rx="6" ry="6" height="84" width="84" y="6" x="6" fill="url(#t)"/>
 <path opacity=".1" d="m12 6c-3.324 0-6 2.676-6 6v8h84v-8c0-3.324-2.676-6-6-6h-72z" fill="url(#u)"/>
 <path opacity=".1" d="m6 76v8c0 3.324 2.676 6 6 6h72c3.324 0 6-2.676 6-6v-8h-84z" fill="url(#v)"/>
 <rect opacity=".1" height="14" width="84" y="62" x="6" fill="url(#w)"/>
 <path opacity=".3" d="m12 90c-3.324 0-6-2.676-6-6v-72c0-0.33472 0.04135-0.6507 0.09375-0.96875 0.0487-0.2956 0.09704-0.59692 0.1875-0.875 0.0099-0.03 0.0209-0.063 0.0313-0.094 0.0989-0.2873 0.2349-0.547 0.375-0.812 0.1446-0.2735 0.3156-0.5356 0.5-0.7812 0.1844-0.2457 0.3738-0.4735 0.5937-0.6876 0.44-0.428 0.943-0.8145 1.5-1.0937 0.2786-0.1396 0.5735-0.2469 0.8748-0.3437-0.256 0.1002-0.4865 0.2362-0.7185 0.375-0.00741 0.0044-0.023866-0.0045-0.03125 0-0.031933 0.0193-0.062293 0.04251-0.09375 0.0625-0.1204 0.0767-0.23102 0.16351-0.34375 0.25-0.10617 0.0808-0.21328 0.16111-0.3125 0.25-0.1779 0.1614-0.3474 0.3453-0.5 0.5312-0.1075 0.1303-0.2183 0.2653-0.3124 0.4063-0.0251 0.0383-0.0385 0.0858-0.0626 0.125-0.0647 0.103-0.1302 0.2045-0.1874 0.3124-0.1011 0.1948-0.2057 0.4158-0.2813 0.625-0.008 0.0219-0.0236 0.0406-0.0313 0.0626-0.0318 0.0919-0.0358 0.1868-0.0624 0.2812-0.0304 0.1066-0.0704 0.203-0.0938 0.3125-0.0729 0.3415-0.125 0.6985-0.125 1.0625v72c0 2.7818 2.2182 5 5 5h72c2.7818 0 5-2.2182 5-5v-72c0-0.364-0.052-0.721-0.125-1.0625-0.044-0.2069-0.088-0.3977-0.156-0.5937-0.008-0.022-0.024-0.0407-0.031-0.0626-0.063-0.1737-0.139-0.3674-0.219-0.5312-0.042-0.0828-0.079-0.17-0.125-0.25-0.055-0.0972-0.127-0.1884-0.188-0.2812-0.094-0.141-0.205-0.276-0.312-0.4063-0.143-0.1745-0.303-0.347-0.469-0.5-0.011-0.0102-0.02-0.0211-0.031-0.0313-0.139-0.1255-0.285-0.2344-0.438-0.3437-0.102-0.0731-0.204-0.1534-0.312-0.2187-0.0074-0.0045-0.02384 0.0044-0.03125 0-0.23204-0.13873-0.46255-0.27478-0.71875-0.375 0.30153 0.0968 0.59646 0.20414 0.875 0.34375 0.55709 0.27922 1.0601 0.66569 1.5 1.0938 0.21997 0.21403 0.40937 0.44186 0.59375 0.6875s0.35541 0.50774 0.5 0.78125c0.14012 0.26505 0.27614 0.52473 0.375 0.8125 0.01041 0.03078 0.02133 0.06274 0.03125 0.09375 0.09046 0.27808 0.1388 0.5794 0.1875 0.875 0.053 0.318 0.094 0.634 0.094 0.969v72c0 3.324-2.676 6-6 6h-72z" fill="url(#m)"/>
 <rect opacity=".1" height="14" width="84" y="48" x="6" fill="url(#x)"/>
 <rect opacity=".1" height="14" width="84" y="34" x="6" fill="url(#y)"/>
 <rect opacity=".1" height="14" width="84" y="20" x="6" fill="url(#z)"/>
 <rect height="14" width="84" y="62" x="6" fill="url(#aa)"/>
 <rect opacity=".2" height="1" width="84" y="75" x="6" fill="#025"/>
 <rect opacity=".2" height="1" width="84" y="62" x="6" fill="#fff"/>
 <path opacity=".8" d="m12 6c-3.324 0-6 2.676-6 6v72c0 0.33472 0.04135 0.6507 0.09375 0.96875 0.0487 0.2956 0.09704 0.59692 0.1875 0.875 0.00988 0.03038 0.020892 0.0636 0.03125 0.09375 0.098865 0.28777 0.23488 0.54745 0.375 0.8125 0.14459 0.27351 0.31562 0.53562 0.5 0.78125 0.18438 0.24564 0.37378 0.47347 0.59375 0.6875 0.43995 0.42806 0.94291 0.81453 1.5 1.0938 0.27854 0.13961 0.57347 0.24695 0.875 0.34375-0.2562-0.10022-0.48671-0.23627-0.71875-0.375-0.00741-0.0044-0.023866 0.0045-0.03125 0-0.0319-0.019-0.0622-0.042-0.0937-0.062-0.1204-0.077-0.231-0.164-0.3437-0.25-0.1062-0.081-0.2133-0.161-0.3126-0.25-0.1778-0.162-0.3473-0.346-0.4999-0.531-0.1075-0.131-0.2183-0.266-0.3124-0.407-0.0251-0.038-0.0385-0.086-0.0626-0.125-0.0647-0.103-0.1302-0.204-0.1874-0.312-0.1011-0.195-0.2057-0.416-0.2813-0.625-0.008-0.022-0.0236-0.041-0.0313-0.063-0.0318-0.092-0.0358-0.187-0.0624-0.281-0.0304-0.107-0.0704-0.203-0.0938-0.313-0.0729-0.341-0.125-0.698-0.125-1.062v-72c0-2.782 2.2182-5 5-5h72c2.7818 0 5 2.2182 5 5v72c0 0.3643-0.05212 0.72099-0.125 1.0625-0.04415 0.20689-0.08838 0.39766-0.15625 0.59375-0.0077 0.02195-0.0233 0.04069-0.03125 0.0625-0.06274 0.17374-0.13838 0.36745-0.21875 0.53125-0.04158 0.0828-0.07904 0.16995-0.125 0.25-0.0546 0.09721-0.12677 0.18835-0.1875 0.28125-0.09411 0.14096-0.20492 0.276-0.3125 0.40625-0.14317 0.17445-0.30314 0.347-0.46875 0.5-0.01117 0.0102-0.01998 0.02115-0.03125 0.03125-0.13839 0.12556-0.28509 0.23444-0.4375 0.34375-0.10257 0.07315-0.20432 0.15336-0.3125 0.21875-0.0074 0.0045-0.02384-0.0044-0.03125 0-0.23204 0.13873-0.46255 0.27478-0.71875 0.375 0.30153-0.0968 0.59646-0.20414 0.875-0.34375 0.55709-0.27922 1.0601-0.66569 1.5-1.0938 0.21997-0.21403 0.40937-0.44186 0.59375-0.6875s0.35541-0.50774 0.5-0.78125c0.14012-0.26505 0.27614-0.52473 0.375-0.8125 0.01041-0.03078 0.02133-0.06274 0.03125-0.09375 0.09046-0.27808 0.1388-0.5794 0.1875-0.875 0.053-0.318 0.094-0.634 0.094-0.969v-72c0-3.324-2.676-6-6-6h-72z" fill="url(#ad)"/>
 <rect opacity=".1" clip-path="url(#j)" rx="12" ry="12" height="66" filter="url(#k)" width="66" stroke="#fff" stroke-linecap="round" y="15" x="15" stroke-width=".5" fill="url(#l)"/>
 <path fill="url(#n)" d="m22 82.31c0-0.19677-0.16324-0.35611-0.36337-0.35611h-0.705c-0.094-0.352-0.236-0.688-0.415-0.996l0.502-0.501c0.07076-0.07076 0.10824-0.15552 0.10901-0.24709 0.000782-0.09157-0.03217-0.18479-0.10174-0.25436l-0.9811-0.9811c-0.139-0.14-0.36-0.135-0.501 0.007l-0.502 0.501c-0.3076-0.1789-0.64379-0.3205-0.99564-0.41424v-0.70494c-0.000001-0.20014-0.15933-0.36337-0.3561-0.36337h-1.3808c-0.19677 0-0.3561 0.16324-0.3561 0.36337v0.70494c-0.35185 0.09375-0.68804 0.23535-0.99564 0.41424l-0.50145-0.50145c-0.14152-0.14152-0.36231-0.14641-0.50145-0.0073l-0.9811 0.9811c-0.13914 0.13914-0.13425 0.35993 0.0073 0.50145l0.50142 0.50145c-0.1789 0.3076-0.3205 0.64379-0.41424 0.99564h-0.70494c-0.20014 0-0.36337 0.15933-0.36337 0.35611v1.3808c0 0.19677 0.16324 0.3561 0.36337 0.3561h0.705c0.09375 0.35185 0.23534 0.68803 0.41424 0.99564l-0.50145 0.50145c-0.14152 0.14152-0.14641 0.36231-0.0073 0.50145l0.9811 0.9811c0.13914 0.13914 0.35993 0.13425 0.50145-0.0073l0.50145-0.50145c0.3076 0.1789 0.64379 0.3205 0.99564 0.41424v0.70494c0 0.20014 0.15933 0.36337 0.3561 0.36337h1.3808c0.19677 0 0.3561-0.16323 0.3561-0.36337v-0.70494c0.35185-0.09374 0.68804-0.23534 0.99564-0.41424l0.50145 0.50145c0.14152 0.14152 0.36231 0.14641 0.50145 0.0073l0.9811-0.9811c0.13914-0.13914 0.13425-0.35993-0.0073-0.50145l-0.50145-0.50145c0.1789-0.3076 0.3205-0.64379 0.41424-0.99564h0.70494c0.20014 0 0.36337-0.15933 0.36337-0.3561v-1.381zm-3.4884 0.6904c0 0.83442-0.67721 1.5116-1.5116 1.5116-0.83442 0-1.5116-0.67721-1.5116-1.5116 0-0.83441 0.67721-1.5116 1.5116-1.5116 0.83442 0 1.5116 0.67721 1.5116 1.5116z" display="block"/>
 <path opacity=".5" d="m16.312 78c-0.19677 0-0.34375 0.17486-0.34375 0.375v0.6875c-0.35185 0.09375-0.6924 0.22735-1 0.40625l-0.5-0.5c-0.14152-0.14152-0.36086-0.13911-0.5 0l-1 1c-0.13914 0.13914-0.14155 0.35848 0 0.5l0.25 0.25 0.75-0.75c0.13914-0.13911 0.35848-0.14152 0.5 0l0.5 0.5c0.3076-0.1789 0.64815-0.3125 1-0.40625v-0.687c0-0.2 0.147-0.375 0.344-0.375h1.375c0.19677 0 0.34375 0.17486 0.34375 0.375v0.6875c0.35185 0.09375 0.6924 0.22735 1 0.40625l0.5-0.5c0.14152-0.14155 0.36086-0.13914 0.5 0l0.75 0.75 0.25-0.25c0.07076-0.07076 0.09297-0.15843 0.09375-0.25 0.000782-0.09157-0.02418-0.18043-0.09375-0.25l-1-1c-0.13914-0.13914-0.35848-0.14155-0.5 0l-0.5 0.5c-0.3076-0.1789-0.64815-0.3125-1-0.40625v-0.687c0-0.199-0.147-0.374-0.343-0.374h-1.375zm-3.1562 3.6562c-0.03486 0.09883-0.06664 0.21074-0.09375 0.3125h-0.6875c-0.20014 0-0.375 0.14698-0.375 0.34375v1c0-0.19677 0.17486-0.34375 0.375-0.34375h0.6875c0.09375-0.35184 0.22735-0.6924 0.40625-1l-0.3125-0.3125zm7.6875 0-0.3125 0.3125c0.1789 0.3076 0.31251 0.64816 0.40625 1h0.6875c0.20014 0 0.375 0.14698 0.375 0.34375v-1c0-0.19677-0.17486-0.34375-0.375-0.34375h-0.6875c-0.028-0.101-0.06-0.213-0.095-0.312zm-5.282 1.844c-0.053 0.155-0.062 0.327-0.062 0.5 0 0.83442 0.66558 1.5 1.5 1.5s1.5-0.66558 1.5-1.5c0-0.17302-0.0089-0.34514-0.0625-0.5-0.20489 0.592-0.7761 1-1.4375 1s-1.2326-0.408-1.4375-1zm-2.4062 1.8438-0.1875 0.1875c-0.14152 0.14152-0.13911 0.36086 0 0.5l0.25 0.25 0.25-0.25c-0.128-0.219-0.227-0.445-0.313-0.688zm7.6875 0c-0.08568 0.24287-0.18534 0.46887-0.3125 0.6875l0.25 0.25 0.25-0.25c0.13914-0.13914 0.14155-0.35848 0-0.5l-0.189-0.188z" display="block"/>
 <path fill="#fff" d="m13.219 80.719-0.25 0.25c-0.13914 0.13914-0.14155 0.35848 0 0.5l0.1875 0.1875c0.08568-0.24288 0.18534-0.46887 0.3125-0.6875l-0.25-0.25zm7.5625 0-0.25 0.25c0.12716 0.21863 0.22682 0.44462 0.3125 0.6875l0.1875-0.1875c0.07076-0.07076 0.09297-0.15843 0.09375-0.25 0.000782-0.09157-0.02418-0.18043-0.09375-0.25l-0.25-0.25zm-3.782 0.781c-0.83442 0-1.5 0.66559-1.5 1.5 0 0.17302 0.0089 0.34514 0.0625 0.5 0.20489-0.592 0.7761-1 1.4375-1s1.2326 0.408 1.4375 1c0.053-0.155 0.062-0.327 0.062-0.5 0-0.834-0.666-1.5-1.5-1.5zm-5 2.1875v1c0 0.19677 0.17486 0.34375 0.375 0.34375h0.6875c0.02712 0.10176 0.05889 0.21367 0.09375 0.3125l0.3125-0.3125c-0.1789-0.3076-0.3125-0.64815-0.40625-1h-0.6875c-0.199-0.001-0.374-0.148-0.374-0.344zm10 0c0 0.19677-0.17486 0.34375-0.375 0.34375h-0.688c-0.09374 0.35184-0.22735 0.6924-0.40625 1l0.3125 0.3125c0.03486-0.09883 0.06664-0.21074 0.09375-0.3125h0.6875c0.20014 0 0.375-0.14698 0.375-0.34375v-1zm-8.7812 2.5938-0.25 0.25c-0.14152 0.14152-0.13911 0.36086 0 0.5l1 1c0.13914 0.13914 0.35848 0.14155 0.5 0l0.5-0.5c0.3076 0.1789 0.64815 0.3125 1 0.40625v0.6875c0 0.20014 0.14698 0.375 0.34375 0.375h1.375c0.19677 0 0.34375-0.17486 0.34375-0.375v-0.6875c0.35185-0.09374 0.6924-0.22735 1-0.40625l0.5 0.5c0.14152 0.14152 0.36086 0.13911 0.5 0l1-1c0.13914-0.13914 0.14155-0.35848 0-0.5l-0.25-0.25-0.75 0.75c-0.13914 0.13911-0.35848 0.14152-0.5 0l-0.5-0.5c-0.3076 0.1789-0.64815 0.31251-1 0.40625v0.6875c0 0.20014-0.14698 0.375-0.34375 0.375h-1.375c-0.19677 0-0.34375-0.17486-0.34375-0.375v-0.6875c-0.35185-0.09375-0.6924-0.22735-1-0.40625l-0.5 0.5c-0.14152 0.14155-0.36086 0.13914-0.5 0l-0.75-0.75z" display="block"/>
 <path fill="url(#s)" d="m22 54.31c0-0.19677-0.16324-0.35611-0.36337-0.35611h-0.705c-0.094-0.352-0.236-0.688-0.415-0.996l0.502-0.501c0.07076-0.07076 0.10824-0.15552 0.10901-0.24709 0.000782-0.09157-0.03217-0.18479-0.10174-0.25436l-0.9811-0.9811c-0.139-0.14-0.36-0.135-0.501 0.007l-0.502 0.501c-0.3076-0.1789-0.64379-0.3205-0.99564-0.41424v-0.70494c-0.000001-0.20014-0.15933-0.36337-0.3561-0.36337h-1.3808c-0.19677 0-0.3561 0.16324-0.3561 0.36337v0.70494c-0.35185 0.09375-0.68804 0.23535-0.99564 0.41424l-0.50145-0.50145c-0.14152-0.14152-0.36231-0.14641-0.50145-0.0073l-0.9811 0.9811c-0.13914 0.13914-0.13425 0.35993 0.0073 0.50145l0.50142 0.50145c-0.1789 0.3076-0.3205 0.64379-0.41424 0.99564h-0.70494c-0.20014 0-0.36337 0.15933-0.36337 0.35611v1.3808c0 0.19677 0.16324 0.3561 0.36337 0.3561h0.705c0.09375 0.35185 0.23534 0.68803 0.41424 0.99564l-0.50145 0.50145c-0.14152 0.14152-0.14641 0.36231-0.0073 0.50145l0.9811 0.9811c0.13914 0.13914 0.35993 0.13425 0.50145-0.0073l0.50145-0.50145c0.3076 0.1789 0.64379 0.3205 0.99564 0.41424v0.70494c0 0.20014 0.15933 0.36337 0.3561 0.36337h1.3808c0.19677 0 0.3561-0.16323 0.3561-0.36337v-0.70494c0.35185-0.09374 0.68804-0.23534 0.99564-0.41424l0.50145 0.50145c0.14152 0.14152 0.36231 0.14641 0.50145 0.0073l0.9811-0.9811c0.13914-0.13914 0.13425-0.35993-0.0073-0.50145l-0.50145-0.50145c0.1789-0.3076 0.3205-0.64379 0.41424-0.99564h0.70494c0.20014 0 0.36337-0.15933 0.36337-0.3561v-1.381zm-3.4884 0.6904c0 0.83442-0.67721 1.5116-1.5116 1.5116-0.83442 0-1.5116-0.67721-1.5116-1.5116 0-0.83441 0.67721-1.5116 1.5116-1.5116 0.83442 0 1.5116 0.67721 1.5116 1.5116z" display="block"/>
 <path opacity=".5" d="m16.312 50c-0.19677 0-0.34375 0.17486-0.34375 0.375v0.6875c-0.35185 0.09375-0.6924 0.22735-1 0.40625l-0.5-0.5c-0.14152-0.14152-0.36086-0.13911-0.5 0l-1 1c-0.13914 0.13914-0.14155 0.35848 0 0.5l0.25 0.25 0.75-0.75c0.13914-0.13911 0.35848-0.14152 0.5 0l0.5 0.5c0.3076-0.1789 0.64815-0.3125 1-0.40625v-0.687c0-0.2 0.147-0.375 0.344-0.375h1.375c0.19677 0 0.34375 0.17486 0.34375 0.375v0.6875c0.35185 0.09375 0.6924 0.22735 1 0.40625l0.5-0.5c0.14152-0.14155 0.36086-0.13914 0.5 0l0.75 0.75 0.25-0.25c0.07076-0.07076 0.09297-0.15843 0.09375-0.25 0.000782-0.09157-0.02418-0.18043-0.09375-0.25l-1-1c-0.13914-0.13914-0.35848-0.14155-0.5 0l-0.5 0.5c-0.3076-0.1789-0.64815-0.3125-1-0.40625v-0.687c0-0.199-0.147-0.374-0.343-0.374h-1.375zm-3.1562 3.6562c-0.03486 0.09883-0.06664 0.21074-0.09375 0.3125h-0.6875c-0.20014 0-0.375 0.14698-0.375 0.34375v1c0-0.19677 0.17486-0.34375 0.375-0.34375h0.6875c0.09375-0.35184 0.22735-0.6924 0.40625-1l-0.3125-0.3125zm7.6875 0-0.3125 0.3125c0.1789 0.3076 0.31251 0.64816 0.40625 1h0.6875c0.20014 0 0.375 0.14698 0.375 0.34375v-1c0-0.19677-0.17486-0.34375-0.375-0.34375h-0.6875c-0.028-0.101-0.06-0.213-0.095-0.312zm-5.282 1.844c-0.053 0.155-0.062 0.327-0.062 0.5 0 0.83442 0.66558 1.5 1.5 1.5s1.5-0.66558 1.5-1.5c0-0.17302-0.0089-0.34514-0.0625-0.5-0.20489 0.592-0.7761 1-1.4375 1s-1.2326-0.408-1.4375-1zm-2.4062 1.8438-0.1875 0.1875c-0.14152 0.14152-0.13911 0.36086 0 0.5l0.25 0.25 0.25-0.25c-0.128-0.219-0.227-0.445-0.313-0.688zm7.6875 0c-0.08568 0.24287-0.18534 0.46887-0.3125 0.6875l0.25 0.25 0.25-0.25c0.13914-0.13914 0.14155-0.35848 0-0.5l-0.189-0.188z" display="block"/>
 <path fill="#fff" d="m13.219 52.719-0.25 0.25c-0.13914 0.13914-0.14155 0.35848 0 0.5l0.1875 0.1875c0.08568-0.24288 0.18534-0.46887 0.3125-0.6875l-0.25-0.25zm7.5625 0-0.25 0.25c0.12716 0.21863 0.22682 0.44462 0.3125 0.6875l0.1875-0.1875c0.07076-0.07076 0.09297-0.15843 0.09375-0.25 0.000782-0.09157-0.02418-0.18043-0.09375-0.25l-0.25-0.25zm-3.782 0.781c-0.83442 0-1.5 0.66559-1.5 1.5 0 0.17302 0.0089 0.34514 0.0625 0.5 0.20489-0.592 0.7761-1 1.4375-1s1.2326 0.408 1.4375 1c0.053-0.155 0.062-0.327 0.062-0.5 0-0.834-0.666-1.5-1.5-1.5zm-5 2.1875v1c0 0.19677 0.17486 0.34375 0.375 0.34375h0.6875c0.02712 0.10176 0.05889 0.21367 0.09375 0.3125l0.3125-0.3125c-0.1789-0.3076-0.3125-0.64815-0.40625-1h-0.6875c-0.199-0.001-0.374-0.148-0.374-0.344zm10 0c0 0.19677-0.17486 0.34375-0.375 0.34375h-0.688c-0.09374 0.35184-0.22735 0.6924-0.40625 1l0.3125 0.3125c0.03486-0.09883 0.06664-0.21074 0.09375-0.3125h0.6875c0.20014 0 0.375-0.14698 0.375-0.34375v-1zm-8.7812 2.5938-0.25 0.25c-0.14152 0.14152-0.13911 0.36086 0 0.5l1 1c0.13914 0.13914 0.35848 0.14155 0.5 0l0.5-0.5c0.3076 0.1789 0.64815 0.3125 1 0.40625v0.6875c0 0.20014 0.14698 0.375 0.34375 0.375h1.375c0.19677 0 0.34375-0.17486 0.34375-0.375v-0.6875c0.35185-0.09374 0.6924-0.22735 1-0.40625l0.5 0.5c0.14152 0.14152 0.36086 0.13911 0.5 0l1-1c0.13914-0.13914 0.14155-0.35848 0-0.5l-0.25-0.25-0.75 0.75c-0.13914 0.13911-0.35848 0.14152-0.5 0l-0.5-0.5c-0.3076 0.1789-0.64815 0.31251-1 0.40625v0.6875c0 0.20014-0.14698 0.375-0.34375 0.375h-1.375c-0.19677 0-0.34375-0.17486-0.34375-0.375v-0.6875c-0.35185-0.09375-0.6924-0.22735-1-0.40625l-0.5 0.5c-0.14152 0.14155-0.36086 0.13914-0.5 0l-0.75-0.75z" display="block"/>
 <path fill="url(#r)" d="m22 26.31c0-0.19677-0.16324-0.35611-0.36337-0.35611h-0.705c-0.094-0.352-0.236-0.688-0.415-0.996l0.502-0.501c0.07076-0.07076 0.10824-0.15552 0.10901-0.24709 0.000782-0.09157-0.03217-0.18479-0.10174-0.25436l-0.9811-0.9811c-0.139-0.14-0.36-0.135-0.501 0.007l-0.502 0.501c-0.3076-0.1789-0.64379-0.3205-0.99564-0.41424v-0.70494c-0.000001-0.20014-0.15933-0.36337-0.3561-0.36337h-1.3808c-0.19677 0-0.3561 0.16324-0.3561 0.36337v0.70494c-0.35185 0.09375-0.68804 0.23535-0.99564 0.41424l-0.50145-0.50145c-0.14152-0.14152-0.36231-0.14641-0.50145-0.0073l-0.9811 0.9811c-0.13914 0.13914-0.13425 0.35993 0.0073 0.50145l0.50142 0.50145c-0.1789 0.3076-0.3205 0.64379-0.41424 0.99564h-0.70494c-0.20014 0-0.36337 0.15933-0.36337 0.35611v1.3808c0 0.19677 0.16324 0.3561 0.36337 0.3561h0.705c0.09375 0.35185 0.23534 0.68803 0.41424 0.99564l-0.50145 0.50145c-0.14152 0.14152-0.14641 0.36231-0.0073 0.50145l0.9811 0.9811c0.13914 0.13914 0.35993 0.13425 0.50145-0.0073l0.50145-0.50145c0.3076 0.1789 0.64379 0.3205 0.99564 0.41424v0.70494c0 0.20014 0.15933 0.36337 0.3561 0.36337h1.3808c0.19677 0 0.3561-0.16323 0.3561-0.36337v-0.70494c0.35185-0.09374 0.68804-0.23534 0.99564-0.41424l0.50145 0.50145c0.14152 0.14152 0.36231 0.14641 0.50145 0.0073l0.9811-0.9811c0.13914-0.13914 0.13425-0.35993-0.0073-0.50145l-0.50145-0.50145c0.1789-0.3076 0.3205-0.64379 0.41424-0.99564h0.70494c0.20014 0 0.36337-0.15933 0.36337-0.3561v-1.381zm-3.4884 0.6904c0 0.83442-0.67721 1.5116-1.5116 1.5116-0.83442 0-1.5116-0.67721-1.5116-1.5116 0-0.83441 0.67721-1.5116 1.5116-1.5116 0.83442 0 1.5116 0.67721 1.5116 1.5116z" display="block"/>
 <path opacity=".5" d="m16.312 22c-0.19677 0-0.34375 0.17486-0.34375 0.375v0.6875c-0.35185 0.09375-0.6924 0.22735-1 0.40625l-0.5-0.5c-0.14152-0.14152-0.36086-0.13911-0.5 0l-1 1c-0.13914 0.13914-0.14155 0.35848 0 0.5l0.25 0.25 0.75-0.75c0.13914-0.13911 0.35848-0.14152 0.5 0l0.5 0.5c0.3076-0.1789 0.64815-0.3125 1-0.40625v-0.687c0-0.2 0.147-0.375 0.344-0.375h1.375c0.19677 0 0.34375 0.17486 0.34375 0.375v0.6875c0.35185 0.09375 0.6924 0.22735 1 0.40625l0.5-0.5c0.14152-0.14155 0.36086-0.13914 0.5 0l0.75 0.75 0.25-0.25c0.07076-0.07076 0.09297-0.15843 0.09375-0.25 0.000782-0.09157-0.02418-0.18043-0.09375-0.25l-1-1c-0.13914-0.13914-0.35848-0.14155-0.5 0l-0.5 0.5c-0.3076-0.1789-0.64815-0.3125-1-0.40625v-0.687c0-0.199-0.147-0.374-0.343-0.374h-1.375zm-3.1562 3.6562c-0.03486 0.09883-0.06664 0.21074-0.09375 0.3125h-0.6875c-0.20014 0-0.375 0.14698-0.375 0.34375v1c0-0.19677 0.17486-0.34375 0.375-0.34375h0.6875c0.09375-0.35184 0.22735-0.6924 0.40625-1l-0.3125-0.3125zm7.6875 0-0.3125 0.3125c0.1789 0.3076 0.31251 0.64816 0.40625 1h0.6875c0.20014 0 0.375 0.14698 0.375 0.34375v-1c0-0.19677-0.17486-0.34375-0.375-0.34375h-0.6875c-0.028-0.101-0.06-0.213-0.095-0.312zm-5.282 1.844c-0.053 0.155-0.062 0.327-0.062 0.5 0 0.83442 0.66558 1.5 1.5 1.5s1.5-0.66558 1.5-1.5c0-0.17302-0.0089-0.34514-0.0625-0.5-0.20489 0.592-0.7761 1-1.4375 1s-1.2326-0.408-1.4375-1zm-2.4062 1.8438-0.1875 0.1875c-0.14152 0.14152-0.13911 0.36086 0 0.5l0.25 0.25 0.25-0.25c-0.128-0.219-0.227-0.445-0.313-0.688zm7.6875 0c-0.08568 0.24287-0.18534 0.46887-0.3125 0.6875l0.25 0.25 0.25-0.25c0.13914-0.13914 0.14155-0.35848 0-0.5l-0.189-0.188z" display="block"/>
 <path fill="#fff" d="m13.219 24.719-0.25 0.25c-0.13914 0.13914-0.14155 0.35848 0 0.5l0.1875 0.1875c0.08568-0.24288 0.18534-0.46887 0.3125-0.6875l-0.25-0.25zm7.5625 0-0.25 0.25c0.12716 0.21863 0.22682 0.44462 0.3125 0.6875l0.1875-0.1875c0.07076-0.07076 0.09297-0.15843 0.09375-0.25 0.000782-0.09157-0.02418-0.18043-0.09375-0.25l-0.25-0.25zm-3.782 0.781c-0.83442 0-1.5 0.66559-1.5 1.5 0 0.17302 0.0089 0.34514 0.0625 0.5 0.20489-0.592 0.7761-1 1.4375-1s1.2326 0.408 1.4375 1c0.053-0.155 0.062-0.327 0.062-0.5 0-0.834-0.666-1.5-1.5-1.5zm-5 2.1875v1c0 0.19677 0.17486 0.34375 0.375 0.34375h0.6875c0.02712 0.10176 0.05889 0.21367 0.09375 0.3125l0.3125-0.3125c-0.1789-0.3076-0.3125-0.64815-0.40625-1h-0.6875c-0.199-0.001-0.374-0.148-0.374-0.344zm10 0c0 0.19677-0.17486 0.34375-0.375 0.34375h-0.688c-0.09374 0.35184-0.22735 0.6924-0.40625 1l0.3125 0.3125c0.03486-0.09883 0.06664-0.21074 0.09375-0.3125h0.6875c0.20014 0 0.375-0.14698 0.375-0.34375v-1zm-8.7812 2.5938-0.25 0.25c-0.14152 0.14152-0.13911 0.36086 0 0.5l1 1c0.13914 0.13914 0.35848 0.14155 0.5 0l0.5-0.5c0.3076 0.1789 0.64815 0.3125 1 0.40625v0.6875c0 0.20014 0.14698 0.375 0.34375 0.375h1.375c0.19677 0 0.34375-0.17486 0.34375-0.375v-0.6875c0.35185-0.09374 0.6924-0.22735 1-0.40625l0.5 0.5c0.14152 0.14152 0.36086 0.13911 0.5 0l1-1c0.13914-0.13914 0.14155-0.35848 0-0.5l-0.25-0.25-0.75 0.75c-0.13914 0.13911-0.35848 0.14152-0.5 0l-0.5-0.5c-0.3076 0.1789-0.64815 0.31251-1 0.40625v0.6875c0 0.20014-0.14698 0.375-0.34375 0.375h-1.375c-0.19677 0-0.34375-0.17486-0.34375-0.375v-0.6875c-0.35185-0.09375-0.6924-0.22735-1-0.40625l-0.5 0.5c-0.14152 0.14155-0.36086 0.13914-0.5 0l-0.75-0.75z" display="block"/>
 <path fill="url(#q)" d="m22 40.31c0-0.19677-0.16324-0.35611-0.36337-0.35611h-0.705c-0.094-0.352-0.236-0.688-0.415-0.996l0.502-0.501c0.07076-0.07076 0.10824-0.15552 0.10901-0.24709 0.000782-0.09157-0.03217-0.18479-0.10174-0.25436l-0.9811-0.9811c-0.139-0.14-0.36-0.135-0.501 0.007l-0.502 0.501c-0.3076-0.1789-0.64379-0.3205-0.99564-0.41424v-0.70494c-0.000001-0.20014-0.15933-0.36337-0.3561-0.36337h-1.3808c-0.19677 0-0.3561 0.16324-0.3561 0.36337v0.70494c-0.35185 0.09375-0.68804 0.23535-0.99564 0.41424l-0.50145-0.50145c-0.14152-0.14152-0.36231-0.14641-0.50145-0.0073l-0.9811 0.9811c-0.13914 0.13914-0.13425 0.35993 0.0073 0.50145l0.50142 0.50145c-0.1789 0.3076-0.3205 0.64379-0.41424 0.99564h-0.70494c-0.20014 0-0.36337 0.15933-0.36337 0.35611v1.3808c0 0.19677 0.16324 0.3561 0.36337 0.3561h0.705c0.09375 0.35185 0.23534 0.68803 0.41424 0.99564l-0.50145 0.50145c-0.14152 0.14152-0.14641 0.36231-0.0073 0.50145l0.9811 0.9811c0.13914 0.13914 0.35993 0.13425 0.50145-0.0073l0.50145-0.50145c0.3076 0.1789 0.64379 0.3205 0.99564 0.41424v0.70494c0 0.20014 0.15933 0.36337 0.3561 0.36337h1.3808c0.19677 0 0.3561-0.16323 0.3561-0.36337v-0.70494c0.35185-0.09374 0.68804-0.23534 0.99564-0.41424l0.50145 0.50145c0.14152 0.14152 0.36231 0.14641 0.50145 0.0073l0.9811-0.9811c0.13914-0.13914 0.13425-0.35993-0.0073-0.50145l-0.50145-0.50145c0.1789-0.3076 0.3205-0.64379 0.41424-0.99564h0.70494c0.20014 0 0.36337-0.15933 0.36337-0.3561v-1.381zm-3.4884 0.6904c0 0.83442-0.67721 1.5116-1.5116 1.5116-0.83442 0-1.5116-0.67721-1.5116-1.5116 0-0.83441 0.67721-1.5116 1.5116-1.5116 0.83442 0 1.5116 0.67721 1.5116 1.5116z" display="block"/>
 <path opacity=".5" d="m16.312 36c-0.19677 0-0.34375 0.17486-0.34375 0.375v0.6875c-0.35185 0.09375-0.6924 0.22735-1 0.40625l-0.5-0.5c-0.14152-0.14152-0.36086-0.13911-0.5 0l-1 1c-0.13914 0.13914-0.14155 0.35848 0 0.5l0.25 0.25 0.75-0.75c0.13914-0.13911 0.35848-0.14152 0.5 0l0.5 0.5c0.3076-0.1789 0.64815-0.3125 1-0.40625v-0.687c0-0.2 0.147-0.375 0.344-0.375h1.375c0.19677 0 0.34375 0.17486 0.34375 0.375v0.6875c0.35185 0.09375 0.6924 0.22735 1 0.40625l0.5-0.5c0.14152-0.14155 0.36086-0.13914 0.5 0l0.75 0.75 0.25-0.25c0.07076-0.07076 0.09297-0.15843 0.09375-0.25 0.000782-0.09157-0.02418-0.18043-0.09375-0.25l-1-1c-0.13914-0.13914-0.35848-0.14155-0.5 0l-0.5 0.5c-0.3076-0.1789-0.64815-0.3125-1-0.40625v-0.687c0-0.199-0.147-0.374-0.343-0.374h-1.375zm-3.1562 3.6562c-0.03486 0.09883-0.06664 0.21074-0.09375 0.3125h-0.6875c-0.20014 0-0.375 0.14698-0.375 0.34375v1c0-0.19677 0.17486-0.34375 0.375-0.34375h0.6875c0.09375-0.35184 0.22735-0.6924 0.40625-1l-0.3125-0.3125zm7.6875 0-0.3125 0.3125c0.1789 0.3076 0.31251 0.64816 0.40625 1h0.6875c0.20014 0 0.375 0.14698 0.375 0.34375v-1c0-0.19677-0.17486-0.34375-0.375-0.34375h-0.6875c-0.028-0.101-0.06-0.213-0.095-0.312zm-5.282 1.844c-0.053 0.155-0.062 0.327-0.062 0.5 0 0.83442 0.66558 1.5 1.5 1.5s1.5-0.66558 1.5-1.5c0-0.17302-0.0089-0.34514-0.0625-0.5-0.20489 0.592-0.7761 1-1.4375 1s-1.2326-0.408-1.4375-1zm-2.4062 1.8438-0.1875 0.1875c-0.14152 0.14152-0.13911 0.36086 0 0.5l0.25 0.25 0.25-0.25c-0.128-0.219-0.227-0.445-0.313-0.688zm7.6875 0c-0.08568 0.24287-0.18534 0.46887-0.3125 0.6875l0.25 0.25 0.25-0.25c0.13914-0.13914 0.14155-0.35848 0-0.5l-0.189-0.188z" display="block"/>
 <path fill="#fff" d="m13.219 38.719-0.25 0.25c-0.13914 0.13914-0.14155 0.35848 0 0.5l0.1875 0.1875c0.08568-0.24288 0.18534-0.46887 0.3125-0.6875l-0.25-0.25zm7.5625 0-0.25 0.25c0.12716 0.21863 0.22682 0.44462 0.3125 0.6875l0.1875-0.1875c0.07076-0.07076 0.09297-0.15843 0.09375-0.25 0.000782-0.09157-0.02418-0.18043-0.09375-0.25l-0.25-0.25zm-3.782 0.781c-0.83442 0-1.5 0.66559-1.5 1.5 0 0.17302 0.0089 0.34514 0.0625 0.5 0.20489-0.592 0.7761-1 1.4375-1s1.2326 0.408 1.4375 1c0.053-0.155 0.062-0.327 0.062-0.5 0-0.834-0.666-1.5-1.5-1.5zm-5 2.1875v1c0 0.19677 0.17486 0.34375 0.375 0.34375h0.6875c0.02712 0.10176 0.05889 0.21367 0.09375 0.3125l0.3125-0.3125c-0.1789-0.3076-0.3125-0.64815-0.40625-1h-0.6875c-0.199-0.001-0.374-0.148-0.374-0.344zm10 0c0 0.19677-0.17486 0.34375-0.375 0.34375h-0.688c-0.09374 0.35184-0.22735 0.6924-0.40625 1l0.3125 0.3125c0.03486-0.09883 0.06664-0.21074 0.09375-0.3125h0.6875c0.20014 0 0.375-0.14698 0.375-0.34375v-1zm-8.7812 2.5938-0.25 0.25c-0.14152 0.14152-0.13911 0.36086 0 0.5l1 1c0.13914 0.13914 0.35848 0.14155 0.5 0l0.5-0.5c0.3076 0.1789 0.64815 0.3125 1 0.40625v0.6875c0 0.20014 0.14698 0.375 0.34375 0.375h1.375c0.19677 0 0.34375-0.17486 0.34375-0.375v-0.6875c0.35185-0.09374 0.6924-0.22735 1-0.40625l0.5 0.5c0.14152 0.14152 0.36086 0.13911 0.5 0l1-1c0.13914-0.13914 0.14155-0.35848 0-0.5l-0.25-0.25-0.75 0.75c-0.13914 0.13911-0.35848 0.14152-0.5 0l-0.5-0.5c-0.3076 0.1789-0.64815 0.31251-1 0.40625v0.6875c0 0.20014-0.14698 0.375-0.34375 0.375h-1.375c-0.19677 0-0.34375-0.17486-0.34375-0.375v-0.6875c-0.35185-0.09375-0.6924-0.22735-1-0.40625l-0.5 0.5c-0.14152 0.14155-0.36086 0.13914-0.5 0l-0.75-0.75z" display="block"/>
 <path fill="url(#p)" d="m22 12.31c0-0.19677-0.16324-0.35611-0.36337-0.35611h-0.705c-0.094-0.352-0.236-0.688-0.415-0.996l0.502-0.501c0.07076-0.07076 0.10824-0.15552 0.10901-0.24709 0.000782-0.09157-0.03217-0.18479-0.10174-0.25436l-0.9811-0.9811c-0.139-0.1394-0.36-0.1345-0.501 0.0071l-0.502 0.5014c-0.307-0.1789-0.644-0.3205-0.995-0.4142v-0.705c-0.000001-0.20014-0.15933-0.36337-0.3561-0.36337h-1.3808c-0.19677 0-0.3561 0.16324-0.3561 0.36337v0.705c-0.352 0.0937-0.689 0.2353-0.996 0.4142l-0.502-0.5014c-0.141-0.1416-0.362-0.1465-0.501-0.0074l-0.9811 0.9811c-0.13914 0.13914-0.13425 0.35993 0.0073 0.50145l0.50142 0.50145c-0.1789 0.3076-0.3205 0.64379-0.41424 0.99564h-0.70494c-0.20014 0-0.36337 0.15933-0.36337 0.35611v1.3808c0 0.19677 0.16324 0.3561 0.36337 0.3561h0.70494c0.09375 0.35185 0.23534 0.68803 0.41424 0.99564l-0.50145 0.50145c-0.14152 0.14152-0.14641 0.36231-0.0073 0.50145l0.9811 0.9811c0.13914 0.13914 0.35993 0.13425 0.50145-0.0073l0.50145-0.50145c0.3076 0.1789 0.64379 0.3205 0.99564 0.41424v0.70494c0 0.20014 0.15933 0.36337 0.3561 0.36337h1.3808c0.19677 0 0.3561-0.16323 0.3561-0.36337v-0.70494c0.35185-0.09374 0.68804-0.23534 0.99564-0.41424l0.50145 0.50145c0.14152 0.14152 0.36231 0.14641 0.50145 0.0073l0.9811-0.9811c0.13914-0.13914 0.13425-0.35993-0.0073-0.50145l-0.501-0.502c0.1789-0.3076 0.3205-0.64379 0.41424-0.99564h0.70494c0.20014 0 0.36337-0.15933 0.36337-0.3561v-1.381zm-3.4884 0.6904c0 0.83442-0.67721 1.5116-1.5116 1.5116-0.83442 0-1.5116-0.67721-1.5116-1.5116 0-0.83441 0.67721-1.5116 1.5116-1.5116 0.83442 0 1.5116 0.67721 1.5116 1.5116z" display="block"/>
 <path opacity=".5" d="m16.312 8c-0.19677 0-0.34375 0.17486-0.34375 0.375v0.6875c-0.35185 0.09375-0.6924 0.22735-1 0.40625l-0.5-0.5c-0.14152-0.14152-0.36086-0.13911-0.5 0l-1 1c-0.13914 0.13914-0.14155 0.35848 0 0.5l0.25 0.25 0.75-0.75c0.13914-0.13911 0.35848-0.14152 0.5 0l0.5 0.5c0.3076-0.1789 0.64815-0.3125 1-0.40625v-0.688c0-0.2001 0.147-0.375 0.344-0.375h1.375c0.19677 0 0.34375 0.17486 0.34375 0.375v0.6875c0.35185 0.09375 0.6924 0.22735 1 0.40625l0.5-0.5c0.14152-0.14155 0.36086-0.13914 0.5 0l0.75 0.75 0.25-0.25c0.07076-0.07076 0.09297-0.15843 0.09375-0.25 0.000782-0.09157-0.02418-0.18043-0.09375-0.25l-1-1c-0.13914-0.13914-0.35848-0.14155-0.5 0l-0.5 0.5c-0.3076-0.1789-0.64815-0.3125-1-0.40625v-0.6864c0-0.199-0.147-0.374-0.343-0.374h-1.375zm-3.1562 3.6562c-0.03486 0.09883-0.06664 0.21074-0.09375 0.3125h-0.6875c-0.20014 0-0.375 0.14698-0.375 0.34375v1c0-0.19677 0.17486-0.34375 0.375-0.34375h0.6875c0.09375-0.35184 0.22735-0.6924 0.40625-1l-0.3125-0.3125zm7.6875 0-0.3125 0.3125c0.1789 0.3076 0.31251 0.64816 0.40625 1h0.6875c0.20014 0 0.375 0.14698 0.375 0.34375v-1c0-0.19677-0.17486-0.34375-0.375-0.34375h-0.6875c-0.028-0.101-0.06-0.213-0.095-0.312zm-5.282 1.844c-0.053 0.155-0.062 0.327-0.062 0.5 0 0.83442 0.66558 1.5 1.5 1.5s1.5-0.66558 1.5-1.5c0-0.17302-0.0089-0.34514-0.0625-0.5-0.20489 0.592-0.7761 1-1.4375 1s-1.2326-0.408-1.4375-1zm-2.4062 1.8438-0.1875 0.1875c-0.14152 0.14152-0.13911 0.36086 0 0.5l0.25 0.25 0.25-0.25c-0.128-0.219-0.227-0.445-0.313-0.688zm7.6875 0c-0.08568 0.24287-0.18534 0.46887-0.3125 0.6875l0.25 0.25 0.25-0.25c0.13914-0.13914 0.14155-0.35848 0-0.5l-0.189-0.188z" display="block"/>
 <path fill="#fff" d="m13.219 10.719-0.25 0.25c-0.13914 0.13914-0.14155 0.35848 0 0.5l0.1875 0.1875c0.08568-0.24288 0.18534-0.46887 0.3125-0.6875l-0.25-0.25zm7.5625 0-0.25 0.25c0.12716 0.21863 0.22682 0.44462 0.3125 0.6875l0.1875-0.1875c0.07076-0.07076 0.09297-0.15843 0.09375-0.25 0.000782-0.09157-0.02418-0.18043-0.09375-0.25l-0.25-0.25zm-3.782 0.781c-0.83442 0-1.5 0.66559-1.5 1.5 0 0.17302 0.0089 0.34514 0.0625 0.5 0.20489-0.592 0.7761-1 1.4375-1s1.2326 0.408 1.4375 1c0.053-0.155 0.062-0.327 0.062-0.5 0-0.834-0.666-1.5-1.5-1.5zm-5 2.1875v1c0 0.19677 0.17486 0.34375 0.375 0.34375h0.6875c0.02712 0.10176 0.05889 0.21367 0.09375 0.3125l0.3125-0.3125c-0.1789-0.3076-0.3125-0.64815-0.40625-1h-0.6875c-0.199-0.001-0.374-0.148-0.374-0.344zm10 0c0 0.19677-0.17486 0.34375-0.375 0.34375h-0.688c-0.09374 0.35184-0.22735 0.6924-0.40625 1l0.3125 0.3125c0.03486-0.09883 0.06664-0.21074 0.09375-0.3125h0.6875c0.20014 0 0.375-0.14698 0.375-0.34375v-1zm-8.7812 2.5938-0.25 0.25c-0.14152 0.14152-0.13911 0.36086 0 0.5l1 1c0.13914 0.13914 0.35848 0.14155 0.5 0l0.5-0.5c0.3076 0.1789 0.64815 0.3125 1 0.40625v0.6875c0 0.20014 0.14698 0.375 0.34375 0.375h1.375c0.19677 0 0.34375-0.17486 0.34375-0.375v-0.6875c0.35185-0.09374 0.6924-0.22735 1-0.40625l0.5 0.5c0.14152 0.14152 0.36086 0.13911 0.5 0l1-1c0.13914-0.13914 0.14155-0.35848 0-0.5l-0.25-0.25-0.75 0.75c-0.13914 0.13911-0.35848 0.14152-0.5 0l-0.5-0.5c-0.3076 0.1789-0.64815 0.31251-1 0.40625v0.6875c0 0.20014-0.14698 0.375-0.34375 0.375h-1.375c-0.19677 0-0.34375-0.17486-0.34375-0.375v-0.6875c-0.35185-0.09375-0.6924-0.22735-1-0.40625l-0.5 0.5c-0.14152 0.14155-0.36086 0.13914-0.5 0l-0.75-0.75z" display="block"/>
 <path fill="url(#o)" d="m22 68.31c0-0.19677-0.16324-0.35611-0.36337-0.35611h-0.705c-0.094-0.352-0.236-0.688-0.415-0.996l0.502-0.501c0.07076-0.07076 0.10824-0.15552 0.10901-0.24709 0.000782-0.09157-0.03217-0.18479-0.10174-0.25436l-0.9811-0.9811c-0.139-0.14-0.36-0.135-0.501 0.007l-0.502 0.501c-0.3076-0.1789-0.64379-0.3205-0.99564-0.41424v-0.70494c-0.000001-0.20014-0.15933-0.36337-0.3561-0.36337h-1.3808c-0.19677 0-0.3561 0.16324-0.3561 0.36337v0.70494c-0.35185 0.09375-0.68804 0.23535-0.99564 0.41424l-0.50145-0.50145c-0.14152-0.14152-0.36231-0.14641-0.50145-0.0073l-0.9811 0.9811c-0.13914 0.13914-0.13425 0.35993 0.0073 0.50145l0.50142 0.50145c-0.1789 0.3076-0.3205 0.64379-0.41424 0.99564h-0.70494c-0.20014 0-0.36337 0.15933-0.36337 0.35611v1.3808c0 0.19677 0.16324 0.3561 0.36337 0.3561h0.705c0.09375 0.35185 0.23534 0.68803 0.41424 0.99564l-0.50145 0.50145c-0.14152 0.14152-0.14641 0.36231-0.0073 0.50145l0.9811 0.9811c0.13914 0.13914 0.35993 0.13425 0.50145-0.0073l0.50145-0.50145c0.3076 0.1789 0.64379 0.3205 0.99564 0.41424v0.70494c0 0.20014 0.15933 0.36337 0.3561 0.36337h1.3808c0.19677 0 0.3561-0.16323 0.3561-0.36337v-0.70494c0.35185-0.09374 0.68804-0.23534 0.99564-0.41424l0.50145 0.50145c0.14152 0.14152 0.36231 0.14641 0.50145 0.0073l0.9811-0.9811c0.13914-0.13914 0.13425-0.35993-0.0073-0.50145l-0.50145-0.50145c0.1789-0.3076 0.3205-0.64379 0.41424-0.99564h0.70494c0.20014 0 0.36337-0.15933 0.36337-0.3561v-1.381zm-3.4884 0.6904c0 0.83442-0.67721 1.5116-1.5116 1.5116-0.83442 0-1.5116-0.67721-1.5116-1.5116 0-0.83441 0.67721-1.5116 1.5116-1.5116 0.83442 0 1.5116 0.67721 1.5116 1.5116z" display="block"/>
 <path opacity=".5" d="m16.312 64c-0.19677 0-0.34375 0.17486-0.34375 0.375v0.6875c-0.35185 0.09375-0.6924 0.22735-1 0.40625l-0.5-0.5c-0.14152-0.14152-0.36086-0.13911-0.5 0l-1 1c-0.13914 0.13914-0.14155 0.35848 0 0.5l0.25 0.25 0.75-0.75c0.13914-0.13911 0.35848-0.14152 0.5 0l0.5 0.5c0.3076-0.1789 0.64815-0.3125 1-0.40625v-0.687c0-0.2 0.147-0.375 0.344-0.375h1.375c0.19677 0 0.34375 0.17486 0.34375 0.375v0.6875c0.35185 0.09375 0.6924 0.22735 1 0.40625l0.5-0.5c0.14152-0.14155 0.36086-0.13914 0.5 0l0.75 0.75 0.25-0.25c0.07076-0.07076 0.09297-0.15843 0.09375-0.25 0.000782-0.09157-0.02418-0.18043-0.09375-0.25l-1-1c-0.13914-0.13914-0.35848-0.14155-0.5 0l-0.5 0.5c-0.3076-0.1789-0.64815-0.3125-1-0.40625v-0.687c0-0.199-0.147-0.374-0.343-0.374h-1.375zm-3.1562 3.6562c-0.03486 0.09883-0.06664 0.21074-0.09375 0.3125h-0.6875c-0.20014 0-0.375 0.14698-0.375 0.34375v1c0-0.19677 0.17486-0.34375 0.375-0.34375h0.6875c0.09375-0.35184 0.22735-0.6924 0.40625-1l-0.3125-0.3125zm7.6875 0-0.3125 0.3125c0.1789 0.3076 0.31251 0.64816 0.40625 1h0.6875c0.20014 0 0.375 0.14698 0.375 0.34375v-1c0-0.19677-0.17486-0.34375-0.375-0.34375h-0.6875c-0.028-0.101-0.06-0.213-0.095-0.312zm-5.282 1.844c-0.053 0.155-0.062 0.327-0.062 0.5 0 0.83442 0.66558 1.5 1.5 1.5s1.5-0.66558 1.5-1.5c0-0.17302-0.0089-0.34514-0.0625-0.5-0.20489 0.592-0.7761 1-1.4375 1s-1.2326-0.408-1.4375-1zm-2.4062 1.8438-0.1875 0.1875c-0.14152 0.14152-0.13911 0.36086 0 0.5l0.25 0.25 0.25-0.25c-0.128-0.219-0.227-0.445-0.313-0.688zm7.6875 0c-0.08568 0.24287-0.18534 0.46887-0.3125 0.6875l0.25 0.25 0.25-0.25c0.13914-0.13914 0.14155-0.35848 0-0.5l-0.189-0.188z" display="block"/>
 <path opacity=".3" d="m13.219 66.719-0.25 0.25c-0.13914 0.13914-0.14155 0.35848 0 0.5l0.1875 0.1875c0.08568-0.24288 0.18534-0.46887 0.3125-0.6875l-0.25-0.25zm7.5625 0-0.25 0.25c0.12716 0.21863 0.22682 0.44462 0.3125 0.6875l0.1875-0.1875c0.07076-0.07076 0.09297-0.15843 0.09375-0.25 0.000782-0.09157-0.02418-0.18043-0.09375-0.25l-0.25-0.25zm-3.782 0.781c-0.83442 0-1.5 0.66559-1.5 1.5 0 0.17302 0.0089 0.34514 0.0625 0.5 0.20489-0.592 0.7761-1 1.4375-1s1.2326 0.408 1.4375 1c0.053-0.155 0.062-0.327 0.062-0.5 0-0.834-0.666-1.5-1.5-1.5zm-5 2.1875v1c0 0.19677 0.17486 0.34375 0.375 0.34375h0.6875c0.02712 0.10176 0.05889 0.21367 0.09375 0.3125l0.3125-0.3125c-0.1789-0.3076-0.3125-0.64815-0.40625-1h-0.6875c-0.199-0.001-0.374-0.148-0.374-0.344zm10 0c0 0.19677-0.17486 0.34375-0.375 0.34375h-0.688c-0.09374 0.35184-0.22735 0.6924-0.40625 1l0.3125 0.3125c0.03486-0.09883 0.06664-0.21074 0.09375-0.3125h0.6875c0.20014 0 0.375-0.14698 0.375-0.34375v-1zm-8.7812 2.5938-0.25 0.25c-0.14152 0.14152-0.13911 0.36086 0 0.5l1 1c0.13914 0.13914 0.35848 0.14155 0.5 0l0.5-0.5c0.3076 0.1789 0.64815 0.3125 1 0.40625v0.6875c0 0.20014 0.14698 0.375 0.34375 0.375h1.375c0.19677 0 0.34375-0.17486 0.34375-0.375v-0.6875c0.35185-0.09374 0.6924-0.22735 1-0.40625l0.5 0.5c0.14152 0.14152 0.36086 0.13911 0.5 0l1-1c0.13914-0.13914 0.14155-0.35848 0-0.5l-0.25-0.25-0.75 0.75c-0.13914 0.13911-0.35848 0.14152-0.5 0l-0.5-0.5c-0.3076 0.1789-0.64815 0.31251-1 0.40625v0.6875c0 0.20014-0.14698 0.375-0.34375 0.375h-1.375c-0.19677 0-0.34375-0.17486-0.34375-0.375v-0.6875c-0.35185-0.09375-0.6924-0.22735-1-0.40625l-0.5 0.5c-0.14152 0.14155-0.36086 0.13914-0.5 0l-0.75-0.75z" display="block" fill="#fff"/>
 <g font-size="7.8919px" font-family="Liberation Sans">
  <g fill="#666666">
   <text y="15.542431" x="27.15806">File manager</text>
   <text y="29.620522" x="27.15806">Browser</text>
   <text y="43.54253" x="27.15806">Mail client</text>
   <text y="57.909611" x="27.628181">Text editor</text>
   <text y="85.542534" x="27.628181">Terminal</text>
  </g>
  <text y="71.542641" x="27.15806" fill="#ffffff">Photo editor</text>
 </g>
</svg>
