<?xml version="1.0" encoding="UTF-8" standalone="no"?>
<svg xmlns="http://www.w3.org/2000/svg" height="96" width="96" version="1.1" xmlns:xlink="http://www.w3.org/1999/xlink">
 <defs>
  <linearGradient id="b">
   <stop stop-color="#6f6f6f" offset="0"/>
   <stop stop-color="#9c9c9c" offset="1"/>
  </linearGradient>
  <linearGradient id="a">
   <stop stop-opacity=".65116" offset="0"/>
   <stop stop-opacity=".23256" offset=".5"/>
   <stop stop-opacity="0" offset="1"/>
  </linearGradient>
  <linearGradient id="e" stop-color="#fff">
   <stop offset="0"/>
   <stop stop-opacity="0" offset="1"/>
  </linearGradient>
  <filter id="f" height="1.384" width="1.384" color-interpolation-filters="sRGB" y="-.192" x="-.192">
   <feGaussianBlur stdDeviation="5.28"/>
  </filter>
  <linearGradient id="g" y2="138.66" xlink:href="#e" gradientUnits="userSpaceOnUse" x2="48" y1="20.221" x1="48"/>
  <clipPath id="aa">
   <rect rx="6" ry="6" height="84" width="84" y="6" x="6" fill="#fff"/>
  </clipPath>
  <linearGradient id="d" y2="7.0165" gradientUnits="userSpaceOnUse" x2="45.448" gradientTransform="matrix(1.0059 0 0 .99417 100 0)" y1="92.54" x1="45.448">
   <stop offset="0"/>
   <stop stop-opacity=".58824" offset="1"/>
  </linearGradient>
  <linearGradient id="z" y2="6" xlink:href="#d" gradientUnits="userSpaceOnUse" x2="32.251" gradientTransform="translate(0,1)" y1="90" x1="32.251"/>
  <linearGradient id="y" y2="5.9996" xlink:href="#d" gradientUnits="userSpaceOnUse" x2="32.251" gradientTransform="matrix(1.0238 0 0 1.0119 -1.1429 .929)" y1="90" x1="32.251"/>
  <linearGradient id="x" y2="90.239" xlink:href="#d" gradientUnits="userSpaceOnUse" x2="32.251" gradientTransform="matrix(1.0238,0,0,-1.0119,-1.1429,98.071)" y1="6.1317" x1="32.251"/>
  <linearGradient id="w" y2="63.893" xlink:href="#e" gradientUnits="userSpaceOnUse" x2="36.357" y1="6" x1="36.357"/>
  <linearGradient id="v" y2="62" gradientUnits="userSpaceOnUse" x2="41" y1="76" x1="41">
   <stop stop-color="#3a77d3" offset="0"/>
   <stop stop-color="#6192dc" offset="1"/>
  </linearGradient>
  <linearGradient id="u" y2="76" xlink:href="#a" gradientUnits="userSpaceOnUse" x2="40" gradientTransform="translate(0,-56)" y1="90" x1="40"/>
  <linearGradient id="t" y2="76" xlink:href="#a" gradientUnits="userSpaceOnUse" x2="40" gradientTransform="translate(0,-42)" y1="90" x1="40"/>
  <linearGradient id="s" y2="76" xlink:href="#a" gradientUnits="userSpaceOnUse" x2="40" gradientTransform="translate(0,-28)" y1="90" x1="40"/>
  <radialGradient id="h" xlink:href="#e" gradientUnits="userSpaceOnUse" cy="90.172" cx="48" gradientTransform="matrix(1.1573 0 0 .99591 -7.551 .19713)" r="42"/>
  <linearGradient id="r" y2="76" xlink:href="#a" gradientUnits="userSpaceOnUse" x2="40" gradientTransform="translate(0,-14)" y1="90" x1="40"/>
  <linearGradient id="q" y2="76" xlink:href="#a" gradientUnits="userSpaceOnUse" x2="40" y1="90" x1="40"/>
  <linearGradient id="p" y2="76" xlink:href="#a" gradientUnits="userSpaceOnUse" x2="40" gradientTransform="translate(0,-70)" y1="90" x1="40"/>
  <linearGradient id="o" y2="5.9877" gradientUnits="userSpaceOnUse" x2="48" y1="90" x1="48">
   <stop stop-color="#e1e1e1" offset="0"/>
   <stop stop-color="#f5f5f5" offset="1"/>
  </linearGradient>
  <linearGradient id="n" y2="83" xlink:href="#b" gradientUnits="userSpaceOnUse" x2="22" gradientTransform="matrix(0,1,-1,0,100,38)" y1="83" x1="12"/>
  <linearGradient id="m" y2="83" xlink:href="#b" gradientUnits="userSpaceOnUse" x2="22" gradientTransform="matrix(0,1,-1,0,100,10)" y1="83" x1="12"/>
  <linearGradient id="l" y2="83" xlink:href="#b" gradientUnits="userSpaceOnUse" x2="22" gradientTransform="matrix(0,1,-1,0,100,24)" y1="83" x1="12"/>
  <linearGradient id="k" y2="83" xlink:href="#b" gradientUnits="userSpaceOnUse" x2="22" gradientTransform="matrix(0,1,-1,0,100,-4)" y1="83" x1="12"/>
  <linearGradient id="j" y2="83" gradientUnits="userSpaceOnUse" x2="22" gradientTransform="matrix(0,1,-1,0,100,52)" y1="83" x1="12">
   <stop stop-color="#014382" offset="0"/>
   <stop stop-color="#1d75c8" offset="1"/>
  </linearGradient>
  <linearGradient id="i" y2="83" xlink:href="#b" gradientUnits="userSpaceOnUse" x2="22" gradientTransform="matrix(0,1,-1,0,100,66)" y1="83" x1="12"/>
 </defs>
 <g fill="url(#x)">
  <path opacity="0.08" d="m12 95.031c-5.5111 0-10.031-4.52-10.031-10.031v-71c0-5.5111 4.5202-10.031 10.031-10.031h72c5.5111 0 10.031 4.5202 10.031 10.031v71c0 5.5111-4.5202 10.031-10.031 10.031h-72z"/>
  <path opacity=".1" d="m12 94.031c-4.9716 0-9.0312-4.0596-9.0312-9.0312v-71c0-4.9718 4.0596-9.0314 9.0312-9.0314h72c4.9716 0 9.0312 4.0596 9.0312 9.0312v71c0 4.9716-4.0596 9.0312-9.0312 9.0312h-72z"/>
  <path opacity=".2" d="m12 93c-4.4091 0-8-3.591-8-8v-71c0-4.4091 3.5909-8 8-8h72c4.4091 0 8 3.5909 8 8v71c0 4.4091-3.5909 8-8 8h-72z"/>
 </g>
 <rect opacity=".3" rx="7" ry="7" height="85" width="86" y="7" x="5" fill="url(#y)"/>
 <rect opacity=".45" rx="6" ry="6" height="84" width="84" y="7" x="6" fill="url(#z)"/>
 <rect rx="6" ry="6" height="84" width="84" y="6" x="6" fill="url(#o)"/>
 <g style="color:#000000">
  <path opacity=".1" d="m12 6c-3.324 0-6 2.676-6 6v8h84v-8c0-3.324-2.676-6-6-6h-72z" fill="url(#p)"/>
  <path opacity=".1" d="m6 76v8c0 3.324 2.676 6 6 6h72c3.324 0 6-2.676 6-6v-8h-84z" fill="url(#q)"/>
  <rect opacity=".1" height="14" width="84" y="62" x="6" fill="url(#r)"/>
 </g>
 <path opacity=".3" d="m12 90c-3.324 0-6-2.676-6-6v-72c0-0.33472 0.04135-0.6507 0.09375-0.96875 0.0487-0.2956 0.09704-0.59692 0.1875-0.875 0.0099-0.03 0.0209-0.063 0.0313-0.094 0.0989-0.2873 0.2349-0.547 0.375-0.812 0.1446-0.2735 0.3156-0.5356 0.5-0.7812 0.1844-0.2457 0.3738-0.4735 0.5937-0.6876 0.44-0.428 0.943-0.8145 1.5-1.0937 0.2786-0.1396 0.5735-0.2469 0.8748-0.3437-0.256 0.1002-0.4865 0.2362-0.7185 0.375-0.00741 0.0044-0.023866-0.0045-0.03125 0-0.031933 0.0193-0.062293 0.04251-0.09375 0.0625-0.1204 0.0767-0.23102 0.16351-0.34375 0.25-0.10617 0.0808-0.21328 0.16111-0.3125 0.25-0.1779 0.1614-0.3474 0.3453-0.5 0.5312-0.1075 0.1303-0.2183 0.2653-0.3124 0.4063-0.0251 0.0383-0.0385 0.0858-0.0626 0.125-0.0647 0.103-0.1302 0.2045-0.1874 0.3124-0.1011 0.1948-0.2057 0.4158-0.2813 0.625-0.008 0.0219-0.0236 0.0406-0.0313 0.0626-0.0318 0.0919-0.0358 0.1868-0.0624 0.2812-0.0304 0.1066-0.0704 0.203-0.0938 0.3125-0.0729 0.3415-0.125 0.6985-0.125 1.0625v72c0 2.7818 2.2182 5 5 5h72c2.7818 0 5-2.2182 5-5v-72c0-0.364-0.052-0.721-0.125-1.0625-0.044-0.2069-0.088-0.3977-0.156-0.5937-0.008-0.022-0.024-0.0407-0.031-0.0626-0.063-0.1737-0.139-0.3674-0.219-0.5312-0.042-0.0828-0.079-0.17-0.125-0.25-0.055-0.0972-0.127-0.1884-0.188-0.2812-0.094-0.141-0.205-0.276-0.312-0.4063-0.143-0.1745-0.303-0.347-0.469-0.5-0.011-0.0102-0.02-0.0211-0.031-0.0313-0.139-0.1255-0.285-0.2344-0.438-0.3437-0.102-0.0731-0.204-0.1534-0.312-0.2187-0.0074-0.0045-0.02384 0.0044-0.03125 0-0.23204-0.13873-0.46255-0.27478-0.71875-0.375 0.30153 0.0968 0.59646 0.20414 0.875 0.34375 0.55709 0.27922 1.0601 0.66569 1.5 1.0938 0.21997 0.21403 0.40937 0.44186 0.59375 0.6875s0.35541 0.50774 0.5 0.78125c0.14012 0.26505 0.27614 0.52473 0.375 0.8125 0.01041 0.03078 0.02133 0.06274 0.03125 0.09375 0.09046 0.27808 0.1388 0.5794 0.1875 0.875 0.053 0.318 0.094 0.634 0.094 0.969v72c0 3.324-2.676 6-6 6h-72z" fill="url(#h)"/>
 <g style="color:#000000">
  <rect opacity=".1" height="14" width="84" y="48" x="6" fill="url(#s)"/>
  <rect opacity=".1" height="14" width="84" y="34" x="6" fill="url(#t)"/>
  <rect opacity=".1" height="14" width="84" y="20" x="6" fill="url(#u)"/>
  <rect height="14" width="84" y="62" x="6" fill="url(#v)"/>
  <rect opacity=".2" height="1" width="84" y="75" x="6" fill="#025"/>
  <rect opacity=".2" height="1" width="84" y="62" x="6" fill="#fff"/>
 </g>
 <path opacity=".8" d="m12 6c-3.324 0-6 2.676-6 6v72c0 0.33472 0.04135 0.6507 0.09375 0.96875 0.0487 0.2956 0.09704 0.59692 0.1875 0.875 0.00988 0.03038 0.020892 0.0636 0.03125 0.09375 0.098865 0.28777 0.23488 0.54745 0.375 0.8125 0.14459 0.27351 0.31562 0.53562 0.5 0.78125 0.18438 0.24564 0.37378 0.47347 0.59375 0.6875 0.43995 0.42806 0.94291 0.81453 1.5 1.0938 0.27854 0.13961 0.57347 0.24695 0.875 0.34375-0.2562-0.10022-0.48671-0.23627-0.71875-0.375-0.00741-0.0044-0.023866 0.0045-0.03125 0-0.0319-0.019-0.0622-0.042-0.0937-0.062-0.1204-0.077-0.231-0.164-0.3437-0.25-0.1062-0.081-0.2133-0.161-0.3126-0.25-0.1778-0.162-0.3473-0.346-0.4999-0.531-0.1075-0.131-0.2183-0.266-0.3124-0.407-0.0251-0.038-0.0385-0.086-0.0626-0.125-0.0647-0.103-0.1302-0.204-0.1874-0.312-0.1011-0.195-0.2057-0.416-0.2813-0.625-0.008-0.022-0.0236-0.041-0.0313-0.063-0.0318-0.092-0.0358-0.187-0.0624-0.281-0.0304-0.107-0.0704-0.203-0.0938-0.313-0.0729-0.341-0.125-0.698-0.125-1.062v-72c0-2.782 2.2182-5 5-5h72c2.7818 0 5 2.2182 5 5v72c0 0.3643-0.05212 0.72099-0.125 1.0625-0.04415 0.20689-0.08838 0.39766-0.15625 0.59375-0.0077 0.02195-0.0233 0.04069-0.03125 0.0625-0.06274 0.17374-0.13838 0.36745-0.21875 0.53125-0.04158 0.0828-0.07904 0.16995-0.125 0.25-0.0546 0.09721-0.12677 0.18835-0.1875 0.28125-0.09411 0.14096-0.20492 0.276-0.3125 0.40625-0.14317 0.17445-0.30314 0.347-0.46875 0.5-0.01117 0.0102-0.01998 0.02115-0.03125 0.03125-0.13839 0.12556-0.28509 0.23444-0.4375 0.34375-0.10257 0.07315-0.20432 0.15336-0.3125 0.21875-0.0074 0.0045-0.02384-0.0044-0.03125 0-0.23204 0.13873-0.46255 0.27478-0.71875 0.375 0.30153-0.0968 0.59646-0.20414 0.875-0.34375 0.55709-0.27922 1.0601-0.66569 1.5-1.0938 0.21997-0.21403 0.40937-0.44186 0.59375-0.6875s0.35541-0.50774 0.5-0.78125c0.14012-0.26505 0.27614-0.52473 0.375-0.8125 0.01041-0.03078 0.02133-0.06274 0.03125-0.09375 0.09046-0.27808 0.1388-0.5794 0.1875-0.875 0.053-0.318 0.094-0.634 0.094-0.969v-72c0-3.324-2.676-6-6-6h-72z" fill="url(#w)"/>
 <rect opacity=".1" clip-path="url(#aa)" rx="12" ry="12" height="66" filter="url(#f)" width="66" stroke="#fff" stroke-linecap="round" y="15" x="15" stroke-width=".5" fill="url(#g)"/>
 <g fill="#666">
  <path d="m28.532 15.902h-0.72656v-5.7109h2.9648v0.64062h-2.2383v2.0156h2.0898v0.64062h-2.0898v2.4141"/>
  <path d="m32.356 15.902h-0.711v-4.289h0.711v4.2891m-0.765-5.449c0-0.15624 0.03906-0.26953 0.11719-0.33984 0.08073-0.07031 0.17969-0.10546 0.29688-0.10547 0.05729 0.000005 0.11068 0.0091 0.16016 0.02734 0.05208 0.01563 0.09635 0.04167 0.13281 0.07813 0.03906 0.03646 0.06901 0.08334 0.08984 0.14062 0.02344 0.05469 0.03515 0.1211 0.03516 0.19922-0.000002 0.15105-0.04167 0.26433-0.125 0.33984-0.08073 0.07292-0.17839 0.10938-0.29297 0.10938-0.11719 0.000005-0.21615-0.03645-0.29688-0.10938-0.078-0.073-0.117-0.186-0.117-0.34"/>
  <path d="m34.435 15.902h-0.711v-6.0781h0.711v6.0781"/>
  <path d="m37.497 15.98c-0.28646 0-0.54818-0.04818-0.78516-0.14453-0.23698-0.09636-0.44141-0.23698-0.61328-0.42188-0.16927-0.1849-0.30078-0.41406-0.39453-0.6875s-0.14063-0.58594-0.14062-0.9375c-0.000001-0.35416 0.04297-0.67057 0.12891-0.94922 0.08594-0.27864 0.20703-0.51432 0.36328-0.70703 0.15625-0.19531 0.34245-0.34375 0.55859-0.44531 0.21875-0.10156 0.45963-0.15234 0.72266-0.15234 0.25781 0.000005 0.48958 0.04688 0.69531 0.14062 0.20573 0.09115 0.3802 0.22136 0.52344 0.39062 0.14323 0.16667 0.2526 0.36849 0.32812 0.60547 0.07812 0.23438 0.11718 0.49479 0.11719 0.78125v0.44141h-2.7031c0.01302 0.50261 0.11849 0.8724 0.31641 1.1094 0.20052 0.23698 0.49739 0.35547 0.89062 0.35547 0.13281 0.000001 0.25521-0.0065 0.36719-0.01953 0.11458-0.01302 0.22396-0.03125 0.32812-0.05469 0.10677-0.02604 0.20963-0.05729 0.30859-0.09375 0.09895-0.03906 0.19922-0.08203 0.30078-0.12891v0.63281c-0.10417 0.04948-0.20703 0.09245-0.30859 0.12891-0.09896 0.03646-0.20183 0.06641-0.30859 0.08984-0.10417 0.02344-0.21354 0.04036-0.32812 0.05078-0.11198 0.01042-0.23438 0.01563-0.36719 0.01563m-0.177-3.855c-0.29688 0.000004-0.53255 0.10157-0.70703 0.30469-0.17188 0.20313-0.27214 0.4987-0.30078 0.88672h1.9219c-0.000004-0.17708-0.01823-0.33854-0.05469-0.48438-0.03386-0.14843-0.08855-0.27474-0.16406-0.37891-0.07292-0.10416-0.16667-0.18489-0.28125-0.24219-0.11459-0.05729-0.25261-0.08593-0.41406-0.08594"/>
  <path d="m44.618 15.902-1.7305-5h-0.03125c0.01562 0.19271 0.02864 0.38412 0.03906 0.57422 0.01042 0.16407 0.01823 0.33724 0.02344 0.51953 0.0078 0.17969 0.01172 0.34375 0.01172 0.49219v3.4141h-0.67188v-5.7109h1.0781l1.6094 4.6562h0.02344l1.6172-4.6562h1.0781v5.7109h-0.72656v-3.4648c-0.000006-0.13541 0.0026-0.29036 0.0078-0.46484s0.01171-0.34114 0.01953-0.5c0.01041-0.18489 0.01953-0.37239 0.02734-0.5625h-0.03125l-1.7461 4.9922h-0.59766"/>
  <path d="m51.548 15.902-0.14453-0.59375h-0.03125c-0.08594 0.11719-0.17188 0.21875-0.25781 0.30469-0.08594 0.08333-0.17969 0.15234-0.28125 0.20703s-0.21485 0.09505-0.33984 0.12109c-0.125 0.02604-0.26953 0.03906-0.43359 0.03906-0.17969 0-0.34505-0.02604-0.49609-0.07813-0.15104-0.04948-0.28255-0.1263-0.39453-0.23047-0.10938-0.10677-0.19531-0.23958-0.25781-0.39844-0.0625-0.16146-0.09375-0.35156-0.09375-0.57031-0.000001-0.42708 0.14974-0.75521 0.44922-0.98438 0.30208-0.22916 0.76042-0.35416 1.375-0.375l0.71875-0.02734v-0.26953c-0.000003-0.17448-0.01953-0.32031-0.05859-0.4375-0.03646-0.11718-0.09115-0.21093-0.16406-0.28125-0.07032-0.07291-0.15886-0.125-0.26562-0.15625-0.10417-0.03125-0.22396-0.04687-0.35938-0.04687-0.21615 0.000004-0.41797 0.03125-0.60547 0.09375-0.1849 0.0625-0.36328 0.13802-0.53516 0.22656l-0.25-0.53516c0.19271-0.10416 0.40755-0.1927 0.64453-0.26562 0.23698-0.07291 0.48568-0.10937 0.74609-0.10938 0.26562 0.000005 0.49479 0.02735 0.6875 0.08203 0.19531 0.05209 0.35547 0.13672 0.48047 0.25391 0.1276 0.11459 0.22265 0.26172 0.28516 0.44141 0.0625 0.17969 0.09375 0.39714 0.09375 0.65234v2.9375h-0.51172m-1.306-0.496c0.15885 0 0.30599-0.02474 0.44141-0.07422s0.2526-0.1237 0.35156-0.22266c0.09896-0.10156 0.17578-0.22786 0.23047-0.37891 0.05729-0.15364 0.08593-0.33333 0.08594-0.53906v-0.38672l-0.55859 0.02734c-0.23438 0.01042-0.43099 0.03646-0.58984 0.07813-0.15886 0.04167-0.28646 0.10026-0.38281 0.17578-0.09375 0.07292-0.16146 0.16276-0.20312 0.26953-0.04167 0.10417-0.0625 0.22266-0.0625 0.35547-0.000001 0.23958 0.0625 0.41536 0.1875 0.52734 0.1276 0.11198 0.29427 0.16797 0.5 0.16797"/>
  <path d="m56.06 15.902v-2.7617c-0.000003-0.33854-0.06901-0.59244-0.20703-0.76172-0.13542-0.16927-0.34896-0.2539-0.64062-0.25391-0.21094 0.000004-0.38802 0.03386-0.53125 0.10156-0.14323 0.06771-0.25912 0.16797-0.34766 0.30078-0.08594 0.13282-0.14844 0.29558-0.1875 0.48828-0.03646 0.19271-0.05469 0.41406-0.05469 0.66406v2.2227h-0.71094v-4.2891h0.57812l0.10156 0.57812h0.03906c0.0651-0.11198 0.14192-0.20833 0.23047-0.28906 0.09114-0.08333 0.1901-0.15234 0.29688-0.20703 0.10677-0.05468 0.22005-0.09505 0.33984-0.12109s0.24218-0.03906 0.36719-0.03906c0.47656 0.000005 0.83463 0.125 1.0742 0.375 0.24218 0.2474 0.36328 0.64454 0.36328 1.1914v2.8008h-0.71094"/>
  <path d="m60.517 15.902-0.14453-0.59375h-0.03125c-0.08594 0.11719-0.17188 0.21875-0.25781 0.30469-0.08594 0.08333-0.17969 0.15234-0.28125 0.20703s-0.21485 0.09505-0.33984 0.12109c-0.125 0.02604-0.26953 0.03906-0.43359 0.03906-0.17969 0-0.34505-0.02604-0.49609-0.07813-0.15104-0.04948-0.28255-0.1263-0.39453-0.23047-0.10938-0.10677-0.19531-0.23958-0.25781-0.39844-0.0625-0.16146-0.09375-0.35156-0.09375-0.57031-0.000001-0.42708 0.14974-0.75521 0.44922-0.98438 0.30208-0.22916 0.76042-0.35416 1.375-0.375l0.71875-0.02734v-0.26953c-0.000003-0.17448-0.01953-0.32031-0.05859-0.4375-0.03646-0.11718-0.09115-0.21093-0.16406-0.28125-0.07032-0.07291-0.15886-0.125-0.26562-0.15625-0.10417-0.03125-0.22396-0.04687-0.35938-0.04687-0.21615 0.000004-0.41797 0.03125-0.60547 0.09375-0.1849 0.0625-0.36328 0.13802-0.53516 0.22656l-0.25-0.53516c0.19271-0.10416 0.40755-0.1927 0.64453-0.26562 0.23698-0.07291 0.48568-0.10937 0.74609-0.10938 0.26562 0.000005 0.49479 0.02735 0.6875 0.08203 0.19531 0.05209 0.35547 0.13672 0.48047 0.25391 0.1276 0.11459 0.22265 0.26172 0.28516 0.44141 0.0625 0.17969 0.09375 0.39714 0.09375 0.65234v2.9375h-0.51172m-1.306-0.496c0.15885 0 0.30599-0.02474 0.44141-0.07422s0.2526-0.1237 0.35156-0.22266c0.09896-0.10156 0.17578-0.22786 0.23047-0.37891 0.05729-0.15364 0.08593-0.33333 0.08594-0.53906v-0.38672l-0.55859 0.02734c-0.23438 0.01042-0.43099 0.03646-0.58984 0.07813-0.15886 0.04167-0.28646 0.10026-0.38281 0.17578-0.09375 0.07292-0.16146 0.16276-0.20312 0.26953-0.04167 0.10417-0.0625 0.22266-0.0625 0.35547-0.000001 0.23958 0.0625 0.41536 0.1875 0.52734 0.1276 0.11198 0.29427 0.16797 0.5 0.16797"/>
  <path d="m65.653 11.613v0.44141l-0.76953 0.10547c0.07291 0.09115 0.13411 0.20834 0.18359 0.35156 0.04948 0.14063 0.07421 0.30078 0.07422 0.48047-0.000004 0.19792-0.03125 0.38151-0.09375 0.55078-0.0599 0.16667-0.15235 0.3112-0.27734 0.43359-0.1224 0.1224-0.27474 0.21875-0.45703 0.28906-0.1823 0.06771-0.39453 0.10156-0.63672 0.10156-0.05729 0.000001-0.11458 0.000001-0.17188 0-0.05729-0.0026-0.10417-0.0078-0.14062-0.01563-0.04427 0.02604-0.08854 0.05599-0.13281 0.08984-0.04167 0.03125-0.08073 0.06771-0.11719 0.10938-0.03386 0.04167-0.0625 0.08854-0.08594 0.14062-0.02083 0.05208-0.03125 0.10938-0.03125 0.17188-0.000001 0.07031 0.01562 0.1276 0.04687 0.17188 0.03125 0.04167 0.07292 0.07422 0.125 0.09766 0.05469 0.02344 0.11849 0.03906 0.19141 0.04687 0.07291 0.0078 0.14974 0.01172 0.23047 0.01172h0.6875c0.24218 0.000001 0.44661 0.03125 0.61328 0.09375 0.16666 0.0599 0.30208 0.14193 0.40625 0.24609 0.10677 0.10417 0.18359 0.22786 0.23047 0.37109 0.04687 0.14062 0.07031 0.29036 0.07031 0.44922-0.000004 0.22917-0.04297 0.4349-0.12891 0.61719-0.08334 0.18229-0.21224 0.33594-0.38672 0.46094-0.17448 0.1276-0.39584 0.22526-0.66406 0.29297-0.26563 0.06771-0.57943 0.10156-0.94141 0.10156-0.27865-0.000002-0.52214-0.02735-0.73047-0.08203-0.208-0.054-0.381-0.133-0.519-0.237s-0.243-0.231-0.313-0.379c-0.068-0.146-0.102-0.311-0.102-0.496-0.000001-0.15625 0.02474-0.29427 0.07422-0.41406 0.05208-0.11719 0.12109-0.21875 0.20703-0.30469s0.1849-0.15625 0.29688-0.21094c0.11458-0.05469 0.23307-0.09635 0.35547-0.125-0.10938-0.04948-0.19922-0.1276-0.26953-0.23438-0.07031-0.10677-0.10547-0.22917-0.10547-0.36719 0-0.15885 0.04167-0.29557 0.125-0.41016 0.08333-0.11719 0.21484-0.23047 0.39453-0.33984-0.11198-0.04687-0.21484-0.11068-0.30859-0.19141-0.09115-0.08333-0.16927-0.17708-0.23438-0.28125-0.0625-0.10677-0.11198-0.22265-0.14844-0.34766-0.03385-0.125-0.05078-0.2539-0.05078-0.38672 0-0.23177 0.03255-0.4388 0.09766-0.62109 0.0651-0.18229 0.16146-0.33724 0.28906-0.46484s0.28646-0.22526 0.47656-0.29297c0.1901-0.0677 0.41146-0.10156 0.66406-0.10156 0.09635 0.000005 0.19531 0.0078 0.29688 0.02344 0.10416 0.01303 0.1914 0.03125 0.26172 0.05469h1.418m-3.168 4.9922c-0.000001 0.09635 0.01693 0.1862 0.05078 0.26953s0.08854 0.15495 0.16406 0.21484c0.07812 0.05989 0.17969 0.10677 0.30469 0.14062 0.1276 0.03646 0.28515 0.05469 0.47266 0.05469 0.48437-0.000001 0.84635-0.07552 1.0859-0.22656 0.24218-0.14844 0.36328-0.36328 0.36328-0.64453-0.000003-0.11979-0.01563-0.21745-0.04687-0.29297-0.032-0.074-0.084-0.134-0.157-0.179-0.07-0.041-0.164-0.07-0.281-0.086-0.118-0.015-0.261-0.023-0.43-0.023h-0.6875c-0.09115 0-0.1862 0.01042-0.28516 0.03125s-0.1901 0.0599-0.27344 0.11719c-0.08073 0.05729-0.14844 0.13542-0.20312 0.23438-0.05208 0.10156-0.07813 0.23177-0.07813 0.39062m0.35938-3.6133c-0.000002 0.29948 0.07031 0.52214 0.21094 0.66797 0.14062 0.14584 0.33984 0.21875 0.59766 0.21875 0.26042 0.000002 0.45703-0.07161 0.58984-0.21484 0.13541-0.14583 0.20312-0.3737 0.20312-0.68359-0.000003-0.32031-0.06901-0.55599-0.20703-0.70703-0.13542-0.15104-0.33334-0.22656-0.59375-0.22656-0.25781 0.000004-0.45573 0.07813-0.59375 0.23438s-0.20703 0.39323-0.20703 0.71094"/>
  <path d="m68.185 15.98c-0.28646 0-0.54818-0.04818-0.78516-0.14453-0.23698-0.09636-0.44141-0.23698-0.61328-0.42188-0.16927-0.1849-0.30078-0.41406-0.39453-0.6875s-0.14063-0.58594-0.14062-0.9375c-0.000001-0.35416 0.04297-0.67057 0.12891-0.94922 0.08594-0.27864 0.20703-0.51432 0.36328-0.70703 0.15625-0.19531 0.34245-0.34375 0.55859-0.44531 0.21875-0.10156 0.45963-0.15234 0.72266-0.15234 0.25781 0.000005 0.48958 0.04688 0.69531 0.14062 0.20573 0.09115 0.3802 0.22136 0.52344 0.39062 0.14323 0.16667 0.2526 0.36849 0.32812 0.60547 0.07812 0.23438 0.11718 0.49479 0.11719 0.78125v0.44141h-2.7031c0.01302 0.50261 0.11849 0.8724 0.31641 1.1094 0.20052 0.23698 0.49739 0.35547 0.89062 0.35547 0.13281 0.000001 0.25521-0.0065 0.36719-0.01953 0.11458-0.01302 0.22396-0.03125 0.32812-0.05469 0.10677-0.02604 0.20963-0.05729 0.30859-0.09375 0.09896-0.03906 0.19922-0.08203 0.30078-0.12891v0.63281c-0.10417 0.04948-0.20703 0.09245-0.30859 0.12891-0.09896 0.03646-0.20183 0.06641-0.30859 0.08984-0.10417 0.02344-0.21354 0.04036-0.32812 0.05078-0.11198 0.01042-0.23438 0.01563-0.36719 0.01563m-0.177-3.855c-0.29688 0.000004-0.53255 0.10157-0.70703 0.30469-0.17188 0.20313-0.27214 0.4987-0.30078 0.88672h1.9219c-0.000004-0.17708-0.01823-0.33854-0.05469-0.48438-0.03386-0.14843-0.08854-0.27474-0.16406-0.37891-0.07292-0.10416-0.16667-0.18489-0.28125-0.24219-0.11459-0.05729-0.25261-0.08593-0.41406-0.08594"/>
  <path d="m72.626 11.535c0.07552 0.000005 0.16015 0.0039 0.25391 0.01172 0.09375 0.0052 0.17448 0.01433 0.24219 0.02734l-0.09375 0.65625c-0.07292-0.01302-0.14844-0.02343-0.22656-0.03125-0.07552-0.01041-0.14714-0.01562-0.21484-0.01563-0.16406 0.000003-0.3138 0.03386-0.44922 0.10156-0.13542 0.06511-0.25261 0.16016-0.35156 0.28516-0.09636 0.1224-0.17188 0.27084-0.22656 0.44531-0.05208 0.17188-0.07813 0.36328-0.07813 0.57422v2.3125h-0.71094v-4.2891h0.57812l0.08594 0.78516h0.03125c0.0651-0.11198 0.13411-0.22005 0.20703-0.32422 0.07552-0.10416 0.15885-0.19531 0.25-0.27344 0.09375-0.08073 0.19791-0.14453 0.3125-0.19141 0.11458-0.04947 0.24479-0.07421 0.39062-0.07422"/>
  <path d="m27.806 24.191h1.5586c0.33333 0.000006 0.6263 0.02605 0.87891 0.07813 0.2552 0.04949 0.46744 0.13152 0.63672 0.24609 0.17187 0.11198 0.30078 0.26042 0.38672 0.44531 0.08593 0.1823 0.1289 0.40756 0.12891 0.67578-0.000005 0.16146-0.02605 0.3125-0.07813 0.45312-0.04948 0.14063-0.1224 0.26433-0.21875 0.37109-0.09636 0.10678-0.21615 0.19662-0.35938 0.26953-0.14063 0.07032-0.30078 0.11719-0.48047 0.14062v0.03906c0.17968 0.03125 0.34765 0.07683 0.50391 0.13672 0.15885 0.05729 0.29687 0.13802 0.41406 0.24219 0.11718 0.10157 0.20963 0.23047 0.27734 0.38672 0.0677 0.15625 0.10156 0.34636 0.10156 0.57031-0.000004 0.26042-0.04297 0.49349-0.12891 0.69922-0.08334 0.20313-0.20573 0.3763-0.36719 0.51953-0.15886 0.14062-0.35287 0.2487-0.58203 0.32422-0.22917 0.07552-0.48828 0.11328-0.77734 0.11328h-1.8945v-5.7109m0.72656 2.4219h0.95312c0.21875 0.000004 0.40234-0.01953 0.55078-0.05859 0.14843-0.03906 0.26823-0.09635 0.35938-0.17188 0.09114-0.07812 0.15625-0.17448 0.19531-0.28906 0.04166-0.11718 0.0625-0.2526 0.0625-0.40625-0.000003-0.3125-0.10026-0.53645-0.30078-0.67188-0.20052-0.13541-0.51693-0.20312-0.94922-0.20312h-0.87109v1.8008m0 0.60938v2.0625h1.0391c0.22916 0.000001 0.42057-0.02604 0.57422-0.07813 0.15625-0.05208 0.28125-0.125 0.375-0.21875 0.09635-0.09375 0.16536-0.20573 0.20703-0.33594 0.04166-0.13281 0.0625-0.27864 0.0625-0.4375-0.000004-0.14583-0.02214-0.27995-0.06641-0.40234-0.04167-0.12239-0.11198-0.22656-0.21094-0.3125-0.09636-0.08854-0.22526-0.15625-0.38672-0.20312-0.16146-0.04948-0.36198-0.07422-0.60156-0.07422h-0.99219"/>
  <path d="m34.532 25.535c0.07552 0.000005 0.16015 0.0039 0.25391 0.01172 0.09375 0.0052 0.17448 0.01433 0.24219 0.02734l-0.09375 0.65625c-0.07292-0.01302-0.14844-0.02343-0.22656-0.03125-0.07552-0.01041-0.14714-0.01562-0.21484-0.01563-0.16406 0.000003-0.3138 0.03386-0.44922 0.10156-0.13542 0.06511-0.25261 0.16016-0.35156 0.28516-0.09636 0.1224-0.17188 0.27084-0.22656 0.44531-0.05208 0.17188-0.07813 0.36328-0.07813 0.57422v2.3125h-0.71094v-4.2891h0.57812l0.08594 0.78516h0.03125c0.0651-0.11198 0.13411-0.22005 0.20703-0.32422 0.07552-0.10416 0.15885-0.19531 0.25-0.27344 0.09375-0.08073 0.19791-0.14453 0.3125-0.19141 0.11458-0.04948 0.24479-0.07421 0.39062-0.07422"/>
  <path d="m39.36 27.75c-0.000005 0.35677-0.04427 0.67448-0.13281 0.95312-0.08594 0.27604-0.21094 0.50912-0.375 0.69922-0.16146 0.1875-0.35808 0.33073-0.58984 0.42969-0.23177 0.09896-0.49219 0.14844-0.78125 0.14844-0.26823 0-0.51563-0.04948-0.74219-0.14844s-0.42318-0.24219-0.58984-0.42969c-0.16406-0.1901-0.29297-0.42318-0.38672-0.69922-0.09115-0.27864-0.13672-0.59635-0.13672-0.95312-0.000001-0.35416 0.04297-0.66797 0.12891-0.94141 0.08854-0.27604 0.21354-0.50781 0.375-0.69531 0.16146-0.1901 0.35807-0.33333 0.58984-0.42969 0.23437-0.09895 0.49609-0.14843 0.78516-0.14844 0.26823 0.000005 0.51562 0.04948 0.74219 0.14844 0.22656 0.09636 0.42187 0.23959 0.58594 0.42969 0.16666 0.1875 0.29557 0.41927 0.38672 0.69531 0.09374 0.27344 0.14062 0.58724 0.14062 0.94141m-3 0c-0.000002 0.54427 0.08854 0.95443 0.26562 1.2305 0.17968 0.27344 0.47005 0.41016 0.87109 0.41016 0.40104 0.000001 0.6888-0.13672 0.86328-0.41016 0.17708-0.27604 0.26562-0.6862 0.26562-1.2305-0.000004-0.54427-0.08985-0.95052-0.26953-1.2188-0.17709-0.27083-0.46615-0.40625-0.86719-0.40625-0.40104 0.000004-0.69011 0.13542-0.86719 0.40625-0.17448 0.26823-0.26172 0.67448-0.26172 1.2188"/>
  <path d="m43.747 29.902-0.65625-2.4062c-0.01042-0.04687-0.02344-0.09896-0.03906-0.15625-0.01563-0.05989-0.03125-0.12239-0.04687-0.1875-0.01563-0.0651-0.03256-0.13151-0.05078-0.19922-0.01563-0.06771-0.03125-0.13411-0.04687-0.19922-0.03646-0.15104-0.07422-0.30729-0.11328-0.46875h-0.02344c-0.03646 0.16407-0.07162 0.32162-0.10547 0.47266-0.02865 0.13021-0.0599 0.26433-0.09375 0.40234-0.03125 0.13802-0.0612 0.25521-0.08984 0.35156l-0.67188 2.3906h-0.82422l-1.0977-4.2891h0.74609l0.51172 2.2812c0.02604 0.11719 0.05208 0.24479 0.07813 0.38281 0.02604 0.13542 0.05078 0.27083 0.07422 0.40625 0.02344 0.13281 0.04427 0.25912 0.0625 0.37891 0.01823 0.11719 0.03255 0.21354 0.04297 0.28906h0.02344c0.01302-0.06771 0.02995-0.15755 0.05078-0.26953 0.02344-0.11458 0.04818-0.23437 0.07422-0.35938 0.02864-0.1276 0.05729-0.2526 0.08594-0.375 0.02864-0.125 0.05599-0.23047 0.08203-0.31641l0.69922-2.418h0.76562l0.67188 2.418c0.02343 0.08854 0.04948 0.19271 0.07813 0.3125 0.03125 0.11979 0.06119 0.24219 0.08984 0.36719 0.02864 0.1224 0.05468 0.24089 0.07813 0.35547 0.02343 0.11458 0.04036 0.20964 0.05078 0.28516h0.02344c0.0078-0.06771 0.01953-0.15755 0.03516-0.26953 0.01823-0.11458 0.03906-0.23958 0.0625-0.375 0.02343-0.13542 0.04817-0.27344 0.07422-0.41406 0.02864-0.14323 0.05729-0.27604 0.08594-0.39844l0.53516-2.2812h0.72656l-1.1094 4.2891h-0.83984"/>
  <path d="m49.024 28.727c-0.000003 0.20834-0.03776 0.39063-0.11328 0.54688s-0.1849 0.28776-0.32812 0.39453c-0.14063 0.10417-0.3112 0.18229-0.51172 0.23438-0.20052 0.05208-0.42578 0.07813-0.67578 0.07813-0.28386 0-0.52734-0.02344-0.73047-0.07031-0.20313-0.04427-0.38151-0.11068-0.53516-0.19922v-0.64844c0.08073 0.04167 0.17057 0.08333 0.26953 0.125 0.09896 0.03906 0.20312 0.07422 0.3125 0.10547 0.10937 0.03125 0.22135 0.05729 0.33594 0.07813 0.11719 0.01823 0.23307 0.02734 0.34766 0.02734 0.16927 0.000001 0.3125-0.01432 0.42969-0.04297 0.11979-0.02865 0.21614-0.06901 0.28906-0.12109 0.07552-0.05469 0.13021-0.11979 0.16406-0.19531 0.03385-0.07812 0.05078-0.16406 0.05078-0.25781-0.000003-0.08073-0.01302-0.15364-0.03906-0.21875-0.02604-0.0651-0.07422-0.1289-0.14453-0.19141-0.06771-0.0651-0.16146-0.13021-0.28125-0.19531s-0.27344-0.13802-0.46094-0.21875-0.35677-0.16015-0.50781-0.23828c-0.14844-0.07812-0.27474-0.16536-0.37891-0.26172-0.10417-0.09635-0.1849-0.20703-0.24219-0.33203-0.05469-0.1276-0.08203-0.27864-0.08203-0.45312-0.000001-0.18229 0.03516-0.34375 0.10547-0.48438 0.07292-0.14322 0.17448-0.26302 0.30469-0.35938 0.13021-0.09635 0.28646-0.16927 0.46875-0.21875s0.38542-0.07421 0.60938-0.07422c0.2526 0.000005 0.48307 0.02735 0.69141 0.08203 0.21094 0.05469 0.41015 0.12631 0.59766 0.21484l-0.245 0.574c-0.17-0.075-0.344-0.14-0.524-0.195-0.177-0.057-0.358-0.086-0.543-0.086-0.26563 0.000004-0.46224 0.04427-0.58984 0.13281-0.12761 0.08594-0.19141 0.20964-0.19141 0.37109-0.000002 0.09115 0.01432 0.17058 0.04297 0.23828 0.03125 0.06771 0.08333 0.13151 0.15625 0.19141s0.17057 0.1211 0.29297 0.18359c0.12239 0.0599 0.27474 0.12761 0.45703 0.20312 0.1875 0.07813 0.35416 0.15625 0.5 0.23438 0.14844 0.07813 0.27474 0.16667 0.37891 0.26562 0.10416 0.09636 0.18359 0.20703 0.23828 0.33203 0.05468 0.125 0.08203 0.27474 0.08203 0.44922"/>
  <path d="m51.763 29.98c-0.28646 0-0.54818-0.04818-0.78516-0.14453s-0.44141-0.23698-0.61328-0.42188c-0.16927-0.1849-0.30078-0.41406-0.39453-0.6875s-0.14063-0.58594-0.14062-0.9375c-0.000001-0.35416 0.04297-0.67057 0.12891-0.94922 0.08594-0.27864 0.20703-0.51432 0.36328-0.70703 0.15625-0.19531 0.34245-0.34374 0.55859-0.44531 0.21875-0.10156 0.45963-0.15234 0.72266-0.15234 0.25781 0.000005 0.48958 0.04688 0.69531 0.14062 0.20573 0.09115 0.3802 0.22136 0.52344 0.39062 0.14323 0.16667 0.2526 0.36849 0.32812 0.60547 0.07812 0.23438 0.11718 0.49479 0.11719 0.78125v0.44141h-2.7031c0.01302 0.50261 0.11849 0.8724 0.31641 1.1094 0.20052 0.23698 0.49739 0.35547 0.89062 0.35547 0.13281 0.000001 0.25521-0.0065 0.36719-0.01953 0.11458-0.01302 0.22396-0.03125 0.32812-0.05469 0.10677-0.02604 0.20963-0.05729 0.30859-0.09375 0.09895-0.03906 0.19922-0.08203 0.30078-0.12891v0.63281c-0.10417 0.04948-0.20703 0.09245-0.30859 0.12891-0.09896 0.03646-0.20183 0.06641-0.30859 0.08984-0.10417 0.02344-0.21354 0.04036-0.32812 0.05078-0.11198 0.01042-0.23438 0.01563-0.36719 0.01563m-0.177-3.855c-0.29688 0.000004-0.53255 0.10157-0.70703 0.30469-0.17188 0.20313-0.27214 0.4987-0.30078 0.88672h1.9219c-0.000004-0.17708-0.01823-0.33854-0.05469-0.48438-0.03386-0.14843-0.08855-0.27474-0.16406-0.37891-0.07292-0.10416-0.16667-0.18489-0.28125-0.24219-0.11459-0.05729-0.25261-0.08593-0.41406-0.08594"/>
  <path d="m56.204 25.535c0.07552 0.000005 0.16015 0.0039 0.25391 0.01172 0.09375 0.0052 0.17448 0.01433 0.24219 0.02734l-0.09375 0.65625c-0.07292-0.01302-0.14844-0.02343-0.22656-0.03125-0.07552-0.01041-0.14714-0.01562-0.21484-0.01563-0.16406 0.000003-0.3138 0.03386-0.44922 0.10156-0.13542 0.06511-0.25261 0.16016-0.35156 0.28516-0.09636 0.1224-0.17188 0.27084-0.22656 0.44531-0.05208 0.17188-0.07813 0.36328-0.07813 0.57422v2.3125h-0.71094v-4.2891h0.57812l0.08594 0.78516h0.03125c0.0651-0.11198 0.13411-0.22005 0.20703-0.32422 0.07552-0.10416 0.15885-0.19531 0.25-0.27344 0.09375-0.08073 0.19791-0.14453 0.3125-0.19141 0.11458-0.04948 0.24479-0.07421 0.39062-0.07422"/>
  <path d="m30.165 43.902-1.7305-5h-0.03125c0.01562 0.19271 0.02865 0.38412 0.03906 0.57422 0.01042 0.16407 0.01823 0.33724 0.02344 0.51953 0.0078 0.17969 0.01172 0.34375 0.01172 0.49219v3.4141h-0.67188v-5.7109h1.0781l1.6094 4.6562h0.02344l1.6172-4.6562h1.0781v5.7109h-0.72656v-3.4648c-0.000006-0.13541 0.0026-0.29036 0.0078-0.46484s0.01171-0.34114 0.01953-0.5c0.01041-0.18489 0.01953-0.37239 0.02734-0.5625h-0.03125l-1.7461 4.9922h-0.59766"/>
  <path d="m37.095 43.902-0.14453-0.59375h-0.03125c-0.08594 0.11719-0.17188 0.21875-0.25781 0.30469-0.08594 0.08333-0.17969 0.15234-0.28125 0.20703s-0.21485 0.09505-0.33984 0.12109c-0.125 0.02604-0.26953 0.03906-0.43359 0.03906-0.17969 0-0.34505-0.02604-0.49609-0.07813-0.15104-0.04948-0.28255-0.1263-0.39453-0.23047-0.10938-0.10677-0.19531-0.23958-0.25781-0.39844-0.0625-0.16146-0.09375-0.35156-0.09375-0.57031-0.000001-0.42708 0.14974-0.75521 0.44922-0.98438 0.30208-0.22916 0.76042-0.35416 1.375-0.375l0.71875-0.02734v-0.26953c-0.000003-0.17448-0.01953-0.32031-0.05859-0.4375-0.03646-0.11718-0.09115-0.21093-0.16406-0.28125-0.07032-0.07291-0.15886-0.125-0.26562-0.15625-0.10417-0.03125-0.22396-0.04687-0.35938-0.04687-0.21615 0.000004-0.41797 0.03125-0.60547 0.09375-0.1849 0.0625-0.36328 0.13802-0.53516 0.22656l-0.25-0.53516c0.19271-0.10416 0.40755-0.1927 0.64453-0.26562 0.23698-0.07291 0.48568-0.10937 0.74609-0.10938 0.26562 0.000005 0.49479 0.02735 0.6875 0.08203 0.19531 0.05209 0.35547 0.13672 0.48047 0.25391 0.1276 0.11459 0.22265 0.26172 0.28516 0.44141 0.0625 0.17969 0.09375 0.39714 0.09375 0.65234v2.9375h-0.51172m-1.306-0.496c0.15885 0 0.30599-0.02474 0.44141-0.07422s0.2526-0.1237 0.35156-0.22266c0.09896-0.10156 0.17578-0.22786 0.23047-0.37891 0.05729-0.15364 0.08593-0.33333 0.08594-0.53906v-0.38672l-0.55859 0.02734c-0.23438 0.01042-0.43099 0.03646-0.58984 0.07813-0.15886 0.04167-0.28646 0.10026-0.38281 0.17578-0.09375 0.07292-0.16146 0.16276-0.20312 0.26953-0.04167 0.10417-0.0625 0.22266-0.0625 0.35547-0.000001 0.23958 0.0625 0.41537 0.1875 0.52734 0.1276 0.11198 0.29427 0.16797 0.5 0.16797"/>
  <path d="m39.638 43.902h-0.711v-4.289h0.711v4.2891m-0.766-5.449c0-0.15624 0.03906-0.26953 0.11719-0.33984 0.08073-0.07031 0.17969-0.10546 0.29688-0.10547 0.05729 0.000006 0.11068 0.0091 0.16016 0.02734 0.05208 0.01563 0.09635 0.04167 0.13281 0.07813 0.03906 0.03646 0.06901 0.08334 0.08984 0.14062 0.02344 0.05469 0.03515 0.1211 0.03516 0.19922-0.000002 0.15105-0.04167 0.26433-0.125 0.33984-0.08073 0.07292-0.17839 0.10938-0.29297 0.10938-0.11719 0.000005-0.21615-0.03645-0.29688-0.10938-0.078-0.073-0.117-0.186-0.117-0.34"/>
  <path d="m41.716 43.902h-0.711v-6.078h0.711v6.0781"/>
  <path d="m46.802 43.98c-0.26302 0-0.50912-0.04037-0.73828-0.12109-0.22917-0.08333-0.42839-0.21354-0.59766-0.39062-0.16927-0.17969-0.30208-0.40755-0.39844-0.68359-0.09636-0.27864-0.14453-0.61328-0.14453-1.0039-0.000001-0.40885 0.04948-0.7552 0.14844-1.0391 0.09896-0.28645 0.23437-0.51822 0.40625-0.69531 0.17448-0.17968 0.3776-0.30989 0.60938-0.39062 0.23177-0.08073 0.48047-0.12109 0.74609-0.12109 0.20312 0.000005 0.40104 0.02214 0.59375 0.06641 0.19531 0.04428 0.35807 0.09896 0.48828 0.16406l-0.21094 0.60156c-0.0599-0.02604-0.12631-0.05078-0.19922-0.07422-0.07292-0.02604-0.14844-0.04817-0.22656-0.06641-0.07813-0.02083-0.15495-0.03645-0.23047-0.04687-0.07552-0.01302-0.14714-0.01953-0.21484-0.01953-0.40886 0.000004-0.70703 0.13151-0.89453 0.39453-0.1875 0.26042-0.28125 0.66667-0.28125 1.2188-0.000002 0.54948 0.09375 0.95182 0.28125 1.207 0.1901 0.2526 0.47786 0.37891 0.86328 0.37891 0.21094 0.000001 0.40104-0.02344 0.57031-0.07031 0.17187-0.04948 0.32812-0.10677 0.46875-0.17188v0.63281c-0.14063 0.07552-0.29167 0.13281-0.45312 0.17188-0.15886 0.03906-0.35417 0.05859-0.58594 0.05859"/>
  <path d="m49.575 43.902h-0.711v-6.078h0.711v6.0781"/>
  <path d="m51.653 43.902h-0.711v-4.289h0.711v4.2891m-0.76562-5.4492c0-0.15624 0.03906-0.26953 0.11719-0.33984 0.08073-0.07031 0.17969-0.10546 0.29688-0.10547 0.05729 0.000006 0.11068 0.0091 0.16016 0.02734 0.05208 0.01563 0.09635 0.04167 0.13281 0.07813 0.03906 0.03646 0.06901 0.08334 0.08984 0.14062 0.02344 0.05469 0.03515 0.1211 0.03516 0.19922-0.000002 0.15105-0.04167 0.26433-0.125 0.33984-0.08073 0.07292-0.17839 0.10938-0.29297 0.10938-0.11719 0.000005-0.21615-0.03645-0.29688-0.10938-0.07813-0.07291-0.11719-0.18619-0.11719-0.33984"/>
  <path d="m54.716 43.98c-0.28646 0-0.54818-0.04818-0.78516-0.14453s-0.44141-0.23698-0.61328-0.42188c-0.16927-0.1849-0.30078-0.41406-0.39453-0.6875s-0.14063-0.58594-0.14062-0.9375c-0.000001-0.35416 0.04297-0.67057 0.12891-0.94922 0.08594-0.27864 0.20703-0.51432 0.36328-0.70703 0.15625-0.19531 0.34245-0.34374 0.55859-0.44531 0.21875-0.10156 0.45963-0.15234 0.72266-0.15234 0.25781 0.000005 0.48958 0.04688 0.69531 0.14062 0.20573 0.09115 0.3802 0.22136 0.52344 0.39062 0.14323 0.16667 0.2526 0.36849 0.32812 0.60547 0.07812 0.23438 0.11718 0.49479 0.11719 0.78125v0.44141h-2.7031c0.01302 0.50261 0.11849 0.8724 0.31641 1.1094 0.20052 0.23698 0.49739 0.35547 0.89062 0.35547 0.13281 0.000001 0.25521-0.0065 0.36719-0.01953 0.11458-0.01302 0.22396-0.03125 0.32812-0.05469 0.10677-0.02604 0.20963-0.05729 0.30859-0.09375 0.09895-0.03906 0.19922-0.08203 0.30078-0.12891v0.63281c-0.10417 0.04948-0.20703 0.09245-0.30859 0.12891-0.09896 0.03646-0.20183 0.06641-0.30859 0.08984-0.10417 0.02344-0.21354 0.04037-0.32812 0.05078-0.11198 0.01042-0.23438 0.01563-0.36719 0.01563m-0.176-3.855c-0.29688 0.000004-0.53255 0.10157-0.70703 0.30469-0.17188 0.20313-0.27214 0.4987-0.30078 0.88672h1.9219c-0.000004-0.17708-0.01823-0.33854-0.05469-0.48438-0.03386-0.14843-0.08855-0.27474-0.16406-0.37891-0.07292-0.10416-0.16667-0.18489-0.28125-0.24219-0.11459-0.05729-0.25261-0.08593-0.41406-0.08594"/>
  <path d="m59.981 43.902v-2.7617c-0.000003-0.33854-0.06901-0.59244-0.20703-0.76172-0.13542-0.16927-0.34896-0.2539-0.64062-0.25391-0.21094 0.000004-0.38802 0.03386-0.53125 0.10156-0.14323 0.06771-0.25912 0.16797-0.34766 0.30078-0.08594 0.13282-0.14844 0.29558-0.1875 0.48828-0.03646 0.19271-0.05469 0.41406-0.05469 0.66406v2.2227h-0.71094v-4.2891h0.57812l0.10156 0.57812h0.03906c0.0651-0.11198 0.14192-0.20833 0.23047-0.28906 0.09114-0.08333 0.1901-0.15234 0.29688-0.20703 0.10677-0.05468 0.22005-0.09505 0.33984-0.12109s0.24218-0.03906 0.36719-0.03906c0.47656 0.000005 0.83463 0.125 1.0742 0.375 0.24218 0.2474 0.36328 0.64454 0.36328 1.1914v2.8008h-0.71094"/>
  <path d="m63.317 43.398c0.04687 0.000001 0.09896-0.0026 0.15625-0.0078 0.05989-0.0052 0.11718-0.01172 0.17188-0.01953 0.05468-0.0078 0.10416-0.01693 0.14844-0.02734 0.04687-0.01042 0.08203-0.01953 0.10547-0.02734v0.53906c-0.03386 0.01563-0.07682 0.03125-0.12891 0.04687-0.05209 0.01563-0.10938 0.02865-0.17188 0.03906-0.0625 0.01302-0.12761 0.02214-0.19531 0.02734-0.06771 0.0078-0.13412 0.01172-0.19922 0.01172-0.16146 0-0.3112-0.02083-0.44922-0.0625-0.138-0.041-0.257-0.113-0.359-0.214-0.099-0.102-0.177-0.239-0.234-0.41-0.058-0.175-0.086-0.394-0.086-0.657v-2.4883h-0.60547v-0.31641l0.60547-0.30469 0.30469-0.89844h0.41016v0.98438h1.0781v0.53516h-1.0781v2.4883c-0.000001 0.2526 0.04036 0.44271 0.12109 0.57031 0.08333 0.1276 0.21875 0.19141 0.40625 0.19141"/>
  <path d="m29.47 57.902h-0.73047v-5.0703h-1.6328v-0.64062h3.9922v0.64062h-1.6289v5.0703"/>
  <path d="m33.075 57.98c-0.28646 0-0.54818-0.04818-0.78516-0.14453s-0.44141-0.23698-0.61328-0.42188c-0.16927-0.1849-0.30078-0.41406-0.39453-0.6875s-0.14063-0.58594-0.14062-0.9375c-0.000001-0.35416 0.04297-0.67057 0.12891-0.94922 0.08594-0.27864 0.20703-0.51432 0.36328-0.70703 0.15625-0.19531 0.34245-0.34374 0.55859-0.44531 0.21875-0.10156 0.45963-0.15234 0.72266-0.15234 0.25781 0.000005 0.48958 0.04688 0.69531 0.14062 0.20573 0.09115 0.3802 0.22136 0.52344 0.39062 0.14323 0.16667 0.2526 0.36849 0.32812 0.60547 0.07812 0.23438 0.11718 0.49479 0.11719 0.78125v0.44141h-2.7031c0.01302 0.50261 0.11849 0.8724 0.31641 1.1094 0.20052 0.23698 0.49739 0.35547 0.89062 0.35547 0.13281 0.000001 0.25521-0.0065 0.36719-0.01953 0.11458-0.01302 0.22396-0.03125 0.32812-0.05469 0.10677-0.02604 0.20963-0.05729 0.30859-0.09375 0.09895-0.03906 0.19922-0.08203 0.30078-0.12891v0.63281c-0.10417 0.04948-0.20703 0.09245-0.30859 0.12891-0.09896 0.03646-0.20183 0.06641-0.30859 0.08984-0.10417 0.02344-0.21354 0.04037-0.32812 0.05078-0.11198 0.01042-0.23438 0.01563-0.36719 0.01563m-0.177-3.855c-0.29688 0.000004-0.53255 0.10157-0.70703 0.30469-0.17188 0.20313-0.27214 0.4987-0.30078 0.88672h1.9219c-0.000004-0.17708-0.01823-0.33854-0.05469-0.48438-0.03386-0.14843-0.08855-0.27474-0.16406-0.37891-0.07292-0.10416-0.16667-0.18489-0.28125-0.24219-0.11459-0.05729-0.25261-0.08593-0.41406-0.08594"/>
  <path d="m36.575 55.703-1.3789-2.0898h0.80859l0.97656 1.6016 0.97656-1.6016h0.80859l-1.3867 2.0898 1.457 2.1992h-0.80859l-1.0469-1.7031-1.0547 1.7031h-0.80859l1.457-2.1992"/>
  <path d="m40.958 57.398c0.04687 0.000001 0.09896-0.0026 0.15625-0.0078 0.05989-0.0052 0.11718-0.01172 0.17188-0.01953 0.05468-0.0078 0.10416-0.01693 0.14844-0.02734 0.04687-0.01042 0.08203-0.01953 0.10547-0.02734v0.53906c-0.03386 0.01563-0.07682 0.03125-0.12891 0.04687-0.05209 0.01563-0.10938 0.02865-0.17188 0.03906-0.0625 0.01302-0.12761 0.02214-0.19531 0.02734-0.06771 0.0078-0.13412 0.01172-0.19922 0.01172-0.16146 0-0.3112-0.02083-0.44922-0.0625-0.139-0.041-0.258-0.113-0.36-0.214-0.099-0.102-0.177-0.239-0.234-0.41-0.058-0.175-0.086-0.394-0.086-0.657v-2.4883h-0.60547v-0.31641l0.60547-0.30469 0.30469-0.89844h0.41016v0.98438h1.0781v0.53516h-1.0781v2.4883c-0.000001 0.2526 0.04036 0.44271 0.12109 0.57031 0.08333 0.1276 0.21875 0.19141 0.40625 0.19141"/>
  <path d="m46.153 57.98c-0.28646 0-0.54818-0.04818-0.78516-0.14453s-0.44141-0.23698-0.61328-0.42188c-0.16927-0.1849-0.30078-0.41406-0.39453-0.6875s-0.14063-0.58594-0.14062-0.9375c-0.000001-0.35416 0.04297-0.67057 0.12891-0.94922 0.08594-0.27864 0.20703-0.51432 0.36328-0.70703 0.15625-0.19531 0.34245-0.34374 0.55859-0.44531 0.21875-0.10156 0.45963-0.15234 0.72266-0.15234 0.25781 0.000005 0.48958 0.04688 0.69531 0.14062 0.20573 0.09115 0.3802 0.22136 0.52344 0.39062 0.14323 0.16667 0.2526 0.36849 0.32812 0.60547 0.07812 0.23438 0.11718 0.49479 0.11719 0.78125v0.44141h-2.7031c0.01302 0.50261 0.11849 0.8724 0.31641 1.1094 0.20052 0.23698 0.49739 0.35547 0.89062 0.35547 0.13281 0.000001 0.25521-0.0065 0.36719-0.01953 0.11458-0.01302 0.22396-0.03125 0.32812-0.05469 0.10677-0.02604 0.20963-0.05729 0.30859-0.09375 0.09895-0.03906 0.19922-0.08203 0.30078-0.12891v0.63281c-0.10417 0.04948-0.20703 0.09245-0.30859 0.12891-0.09896 0.03646-0.20183 0.06641-0.30859 0.08984-0.10417 0.02344-0.21354 0.04037-0.32812 0.05078-0.11198 0.01042-0.23438 0.01563-0.36719 0.01563m-0.176-3.855c-0.29688 0.000004-0.53255 0.10157-0.70703 0.30469-0.17188 0.20313-0.27214 0.4987-0.30078 0.88672h1.9219c-0.000004-0.17708-0.01823-0.33854-0.05469-0.48438-0.03386-0.14843-0.08855-0.27474-0.16406-0.37891-0.07292-0.10416-0.16667-0.18489-0.28125-0.24219-0.11459-0.05729-0.25261-0.08593-0.41406-0.08594"/>
  <path d="m51.388 57.328h-0.03125c-0.0573 0.08854-0.125 0.17318-0.20312 0.25391-0.07552 0.07813-0.16406 0.14714-0.26562 0.20703-0.09896 0.0599-0.21094 0.10677-0.33594 0.14062s-0.26563 0.05078-0.42188 0.05078c-0.24219 0-0.46354-0.04687-0.66406-0.14062s-0.3724-0.23307-0.51562-0.41797c-0.14323-0.1875-0.25391-0.41927-0.33203-0.69531-0.07813-0.27604-0.11719-0.59635-0.11719-0.96094-0.000001-0.36718 0.03906-0.6888 0.11719-0.96484 0.07812-0.27864 0.1888-0.51172 0.33203-0.69922s0.3151-0.32812 0.51562-0.42188c0.20052-0.09635 0.42187-0.14453 0.66406-0.14453 0.15364 0.000005 0.29297 0.01693 0.41797 0.05078 0.125 0.03386 0.23698 0.07943 0.33594 0.13672 0.10156 0.0573 0.1914 0.1237 0.26953 0.19922 0.07812 0.07552 0.14583 0.15495 0.20312 0.23828h0.04687c-0.0078-0.08854-0.01563-0.17317-0.02344-0.25391-0.0052-0.0677-0.01042-0.13672-0.01563-0.20703-0.0052-0.07291-0.0078-0.1302-0.0078-0.17188v-1.7031h0.71094v6.0781h-0.575l-0.105-0.574m-1.1211 0.0625c0.19791 0.000001 0.36458-0.02995 0.5-0.08984 0.13802-0.05989 0.2487-0.15104 0.33203-0.27344 0.08593-0.1224 0.14843-0.27474 0.1875-0.45703 0.04166-0.18489 0.0651-0.39974 0.07031-0.64453v-0.16016c-0.000003-0.26302-0.01823-0.49609-0.05469-0.69922-0.03386-0.20573-0.09375-0.3776-0.17969-0.51562-0.08334-0.14062-0.19532-0.24609-0.33594-0.31641-0.14063-0.07291-0.31641-0.10937-0.52734-0.10938-0.35156 0.000004-0.61068 0.14193-0.77734 0.42578-0.16406 0.28386-0.2461 0.69141-0.24609 1.2227-0.000002 0.54427 0.08203 0.95052 0.24609 1.2188 0.16666 0.26563 0.42838 0.39844 0.78516 0.39844"/>
  <path d="m54.138 57.902h-0.711v-4.289h0.711v4.2891m-0.766-5.449c0-0.15624 0.03906-0.26953 0.11719-0.33984 0.08073-0.07031 0.17969-0.10546 0.29688-0.10547 0.05729 0.000006 0.11068 0.0091 0.16016 0.02734 0.05208 0.01563 0.09635 0.04167 0.13281 0.07813 0.03906 0.03646 0.06901 0.08334 0.08984 0.14062 0.02344 0.05469 0.03515 0.1211 0.03516 0.19922-0.000002 0.15105-0.04167 0.26433-0.125 0.33984-0.08073 0.07292-0.17839 0.10938-0.29297 0.10938-0.11719 0.000005-0.21615-0.03645-0.29688-0.10938-0.078-0.073-0.117-0.186-0.117-0.34"/>
  <path d="m56.802 57.398c0.04687 0.000001 0.09896-0.0026 0.15625-0.0078 0.05989-0.0052 0.11718-0.01172 0.17188-0.01953 0.05468-0.0078 0.10416-0.01693 0.14844-0.02734 0.04687-0.01042 0.08203-0.01953 0.10547-0.02734v0.53906c-0.03386 0.01563-0.07682 0.03125-0.12891 0.04687-0.05209 0.01563-0.10938 0.02865-0.17188 0.03906-0.0625 0.01302-0.12761 0.02214-0.19531 0.02734-0.06771 0.0078-0.13412 0.01172-0.19922 0.01172-0.16146 0-0.3112-0.02083-0.44922-0.0625-0.139-0.041-0.258-0.113-0.36-0.214-0.099-0.102-0.177-0.239-0.234-0.41-0.058-0.175-0.086-0.394-0.086-0.657v-2.4883h-0.60547v-0.31641l0.60547-0.30469 0.30469-0.89844h0.41016v0.98438h1.0781v0.53516h-1.0781v2.4883c-0.000001 0.2526 0.04036 0.44271 0.12109 0.57031 0.08333 0.1276 0.21875 0.19141 0.40625 0.19141"/>
  <path d="m61.72 55.75c-0.000005 0.35677-0.04427 0.67448-0.13281 0.95312-0.08594 0.27604-0.21094 0.50912-0.375 0.69922-0.16146 0.1875-0.35808 0.33073-0.58984 0.42969-0.23177 0.09896-0.49219 0.14844-0.78125 0.14844-0.26823 0-0.51563-0.04948-0.74219-0.14844s-0.42318-0.24219-0.58984-0.42969c-0.164-0.19-0.293-0.423-0.387-0.699-0.091-0.279-0.137-0.596-0.137-0.953-0.000001-0.35416 0.04297-0.66797 0.12891-0.94141 0.08854-0.27604 0.21354-0.50781 0.375-0.69531 0.16146-0.1901 0.35807-0.33333 0.58984-0.42969 0.23437-0.09895 0.49609-0.14843 0.78516-0.14844 0.26823 0.000005 0.51562 0.04948 0.74219 0.14844 0.22656 0.09636 0.42187 0.23959 0.58594 0.42969 0.16666 0.1875 0.29557 0.41927 0.38672 0.69531 0.09374 0.27344 0.14062 0.58724 0.14062 0.94141m-3 0c-0.000002 0.54427 0.08854 0.95443 0.26562 1.2305 0.17968 0.27344 0.47005 0.41016 0.87109 0.41016 0.40104 0.000001 0.6888-0.13672 0.86328-0.41016 0.17708-0.27604 0.26562-0.6862 0.26562-1.2305-0.000004-0.54427-0.08985-0.95052-0.26953-1.2188-0.17709-0.27083-0.46615-0.40625-0.86719-0.40625-0.40104 0.000004-0.69011 0.13542-0.86719 0.40625-0.17448 0.26823-0.26172 0.67448-0.26172 1.2188"/>
  <path d="m64.704 53.535c0.07552 0.000005 0.16015 0.0039 0.25391 0.01172 0.09375 0.0052 0.17448 0.01433 0.24219 0.02734l-0.09375 0.65625c-0.07292-0.01302-0.14844-0.02343-0.22656-0.03125-0.07552-0.01041-0.14714-0.01562-0.21484-0.01563-0.16406 0.000003-0.3138 0.03386-0.44922 0.10156-0.13542 0.06511-0.25261 0.16016-0.35156 0.28516-0.09636 0.1224-0.17188 0.27084-0.22656 0.44531-0.05208 0.17188-0.07813 0.36328-0.07813 0.57422v2.3125h-0.71094v-4.2891h0.57812l0.08594 0.78516h0.03125c0.0651-0.11198 0.13411-0.22005 0.20703-0.32422 0.07552-0.10416 0.15885-0.19531 0.25-0.27344 0.09375-0.08073 0.19791-0.14453 0.3125-0.19141 0.11458-0.04948 0.24479-0.07421 0.39062-0.07422"/>
 </g>
 <g fill="#fff">
  <path d="m31.228 67.863c-0.000004 0.23698-0.03646 0.46485-0.10938 0.68359-0.07032 0.21875-0.1875 0.41276-0.35156 0.58203-0.16407 0.16667-0.38151 0.30078-0.65234 0.40234-0.26823 0.09896-0.60026 0.14844-0.99609 0.14844h-0.58594v2.2227h-0.72656v-5.7109h1.4141c0.34896 0.000006 0.64974 0.03777 0.90234 0.11328 0.2526 0.07292 0.46093 0.181 0.625 0.32422 0.16406 0.14063 0.28515 0.31511 0.36328 0.52344 0.07812 0.20834 0.11718 0.44532 0.11719 0.71094m-2.6953 1.1992h0.50391c0.24218 0.000003 0.45312-0.02083 0.63281-0.0625 0.18229-0.04166 0.33203-0.10807 0.44922-0.19922 0.11979-0.09375 0.20963-0.21354 0.26953-0.35938 0.05989-0.14843 0.08984-0.32812 0.08984-0.53906-0.000003-0.36979-0.10677-0.64322-0.32031-0.82031-0.21354-0.17968-0.54688-0.26953-1-0.26953h-0.625v2.25"/>
  <path d="m34.997 71.902v-2.7617c-0.000003-0.33854-0.06901-0.59244-0.20703-0.76172-0.13542-0.16927-0.34896-0.2539-0.64062-0.25391-0.21094 0.000004-0.38802 0.03386-0.53125 0.10156-0.14323 0.06771-0.25912 0.16797-0.34766 0.30078-0.08594 0.13282-0.14844 0.29558-0.1875 0.48828-0.03646 0.19271-0.05469 0.41406-0.05469 0.66406v2.2227h-0.71094v-6.0781h0.71094v1.8047l-0.03125 0.5625h0.03906c0.0651-0.11198 0.14192-0.20833 0.23047-0.28906 0.09114-0.08333 0.1901-0.15234 0.29688-0.20703 0.10677-0.05468 0.22005-0.09505 0.33984-0.12109s0.24218-0.03906 0.36719-0.03906c0.47656 0.000005 0.83463 0.125 1.0742 0.375 0.24218 0.2474 0.36328 0.64454 0.36328 1.1914v2.8008h-0.71094"/>
  <path d="m40.532 69.75c-0.000005 0.35677-0.04427 0.67448-0.13281 0.95312-0.08594 0.27604-0.21094 0.50912-0.375 0.69922-0.16146 0.1875-0.35808 0.33073-0.58984 0.42969-0.23177 0.09896-0.49219 0.14844-0.78125 0.14844-0.26823 0-0.51563-0.04948-0.74219-0.14844s-0.42318-0.24219-0.58984-0.42969c-0.164-0.19-0.293-0.423-0.386-0.699-0.092-0.279-0.137-0.596-0.137-0.953-0.000001-0.35416 0.04297-0.66797 0.12891-0.94141 0.08854-0.27604 0.21354-0.50781 0.375-0.69531 0.16146-0.1901 0.35807-0.33333 0.58984-0.42969 0.23437-0.09895 0.49609-0.14843 0.78516-0.14844 0.26823 0.000005 0.51562 0.04948 0.74219 0.14844 0.22656 0.09636 0.42187 0.23959 0.58594 0.42969 0.16666 0.1875 0.29557 0.41927 0.38672 0.69531 0.09374 0.27344 0.14062 0.58724 0.14062 0.94141m-3 0c-0.000002 0.54427 0.08854 0.95443 0.26562 1.2305 0.17968 0.27344 0.47005 0.41016 0.87109 0.41016 0.40104 0.000001 0.6888-0.13672 0.86328-0.41016 0.17708-0.27604 0.26562-0.6862 0.26562-1.2305-0.000004-0.54427-0.08985-0.95052-0.26953-1.2188-0.17709-0.27083-0.46615-0.40625-0.86719-0.40625-0.40104 0.000004-0.69011 0.13542-0.86719 0.40625-0.17448 0.26823-0.26172 0.67448-0.26172 1.2188"/>
  <path d="m42.958 71.398c0.04687 0.000001 0.09896-0.0026 0.15625-0.0078 0.05989-0.0052 0.11718-0.01172 0.17188-0.01953 0.05468-0.0078 0.10416-0.01693 0.14844-0.02734 0.04687-0.01042 0.08203-0.01953 0.10547-0.02734v0.53906c-0.03386 0.01563-0.07682 0.03125-0.12891 0.04687-0.05209 0.01563-0.10938 0.02865-0.17188 0.03906-0.0625 0.01302-0.12761 0.02214-0.19531 0.02734-0.06771 0.0078-0.13412 0.01172-0.19922 0.01172-0.16146 0-0.3112-0.02083-0.44922-0.0625-0.139-0.041-0.258-0.113-0.36-0.214-0.099-0.102-0.177-0.239-0.234-0.41-0.058-0.175-0.086-0.394-0.086-0.657v-2.4883h-0.60547v-0.31641l0.60547-0.30469 0.30469-0.89844h0.41016v0.98438h1.0781v0.53516h-1.0781v2.4883c-0.000001 0.2526 0.04036 0.44271 0.12109 0.57031 0.08333 0.1276 0.21875 0.19141 0.40625 0.19141"/>
  <path d="m47.876 69.75c-0.000005 0.35677-0.04427 0.67448-0.13281 0.95312-0.08594 0.27604-0.21094 0.50912-0.375 0.69922-0.16146 0.1875-0.35808 0.33073-0.58984 0.42969-0.23177 0.09896-0.49219 0.14844-0.78125 0.14844-0.26823 0-0.51563-0.04948-0.74219-0.14844s-0.42318-0.24219-0.58984-0.42969c-0.164-0.19-0.293-0.423-0.387-0.699-0.091-0.279-0.136-0.596-0.136-0.953-0.000001-0.35416 0.04297-0.66797 0.12891-0.94141 0.08854-0.27604 0.21354-0.50781 0.375-0.69531 0.16146-0.1901 0.35807-0.33333 0.58984-0.42969 0.23437-0.09895 0.49609-0.14843 0.78516-0.14844 0.26823 0.000005 0.51562 0.04948 0.74219 0.14844 0.22656 0.09636 0.42187 0.23959 0.58594 0.42969 0.16666 0.1875 0.29557 0.41927 0.38672 0.69531 0.09374 0.27344 0.14062 0.58724 0.14062 0.94141m-3 0c-0.000002 0.54427 0.08854 0.95443 0.26562 1.2305 0.17968 0.27344 0.47005 0.41016 0.87109 0.41016 0.40104 0.000001 0.6888-0.13672 0.86328-0.41016 0.17708-0.27604 0.26562-0.6862 0.26562-1.2305-0.000004-0.54427-0.08985-0.95052-0.26953-1.2188-0.17709-0.27083-0.46615-0.40625-0.86719-0.40625-0.40104 0.000004-0.69011 0.13542-0.86719 0.40625-0.17448 0.26823-0.26172 0.67448-0.26172 1.2188"/>
  <path d="m52.778 71.98c-0.28646 0-0.54818-0.04818-0.78516-0.14453s-0.44141-0.23698-0.61328-0.42188c-0.16927-0.1849-0.30078-0.41406-0.39453-0.6875s-0.14063-0.58594-0.14062-0.9375c-0.000001-0.35416 0.04297-0.67057 0.12891-0.94922 0.08594-0.27864 0.20703-0.51432 0.36328-0.70703 0.15625-0.19531 0.34245-0.34374 0.55859-0.44531 0.21875-0.10156 0.45963-0.15234 0.72266-0.15234 0.25781 0.000005 0.48958 0.04688 0.69531 0.14062 0.20573 0.09115 0.3802 0.22136 0.52344 0.39062 0.14323 0.16667 0.2526 0.36849 0.32812 0.60547 0.07812 0.23438 0.11718 0.49479 0.11719 0.78125v0.44141h-2.7031c0.01302 0.50261 0.11849 0.8724 0.31641 1.1094 0.20052 0.23698 0.49739 0.35547 0.89062 0.35547 0.13281 0.000001 0.25521-0.0065 0.36719-0.01953 0.11458-0.01302 0.22396-0.03125 0.32812-0.05469 0.10677-0.02604 0.20963-0.05729 0.30859-0.09375 0.09895-0.03906 0.19922-0.08203 0.30078-0.12891v0.63281c-0.10417 0.04948-0.20703 0.09245-0.30859 0.12891-0.09896 0.03646-0.20183 0.06641-0.30859 0.08984-0.10417 0.02344-0.21354 0.04036-0.32812 0.05078-0.11198 0.01042-0.23438 0.01563-0.36719 0.01563m-0.175-3.855c-0.29688 0.000004-0.53255 0.10157-0.70703 0.30469-0.17188 0.20313-0.27214 0.4987-0.30078 0.88672h1.9219c-0.000004-0.17708-0.01823-0.33854-0.05469-0.48438-0.03386-0.14843-0.08855-0.27474-0.16406-0.37891-0.07292-0.10416-0.16667-0.18489-0.28125-0.24219-0.11459-0.05729-0.25261-0.08593-0.41406-0.08594"/>
  <path d="m58.013 71.328h-0.03125c-0.0573 0.08854-0.125 0.17318-0.20312 0.25391-0.07552 0.07813-0.16406 0.14714-0.26562 0.20703-0.09896 0.0599-0.21094 0.10677-0.33594 0.14062-0.125 0.03386-0.26563 0.05078-0.42188 0.05078-0.24219 0-0.46354-0.04687-0.66406-0.14062s-0.3724-0.23307-0.51562-0.41797c-0.14323-0.1875-0.25391-0.41927-0.33203-0.69531-0.07813-0.27604-0.11719-0.59635-0.11719-0.96094-0.000001-0.36718 0.03906-0.6888 0.11719-0.96484 0.07812-0.27864 0.1888-0.51172 0.33203-0.69922s0.3151-0.32812 0.51562-0.42188c0.20052-0.09635 0.42187-0.14453 0.66406-0.14453 0.15364 0.000005 0.29297 0.01693 0.41797 0.05078 0.125 0.03386 0.23698 0.07943 0.33594 0.13672 0.10156 0.0573 0.1914 0.1237 0.26953 0.19922 0.07812 0.07552 0.14583 0.15495 0.20312 0.23828h0.04687c-0.0078-0.08854-0.01563-0.17317-0.02344-0.25391-0.0052-0.0677-0.01042-0.13672-0.01563-0.20703-0.0052-0.07291-0.0078-0.1302-0.0078-0.17188v-1.7031h0.71094v6.0781h-0.575l-0.105-0.574m-1.1211 0.0625c0.19791 0.000001 0.36458-0.02995 0.5-0.08984 0.13802-0.05989 0.2487-0.15104 0.33203-0.27344 0.08593-0.1224 0.14843-0.27474 0.1875-0.45703 0.04166-0.18489 0.0651-0.39974 0.07031-0.64453v-0.16016c-0.000003-0.26302-0.01823-0.49609-0.05469-0.69922-0.03386-0.20573-0.09375-0.3776-0.17969-0.51562-0.08334-0.14062-0.19532-0.24609-0.33594-0.31641-0.14063-0.07291-0.31641-0.10937-0.52734-0.10938-0.35156 0.000004-0.61068 0.14193-0.77734 0.42578-0.16406 0.28386-0.2461 0.69141-0.24609 1.2227-0.000002 0.54427 0.08203 0.95052 0.24609 1.2188 0.16666 0.26563 0.42838 0.39844 0.78516 0.39844"/>
  <path d="m60.763 71.902h-0.711v-4.289h0.711v4.2891m-0.766-5.449c0-0.15624 0.03906-0.26953 0.11719-0.33984 0.08073-0.07031 0.17969-0.10546 0.29688-0.10547 0.05729 0.000006 0.11068 0.0091 0.16016 0.02734 0.05208 0.01563 0.09635 0.04167 0.13281 0.07813 0.03906 0.03646 0.06901 0.08334 0.08984 0.14062 0.02344 0.05469 0.03515 0.1211 0.03516 0.19922-0.000002 0.15105-0.04167 0.26433-0.125 0.33984-0.08073 0.07292-0.17839 0.10938-0.29297 0.10938-0.11719 0.000005-0.21615-0.03645-0.29688-0.10938-0.078-0.073-0.117-0.186-0.117-0.34"/>
  <path d="m63.427 71.398c0.04687 0.000001 0.09896-0.0026 0.15625-0.0078 0.05989-0.0052 0.11718-0.01172 0.17188-0.01953 0.05468-0.0078 0.10416-0.01693 0.14844-0.02734 0.04687-0.01042 0.08203-0.01953 0.10547-0.02734v0.53906c-0.03386 0.01563-0.07682 0.03125-0.12891 0.04687-0.05209 0.01563-0.10938 0.02865-0.17188 0.03906-0.0625 0.01302-0.12761 0.02214-0.19531 0.02734-0.06771 0.0078-0.13412 0.01172-0.19922 0.01172-0.16146 0-0.3112-0.02083-0.44922-0.0625-0.138-0.041-0.257-0.113-0.359-0.214-0.099-0.102-0.177-0.239-0.234-0.41-0.058-0.175-0.086-0.394-0.086-0.657v-2.4883h-0.60547v-0.31641l0.60547-0.30469 0.30469-0.89844h0.41016v0.98438h1.0781v0.53516h-1.0781v2.4883c-0.000001 0.2526 0.04036 0.44271 0.12109 0.57031 0.08333 0.1276 0.21875 0.19141 0.40625 0.19141"/>
  <path d="m68.345 69.75c-0.000005 0.35677-0.04427 0.67448-0.13281 0.95312-0.08594 0.27604-0.21094 0.50912-0.375 0.69922-0.16146 0.1875-0.35808 0.33073-0.58984 0.42969-0.23177 0.09896-0.49219 0.14844-0.78125 0.14844-0.26823 0-0.51563-0.04948-0.74219-0.14844s-0.42318-0.24219-0.58984-0.42969c-0.164-0.19-0.293-0.423-0.387-0.699-0.091-0.279-0.137-0.596-0.137-0.953-0.000001-0.35416 0.04297-0.66797 0.12891-0.94141 0.08854-0.27604 0.21354-0.50781 0.375-0.69531 0.16146-0.1901 0.35807-0.33333 0.58984-0.42969 0.23437-0.09895 0.49609-0.14843 0.78516-0.14844 0.26823 0.000005 0.51562 0.04948 0.74219 0.14844 0.22656 0.09636 0.42187 0.23959 0.58594 0.42969 0.16666 0.1875 0.29557 0.41927 0.38672 0.69531 0.09374 0.27344 0.14062 0.58724 0.14062 0.94141m-3 0c-0.000002 0.54427 0.08854 0.95443 0.26562 1.2305 0.17968 0.27344 0.47005 0.41016 0.87109 0.41016 0.40104 0.000001 0.6888-0.13672 0.86328-0.41016 0.17708-0.27604 0.26562-0.6862 0.26562-1.2305-0.000004-0.54427-0.08985-0.95052-0.26953-1.2188-0.17709-0.27083-0.46615-0.40625-0.86719-0.40625-0.40104 0.000004-0.69011 0.13542-0.86719 0.40625-0.17448 0.26823-0.26172 0.67448-0.26172 1.2188"/>
  <path d="m71.329 67.535c0.07552 0.000005 0.16015 0.0039 0.25391 0.01172 0.09375 0.0052 0.17448 0.01433 0.24219 0.02734l-0.09375 0.65625c-0.07292-0.01302-0.14844-0.02343-0.22656-0.03125-0.07552-0.01041-0.14714-0.01562-0.21484-0.01563-0.16406 0.000003-0.3138 0.03386-0.44922 0.10156-0.13542 0.06511-0.25261 0.16016-0.35156 0.28516-0.09636 0.1224-0.17188 0.27084-0.22656 0.44531-0.05208 0.17188-0.07813 0.36328-0.07813 0.57422v2.3125h-0.71094v-4.2891h0.57812l0.08594 0.78516h0.03125c0.0651-0.11198 0.13411-0.22005 0.20703-0.32422 0.07552-0.10416 0.15885-0.19531 0.25-0.27344 0.09375-0.08073 0.19791-0.14453 0.3125-0.19141 0.11458-0.04948 0.24479-0.07421 0.39062-0.07422"/>
 </g>
 <g fill="#666">
  <path d="m29.47 85.902h-0.73047v-5.0703h-1.6328v-0.64062h3.9922v0.64062h-1.6289v5.0703"/>
  <path d="m33.075 85.98c-0.28646 0-0.54818-0.04818-0.78516-0.14453s-0.44141-0.23698-0.61328-0.42188c-0.16927-0.1849-0.30078-0.41406-0.39453-0.6875s-0.14063-0.58594-0.14062-0.9375c-0.000001-0.35416 0.04297-0.67057 0.12891-0.94922 0.08594-0.27864 0.20703-0.51432 0.36328-0.70703 0.15625-0.19531 0.34245-0.34374 0.55859-0.44531 0.21875-0.10156 0.45963-0.15234 0.72266-0.15234 0.25781 0.000005 0.48958 0.04688 0.69531 0.14062 0.20573 0.09115 0.3802 0.22136 0.52344 0.39062 0.14323 0.16667 0.2526 0.36849 0.32812 0.60547 0.07812 0.23438 0.11718 0.49479 0.11719 0.78125v0.44141h-2.7031c0.01302 0.50261 0.11849 0.8724 0.31641 1.1094 0.20052 0.23698 0.49739 0.35547 0.89062 0.35547 0.13281 0.000001 0.25521-0.0065 0.36719-0.01953 0.11458-0.01302 0.22396-0.03125 0.32812-0.05469 0.10677-0.02604 0.20963-0.05729 0.30859-0.09375 0.09895-0.03906 0.19922-0.08203 0.30078-0.12891v0.63281c-0.10417 0.04948-0.20703 0.09245-0.30859 0.12891-0.09896 0.03646-0.20183 0.06641-0.30859 0.08984-0.10417 0.02344-0.21354 0.04036-0.32812 0.05078-0.11198 0.01042-0.23438 0.01563-0.36719 0.01563m-0.177-3.855c-0.29688 0.000004-0.53255 0.10157-0.70703 0.30469-0.17188 0.20313-0.27214 0.4987-0.30078 0.88672h1.9219c-0.000004-0.17708-0.01823-0.33854-0.05469-0.48438-0.03386-0.14843-0.08855-0.27474-0.16406-0.37891-0.07292-0.10416-0.16667-0.18489-0.28125-0.24219-0.11459-0.05729-0.25261-0.08593-0.41406-0.08594"/>
  <path d="m37.517 81.535c0.07552 0.000005 0.16015 0.0039 0.25391 0.01172 0.09375 0.0052 0.17448 0.01433 0.24219 0.02734l-0.09375 0.65625c-0.07292-0.01302-0.14844-0.02343-0.22656-0.03125-0.07552-0.01041-0.14714-0.01562-0.21484-0.01563-0.16406 0.000003-0.3138 0.03386-0.44922 0.10156-0.13542 0.06511-0.25261 0.16016-0.35156 0.28516-0.09636 0.1224-0.17188 0.27084-0.22656 0.44531-0.05208 0.17188-0.07813 0.36328-0.07813 0.57422v2.3125h-0.71094v-4.2891h0.57812l0.08594 0.78516h0.03125c0.0651-0.11198 0.13411-0.22005 0.20703-0.32422 0.07552-0.10416 0.15885-0.19531 0.25-0.27344 0.09375-0.08073 0.19791-0.14453 0.3125-0.19141 0.11458-0.04948 0.24479-0.07421 0.39062-0.07422"/>
  <path d="m43.985 85.902v-2.7617c-0.000006-0.33854-0.06511-0.59244-0.19531-0.76172-0.13021-0.16927-0.33204-0.2539-0.60547-0.25391-0.19011 0.000004-0.35157 0.03125-0.48438 0.09375-0.13282 0.0599-0.24219 0.14974-0.32812 0.26953-0.08334 0.11719-0.14454 0.26433-0.18359 0.44141-0.03907 0.17448-0.0586 0.3763-0.05859 0.60547v2.3672h-0.715v-2.7617c-0.000003-0.33854-0.06511-0.59244-0.19531-0.76172-0.12761-0.16927-0.32813-0.2539-0.60156-0.25391-0.20052 0.000004-0.36849 0.03386-0.50391 0.10156-0.13542 0.06771-0.24479 0.16797-0.32812 0.30078-0.08073 0.13282-0.13932 0.29558-0.17578 0.48828-0.03386 0.19271-0.05078 0.41406-0.05078 0.66406v2.2227h-0.712v-4.2891h0.57812l0.10156 0.57812h0.03906c0.0625-0.11198 0.13672-0.20833 0.22266-0.28906 0.08594-0.08333 0.17969-0.15234 0.28125-0.20703 0.10416-0.05468 0.21354-0.09505 0.32812-0.12109 0.11718-0.02604 0.23568-0.03906 0.35547-0.03906 0.3125 0.000005 0.57161 0.0573 0.77734 0.17188 0.20833 0.11459 0.36198 0.29428 0.46094 0.53906h0.03125c0.0677-0.12239 0.14843-0.22786 0.24219-0.31641 0.09635-0.08854 0.20052-0.16145 0.3125-0.21875 0.11458-0.05989 0.23437-0.10416 0.35938-0.13281 0.125-0.02864 0.2526-0.04296 0.38281-0.04297 0.45572 0.000005 0.79817 0.125 1.0273 0.375 0.23176 0.2474 0.34765 0.64454 0.34766 1.1914v2.8008h-0.71094"/>
  <path d="m46.731 85.902h-0.711v-4.289h0.711v4.2891m-0.765-5.449c0-0.15624 0.03906-0.26953 0.11719-0.33984 0.08073-0.07031 0.17969-0.10546 0.29688-0.10547 0.05729 0.000006 0.11068 0.0091 0.16016 0.02734 0.05208 0.01563 0.09635 0.04167 0.13281 0.07813 0.03906 0.03646 0.06901 0.08334 0.08984 0.14062 0.02344 0.05469 0.03515 0.1211 0.03516 0.19922-0.000002 0.15105-0.04167 0.26433-0.125 0.33984-0.08073 0.07292-0.17839 0.10938-0.29297 0.10938-0.11719 0.000005-0.21615-0.03645-0.29688-0.10938-0.078-0.073-0.117-0.186-0.117-0.34"/>
  <path d="m50.778 85.902v-2.7617c-0.000003-0.33854-0.06901-0.59244-0.20703-0.76172-0.13542-0.16927-0.34896-0.2539-0.64062-0.25391-0.21094 0.000004-0.38802 0.03386-0.53125 0.10156-0.14323 0.06771-0.25912 0.16797-0.34766 0.30078-0.08594 0.13282-0.14844 0.29558-0.1875 0.48828-0.03646 0.19271-0.05469 0.41406-0.05469 0.66406v2.2227h-0.71094v-4.2891h0.57812l0.10156 0.57812h0.03906c0.0651-0.11198 0.14192-0.20833 0.23047-0.28906 0.09114-0.08333 0.1901-0.15234 0.29688-0.20703 0.10677-0.05468 0.22005-0.09505 0.33984-0.12109s0.24218-0.03906 0.36719-0.03906c0.47656 0.000005 0.83463 0.125 1.0742 0.375 0.24218 0.2474 0.36328 0.64454 0.36328 1.1914v2.8008h-0.71094"/>
  <path d="m55.235 85.902-0.14453-0.59375h-0.03125c-0.08594 0.11719-0.17188 0.21875-0.25781 0.30469-0.08594 0.08333-0.17969 0.15234-0.28125 0.20703s-0.21485 0.09505-0.33984 0.12109c-0.125 0.02604-0.26953 0.03906-0.43359 0.03906-0.17969 0-0.34505-0.02604-0.49609-0.07813-0.15104-0.04948-0.28255-0.1263-0.39453-0.23047-0.10938-0.10677-0.19531-0.23958-0.25781-0.39844-0.0625-0.16146-0.09375-0.35156-0.09375-0.57031-0.000001-0.42708 0.14974-0.75521 0.44922-0.98438 0.30208-0.22916 0.76042-0.35416 1.375-0.375l0.71875-0.02734v-0.26953c-0.000003-0.17448-0.01953-0.32031-0.05859-0.4375-0.03646-0.11718-0.09115-0.21093-0.16406-0.28125-0.07032-0.07291-0.15886-0.125-0.26562-0.15625-0.10417-0.03125-0.22396-0.04687-0.35938-0.04687-0.21615 0.000004-0.41797 0.03125-0.60547 0.09375-0.1849 0.0625-0.36328 0.13802-0.53516 0.22656l-0.25-0.53516c0.19271-0.10416 0.40755-0.1927 0.64453-0.26562 0.23698-0.07291 0.48568-0.10937 0.74609-0.10938 0.26562 0.000005 0.49479 0.02735 0.6875 0.08203 0.19531 0.05209 0.35547 0.13672 0.48047 0.25391 0.1276 0.11459 0.22265 0.26172 0.28516 0.44141 0.0625 0.17969 0.09375 0.39714 0.09375 0.65234v2.9375h-0.51172m-1.305-0.496c0.15885 0 0.30599-0.02474 0.44141-0.07422s0.2526-0.1237 0.35156-0.22266c0.09896-0.10156 0.17578-0.22786 0.23047-0.37891 0.05729-0.15364 0.08593-0.33333 0.08594-0.53906v-0.38672l-0.55859 0.02734c-0.23438 0.01042-0.43099 0.03646-0.58984 0.07813-0.15886 0.04167-0.28646 0.10026-0.38281 0.17578-0.09375 0.07292-0.16146 0.16276-0.20312 0.26953-0.04167 0.10417-0.0625 0.22266-0.0625 0.35547-0.000001 0.23958 0.0625 0.41537 0.1875 0.52734 0.1276 0.11198 0.29427 0.16797 0.5 0.16797"/>
  <path d="m57.778 85.902h-0.711v-6.078h0.711v6.0781"/>
 </g>
 <path fill="url(#i)" d="m22 82.31c0-0.19677-0.16324-0.35611-0.36337-0.35611h-0.705c-0.094-0.352-0.236-0.688-0.415-0.996l0.502-0.501c0.07076-0.07076 0.10824-0.15552 0.10901-0.24709 0.000782-0.09157-0.03217-0.18479-0.10174-0.25436l-0.9811-0.9811c-0.139-0.14-0.36-0.135-0.501 0.007l-0.502 0.501c-0.3076-0.1789-0.64379-0.3205-0.99564-0.41424v-0.70494c-0.000001-0.20014-0.15933-0.36337-0.3561-0.36337h-1.3808c-0.19677 0-0.3561 0.16324-0.3561 0.36337v0.70494c-0.35185 0.09375-0.68804 0.23535-0.99564 0.41424l-0.50145-0.50145c-0.14152-0.14152-0.36231-0.14641-0.50145-0.0073l-0.9811 0.9811c-0.13914 0.13914-0.13425 0.35993 0.0073 0.50145l0.50142 0.50145c-0.1789 0.3076-0.3205 0.64379-0.41424 0.99564h-0.70494c-0.20014 0-0.36337 0.15933-0.36337 0.35611v1.3808c0 0.19677 0.16324 0.3561 0.36337 0.3561h0.70494c0.09375 0.35185 0.23534 0.68803 0.41424 0.99564l-0.50145 0.50145c-0.14152 0.14152-0.14641 0.36231-0.0073 0.50145l0.9811 0.9811c0.13914 0.13914 0.35993 0.13425 0.50145-0.0073l0.50145-0.50145c0.3076 0.1789 0.64379 0.3205 0.99564 0.41424v0.70494c0 0.20014 0.15933 0.36337 0.3561 0.36337h1.3808c0.19677 0 0.3561-0.16323 0.3561-0.36337v-0.70494c0.35185-0.09374 0.68804-0.23534 0.99564-0.41424l0.50145 0.50145c0.14152 0.14152 0.36231 0.14641 0.50145 0.0073l0.9811-0.9811c0.13914-0.13914 0.13425-0.35993-0.0073-0.50145l-0.50145-0.50145c0.1789-0.3076 0.3205-0.64379 0.41424-0.99564h0.70494c0.20014 0 0.36337-0.15933 0.36337-0.3561v-1.381zm-3.4884 0.6904c0 0.83442-0.67721 1.5116-1.5116 1.5116-0.83442 0-1.5116-0.67721-1.5116-1.5116 0-0.83441 0.67721-1.5116 1.5116-1.5116 0.83442 0 1.5116 0.67721 1.5116 1.5116z" display="block"/>
 <path opacity=".5" d="m16.312 78c-0.19677 0-0.34375 0.17486-0.34375 0.375v0.6875c-0.35185 0.09375-0.6924 0.22735-1 0.40625l-0.5-0.5c-0.14152-0.14152-0.36086-0.13911-0.5 0l-1 1c-0.13914 0.13914-0.14155 0.35848 0 0.5l0.25 0.25 0.75-0.75c0.13914-0.13911 0.35848-0.14152 0.5 0l0.5 0.5c0.3076-0.1789 0.64815-0.3125 1-0.40625v-0.687c0-0.2 0.147-0.375 0.344-0.375h1.375c0.19677 0 0.34375 0.17486 0.34375 0.375v0.6875c0.35185 0.09375 0.6924 0.22735 1 0.40625l0.5-0.5c0.14152-0.14155 0.36086-0.13914 0.5 0l0.75 0.75 0.25-0.25c0.07076-0.07076 0.09297-0.15843 0.09375-0.25 0.000782-0.09157-0.02418-0.18043-0.09375-0.25l-1-1c-0.13914-0.13914-0.35848-0.14155-0.5 0l-0.5 0.5c-0.3076-0.1789-0.64815-0.3125-1-0.40625v-0.687c0-0.199-0.147-0.374-0.343-0.374h-1.375zm-3.1562 3.6562c-0.03486 0.09883-0.06664 0.21074-0.09375 0.3125h-0.6875c-0.20014 0-0.375 0.14698-0.375 0.34375v1c0-0.19677 0.17486-0.34375 0.375-0.34375h0.6875c0.09375-0.35184 0.22735-0.6924 0.40625-1l-0.3125-0.3125zm7.6875 0-0.3125 0.3125c0.1789 0.3076 0.31251 0.64816 0.40625 1h0.6875c0.20014 0 0.375 0.14698 0.375 0.34375v-1c0-0.19677-0.17486-0.34375-0.375-0.34375h-0.6875c-0.028-0.101-0.06-0.213-0.095-0.312zm-5.282 1.844c-0.053 0.155-0.062 0.327-0.062 0.5 0 0.83442 0.66558 1.5 1.5 1.5s1.5-0.66558 1.5-1.5c0-0.17302-0.0089-0.34514-0.0625-0.5-0.20489 0.592-0.7761 1-1.4375 1s-1.2326-0.408-1.4375-1zm-2.4062 1.8438-0.1875 0.1875c-0.14152 0.14152-0.13911 0.36086 0 0.5l0.25 0.25 0.25-0.25c-0.128-0.219-0.227-0.445-0.313-0.688zm7.6875 0c-0.08568 0.24287-0.18534 0.46887-0.3125 0.6875l0.25 0.25 0.25-0.25c0.13914-0.13914 0.14155-0.35848 0-0.5l-0.189-0.188z" display="block"/>
 <path fill="#fff" d="m13.219 80.719-0.25 0.25c-0.13914 0.13914-0.14155 0.35848 0 0.5l0.1875 0.1875c0.08568-0.24288 0.18534-0.46887 0.3125-0.6875l-0.25-0.25zm7.5625 0-0.25 0.25c0.12716 0.21863 0.22682 0.44462 0.3125 0.6875l0.1875-0.1875c0.07076-0.07076 0.09297-0.15843 0.09375-0.25 0.000782-0.09157-0.02418-0.18043-0.09375-0.25l-0.25-0.25zm-3.782 0.781c-0.83442 0-1.5 0.66559-1.5 1.5 0 0.17302 0.0089 0.34514 0.0625 0.5 0.20489-0.592 0.7761-1 1.4375-1s1.2326 0.408 1.4375 1c0.053-0.155 0.062-0.327 0.062-0.5 0-0.834-0.666-1.5-1.5-1.5zm-5 2.1875v1c0 0.19677 0.17486 0.34375 0.375 0.34375h0.6875c0.02712 0.10176 0.05889 0.21367 0.09375 0.3125l0.3125-0.3125c-0.1789-0.3076-0.3125-0.64815-0.40625-1h-0.6875c-0.199-0.001-0.374-0.148-0.374-0.344zm10 0c0 0.19677-0.17486 0.34375-0.375 0.34375h-0.688c-0.09374 0.35184-0.22735 0.6924-0.40625 1l0.3125 0.3125c0.03486-0.09883 0.06664-0.21074 0.09375-0.3125h0.6875c0.20014 0 0.375-0.14698 0.375-0.34375v-1zm-8.7812 2.5938-0.25 0.25c-0.14152 0.14152-0.13911 0.36086 0 0.5l1 1c0.13914 0.13914 0.35848 0.14155 0.5 0l0.5-0.5c0.3076 0.1789 0.64815 0.3125 1 0.40625v0.6875c0 0.20014 0.14698 0.375 0.34375 0.375h1.375c0.19677 0 0.34375-0.17486 0.34375-0.375v-0.6875c0.35185-0.09374 0.6924-0.22735 1-0.40625l0.5 0.5c0.14152 0.14152 0.36086 0.13911 0.5 0l1-1c0.13914-0.13914 0.14155-0.35848 0-0.5l-0.25-0.25-0.75 0.75c-0.13914 0.13911-0.35848 0.14152-0.5 0l-0.5-0.5c-0.3076 0.1789-0.64815 0.31251-1 0.40625v0.6875c0 0.20014-0.14698 0.375-0.34375 0.375h-1.375c-0.19677 0-0.34375-0.17486-0.34375-0.375v-0.6875c-0.35185-0.09375-0.6924-0.22735-1-0.40625l-0.5 0.5c-0.14152 0.14155-0.36086 0.13914-0.5 0l-0.75-0.75z" display="block"/>
 <path fill="url(#n)" d="m22 54.31c0-0.19677-0.16324-0.35611-0.36337-0.35611h-0.705c-0.094-0.352-0.236-0.688-0.415-0.996l0.502-0.501c0.07076-0.07076 0.10824-0.15552 0.10901-0.24709 0.000782-0.09157-0.03217-0.18479-0.10174-0.25436l-0.9811-0.9811c-0.139-0.14-0.36-0.135-0.501 0.007l-0.502 0.501c-0.3076-0.1789-0.64379-0.3205-0.99564-0.41424v-0.70494c-0.000001-0.20014-0.15933-0.36337-0.3561-0.36337h-1.3808c-0.19677 0-0.3561 0.16324-0.3561 0.36337v0.70494c-0.35185 0.09375-0.68804 0.23535-0.99564 0.41424l-0.50145-0.50145c-0.14152-0.14152-0.36231-0.14641-0.50145-0.0073l-0.9811 0.9811c-0.13914 0.13914-0.13425 0.35993 0.0073 0.50145l0.50142 0.50145c-0.1789 0.3076-0.3205 0.64379-0.41424 0.99564h-0.70494c-0.20014 0-0.36337 0.15933-0.36337 0.35611v1.3808c0 0.19677 0.16324 0.3561 0.36337 0.3561h0.70494c0.09375 0.35185 0.23534 0.68803 0.41424 0.99564l-0.50145 0.50145c-0.14152 0.14152-0.14641 0.36231-0.0073 0.50145l0.9811 0.9811c0.13914 0.13914 0.35993 0.13425 0.50145-0.0073l0.50145-0.50145c0.3076 0.1789 0.64379 0.3205 0.99564 0.41424v0.70494c0 0.20014 0.15933 0.36337 0.3561 0.36337h1.3808c0.19677 0 0.3561-0.16323 0.3561-0.36337v-0.70494c0.35185-0.09374 0.68804-0.23534 0.99564-0.41424l0.50145 0.50145c0.14152 0.14152 0.36231 0.14641 0.50145 0.0073l0.9811-0.9811c0.13914-0.13914 0.13425-0.35993-0.0073-0.50145l-0.50145-0.50145c0.1789-0.3076 0.3205-0.64379 0.41424-0.99564h0.70494c0.20014 0 0.36337-0.15933 0.36337-0.3561v-1.381zm-3.4884 0.6904c0 0.83442-0.67721 1.5116-1.5116 1.5116-0.83442 0-1.5116-0.67721-1.5116-1.5116 0-0.83441 0.67721-1.5116 1.5116-1.5116 0.83442 0 1.5116 0.67721 1.5116 1.5116z" display="block"/>
 <path opacity=".5" d="m16.312 50c-0.19677 0-0.34375 0.17486-0.34375 0.375v0.6875c-0.35185 0.09375-0.6924 0.22735-1 0.40625l-0.5-0.5c-0.14152-0.14152-0.36086-0.13911-0.5 0l-1 1c-0.13914 0.13914-0.14155 0.35848 0 0.5l0.25 0.25 0.75-0.75c0.13914-0.13911 0.35848-0.14152 0.5 0l0.5 0.5c0.3076-0.1789 0.64815-0.3125 1-0.40625v-0.687c0-0.2 0.147-0.375 0.344-0.375h1.375c0.19677 0 0.34375 0.17486 0.34375 0.375v0.6875c0.35185 0.09375 0.6924 0.22735 1 0.40625l0.5-0.5c0.14152-0.14155 0.36086-0.13914 0.5 0l0.75 0.75 0.25-0.25c0.07076-0.07076 0.09297-0.15843 0.09375-0.25 0.000782-0.09157-0.02418-0.18043-0.09375-0.25l-1-1c-0.13914-0.13914-0.35848-0.14155-0.5 0l-0.5 0.5c-0.3076-0.1789-0.64815-0.3125-1-0.40625v-0.687c0-0.199-0.147-0.374-0.343-0.374h-1.375zm-3.1562 3.6562c-0.03486 0.09883-0.06664 0.21074-0.09375 0.3125h-0.6875c-0.20014 0-0.375 0.14698-0.375 0.34375v1c0-0.19677 0.17486-0.34375 0.375-0.34375h0.6875c0.09375-0.35184 0.22735-0.6924 0.40625-1l-0.3125-0.3125zm7.6875 0-0.3125 0.3125c0.1789 0.3076 0.31251 0.64816 0.40625 1h0.6875c0.20014 0 0.375 0.14698 0.375 0.34375v-1c0-0.19677-0.17486-0.34375-0.375-0.34375h-0.6875c-0.028-0.101-0.06-0.213-0.095-0.312zm-5.282 1.844c-0.053 0.155-0.062 0.327-0.062 0.5 0 0.83442 0.66558 1.5 1.5 1.5s1.5-0.66558 1.5-1.5c0-0.17302-0.0089-0.34514-0.0625-0.5-0.20489 0.592-0.7761 1-1.4375 1s-1.2326-0.408-1.4375-1zm-2.4062 1.8438-0.1875 0.1875c-0.14152 0.14152-0.13911 0.36086 0 0.5l0.25 0.25 0.25-0.25c-0.128-0.219-0.227-0.445-0.313-0.688zm7.6875 0c-0.08568 0.24287-0.18534 0.46887-0.3125 0.6875l0.25 0.25 0.25-0.25c0.13914-0.13914 0.14155-0.35848 0-0.5l-0.189-0.188z" display="block"/>
 <path fill="#fff" d="m13.219 52.719-0.25 0.25c-0.13914 0.13914-0.14155 0.35848 0 0.5l0.1875 0.1875c0.08568-0.24288 0.18534-0.46887 0.3125-0.6875l-0.25-0.25zm7.5625 0-0.25 0.25c0.12716 0.21863 0.22682 0.44462 0.3125 0.6875l0.1875-0.1875c0.07076-0.07076 0.09297-0.15843 0.09375-0.25 0.000782-0.09157-0.02418-0.18043-0.09375-0.25l-0.25-0.25zm-3.782 0.781c-0.83442 0-1.5 0.66559-1.5 1.5 0 0.17302 0.0089 0.34514 0.0625 0.5 0.20489-0.592 0.7761-1 1.4375-1s1.2326 0.408 1.4375 1c0.053-0.155 0.062-0.327 0.062-0.5 0-0.834-0.666-1.5-1.5-1.5zm-5 2.1875v1c0 0.19677 0.17486 0.34375 0.375 0.34375h0.6875c0.02712 0.10176 0.05889 0.21367 0.09375 0.3125l0.3125-0.3125c-0.1789-0.3076-0.3125-0.64815-0.40625-1h-0.6875c-0.199-0.001-0.374-0.148-0.374-0.344zm10 0c0 0.19677-0.17486 0.34375-0.375 0.34375h-0.688c-0.09374 0.35184-0.22735 0.6924-0.40625 1l0.3125 0.3125c0.03486-0.09883 0.06664-0.21074 0.09375-0.3125h0.6875c0.20014 0 0.375-0.14698 0.375-0.34375v-1zm-8.7812 2.5938-0.25 0.25c-0.14152 0.14152-0.13911 0.36086 0 0.5l1 1c0.13914 0.13914 0.35848 0.14155 0.5 0l0.5-0.5c0.3076 0.1789 0.64815 0.3125 1 0.40625v0.6875c0 0.20014 0.14698 0.375 0.34375 0.375h1.375c0.19677 0 0.34375-0.17486 0.34375-0.375v-0.6875c0.35185-0.09374 0.6924-0.22735 1-0.40625l0.5 0.5c0.14152 0.14152 0.36086 0.13911 0.5 0l1-1c0.13914-0.13914 0.14155-0.35848 0-0.5l-0.25-0.25-0.75 0.75c-0.13914 0.13911-0.35848 0.14152-0.5 0l-0.5-0.5c-0.3076 0.1789-0.64815 0.31251-1 0.40625v0.6875c0 0.20014-0.14698 0.375-0.34375 0.375h-1.375c-0.19677 0-0.34375-0.17486-0.34375-0.375v-0.6875c-0.35185-0.09375-0.6924-0.22735-1-0.40625l-0.5 0.5c-0.14152 0.14155-0.36086 0.13914-0.5 0l-0.75-0.75z" display="block"/>
 <path fill="url(#m)" d="m22 26.31c0-0.19677-0.16324-0.35611-0.36337-0.35611h-0.705c-0.094-0.352-0.236-0.688-0.415-0.996l0.502-0.501c0.07076-0.07076 0.10824-0.15552 0.10901-0.24709 0.000782-0.09157-0.03217-0.18479-0.10174-0.25436l-0.9811-0.9811c-0.139-0.14-0.36-0.135-0.501 0.007l-0.502 0.501c-0.3076-0.1789-0.64379-0.3205-0.99564-0.41424v-0.70494c-0.000001-0.20014-0.15933-0.36337-0.3561-0.36337h-1.3808c-0.19677 0-0.3561 0.16324-0.3561 0.36337v0.70494c-0.35185 0.09375-0.68804 0.23535-0.99564 0.41424l-0.50145-0.50145c-0.14152-0.14152-0.36231-0.14641-0.50145-0.0073l-0.9811 0.9811c-0.13914 0.13914-0.13425 0.35993 0.0073 0.50145l0.50142 0.50145c-0.1789 0.3076-0.3205 0.64379-0.41424 0.99564h-0.70494c-0.20014 0-0.36337 0.15933-0.36337 0.35611v1.3808c0 0.19677 0.16324 0.3561 0.36337 0.3561h0.70494c0.09375 0.35185 0.23534 0.68803 0.41424 0.99564l-0.50145 0.50145c-0.14152 0.14152-0.14641 0.36231-0.0073 0.50145l0.9811 0.9811c0.13914 0.13914 0.35993 0.13425 0.50145-0.0073l0.50145-0.50145c0.3076 0.1789 0.64379 0.3205 0.99564 0.41424v0.70494c0 0.20014 0.15933 0.36337 0.3561 0.36337h1.3808c0.19677 0 0.3561-0.16323 0.3561-0.36337v-0.70494c0.35185-0.09374 0.68804-0.23534 0.99564-0.41424l0.50145 0.50145c0.14152 0.14152 0.36231 0.14641 0.50145 0.0073l0.9811-0.9811c0.13914-0.13914 0.13425-0.35993-0.0073-0.50145l-0.50145-0.50145c0.1789-0.3076 0.3205-0.64379 0.41424-0.99564h0.70494c0.20014 0 0.36337-0.15933 0.36337-0.3561v-1.381zm-3.4884 0.6904c0 0.83442-0.67721 1.5116-1.5116 1.5116-0.83442 0-1.5116-0.67721-1.5116-1.5116 0-0.83441 0.67721-1.5116 1.5116-1.5116 0.83442 0 1.5116 0.67721 1.5116 1.5116z" display="block"/>
 <path opacity=".5" d="m16.312 22c-0.19677 0-0.34375 0.17486-0.34375 0.375v0.6875c-0.35185 0.09375-0.6924 0.22735-1 0.40625l-0.5-0.5c-0.14152-0.14152-0.36086-0.13911-0.5 0l-1 1c-0.13914 0.13914-0.14155 0.35848 0 0.5l0.25 0.25 0.75-0.75c0.13914-0.13911 0.35848-0.14152 0.5 0l0.5 0.5c0.3076-0.1789 0.64815-0.3125 1-0.40625v-0.687c0-0.2 0.147-0.375 0.344-0.375h1.375c0.19677 0 0.34375 0.17486 0.34375 0.375v0.6875c0.35185 0.09375 0.6924 0.22735 1 0.40625l0.5-0.5c0.14152-0.14155 0.36086-0.13914 0.5 0l0.75 0.75 0.25-0.25c0.07076-0.07076 0.09297-0.15843 0.09375-0.25 0.000782-0.09157-0.02418-0.18043-0.09375-0.25l-1-1c-0.13914-0.13914-0.35848-0.14155-0.5 0l-0.5 0.5c-0.3076-0.1789-0.64815-0.3125-1-0.40625v-0.687c0-0.199-0.147-0.374-0.343-0.374h-1.375zm-3.1562 3.6562c-0.03486 0.09883-0.06664 0.21074-0.09375 0.3125h-0.6875c-0.20014 0-0.375 0.14698-0.375 0.34375v1c0-0.19677 0.17486-0.34375 0.375-0.34375h0.6875c0.09375-0.35184 0.22735-0.6924 0.40625-1l-0.3125-0.3125zm7.6875 0-0.3125 0.3125c0.1789 0.3076 0.31251 0.64816 0.40625 1h0.6875c0.20014 0 0.375 0.14698 0.375 0.34375v-1c0-0.19677-0.17486-0.34375-0.375-0.34375h-0.6875c-0.028-0.101-0.06-0.213-0.095-0.312zm-5.282 1.844c-0.053 0.155-0.062 0.327-0.062 0.5 0 0.83442 0.66558 1.5 1.5 1.5s1.5-0.66558 1.5-1.5c0-0.17302-0.0089-0.34514-0.0625-0.5-0.20489 0.592-0.7761 1-1.4375 1s-1.2326-0.408-1.4375-1zm-2.4062 1.8438-0.1875 0.1875c-0.14152 0.14152-0.13911 0.36086 0 0.5l0.25 0.25 0.25-0.25c-0.128-0.219-0.227-0.445-0.313-0.688zm7.6875 0c-0.08568 0.24287-0.18534 0.46887-0.3125 0.6875l0.25 0.25 0.25-0.25c0.13914-0.13914 0.14155-0.35848 0-0.5l-0.189-0.188z" display="block"/>
 <path fill="#fff" d="m13.219 24.719-0.25 0.25c-0.13914 0.13914-0.14155 0.35848 0 0.5l0.1875 0.1875c0.08568-0.24288 0.18534-0.46887 0.3125-0.6875l-0.25-0.25zm7.5625 0-0.25 0.25c0.12716 0.21863 0.22682 0.44462 0.3125 0.6875l0.1875-0.1875c0.07076-0.07076 0.09297-0.15843 0.09375-0.25 0.000782-0.09157-0.02418-0.18043-0.09375-0.25l-0.25-0.25zm-3.782 0.781c-0.83442 0-1.5 0.66559-1.5 1.5 0 0.17302 0.0089 0.34514 0.0625 0.5 0.20489-0.592 0.7761-1 1.4375-1s1.2326 0.408 1.4375 1c0.053-0.155 0.062-0.327 0.062-0.5 0-0.834-0.666-1.5-1.5-1.5zm-5 2.1875v1c0 0.19677 0.17486 0.34375 0.375 0.34375h0.6875c0.02712 0.10176 0.05889 0.21367 0.09375 0.3125l0.3125-0.3125c-0.1789-0.3076-0.3125-0.64815-0.40625-1h-0.6875c-0.199-0.001-0.374-0.148-0.374-0.344zm10 0c0 0.19677-0.17486 0.34375-0.375 0.34375h-0.688c-0.09374 0.35184-0.22735 0.6924-0.40625 1l0.3125 0.3125c0.03486-0.09883 0.06664-0.21074 0.09375-0.3125h0.6875c0.20014 0 0.375-0.14698 0.375-0.34375v-1zm-8.7812 2.5938-0.25 0.25c-0.14152 0.14152-0.13911 0.36086 0 0.5l1 1c0.13914 0.13914 0.35848 0.14155 0.5 0l0.5-0.5c0.3076 0.1789 0.64815 0.3125 1 0.40625v0.6875c0 0.20014 0.14698 0.375 0.34375 0.375h1.375c0.19677 0 0.34375-0.17486 0.34375-0.375v-0.6875c0.35185-0.09374 0.6924-0.22735 1-0.40625l0.5 0.5c0.14152 0.14152 0.36086 0.13911 0.5 0l1-1c0.13914-0.13914 0.14155-0.35848 0-0.5l-0.25-0.25-0.75 0.75c-0.13914 0.13911-0.35848 0.14152-0.5 0l-0.5-0.5c-0.3076 0.1789-0.64815 0.31251-1 0.40625v0.6875c0 0.20014-0.14698 0.375-0.34375 0.375h-1.375c-0.19677 0-0.34375-0.17486-0.34375-0.375v-0.6875c-0.35185-0.09375-0.6924-0.22735-1-0.40625l-0.5 0.5c-0.14152 0.14155-0.36086 0.13914-0.5 0l-0.75-0.75z" display="block"/>
 <path fill="url(#l)" d="m22 40.31c0-0.19677-0.16324-0.35611-0.36337-0.35611h-0.705c-0.094-0.352-0.236-0.688-0.415-0.996l0.502-0.501c0.07076-0.07076 0.10824-0.15552 0.10901-0.24709 0.000782-0.09157-0.03217-0.18479-0.10174-0.25436l-0.9811-0.9811c-0.139-0.14-0.36-0.135-0.501 0.007l-0.502 0.501c-0.3076-0.1789-0.64379-0.3205-0.99564-0.41424v-0.70494c-0.000001-0.20014-0.15933-0.36337-0.3561-0.36337h-1.3808c-0.19677 0-0.3561 0.16324-0.3561 0.36337v0.70494c-0.35185 0.09375-0.68804 0.23535-0.99564 0.41424l-0.50145-0.50145c-0.14152-0.14152-0.36231-0.14641-0.50145-0.0073l-0.9811 0.9811c-0.13914 0.13914-0.13425 0.35993 0.0073 0.50145l0.50142 0.50145c-0.1789 0.3076-0.3205 0.64379-0.41424 0.99564h-0.70494c-0.20014 0-0.36337 0.15933-0.36337 0.35611v1.3808c0 0.19677 0.16324 0.3561 0.36337 0.3561h0.70494c0.09375 0.35185 0.23534 0.68803 0.41424 0.99564l-0.50145 0.50145c-0.14152 0.14152-0.14641 0.36231-0.0073 0.50145l0.9811 0.9811c0.13914 0.13914 0.35993 0.13425 0.50145-0.0073l0.50145-0.50145c0.3076 0.1789 0.64379 0.3205 0.99564 0.41424v0.70494c0 0.20014 0.15933 0.36337 0.3561 0.36337h1.3808c0.19677 0 0.3561-0.16323 0.3561-0.36337v-0.70494c0.35185-0.09374 0.68804-0.23534 0.99564-0.41424l0.50145 0.50145c0.14152 0.14152 0.36231 0.14641 0.50145 0.0073l0.9811-0.9811c0.13914-0.13914 0.13425-0.35993-0.0073-0.50145l-0.50145-0.50145c0.1789-0.3076 0.3205-0.64379 0.41424-0.99564h0.70494c0.20014 0 0.36337-0.15933 0.36337-0.3561v-1.381zm-3.4884 0.6904c0 0.83442-0.67721 1.5116-1.5116 1.5116-0.83442 0-1.5116-0.67721-1.5116-1.5116 0-0.83441 0.67721-1.5116 1.5116-1.5116 0.83442 0 1.5116 0.67721 1.5116 1.5116z" display="block"/>
 <path opacity=".5" d="m16.312 36c-0.19677 0-0.34375 0.17486-0.34375 0.375v0.6875c-0.35185 0.09375-0.6924 0.22735-1 0.40625l-0.5-0.5c-0.14152-0.14152-0.36086-0.13911-0.5 0l-1 1c-0.13914 0.13914-0.14155 0.35848 0 0.5l0.25 0.25 0.75-0.75c0.13914-0.13911 0.35848-0.14152 0.5 0l0.5 0.5c0.3076-0.1789 0.64815-0.3125 1-0.40625v-0.687c0-0.2 0.147-0.375 0.344-0.375h1.375c0.19677 0 0.34375 0.17486 0.34375 0.375v0.6875c0.35185 0.09375 0.6924 0.22735 1 0.40625l0.5-0.5c0.14152-0.14155 0.36086-0.13914 0.5 0l0.75 0.75 0.25-0.25c0.07076-0.07076 0.09297-0.15843 0.09375-0.25 0.000782-0.09157-0.02418-0.18043-0.09375-0.25l-1-1c-0.13914-0.13914-0.35848-0.14155-0.5 0l-0.5 0.5c-0.3076-0.1789-0.64815-0.3125-1-0.40625v-0.687c0-0.199-0.147-0.374-0.343-0.374h-1.375zm-3.1562 3.6562c-0.03486 0.09883-0.06664 0.21074-0.09375 0.3125h-0.6875c-0.20014 0-0.375 0.14698-0.375 0.34375v1c0-0.19677 0.17486-0.34375 0.375-0.34375h0.6875c0.09375-0.35184 0.22735-0.6924 0.40625-1l-0.3125-0.3125zm7.6875 0-0.3125 0.3125c0.1789 0.3076 0.31251 0.64816 0.40625 1h0.6875c0.20014 0 0.375 0.14698 0.375 0.34375v-1c0-0.19677-0.17486-0.34375-0.375-0.34375h-0.6875c-0.028-0.101-0.06-0.213-0.095-0.312zm-5.282 1.844c-0.053 0.155-0.062 0.327-0.062 0.5 0 0.83442 0.66558 1.5 1.5 1.5s1.5-0.66558 1.5-1.5c0-0.17302-0.0089-0.34514-0.0625-0.5-0.20489 0.592-0.7761 1-1.4375 1s-1.2326-0.408-1.4375-1zm-2.4062 1.8438-0.1875 0.1875c-0.14152 0.14152-0.13911 0.36086 0 0.5l0.25 0.25 0.25-0.25c-0.128-0.219-0.227-0.445-0.313-0.688zm7.6875 0c-0.08568 0.24287-0.18534 0.46887-0.3125 0.6875l0.25 0.25 0.25-0.25c0.13914-0.13914 0.14155-0.35848 0-0.5l-0.189-0.188z" display="block"/>
 <path fill="#fff" d="m13.219 38.719-0.25 0.25c-0.13914 0.13914-0.14155 0.35848 0 0.5l0.1875 0.1875c0.08568-0.24288 0.18534-0.46887 0.3125-0.6875l-0.25-0.25zm7.5625 0-0.25 0.25c0.12716 0.21863 0.22682 0.44462 0.3125 0.6875l0.1875-0.1875c0.07076-0.07076 0.09297-0.15843 0.09375-0.25 0.000782-0.09157-0.02418-0.18043-0.09375-0.25l-0.25-0.25zm-3.782 0.781c-0.83442 0-1.5 0.66559-1.5 1.5 0 0.17302 0.0089 0.34514 0.0625 0.5 0.20489-0.592 0.7761-1 1.4375-1s1.2326 0.408 1.4375 1c0.053-0.155 0.062-0.327 0.062-0.5 0-0.834-0.666-1.5-1.5-1.5zm-5 2.1875v1c0 0.19677 0.17486 0.34375 0.375 0.34375h0.6875c0.02712 0.10176 0.05889 0.21367 0.09375 0.3125l0.3125-0.3125c-0.1789-0.3076-0.3125-0.64815-0.40625-1h-0.6875c-0.199-0.001-0.374-0.148-0.374-0.344zm10 0c0 0.19677-0.17486 0.34375-0.375 0.34375h-0.688c-0.09374 0.35184-0.22735 0.6924-0.40625 1l0.3125 0.3125c0.03486-0.09883 0.06664-0.21074 0.09375-0.3125h0.6875c0.20014 0 0.375-0.14698 0.375-0.34375v-1zm-8.7812 2.5938-0.25 0.25c-0.14152 0.14152-0.13911 0.36086 0 0.5l1 1c0.13914 0.13914 0.35848 0.14155 0.5 0l0.5-0.5c0.3076 0.1789 0.64815 0.3125 1 0.40625v0.6875c0 0.20014 0.14698 0.375 0.34375 0.375h1.375c0.19677 0 0.34375-0.17486 0.34375-0.375v-0.6875c0.35185-0.09374 0.6924-0.22735 1-0.40625l0.5 0.5c0.14152 0.14152 0.36086 0.13911 0.5 0l1-1c0.13914-0.13914 0.14155-0.35848 0-0.5l-0.25-0.25-0.75 0.75c-0.13914 0.13911-0.35848 0.14152-0.5 0l-0.5-0.5c-0.3076 0.1789-0.64815 0.31251-1 0.40625v0.6875c0 0.20014-0.14698 0.375-0.34375 0.375h-1.375c-0.19677 0-0.34375-0.17486-0.34375-0.375v-0.6875c-0.35185-0.09375-0.6924-0.22735-1-0.40625l-0.5 0.5c-0.14152 0.14155-0.36086 0.13914-0.5 0l-0.75-0.75z" display="block"/>
 <path fill="url(#k)" d="m22 12.31c0-0.19677-0.16324-0.35611-0.36337-0.35611h-0.705c-0.094-0.352-0.236-0.688-0.415-0.996l0.502-0.501c0.07076-0.07076 0.10824-0.15552 0.10901-0.24709 0.000782-0.09157-0.03217-0.18479-0.10174-0.25436l-0.9811-0.9811c-0.139-0.1394-0.36-0.1345-0.501 0.0071l-0.502 0.5014c-0.307-0.1789-0.644-0.3205-0.995-0.4142v-0.705c-0.000001-0.20014-0.15933-0.36337-0.3561-0.36337h-1.3808c-0.19677 0-0.3561 0.16324-0.3561 0.36337v0.705c-0.352 0.0937-0.689 0.2353-0.996 0.4142l-0.502-0.5014c-0.141-0.1416-0.362-0.1465-0.501-0.0074l-0.9811 0.9811c-0.13914 0.13914-0.13425 0.35993 0.0073 0.50145l0.50142 0.50145c-0.1789 0.3076-0.3205 0.64379-0.41424 0.99564h-0.70494c-0.20014 0-0.36337 0.15933-0.36337 0.35611v1.3808c0 0.19677 0.16324 0.3561 0.36337 0.3561h0.70494c0.09375 0.35185 0.23534 0.68803 0.41424 0.99564l-0.50145 0.50145c-0.14152 0.14152-0.14641 0.36231-0.0073 0.50145l0.9811 0.9811c0.13914 0.13914 0.35993 0.13425 0.50145-0.0073l0.50145-0.50145c0.3076 0.1789 0.64379 0.3205 0.99564 0.41424v0.70494c0 0.20014 0.15933 0.36337 0.3561 0.36337h1.3808c0.19677 0 0.3561-0.16323 0.3561-0.36337v-0.70494c0.35185-0.09374 0.68804-0.23534 0.99564-0.41424l0.50145 0.50145c0.14152 0.14152 0.36231 0.14641 0.50145 0.0073l0.9811-0.9811c0.13914-0.13914 0.13425-0.35993-0.0073-0.50145l-0.50145-0.50145c0.1789-0.3076 0.3205-0.64379 0.41424-0.99564h0.70494c0.20014 0 0.36337-0.15933 0.36337-0.3561v-1.381zm-3.4884 0.6904c0 0.83442-0.67721 1.5116-1.5116 1.5116-0.83442 0-1.5116-0.67721-1.5116-1.5116 0-0.83441 0.67721-1.5116 1.5116-1.5116 0.83442 0 1.5116 0.67721 1.5116 1.5116z" display="block"/>
 <path opacity=".5" d="m16.312 8c-0.19677 0-0.34375 0.17486-0.34375 0.375v0.6875c-0.35185 0.09375-0.6924 0.22735-1 0.40625l-0.5-0.5c-0.14152-0.14152-0.36086-0.13911-0.5 0l-1 1c-0.13914 0.13914-0.14155 0.35848 0 0.5l0.25 0.25 0.75-0.75c0.13914-0.13911 0.35848-0.14152 0.5 0l0.5 0.5c0.3076-0.1789 0.64815-0.3125 1-0.40625v-0.688c0-0.2001 0.147-0.375 0.344-0.375h1.375c0.19677 0 0.34375 0.17486 0.34375 0.375v0.6875c0.35185 0.09375 0.6924 0.22735 1 0.40625l0.5-0.5c0.14152-0.14155 0.36086-0.13914 0.5 0l0.75 0.75 0.25-0.25c0.07076-0.07076 0.09297-0.15843 0.09375-0.25 0.000782-0.09157-0.02418-0.18043-0.09375-0.25l-1-1c-0.13914-0.13914-0.35848-0.14155-0.5 0l-0.5 0.5c-0.3076-0.1789-0.64815-0.3125-1-0.40625v-0.6868c0-0.199-0.147-0.374-0.343-0.374h-1.375zm-3.1562 3.6562c-0.03486 0.09883-0.06664 0.21074-0.09375 0.3125h-0.6875c-0.20014 0-0.375 0.14698-0.375 0.34375v1c0-0.19677 0.17486-0.34375 0.375-0.34375h0.6875c0.09375-0.35184 0.22735-0.6924 0.40625-1l-0.3125-0.3125zm7.6875 0-0.3125 0.3125c0.1789 0.3076 0.31251 0.64816 0.40625 1h0.6875c0.20014 0 0.375 0.14698 0.375 0.34375v-1c0-0.19677-0.17486-0.34375-0.375-0.34375h-0.6875c-0.028-0.101-0.06-0.213-0.095-0.312zm-5.282 1.844c-0.053 0.155-0.062 0.327-0.062 0.5 0 0.83442 0.66558 1.5 1.5 1.5s1.5-0.66558 1.5-1.5c0-0.17302-0.0089-0.34514-0.0625-0.5-0.20489 0.592-0.7761 1-1.4375 1s-1.2326-0.408-1.4375-1zm-2.4062 1.8438-0.1875 0.1875c-0.14152 0.14152-0.13911 0.36086 0 0.5l0.25 0.25 0.25-0.25c-0.128-0.219-0.227-0.445-0.313-0.688zm7.6875 0c-0.08568 0.24287-0.18534 0.46887-0.3125 0.6875l0.25 0.25 0.25-0.25c0.13914-0.13914 0.14155-0.35848 0-0.5l-0.189-0.188z" display="block"/>
 <path fill="#fff" d="m13.219 10.719-0.25 0.25c-0.13914 0.13914-0.14155 0.35848 0 0.5l0.1875 0.1875c0.08568-0.24288 0.18534-0.46887 0.3125-0.6875l-0.25-0.25zm7.5625 0-0.25 0.25c0.12716 0.21863 0.22682 0.44462 0.3125 0.6875l0.1875-0.1875c0.07076-0.07076 0.09297-0.15843 0.09375-0.25 0.000782-0.09157-0.02418-0.18043-0.09375-0.25l-0.25-0.25zm-3.782 0.781c-0.83442 0-1.5 0.66559-1.5 1.5 0 0.17302 0.0089 0.34514 0.0625 0.5 0.20489-0.592 0.7761-1 1.4375-1s1.2326 0.408 1.4375 1c0.053-0.155 0.062-0.327 0.062-0.5 0-0.834-0.666-1.5-1.5-1.5zm-5 2.1875v1c0 0.19677 0.17486 0.34375 0.375 0.34375h0.6875c0.02712 0.10176 0.05889 0.21367 0.09375 0.3125l0.3125-0.3125c-0.1789-0.3076-0.3125-0.64815-0.40625-1h-0.6875c-0.199-0.001-0.374-0.148-0.374-0.344zm10 0c0 0.19677-0.17486 0.34375-0.375 0.34375h-0.688c-0.09374 0.35184-0.22735 0.6924-0.40625 1l0.3125 0.3125c0.03486-0.09883 0.06664-0.21074 0.09375-0.3125h0.6875c0.20014 0 0.375-0.14698 0.375-0.34375v-1zm-8.7812 2.5938-0.25 0.25c-0.14152 0.14152-0.13911 0.36086 0 0.5l1 1c0.13914 0.13914 0.35848 0.14155 0.5 0l0.5-0.5c0.3076 0.1789 0.64815 0.3125 1 0.40625v0.6875c0 0.20014 0.14698 0.375 0.34375 0.375h1.375c0.19677 0 0.34375-0.17486 0.34375-0.375v-0.6875c0.35185-0.09374 0.6924-0.22735 1-0.40625l0.5 0.5c0.14152 0.14152 0.36086 0.13911 0.5 0l1-1c0.13914-0.13914 0.14155-0.35848 0-0.5l-0.25-0.25-0.75 0.75c-0.13914 0.13911-0.35848 0.14152-0.5 0l-0.5-0.5c-0.3076 0.1789-0.64815 0.31251-1 0.40625v0.6875c0 0.20014-0.14698 0.375-0.34375 0.375h-1.375c-0.19677 0-0.34375-0.17486-0.34375-0.375v-0.6875c-0.35185-0.09375-0.6924-0.22735-1-0.40625l-0.5 0.5c-0.14152 0.14155-0.36086 0.13914-0.5 0l-0.75-0.75z" display="block"/>
 <path fill="url(#j)" d="m22 68.31c0-0.19677-0.16324-0.35611-0.36337-0.35611h-0.705c-0.094-0.352-0.236-0.688-0.415-0.996l0.502-0.501c0.07076-0.07076 0.10824-0.15552 0.10901-0.24709 0.000782-0.09157-0.03217-0.18479-0.10174-0.25436l-0.9811-0.9811c-0.139-0.14-0.36-0.135-0.501 0.007l-0.502 0.501c-0.3076-0.1789-0.64379-0.3205-0.99564-0.41424v-0.70494c-0.000001-0.20014-0.15933-0.36337-0.3561-0.36337h-1.3808c-0.19677 0-0.3561 0.16324-0.3561 0.36337v0.70494c-0.35185 0.09375-0.68804 0.23535-0.99564 0.41424l-0.50145-0.50145c-0.14152-0.14152-0.36231-0.14641-0.50145-0.0073l-0.9811 0.9811c-0.13914 0.13914-0.13425 0.35993 0.0073 0.50145l0.50142 0.50145c-0.1789 0.3076-0.3205 0.64379-0.41424 0.99564h-0.70494c-0.20014 0-0.36337 0.15933-0.36337 0.35611v1.3808c0 0.19677 0.16324 0.3561 0.36337 0.3561h0.70494c0.09375 0.35185 0.23534 0.68803 0.41424 0.99564l-0.50145 0.50145c-0.14152 0.14152-0.14641 0.36231-0.0073 0.50145l0.9811 0.9811c0.13914 0.13914 0.35993 0.13425 0.50145-0.0073l0.50145-0.50145c0.3076 0.1789 0.64379 0.3205 0.99564 0.41424v0.70494c0 0.20014 0.15933 0.36337 0.3561 0.36337h1.3808c0.19677 0 0.3561-0.16323 0.3561-0.36337v-0.70494c0.35185-0.09374 0.68804-0.23534 0.99564-0.41424l0.50145 0.50145c0.14152 0.14152 0.36231 0.14641 0.50145 0.0073l0.9811-0.9811c0.13914-0.13914 0.13425-0.35993-0.0073-0.50145l-0.50145-0.50145c0.1789-0.3076 0.3205-0.64379 0.41424-0.99564h0.70494c0.20014 0 0.36337-0.15933 0.36337-0.3561v-1.381zm-3.4884 0.6904c0 0.83442-0.67721 1.5116-1.5116 1.5116-0.83442 0-1.5116-0.67721-1.5116-1.5116 0-0.83441 0.67721-1.5116 1.5116-1.5116 0.83442 0 1.5116 0.67721 1.5116 1.5116z" display="block"/>
 <path opacity=".5" d="m16.312 64c-0.19677 0-0.34375 0.17486-0.34375 0.375v0.6875c-0.35185 0.09375-0.6924 0.22735-1 0.40625l-0.5-0.5c-0.14152-0.14152-0.36086-0.13911-0.5 0l-1 1c-0.13914 0.13914-0.14155 0.35848 0 0.5l0.25 0.25 0.75-0.75c0.13914-0.13911 0.35848-0.14152 0.5 0l0.5 0.5c0.3076-0.1789 0.64815-0.3125 1-0.40625v-0.687c0-0.2 0.147-0.375 0.344-0.375h1.375c0.19677 0 0.34375 0.17486 0.34375 0.375v0.6875c0.35185 0.09375 0.6924 0.22735 1 0.40625l0.5-0.5c0.14152-0.14155 0.36086-0.13914 0.5 0l0.75 0.75 0.25-0.25c0.07076-0.07076 0.09297-0.15843 0.09375-0.25 0.000782-0.09157-0.02418-0.18043-0.09375-0.25l-1-1c-0.13914-0.13914-0.35848-0.14155-0.5 0l-0.5 0.5c-0.3076-0.1789-0.64815-0.3125-1-0.40625v-0.687c0-0.199-0.147-0.374-0.343-0.374h-1.375zm-3.1562 3.6562c-0.03486 0.09883-0.06664 0.21074-0.09375 0.3125h-0.6875c-0.20014 0-0.375 0.14698-0.375 0.34375v1c0-0.19677 0.17486-0.34375 0.375-0.34375h0.6875c0.09375-0.35184 0.22735-0.6924 0.40625-1l-0.3125-0.3125zm7.6875 0-0.3125 0.3125c0.1789 0.3076 0.31251 0.64816 0.40625 1h0.6875c0.20014 0 0.375 0.14698 0.375 0.34375v-1c0-0.19677-0.17486-0.34375-0.375-0.34375h-0.6875c-0.028-0.101-0.06-0.213-0.095-0.312zm-5.282 1.844c-0.053 0.155-0.062 0.327-0.062 0.5 0 0.83442 0.66558 1.5 1.5 1.5s1.5-0.66558 1.5-1.5c0-0.17302-0.0089-0.34514-0.0625-0.5-0.20489 0.592-0.7761 1-1.4375 1s-1.2326-0.408-1.4375-1zm-2.4062 1.8438-0.1875 0.1875c-0.14152 0.14152-0.13911 0.36086 0 0.5l0.25 0.25 0.25-0.25c-0.128-0.219-0.227-0.445-0.313-0.688zm7.6875 0c-0.08568 0.24287-0.18534 0.46887-0.3125 0.6875l0.25 0.25 0.25-0.25c0.13914-0.13914 0.14155-0.35848 0-0.5l-0.189-0.188z" display="block"/>
 <path opacity=".3" d="m13.219 66.719-0.25 0.25c-0.13914 0.13914-0.14155 0.35848 0 0.5l0.1875 0.1875c0.08568-0.24288 0.18534-0.46887 0.3125-0.6875l-0.25-0.25zm7.5625 0-0.25 0.25c0.12716 0.21863 0.22682 0.44462 0.3125 0.6875l0.1875-0.1875c0.07076-0.07076 0.09297-0.15843 0.09375-0.25 0.000782-0.09157-0.02418-0.18043-0.09375-0.25l-0.25-0.25zm-3.782 0.781c-0.83442 0-1.5 0.66559-1.5 1.5 0 0.17302 0.0089 0.34514 0.0625 0.5 0.20489-0.592 0.7761-1 1.4375-1s1.2326 0.408 1.4375 1c0.053-0.155 0.062-0.327 0.062-0.5 0-0.834-0.666-1.5-1.5-1.5zm-5 2.1875v1c0 0.19677 0.17486 0.34375 0.375 0.34375h0.6875c0.02712 0.10176 0.05889 0.21367 0.09375 0.3125l0.3125-0.3125c-0.1789-0.3076-0.3125-0.64815-0.40625-1h-0.6875c-0.199-0.001-0.374-0.148-0.374-0.344zm10 0c0 0.19677-0.17486 0.34375-0.375 0.34375h-0.688c-0.09374 0.35184-0.22735 0.6924-0.40625 1l0.3125 0.3125c0.03486-0.09883 0.06664-0.21074 0.09375-0.3125h0.6875c0.20014 0 0.375-0.14698 0.375-0.34375v-1zm-8.7812 2.5938-0.25 0.25c-0.14152 0.14152-0.13911 0.36086 0 0.5l1 1c0.13914 0.13914 0.35848 0.14155 0.5 0l0.5-0.5c0.3076 0.1789 0.64815 0.3125 1 0.40625v0.6875c0 0.20014 0.14698 0.375 0.34375 0.375h1.375c0.19677 0 0.34375-0.17486 0.34375-0.375v-0.6875c0.35185-0.09374 0.6924-0.22735 1-0.40625l0.5 0.5c0.14152 0.14152 0.36086 0.13911 0.5 0l1-1c0.13914-0.13914 0.14155-0.35848 0-0.5l-0.25-0.25-0.75 0.75c-0.13914 0.13911-0.35848 0.14152-0.5 0l-0.5-0.5c-0.3076 0.1789-0.64815 0.31251-1 0.40625v0.6875c0 0.20014-0.14698 0.375-0.34375 0.375h-1.375c-0.19677 0-0.34375-0.17486-0.34375-0.375v-0.6875c-0.35185-0.09375-0.6924-0.22735-1-0.40625l-0.5 0.5c-0.14152 0.14155-0.36086 0.13914-0.5 0l-0.75-0.75z" display="block" fill="#fff"/>
</svg>
