<?xml version="1.0" encoding="UTF-8" standalone="no"?>
<!-- Created with Inkscape (http://www.inkscape.org/) -->

<svg
   xmlns:dc="http://purl.org/dc/elements/1.1/"
   xmlns:cc="http://creativecommons.org/ns#"
   xmlns:rdf="http://www.w3.org/1999/02/22-rdf-syntax-ns#"
   xmlns:svg="http://www.w3.org/2000/svg"
   xmlns="http://www.w3.org/2000/svg"
   xmlns:xlink="http://www.w3.org/1999/xlink"
   xmlns:sodipodi="http://sodipodi.sourceforge.net/DTD/sodipodi-0.dtd"
   xmlns:inkscape="http://www.inkscape.org/namespaces/inkscape"
   version="1.0"
   width="96"
   height="96"
   id="svg2408"
   style="display:inline"
   inkscape:version="0.48.4 r9939"
   sodipodi:docname="icon.svg"
   inkscape:export-filename="/home/corbin/Desktop/icon.png"
   inkscape:export-xdpi="120"
   inkscape:export-ydpi="120">
  <sodipodi:namedview
     pagecolor="#ffffff"
     bordercolor="#666666"
     borderopacity="1"
     objecttolerance="10"
     gridtolerance="10"
     guidetolerance="10"
     inkscape:pageopacity="0"
     inkscape:pageshadow="2"
     inkscape:window-width="1920"
     inkscape:window-height="1150"
     id="namedview119"
     showgrid="false"
     inkscape:zoom="6.9532169"
     inkscape:cx="63.900572"
     inkscape:cy="58.10514"
     inkscape:window-x="0"
     inkscape:window-y="0"
     inkscape:window-maximized="1"
     inkscape:current-layer="g3053" />
  <defs
     id="defs2410">
    <linearGradient
       id="linearGradient3875">
      <stop
         id="stop3877"
         style="stop-color:#ffffff;stop-opacity:1"
         offset="0" />
      <stop
         id="stop3879"
         style="stop-color:#ffffff;stop-opacity:0.42635658"
         offset="1" />
    </linearGradient>
    <linearGradient
       x1="45.447727"
       y1="92.539597"
       x2="45.447727"
       y2="7.0165396"
       id="ButtonShadow"
       gradientUnits="userSpaceOnUse"
       gradientTransform="scale(1.0058652,0.994169)">
      <stop
         id="stop3750"
         style="stop-color:#000000;stop-opacity:1"
         offset="0" />
      <stop
         id="stop3752"
         style="stop-color:#000000;stop-opacity:0.58823532"
         offset="1" />
    </linearGradient>
    <filter
       color-interpolation-filters="sRGB"
       id="filter3174">
      <feGaussianBlur
         id="feGaussianBlur3176"
         stdDeviation="1.71" />
    </filter>
    <linearGradient
       id="linearGradient3737-6">
      <stop
         id="stop3739-73"
         style="stop-color:#ffffff;stop-opacity:1"
         offset="0" />
      <stop
         id="stop3741-6"
         style="stop-color:#ffffff;stop-opacity:0"
         offset="1" />
    </linearGradient>
    <clipPath
       id="clipPath3613">
      <rect
         width="84"
         height="84"
         rx="6"
         ry="6"
         x="6"
         y="6"
         id="rect3615"
         style="fill:#ffffff;fill-opacity:1;fill-rule:nonzero;stroke:none" />
    </clipPath>
    <linearGradient
       x1="48"
       y1="20.220806"
       x2="48"
       y2="138.66119"
       id="linearGradient2885"
       xlink:href="#linearGradient3737-6"
       gradientUnits="userSpaceOnUse" />
    <radialGradient
       cx="48"
       cy="41.752277"
       r="42"
       fx="48"
       fy="41.752277"
       id="radialGradient2977"
       xlink:href="#linearGradient3737-5"
       gradientUnits="userSpaceOnUse"
       gradientTransform="matrix(1.7146179,6.6254866e-8,-4.2857144e-8,1.1091053,-134.30166,-5.082394)" />
    <radialGradient
       cx="48"
       cy="90.171875"
       r="42"
       fx="48"
       fy="90.171875"
       id="radialGradient2855-1"
       xlink:href="#linearGradient3737-1-4"
       gradientUnits="userSpaceOnUse"
       gradientTransform="matrix(1.1573129,0,0,0.99590774,-7.551021,0.19713)" />
    <linearGradient
       id="linearGradient3737-1-4">
      <stop
         id="stop3739-7-1"
         style="stop-color:#ffffff;stop-opacity:1"
         offset="0" />
      <stop
         id="stop3741-2-0"
         style="stop-color:#ffffff;stop-opacity:0"
         offset="1" />
    </linearGradient>
    <linearGradient
       x1="36.357143"
       y1="6"
       x2="36.357143"
       y2="63.893143"
       id="linearGradient3188-9"
       xlink:href="#linearGradient3737-5"
       gradientUnits="userSpaceOnUse" />
    <linearGradient
       id="linearGradient3737-5">
      <stop
         id="stop3739-6"
         style="stop-color:#ffffff;stop-opacity:1"
         offset="0" />
      <stop
         id="stop3741-7"
         style="stop-color:#ffffff;stop-opacity:0"
         offset="1" />
    </linearGradient>
    <linearGradient
       id="linearGradient5226-7">
      <stop
         id="stop5228-2"
         style="stop-color:#227395;stop-opacity:1"
         offset="0" />
      <stop
         id="stop5230-4"
         style="stop-color:#44a2c9;stop-opacity:1"
         offset="1" />
    </linearGradient>
    <linearGradient
       id="linearGradient3424-7">
      <stop
         id="stop3426-4"
         style="stop-color:#ffffff;stop-opacity:1"
         offset="0" />
      <stop
         id="stop3432-0"
         style="stop-color:#ffffff;stop-opacity:1"
         offset="0.67213112" />
      <stop
         id="stop3428-2"
         style="stop-color:#ffffff;stop-opacity:0"
         offset="1" />
    </linearGradient>
    <filter
       color-interpolation-filters="sRGB"
       id="filter3434">
      <feGaussianBlur
         id="feGaussianBlur3436"
         stdDeviation="2.4779144" />
    </filter>
    <linearGradient
       id="linearGradient3700-1">
      <stop
         id="stop3702-4"
         style="stop-color:#2b91bc;stop-opacity:1"
         offset="0" />
      <stop
         id="stop3704-2"
         style="stop-color:#77bbd8;stop-opacity:1"
         offset="1" />
    </linearGradient>
    <filter
       x="-0.14399999"
       y="-0.14399999"
       width="1.288"
       height="1.288"
       color-interpolation-filters="sRGB"
       id="filter4123">
      <feGaussianBlur
         id="feGaussianBlur4125"
         stdDeviation="3.96" />
    </filter>
    <linearGradient
       x1="45.447727"
       y1="92.539597"
       x2="45.447727"
       y2="7.0165396"
       id="ButtonShadow-0"
       gradientUnits="userSpaceOnUse"
       gradientTransform="matrix(1.0058652,0,0,0.994169,100,0)">
      <stop
         id="stop3750-8"
         style="stop-color:#000000;stop-opacity:1"
         offset="0" />
      <stop
         id="stop3752-5"
         style="stop-color:#000000;stop-opacity:0.58823532"
         offset="1" />
    </linearGradient>
    <linearGradient
       x1="32.251034"
       y1="6.1317081"
       x2="32.251034"
       y2="90.238609"
       id="linearGradient3780"
       xlink:href="#ButtonShadow-0"
       gradientUnits="userSpaceOnUse"
       gradientTransform="matrix(1.0238095,0,0,1.0119048,-1.1428571,-98.071429)" />
    <linearGradient
       x1="32.251034"
       y1="6.1317081"
       x2="32.251034"
       y2="90.238609"
       id="linearGradient3772"
       xlink:href="#ButtonShadow-0"
       gradientUnits="userSpaceOnUse"
       gradientTransform="matrix(1.0238095,0,0,1.0119048,-1.1428571,-98.071429)" />
    <linearGradient
       x1="32.251034"
       y1="6.1317081"
       x2="32.251034"
       y2="90.238609"
       id="linearGradient3725"
       xlink:href="#ButtonShadow-0"
       gradientUnits="userSpaceOnUse"
       gradientTransform="matrix(1.0238095,0,0,1.0119048,-1.1428571,-98.071429)" />
    <linearGradient
       x1="32.251034"
       y1="6.1317081"
       x2="32.251034"
       y2="90.238609"
       id="linearGradient3721"
       xlink:href="#ButtonShadow-0"
       gradientUnits="userSpaceOnUse"
       gradientTransform="translate(0,-97)" />
    <linearGradient
       x1="32.251034"
       y1="6.1317081"
       x2="32.251034"
       y2="90.238609"
       id="linearGradient3071"
       xlink:href="#ButtonShadow-0"
       gradientUnits="userSpaceOnUse"
       gradientTransform="matrix(1.0238095,0,0,1.0119048,-1.1428571,-98.071429)" />
    <radialGradient
       cx="63.98003"
       cy="61.948856"
       r="58.01997"
       fx="63.98003"
       fy="61.948856"
       id="radialGradient4197"
       xlink:href="#linearGradient5226-7"
       gradientUnits="userSpaceOnUse"
       gradientTransform="matrix(1.090012,0,0,0.8408658,-21.739001,104.49175)" />
    <radialGradient
       cx="48"
       cy="46.582424"
       r="42"
       fx="48"
       fy="46.582424"
       id="radialGradient4200"
       xlink:href="#linearGradient3424-7"
       gradientUnits="userSpaceOnUse"
       gradientTransform="matrix(1,0,0,0.9665987,3.0413897e-8,111.55591)" />
    <linearGradient
       x1="48"
       y1="90"
       x2="48"
       y2="5.9877172"
       id="linearGradient4203"
       xlink:href="#linearGradient3700-1"
       gradientUnits="userSpaceOnUse"
       gradientTransform="translate(0,110)" />
    <radialGradient
       cx="63.98003"
       cy="61.948856"
       r="58.01997"
       fx="63.98003"
       fy="61.948856"
       id="radialGradient5232-9"
       xlink:href="#linearGradient3875"
       gradientUnits="userSpaceOnUse"
       gradientTransform="matrix(1.090012,0,0,0.84044811,-21.739002,-5.4878171)" />
    <linearGradient
       id="linearGradient3700-5-1">
      <stop
         id="stop3702-0-2"
         style="stop-color:#3781c6;stop-opacity:1"
         offset="0" />
      <stop
         id="stop3704-4-9"
         style="stop-color:#88b2db;stop-opacity:1"
         offset="1" />
    </linearGradient>
    <linearGradient
       x1="48"
       y1="90"
       x2="48"
       y2="5.9877172"
       id="linearGradient3345"
       xlink:href="#linearGradient3700-5-1"
       gradientUnits="userSpaceOnUse" />
    <linearGradient
       id="linearGradient3543">
      <stop
         id="stop3545"
         style="stop-color:#ffffff;stop-opacity:1"
         offset="0" />
      <stop
         id="stop3555"
         style="stop-color:#ffffff;stop-opacity:1"
         offset="0.30645162" />
      <stop
         id="stop3551"
         style="stop-color:#ffffff;stop-opacity:0.640625"
         offset="0.51899064" />
      <stop
         id="stop3547"
         style="stop-color:#ffffff;stop-opacity:0"
         offset="1" />
    </linearGradient>
    <radialGradient
       cx="74.375"
       cy="67.125"
       r="3.125"
       fx="74.375"
       fy="67.125"
       id="radialGradient3443"
       xlink:href="#linearGradient3543"
       gradientUnits="userSpaceOnUse" />
    <radialGradient
       cx="74.375"
       cy="67.125"
       r="3.125"
       fx="74.375"
       fy="67.125"
       id="radialGradient3445"
       xlink:href="#linearGradient3543"
       gradientUnits="userSpaceOnUse" />
    <radialGradient
       cx="74.375"
       cy="67.125"
       r="3.125"
       fx="74.375"
       fy="67.125"
       id="radialGradient3447"
       xlink:href="#linearGradient3543"
       gradientUnits="userSpaceOnUse" />
    <radialGradient
       cx="74.375"
       cy="67.125"
       r="3.125"
       fx="74.375"
       fy="67.125"
       id="radialGradient3449"
       xlink:href="#linearGradient3543"
       gradientUnits="userSpaceOnUse" />
    <radialGradient
       cx="74.375"
       cy="67.125"
       r="3.125"
       fx="74.375"
       fy="67.125"
       id="radialGradient3451"
       xlink:href="#linearGradient3543"
       gradientUnits="userSpaceOnUse" />
    <linearGradient
       id="linearGradient5226-0">
      <stop
         id="stop5228-7"
         style="stop-color:#ffffff;stop-opacity:1"
         offset="0" />
      <stop
         id="stop5230-6"
         style="stop-color:#ffffff;stop-opacity:0"
         offset="1" />
    </linearGradient>
    <radialGradient
       cx="74.375"
       cy="67.125"
       r="3.125"
       fx="74.375"
       fy="67.125"
       id="radialGradient3216"
       xlink:href="#linearGradient3543"
       gradientUnits="userSpaceOnUse" />
    <radialGradient
       cx="49.233551"
       cy="70.608253"
       r="25.483549"
       fx="49.233551"
       fy="70.608253"
       id="radialGradient4246"
       xlink:href="#linearGradient5226-0"
       gradientUnits="userSpaceOnUse"
       gradientTransform="matrix(0.46811249,-0.52911558,1.7948202,1.5821666,-112.03757,-37.344561)" />
    <radialGradient
       cx="63.875"
       cy="2.2173476"
       r="58.375"
       fx="63.875"
       fy="2.2173476"
       id="radialGradient4248"
       xlink:href="#linearGradient5226-0"
       gradientUnits="userSpaceOnUse"
       gradientTransform="matrix(1.0948456,0,0,0.33117465,-21.844872,32.792567)" />
    <radialGradient
       cx="69.75"
       cy="75.973572"
       r="58.5"
       fx="69.75"
       fy="75.973572"
       id="radialGradient4250"
       xlink:href="#linearGradient5226-0"
       gradientUnits="userSpaceOnUse"
       gradientTransform="matrix(2.2593878,-0.06832043,0.00797869,0.26385907,-105.95706,38.8624)" />
    <radialGradient
       cx="64.230392"
       cy="68.449158"
       r="43.769611"
       fx="64.230392"
       fy="68.449158"
       id="radialGradient4252"
       xlink:href="#linearGradient5226-0"
       gradientUnits="userSpaceOnUse"
       gradientTransform="matrix(1.4544425,0,0,0.92610887,-45.079796,-12.6013)" />
    <radialGradient
       cx="74.375"
       cy="67.125"
       r="3.125"
       fx="74.375"
       fy="67.125"
       id="radialGradient3354"
       xlink:href="#linearGradient3543"
       gradientUnits="userSpaceOnUse" />
    <linearGradient
       x1="11.998966"
       y1="0.92195445"
       x2="11.998966"
       y2="19.387045"
       id="linearGradient4121-9"
       gradientUnits="userSpaceOnUse"
       gradientTransform="scale(0.9219544,1.0846523)">
      <stop
         id="stop4123-7"
         style="stop-color:#313233;stop-opacity:1"
         offset="0" />
      <stop
         id="stop4125-7"
         style="stop-color:#23486a;stop-opacity:1"
         offset="1" />
    </linearGradient>
    <linearGradient
       x1="56"
       y1="16"
       x2="56"
       y2="80"
       id="linearGradient3175"
       xlink:href="#linearGradient4121-9"
       gradientUnits="userSpaceOnUse"
       gradientTransform="matrix(0.88281209,0,0,0.89965146,5.62502,13.562884)" />
    <linearGradient
       id="aa"
       stop-color="#fff6d5"
       y2="91.008003"
       gradientUnits="userSpaceOnUse"
       x2="52"
       gradientTransform="matrix(0.26356385,0,0,0.25415734,9.2693819,17.419996)"
       y1="28"
       x1="52">
      <stop
         offset="0"
         id="stop72" />
      <stop
         stop-opacity="0"
         offset="1"
         id="stop74" />
    </linearGradient>
    <linearGradient
       id="z"
       y2="6.6341"
       gradientUnits="userSpaceOnUse"
       x2="47.610001"
       gradientTransform="matrix(0.09648303,0,0,0.09303958,15.745632,23.66511)"
       y1="121.37"
       x1="47.610001">
      <stop
         stop-color="#ba0000"
         offset="0"
         id="stop77" />
      <stop
         stop-color="#ff331e"
         offset="1"
         id="stop79" />
    </linearGradient>
    <linearGradient
       id="y"
       stop-color="#fff"
       y2="84.889999"
       gradientUnits="userSpaceOnUse"
       x2="64.320999"
       gradientTransform="matrix(0.3087457,0,0,0.29772666,0.30834704,7.5878706)"
       y1="55.310001"
       x1="64.320999">
      <stop
         offset="0"
         id="stop82" />
      <stop
         stop-opacity="0"
         offset="1"
         id="stop84" />
    </linearGradient>
    <linearGradient
       inkscape:collect="always"
       xlink:href="#y"
       id="linearGradient3143"
       gradientUnits="userSpaceOnUse"
       gradientTransform="matrix(0.3087457,0,0,0.29772666,0.30834704,7.5878706)"
       x1="64.320999"
       y1="55.310001"
       x2="64.320999"
       y2="84.889999" />
    <linearGradient
       inkscape:collect="always"
       xlink:href="#z"
       id="linearGradient3145"
       gradientUnits="userSpaceOnUse"
       gradientTransform="matrix(0.09648303,0,0,0.09303958,15.745632,23.66511)"
       x1="47.610001"
       y1="121.37"
       x2="47.610001"
       y2="6.6341" />
    <linearGradient
       inkscape:collect="always"
       xlink:href="#aa"
       id="linearGradient3147"
       gradientUnits="userSpaceOnUse"
       gradientTransform="matrix(0.26356385,0,0,0.25415734,9.2693819,17.419996)"
       x1="52"
       y1="28"
       x2="52"
       y2="91.008003" />
  </defs>
  <metadata
     id="metadata2413">
    <rdf:RDF>
      <cc:Work
         rdf:about="">
        <dc:format>image/svg+xml</dc:format>
        <dc:type
           rdf:resource="http://purl.org/dc/dcmitype/StillImage" />
        <dc:title />
      </cc:Work>
    </rdf:RDF>
  </metadata>
  <g
     id="layer2"
     style="display:none">
    <rect
       width="86"
       height="85"
       rx="6"
       ry="6"
       x="5"
       y="7"
       id="rect3745"
       style="opacity:0.9;fill:url(#ButtonShadow);fill-opacity:1;fill-rule:nonzero;stroke:none;filter:url(#filter3174)" />
  </g>
  <g
     id="layer5"
     style="display:inline">
    <path
       d="m 12,-95.03125 c -5.5110903,0 -10.03125,4.52016 -10.03125,10.03125 l 0,71 c 0,5.5110902 4.5201598,10.03125 10.03125,10.03125 l 72,0 c 5.51109,0 10.03125,-4.5201597 10.03125,-10.03125 l 0,-71 c 0,-5.51109 -4.52016,-10.03125 -10.03125,-10.03125 l -72,0 z"
       transform="scale(1,-1)"
       id="path3786"
       style="opacity:0.07999998;fill:url(#linearGradient3071);fill-opacity:1;fill-rule:nonzero;stroke:none;display:inline" />
    <path
       d="m 12,-94.03125 c -4.971633,0 -9.03125,4.059617 -9.03125,9.03125 l 0,71 c 0,4.9716329 4.0596171,9.03125 9.03125,9.03125 l 72,0 c 4.971633,0 9.03125,-4.059617 9.03125,-9.03125 l 0,-71 c 0,-4.971633 -4.059617,-9.03125 -9.03125,-9.03125 l -72,0 z"
       transform="scale(1,-1)"
       id="path3778"
       style="opacity:0.1;fill:url(#linearGradient3780);fill-opacity:1;fill-rule:nonzero;stroke:none;display:inline" />
    <path
       d="m 12,-93 c -4.4091333,0 -8,3.590867 -8,8 l 0,71 c 0,4.4091333 3.5908667,8 8,8 l 72,0 c 4.409133,0 8,-3.5908667 8,-8 l 0,-71 c 0,-4.409133 -3.590867,-8 -8,-8 l -72,0 z"
       transform="scale(1,-1)"
       id="path3770"
       style="opacity:0.2;fill:url(#linearGradient3772);fill-opacity:1;fill-rule:nonzero;stroke:none;display:inline" />
    <rect
       width="86"
       height="85"
       rx="7"
       ry="7"
       x="5"
       y="-92"
       transform="scale(1,-1)"
       id="rect3723"
       style="opacity:0.3;fill:url(#linearGradient3725);fill-opacity:1;fill-rule:nonzero;stroke:none;display:inline" />
    <rect
       width="84"
       height="84"
       rx="6"
       ry="6"
       x="6"
       y="-91"
       transform="scale(1,-1)"
       id="rect3716"
       style="opacity:0.45;fill:url(#linearGradient3721);fill-opacity:1;fill-rule:nonzero;stroke:none;display:inline" />
  </g>
  <g
     id="layer1"
     style="display:inline">
    <rect
       width="84"
       height="84"
       rx="6"
       ry="6"
       x="6"
       y="6"
       id="rect2419-8"
       style="fill:url(#linearGradient3345);fill-opacity:1;fill-rule:nonzero;stroke:none;display:inline" />
    <path
       d="m -63.72611,6.0817017 c 1.65011,2.216692 0.11258,5.9183373 2.60147,5.8815913 1.2119,1.714016 -2.41545,0.511296 0.20359,1.832342 1.50611,1.186578 -1.59338,1.86454 0.27179,2.929374 -2.14969,1.109666 0.34845,5.803987 1.94512,6.978848 2.62796,2.213161 1.16221,-4.685722 4.0945,-5.044597 1.59336,-1.819699 4.39184,-2.987811 6.37927,-4.818381 -1.9423,-0.15774 -3.07646,-1.367135 -1.23703,-2.116304 3.38546,3.470394 0.84891,-1.643528 -1.02513,-2.4532403 1.81337,-0.577046 3.57698,-0.154481 3.32537,-1.65137 1.91632,-1.402516 -1.84226,-1.855344 -3.18394,-1.538263 -4.45834,0 -8.91668,0 -13.37501,0 z m -27.80185,1.447777 c -2.44976,0.698195 -2.62065,6.5548783 -0.15835,3.3027393 0.60434,-1.3353663 3.39707,-2.9446723 0.15835,-3.3027393 z m 11.44649,0.203593 c -1.41226,2.2153416 0.20491,3.9914993 1.37991,1.289427 0.83171,-1.128343 -0.61793,-1.248085 -1.37991,-1.289427 z m 3.52895,0.497674 c -2.72875,1.265212 -0.6726,4.2155643 -0.60506,4.8717383 2.87456,0.994829 4.47323,-0.650437 5.5607,2.161488 2.73516,1.576935 -0.0538,4.317061 -1.08055,5.030674 1.84934,-1.611189 5.40416,4.380481 4.47225,1.214924 -1.11178,-0.812076 2.98516,1.304563 0.85962,-1.334669 -1.95606,-3.152657 0.15527,-1.411414 0.97995,-0.675608 2.80489,-2.516097 -3.17359,-2.820214 -1.68121,-5.409578 -1.30776,-1.059583 -3.02289,-4.2694933 -5.33868,-3.642063 -1.55024,2.005564 -0.21416,-4.3699603 -2.48861,-1.1795633 -0.11789,1.7834153 -0.0429,4.0464553 -0.70571,0.9568243 -0.44407,-0.5408723 0.764,-1.7982983 0.0273,-1.9941673 z m -5.56489,0.022621 c -1.8316,0.610853 -1.73323,3.0865053 0.51896,3.3519113 0.77143,-0.879633 0.30649,-3.1853383 -0.51896,-3.3519113 z m -7.1484,0.791753 c -2.37908,0.563878 -1.40799,2.4828653 -0.67958,3.0233213 -2.94491,0.737923 4.4957,0.943126 0.79269,1.410494 -3.0808,1.230835 2.96666,2.680942 3.95876,1.221561 3.80439,0.930735 0.13691,-3.046545 -0.19704,-5.2025323 -1.61275,-1.731481 -0.0637,3.9915333 -1.52187,0.184408 -0.50878,1.1305433 -2.12652,0.166598 -2.35296,-0.637252 z m 75.60113,0.248837 c -3.19245,1.2498623 1.98418,5.9664343 0.69764,1.6754943 -0.12817,-0.518125 0.2882,-1.8871053 -0.69764,-1.6754943 z m -66.66563,1.9002053 c -2.29408,2.156707 2.91599,3.940201 -0.6589,5.546906 -0.53601,-2.002938 -1.45827,1.002105 -3.50346,-0.615417 -3.5159,1.464466 -5.31387,-0.762828 -8.25754,-2.28957 -1.76803,-0.220164 -1.10378,1.680533 -1.22088,3.460193 0,4.918306 0,9.836614 0,14.75492 1.73349,1.82448 0.67633,0.804976 0,0.301752 0.95147,3.241642 -0.41957,7.980231 3.33085,9.86583 0.63757,1.183033 3.31289,6.223076 3.43622,4.715046 -1.34121,-1.405066 -2.71735,-5.617387 -0.44789,-1.863024 2.03275,3.568795 4.77475,5.883507 8.78047,6.73276 2.19006,0.745225 3.99117,3.306965 5.91712,2.743325 1.08905,2.871967 -3.22742,5.629887 0.14491,8.308597 1.76052,2.7118 4.71619,4.4904 3.11596,8.29758 -1.11907,3.71826 -0.63992,7.76974 -1.60778,11.23409 -0.3004,2.10873 2.93803,7.46101 2.65747,3.17511 0.94557,-2.9784 0.92064,-6.25562 3.14758,-8.36483 3.04711,0.02413 0.58237,-3.27775 3.60701,-2.84642 1.84564,-2.42007 2.38023,-5.30712 5.49491,-6.26809 0.37204,-2.9376 5.17882,-7.43659 0.21313,-8.580318 -1.3496,-0.665451 -4.8245,-0.904732 -4.55895,-1.233078 0.53804,-2.914877 -4.49346,-3.744701 -6.63422,-4.937269 -2.81076,-1.995848 -7.03424,3.315594 -8.02452,-1.261025 -0.59087,-1.439948 -2.75132,-1.463301 -1.75843,-3.68521 -1.78939,1.780326 -5.28934,1.23924 -4.37303,-2.198916 1.39157,-2.895595 6.73564,-3.032599 7.64626,0.450282 -1.26435,-3.841203 2.44394,-6.83143 4.50253,-9.564217 0.41916,-1.3062 2.90974,-2.428425 2.05267,-0.692421 1.46016,-0.05269 3.6733,-2.688637 1.07941,-1.472012 -0.0367,-2.403896 -2.27297,-1.720272 -2.99799,-1.378934 1.34377,-2.133574 8.24499,-0.967127 5.3551,-4.454587 -2.23931,-0.907679 -2.05303,-6.204449 -4.318,-3.253597 0.19059,-1.818146 -4.61001,-5.377145 -4.50526,-2.328319 0.58599,2.728128 0.10714,5.870869 -1.13992,7.659113 -0.26025,-3.99762 -7.07568,-3.114085 -6.19943,-7.373995 1.26944,-2.030291 2.75285,-4.83791 2.89418,-4.585337 2.27505,-0.868941 4.10459,-3.396512 1.46783,-5.058122 -0.14091,1.448202 -1.98303,4.436139 -1.72366,0.822325 -1.70579,2.02318 -1.3162,-3.219407 -2.91375,-3.763121 z m 54.45,1.402533 c -3.99594,0.977838 -5.58006,4.795836 -7.55681,7.958163 -2.91386,1.314237 -2.80294,6.958318 0.45241,5.155674 0.87128,1.522277 -0.60951,3.921673 1.92831,1.931216 2.047,-2.709901 0.35794,-7.092756 3.84142,-8.801515 0.25373,1.32865 -3.21333,6.289871 0.837,5.474405 3.66156,0.138209 -2.66186,0.364969 -0.88101,2.704729 -1.85026,-1.098211 -0.88882,2.999333 -3.30397,2.045788 -2.09233,1.138533 -3.46434,-0.528629 -2.98503,-2.35496 -1.64596,0.960573 0.51769,3.67045 -2.33959,3.83331 -0.64004,2.273659 -5.90338,1.930962 -2.91021,4.246159 1.3289,3.445358 -4.95153,0.215986 -3.16853,4.35053 1.52545,4.088438 4.7224,-1.354722 6.01944,-2.406348 2.50247,-1.941872 6.21066,3.311089 3.95876,3.506335 2.52508,-0.338912 2.00619,-2.74125 -0.017,-3.671301 -1.09268,-2.834933 3.45903,1.390324 3.2066,2.811683 1.60594,3.008346 0.94461,-3.080088 2.57885,-0.384565 -0.1908,2.843378 6.57418,0.668556 3.34439,4.292415 -2.77687,0.559513 -5.51013,-0.716143 -7.90083,0.100926 -2.22511,-0.01969 -2.11347,-2.397964 -2.92358,-2.993542 -2.83037,0.23004 -6.32794,0.204027 -8.22277,2.491404 -2.04902,2.812343 -5.00383,6.743795 -2.77053,10.334807 2.23488,5.321462 7.77719,0.276028 10.96298,3.418767 0.94693,1.310381 -0.8206,2.868035 1.29671,4.287425 0.7967,3.02353 -0.90449,5.89433 1.05226,8.78464 1.01184,2.7182 1.63978,6.78664 5.40576,4.30281 3.98577,-2.39945 2.92416,-6.8227 6.21294,-9.27265 -2.60227,-5.038063 3.18363,-7.247103 4.62722,-11.337101 -3.15394,0.461909 -5.96377,-2.68376 -6.72579,-5.84994 -1.32493,-1.537885 -0.98367,-3.805502 0.49633,-0.916468 2.03426,1.971905 2.07822,7.823061 5.84127,4.813019 1.72035,-0.719835 6.41861,-3.465723 2.67511,-4.71532 -2.41304,1.748397 -5.07525,-5.224262 -1.53182,-1.179972 2.57604,1.093303 4.37998,1.744706 4.37998,-1.880149 0,-9.766125 0,-19.664578 0,-29.496868 -0.8024,0.82028 -2.8638,2.335242 -3.90428,1.328569 -1.79037,0.249406 -4.15389,3.734285 -3.59125,0.365539 -1.55624,-0.103093 -0.27859,3.020534 -2.41664,3.107891 -0.21529,1.605887 -2.15987,0.297377 -1.42943,1.822369 -1.50065,-1.064875 -2.77067,-4.427041 0.18614,-2.316729 4.39102,-1.317844 -2.8956,-4.290405 -3.45804,-5.008905 0.94545,-0.226615 -1.02861,-1.212248 -1.26681,-0.88224 z m -36.23967,0.88224 c -1.46151,1.2182 2.77853,1.447612 0,0 z m -19.52238,0.656023 c -1.63465,1.710504 2.60328,1.572448 0,0 z m 9.47842,1.696613 c -1.23787,2.028578 1.82903,0.748943 0,0 z m 27.10058,2.39788 c -1.44923,1.669078 -3.36205,-0.439263 -3.39323,0.995347 0.26265,0.433474 1.31468,3.527292 3.61944,1.244183 1.23699,-0.52171 0.74997,-1.836879 -0.22621,-2.23953 z m -30.85575,0.995347 c -2.74881,2.401478 4.6683,2.622741 0.58232,0.275426 l -0.58232,-0.275426 z m 36.26229,6.650724 c -1.97908,1.291041 0.94944,4.032808 -0.0431,5.320723 -1.2401,2.161465 4.60833,-0.152255 1.48462,-1.87676 -0.22257,-1.481616 -1.83002,-3.289356 -1.44154,-3.443963 z m -1.33466,2.601473 c -2.7574,0.779858 -0.62597,4.806237 0.35065,1.013998 0.055,-0.219858 0.12936,-1.021351 -0.35065,-1.013998 z m -22.07861,2.918175 c -2.56522,1.749832 -0.39843,3.496444 1.48156,2.709121 -0.38595,-1.055763 -1.46417,-1.720956 -1.48156,-2.709121 z m 48.4553,2.940797 c 1.27995,0.646198 -2.34553,1.750082 -0.0498,2.887358 1.33598,1.571671 0.83231,4.945457 -1.3392,2.557643 0.40344,-2.665992 -2.94356,-4.656978 1.38903,-5.445001 z m -6.58287,0.02262 c -0.17366,1.712793 3.69395,4.375139 -0.47504,3.506334 -2.20475,0.258725 -5.50697,-0.06739 -2.72943,-2.815681 0.87765,-0.527085 3.18206,1.818498 1.98292,-0.373952 0.42514,-0.02713 0.82107,-0.187672 1.22155,-0.316701 z m -12.73591,3.709927 c -1.60811,1.036413 1.11198,1.831121 0,0 z M -74.31299,47.7279 c -0.2711,0.904805 5.086,1.821755 1.38931,0.372149 l -0.55107,-0.194046 -0.83824,-0.178103 z m 4.16236,1.289426 c -1.62491,1.650213 3.34781,0.493017 0,0 z m 54.3369,15.133794 c -3.53072,0.09113 -3.06133,9.20159 -0.60013,3.81083 0.2334,-1.16979 1.1689,-2.71377 0.60013,-3.81083 z"
       inkscape:connector-curvature="0"
       id="path3522"
       style="opacity:0.2;fill:url(#radialGradient2977);fill-opacity:1;stroke:none;display:inline" />
    <rect
       width="84"
       height="84"
       rx="6"
       ry="6"
       x="6"
       y="116"
       id="rect2419-1"
       style="fill:url(#linearGradient4203);fill-opacity:1;fill-rule:nonzero;stroke:none" />
    <path
       d="m 36.273888,116.0817 c 1.650116,2.21669 0.112581,5.91834 2.601472,5.88159 1.2119,1.71402 -2.415455,0.5113 0.203594,1.83235 1.506105,1.18657 -1.593388,1.86454 0.27179,2.92937 -2.149689,1.10967 0.348443,5.80399 1.945119,6.97885 2.627954,2.21316 1.162204,-4.68572 4.094495,-5.0446 1.593359,-1.8197 4.391847,-2.98781 6.379273,-4.81838 -1.942301,-0.15774 -3.076464,-1.36714 -1.237028,-2.1163 3.385456,3.47039 0.848905,-1.64353 -1.025128,-2.45324 1.813361,-0.57705 3.576977,-0.15449 3.325361,-1.65137 1.916325,-1.40252 -1.842255,-1.85535 -3.183935,-1.53827 -4.458342,0 -8.916678,0 -13.375013,0 z m -27.8018524,1.44778 c -2.4497603,0.69819 -2.6206434,6.55488 -0.1583506,3.30274 0.6043433,-1.33537 3.397078,-2.94467 0.1583506,-3.30274 z m 11.4464914,0.20359 c -1.412257,2.21534 0.204915,3.9915 1.379912,1.28943 0.831709,-1.12834 -0.617926,-1.24809 -1.379912,-1.28943 z m 3.528956,0.49768 c -2.72875,1.26521 -0.672602,4.21556 -0.605059,4.87173 2.87456,0.99483 4.473227,-0.65043 5.560693,2.16149 2.73516,1.57694 -0.05382,4.31706 -1.080544,5.03068 1.849342,-1.61119 5.404158,4.38048 4.472249,1.21492 -1.11178,-0.81208 2.985161,1.30456 0.859619,-1.33467 -1.956059,-3.15266 0.155272,-1.41141 0.979953,-0.67561 2.804888,-2.51609 -3.173595,-2.82021 -1.681217,-5.40958 -1.307758,-1.05958 -3.02289,-4.26949 -5.33868,-3.64206 -1.550241,2.00557 -0.214153,-4.36996 -2.488605,-1.17956 -0.117891,1.78341 -0.04285,4.04645 -0.705711,0.95682 -0.444071,-0.54087 0.764001,-1.7983 0.0273,-1.99416 z m -5.564894,0.0226 c -1.8316,0.61085 -1.733228,3.0865 0.518957,3.35191 0.771435,-0.87964 0.306491,-3.18534 -0.518957,-3.35191 z m -7.148401,0.79175 c -2.3790789,0.56388 -1.4079923,2.48286 -0.679573,3.02332 -2.9449177,0.73792 4.495691,0.94313 0.792681,1.41049 -3.0807906,1.23084 2.966663,2.68095 3.958766,1.22156 3.804391,0.93074 0.136908,-3.04654 -0.19704,-5.20253 -1.612752,-1.73148 -0.06366,3.99154 -1.521869,0.18441 -0.508786,1.13054 -2.126527,0.1666 -2.352965,-0.63725 z m 75.601127,0.24884 c -3.192449,1.24986 1.98418,5.96643 0.697641,1.67549 -0.128164,-0.51813 0.288199,-1.88711 -0.697641,-1.67549 z m -66.665626,1.9002 c -2.29408,2.15671 2.915989,3.9402 -0.658895,5.54691 -0.536018,-2.00294 -1.458273,1.0021 -3.503464,-0.61542 -3.515899,1.46447 -5.313868,-0.76283 -8.2575357,-2.28957 -1.7680291,-0.22016 -1.1037806,1.68053 -1.220883,3.46019 0,4.91831 0,9.83662 0,14.75492 1.7334888,1.82448 0.6763288,0.80498 0,0.30175 0.9514666,3.24165 -0.4195722,7.98024 3.3308509,9.86584 0.6375636,1.18303 3.3128828,6.22307 3.4362208,4.71504 -1.341215,-1.40506 -2.717353,-5.61739 -0.447896,-1.86302 2.032755,3.56879 4.774749,5.8835 8.780477,6.73276 2.190057,0.74522 3.991169,3.30696 5.917116,2.74332 1.089051,2.87197 -3.227416,5.62989 0.144912,8.3086 1.760515,2.7118 4.716185,4.4904 3.11596,8.29758 -1.119073,3.71826 -0.639926,7.76974 -1.607786,11.23409 -0.300394,2.10873 2.938037,7.46101 2.65747,3.17511 0.945569,-2.9784 0.92064,-6.25562 3.147579,-8.36483 3.047115,0.0241 0.582377,-3.27775 3.60701,-2.84642 1.845644,-2.42007 2.380233,-5.30712 5.49491,-6.26809 0.372042,-2.9376 5.178821,-7.43659 0.213139,-8.58032 -1.349609,-0.66545 -4.824504,-0.90473 -4.55895,-1.23308 0.538034,-2.91487 -4.493466,-3.7447 -6.634228,-4.93727 -2.810759,-1.99584 -7.034237,3.3156 -8.024515,-1.26102 -0.590876,-1.43995 -2.751326,-1.4633 -1.758429,-3.68521 -1.789388,1.78033 -5.289343,1.23924 -4.373033,-2.19892 1.39157,-2.89559 6.735639,-3.0326 7.64626,0.45029 -1.264352,-3.84121 2.443938,-6.83144 4.502527,-9.56422 0.419165,-1.3062 2.909742,-2.42843 2.052679,-0.69242 1.460154,-0.0527 3.673291,-2.68864 1.079407,-1.47202 -0.03668,-2.40389 -2.272976,-1.72027 -2.997994,-1.37893 1.34377,-2.13357 8.24499,-0.96713 5.355098,-4.45459 -2.239305,-0.90768 -2.053024,-6.20445 -4.317999,-3.25359 0.190595,-1.81815 -4.610012,-5.37715 -4.505255,-2.32832 0.585986,2.72813 0.107133,5.87087 -1.139926,7.65911 -0.260245,-3.99762 -7.075678,-3.11408 -6.199423,-7.37399 1.26944,-2.03029 2.752851,-4.83791 2.894179,-4.58534 2.275048,-0.86894 4.104591,-3.39651 1.46783,-5.05812 -0.140917,1.4482 -1.98303,4.43614 -1.72366,0.82232 -1.705794,2.02318 -1.316199,-3.21941 -2.913753,-3.76312 z m 54.450004,1.40253 c -3.995941,0.97784 -5.580067,4.79584 -7.556815,7.95817 -2.913853,1.31423 -2.802938,6.95832 0.452411,5.15567 0.87128,1.52228 -0.609505,3.92167 1.928313,1.93122 2.046994,-2.7099 0.357939,-7.09276 3.841419,-8.80152 0.253727,1.32865 -3.213334,6.28987 0.836994,5.47441 3.66156,0.13821 -2.661851,0.36497 -0.881001,2.70473 -1.850264,-1.09821 -0.888827,2.99933 -3.303976,2.04578 -2.092333,1.13854 -3.464338,-0.52862 -2.985033,-2.35496 -1.645958,0.96058 0.517696,3.67045 -2.339585,3.83331 -0.640044,2.27366 -5.903378,1.93097 -2.910208,4.24616 1.328901,3.44536 -4.95153,0.21599 -3.16853,4.35053 1.525447,4.08844 4.722394,-1.35472 6.019433,-2.40634 2.502474,-1.94188 6.210661,3.31108 3.958763,3.50633 2.525083,-0.33891 2.006191,-2.74125 -0.01696,-3.6713 -1.092676,-2.83493 3.459035,1.39032 3.206601,2.81168 1.605944,3.00835 0.944615,-3.08009 2.578854,-0.38456 -0.190808,2.84338 6.574181,0.66855 3.344389,4.29241 -2.776877,0.55952 -5.510134,-0.71614 -7.900831,0.10093 -2.22511,-0.0197 -2.113469,-2.39797 -2.923585,-2.99354 -2.830365,0.23004 -6.327933,0.20402 -8.222767,2.4914 -2.049016,2.81234 -5.00383,6.7438 -2.770526,10.33481 2.234877,5.32146 7.777183,0.27603 10.962975,3.41876 0.946936,1.31039 -0.820594,2.86804 1.296711,4.28743 0.796704,3.02353 -0.904488,5.89433 1.052264,8.78464 1.011837,2.7182 1.639779,6.78664 5.40576,4.30281 3.985771,-2.39945 2.924161,-6.8227 6.212939,-9.27265 -2.60227,-5.03806 3.183628,-7.2471 4.627218,-11.3371 -3.153943,0.46191 -5.963772,-2.68376 -6.725787,-5.84994 -1.324936,-1.53789 -0.983676,-3.8055 0.496326,-0.91647 2.034259,1.97191 2.078217,7.82306 5.841274,4.81302 1.720349,-0.71984 6.418604,-3.46572 2.675109,-4.71532 -2.413043,1.7484 -5.075252,-5.22426 -1.531819,-1.17997 C 88.196064,156.6505 90,157.3019 90,153.67705 c 0,-9.76613 0,-19.66458 0,-29.49687 -0.802399,0.82028 -2.863802,2.33524 -3.904284,1.32857 -1.790368,0.24941 -4.153886,3.73428 -3.59125,0.36554 -1.556235,-0.10309 -0.278581,3.02053 -2.416637,3.10789 -0.215289,1.60589 -2.159868,0.29738 -1.429431,1.82237 -1.500645,-1.06488 -2.770669,-4.42704 0.186146,-2.31673 4.391021,-1.31784 -2.895608,-4.29041 -3.458045,-5.00891 0.945455,-0.22661 -1.028609,-1.21224 -1.266806,-0.88224 z m -36.239676,0.88224 c -1.461507,1.2182 2.778528,1.44762 0,0 z m -19.522376,0.65603 c -1.634652,1.7105 2.603281,1.57244 0,0 z m 9.478418,1.69661 c -1.237867,2.02858 1.829027,0.74894 0,0 z m 27.100586,2.39788 c -1.449235,1.66908 -3.362051,-0.43926 -3.39323,0.99535 0.262642,0.43347 1.314671,3.52729 3.619439,1.24418 1.236985,-0.52171 0.749963,-1.83688 -0.226209,-2.23953 z m -30.855759,0.99535 c -2.748806,2.40147 4.668304,2.62274 0.582324,0.27542 l -0.582324,-0.27542 z m 36.262298,6.65072 c -1.979083,1.29104 0.949434,4.03281 -0.04308,5.32072 -1.240104,2.16147 4.608325,-0.15225 1.484614,-1.87676 -0.222564,-1.48161 -1.830018,-3.28935 -1.441539,-3.44396 z m -1.334668,2.60147 c -2.757392,0.77986 -0.625964,4.80624 0.350657,1.014 0.05497,-0.21986 0.12936,-1.02135 -0.350657,-1.014 z m -22.078603,2.91818 c -2.565224,1.74983 -0.39843,3.49644 1.481561,2.70912 -0.385959,-1.05576 -1.46417,-1.72096 -1.481561,-2.70912 z m 48.455298,2.9408 c 1.279946,0.64619 -2.345536,1.75008 -0.04983,2.88736 1.335978,1.57167 0.832312,4.94545 -1.339202,2.55764 0.403442,-2.66599 -2.943559,-4.65698 1.389033,-5.445 z m -6.582867,0.0226 c -0.173666,1.71279 3.69395,4.37514 -0.475048,3.50633 -2.204744,0.25873 -5.506966,-0.0674 -2.729423,-2.81568 0.87765,-0.52709 3.182055,1.8185 1.982912,-0.37395 0.42514,-0.0271 0.821079,-0.18767 1.221559,-0.3167 z m -12.735913,3.70992 c -1.608116,1.03642 1.111982,1.83112 0,0 z m -40.379417,9.65939 c -0.271103,0.90481 5.085991,1.82176 1.389301,0.37215 l -0.551068,-0.19405 -0.838233,-0.1781 z m 4.16236,1.28943 c -1.624915,1.65021 3.347807,0.49301 0,0 z m 54.336901,15.13379 c -3.530727,0.0911 -3.061331,9.20159 -0.600138,3.81083 0.233406,-1.16979 1.168903,-2.71377 0.600138,-3.81083 z"
       inkscape:connector-curvature="0"
       id="path4119"
       style="fill:url(#radialGradient4200);fill-opacity:1;stroke:none;display:inline;filter:url(#filter3434)" />
    <path
       d="m 36.273888,116.0817 c 1.650116,2.21669 0.112581,5.91834 2.601472,5.88159 1.2119,1.71402 -2.415455,0.5113 0.203594,1.83235 1.506105,1.18657 -1.593388,1.86454 0.27179,2.92937 -2.149689,1.10967 0.348443,5.80399 1.945119,6.97885 2.627954,2.21316 1.162204,-4.68572 4.094495,-5.0446 1.593359,-1.8197 4.391847,-2.98781 6.379273,-4.81838 -1.942301,-0.15774 -3.076464,-1.36714 -1.237028,-2.1163 3.385456,3.47039 0.848905,-1.64353 -1.025128,-2.45324 1.813361,-0.57705 3.576977,-0.15449 3.325361,-1.65137 1.916325,-1.40252 -1.842255,-1.85535 -3.183935,-1.53827 -4.458342,0 -8.916678,0 -13.375013,0 z m -27.801852,1.44778 c -2.449761,0.69819 -2.620644,6.55488 -0.158351,3.30274 0.604343,-1.33537 3.397078,-2.94467 0.158351,-3.30274 z m 11.446491,0.20359 c -1.412257,2.21534 0.204915,3.9915 1.379912,1.28943 0.831709,-1.12834 -0.617926,-1.24809 -1.379912,-1.28943 z m 3.528956,0.49768 c -2.72875,1.26521 -0.672602,4.21556 -0.605059,4.87173 2.87456,0.99483 4.473227,-0.65043 5.560693,2.16149 2.73516,1.57694 -0.05382,4.31706 -1.080544,5.03068 1.849342,-1.61119 5.404158,4.38048 4.472249,1.21492 -1.11178,-0.81208 2.985161,1.30456 0.859619,-1.33467 -1.956059,-3.15266 0.155272,-1.41141 0.979953,-0.67561 2.804888,-2.51609 -3.173595,-2.82021 -1.681217,-5.40958 -1.307758,-1.05958 -3.02289,-4.26949 -5.33868,-3.64206 -1.550241,2.00557 -0.214153,-4.36996 -2.488605,-1.17956 -0.117891,1.78341 -0.04285,4.04645 -0.705711,0.95682 -0.444071,-0.54087 0.764001,-1.7983 0.0273,-1.99416 z m -5.564894,0.0226 c -1.8316,0.61085 -1.733228,3.0865 0.518957,3.35191 0.771435,-0.87964 0.306491,-3.18534 -0.518957,-3.35191 z m -7.148401,0.79175 c -2.379079,0.56388 -1.407992,2.48286 -0.679573,3.02332 -2.944918,0.73792 4.495691,0.94313 0.792681,1.41049 -3.080791,1.23084 2.966663,2.68095 3.958766,1.22156 3.804391,0.93074 0.136908,-3.04654 -0.19704,-5.20253 -1.612752,-1.73148 -0.06366,3.99154 -1.521869,0.18441 -0.508786,1.13054 -2.126527,0.1666 -2.352965,-0.63725 z m 75.601127,0.24884 c -3.192449,1.24986 1.98418,5.96643 0.697641,1.67549 -0.128164,-0.51813 0.288199,-1.88711 -0.697641,-1.67549 z m -66.665626,1.9002 c -2.29408,2.15671 2.915989,3.9402 -0.658895,5.54691 -0.536018,-2.00294 -1.458273,1.0021 -3.503464,-0.61542 -3.515899,1.46447 -5.313868,-0.76283 -8.257536,-2.28957 -1.768029,-0.22016 -1.10378,1.68053 -1.220883,3.46019 0,4.91831 0,9.83662 0,14.75492 1.733489,1.82448 0.676329,0.80498 0,0.30175 0.951467,3.24165 -0.419572,7.98024 3.330851,9.86584 0.637564,1.18303 3.312883,6.22307 3.436221,4.71504 -1.341215,-1.40506 -2.717353,-5.61739 -0.447896,-1.86302 2.032755,3.56879 4.774749,5.8835 8.780477,6.73276 2.190057,0.74522 3.991169,3.30696 5.917116,2.74332 1.089051,2.87197 -3.227416,5.62989 0.144912,8.3086 1.760515,2.7118 4.716185,4.4904 3.11596,8.29758 -1.119073,3.71826 -0.639926,7.76974 -1.607786,11.23409 -0.300394,2.10873 2.938037,7.46101 2.65747,3.17511 0.945569,-2.9784 0.92064,-6.25562 3.147579,-8.36483 3.047115,0.0241 0.582377,-3.27775 3.60701,-2.84642 1.845644,-2.42007 2.380233,-5.30712 5.49491,-6.26809 0.372042,-2.9376 5.178821,-7.43659 0.213139,-8.58032 -1.349609,-0.66545 -4.824504,-0.90473 -4.55895,-1.23308 0.538034,-2.91487 -4.493466,-3.7447 -6.634228,-4.93727 -2.810759,-1.99584 -7.034237,3.3156 -8.024515,-1.26102 -0.590876,-1.43995 -2.751326,-1.4633 -1.758429,-3.68521 -1.789388,1.78033 -5.289343,1.23924 -4.373033,-2.19892 1.39157,-2.89559 6.735639,-3.0326 7.64626,0.45029 -1.264352,-3.84121 2.443938,-6.83144 4.502527,-9.56422 0.419165,-1.3062 2.909742,-2.42843 2.052679,-0.69242 1.460154,-0.0527 3.673291,-2.68864 1.079407,-1.47202 -0.03668,-2.40389 -2.272976,-1.72027 -2.997994,-1.37893 1.34377,-2.13357 8.24499,-0.96713 5.355098,-4.45459 -2.239305,-0.90768 -2.053024,-6.20445 -4.317999,-3.25359 0.190595,-1.81815 -4.610012,-5.37715 -4.505255,-2.32832 0.585986,2.72813 0.107133,5.87087 -1.139926,7.65911 -0.260245,-3.99762 -7.075678,-3.11408 -6.199423,-7.37399 1.26944,-2.0303 2.752851,-4.83791 2.894179,-4.58534 2.275048,-0.86894 4.104591,-3.39651 1.46783,-5.05812 -0.140917,1.4482 -1.98303,4.43614 -1.72366,0.82232 -1.705794,2.02318 -1.316199,-3.21941 -2.913753,-3.76312 z m 54.450004,1.40253 c -3.995941,0.97784 -5.580067,4.79584 -7.556815,7.95817 -2.913853,1.31423 -2.802938,6.95832 0.452411,5.15567 0.87128,1.52228 -0.609505,3.92167 1.928313,1.93122 2.046994,-2.7099 0.357939,-7.09276 3.841419,-8.80152 0.253727,1.32865 -3.213334,6.28987 0.836994,5.47441 3.66156,0.13821 -2.661851,0.36497 -0.881001,2.70473 -1.850264,-1.09821 -0.888827,2.99933 -3.303976,2.04578 -2.092333,1.13854 -3.464338,-0.52862 -2.985033,-2.35496 -1.645958,0.96058 0.517696,3.67045 -2.339585,3.83331 -0.640044,2.27366 -5.903378,1.93097 -2.910208,4.24616 1.328901,3.44536 -4.95153,0.21599 -3.16853,4.35053 1.525447,4.08844 4.722394,-1.35472 6.019433,-2.40634 2.502474,-1.94188 6.210661,3.31108 3.958763,3.50633 2.525083,-0.33891 2.006191,-2.74125 -0.01696,-3.6713 -1.092676,-2.83493 3.459035,1.39032 3.206601,2.81168 1.605944,3.00835 0.944615,-3.08009 2.578854,-0.38456 -0.190808,2.84338 6.574181,0.66855 3.344389,4.29241 -2.776877,0.55952 -5.510134,-0.71614 -7.900831,0.10093 -2.22511,-0.0197 -2.113469,-2.39797 -2.923585,-2.99354 -2.830365,0.23004 -6.327933,0.20402 -8.222767,2.4914 -2.049016,2.81234 -5.00383,6.7438 -2.770526,10.33481 2.234877,5.32146 7.777183,0.27603 10.962975,3.41876 0.946936,1.31039 -0.820594,2.86804 1.296711,4.28743 0.796704,3.02353 -0.904488,5.89433 1.052264,8.78464 1.011837,2.7182 1.639779,6.78664 5.40576,4.30281 3.985771,-2.39945 2.924161,-6.8227 6.212939,-9.27265 -2.60227,-5.03806 3.183628,-7.2471 4.627218,-11.3371 -3.153943,0.46191 -5.963772,-2.68376 -6.725787,-5.84994 -1.324936,-1.53789 -0.983676,-3.8055 0.496326,-0.91647 2.034259,1.97191 2.078217,7.82306 5.841274,4.81302 1.720349,-0.71984 6.418604,-3.46572 2.675109,-4.71532 -2.413043,1.7484 -5.075252,-5.22426 -1.531819,-1.17997 C 88.196064,156.6505 90,157.3019 90,153.67705 c 0,-9.76613 0,-19.66458 0,-29.49687 -0.802399,0.82028 -2.863802,2.33524 -3.904284,1.32857 -1.790368,0.24941 -4.153886,3.73428 -3.59125,0.36554 -1.556235,-0.10309 -0.278581,3.02053 -2.416637,3.10789 -0.215289,1.60589 -2.159868,0.29738 -1.429431,1.82237 -1.500645,-1.06488 -2.770669,-4.42704 0.186146,-2.31673 4.391021,-1.31784 -2.895608,-4.29041 -3.458045,-5.00891 0.945455,-0.22661 -1.028609,-1.21224 -1.266806,-0.88224 z m -36.239676,0.88224 c -1.461507,1.2182 2.778528,1.44762 0,0 z m -19.522376,0.65603 c -1.634652,1.7105 2.603281,1.57244 0,0 z m 9.478418,1.69661 c -1.237867,2.02858 1.829027,0.74894 0,0 z m 27.100586,2.39788 c -1.449235,1.66908 -3.362051,-0.43926 -3.39323,0.99535 0.262642,0.43347 1.314671,3.52729 3.619439,1.24418 1.236985,-0.52171 0.749963,-1.83688 -0.226209,-2.23953 z m -30.855759,0.99535 c -2.748806,2.40147 4.668304,2.62274 0.582324,0.27542 l -0.582324,-0.27542 z m 36.262298,6.65072 c -1.979083,1.29104 0.949434,4.03281 -0.04308,5.32072 -1.240104,2.16147 4.608325,-0.15225 1.484614,-1.87675 -0.222564,-1.48162 -1.830018,-3.28936 -1.441539,-3.44397 z m -1.334668,2.60147 c -2.757392,0.77986 -0.625964,4.80624 0.350657,1.014 0.05497,-0.21986 0.12936,-1.02135 -0.350657,-1.014 z m -22.078603,2.91818 c -2.565224,1.74983 -0.39843,3.49644 1.481561,2.70912 -0.385959,-1.05576 -1.46417,-1.72096 -1.481561,-2.70912 z m 48.455298,2.9408 c 1.279946,0.64619 -2.345536,1.75008 -0.04983,2.88736 1.335978,1.57167 0.832312,4.94545 -1.339202,2.55764 0.403442,-2.66599 -2.943559,-4.65698 1.389033,-5.445 z m -6.582867,0.0226 c -0.173666,1.71279 3.69395,4.37514 -0.475048,3.50633 -2.204744,0.25873 -5.506966,-0.0674 -2.729423,-2.81568 0.87765,-0.52709 3.182055,1.8185 1.982912,-0.37395 0.42514,-0.0271 0.821079,-0.18767 1.221559,-0.3167 z m -12.735913,3.70992 c -1.608116,1.03642 1.111982,1.83112 0,0 z m -40.379417,9.65939 c -0.271103,0.90481 5.085991,1.82176 1.389301,0.37215 l -0.551068,-0.19405 -0.838233,-0.1781 z m 4.16236,1.28943 c -1.624915,1.65021 3.347807,0.49301 0,0 z m 54.336901,15.13379 c -3.530727,0.0911 -3.061331,9.20159 -0.600138,3.81083 0.233406,-1.16979 1.168903,-2.71377 0.600138,-3.81083 z"
       inkscape:connector-curvature="0"
       id="path3522-3"
       style="fill:url(#radialGradient4197);fill-opacity:1;stroke:none;display:inline" />
    <path
       d="m 12,6.0000002 c -3.324,0 -6,2.676 -6,5.9999998 l 0,2 0,68 0,2 c 0,0.334721 0.04135,0.6507 0.09375,0.96875 0.0487,0.295596 0.09704,0.596915 0.1875,0.875 0.00988,0.03038 0.020892,0.0636 0.03125,0.09375 0.098865,0.287771 0.2348802,0.547452 0.375,0.8125 0.1445918,0.273507 0.3156161,0.535615 0.5,0.78125 0.1843839,0.245635 0.3737765,0.473472 0.59375,0.6875 0.439947,0.428056 0.94291,0.814526 1.5,1.09375 0.278545,0.139612 0.5734731,0.246947 0.875,0.34375 -0.2562018,-0.100222 -0.4867109,-0.236272 -0.71875,-0.375 -0.00741,-0.0044 -0.023866,0.0045 -0.03125,0 -0.031933,-0.0193 -0.062293,-0.04251 -0.09375,-0.0625 -0.120395,-0.0767 -0.2310226,-0.163513 -0.34375,-0.25 -0.1061728,-0.0808 -0.2132809,-0.161112 -0.3125,-0.25 C 8.4783201,88.557317 8.3087904,88.373362 8.15625,88.1875 8.0486711,88.057245 7.9378561,87.922215 7.84375,87.78125 7.818661,87.74287 7.805304,87.69538 7.78125,87.65625 7.716487,87.553218 7.6510225,87.451733 7.59375,87.34375 7.4927417,87.149044 7.3880752,86.928049 7.3125,86.71875 7.30454,86.69694 7.288911,86.6782 7.28125,86.65625 7.249425,86.5643 7.245445,86.469419 7.21875,86.375 7.188418,86.268382 7.148361,86.171969 7.125,86.0625 7.052121,85.720988 7,85.364295 7,85 L 7,83 7,15 7,13 C 7,10.218152 9.2181517,8.0000002 12,8.0000002 l 2,0 68,0 2,0 c 2.781848,0 5,2.2181518 5,4.9999998 l 0,2 0,68 0,2 c 0,0.364295 -0.05212,0.720988 -0.125,1.0625 -0.04415,0.206893 -0.08838,0.397658 -0.15625,0.59375 -0.0077,0.02195 -0.0233,0.04069 -0.03125,0.0625 -0.06274,0.173739 -0.138383,0.367449 -0.21875,0.53125 -0.04158,0.0828 -0.07904,0.169954 -0.125,0.25 -0.0546,0.09721 -0.126774,0.18835 -0.1875,0.28125 -0.09411,0.140965 -0.204921,0.275995 -0.3125,0.40625 -0.143174,0.17445 -0.303141,0.346998 -0.46875,0.5 -0.01117,0.0102 -0.01998,0.02115 -0.03125,0.03125 -0.138386,0.125556 -0.285091,0.234436 -0.4375,0.34375 -0.102571,0.07315 -0.204318,0.153364 -0.3125,0.21875 -0.0074,0.0045 -0.02384,-0.0044 -0.03125,0 -0.232039,0.138728 -0.462548,0.274778 -0.71875,0.375 0.301527,-0.0968 0.596455,-0.204138 0.875,-0.34375 0.55709,-0.279224 1.060053,-0.665694 1.5,-1.09375 0.219973,-0.214028 0.409366,-0.441865 0.59375,-0.6875 0.184384,-0.245635 0.355408,-0.507743 0.5,-0.78125 0.14012,-0.265048 0.276135,-0.524729 0.375,-0.8125 0.01041,-0.03078 0.02133,-0.06274 0.03125,-0.09375 0.09046,-0.278085 0.1388,-0.579404 0.1875,-0.875 C 89.95865,84.6507 90,84.334721 90,84 l 0,-2 0,-68 0,-2 C 90,8.6760002 87.324,6.0000002 84,6.0000002 l -72,0 z"
       inkscape:connector-curvature="0"
       id="rect3728"
       style="opacity:0.35;fill:url(#linearGradient3188-9);fill-opacity:1;fill-rule:nonzero;stroke:none" />
    <path
       d="M 12,90 C 8.676,90 6,87.324 6,84 L 6,82 6,14 6,12 c 0,-0.33472 0.04135,-0.6507 0.09375,-0.96875 0.0487,-0.2956 0.09704,-0.59691 0.1875,-0.875 0.00988,-0.0304 0.020892,-0.0636 0.03125,-0.0937 C 6.411365,9.77478 6.5473802,9.5151 6.6875,9.25005 6.8320918,8.97654 7.0031161,8.71443 7.1875,8.4688 7.3718839,8.22317 7.5612765,7.99533 7.78125,7.7813 8.221197,7.35324 8.72416,6.96677 9.28125,6.68755 9.559795,6.54794 9.8547231,6.4406 10.15625,6.3438 9.9000482,6.44402 9.6695391,6.58007 9.4375,6.7188 9.43009,6.7228 9.413634,6.7148 9.40625,6.7188 9.374317,6.7381 9.343957,6.7613 9.3125,6.7813 9.192105,6.858 9.0814774,6.94481 8.96875,7.0313 8.8625772,7.1121 8.7554691,7.19241 8.65625,7.2813 8.4783201,7.44273 8.3087904,7.62669 8.15625,7.81255 8.0486711,7.94281 7.9378561,8.07784 7.84375,8.2188 7.818661,8.2572 7.805304,8.3047 7.78125,8.3438 7.716487,8.44683 7.6510225,8.54832 7.59375,8.6563 7.4927417,8.85101 7.3880752,9.072 7.3125,9.2813 7.30454,9.3031 7.288911,9.3218 7.28125,9.3438 7.249425,9.4357 7.245445,9.53063 7.21875,9.62505 7.188418,9.73167 7.148361,9.82808 7.125,9.93755 7.052121,10.27901 7,10.63571 7,11 l 0,2 0,68 0,2 c 0,2.78185 2.2181517,5 5,5 l 2,0 68,0 2,0 c 2.781848,0 5,-2.21815 5,-5 l 0,-2 0,-68 0,-2 C 89,10.63571 88.94788,10.27901 88.875,9.9375 88.83085,9.73061 88.78662,9.53984 88.71875,9.34375 88.71105,9.32175 88.69545,9.30305 88.6875,9.28125 88.62476,9.10751 88.549117,8.9138 88.46875,8.75 88.42717,8.6672 88.38971,8.58005 88.34375,8.5 88.28915,8.4028 88.216976,8.31165 88.15625,8.21875 88.06214,8.07779 87.951329,7.94276 87.84375,7.8125 87.700576,7.63805 87.540609,7.4655 87.375,7.3125 87.36383,7.3023 87.35502,7.2913 87.34375,7.2813 87.205364,7.15574 87.058659,7.04686 86.90625,6.93755 86.803679,6.86445 86.701932,6.78419 86.59375,6.7188 c -0.0074,-0.004 -0.02384,0.004 -0.03125,0 -0.232039,-0.13873 -0.462548,-0.27478 -0.71875,-0.375 0.301527,0.0968 0.596455,0.20414 0.875,0.34375 0.55709,0.27922 1.060053,0.66569 1.5,1.09375 0.219973,0.21403 0.409366,0.44187 0.59375,0.6875 0.184384,0.24563 0.355408,0.50774 0.5,0.78125 0.14012,0.26505 0.276135,0.52473 0.375,0.8125 0.01041,0.0308 0.02133,0.0627 0.03125,0.0937 0.09046,0.27809 0.1388,0.5794 0.1875,0.875 C 89.95865,11.3493 90,11.66528 90,12 l 0,2 0,68 0,2 c 0,3.324 -2.676,6 -6,6 l -72,0 z"
       inkscape:connector-curvature="0"
       id="path3615"
       style="opacity:0.25;fill:url(#radialGradient2855-1);fill-opacity:1;fill-rule:nonzero;stroke:none" />
    <path
       d="m 36.27388,6.096377 c 1.65012,2.2155912 0.11259,5.915398 2.60148,5.878671 1.2119,1.713164 -2.41545,0.511042 0.2036,1.831432 1.5061,1.185988 -1.5934,1.863613 0.27178,2.927919 -2.14968,1.109114 0.34844,5.801103 1.94512,6.97538 2.62795,2.212061 1.1622,-4.683394 4.0945,-5.04209 1.59336,-1.818795 4.39184,-2.986327 6.37927,-4.815989 -1.9423,-0.15766 -3.07647,-1.366454 -1.23702,-2.115252 3.38545,3.468671 0.8489,-1.642711 -1.02514,-2.452023 1.81336,-0.5767594 3.57698,-0.154404 3.32537,-1.6505493 1.91632,-1.4018192 -1.84226,-1.8544226 -3.18394,-1.5374987 -4.45834,0 -8.91667,0 -13.37502,0 z M 8.472035,7.5434349 C 6.022275,8.2412831 5.851393,14.095058 8.313685,10.844535 8.918028,9.50983 11.710762,7.901324 8.472035,7.5434349 z M 19.918529,7.746927 c -1.41226,2.214241 0.204911,3.989518 1.379911,1.288786 0.83171,-1.1277826 -0.617931,-1.2474651 -1.379911,-1.288786 z m 3.528951,0.4974263 c -2.728751,1.2645837 -0.6726,4.2134717 -0.60506,4.8693197 2.87457,0.994334 4.47323,-0.650114 5.56069,2.160413 2.73516,1.576152 -0.0538,4.314918 -1.08054,5.028176 1.84934,-1.610389 5.40416,4.378304 4.47226,1.214321 -1.11179,-0.811673 2.98515,1.303915 0.85962,-1.334006 -1.95607,-3.151091 0.15527,-1.410713 0.97995,-0.675273 2.80488,-2.514847 -3.1736,-2.818813 -1.68123,-5.40689 C 30.64542,13.041357 28.93028,9.83304 26.6145,10.46016 25.06426,12.464727 26.40035,6.0923691 24.12589,9.281181 c -0.11789,1.782531 -0.0429,4.044447 -0.70571,0.956351 -0.44407,-0.540606 0.764,-1.7974072 0.0273,-1.9931787 z m -5.56489,0.022612 C 16.050988,8.8775146 16.149361,11.351938 18.401546,11.617212 19.17298,10.738016 18.70804,8.4334551 17.88259,8.2669652 z M 10.734187,9.058325 c -2.379078,0.563598 -1.407992,2.481632 -0.679572,3.02182 -2.944918,0.737557 4.49569,0.942657 0.79268,1.409793 -3.08079,1.230224 2.966663,2.67961 3.958767,1.220954 3.804388,0.930273 0.136908,-3.045031 -0.197041,-5.199948 -1.612752,-1.7306215 -0.06365,3.989551 -1.521868,0.184316 -0.508787,1.129983 -2.126528,0.166515 -2.352966,-0.636935 z M 86.33531,9.307037 c -3.19244,1.249243 1.98418,5.963472 0.69765,1.674664 -0.12817,-0.517868 0.28819,-1.886169 -0.69765,-1.674664 z M 19.66969,11.2063 c -2.294083,2.155636 2.91599,3.938244 -0.658894,5.54415 -0.53602,-2.001942 -1.458276,1.001608 -3.503467,-0.615111 -3.515899,1.46374 -5.313868,-0.762449 -8.257534,-2.288432 -1.768029,-0.220055 -1.103781,1.679698 -1.220884,3.458474 0,4.915862 0,9.831727 0,14.74759 1.733489,1.823574 0.676329,0.804576 0,0.301602 0.951467,3.240031 -0.419572,7.976266 3.330851,9.860928 0.637563,1.182446 3.312882,6.219986 3.43622,4.712704 -1.341214,-1.404368 -2.717353,-5.614596 -0.447896,-1.862098 2.032756,3.567022 4.774753,5.880584 8.780474,6.729415 2.19006,0.744855 3.99117,3.305322 5.91712,2.741963 1.08905,2.870539 -3.22741,5.627088 0.14491,8.30447 1.76052,2.71045 4.71618,4.488168 3.11596,8.29345 -1.11907,3.716413 -0.63993,7.765882 -1.60779,11.228513 -0.30039,2.107681 2.93804,7.457302 2.65747,3.173531 0.94557,-2.976918 0.92064,-6.252508 3.14759,-8.360679 3.04711,0.02412 0.58237,-3.276114 3.607,-2.844995 1.84565,-2.418872 2.38023,-5.304486 5.49491,-6.264978 0.37205,-2.936144 5.17882,-7.4329 0.21314,-8.576056 -1.34961,-0.665119 -4.8245,-0.904282 -4.55894,-1.232465 0.53803,-2.913429 -4.49347,-3.742841 -6.63424,-4.934817 -2.81075,-1.994856 -7.03423,3.313948 -8.02451,-1.260398 -0.59088,-1.439233 -2.75133,-1.462574 -1.75843,-3.683379 -1.78939,1.779441 -5.28934,1.238624 -4.373028,-2.197824 1.391566,-2.894156 6.735638,-3.031092 7.646258,0.450058 -1.26435,-3.839294 2.44394,-6.828036 4.50253,-9.559465 0.41916,-1.305551 2.90974,-2.427219 2.05268,-0.692077 1.46015,-0.05266 3.67328,-2.687302 1.07941,-1.471281 -0.0367,-2.402702 -2.27298,-1.719417 -2.998,-1.378249 1.34377,-2.132514 8.24498,-0.966646 5.35509,-4.452373 -2.2393,-0.907229 -2.05302,-6.201368 -4.318,-3.251981 0.1906,-1.817243 -4.61001,-5.374474 -4.50525,-2.327163 0.58599,2.726773 0.10714,5.867952 -1.13992,7.655308 -0.26025,-3.995633 -7.075686,-3.112538 -6.199431,-7.370332 1.269451,-2.029282 2.752851,-4.835506 2.894181,-4.583059 2.27505,-0.868509 4.10459,-3.394824 1.46783,-5.055609 -0.14092,1.447483 -1.98303,4.433935 -1.72366,0.821917 -1.705794,2.022175 -1.3162,-3.217808 -2.91375,-3.761252 z m 54.45,1.401837 c -3.99594,0.977352 -5.58007,4.793453 -7.55681,7.954209 -2.91386,1.313584 -2.80294,6.954861 0.45241,5.153113 0.87128,1.52152 -0.60951,3.919724 1.92831,1.930256 2.047,-2.708555 0.35794,-7.089232 3.84142,-8.797142 0.25374,1.32799 -3.21334,6.286746 0.83699,5.471685 3.66156,0.13814 -2.66185,0.364788 -0.88099,2.703385 -1.85027,-1.097665 -0.88884,2.997843 -3.30399,2.044772 -2.09232,1.137967 -3.46433,-0.528366 -2.98503,-2.353789 -1.64596,0.960095 0.5177,3.668626 -2.33958,3.831405 -0.64005,2.272529 -5.90338,1.930002 -2.9102,4.244049 1.3289,3.443647 -4.95154,0.215879 -3.16854,4.348369 1.52545,4.086407 4.7224,-1.354049 6.01943,-2.405153 2.50248,-1.940907 6.21066,3.309444 3.95877,3.504593 2.52508,-0.338743 2.00619,-2.739888 -0.0169,-3.669477 -1.09268,-2.833524 3.45903,1.389634 3.2066,2.810286 1.60595,3.006852 0.94462,-3.078557 2.57885,-0.384373 -0.1908,2.841965 6.57418,0.668223 3.34439,4.290282 -2.77688,0.559235 -5.51013,-0.715787 -7.90083,0.100876 -2.22511,-0.01969 -2.11347,-2.396773 -2.92358,-2.992055 -2.83037,0.229926 -6.32794,0.203926 -8.22277,2.490166 -2.04902,2.810946 -5.00383,6.740445 -2.77053,10.329674 2.23487,5.318818 7.77718,0.27589 10.96298,3.417068 0.94693,1.309731 -0.8206,2.86661 1.2967,4.285291 0.79672,3.022035 -0.90448,5.891404 1.05227,8.780282 1.01184,2.716843 1.63978,6.783262 5.40576,4.300665 3.98577,-2.398255 2.92416,-6.819304 6.21294,-9.268036 -2.60227,-5.035562 3.18363,-7.243505 4.62722,-11.33147 -3.15395,0.461678 -5.96377,-2.682428 -6.72579,-5.847035 -1.32494,-1.53712 -0.98368,-3.80361 0.49633,-0.916013 2.03426,1.970926 2.07821,7.819175 5.84127,4.810628 1.72035,-0.719477 6.4186,-3.464001 2.67511,-4.712977 -2.41304,1.747528 -5.07525,-5.221667 -1.53182,-1.179385 2.57602,1.092759 4.37996,1.743838 4.37996,-1.879216 0,-9.761273 0,-19.654809 0,-29.482214 -0.8024,0.819872 -2.8638,2.334082 -3.90428,1.32791 -1.79037,0.249281 -4.15389,3.732429 -3.59125,0.365356 -1.55624,-0.103042 -0.27858,3.019034 -2.41664,3.106347 -0.21529,1.605089 -2.15987,0.29723 -1.42943,1.821464 -1.50065,-1.064346 -2.77067,-4.424842 0.18614,-2.315577 4.39103,-1.31719 -2.8956,-4.288275 -3.45804,-5.006418 0.94545,-0.226501 -1.02861,-1.211646 -1.26681,-0.881801 z m -36.23968,0.881801 c -1.4615,1.217596 2.77854,1.446893 0,0 z m -19.522371,0.655697 c -1.634647,1.709655 2.603281,1.571667 0,0 z m 9.478421,1.69577 c -1.23786,2.027571 1.82903,0.748571 0,0 z m 27.10058,2.39669 c -1.44923,1.668248 -3.36205,-0.439045 -3.39323,0.994852 0.26265,0.433258 1.31467,3.52554 3.61945,1.243565 1.23698,-0.521451 0.74995,-1.835967 -0.22622,-2.238417 z m -30.85575,0.994852 c -2.74881,2.400285 4.6683,2.621438 0.58232,0.275289 l -0.58232,-0.27529 z m 36.2623,6.647418 c -1.97909,1.2904 0.94943,4.030804 -0.0431,5.318079 -1.2401,2.160392 4.60832,-0.152179 1.48461,-1.875826 -0.22257,-1.48088 -1.83002,-3.287723 -1.44154,-3.442253 z m -1.33468,2.600181 c -2.75739,0.779471 -0.62595,4.803849 0.35067,1.013493 0.0549,-0.219748 0.12936,-1.020842 -0.35067,-1.013493 z m -22.0786,2.916726 c -2.56522,1.748962 -0.39843,3.494707 1.48156,2.707775 -0.38596,-1.055239 -1.46417,-1.720102 -1.48156,-2.707775 z m 48.4553,2.939335 c 1.27995,0.645878 -2.34554,1.749213 -0.0498,2.885924 1.33598,1.570889 0.83231,4.942999 -1.3392,2.556372 0.40344,-2.664667 -2.94356,-4.654664 1.38903,-5.442296 z m -6.58287,0.02261 c -0.17366,1.711943 3.69395,4.372967 -0.47504,3.504593 -2.20475,0.258597 -5.50697,-0.06736 -2.72943,-2.814283 0.87765,-0.526822 3.18206,1.817596 1.98292,-0.373765 0.42513,-0.02712 0.82107,-0.18758 1.22155,-0.316545 z M 66.06643,38.0673 c -1.60811,1.035898 1.11199,1.830212 0,0 z m -40.37941,9.654585 c -0.27111,0.904354 5.08598,1.82085 1.38929,0.371963 l -0.55107,-0.193949 -0.83822,-0.178014 z m 4.16235,1.288785 c -1.62491,1.649392 3.34782,0.492772 0,0 z m 54.3369,15.126272 c -3.53072,0.09109 -3.06133,9.197024 -0.60013,3.808943 0.2334,-1.169216 1.1689,-2.712425 0.60013,-3.808943 z"
       inkscape:connector-curvature="0"
       id="path3522-9"
       style="opacity:0.7;fill:url(#radialGradient5232-9);fill-opacity:1;stroke:none;display:inline" />
  </g>
  <g
     id="layer4"
     style="display:inline">
    <rect
       width="66"
       height="66"
       rx="12"
       ry="12"
       x="15"
       y="15"
       clip-path="url(#clipPath3613)"
       id="rect3171"
       style="opacity:0.15;fill:url(#linearGradient2885);fill-opacity:1;fill-rule:nonzero;stroke:#ffffff;stroke-width:0.5;stroke-linecap:round;stroke-linejoin:miter;stroke-miterlimit:4;stroke-opacity:1;stroke-dasharray:none;stroke-dashoffset:0;filter:url(#filter4123)" />
  </g>
  <g
     id="layer3"
     style="display:inline">
    <g
       id="g4234">
      <path
         d="M 7,29.523112 C 58.250036,38.347576 38.633643,89 38.633643,89"
         inkscape:connector-curvature="0"
         id="path3583"
         style="fill:none;stroke:url(#radialGradient4246);stroke-width:2;stroke-linecap:butt;stroke-linejoin:miter;stroke-miterlimit:4;stroke-opacity:1;stroke-dasharray:none;display:inline" />
      <path
         d="M 27.676739,88.823511 C 26.616393,73.292454 56.129343,28.640665 88.823332,20.875137"
         inkscape:connector-curvature="0"
         id="path3581"
         style="fill:none;stroke:url(#radialGradient4252);stroke-width:2;stroke-linecap:butt;stroke-linejoin:miter;stroke-miterlimit:4;stroke-opacity:1;stroke-dasharray:none;display:inline" />
      <path
         d="m 77.5,67.125 a 3.125,3.125 0 1 1 -6.25,0 3.125,3.125 0 1 1 6.25,0 z"
         transform="matrix(1.3572422,0,0,1.3554377,-73.268157,-53.871603)"
         id="path3537"
         style="fill:url(#radialGradient3216);fill-opacity:1;fill-rule:evenodd;stroke:none;display:inline" />
      <path
         d="m 77.5,67.125 a 3.125,3.125 0 1 1 -6.25,0 3.125,3.125 0 1 1 6.25,0 z"
         transform="matrix(1.0744835,0,0,1.0730548,-39.513825,-14.090919)"
         id="path3557"
         style="fill:url(#radialGradient3443);fill-opacity:1;fill-rule:evenodd;stroke:none;display:inline" />
      <path
         d="m 77.5,67.125 a 3.125,3.125 0 1 1 -6.25,0 3.125,3.125 0 1 1 6.25,0 z"
         transform="matrix(1.5834493,0,0,1.581344,-53.333661,-72.388859)"
         id="path3561"
         style="fill:url(#radialGradient3445);fill-opacity:1;fill-rule:evenodd;stroke:none;display:inline" />
      <path
         d="m 77.5,67.125 a 3.125,3.125 0 1 1 -6.25,0 3.125,3.125 0 1 1 6.25,0 z"
         transform="matrix(1.0219348,0,0,1.020576,-15.635673,-16.92189)"
         id="path3565"
         style="opacity:0.6;fill:url(#radialGradient3447);fill-opacity:1;fill-rule:evenodd;stroke:none;display:inline" />
      <path
         d="m 77.5,67.125 a 3.125,3.125 0 1 1 -6.25,0 3.125,3.125 0 1 1 6.25,0 z"
         transform="matrix(0.89260147,0,0,0.89141463,-51.611367,-28.371713)"
         id="path3569"
         style="opacity:0.7;fill:url(#radialGradient3449);fill-opacity:1;fill-rule:evenodd;stroke:none;display:inline" />
      <path
         d="m 77.5,67.125 a 3.125,3.125 0 1 1 -6.25,0 3.125,3.125 0 1 1 6.25,0 z"
         transform="matrix(0.56551763,0,0,0.5647657,38.456917,3.261507)"
         id="path3573"
         style="opacity:0.6;fill:url(#radialGradient3451);fill-opacity:1;fill-rule:evenodd;stroke:none;display:inline" />
      <path
         d="M 7.1767242,47.701508 C 35.275882,28.287687 72.387975,27.228751 89.000056,49.289911"
         inkscape:connector-curvature="0"
         id="path3577"
         style="fill:none;stroke:url(#radialGradient4248);stroke-width:2;stroke-linecap:butt;stroke-linejoin:miter;stroke-miterlimit:4;stroke-opacity:1;stroke-dasharray:none;display:inline" />
      <path
         d="M 7.1767242,67.821286 C 58.42676,56.349483 89.17678,37.641619 89.17678,37.641619"
         inkscape:connector-curvature="0"
         id="path3585"
         style="opacity:0.6;fill:none;stroke:url(#radialGradient4250);stroke-width:1.5;stroke-linecap:butt;stroke-linejoin:miter;stroke-miterlimit:4;stroke-opacity:1;stroke-dasharray:none;display:inline" />
      <path
         d="m 77.5,67.125 a 3.125,3.125 0 1 1 -6.25,0 3.125,3.125 0 1 1 6.25,0 z"
         transform="matrix(0.84547158,0,0,0.84434747,15.553432,-31.917967)"
         id="path3352"
         style="opacity:0.6;fill:url(#radialGradient3354);fill-opacity:1;fill-rule:evenodd;stroke:none;display:inline" />
    </g>
  </g>
  <g
     id="g3053"
     transform="matrix(3.2389115,0,0,3.3587855,-60.643789,-71.217733)">
    <g
       id="g3133"
       transform="translate(18.116542,13.402206)">
      <path
         id="path281"
         d="m 21.920546,23.962837 c -3.401451,0 -6.174914,2.674479 -6.174914,5.954533 0,3.280055 2.773463,5.954534 6.174914,5.954534 3.401452,0 6.174914,-2.674479 6.174914,-5.954534 0,-3.280054 -2.773462,-5.954533 -6.174914,-5.954533 z m 0.135076,3.377411 c 1.384817,0.06898 2.465983,1.111533 2.53752,2.446956 l -2.537581,-2.447015 z m -2.836755,2.558663 2.720667,2.623568 c -0.0045,1.49e-4 -0.01484,0 -0.0193,0 -1.500226,0 -2.701524,-1.158425 -2.701524,-2.605109 0,-0.0044 -1.56e-4,-0.01416 0,-0.01861 z"
         inkscape:connector-curvature="0"
         style="opacity:0.05" />
      <path
         id="path283"
         d="m 21.920546,24.251334 c -3.239669,0 -5.875739,2.54199 -5.875739,5.666036 0,3.124046 2.63607,5.666036 5.875739,5.666036 3.239669,0 5.87574,-2.54199 5.87574,-5.666036 0,-3.124046 -2.636071,-5.666036 -5.87574,-5.666036 z m 0,2.77258 c 1.660651,0 3.000638,1.292163 3.000638,2.893546 0,0.171011 -0.0713,0.328065 -0.106131,0.493095 l -3.405774,-3.284521 c 0.170736,-0.03364 0.333445,-0.102418 0.511283,-0.102418 z m -2.86553,2.307381 3.473389,3.349425 c -0.202538,0.04734 -0.395812,0.130107 -0.607921,0.130107 -1.66065,0 -3.000637,-1.292164 -3.000637,-2.893546 0,-0.206283 0.08614,-0.391749 0.135076,-0.586164 z"
         inkscape:connector-curvature="0"
         style="opacity:0.15" />
      <path
         id="path285"
         d="m 21.920546,24.55829 c -3.065999,0 -5.557422,2.402506 -5.557422,5.35908 0,2.956575 2.491423,5.35908 5.557422,5.35908 3.065999,0 5.557423,-2.402505 5.557423,-5.35908 0,-2.956574 -2.491424,-5.35908 -5.557423,-5.35908 z m 0,2.158519 c 1.833795,0 3.319016,1.432214 3.319016,3.200561 0,0.397882 -0.09321,0.774447 -0.231559,1.125764 l -4.254824,-4.102971 c 0.364937,-0.133679 0.753648,-0.223295 1.167367,-0.223295 z m -3.048864,1.991196 4.302989,4.149416 c -0.388402,0.15452 -0.807679,0.260511 -1.254125,0.260511 -1.833641,0 -3.319016,-1.432363 -3.319016,-3.200562 0,-0.432686 0.107934,-0.833128 0.270152,-1.209514 z"
         inkscape:connector-curvature="0"
         style="opacity:0.3" />
      <path
         id="path287"
         d="m 21.920546,24.260564 c -3.069272,0 -5.557422,2.399349 -5.557422,5.35908 0,1.090185 0.336748,2.103141 0.916604,2.949339 -0.385006,-0.703825 -0.607921,-1.502626 -0.607921,-2.353827 0,-2.795296 2.349926,-5.061353 5.248677,-5.061353 2.898752,0 5.248677,2.266057 5.248677,5.061353 0,0.851141 -0.222951,1.649942 -0.607858,2.353887 0.579824,-0.846139 0.916666,-1.859005 0.916666,-2.94928 0,-2.959701 -2.488182,-5.35908 -5.557423,-5.35908 z"
         inkscape:connector-curvature="0"
         style="opacity:0.2;fill:url(#linearGradient3143)" />
      <path
         id="path289"
         d="m 21.920546,24.260564 c -3.065999,0 -5.557422,2.402505 -5.557422,5.35908 0,2.956574 2.491423,5.35908 5.557422,5.35908 3.065999,0 5.557423,-2.402506 5.557423,-5.35908 0,-2.956575 -2.491424,-5.35908 -5.557423,-5.35908 z m 0,2.158518 c 1.833795,0 3.319016,1.432214 3.319016,3.200562 0,0.397882 -0.09321,0.774446 -0.231559,1.125764 l -4.254824,-4.102971 c 0.364937,-0.13368 0.753648,-0.223295 1.167367,-0.223295 z m -3.048864,1.991196 4.302989,4.149416 c -0.388402,0.154521 -0.807679,0.260511 -1.254125,0.260511 -1.833641,0 -3.319016,-1.432363 -3.319016,-3.200561 0,-0.432687 0.107931,-0.833129 0.270152,-1.209515 z"
         inkscape:connector-curvature="0"
         style="fill:url(#linearGradient3145)" />
      <path
         id="path291"
         d="m 21.920546,24.260564 c -3.065999,0 -5.557422,2.402505 -5.557422,5.35908 0,0.100283 0.01364,0.198792 0.0193,0.297726 0.161165,-2.817983 2.576174,-5.061353 5.538281,-5.061353 2.962106,0 5.377115,2.24337 5.53828,5.061353 0.0056,-0.09885 0.01914,-0.197392 0.01914,-0.297726 0,-2.956724 -2.491269,-5.35908 -5.557422,-5.35908 z m -0.694678,2.837692 c -0.160547,0.03722 -0.320478,0.08396 -0.472689,0.139634 l 4.254824,4.102971 c 0.138318,-0.351317 0.231559,-0.727942 0.231559,-1.125705 0,-0.101078 -0.0098,-0.199048 -0.0193,-0.297726 -0.0327,0.290236 -0.1085,0.564549 -0.212263,0.828037 l -3.782135,-3.647151 z m -2.605042,2.847011 c -0.0093,0.08932 -0.01914,0.177445 -0.01914,0.269741 0,1.768347 1.485221,3.200561 3.319017,3.200561 0.446477,0 0.865692,-0.105955 1.254279,-0.260511 l -0.463119,-0.44659 c -0.253789,0.06729 -0.515605,0.111648 -0.791006,0.111648 -1.719189,0 -3.129755,-1.260515 -3.299874,-2.874908 z"
         inkscape:connector-curvature="0"
         style="opacity:0.15;fill:#ffffff" />
      <path
         id="path293"
         d="m 21.920546,24.409427 c -2.982483,0 -5.40305,2.334177 -5.40305,5.210217 0,0.04226 -0.001,0.08506 0,0.127078 0.06969,-2.817715 2.464378,-5.083087 5.40305,-5.083087 2.938673,0 5.333273,2.265432 5.40305,5.083087 0.001,-0.04202 0,-0.08482 0,-0.127078 0,-2.87604 -2.420566,-5.210217 -5.40305,-5.210217 z m -1.260176,2.350939 c -0.06395,0.0242 -0.127364,0.04382 -0.189437,0.07148 l 4.604324,4.439998 c 0.203711,-0.426047 0.321219,-0.898212 0.321219,-1.397856 0,-0.05108 -0.0059,-0.100388 -0.0082,-0.150906 -0.0148,0.461536 -0.123369,0.898063 -0.312976,1.294605 l -4.414791,-4.257193 z m -2.207347,3.002276 c -0.0013,0.03702 -0.0082,0.07386 -0.0082,0.111195 0,1.848882 1.558425,3.351806 3.475859,3.351806 0.553612,0 1.075577,-0.126986 1.540209,-0.349471 l -0.189437,-0.182676 c -0.416961,0.171431 -0.869027,0.277984 -1.350763,0.277984 -1.867139,0 -3.389101,-1.426766 -3.467523,-3.2086 z"
         inkscape:connector-curvature="0"
         style="opacity:0.4;fill:url(#linearGradient3147)" />
      <path
         id="path295"
         d="m 21.920546,26.121355 c -0.413565,0 -0.802553,0.0897 -1.167429,0.223295 l 0.231559,0.223295 c 0.297563,-0.09014 0.607581,-0.148863 0.93587,-0.148863 1.778097,0 3.222996,1.348523 3.309445,3.042469 0.0025,-0.04615 0.0096,-0.09289 0.0096,-0.139634 0,-1.768199 -1.485375,-3.200562 -3.319016,-3.200562 z m -3.048864,1.991047 c -0.162091,0.376327 -0.270152,0.776769 -0.270152,1.209366 0,0.05054 0.0072,0.0989 0.0096,0.148863 0.02176,-0.375165 0.117373,-0.728566 0.260504,-1.060651 l 4.07143,3.926122 c 0.07694,-0.02571 0.156858,-0.04472 0.231559,-0.07443 l -4.302989,-4.149714 z m -2.498987,1.358229 c -0.0012,0.04972 -0.0096,0.09885 -0.0096,0.148864 0,2.956574 2.491423,5.35908 5.557422,5.35908 3.065999,0 5.557423,-2.402506 5.557423,-5.35908 0,-0.05014 -0.0082,-0.09905 -0.0096,-0.148864 -0.08274,2.887354 -2.533876,5.210217 -5.547851,5.210217 -3.013976,0 -5.465108,-2.322863 -5.547852,-5.210217 z"
         inkscape:connector-curvature="0"
         style="opacity:0.2;fill:#550000" />
    </g>
  </g>
</svg>
