<?xml version="1.0" encoding="UTF-8" standalone="no"?>
<!-- Created with Inkscape (http://www.inkscape.org/) -->

<svg
   xmlns:dc="http://purl.org/dc/elements/1.1/"
   xmlns:cc="http://creativecommons.org/ns#"
   xmlns:rdf="http://www.w3.org/1999/02/22-rdf-syntax-ns#"
   xmlns:svg="http://www.w3.org/2000/svg"
   xmlns="http://www.w3.org/2000/svg"
   xmlns:xlink="http://www.w3.org/1999/xlink"
   xmlns:sodipodi="http://sodipodi.sourceforge.net/DTD/sodipodi-0.dtd"
   xmlns:inkscape="http://www.inkscape.org/namespaces/inkscape"
   version="1.0"
   width="96"
   height="96"
   id="svg2408"
   style="display:inline"
   inkscape:version="0.48.3.1 r9886"
   sodipodi:docname="kmousetool.svg">
  <sodipodi:namedview
     pagecolor="#ffffff"
     bordercolor="#666666"
     borderopacity="1"
     objecttolerance="10"
     gridtolerance="10"
     guidetolerance="10"
     inkscape:pageopacity="0"
     inkscape:pageshadow="2"
     inkscape:window-width="878"
     inkscape:window-height="704"
     id="namedview152"
     showgrid="false"
     inkscape:zoom="2.4583333"
     inkscape:cx="48"
     inkscape:cy="48"
     inkscape:window-x="0"
     inkscape:window-y="0"
     inkscape:window-maximized="0"
     inkscape:current-layer="layer1" />
  <defs
     id="defs2410">
    <linearGradient
       id="linearGradient3889">
      <stop
         id="stop3891"
         style="stop-color:#a49e89;stop-opacity:1"
         offset="0" />
      <stop
         id="stop3893"
         style="stop-color:#ffffff;stop-opacity:1"
         offset="1" />
    </linearGradient>
    <linearGradient
       id="linearGradient3837">
      <stop
         id="stop3839"
         style="stop-color:#000000;stop-opacity:1"
         offset="0" />
      <stop
         id="stop3841"
         style="stop-color:#000000;stop-opacity:0"
         offset="1" />
    </linearGradient>
    <linearGradient
       id="linearGradient3735">
      <stop
         id="stop3737"
         style="stop-color:#000000;stop-opacity:1"
         offset="0" />
      <stop
         id="stop3744"
         style="stop-color:#000000;stop-opacity:0.1627907"
         offset="0.5" />
      <stop
         id="stop3740"
         style="stop-color:#000000;stop-opacity:0"
         offset="1" />
    </linearGradient>
    <linearGradient
       id="linearGradient3721">
      <stop
         id="stop3723"
         style="stop-color:#949494;stop-opacity:1"
         offset="0" />
      <stop
         id="stop3731"
         style="stop-color:#aeaeae;stop-opacity:1"
         offset="0.19546634" />
      <stop
         id="stop3729"
         style="stop-color:#828282;stop-opacity:1"
         offset="0.66360098" />
      <stop
         id="stop3725"
         style="stop-color:#4d4d4d;stop-opacity:1"
         offset="1" />
    </linearGradient>
    <linearGradient
       id="linearGradient3614">
      <stop
         id="stop3616"
         style="stop-color:#c8c4b7;stop-opacity:1"
         offset="0" />
      <stop
         id="stop3618"
         style="stop-color:#e3e2db;stop-opacity:1"
         offset="1" />
    </linearGradient>
    <linearGradient
       id="linearGradient3737">
      <stop
         id="stop3739"
         style="stop-color:#ffffff;stop-opacity:1"
         offset="0" />
      <stop
         id="stop3741"
         style="stop-color:#ffffff;stop-opacity:0"
         offset="1" />
    </linearGradient>
    <linearGradient
       x1="36.357143"
       y1="6"
       x2="36.357143"
       y2="63.893143"
       id="linearGradient3188"
       xlink:href="#linearGradient3737"
       gradientUnits="userSpaceOnUse"
       gradientTransform="translate(-110,0)" />
    <radialGradient
       cx="48"
       cy="90.171875"
       r="42"
       fx="48"
       fy="90.171875"
       id="radialGradient3619"
       xlink:href="#linearGradient3737"
       gradientUnits="userSpaceOnUse"
       gradientTransform="matrix(1.1573129,0,0,0.99590774,-117.55102,0.19713193)" />
    <linearGradient
       x1="48"
       y1="90"
       x2="48"
       y2="5.9877172"
       id="linearGradient3650"
       xlink:href="#linearGradient3614"
       gradientUnits="userSpaceOnUse"
       gradientTransform="translate(-110,0)" />
    <radialGradient
       cx="48"
       cy="88"
       r="42"
       fx="48"
       fy="88"
       id="radialGradient3666"
       xlink:href="#linearGradient3737"
       gradientUnits="userSpaceOnUse"
       gradientTransform="translate(-110,10)" />
    <linearGradient
       x1="48"
       y1="14"
       x2="48"
       y2="42"
       id="linearGradient3727"
       xlink:href="#linearGradient3721"
       gradientUnits="userSpaceOnUse" />
    <linearGradient
       x1="41.84375"
       y1="28"
       x2="48"
       y2="28"
       id="linearGradient3742"
       xlink:href="#linearGradient3735"
       gradientUnits="userSpaceOnUse"
       spreadMethod="reflect" />
    <radialGradient
       cx="48"
       cy="19.5"
       r="5"
       fx="48"
       fy="19.5"
       id="radialGradient3791"
       xlink:href="#linearGradient3737"
       gradientUnits="userSpaceOnUse"
       gradientTransform="matrix(1,0,0,0.1,0,36.55)" />
    <radialGradient
       cx="48"
       cy="19.5"
       r="5"
       fx="48"
       fy="19.5"
       id="radialGradient3807"
       xlink:href="#linearGradient3737"
       gradientUnits="userSpaceOnUse"
       gradientTransform="matrix(1,0,0,0.1,0,33.55)" />
    <radialGradient
       cx="48"
       cy="19.5"
       r="5"
       fx="48"
       fy="19.5"
       id="radialGradient3811"
       xlink:href="#linearGradient3737"
       gradientUnits="userSpaceOnUse"
       gradientTransform="matrix(1,0,0,0.1,0,30.55)" />
    <radialGradient
       cx="48"
       cy="19.5"
       r="5"
       fx="48"
       fy="19.5"
       id="radialGradient3815"
       xlink:href="#linearGradient3737"
       gradientUnits="userSpaceOnUse"
       gradientTransform="matrix(1,0,0,0.1,0,27.55)" />
    <radialGradient
       cx="48"
       cy="19.5"
       r="5"
       fx="48"
       fy="19.5"
       id="radialGradient3819"
       xlink:href="#linearGradient3737"
       gradientUnits="userSpaceOnUse"
       gradientTransform="matrix(1,0,0,0.1,0,24.55)" />
    <radialGradient
       cx="48"
       cy="19.5"
       r="5"
       fx="48"
       fy="19.5"
       id="radialGradient3823"
       xlink:href="#linearGradient3737"
       gradientUnits="userSpaceOnUse"
       gradientTransform="matrix(1,0,0,0.1,0,21.55)" />
    <radialGradient
       cx="48"
       cy="19.5"
       r="5"
       fx="48"
       fy="19.5"
       id="radialGradient3827"
       xlink:href="#linearGradient3737"
       gradientUnits="userSpaceOnUse"
       gradientTransform="matrix(1,0,0,0.1,0,18.55)" />
    <radialGradient
       cx="48"
       cy="19.5"
       r="5"
       fx="48"
       fy="19.5"
       id="radialGradient3831"
       xlink:href="#linearGradient3737"
       gradientUnits="userSpaceOnUse"
       gradientTransform="matrix(1,0,0,0.1,0,15.55)" />
    <radialGradient
       cx="48"
       cy="37.5"
       r="5"
       fx="48"
       fy="37.5"
       id="radialGradient3843"
       xlink:href="#linearGradient3837"
       gradientUnits="userSpaceOnUse"
       gradientTransform="matrix(1,0,0,0.1,0,33.75)" />
    <radialGradient
       cx="48"
       cy="37.5"
       r="5"
       fx="48"
       fy="37.5"
       id="radialGradient3847"
       xlink:href="#linearGradient3837"
       gradientUnits="userSpaceOnUse"
       gradientTransform="matrix(1,0,0,0.1,0,30.75)" />
    <radialGradient
       cx="48"
       cy="37.5"
       r="5"
       fx="48"
       fy="37.5"
       id="radialGradient3851"
       xlink:href="#linearGradient3837"
       gradientUnits="userSpaceOnUse"
       gradientTransform="matrix(1,0,0,0.1,0,27.75)" />
    <radialGradient
       cx="48"
       cy="37.5"
       r="5"
       fx="48"
       fy="37.5"
       id="radialGradient3855"
       xlink:href="#linearGradient3837"
       gradientUnits="userSpaceOnUse"
       gradientTransform="matrix(1,0,0,0.1,0,24.75)" />
    <radialGradient
       cx="48"
       cy="37.5"
       r="5"
       fx="48"
       fy="37.5"
       id="radialGradient3859"
       xlink:href="#linearGradient3837"
       gradientUnits="userSpaceOnUse"
       gradientTransform="matrix(1,0,0,0.1,0,21.75)" />
    <radialGradient
       cx="48"
       cy="37.5"
       r="5"
       fx="48"
       fy="37.5"
       id="radialGradient3863"
       xlink:href="#linearGradient3837"
       gradientUnits="userSpaceOnUse"
       gradientTransform="matrix(1,0,0,0.1,0,18.75)" />
    <radialGradient
       cx="48"
       cy="37.5"
       r="5"
       fx="48"
       fy="37.5"
       id="radialGradient3867"
       xlink:href="#linearGradient3837"
       gradientUnits="userSpaceOnUse"
       gradientTransform="matrix(1,0,0,0.1,0,15.75)" />
    <radialGradient
       cx="48"
       cy="37.5"
       r="5"
       fx="48"
       fy="37.5"
       id="radialGradient3871"
       xlink:href="#linearGradient3837"
       gradientUnits="userSpaceOnUse"
       gradientTransform="matrix(1,0,0,0.1,0,12.75)" />
    <linearGradient
       x1="48"
       y1="8"
       x2="48"
       y2="48"
       id="linearGradient3895"
       xlink:href="#linearGradient3889"
       gradientUnits="userSpaceOnUse" />
    <filter
       x="-0.046066221"
       y="-0.68178004"
       width="1.0921324"
       height="2.3635602"
       color-interpolation-filters="sRGB"
       id="filter3903">
      <feGaussianBlur
         id="feGaussianBlur3905"
         stdDeviation="1.4203751" />
    </filter>
    <linearGradient
       id="linearGradient3688">
      <stop
         id="stop3690"
         style="stop-color:#333333;stop-opacity:1"
         offset="0" />
      <stop
         id="stop3692"
         style="stop-color:#595959;stop-opacity:1"
         offset="1" />
    </linearGradient>
    <linearGradient
       x1="16"
       y1="88"
       x2="16"
       y2="8"
       id="linearGradient3982"
       xlink:href="#linearGradient3688"
       gradientUnits="userSpaceOnUse" />
    <linearGradient
       x1="45.447727"
       y1="92.539597"
       x2="45.447727"
       y2="7.0165396"
       id="ButtonShadow-2"
       gradientUnits="userSpaceOnUse"
       gradientTransform="scale(1.0058652,0.994169)">
      <stop
         id="stop3750-61"
         style="stop-color:#000000;stop-opacity:1"
         offset="0" />
      <stop
         id="stop3752-0"
         style="stop-color:#000000;stop-opacity:0.58823532"
         offset="1" />
    </linearGradient>
    <filter
       color-interpolation-filters="sRGB"
       id="filter3689">
      <feGaussianBlur
         id="feGaussianBlur3691"
         stdDeviation="1.71" />
    </filter>
    <linearGradient
       x1="45.447727"
       y1="92.539597"
       x2="45.447727"
       y2="7.0165396"
       id="linearGradient2961"
       xlink:href="#ButtonShadow-2"
       gradientUnits="userSpaceOnUse"
       gradientTransform="scale(1.0058652,0.994169)" />
    <linearGradient
       x1="48"
       y1="90"
       x2="48"
       y2="5.9877172"
       id="linearGradient2981"
       xlink:href="#linearGradient3614"
       gradientUnits="userSpaceOnUse"
       gradientTransform="translate(-210,0)" />
    <linearGradient
       id="linearGradient3737-4">
      <stop
         id="stop3739-11"
         style="stop-color:#ffffff;stop-opacity:1"
         offset="0" />
      <stop
         id="stop3741-3"
         style="stop-color:#ffffff;stop-opacity:0"
         offset="1" />
    </linearGradient>
    <linearGradient
       x1="40"
       y1="8"
       x2="40"
       y2="64"
       id="linearGradient3790"
       xlink:href="#linearGradient3737-4"
       gradientUnits="userSpaceOnUse" />
    <linearGradient
       x1="40"
       y1="8"
       x2="40"
       y2="64"
       id="linearGradient3802"
       xlink:href="#linearGradient3737-4"
       gradientUnits="userSpaceOnUse" />
    <radialGradient
       cx="7.2183251"
       cy="76.395973"
       r="17"
       fx="7.2183251"
       fy="76.395973"
       id="radialGradient3996-1"
       xlink:href="#linearGradient3837"
       gradientUnits="userSpaceOnUse"
       gradientTransform="matrix(0.94117647,-1.4641499e-7,4.3924491e-7,2.823529,1.206249,-127.70625)" />
    <radialGradient
       cx="93.666664"
       cy="64.190475"
       r="17"
       fx="93.666664"
       fy="64.190475"
       id="radialGradient3994-8"
       xlink:href="#linearGradient3837"
       gradientUnits="userSpaceOnUse"
       gradientTransform="matrix(-1.4117647,0,2.3529408e-8,4.7058821,132.23529,-214.07282)" />
    <radialGradient
       cx="7.2183251"
       cy="76.395973"
       r="17"
       fx="7.2183251"
       fy="76.395973"
       id="radialGradient3988-6"
       xlink:href="#linearGradient3837"
       gradientUnits="userSpaceOnUse"
       gradientTransform="matrix(-0.94117647,-1.4641499e-7,-4.3924491e-7,2.823529,94.793751,-127.70625)" />
    <radialGradient
       cx="93.666664"
       cy="64.190475"
       r="17"
       fx="93.666664"
       fy="64.190475"
       id="radialGradient3023"
       xlink:href="#linearGradient3837"
       gradientUnits="userSpaceOnUse"
       gradientTransform="matrix(1.4117647,0,-2.3529408e-8,4.7058821,-36.235292,-214.07282)" />
    <linearGradient
       x1="45.447727"
       y1="92.539597"
       x2="45.447727"
       y2="7.0165396"
       id="ButtonShadow-0"
       gradientUnits="userSpaceOnUse"
       gradientTransform="matrix(1.0058652,0,0,0.994169,100,0)">
      <stop
         id="stop3750-8"
         style="stop-color:#000000;stop-opacity:1"
         offset="0" />
      <stop
         id="stop3752-5"
         style="stop-color:#000000;stop-opacity:0.58823532"
         offset="1" />
    </linearGradient>
    <linearGradient
       x1="32.251034"
       y1="6.1317081"
       x2="32.251034"
       y2="90.238609"
       id="linearGradient3780"
       xlink:href="#ButtonShadow-0"
       gradientUnits="userSpaceOnUse"
       gradientTransform="matrix(1.0238095,0,0,1.0119048,-1.1428571,-98.071429)" />
    <linearGradient
       x1="32.251034"
       y1="6.1317081"
       x2="32.251034"
       y2="90.238609"
       id="linearGradient3772"
       xlink:href="#ButtonShadow-0"
       gradientUnits="userSpaceOnUse"
       gradientTransform="matrix(1.0238095,0,0,1.0119048,-1.1428571,-98.071429)" />
    <linearGradient
       x1="32.251034"
       y1="6.1317081"
       x2="32.251034"
       y2="90.238609"
       id="linearGradient3725"
       xlink:href="#ButtonShadow-0"
       gradientUnits="userSpaceOnUse"
       gradientTransform="matrix(1.0238095,0,0,1.0119048,98.857143,-98.071429)" />
    <linearGradient
       x1="32.251034"
       y1="6.1317081"
       x2="32.251034"
       y2="90.238609"
       id="linearGradient3721-4"
       xlink:href="#ButtonShadow-0"
       gradientUnits="userSpaceOnUse"
       gradientTransform="translate(100,-97)" />
    <linearGradient
       x1="32.251034"
       y1="6.1317081"
       x2="32.251034"
       y2="90.238609"
       id="linearGradient2988"
       xlink:href="#ButtonShadow-0"
       gradientUnits="userSpaceOnUse"
       gradientTransform="matrix(1.0238095,0,0,1.0119048,-1.1428571,-98.071429)" />
    <linearGradient
       x1="48"
       y1="90"
       x2="48"
       y2="5.9877172"
       id="linearGradient3055"
       xlink:href="#ButtonShadow-0"
       gradientUnits="userSpaceOnUse"
       gradientTransform="translate(0,1)" />
    <linearGradient
       x1="45.447727"
       y1="92.539597"
       x2="45.447727"
       y2="7.0165396"
       id="ButtonShadow-0-5"
       gradientUnits="userSpaceOnUse"
       gradientTransform="matrix(1.0058652,0,0,0.994169,100,0)">
      <stop
         id="stop3750-8-2"
         style="stop-color:#000000;stop-opacity:1"
         offset="0" />
      <stop
         id="stop3752-5-9"
         style="stop-color:#000000;stop-opacity:0.58823532"
         offset="1" />
    </linearGradient>
    <linearGradient
       x1="48"
       y1="90"
       x2="48"
       y2="5.9877172"
       id="linearGradient3900"
       xlink:href="#ButtonShadow-0-5"
       gradientUnits="userSpaceOnUse"
       gradientTransform="translate(0,1)" />
    <linearGradient
       x1="48"
       y1="90"
       x2="48"
       y2="5.9877172"
       id="linearGradient3927"
       xlink:href="#ButtonShadow-0-5"
       gradientUnits="userSpaceOnUse"
       gradientTransform="translate(0,1)" />
    <linearGradient
       x1="48"
       y1="90"
       x2="48"
       y2="5.9877172"
       id="linearGradient3935"
       xlink:href="#ButtonShadow-0-5"
       gradientUnits="userSpaceOnUse"
       gradientTransform="translate(0,1)" />
    <linearGradient
       x1="48"
       y1="90"
       x2="48"
       y2="5.9877172"
       id="linearGradient3943"
       xlink:href="#ButtonShadow-0-5"
       gradientUnits="userSpaceOnUse"
       gradientTransform="translate(0,1)" />
    <linearGradient
       x1="16"
       y1="88"
       x2="16"
       y2="8"
       id="linearGradient3961"
       xlink:href="#linearGradient3688"
       gradientUnits="userSpaceOnUse"
       gradientTransform="matrix(-1,0,0,1,96,0)" />
    <linearGradient
       x1="48"
       y1="90"
       x2="48"
       y2="5.9877172"
       id="linearGradient3998"
       xlink:href="#linearGradient3614"
       gradientUnits="userSpaceOnUse" />
  </defs>
  <metadata
     id="metadata2413">
    <rdf:RDF>
      <cc:Work
         rdf:about="">
        <dc:format>image/svg+xml</dc:format>
        <dc:type
           rdf:resource="http://purl.org/dc/dcmitype/StillImage" />
      </cc:Work>
    </rdf:RDF>
  </metadata>
  <g
     id="layer2"
     style="display:none">
    <path
       d="m 11,7.0000001 c -3.324,0 -6,2.676 -6,5.9999999 l 0,5 0,16 c 0,15.179622 5,20.148843 5,40 l 0,12 c 0,3.313708 2.686292,6 6,6 l 64,0 c 3.313708,0 6,-2.686292 6,-6 l 0,-12 c 0,-19.851157 5,-24.820378 5,-40 l 0,-16 0,-5 C 91,9.6760001 88.324,7.0000001 85,7.0000001 l -74,0 z"
       inkscape:connector-curvature="0"
       id="rect3745"
       style="opacity:0.9;fill:url(#linearGradient2961);fill-opacity:1;fill-rule:nonzero;stroke:none;display:inline;filter:url(#filter3689)" />
  </g>
  <g
     id="layer4"
     style="display:inline">
    <path
       d="M 12,4.03125 C 6.5193475,4.03125 2.03125,8.5193475 2.03125,14 l 0,10 0,1 0,8 c 0,7.919746 1.3538702,13.299357 2.59375,18.875 C 5.8653085,57.452571 7.03125,63.319844 7.03125,73 l 0,7 0,5 c 0,5.480652 4.488098,9.96875 9.96875,9.96875 l 13,0 42,0 7,0 c 5.480652,0 9.96875,-4.488098 9.96875,-9.96875 l 0,-11 0,-1 c 0,-9.680156 1.165942,-15.547429 2.40625,-21.125 C 92.61488,46.299357 93.96875,40.919746 93.96875,33 l 0,-9 0,-10 C 93.96875,8.5193474 89.480652,4.03125 84,4.03125 l -12,0 -47,0 -1,0 -12,0 z"
       id="path3941"
       style="opacity:0.07999998;fill:url(#linearGradient3943);fill-opacity:1;fill-rule:nonzero;stroke:none;display:inline" />
    <path
       d="M 12,5.0625 C 7.0772797,5.0625 3.0625,9.0772797 3.0625,14 l 0,10 0,1 0,8 c 0,7.804137 1.3188434,13.063623 2.5625,18.65625 C 6.8687893,57.249474 8.0625,63.236206 8.0625,73 l 0,7 0,5 c 0,4.92272 4.01478,8.9375 8.9375,8.9375 l 13,0 42,0 7,0 c 4.92272,0 8.9375,-4.01478 8.9375,-8.9375 l 0,-11 0,-1 c 0,-9.763794 1.193711,-15.750526 2.4375,-21.34375 C 91.618657,46.063623 92.9375,40.804137 92.9375,33 l 0,-9 0,-10 C 92.9375,9.0772797 88.92272,5.0625 84,5.0625 l -12,0 -47,0 -1,0 -12,0 z"
       id="path3933"
       style="opacity:0.1;fill:url(#linearGradient3935);fill-opacity:1;fill-rule:nonzero;stroke:none;display:inline" />
    <path
       d="M 12,6 C 7.5816829,6 4,9.5816829 4,14 l 0,10 0,1 0,8 C 4,40.700347 5.284457,45.862019 6.53125,51.46875 7.778043,57.075481 9,63.158945 9,73 l 0,7 0,5 c 0,4.418317 3.581683,8 8,8 l 13,0 42,0 7,0 c 4.418317,0 8,-3.581683 8,-8 l 0,-11 0,-1 C 87,63.158945 88.221957,57.075481 89.46875,51.46875 90.715543,45.862019 92,40.700347 92,33 l 0,-9 0,-10 C 92,9.5816829 88.418317,6 84,6 L 72,6 25,6 24,6 12,6 z"
       id="path3925"
       style="opacity:0.2;fill:url(#linearGradient3927);fill-opacity:1;fill-rule:nonzero;stroke:none;display:inline" />
    <path
       d="M 12,7 C 8.122,7 5,10.122 5,14 l 0,10 0,1 0,8 c 0,15.179622 5,20.148843 5,40 l 0,7 0,5 c 0,3.878 3.122,7 7,7 l 13,0 42,0 7,0 c 3.878,0 7,-3.122 7,-7 l 0,-11 0,-1 c 0,-19.851157 5,-24.820378 5,-40 l 0,-9 0,-10 C 91,10.122 87.878,7 84,7 L 72,7 25,7 24,7 12,7 z"
       inkscape:connector-curvature="0"
       id="path3829"
       style="opacity:0.3;fill:url(#linearGradient3900);fill-opacity:1;fill-rule:nonzero;stroke:none;display:inline" />
    <path
       d="m 12,-95.03125 c -5.5110903,0 -10.03125,4.52016 -10.03125,10.03125 l 0,71 c 0,5.5110902 4.5201598,10.03125 10.03125,10.03125 l 72,0 c 5.51109,0 10.03125,-4.5201597 10.03125,-10.03125 l 0,-71 c 0,-5.51109 -4.52016,-10.03125 -10.03125,-10.03125 l -72,0 z"
       transform="matrix(1,0,0,-1,100,0)"
       id="path3786"
       style="opacity:0.07999998;fill:url(#linearGradient2988);fill-opacity:1;fill-rule:nonzero;stroke:none;display:inline" />
    <path
       d="m 12,-94.03125 c -4.971633,0 -9.03125,4.059617 -9.03125,9.03125 l 0,71 c 0,4.9716329 4.0596171,9.03125 9.03125,9.03125 l 72,0 c 4.971633,0 9.03125,-4.059617 9.03125,-9.03125 l 0,-71 c 0,-4.971633 -4.059617,-9.03125 -9.03125,-9.03125 l -72,0 z"
       transform="matrix(1,0,0,-1,100,0)"
       id="path3778"
       style="opacity:0.1;fill:url(#linearGradient3780);fill-opacity:1;fill-rule:nonzero;stroke:none;display:inline" />
    <path
       d="m 12,-93 c -4.4091333,0 -8,3.590867 -8,8 l 0,71 c 0,4.4091333 3.5908667,8 8,8 l 72,0 c 4.409133,0 8,-3.5908667 8,-8 l 0,-71 c 0,-4.409133 -3.590867,-8 -8,-8 l -72,0 z"
       transform="matrix(1,0,0,-1,100,0)"
       id="path3770"
       style="opacity:0.2;fill:url(#linearGradient3772);fill-opacity:1;fill-rule:nonzero;stroke:none;display:inline" />
    <rect
       width="86"
       height="85"
       rx="7"
       ry="7"
       x="105"
       y="-92"
       transform="scale(1,-1)"
       id="rect3723"
       style="opacity:0.3;fill:url(#linearGradient3725);fill-opacity:1;fill-rule:nonzero;stroke:none;display:inline" />
    <rect
       width="84"
       height="84"
       rx="6"
       ry="6"
       x="106"
       y="-91"
       transform="scale(1,-1)"
       id="rect3716"
       style="opacity:0.45;fill:url(#linearGradient3721-4);fill-opacity:1;fill-rule:nonzero;stroke:none;display:inline" />
    <path
       d="M 12,7 C 8.676,7 6,9.676 6,13 l 0,4 0,16 c 0,15.179622 5,20.148843 5,40 l 0,12 c 0,3.313708 2.68629,6 6,6 l 9,0 44,0 4,0 5,0 c 3.31371,0 6,-2.686292 6,-6 l 0,-12 c 0,-19.851157 5,-24.820378 5,-40 l 0,-16 0,-4 C 90,9.88375 87.65789,7.337417 84.625,7.03125 84.42281,7.0108389 84.20775,7 84,7 L 12,7 z"
       inkscape:connector-curvature="0"
       id="path3045"
       style="opacity:0.45;fill:url(#linearGradient3055);fill-opacity:1;fill-rule:nonzero;stroke:none;display:inline" />
  </g>
  <g
     id="layer1"
     style="display:inline">
    <path
       d="m 21,6 c -2.761424,0 -5,2.2385763 -5,5 l 0,7 0,14 c 0,14.107143 10,24 10,44 l 0,14 44,0 0,-14 C 70,56 80,46.107143 80,32 l 0,-14 0,-7 C 80,8.2385763 77.761424,6 75,6 L 74,6 69,6 29,6 22,6 21,6 z m 63,0 c 0.20775,0 0.42281,0.010839 0.625,0.03125 0.478847,0.048339 0.937091,0.1590508 1.375,0.3125 L 86,6 84,6 z"
       inkscape:connector-curvature="0"
       id="rect2419"
       style="fill:url(#linearGradient3998);fill-opacity:1;fill-rule:nonzero;stroke:none" />
    <path
       d="m 45.60625,6 0,46.9375 0,0.03125 c 7.9e-5,0.01112 0,0.03722 0,0.03125 0,1.136812 0.956938,2.09375 2.09375,2.09375 1.136812,0 2.09375,-0.956938 2.09375,-2.09375 0,0.006 -7.9e-5,-0.02013 0,-0.03125 7.9e-5,-0.01112 8.63e-4,-0.0041 0,-0.03125 l 0,-46.9375 -4.1875,0 z"
       inkscape:connector-curvature="0"
       id="path4051"
       style="font-size:medium;font-style:normal;font-variant:normal;font-weight:normal;font-stretch:normal;text-indent:0;text-align:start;text-decoration:none;line-height:normal;letter-spacing:normal;word-spacing:normal;text-transform:none;direction:ltr;block-progression:tb;writing-mode:lr-tb;text-anchor:start;opacity:0.6;color:#000000;fill:#ffffff;fill-opacity:1;stroke:none;stroke-width:2;marker:none;visibility:visible;display:inline;overflow:visible;enable-background:accumulate;font-family:Abandoned Bitplane;-inkscape-font-specification:Abandoned Bitplane" />
    <rect
       width="84"
       height="84"
       rx="6"
       ry="6"
       x="-104"
       y="6"
       id="rect3648"
       style="fill:url(#linearGradient3650);fill-opacity:1;fill-rule:nonzero;stroke:none" />
    <rect
       width="74"
       height="5"
       rx="8"
       ry="2.5"
       x="11"
       y="11"
       transform="matrix(1,0,0,2.2519731,0,-7.8373518)"
       id="rect3897"
       style="opacity:0.2;fill:#ffffff;fill-opacity:1;stroke:none;filter:url(#filter3903)" />
    <path
       d="m -98,6 c -3.324,0 -6,2.676 -6,6 l 0,2 0,68 0,2 c 0,0.334721 0.0413,0.6507 0.0937,0.96875 0.0487,0.295596 0.097,0.596915 0.1875,0.875 0.01,0.03038 0.0209,0.0636 0.0312,0.09375 0.0989,0.287771 0.23488,0.547452 0.375,0.8125 0.14459,0.273507 0.31562,0.535615 0.5,0.78125 0.18438,0.245635 0.37378,0.473472 0.59375,0.6875 0.43995,0.428056 0.94291,0.814526 1.5,1.09375 0.27854,0.139612 0.57347,0.246947 0.875,0.34375 -0.2562,-0.100222 -0.48671,-0.236272 -0.71875,-0.375 -0.007,-0.0044 -0.0239,0.0045 -0.0312,0 -0.0319,-0.0193 -0.0623,-0.04251 -0.0937,-0.0625 -0.1204,-0.0767 -0.23102,-0.163513 -0.34375,-0.25 -0.10617,-0.0808 -0.21328,-0.161112 -0.3125,-0.25 -0.17793,-0.161433 -0.34746,-0.345388 -0.5,-0.53125 -0.10758,-0.130255 -0.21839,-0.265285 -0.3125,-0.40625 -0.0251,-0.03838 -0.0384,-0.08587 -0.0625,-0.125 -0.0648,-0.103032 -0.13023,-0.204517 -0.1875,-0.3125 -0.10101,-0.194706 -0.20568,-0.415701 -0.28125,-0.625 -0.008,-0.02181 -0.0236,-0.04055 -0.0312,-0.0625 -0.0318,-0.09195 -0.0358,-0.186831 -0.0625,-0.28125 -0.0303,-0.106618 -0.0704,-0.203031 -0.0937,-0.3125 C -102.94788,85.720988 -103,85.364295 -103,85 l 0,-2 0,-68 0,-2 c 0,-2.781848 2.21815,-5 5,-5 l 2,0 68,0 2,0 c 2.781848,0 5,2.218152 5,5 l 0,2 0,68 0,2 c 0,0.364295 -0.05212,0.720988 -0.125,1.0625 -0.04415,0.206893 -0.08838,0.397658 -0.15625,0.59375 -0.0077,0.02195 -0.0233,0.04069 -0.03125,0.0625 -0.06274,0.173739 -0.138383,0.367449 -0.21875,0.53125 -0.04158,0.0828 -0.07904,0.169954 -0.125,0.25 -0.0546,0.09721 -0.126774,0.18835 -0.1875,0.28125 -0.09411,0.140965 -0.204921,0.275995 -0.3125,0.40625 -0.143174,0.17445 -0.303141,0.346998 -0.46875,0.5 -0.01117,0.0102 -0.01998,0.02115 -0.03125,0.03125 -0.138386,0.125556 -0.285091,0.234436 -0.4375,0.34375 -0.102571,0.07315 -0.204318,0.153364 -0.3125,0.21875 -0.0074,0.0045 -0.02384,-0.0044 -0.03125,0 -0.232039,0.138728 -0.462548,0.274778 -0.71875,0.375 0.301527,-0.0968 0.596455,-0.204138 0.875,-0.34375 0.55709,-0.279224 1.060053,-0.665694 1.5,-1.09375 0.219973,-0.214028 0.409366,-0.441865 0.59375,-0.6875 0.184384,-0.245635 0.355408,-0.507743 0.5,-0.78125 0.14012,-0.265048 0.276135,-0.524729 0.375,-0.8125 0.01041,-0.03078 0.02133,-0.06274 0.03125,-0.09375 0.09046,-0.278085 0.1388,-0.579404 0.1875,-0.875 C -20.04135,84.6507 -20,84.334721 -20,84 l 0,-2 0,-68 0,-2 c 0,-3.324 -2.676,-6 -6,-6 l -72,0 z"
       inkscape:connector-curvature="0"
       id="rect3728"
       style="opacity:0.5;fill:url(#linearGradient3188);fill-opacity:1;fill-rule:nonzero;stroke:none" />
    <path
       d="m -110,16 0,76 11,0 0,-2 6,0 c -3.313708,0 -6,-2.686292 -6,-6 l 0,-12 c 0,-19.851157 -5,-24.820378 -5,-40 l 0,-16 -6,0 z m 90,0 0,16 c 0,15.179622 -5,20.148843 -5,40 l 0,12 c 0,3.313708 -2.686292,6 -6,6 l 6,0 0,2 11,0 0,-76 -6,0 z"
       inkscape:connector-curvature="0"
       id="path3646"
       style="opacity:0.50409833;fill:#ff0000;stroke:none" />
    <path
       d="m -98,90 c -3.324,0 -6,-2.676 -6,-6 l 0,-2 0,-68 0,-2 c 0,-0.334721 0.0413,-0.6507 0.0937,-0.96875 0.0487,-0.295596 0.097,-0.596915 0.1875,-0.875 0.01,-0.03038 0.0209,-0.0636 0.0312,-0.09375 0.0989,-0.287771 0.23488,-0.547452 0.375,-0.8125 0.14459,-0.273507 0.31562,-0.535615 0.5,-0.78125 0.18438,-0.245635 0.37378,-0.473472 0.59375,-0.6875 0.43995,-0.428056 0.94291,-0.814526 1.5,-1.09375 0.27854,-0.139612 0.57347,-0.246947 0.875,-0.34375 -0.2562,0.100222 -0.48671,0.236272 -0.71875,0.375 -0.007,0.0044 -0.0239,-0.0045 -0.0312,0 -0.0319,0.0193 -0.0623,0.04251 -0.0937,0.0625 -0.1204,0.0767 -0.23102,0.163513 -0.34375,0.25 -0.10617,0.0808 -0.21328,0.161112 -0.3125,0.25 -0.17793,0.161433 -0.34746,0.345388 -0.5,0.53125 -0.10758,0.130255 -0.21839,0.265285 -0.3125,0.40625 -0.0251,0.03838 -0.0384,0.08587 -0.0625,0.125 -0.0648,0.103032 -0.13023,0.204517 -0.1875,0.3125 -0.10101,0.194706 -0.20568,0.415701 -0.28125,0.625 -0.008,0.02181 -0.0236,0.04055 -0.0312,0.0625 -0.0318,0.09195 -0.0358,0.186831 -0.0625,0.28125 -0.0303,0.106618 -0.0704,0.203031 -0.0937,0.3125 C -102.94788,10.279012 -103,10.635705 -103,11 l 0,2 0,68 0,2 c 0,2.781848 2.21815,5 5,5 l 2,0 68,0 2,0 c 2.781848,0 5,-2.218152 5,-5 l 0,-2 0,-68 0,-2 c 0,-0.364295 -0.05212,-0.720988 -0.125,-1.0625 -0.04415,-0.206893 -0.08838,-0.397658 -0.15625,-0.59375 -0.0077,-0.02195 -0.0233,-0.04069 -0.03125,-0.0625 -0.06274,-0.173739 -0.138383,-0.367449 -0.21875,-0.53125 -0.04158,-0.0828 -0.07904,-0.169954 -0.125,-0.25 -0.0546,-0.09721 -0.126774,-0.18835 -0.1875,-0.28125 -0.09411,-0.140965 -0.204921,-0.275995 -0.3125,-0.40625 -0.143174,-0.17445 -0.303141,-0.346998 -0.46875,-0.5 -0.01117,-0.0102 -0.01998,-0.02115 -0.03125,-0.03125 -0.138386,-0.125556 -0.285091,-0.234436 -0.4375,-0.34375 -0.102571,-0.07315 -0.204318,-0.153364 -0.3125,-0.21875 -0.0074,-0.0045 -0.02384,0.0044 -0.03125,0 -0.232039,-0.138728 -0.462548,-0.274778 -0.71875,-0.375 0.301527,0.0968 0.596455,0.204138 0.875,0.34375 0.55709,0.279224 1.060053,0.665694 1.5,1.09375 0.219973,0.214028 0.409366,0.441865 0.59375,0.6875 0.184384,0.245635 0.355408,0.507743 0.5,0.78125 0.14012,0.265048 0.276135,0.524729 0.375,0.8125 0.01041,0.03078 0.02133,0.06274 0.03125,0.09375 0.09046,0.278085 0.1388,0.579404 0.1875,0.875 C -20.04135,11.3493 -20,11.665279 -20,12 l 0,2 0,68 0,2 c 0,3.324 -2.676,6 -6,6 l -72,0 z"
       inkscape:connector-curvature="0"
       id="path3615"
       style="opacity:0.2;fill:url(#radialGradient3619);fill-opacity:1;fill-rule:nonzero;stroke:none" />
    <path
       d="m -98,16 c -3.324,0 -6,2.676 -6,6 l 0,4 0,16 c 0,15.179622 5,20.148843 5,40 l 0,12 c 0,3.313708 2.686292,6 6,6 l 62,0 c 3.313708,0 6,-2.686292 6,-6 l 0,-12 c 0,-19.851157 5,-24.820378 5,-40 l 0,-16 0,-4 c 0,-3.324 -2.676,-6 -6,-6 l -72,0 z m 0,2.03125 72,0 c 2.240595,0 3.96875,1.728155 3.96875,3.96875 l 0,4 0,16 c 0,7.368173 -1.18107,12.16243 -2.4375,17.8125 -1.25643,5.65007 -2.5625,12.092441 -2.5625,22.1875 l 0,12 c 0,2.222758 -1.745992,3.96875 -3.96875,3.96875 l -62,0 c -2.222758,0 -3.96875,-1.745992 -3.96875,-3.96875 l 0,-12 c 0,-10.095059 -1.30607,-16.53743 -2.5625,-22.1875 -1.25643,-5.65007 -2.4375,-10.444327 -2.4375,-17.8125 l 0,-16 0,-4 c 0,-2.240595 1.72815,-3.96875 3.96875,-3.96875 z"
       inkscape:connector-curvature="0"
       id="path3653"
       style="opacity:0.2;fill:url(#radialGradient3666);fill-opacity:1;fill-rule:nonzero;stroke:none" />
    <path
       d="M 48,9.96875 C 42.470142,9.96875 37.96875,14.470142 37.96875,20 l 0,16 c 0,5.529858 4.501392,10.03125 10.03125,10.03125 5.529858,0 10.03125,-4.501392 10.03125,-10.03125 l 0,-16 C 58.03125,14.470142 53.529858,9.96875 48,9.96875 z"
       id="path3879"
       style="opacity:0.9;fill:url(#linearGradient3895);fill-opacity:1;stroke:none" />
    <path
       d="m 46.7,6 0,46.96875 c -3.42e-4,0.01075 0,0.02042 0,0.03125 0,0.552285 0.447715,1 1,1 0.552285,0 1,-0.447715 1,-1 0,-0.01083 3.42e-4,-0.0205 0,-0.03125 L 48.7,6 l -2,0 z"
       inkscape:connector-curvature="0"
       id="path3711"
       style="font-size:medium;font-style:normal;font-variant:normal;font-weight:normal;font-stretch:normal;text-indent:0;text-align:start;text-decoration:none;line-height:normal;letter-spacing:normal;word-spacing:normal;text-transform:none;direction:ltr;block-progression:tb;writing-mode:lr-tb;text-anchor:start;opacity:0.9;color:#000000;fill:#000000;fill-opacity:1;stroke:none;stroke-width:2;marker:none;visibility:visible;display:inline;overflow:visible;enable-background:accumulate;font-family:Abandoned Bitplane;-inkscape-font-specification:Abandoned Bitplane" />
    <rect
       width="16"
       height="32"
       rx="8"
       ry="8"
       x="40"
       y="12"
       id="rect3713"
       style="opacity:0.9;fill:#000000;fill-opacity:1;stroke:none" />
    <path
       d="m 48,13.84375 c -3.439318,0 -6.15625,2.716932 -6.15625,6.15625 l 0,16 c 0,3.439318 2.716932,6.15625 6.15625,6.15625 3.439318,0 6.15625,-2.716932 6.15625,-6.15625 l 0,-16 c 0,-3.439318 -2.716932,-6.15625 -6.15625,-6.15625 z"
       id="path3719"
       style="opacity:0.98999999;fill:url(#linearGradient3727);fill-opacity:1;stroke:none" />
    <path
       d="m 48,13.84375 c -3.439318,0 -6.15625,2.716932 -6.15625,6.15625 l 0,16 c 0,3.439318 2.716932,6.15625 6.15625,6.15625 3.439318,0 6.15625,-2.716932 6.15625,-6.15625 l 0,-16 c 0,-3.439318 -2.716932,-6.15625 -6.15625,-6.15625 z"
       id="path3733"
       style="opacity:0.5;fill:url(#linearGradient3742);fill-opacity:1;stroke:none" />
    <rect
       width="10"
       height="1"
       x="43"
       y="38"
       id="rect3789"
       style="opacity:0.4;fill:url(#radialGradient3791);fill-opacity:1;stroke:none" />
    <rect
       width="10"
       height="1"
       x="43"
       y="35"
       id="rect3805"
       style="opacity:0.4;fill:url(#radialGradient3807);fill-opacity:1;stroke:none" />
    <rect
       width="10"
       height="1"
       x="43"
       y="32"
       id="rect3809"
       style="opacity:0.4;fill:url(#radialGradient3811);fill-opacity:1;stroke:none" />
    <rect
       width="10"
       height="1"
       x="43"
       y="29"
       id="rect3813"
       style="opacity:0.4;fill:url(#radialGradient3815);fill-opacity:1;stroke:none" />
    <rect
       width="10"
       height="1"
       x="43"
       y="26"
       id="rect3817"
       style="opacity:0.4;fill:url(#radialGradient3819);fill-opacity:1;stroke:none" />
    <rect
       width="10"
       height="1"
       x="43"
       y="23"
       id="rect3821"
       style="opacity:0.4;fill:url(#radialGradient3823);fill-opacity:1;stroke:none" />
    <rect
       width="10"
       height="1"
       x="43"
       y="20"
       id="rect3825"
       style="opacity:0.4;fill:url(#radialGradient3827);fill-opacity:1;stroke:none" />
    <rect
       width="10"
       height="1"
       x="43"
       y="17"
       id="rect3829"
       style="opacity:0.4;fill:url(#radialGradient3831);fill-opacity:1;stroke:none" />
    <rect
       width="10"
       height="1"
       x="43"
       y="37"
       id="rect3833"
       style="opacity:0.6;fill:url(#radialGradient3843);fill-opacity:1;stroke:none" />
    <rect
       width="10"
       height="1"
       x="43"
       y="34"
       id="rect3845"
       style="opacity:0.6;fill:url(#radialGradient3847);fill-opacity:1;stroke:none" />
    <rect
       width="10"
       height="1"
       x="43"
       y="31"
       id="rect3849"
       style="opacity:0.6;fill:url(#radialGradient3851);fill-opacity:1;stroke:none" />
    <rect
       width="10"
       height="1"
       x="43"
       y="28"
       id="rect3853"
       style="opacity:0.4;fill:url(#radialGradient3855);fill-opacity:1;stroke:none" />
    <rect
       width="10"
       height="1"
       x="43"
       y="25"
       id="rect3857"
       style="opacity:0.6;fill:url(#radialGradient3859);fill-opacity:1;stroke:none" />
    <rect
       width="10"
       height="1"
       x="43"
       y="22"
       id="rect3861"
       style="opacity:0.6;fill:url(#radialGradient3863);fill-opacity:1;stroke:none" />
    <rect
       width="10"
       height="1"
       x="43"
       y="19"
       id="rect3865"
       style="opacity:0.6;fill:url(#radialGradient3867);fill-opacity:1;stroke:none" />
    <rect
       width="10"
       height="1"
       x="43"
       y="16"
       id="rect3869"
       style="opacity:0.6;fill:url(#radialGradient3871);fill-opacity:1;stroke:none" />
    <path
       d="M 12,6 C 8.676,6 6,8.676 6,12 l 0,4 0,16 c 0,15.179622 5,20.148843 5,40 l 0,12 c 0,3.313708 2.68629,6 6,6 l 9,0 0,-14 C 26,56 16,46.107143 16,32 l 0,-21 c 0,-2.7614237 2.238576,-5 5,-5 l -5,0 -4,0 z"
       inkscape:connector-curvature="0"
       id="path3942"
       style="fill:url(#linearGradient3982);fill-opacity:1;stroke:none" />
    <path
       d="m 75,6 c 2.761424,0 5,2.2385763 5,5 l 0,21 C 80,46.107143 70,56 70,76 l 0,14 9,0 c 3.31371,0 6,-2.686292 6,-6 l 0,-12 c 0,-19.851157 5,-24.820378 5,-40 l 0,-16 0,-4 C 90,8.88375 87.65789,6.337417 84.625,6.03125 84.42281,6.0108389 84.20775,6 84,6 l -9,0 z"
       inkscape:connector-curvature="0"
       id="path3984"
       style="fill:url(#linearGradient3961);fill-opacity:1;stroke:none" />
    <path
       d="m 21,6 c -2.761424,0 -5,2.2385763 -5,5 l 0,21 c 0,14.107143 10,24 10,44 l 0,14 1,0 0,-14 C 27,56 17,46.107143 17,32 l 0,-21 c 0,-2.7614237 2.238576,-5 5,-5 l -1,0 z"
       inkscape:connector-curvature="0"
       id="path3988"
       style="opacity:0.6;fill:#ffffff;fill-opacity:1;stroke:none" />
    <path
       d="m 75,6 c 2.761424,0 5,2.2385763 5,5 l 0,21 C 80,46.107143 70,56 70,76 l 0,14 -1,0 0,-14 C 69,56 79,46.107143 79,32 L 79,11 C 79,8.2385763 76.761424,6 74,6 l 1,0 z"
       inkscape:connector-curvature="0"
       id="path3998"
       style="opacity:0.6;fill:#ffffff;fill-opacity:1;stroke:none" />
    <path
       d="m -198,6 c -3.324,0 -6,2.676 -6,6 l 0,4 0,16 c 0,15.179622 5,20.148843 5,40 l 0,12 c 0,3.313708 2.68629,6 6,6 l 62,0 c 3.31371,0 6,-2.686292 6,-6 l 0,-12 c 0,-19.851157 5,-24.820378 5,-40 l 0,-16 0,-4 c 0,-3.324 -2.676,-6 -6,-6 l -72,0 z"
       inkscape:connector-curvature="0"
       id="rect2979"
       style="fill:url(#linearGradient2981);fill-opacity:1;fill-rule:nonzero;stroke:none" />
    <path
       d="m 22,6 c -1.797649,0 -3.402172,0.7867022 -4.5,2.03125 l 61,0 C 77.402172,6.7867022 75.797649,6 74,6 L 22,6 z M 21.375,89.96875 C 21.577192,89.989161 21.79225,90 22,90 l 52,0 c 0.20775,0 0.422808,-0.01084 0.625,-0.03125 l -53.25,0 z"
       inkscape:connector-curvature="0"
       id="path3785"
       style="opacity:0.5;fill:url(#linearGradient3790);fill-opacity:1;fill-rule:nonzero;stroke:none" />
    <path
       d="M 12,6 C 8.676,6 6,8.676 6,12 l 0,4 0,16 c 0,15.179622 5,20.148843 5,40 l 0,12 c 0,3.313708 2.68629,6 6,6 l 9,0 0,-0.03125 -9,0 c -2.762872,0 -4.96875,-2.205878 -4.96875,-4.96875 l 0,-12 C 12.03125,62.988848 10.753247,56.667003 9.5,51.03125 8.2467532,45.395497 7.03125,40.477903 7.03125,33 l 0,-16 0,-4 C 7.03125,10.223027 9.2230266,8.03125 12,8.03125 l 5,0 C 17.911811,6.8120153 19.360404,6 21,6 l -5,0 -4,0 z m 63,0 c 1.639595,0 3.088189,0.8120153 4,2.03125 l 5,0 c 2.776973,0 4.96875,2.191777 4.96875,4.96875 l 0,4 0,16 c 0,7.477903 -1.215503,12.395497 -2.46875,18.03125 C 85.246753,56.667003 83.96875,62.988848 83.96875,73 l 0,12 c 0,2.762872 -2.205878,4.96875 -4.96875,4.96875 l -9,0 0,0.03125 9,0 c 0.62132,0 1.217617,-0.105942 1.78125,-0.28125 C 83.223662,88.959081 85,86.692388 85,84 l 0,-12 c 0,-19.851157 5,-24.820378 5,-40 l 0,-16 0,-4 c 0,-0.216142 -0.0093,-0.414898 -0.03125,-0.625 -0.0171,-0.169404 -0.03171,-0.335136 -0.0625,-0.5 C 89.90035,10.84385 89.88139,10.81222 89.875,10.78125 89.8419,10.61868 89.79588,10.469923 89.75,10.3125 89.7409,10.2808 89.7284,10.25023 89.71875,10.21875 89.67408,10.074535 89.64874,9.9205201 89.59375,9.78125 89.57668,9.737664 89.5493,9.699324 89.53125,9.65625 89.478923,9.5321223 89.43526,9.4009029 89.375,9.28125 89.347863,9.227147 89.309957,9.17814 89.28125,9.125 89.221705,9.0151154 89.159823,8.9180702 89.09375,8.8125 89.05808,8.755084 89.00628,8.7123346 88.96875,8.65625 88.94791,8.625354 88.92765,8.59298 88.90625,8.5625 88.815924,8.432919 88.725043,8.3092525 88.625,8.1875 88.563958,8.1134741 88.501973,8.0397155 88.4375,7.96875 88.265214,7.7786495 88.070296,7.6040018 87.875,7.4375 87.852639,7.4185034 87.835143,7.3936715 87.8125,7.375 87.664448,7.252917 87.503301,7.1388633 87.34375,7.03125 87.292203,6.9964826 87.240179,6.9706887 87.1875,6.9375 87.078428,6.8688595 86.988724,6.7803852 86.875,6.71875 86.834533,6.6968212 86.791028,6.6772687 86.75,6.65625 86.617608,6.5885318 86.481713,6.5266769 86.34375,6.46875 86.31382,6.4561328 86.280178,6.4496442 86.25,6.4375 86.101154,6.3778961 85.935835,6.329002 85.78125,6.28125 85.75915,6.27441 85.74096,6.256596 85.71875,6.25 85.551474,6.20042 85.391936,6.160087 85.21875,6.125 85.2087,6.12295 85.19756,6.127 85.1875,6.125 85.003744,6.088771 84.814555,6.0503854 84.625,6.03125 84.422808,6.0108389 84.20775,6 84,6 l -9,0 z"
       inkscape:connector-curvature="0"
       id="path3670"
       style="opacity:0.25;fill:url(#linearGradient3802);fill-opacity:1;fill-rule:nonzero;stroke:none" />
  </g>
  <g
     id="layer3"
     style="display:inline">
    <path
       d="m 56,6 0,84 23,0 c 3.313708,0 6,-2.686292 6,-6 l 0,-12 c 0,-19.851157 5,-24.820378 5,-40 l 0,-16 0,-4 C 90,8.676 87.324,6 84,6 L 56,6 z"
       inkscape:connector-curvature="0"
       id="rect3973"
       style="opacity:0.5;fill:url(#radialGradient3023);fill-opacity:1;stroke:none" />
    <path
       d="m 90,32 c 0,15.179622 -5,20.148843 -5,40 l 0,12 c 0,3.313708 -2.686292,6 -6,6 l -23,0 0,-58 34,0 z"
       inkscape:connector-curvature="0"
       id="path3986"
       style="opacity:0.9;fill:url(#radialGradient3988-6);fill-opacity:1;stroke:none" />
    <path
       d="m 40,6 0,84 -23,0 c -3.313708,0 -6,-2.686292 -6,-6 L 11,72 C 11,52.148843 6,47.179622 6,32 L 6,16 6,12 C 6,8.676 8.676,6 12,6 l 28,0 z"
       inkscape:connector-curvature="0"
       id="path3990"
       style="opacity:0.5;fill:url(#radialGradient3994-8);fill-opacity:1;stroke:none" />
    <path
       d="m 6,32 c 0,15.179622 5,20.148843 5,40 l 0,12 c 0,3.313708 2.686292,6 6,6 l 23,0 0,-58 -34,0 z"
       inkscape:connector-curvature="0"
       id="path3992"
       style="opacity:0.9;fill:url(#radialGradient3996-1);fill-opacity:1;stroke:none" />
  </g>
</svg>
