<?xml version="1.0" encoding="UTF-8" standalone="no"?>
<svg xmlns="http://www.w3.org/2000/svg" height="96" width="96" version="1.1" xmlns:xlink="http://www.w3.org/1999/xlink">
 <defs>
  <linearGradient id="e" stop-color="#fff">
   <stop offset="0"/>
   <stop stop-opacity="0" offset="1"/>
  </linearGradient>
  <linearGradient id="d">
   <stop stop-color="#aaa" offset="0"/>
   <stop stop-color="#f0f0f0" offset="1"/>
  </linearGradient>
  <linearGradient id="f" y2="7.0165" gradientUnits="userSpaceOnUse" x2="45.448" gradientTransform="matrix(1.0059 0 0 .99417 100 0)" y1="92.54" x1="45.448">
   <stop offset="0"/>
   <stop stop-opacity=".58824" offset="1"/>
  </linearGradient>
  <linearGradient id="r" y2="90.239" xlink:href="#f" gradientUnits="userSpaceOnUse" x2="32.251" gradientTransform="matrix(1,0,0,-1,0,97)" y1="6.1317" x1="32.251"/>
  <linearGradient id="q" y2="90.239" xlink:href="#f" gradientUnits="userSpaceOnUse" x2="32.251" gradientTransform="matrix(1.0238,0,0,-1.0119,-1.1429,98.071)" y1="6.1317" x1="32.251"/>
  <radialGradient id="g" xlink:href="#e" gradientUnits="userSpaceOnUse" cy="90.172" cx="48" gradientTransform="matrix(1.1573 0 0 .99591 -7.551 .19713)" r="42"/>
  <linearGradient id="p" y2="63.893" xlink:href="#e" gradientUnits="userSpaceOnUse" x2="36.357" y1="6" x1="36.357"/>
  <linearGradient id="o" stop-color="#fff" y2="74" gradientUnits="userSpaceOnUse" x2="24" y1="54" x1="24">
   <stop offset="0"/>
   <stop stop-opacity="0" offset="1"/>
  </linearGradient>
  <linearGradient id="n" stop-color="#fff" y2="73" gradientUnits="userSpaceOnUse" x2="40" y1="42" x1="40">
   <stop offset="0"/>
   <stop stop-opacity="0" offset="1"/>
  </linearGradient>
  <linearGradient id="m" y2="73" xlink:href="#e" gradientUnits="userSpaceOnUse" x2="56" y1="30" x1="56"/>
  <linearGradient id="l" y2="72.009" xlink:href="#e" gradientUnits="userSpaceOnUse" x2="72" y1="18" x1="72"/>
  <linearGradient id="k" y2="-34" xlink:href="#d" gradientUnits="userSpaceOnUse" x2="24" gradientTransform="matrix(.75 0 0 .78947 4.5 79.579)" y1="-2" x1="24"/>
  <linearGradient id="j" y2="-50" xlink:href="#d" gradientUnits="userSpaceOnUse" x2="56" gradientTransform="matrix(.75 0 0 .75658 2.5 79.513)" y1="-2" x1="56"/>
  <linearGradient id="i" y2="-66" xlink:href="#d" gradientUnits="userSpaceOnUse" x2="72" gradientTransform="matrix(.75 0 0 .74013 .61111 79.48)" y1="-2" x1="72"/>
  <linearGradient id="h" y2="-82" xlink:href="#d" gradientUnits="userSpaceOnUse" x2="96" gradientTransform="matrix(.75 0 0 .75 -1.5 79.5)" y1="-2" x1="96"/>
 </defs>
 <g fill="url(#q)">
  <path opacity="0.08" d="m12 3.9688c-5.5111 0-10.031 4.5201-10.031 10.031v71c0 5.5111 4.5202 10.031 10.031 10.031h72c5.5111 0 10.031-4.5202 10.031-10.031v-71c0-5.5113-4.52-10.031-10.031-10.031h-72zm0 2.0312h72c3.324 0 6 2.676 6 6v72c0 3.324-2.676 6-6 6h-72c-3.324 0-6-2.676-6-6v-72c0-3.324 2.676-6 6-6z"/>
  <path opacity=".1" d="m12 4.9688c-4.9716 0-9.0312 4.0596-9.0312 9.0312v71c0 4.9716 4.0596 9.0312 9.0312 9.0312h72c4.9716 0 9.0312-4.0596 9.0312-9.0312v-71c0-4.9716-4.059-9.0312-9.031-9.0312h-72zm0 1.0312h72c3.324 0 6 2.676 6 6v72c0 3.324-2.676 6-6 6h-72c-3.324 0-6-2.676-6-6v-72c0-3.324 2.676-6 6-6z"/>
  <path opacity=".2" d="m11.188 6.0312c-4.028 0.4107-7.188 3.8352-7.188 7.9688v71c0 4.4091 3.5909 8 8 8h72c4.4091 0 8-3.5909 8-8v-71c0-4.1971-3.259-7.646-7.375-7.9688 3.033 0.3062 5.375 2.8526 5.375 5.9688v72c0 3.324-2.676 6-6 6h-72c-3.324 0-6-2.676-6-6v-72c0-3.1162 2.3421-5.6626 5.375-5.9688-0.06227 0.00488-0.12563-0.00631-0.1875 0z"/>
  <path opacity=".3" d="m6.4375 9.75c-0.8995 1.177-1.4375 2.647-1.4375 4.25v71c0 3.878 3.122 7 7 7h72c3.878 0 7-3.122 7-7v-71c0-1.603-0.538-3.073-1.438-4.25 0.28 0.694 0.438 1.454 0.438 2.25v72c0 3.324-2.676 6-6 6h-72c-3.324 0-6-2.676-6-6v-72c0-0.796 0.1582-1.556 0.4375-2.25z"/>
 </g>
 <path opacity=".45" d="m6 84v1c0 3.324 2.676 6 6 6h72c3.324 0 6-2.676 6-6v-1c0 3.324-2.676 6-6 6h-72c-3.324 0-6-2.676-6-6z" fill="url(#r)"/>
 <rect opacity=".6" rx="6" ry="6" height="84" width="84" y="6" x="6"/>
 <path opacity="0.01" d="m12 6c-3.324 0-6 2.676-6 6v72c0 0.33472 0.04135 0.6507 0.09375 0.96875 0.0487 0.2956 0.09704 0.59692 0.1875 0.875 0.00988 0.03038 0.020892 0.0636 0.03125 0.09375 0.098865 0.28777 0.23488 0.54745 0.375 0.8125 0.14459 0.27351 0.31562 0.53562 0.5 0.78125 0.18438 0.24564 0.37378 0.47347 0.59375 0.6875 0.43995 0.42806 0.94291 0.81453 1.5 1.0938 0.27854 0.13961 0.57347 0.24695 0.875 0.34375-0.2562-0.10022-0.48671-0.23627-0.71875-0.375-0.00741-0.0044-0.023866 0.0045-0.03125 0-0.0319-0.019-0.0622-0.042-0.0937-0.062-0.1204-0.077-0.231-0.164-0.3437-0.25-0.1062-0.081-0.2133-0.161-0.3126-0.25-0.1778-0.162-0.3473-0.346-0.4999-0.531-0.1075-0.131-0.2183-0.266-0.3124-0.407-0.0251-0.038-0.0385-0.086-0.0626-0.125-0.0647-0.103-0.1302-0.204-0.1874-0.312-0.1011-0.195-0.2057-0.416-0.2813-0.625-0.008-0.022-0.0236-0.041-0.0313-0.063-0.0318-0.092-0.0358-0.187-0.0624-0.281-0.0304-0.107-0.0704-0.203-0.0938-0.313-0.0729-0.341-0.125-0.698-0.125-1.062v-72c0-2.782 2.2182-5 5-5h72c2.7818 0 5 2.2182 5 5v72c0 0.3643-0.05212 0.72099-0.125 1.0625-0.04415 0.20689-0.08838 0.39766-0.15625 0.59375-0.0077 0.02195-0.0233 0.04069-0.03125 0.0625-0.06274 0.17374-0.13838 0.36745-0.21875 0.53125-0.04158 0.0828-0.07904 0.16995-0.125 0.25-0.0546 0.09721-0.12677 0.18835-0.1875 0.28125-0.09411 0.14096-0.20492 0.276-0.3125 0.40625-0.14317 0.17445-0.30314 0.347-0.46875 0.5-0.01117 0.0102-0.01998 0.02115-0.03125 0.03125-0.13839 0.12556-0.28509 0.23444-0.4375 0.34375-0.10257 0.07315-0.20432 0.15336-0.3125 0.21875-0.0074 0.0045-0.02384-0.0044-0.03125 0-0.23204 0.13873-0.46255 0.27478-0.71875 0.375 0.30153-0.0968 0.59646-0.20414 0.875-0.34375 0.55709-0.27922 1.0601-0.66569 1.5-1.0938 0.21997-0.21403 0.40937-0.44186 0.59375-0.6875s0.35541-0.50774 0.5-0.78125c0.14012-0.26505 0.27614-0.52473 0.375-0.8125 0.01041-0.03078 0.02133-0.06274 0.03125-0.09375 0.09046-0.27808 0.1388-0.5794 0.1875-0.875 0.053-0.318 0.094-0.634 0.094-0.969v-72c0-3.324-2.676-6-6-6h-72z" fill="url(#p)"/>
 <path opacity=".15" d="m12 90c-3.324 0-6-2.676-6-6v-72c0-0.33472 0.04135-0.6507 0.09375-0.96875 0.0487-0.2956 0.09704-0.59692 0.1875-0.875 0.0099-0.03 0.0209-0.063 0.0313-0.094 0.0989-0.2873 0.2349-0.547 0.375-0.812 0.1446-0.2735 0.3156-0.5356 0.5-0.7812 0.1844-0.2457 0.3738-0.4735 0.5937-0.6876 0.44-0.428 0.943-0.8145 1.5-1.0937 0.2786-0.1396 0.5735-0.2469 0.8748-0.3437-0.256 0.1002-0.4865 0.2362-0.7185 0.375-0.00741 0.0044-0.023866-0.0045-0.03125 0-0.031933 0.0193-0.062293 0.04251-0.09375 0.0625-0.1204 0.0767-0.23102 0.16351-0.34375 0.25-0.10617 0.0808-0.21328 0.16111-0.3125 0.25-0.1779 0.1614-0.3474 0.3453-0.5 0.5312-0.1075 0.1303-0.2183 0.2653-0.3124 0.4063-0.0251 0.0383-0.0385 0.0858-0.0626 0.125-0.0647 0.103-0.1302 0.2045-0.1874 0.3124-0.1011 0.1948-0.2057 0.4158-0.2813 0.625-0.008 0.0219-0.0236 0.0406-0.0313 0.0626-0.0318 0.0919-0.0358 0.1868-0.0624 0.2812-0.0304 0.1066-0.0704 0.203-0.0938 0.3125-0.0729 0.3415-0.125 0.6985-0.125 1.0625v72c0 2.7818 2.2182 5 5 5h72c2.7818 0 5-2.2182 5-5v-72c0-0.364-0.052-0.721-0.125-1.0625-0.044-0.2069-0.088-0.3977-0.156-0.5937-0.008-0.022-0.024-0.0407-0.031-0.0626-0.063-0.1737-0.139-0.3674-0.219-0.5312-0.042-0.0828-0.079-0.17-0.125-0.25-0.055-0.0972-0.127-0.1884-0.188-0.2812-0.094-0.141-0.205-0.276-0.312-0.4063-0.143-0.1745-0.303-0.347-0.469-0.5-0.011-0.0102-0.02-0.0211-0.031-0.0313-0.139-0.1255-0.285-0.2344-0.438-0.3437-0.102-0.0731-0.204-0.1534-0.312-0.2187-0.0074-0.0045-0.02384 0.0044-0.03125 0-0.23204-0.13873-0.46255-0.27478-0.71875-0.375 0.30153 0.0968 0.59646 0.20414 0.875 0.34375 0.55709 0.27922 1.0601 0.66569 1.5 1.0938 0.21997 0.21403 0.40937 0.44186 0.59375 0.6875s0.35541 0.50774 0.5 0.78125c0.14012 0.26505 0.27614 0.52473 0.375 0.8125 0.01041 0.03078 0.02133 0.06274 0.03125 0.09375 0.09046 0.27808 0.1388 0.5794 0.1875 0.875 0.053 0.318 0.094 0.634 0.094 0.969v72c0 3.324-2.676 6-6 6h-72z" fill="url(#g)"/>
 <path opacity="0.08" d="m69 16c-3.2948 0-6 2.7052-6 6v7.4688c-1.034-0.914-2.384-1.469-3.875-1.469h-6.125c-3.2833 0-6 2.6799-6 5.9688v7.625c-1.063-0.968-2.456-1.594-4-1.594h-6c-3.3103 0-6 2.7349-6 6.0312v7.625c-1.057-0.995-2.431-1.656-4-1.656h-6c-3.3632 0-6 2.8431-6 6.1562v17.688c0 3.313 2.637 6.156 6 6.156h6c2.15 0 3.9133-1.2353 4.9688-2.9375 1.055 1.721 2.873 2.938 5.031 2.938h6c2.1414 0 3.9397-1.2072 5-2.9062 1.063 1.697 2.863 2.906 5 2.906h6.125c2.1032 0 3.8817-1.1579 4.9375-2.8125 1.055 1.658 2.831 2.812 4.938 2.812h6c3.2948 0 6-2.7052 6-6v-54c0-3.2948-2.7052-6-6-6h-6z"/>
 <path opacity=".1" d="m69 17c-2.7545 0-5 2.2455-5 5v11.312c-0.34-2.422-2.361-4.312-4.875-4.312h-6.125c-2.7465 0-5 2.2241-5 4.9688v12.062c0-2.76-2.234-5.031-5-5.031h-6c-2.766 0-5 2.2714-5 5.0312v12.125c0-2.792-2.196-5.156-5-5.156h-6c-2.8044 0-5 2.3644-5 5.1562v17.688c0 2.792 2.196 5.156 5 5.156h6c2.8044 0 5-2.3644 5-5.1562v0.125c0 2.76 2.234 5.031 5 5.031h6c2.7445 0 4.9654-2.2378 5-4.9688 0 2.745 2.253 4.969 5 4.969h6.125c2.6356 0 4.7646-2.0643 4.9375-4.6562 0.188 2.587 2.305 4.656 4.938 4.656h6c2.7545 0 5-2.2455 5-5v-54c0-2.7545-2.2455-5-5-5h-6z"/>
 <path opacity=".15" d="m69 18.062c-2.169 0-3.9375 1.7685-3.9375 3.9375v54c0 2.169 1.7685 3.9375 3.9375 3.9375h6c2.169 0 3.9375-1.7685 3.9375-3.9375v-54c0-2.17-1.769-3.938-3.938-3.938h-6zm-16 12c-2.1654 0-3.9375 1.7524-3.9375 3.9062v42.062c0 2.1539 1.7721 3.9062 3.9375 3.9062h6.125c2.1654 0 3.9375-1.7524 3.9375-3.9062v-42.062c0-2.1539-1.7721-3.9062-3.9375-3.9062h-6.124zm-16 12c-2.1753 0-3.9375 1.7896-3.9375 3.9688v29.938c0 2.1792 1.7622 3.9688 3.9375 3.9688h6c2.1753 0 3.9375-1.7896 3.9375-3.9688v-29.938c0-2.179-1.763-3.969-3.938-3.969h-6zm-16 12c-2.1951 0-3.9375 1.8626-3.9375 4.0938v17.688c0 2.2311 1.7424 4.0938 3.9375 4.0938h6c2.1951 0 3.9375-1.8626 3.9375-4.0938v-17.688c0-2.231-1.743-4.094-3.938-4.094h-6z"/>
 <path opacity=".3" d="m69 19c-1.662 0-3 1.338-3 3v54c0 1.662 1.338 3 3 3h6c1.662 0 3-1.338 3-3v-54c0-1.662-1.338-3-3-3h-6zm-16 12c-1.662 0-3 1.3286-3 2.9688v42.062c0 1.64 1.338 2.969 3 2.969h6.125c1.662 0 3-1.3286 3-2.9688v-42.062c0-1.64-1.338-2.969-3-2.969h-6.125zm-16 12c-1.662 0-3 1.3547-3 3.0312v29.938c0 1.676 1.338 3.031 3 3.031h6c1.662 0 3-1.3547 3-3.0312v-29.938c0-1.676-1.338-3.031-3-3.031h-6zm-16 12c-1.662 0-3 1.4068-3 3.1562v17.688c0 1.749 1.338 3.156 3 3.156h6c1.662 0 3-1.4068 3-3.1562v-17.688c0-1.749-1.338-3.156-3-3.156h-6z"/>
 <rect rx="3" ry="3" height="60" width="12" y="18" x="66" fill="url(#h)"/>
 <rect rx="3" ry="3" height="48" width="12" y="30" x="50" fill="url(#i)"/>
 <rect rx="3" ry="3" height="36" width="12" y="42" x="34" fill="url(#j)"/>
 <rect rx="3" ry="3" height="24" width="12" y="54" x="18" fill="url(#k)"/>
 <path opacity=".6" d="m69 18c-1.662 0-3 1.338-3 3v54c0 1.662 1.338 3 3 3h6c1.662 0 3-1.338 3-3v-54c0-1.662-1.338-3-3-3h-6zm0 1.0625h6c1.0839 0 1.9375 0.85356 1.9375 1.9375v54c0 1.0839-0.85356 1.9375-1.9375 1.9375h-6c-1.0839 0-1.9375-0.85356-1.9375-1.9375v-54c0-1.0839 0.85356-1.9375 1.9375-1.9375z" fill="url(#l)"/>
 <path opacity=".6" d="m53 30c-1.662 0-3 1.3286-3 2.9688v42.062c0 1.64 1.338 2.969 3 2.969h6.125c1.662 0 3-1.3286 3-2.9688v-42.062c0-1.64-1.338-2.969-3-2.969h-6.125zm0 1h6.125c1.1321 0 2 0.86933 2 1.9688v42.062c0 1.1-0.868 1.969-2 1.969h-6.125c-1.1321 0-2-0.86933-2-1.9688v-42.062c0-1.1 0.868-1.969 2-1.969z" fill="url(#m)"/>
 <path opacity=".6" d="m37 42c-1.662 0-3 1.3547-3 3.0312v29.938c0 1.676 1.338 3.031 3 3.031h6c1.662 0 3-1.3547 3-3.0312v-29.938c0-1.676-1.338-3.031-3-3.031h-6zm0 1h6c1.1218 0 2 0.88363 2 2.0312v29.938c0 1.147-0.878 2.031-2 2.031h-6c-1.1218 0-2-0.88363-2-2.0312v-29.938c0-1.147 0.878-2.031 2-2.031z" fill="url(#n)"/>
 <path opacity=".6" d="m21 54c-1.662 0-3 1.4068-3 3.1562v17.688c0 1.749 1.338 3.156 3 3.156h6c1.662 0 3-1.4068 3-3.1562v-17.688c0-1.749-1.338-3.156-3-3.156h-6zm0 1.0625h6c1.0542 0 1.9375 0.89344 1.9375 2.0938v17.688c0 1.2003-0.88328 2.0938-1.9375 2.0938h-6c-1.0542 0-1.9375-0.89344-1.9375-2.0938v-17.688c0-1.2003 0.88328-2.0938 1.9375-2.0938z" fill="url(#o)"/>
</svg>
