<?xml version="1.0" encoding="UTF-8" standalone="no"?>
<!-- Created with Inkscape (http://www.inkscape.org/) -->

<svg
   xmlns:dc="http://purl.org/dc/elements/1.1/"
   xmlns:cc="http://creativecommons.org/ns#"
   xmlns:rdf="http://www.w3.org/1999/02/22-rdf-syntax-ns#"
   xmlns:svg="http://www.w3.org/2000/svg"
   xmlns="http://www.w3.org/2000/svg"
   xmlns:xlink="http://www.w3.org/1999/xlink"
   xmlns:inkscape="http://www.inkscape.org/namespaces/inkscape"
   version="1.0"
   width="96"
   height="96"
   id="svg2408">
  <defs
     id="defs2410">
    <linearGradient
       id="linearGradient3819">
      <stop
         id="stop3821"
         style="stop-color:#000000;stop-opacity:1"
         offset="0" />
      <stop
         id="stop3823"
         style="stop-color:#000000;stop-opacity:0"
         offset="1" />
    </linearGradient>
    <linearGradient
       id="linearGradient3756">
      <stop
         id="stop3758"
         style="stop-color:#dbff9a;stop-opacity:1"
         offset="0" />
      <stop
         id="stop3772"
         style="stop-color:#dfffa7;stop-opacity:1"
         offset="0.17644246" />
      <stop
         id="stop3774"
         style="stop-color:#c1ff53;stop-opacity:1"
         offset="0.29336214" />
      <stop
         id="stop3776"
         style="stop-color:#82c50c;stop-opacity:1"
         offset="0.49318853" />
      <stop
         id="stop3764"
         style="stop-color:#609501;stop-opacity:1"
         offset="0.75466347" />
      <stop
         id="stop3760"
         style="stop-color:#7cbf06;stop-opacity:1"
         offset="1" />
    </linearGradient>
    <linearGradient
       x1="45.447727"
       y1="92.539597"
       x2="45.447727"
       y2="7.0165396"
       id="ButtonShadow"
       gradientUnits="userSpaceOnUse"
       gradientTransform="scale(1.0058652,0.994169)">
      <stop
         id="stop3750"
         style="stop-color:#000000;stop-opacity:1"
         offset="0" />
      <stop
         id="stop3752"
         style="stop-color:#000000;stop-opacity:0.58823532"
         offset="1" />
    </linearGradient>
    <linearGradient
       id="linearGradient3737">
      <stop
         id="stop3739"
         style="stop-color:#ffffff;stop-opacity:1"
         offset="0" />
      <stop
         id="stop3741"
         style="stop-color:#ffffff;stop-opacity:0"
         offset="1" />
    </linearGradient>
    <linearGradient
       id="linearGradient3700">
      <stop
         id="stop3702"
         style="stop-color:#222222;stop-opacity:1"
         offset="0" />
      <stop
         id="stop3704"
         style="stop-color:#333333;stop-opacity:1"
         offset="1" />
    </linearGradient>
    <filter
       color-interpolation-filters="sRGB"
       id="filter3174">
      <feGaussianBlur
         id="feGaussianBlur3176"
         stdDeviation="1.71" />
    </filter>
    <filter
       x="-0.192"
       y="-0.192"
       width="1.3839999"
       height="1.3839999"
       color-interpolation-filters="sRGB"
       id="filter3794">
      <feGaussianBlur
         id="feGaussianBlur3796"
         stdDeviation="5.28" />
    </filter>
    <linearGradient
       x1="48"
       y1="20.220806"
       x2="48"
       y2="138.66119"
       id="linearGradient3613"
       xlink:href="#linearGradient3737"
       gradientUnits="userSpaceOnUse" />
    <radialGradient
       cx="48"
       cy="90.171875"
       r="42"
       fx="48"
       fy="90.171875"
       id="radialGradient3619"
       xlink:href="#linearGradient3737"
       gradientUnits="userSpaceOnUse"
       gradientTransform="matrix(1.1573129,0,0,0.99590774,-7.5510206,0.19713193)" />
    <clipPath
       id="clipPath3613">
      <rect
         width="84"
         height="84"
         rx="6"
         ry="6"
         x="6"
         y="6"
         id="rect3615"
         style="fill:#ffffff;fill-opacity:1;fill-rule:nonzero;stroke:none" />
    </clipPath>
    <linearGradient
       x1="48"
       y1="90"
       x2="48"
       y2="5.9877172"
       id="linearGradient3617"
       xlink:href="#linearGradient3700"
       gradientUnits="userSpaceOnUse" />
    <linearGradient
       x1="65.928574"
       y1="6"
       x2="65.928574"
       y2="90.001488"
       id="linearGradient3762"
       xlink:href="#linearGradient3756"
       gradientUnits="userSpaceOnUse" />
    <filter
       color-interpolation-filters="sRGB"
       id="filter3795">
      <feGaussianBlur
         id="feGaussianBlur3797"
         stdDeviation="1.215" />
    </filter>
    <clipPath
       id="clipPath3805">
      <rect
         width="80.307129"
         height="41.668793"
         rx="6"
         ry="4.4196429"
         x="7.8286824"
         y="28.31978"
         id="rect3807"
         style="fill:#ffffff;fill-opacity:1;stroke:none" />
    </clipPath>
    <linearGradient
       x1="-41"
       y1="48"
       x2="-35"
       y2="48"
       id="linearGradient3825"
       xlink:href="#linearGradient3819"
       gradientUnits="userSpaceOnUse"
       gradientTransform="matrix(0.66666667,0,0,1,-13.666667,0)" />
    <linearGradient
       x1="-41"
       y1="48"
       x2="-35"
       y2="48"
       id="linearGradient3829"
       xlink:href="#linearGradient3737"
       gradientUnits="userSpaceOnUse"
       gradientTransform="matrix(0.50000001,0,0,1,61.499999,0)" />
    <linearGradient
       x1="36.357143"
       y1="6"
       x2="36.357143"
       y2="63.893143"
       id="linearGradient3868"
       xlink:href="#linearGradient3737"
       gradientUnits="userSpaceOnUse" />
    <linearGradient
       x1="36.357143"
       y1="6"
       x2="36.357143"
       y2="63.893143"
       id="linearGradient3875"
       xlink:href="#linearGradient3737"
       gradientUnits="userSpaceOnUse" />
    <linearGradient
       x1="45.447727"
       y1="92.539597"
       x2="45.447727"
       y2="7.0165396"
       id="ButtonShadow-0"
       gradientUnits="userSpaceOnUse"
       gradientTransform="matrix(1.0058652,0,0,0.994169,100,0)">
      <stop
         id="stop3750-8"
         style="stop-color:#000000;stop-opacity:1"
         offset="0" />
      <stop
         id="stop3752-5"
         style="stop-color:#000000;stop-opacity:0.58823532"
         offset="1" />
    </linearGradient>
    <linearGradient
       x1="32.251034"
       y1="6.1317081"
       x2="32.251034"
       y2="90.238609"
       id="linearGradient3780"
       xlink:href="#ButtonShadow-0"
       gradientUnits="userSpaceOnUse"
       gradientTransform="matrix(1.0238095,0,0,1.0119048,-1.1428571,-98.071429)" />
    <linearGradient
       x1="32.251034"
       y1="6.1317081"
       x2="32.251034"
       y2="90.238609"
       id="linearGradient3772"
       xlink:href="#ButtonShadow-0"
       gradientUnits="userSpaceOnUse"
       gradientTransform="matrix(1.0238095,0,0,1.0119048,-1.1428571,-98.071429)" />
    <linearGradient
       x1="32.251034"
       y1="6.1317081"
       x2="32.251034"
       y2="90.238609"
       id="linearGradient3725"
       xlink:href="#ButtonShadow-0"
       gradientUnits="userSpaceOnUse"
       gradientTransform="matrix(1.0238095,0,0,1.0119048,-1.1428571,-98.071429)" />
    <linearGradient
       x1="32.251034"
       y1="6.1317081"
       x2="32.251034"
       y2="90.238609"
       id="linearGradient3721"
       xlink:href="#ButtonShadow-0"
       gradientUnits="userSpaceOnUse"
       gradientTransform="translate(0,-97)" />
    <linearGradient
       x1="32.251034"
       y1="6.1317081"
       x2="32.251034"
       y2="90.238609"
       id="linearGradient3071"
       xlink:href="#ButtonShadow-0"
       gradientUnits="userSpaceOnUse"
       gradientTransform="matrix(1.0238095,0,0,1.0119048,-1.1428571,-98.071429)" />
  </defs>
  <metadata
     id="metadata2413">
    <rdf:RDF>
      <cc:Work
         rdf:about="">
        <dc:format>image/svg+xml</dc:format>
        <dc:type
           rdf:resource="http://purl.org/dc/dcmitype/StillImage" />
      </cc:Work>
    </rdf:RDF>
  </metadata>
  <g
     id="layer2"
     style="display:none">
    <rect
       width="86"
       height="85"
       rx="6"
       ry="6"
       x="5"
       y="7"
       id="rect3745"
       style="opacity:0.9;fill:url(#ButtonShadow);fill-opacity:1;fill-rule:nonzero;stroke:none;filter:url(#filter3174)" />
  </g>
  <g
     id="layer4"
     style="display:inline">
    <path
       d="m 12,-95.03125 c -5.5110903,0 -10.03125,4.52016 -10.03125,10.03125 l 0,71 c 0,5.5110902 4.5201598,10.03125 10.03125,10.03125 l 72,0 c 5.51109,0 10.03125,-4.5201597 10.03125,-10.03125 l 0,-71 c 0,-5.51109 -4.52016,-10.03125 -10.03125,-10.03125 l -72,0 z"
       transform="scale(1,-1)"
       id="path3786"
       style="opacity:0.07999998;fill:url(#linearGradient3071);fill-opacity:1;fill-rule:nonzero;stroke:none;display:inline" />
    <path
       d="m 12,-94.03125 c -4.971633,0 -9.03125,4.059617 -9.03125,9.03125 l 0,71 c 0,4.9716329 4.0596171,9.03125 9.03125,9.03125 l 72,0 c 4.971633,0 9.03125,-4.059617 9.03125,-9.03125 l 0,-71 c 0,-4.971633 -4.059617,-9.03125 -9.03125,-9.03125 l -72,0 z"
       transform="scale(1,-1)"
       id="path3778"
       style="opacity:0.1;fill:url(#linearGradient3780);fill-opacity:1;fill-rule:nonzero;stroke:none;display:inline" />
    <path
       d="m 12,-93 c -4.4091333,0 -8,3.590867 -8,8 l 0,71 c 0,4.4091333 3.5908667,8 8,8 l 72,0 c 4.409133,0 8,-3.5908667 8,-8 l 0,-71 c 0,-4.409133 -3.590867,-8 -8,-8 l -72,0 z"
       transform="scale(1,-1)"
       id="path3770"
       style="opacity:0.2;fill:url(#linearGradient3772);fill-opacity:1;fill-rule:nonzero;stroke:none;display:inline" />
    <rect
       width="86"
       height="85"
       rx="7"
       ry="7"
       x="5"
       y="-92"
       transform="scale(1,-1)"
       id="rect3723"
       style="opacity:0.3;fill:url(#linearGradient3725);fill-opacity:1;fill-rule:nonzero;stroke:none;display:inline" />
    <rect
       width="84"
       height="84"
       rx="6"
       ry="6"
       x="6"
       y="-91"
       transform="scale(1,-1)"
       id="rect3716"
       style="opacity:0.45;fill:url(#linearGradient3721);fill-opacity:1;fill-rule:nonzero;stroke:none;display:inline" />
  </g>
  <g
     id="layer1"
     style="display:inline">
    <rect
       width="84"
       height="84"
       rx="6"
       ry="6"
       x="6"
       y="6"
       id="rect2419"
       style="fill:url(#linearGradient3617);fill-opacity:1;fill-rule:nonzero;stroke:none" />
  </g>
  <g
     id="layer3">
    <path
       d="m 41.09375,7 0,23.15625 c 0.45785,-0.03541 0.91464,-0.07808 1.375,-0.09375 C 60.20044,29.464883 71.75,44.625 71.75,44.625 c 0,0 -13.26928,16.125 -27.09375,16.125 -1.26699,0 -2.44843,-0.115384 -3.5625,-0.3125 l 0,4.3125 c 0.95268,0.120965 1.93805,0.1875 2.96875,0.1875 12.86459,0 22.17906,-6.56784 31.1875,-14.34375 1.49357,1.196173 7.61803,4.100795 8.875,5.375 -8.56532,7.171087 -28.52664,12.96875 -39.84375,12.96875 -1.09088,0 -2.15773,-0.08816 -3.1875,-0.1875 l 0,22.25 L 84,91 c 3.324,0 6,-2.676 6,-6 L 90,13 C 90,9.676 87.324,7 84,7 L 41.09375,7 z m 0,61.75 0,-4 c -15.74361,-1.980878 -21.125,-19.34375 -21.125,-19.34375 0,0 7.04388,-10.392601 21.125,-11.46875 l 0,-3.78125 C 25.49712,31.408832 12,44.625 12,44.625 c 0,0 7.64066,22.100249 29.09375,24.125 z m 0,-34.8125 0,4.65625 c 0.83391,-0.08932 1.70531,-0.15625 2.59375,-0.15625 8.16763,0 13,6.34375 13,6.34375 l -6.625,5.625 C 47.07818,45.431334 46.0577,43.22481 41.09375,42.625 l 0,14.125 c 1.12504,0.37825 2.38702,0.625 3.78125,0.625 9.68785,0 18.71875,-12.5625 18.71875,-12.5625 0,0 -8.37418,-11.338 -21.125,-10.9375 -0.46631,0.01473 -0.92185,0.03085 -1.375,0.0625 z m 0,22.8125 c -6.70822,-2.253833 -8.875,-10.0625 -8.875,-10.0625 0,0 3.89507,-4.660116 8.875,-4.0625 l 0,-4.03125 c -9.48822,1.026008 -15.1875,7.34375 -15.1875,7.34375 0,0 3.28907,12.378727 15.1875,14.5 l 0,-3.6875 z"
       inkscape:connector-curvature="0"
       clip-path="url(#clipPath3805)"
       id="path3782"
       style="fill:#000000;fill-opacity:1;fill-rule:nonzero;stroke-width:0;stroke-linecap:butt;stroke-linejoin:miter;stroke-miterlimit:10;filter:url(#filter3795)" />
    <path
       d="m 41.09375,6 0,23.15625 c 0.45785,-0.03541 0.91464,-0.07808 1.375,-0.09375 C 60.20044,28.464883 71.75,43.625 71.75,43.625 c 0,0 -13.26928,16.125 -27.09375,16.125 -1.26699,0 -2.44843,-0.115384 -3.5625,-0.3125 l 0,4.3125 c 0.95268,0.120965 1.93805,0.1875 2.96875,0.1875 12.86459,0 22.17906,-6.56784 31.1875,-14.34375 1.49357,1.196173 7.61803,4.100795 8.875,5.375 -8.56532,7.171087 -28.52664,12.96875 -39.84375,12.96875 -1.09088,0 -2.15773,-0.08816 -3.1875,-0.1875 l 0,22.25 L 84,90 c 3.324,0 6,-2.676 6,-6 L 90,12 C 90,8.676 87.324,6 84,6 L 41.09375,6 z m 0,61.75 0,-4 c -15.74361,-1.980878 -21.125,-19.34375 -21.125,-19.34375 0,0 7.04388,-10.392601 21.125,-11.46875 l 0,-3.78125 C 25.49712,30.408832 12,43.625 12,43.625 c 0,0 7.64066,22.100249 29.09375,24.125 z m 0,-34.8125 0,4.65625 c 0.83391,-0.08932 1.70531,-0.15625 2.59375,-0.15625 8.16763,0 13,6.34375 13,6.34375 l -6.625,5.625 C 47.07818,44.431334 46.0577,42.22481 41.09375,41.625 l 0,14.125 c 1.12504,0.37825 2.38702,0.625 3.78125,0.625 9.68785,0 18.71875,-12.5625 18.71875,-12.5625 0,0 -8.37418,-11.338 -21.125,-10.9375 -0.46631,0.01473 -0.92185,0.03085 -1.375,0.0625 z m 0,22.8125 c -6.70822,-2.253833 -8.875,-10.0625 -8.875,-10.0625 0,0 3.89507,-4.660116 8.875,-4.0625 l 0,-4.03125 c -9.48822,1.026008 -15.1875,7.34375 -15.1875,7.34375 0,0 3.28907,12.378727 15.1875,14.5 l 0,-3.6875 z"
       inkscape:connector-curvature="0"
       id="path21"
       style="fill:url(#linearGradient3762);fill-opacity:1;fill-rule:nonzero;stroke-width:0;stroke-linecap:butt;stroke-linejoin:miter;stroke-miterlimit:10" />
    <path
       d="M 41.09375,29.15625 C 25.49712,30.408832 12,43.625 12,43.625 c 0,0 0.133774,0.377176 0.28125,0.75 1.391896,-1.321508 14.088333,-13.036236 28.8125,-14.21875 l 0,-1 z m 1.375,3.71875 c -0.46631,0.01473 -0.92185,0.03085 -1.375,0.0625 l 0,1 c 0.45315,-0.03165 0.90869,-0.04777 1.375,-0.0625 11.156968,-0.350437 18.972802,8.272812 20.75,10.4375 0.233108,-0.302786 0.375,-0.5 0.375,-0.5 0,0 -8.37418,-11.338 -21.125,-10.9375 z m -1.375,4.71875 c -9.48822,1.026008 -15.1875,7.34375 -15.1875,7.34375 0,0 0.06756,0.30706 0.21875,0.75 1.09829,-1.114652 6.527506,-6.180957 14.96875,-7.09375 l 0,-1 z m 0,4.03125 0,1 c 4.96395,0.59981 5.98443,2.806334 8.96875,7.78125 l 6.625,-5.625 c 0,0 -0.198936,-0.260014 -0.5,-0.59375 l -6.125,5.21875 C 47.07818,44.431334 46.0577,42.22481 41.09375,41.625 z m 30.25,2.46875 C 69.356619,46.396591 57.300732,59.75 44.65625,59.75 c -1.26699,0 -2.44843,-0.115384 -3.5625,-0.3125 l 0,1 c 1.11407,0.197116 2.29551,0.3125 3.5625,0.3125 13.82447,0 27.09375,-16.125 27.09375,-16.125 0,0 -0.185185,-0.264221 -0.40625,-0.53125 z m -51.15625,1 c -0.103144,0.139838 -0.21875,0.3125 -0.21875,0.3125 0,0 5.38139,17.362872 21.125,19.34375 l 0,-1 C 27.145896,61.995066 21.332513,48.225438 20.1875,45.09375 z m 12.28125,1.34375 c -0.05952,0.06661 -0.25,0.25 -0.25,0.25 0,0 2.16678,7.808667 8.875,10.0625 l 0,-1 c -5.49314,-1.845589 -7.918431,-7.355105 -8.625,-9.3125 z m 51.03125,9 c -8.861762,6.948918 -28.154254,12.5 -39.21875,12.5 -1.09088,0 -2.15773,-0.08816 -3.1875,-0.1875 l 0,1 c 1.02977,0.09934 2.09662,0.1875 3.1875,0.1875 11.31711,0 31.27843,-5.797663 39.84375,-12.96875 C 83.979935,55.821696 83.760126,55.622853 83.5,55.4375 z"
       inkscape:connector-curvature="0"
       id="path3766"
       style="opacity:0.6;fill:#ffffff;fill-opacity:1;fill-rule:nonzero;stroke-width:0;stroke-linecap:butt;stroke-linejoin:miter;stroke-miterlimit:10" />
    <path
       d="m 41.09375,6 0,23.15625 c 0.45785,-0.03541 0.91464,-0.07808 1.375,-0.09375 0.512295,-0.01727 1.029405,-0.0083 1.53125,0 L 44,6 41.09375,6 z m 0,23.15625 c -0.03076,0.0025 -0.063,-0.0026 -0.09375,0 l 0,3.78125 c 0.03108,-0.0025 0.0626,0.0024 0.09375,0 l 0,-3.78125 z m 0,3.78125 0,4.65625 c 0.83391,-0.08932 1.70531,-0.15625 2.59375,-0.15625 0.106165,0 0.207465,-0.0021 0.3125,0 l 0,-4.53125 c -0.502494,-0.02084 -1.01409,-0.04749 -1.53125,-0.03125 -0.46631,0.01473 -0.92185,0.03085 -1.375,0.0625 z m 0,4.65625 c -0.03168,0.0034 -0.06216,-0.0035 -0.09375,0 l 0,4.03125 c 0.03196,0.0034 0.06171,-0.0038 0.09375,0 l 0,-4.03125 z m 0,4.03125 0,14.125 c 0.886356,0.298002 1.852191,0.51535 2.90625,0.59375 l 0,-14 C 43.191754,42.009628 42.261633,41.766119 41.09375,41.625 z m 0,14.125 C 41.06237,55.739457 41.031181,55.729535 41,55.71875 l 0,3.6875 c 0.03256,0.006 0.06106,0.02542 0.09375,0.03125 l 0,-3.6875 z m 0,3.6875 0,4.3125 c 0.932867,0.118449 1.898827,0.184795 2.90625,0.1875 l 0,-4.21875 C 42.983009,59.68587 42.009586,59.599542 41.09375,59.4375 z m 0,4.3125 C 41.06239,63.7461 41.03128,63.7541 41,63.75 l 0,4 c 0.03136,0.0031 0.06233,-0.003 0.09375,0 l 0,-4 z m 0,4 0,22.25 L 44,90 44,67.9375 C 43.007267,67.92411 42.034537,67.84076 41.09375,67.75 z"
       inkscape:connector-curvature="0"
       id="rect3827"
       style="opacity:0.6;fill:url(#linearGradient3829);fill-opacity:1;stroke:none" />
    <rect
       width="4"
       height="84"
       x="-41"
       y="6"
       transform="scale(-1,1)"
       id="rect3809"
       style="opacity:0.6;fill:url(#linearGradient3825);fill-opacity:1;stroke:none" />
  </g>
  <g
     id="layer5"
     style="display:inline">
    <rect
       width="66"
       height="66"
       rx="12"
       ry="12"
       x="15"
       y="15"
       clip-path="url(#clipPath3613)"
       id="rect3171"
       style="opacity:0.1;fill:url(#linearGradient3613);fill-opacity:1;fill-rule:nonzero;stroke:#ffffff;stroke-width:0.5;stroke-linecap:round;stroke-linejoin:miter;stroke-miterlimit:4;stroke-opacity:1;stroke-dasharray:none;stroke-dashoffset:0;filter:url(#filter3794)" />
    <path
       d="M 12,6 C 8.676,6 6,8.676 6,12 l 0,2 0,68 0,2 c 0,0.334721 0.04135,0.6507 0.09375,0.96875 0.0487,0.295596 0.09704,0.596915 0.1875,0.875 0.0099,0.03038 0.02089,0.0636 0.03125,0.09375 0.09886,0.287771 0.23488,0.547452 0.375,0.8125 0.144592,0.273507 0.315616,0.535615 0.5,0.78125 0.184384,0.245635 0.373776,0.473472 0.59375,0.6875 0.439947,0.428056 0.94291,0.814526 1.5,1.09375 0.278545,0.139612 0.573473,0.246947 0.875,0.34375 -0.256202,-0.100222 -0.486711,-0.236272 -0.71875,-0.375 -0.0074,-0.0044 -0.02387,0.0045 -0.03125,0 -0.03193,-0.0193 -0.06229,-0.04251 -0.09375,-0.0625 -0.120395,-0.0767 -0.231023,-0.163513 -0.34375,-0.25 -0.106173,-0.0808 -0.213281,-0.161112 -0.3125,-0.25 C 8.47832,88.557317 8.30879,88.373362 8.15625,88.1875 8.048671,88.057245 7.937856,87.922215 7.84375,87.78125 7.81866,87.74287 7.8053,87.69538 7.78125,87.65625 7.71649,87.553218 7.651022,87.451733 7.59375,87.34375 7.492742,87.149044 7.388075,86.928049 7.3125,86.71875 7.3045,86.69694 7.28891,86.6782 7.28125,86.65625 7.24942,86.5643 7.24545,86.469419 7.21875,86.375 7.188418,86.268382 7.148361,86.171969 7.125,86.0625 7.052121,85.720988 7,85.364295 7,85 L 7,83 7,15 7,13 C 7,10.218152 9.218152,8 12,8 l 2,0 68,0 2,0 c 2.781848,0 5,2.218152 5,5 l 0,2 0,68 0,2 c 0,0.364295 -0.05212,0.720988 -0.125,1.0625 -0.04415,0.206893 -0.08838,0.397658 -0.15625,0.59375 -0.0077,0.02195 -0.0233,0.04069 -0.03125,0.0625 -0.06274,0.173739 -0.138383,0.367449 -0.21875,0.53125 -0.04158,0.0828 -0.07904,0.169954 -0.125,0.25 -0.0546,0.09721 -0.126774,0.18835 -0.1875,0.28125 -0.09411,0.140965 -0.204921,0.275995 -0.3125,0.40625 -0.143174,0.17445 -0.303141,0.346998 -0.46875,0.5 -0.01117,0.0102 -0.01998,0.02115 -0.03125,0.03125 -0.138386,0.125556 -0.285091,0.234436 -0.4375,0.34375 -0.102571,0.07315 -0.204318,0.153364 -0.3125,0.21875 -0.0074,0.0045 -0.02384,-0.0044 -0.03125,0 -0.232039,0.138728 -0.462548,0.274778 -0.71875,0.375 0.301527,-0.0968 0.596455,-0.204138 0.875,-0.34375 0.55709,-0.279224 1.060053,-0.665694 1.5,-1.09375 0.219973,-0.214028 0.409366,-0.441865 0.59375,-0.6875 0.184384,-0.245635 0.355408,-0.507743 0.5,-0.78125 0.14012,-0.265048 0.276135,-0.524729 0.375,-0.8125 0.01041,-0.03078 0.02133,-0.06274 0.03125,-0.09375 0.09046,-0.278085 0.1388,-0.579404 0.1875,-0.875 C 89.95865,84.6507 90,84.334721 90,84 l 0,-2 0,-68 0,-2 C 90,8.676 87.324,6 84,6 L 12,6 z"
       inkscape:connector-curvature="0"
       id="rect3728"
       style="opacity:0.2;fill:url(#linearGradient3868);fill-opacity:1;fill-rule:nonzero;stroke:none;display:inline" />
    <path
       d="M 12,90 C 8.676,90 6,87.324 6,84 L 6,82 6,14 6,12 c 0,-0.334721 0.04135,-0.6507 0.09375,-0.96875 0.0487,-0.295596 0.09704,-0.596915 0.1875,-0.875 C 6.29113,10.12587 6.302142,10.09265 6.3125,10.0625 6.411365,9.774729 6.5473802,9.515048 6.6875,9.25 6.8320918,8.976493 7.0031161,8.714385 7.1875,8.46875 7.3718839,8.223115 7.5612765,7.995278 7.78125,7.78125 8.221197,7.353194 8.72416,6.966724 9.28125,6.6875 9.559795,6.547888 9.8547231,6.440553 10.15625,6.34375 9.9000482,6.443972 9.6695391,6.580022 9.4375,6.71875 c -0.00741,0.0044 -0.023866,-0.0045 -0.03125,0 -0.031933,0.0193 -0.062293,0.04251 -0.09375,0.0625 -0.120395,0.0767 -0.2310226,0.163513 -0.34375,0.25 -0.1061728,0.0808 -0.2132809,0.161112 -0.3125,0.25 C 8.4783201,7.442683 8.3087904,7.626638 8.15625,7.8125 8.0486711,7.942755 7.9378561,8.077785 7.84375,8.21875 7.818661,8.25713 7.805304,8.30462 7.78125,8.34375 7.716487,8.446782 7.6510225,8.548267 7.59375,8.65625 7.4927417,8.850956 7.3880752,9.071951 7.3125,9.28125 7.30454,9.30306 7.288911,9.3218 7.28125,9.34375 7.2494249,9.4357 7.2454455,9.530581 7.21875,9.625 7.1884177,9.731618 7.1483606,9.828031 7.125,9.9375 7.0521214,10.279012 7,10.635705 7,11 l 0,2 0,68 0,2 c 0,2.781848 2.2181517,5 5,5 l 2,0 68,0 2,0 c 2.781848,0 5,-2.218152 5,-5 l 0,-2 0,-68 0,-2 C 89,10.635705 88.94788,10.279012 88.875,9.9375 88.83085,9.730607 88.78662,9.539842 88.71875,9.34375 88.71105,9.3218 88.69545,9.30306 88.6875,9.28125 88.62476,9.107511 88.549117,8.913801 88.46875,8.75 88.42717,8.6672 88.38971,8.580046 88.34375,8.5 88.28915,8.40279 88.216976,8.31165 88.15625,8.21875 88.06214,8.077785 87.951329,7.942755 87.84375,7.8125 87.700576,7.63805 87.540609,7.465502 87.375,7.3125 87.36383,7.3023 87.35502,7.29135 87.34375,7.28125 87.205364,7.155694 87.058659,7.046814 86.90625,6.9375 86.803679,6.86435 86.701932,6.784136 86.59375,6.71875 c -0.0074,-0.0045 -0.02384,0.0044 -0.03125,0 -0.232039,-0.138728 -0.462548,-0.274778 -0.71875,-0.375 0.301527,0.0968 0.596455,0.204138 0.875,0.34375 0.55709,0.279224 1.060053,0.665694 1.5,1.09375 0.219973,0.214028 0.409366,0.441865 0.59375,0.6875 0.184384,0.245635 0.355408,0.507743 0.5,0.78125 0.14012,0.265048 0.276135,0.524729 0.375,0.8125 0.01041,0.03078 0.02133,0.06274 0.03125,0.09375 0.09046,0.278085 0.1388,0.579404 0.1875,0.875 C 89.95865,11.3493 90,11.665279 90,12 l 0,2 0,68 0,2 c 0,3.324 -2.676,6 -6,6 l -72,0 z"
       inkscape:connector-curvature="0"
       id="path3615"
       style="opacity:0.2;fill:url(#radialGradient3619);fill-opacity:1;fill-rule:nonzero;stroke:none;display:inline" />
    <path
       d="m 41,6 0,2 41,0 2,0 c 2.781848,0 5,2.218152 5,5 l 0,2 0,68 0,2 c 0,0.364295 -0.05212,0.720988 -0.125,1.0625 -0.04415,0.206893 -0.08838,0.397658 -0.15625,0.59375 -0.0077,0.02195 -0.0233,0.04069 -0.03125,0.0625 -0.06274,0.173739 -0.138383,0.367449 -0.21875,0.53125 -0.04158,0.0828 -0.07904,0.169954 -0.125,0.25 -0.0546,0.09721 -0.126774,0.18835 -0.1875,0.28125 -0.09411,0.140965 -0.204921,0.275995 -0.3125,0.40625 -0.143174,0.17445 -0.303141,0.346998 -0.46875,0.5 -0.01117,0.0102 -0.01998,0.02115 -0.03125,0.03125 -0.138386,0.125556 -0.285091,0.234436 -0.4375,0.34375 -0.102571,0.07315 -0.204318,0.153364 -0.3125,0.21875 -0.0074,0.0045 -0.02384,-0.0044 -0.03125,0 -0.232039,0.138728 -0.462548,0.274778 -0.71875,0.375 0.301527,-0.0968 0.596455,-0.204138 0.875,-0.34375 0.55709,-0.279224 1.060053,-0.665694 1.5,-1.09375 0.219973,-0.214028 0.409366,-0.441865 0.59375,-0.6875 0.184384,-0.245635 0.355408,-0.507743 0.5,-0.78125 0.14012,-0.265048 0.276135,-0.524729 0.375,-0.8125 0.01041,-0.03078 0.02133,-0.06274 0.03125,-0.09375 0.09046,-0.278085 0.1388,-0.579404 0.1875,-0.875 C 89.95865,84.6507 90,84.334721 90,84 l 0,-2 0,-68 0,-2 C 90,8.676 87.324,6 84,6 L 41,6 z"
       inkscape:connector-curvature="0"
       id="path3872"
       style="opacity:0.5;fill:url(#linearGradient3875);fill-opacity:1;fill-rule:nonzero;stroke:none;display:inline" />
  </g>
</svg>
