<?xml version="1.0" encoding="UTF-8" standalone="no"?>
<svg
   xmlns:dc="http://purl.org/dc/elements/1.1/"
   xmlns:cc="http://creativecommons.org/ns#"
   xmlns:rdf="http://www.w3.org/1999/02/22-rdf-syntax-ns#"
   xmlns:svg="http://www.w3.org/2000/svg"
   xmlns="http://www.w3.org/2000/svg"
   xmlns:xlink="http://www.w3.org/1999/xlink"
   xmlns:sodipodi="http://sodipodi.sourceforge.net/DTD/sodipodi-0.dtd"
   xmlns:inkscape="http://www.inkscape.org/namespaces/inkscape"
   height="96"
   width="96"
   version="1.1"
   id="svg2"
   inkscape:version="0.48.4 r9939"
   sodipodi:docname="panel.svg">
  <metadata
     id="metadata209">
    <rdf:RDF>
      <cc:Work
         rdf:about="">
        <dc:format>image/svg+xml</dc:format>
        <dc:type
           rdf:resource="http://purl.org/dc/dcmitype/StillImage" />
      </cc:Work>
    </rdf:RDF>
  </metadata>
  <sodipodi:namedview
     pagecolor="#ffffff"
     bordercolor="#666666"
     borderopacity="1"
     objecttolerance="10"
     gridtolerance="10"
     guidetolerance="10"
     inkscape:pageopacity="0"
     inkscape:pageshadow="2"
     inkscape:window-width="1920"
     inkscape:window-height="1021"
     id="namedview207"
     showgrid="false"
     inkscape:snap-object-midpoints="true"
     inkscape:snap-center="true"
     inkscape:zoom="5.2907658"
     inkscape:cx="69.764797"
     inkscape:cy="23.977297"
     inkscape:window-x="0"
     inkscape:window-y="0"
     inkscape:window-maximized="1"
     inkscape:current-layer="svg2" />
  <defs
     id="defs4">
    <linearGradient
       id="ah"
       stop-color="#fff">
      <stop
         offset="0"
         id="stop7" />
      <stop
         stop-opacity="0"
         offset="1"
         id="stop9" />
    </linearGradient>
    <filter
       id="as"
       height="1.384"
       width="1.384"
       color-interpolation-filters="sRGB"
       y="-.192"
       x="-.192">
      <feGaussianBlur
         stdDeviation="5.28"
         id="feGaussianBlur12" />
    </filter>
    <linearGradient
       id="au"
       y2="138.66"
       xlink:href="#ah"
       gradientUnits="userSpaceOnUse"
       x2="48"
       y1="20.221"
       x1="48" />
    <clipPath
       id="ar">
      <rect
         rx="6"
         ry="6"
         height="84"
         width="84"
         y="6"
         x="6"
         fill="#fff"
         id="rect16" />
    </clipPath>
    <linearGradient
       id="av"
       stop-color="#fff"
       y2="104"
       gradientUnits="userSpaceOnUse"
       x2="40"
       y1="56.209"
       x1="40">
      <stop
         offset="0"
         id="stop19" />
      <stop
         stop-opacity=".49804"
         offset=".29592"
         id="stop21" />
      <stop
         stop-opacity="0"
         offset="1"
         id="stop23" />
    </linearGradient>
    <linearGradient
       id="aw"
       y2="44.091"
       gradientUnits="userSpaceOnUse"
       x2="16"
       gradientTransform="translate(0,8)"
       y1="48"
       x1="16">
      <stop
         offset="0"
         id="stop26" />
      <stop
         stop-opacity=".49804"
         offset=".25926"
         id="stop28" />
      <stop
         stop-opacity="0"
         offset="1"
         id="stop30" />
    </linearGradient>
    <filter
       id="ag"
       color-interpolation-filters="sRGB">
      <feGaussianBlur
         stdDeviation="0.8"
         id="feGaussianBlur33" />
    </filter>
    <clipPath
       id="m">
      <path
         fill="#fff"
         d="m33 1c-0.277 0-0.54181 0.055313-0.78125 0.15625-0.37163 0.26346-0.71445 0.58231-1 0.9375-0.138 0.2716-0.219 0.5798-0.219 0.9062v4.9688c0.89033 1.2931 2.3739 2.1563 4.0625 2.1562 2.727 0 4.938-2.2106 4.938-4.9375 0-1.7705-0.944-3.316-2.344-4.1875h-4.656zm7.5312 0 0.5625 0.84375 0.46875-0.25 0.437-0.0938h1.125l0.25 0.59375-0.75 0.8125-0.40625 0.25-0.53125 0.15625 0.25 1.0938 0.5-0.0625 0.46875 0.0625 1.0312 0.4375v0.6563l-1.031 0.4688-0.468 0.0312-0.5-0.03125-0.25 1.125 0.531 0.1562 0.406 0.2188 0.75 0.8124-0.25 0.5938-1.125 0.0312-0.438-0.125-0.468-0.2812-0.625 0.96875 0.375 0.3125 0.3125 0.40625 0.4375 1.0312-0.469 0.469-1.031-0.438-0.406-0.25-0.313-0.438-0.96875 0.65625 0.25 0.4375 0.15625 0.5-0.03125 1.0625-0.625 0.282-0.781-0.781-0.281-0.407-0.094-0.531-1.125 0.25 0.03125 0.5-0.0625 0.5-0.4375 1h-0.65625l-0.46875-1-0.03125-0.5 0.03125-0.5-1.125-0.25-0.094 0.531-0.281 0.407-0.781 0.781-0.59375-0.28125-0.0625-1.0625 0.15625-0.5 0.25-0.4375-0.75-0.5v8.281c0 1.108 0.892 2 2 2h6.8438l0.28125-0.25 0.46875-0.25-0.46875-1.1562-0.53125 0.1875-0.5 0.03125-1.1562-0.25-0.15625-0.6875 0.96875-0.6875 0.5-0.15625 0.53125-0.0625v-1.2188l-0.53125-0.03125-0.5-0.1875-1-0.65625 0.15625-0.6875 1.1562-0.25h0.5l0.53125 0.1875 0.46875-1.1562-0.5-0.25-0.40625-0.3125-0.625-1 0.375-0.59375 1.1562 0.1875 0.5 0.25 0.40625 0.34375 0.84375-0.875-0.34375-0.40625-0.21875-0.46875-0.21875-1.1875 0.5625-0.375 1 0.625 0.34375 0.375 0.28125 0.5 1.125-0.46875-0.188-0.5308-0.031-0.5312 0.25-1.1562 0.6875-0.125 0.6875 0.96875 0.15625 0.46875 0.0625 0.5625 1.2188-0.03125 0.03125-0.53125 0.1875-0.5 0.656-0.9688 0.688 0.125 0.281 1.1563-0.031 0.5312-0.188 0.5 1.157 0.469 0.25-0.469 0.281-0.3438v-6.6571c0-1.108-0.892-2-2-2h-8.4688zm-5.5 0.3125c2.1217 0 3.8438 1.7221 3.8438 3.8438 0 2.1216-1.722 3.8437-3.844 3.8437-2.121 0-3.843-1.7221-3.843-3.8438s1.7221-3.8438 3.8438-3.8438zm0 1.7188c-1.242 0-2.25 0.95205-2.25 2.125s1.008 2.125 2.25 2.125 2.25-0.95205 2.25-2.125-1.008-2.125-2.25-2.125zm12.094 8.375c-1.2762 0-2.4599 0.44167-3.4062 1.1562l1.813 1.938c0.46114-0.28724 1.0108-0.4375 1.5938-0.4375 0.29398 0 0.57511 0.04631 0.84375 0.125l1.2188-2.375c-0.642-0.253-1.334-0.407-2.064-0.407zm3.094 0.938-1.219 2.375c0.68574 0.54448 1.1138 1.3722 1.125 2.3125l0.875 0.155v-4.219c-0.24222-0.22776-0.50205-0.44206-0.78125-0.625zm-7.3438 1c-0.87349 0.99394-1.4062 2.2926-1.4062 3.7188 0 0.63718 0.11756 1.2409 0.3125 1.8125l2.407-1.094c-0.056-0.228-0.063-0.474-0.063-0.719 0-0.66266 0.1992-1.2839 0.5625-1.7812l-1.8125-1.9375zm4.25 2.75c-0.53504 0-0.96875 0.43372-0.96875 0.96875 0 0.53504 0.43372 0.96875 0.96875 0.96875 0.53504 0 0.96875-0.43372 0.96875-0.96875 0-0.53504-0.43372-0.96875-0.96875-0.96875zm2.8125 2.0625c-0.32204 0.82378-1.0024 1.4646-1.8438 1.75l0.156 1.094h0.75c1.108 0 2-0.892 2-2v-0.65625l-1.0625-0.1875zm-5.25 0.65625-2.4375 1.125c0.23048 0.39031 0.49754 0.7398 0.8125 1.0625h4l-0.125-0.9375c-0.93376-0.05393-1.7355-0.53535-2.25-1.25z"
         fill-rule="evenodd"
         id="path36" />
    </clipPath>
    <filter
       id="ab"
       height="1.36"
       width="1.36"
       color-interpolation-filters="sRGB"
       y="-0.18"
       x="-0.18">
      <feGaussianBlur
         stdDeviation="1.2"
         id="feGaussianBlur39" />
    </filter>
    <clipPath
       id="l">
      <rect
         fill-rule="evenodd"
         rx="2"
         ry="2"
         height="20"
         width="20"
         y="1"
         x="1"
         fill="#fff"
         id="rect42" />
    </clipPath>
    <clipPath
       id="aa">
      <rect
         fill-rule="evenodd"
         rx="2"
         ry="2"
         height="20"
         width="20"
         y="1"
         x="1"
         fill="#fff"
         id="rect45" />
    </clipPath>
    <linearGradient
       id="a"
       y2=".9993"
       gradientUnits="userSpaceOnUse"
       x2="10.32"
       y1="21"
       x1="10.32">
      <stop
         stop-color="#afafaf"
         offset="0"
         id="stop48" />
      <stop
         stop-color="#d8d8d8"
         offset="1"
         id="stop50" />
    </linearGradient>
    <linearGradient
       id="b">
      <stop
         offset="0"
         id="stop53" />
      <stop
         stop-opacity="0"
         offset="1"
         id="stop55" />
    </linearGradient>
    <linearGradient
       id="k"
       y2="7.0165"
       gradientUnits="userSpaceOnUse"
       x2="45.448"
       gradientTransform="matrix(1.0059 0 0 .99417 100 0)"
       y1="92.54"
       x1="45.448">
      <stop
         offset="0"
         id="stop58" />
      <stop
         stop-opacity=".58824"
         offset="1"
         id="stop60" />
    </linearGradient>
    <linearGradient
       id="aq"
       y2="6"
       xlink:href="#k"
       gradientUnits="userSpaceOnUse"
       x2="32.251"
       gradientTransform="translate(0,1)"
       y1="90"
       x1="32.251" />
    <linearGradient
       id="ap"
       y2="5.9996"
       xlink:href="#k"
       gradientUnits="userSpaceOnUse"
       x2="32.251"
       gradientTransform="matrix(1.0238 0 0 1.0119 -1.1429 .929)"
       y1="90"
       x1="32.251" />
    <linearGradient
       id="ao"
       y2="90.239"
       xlink:href="#k"
       gradientUnits="userSpaceOnUse"
       x2="32.251"
       gradientTransform="matrix(1.0238,0,0,-1.0119,-1.1429,98.071)"
       y1="6.1317"
       x1="32.251" />
    <radialGradient
       id="at"
       xlink:href="#ah"
       gradientUnits="userSpaceOnUse"
       cy="90.172"
       cx="48"
       gradientTransform="matrix(1.1573 0 0 .99591 -7.551 .19713)"
       r="42" />
    <linearGradient
       id="an"
       y2="63.893"
       xlink:href="#ah"
       gradientUnits="userSpaceOnUse"
       x2="36.357"
       y1="6"
       x1="36.357" />
    <linearGradient
       id="am"
       y2="5.9877"
       gradientUnits="userSpaceOnUse"
       x2="48"
       y1="56.252"
       x1="48"
       gradientTransform="translate(134.57409,11.151505)">
      <stop
         stop-color="#3465a4"
         offset="0"
         id="stop68"
         style="stop-color:#236f19;stop-opacity:1;" />
      <stop
         stop-color="#729fcf"
         offset="1"
         id="stop70"
         style="stop-color:#77ba17;stop-opacity:1;" />
    </linearGradient>
    <linearGradient
       id="al"
       y2="7.2537"
       xlink:href="#a"
       gradientUnits="userSpaceOnUse"
       x2="-3.0608"
       gradientTransform="translate(22.119,44.742)"
       y1="27.258"
       x1="-3.0608" />
    <linearGradient
       id="ak"
       y2="-9.8173"
       xlink:href="#b"
       gradientUnits="userSpaceOnUse"
       x2="11.375"
       gradientTransform="translate(11,51)"
       y1="22"
       x1="11.375" />
    <linearGradient
       id="c"
       y2=".90025"
       gradientUnits="userSpaceOnUse"
       x2="5"
       gradientTransform="matrix(1.0172,0,0,1.0172,-1.1034,-1.1034)"
       y1="21"
       x1="5">
      <stop
         stop-color="#969696"
         offset="0"
         id="stop75" />
      <stop
         stop-color="#cacaca"
         offset="1"
         id="stop77" />
    </linearGradient>
    <linearGradient
       id="aj"
       y2="7.2537"
       xlink:href="#a"
       gradientUnits="userSpaceOnUse"
       x2="-3.0608"
       gradientTransform="translate(48.119,56.742)"
       y1="27.258"
       x1="-3.0608" />
    <linearGradient
       id="ai"
       y2="7.2537"
       xlink:href="#a"
       gradientUnits="userSpaceOnUse"
       x2="-3.0608"
       gradientTransform="translate(74.119,56.742)"
       y1="27.258"
       x1="-3.0608" />
    <linearGradient
       id="ay"
       y2="-9.8173"
       xlink:href="#b"
       gradientUnits="userSpaceOnUse"
       x2="11.375"
       gradientTransform="translate(63,63)"
       y1="22"
       x1="11.375" />
    <linearGradient
       id="ax"
       y2="-9.8173"
       xlink:href="#b"
       gradientUnits="userSpaceOnUse"
       x2="11.375"
       gradientTransform="translate(37,63)"
       y1="22"
       x1="11.375" />
    <linearGradient
       id="h"
       y2="36.363998"
       gradientUnits="userSpaceOnUse"
       x2="46.056"
       gradientTransform="matrix(1,0,0,1.0043,-3.5126e-5,-6.0236)"
       y1="36.363998"
       x1="0.85863">
      <stop
         stop-color="#babdb6"
         stop-opacity="0"
         offset="0"
         id="stop42" />
      <stop
         stop-color="#babdb6"
         offset=".1"
         id="stop44" />
      <stop
         stop-color="#babdb6"
         offset=".75"
         id="stop46" />
      <stop
         stop-color="#bbbeb7"
         stop-opacity="0"
         offset="1"
         id="stop48-0" />
    </linearGradient>
    <linearGradient
       id="g"
       y2="36.363998"
       xlink:href="#c-0"
       gradientUnits="userSpaceOnUse"
       x2="46.164001"
       gradientTransform="matrix(1.043,0,0,1.0043,-1.0323,-6.0236)"
       y1="36.363998"
       x1="1.813" />
    <linearGradient
       stop-color="#555753"
       id="c-0">
      <stop
         stop-opacity="0"
         offset="0"
         id="stop22" />
      <stop
         offset=".1"
         id="stop24" />
      <stop
         offset=".75"
         id="stop26-0" />
      <stop
         stop-opacity="0"
         offset="1"
         id="stop28-9" />
    </linearGradient>
    <linearGradient
       id="j"
       y2="36.498001"
       gradientUnits="userSpaceOnUse"
       x2="44.166"
       gradientTransform="translate(-3.5126e-5,-6.0003)"
       y1="36.498001"
       x1="3.0539">
      <stop
         stop-color="#fff"
         stop-opacity="0"
         offset="0"
         id="stop32" />
      <stop
         stop-color="#d3d7cf"
         offset=".05"
         id="stop34" />
      <stop
         stop-color="#d3d7cf"
         offset="0.8"
         id="stop36" />
      <stop
         stop-color="#fff"
         stop-opacity="0"
         offset="1"
         id="stop38" />
    </linearGradient>
    <linearGradient
       id="i"
       y2="42.998001"
       xlink:href="#c-0"
       gradientUnits="userSpaceOnUse"
       x2="46.658001"
       gradientTransform="translate(-3.5126e-5,-6.0003)"
       y1="42.998001"
       x1="1.2812001" />
    <linearGradient
       stop-color="#555753"
       id="linearGradient3077">
      <stop
         stop-opacity="0"
         offset="0"
         id="stop3079" />
      <stop
         offset=".1"
         id="stop3081" />
      <stop
         offset=".75"
         id="stop3083" />
      <stop
         stop-opacity="0"
         offset="1"
         id="stop3085" />
    </linearGradient>
    <linearGradient
       id="k-4"
       y2="36.556"
       xlink:href="#f"
       gradientUnits="userSpaceOnUse"
       x2="46.938999"
       gradientTransform="translate(-3.5126e-5,-6.0003)"
       y1="36.379002"
       x1="1.0294" />
    <linearGradient
       stop-color="#fff"
       id="f">
      <stop
         stop-opacity="0"
         offset="0"
         id="stop13" />
      <stop
         offset=".1"
         id="stop15" />
      <stop
         offset="0.76"
         id="stop17" />
      <stop
         stop-opacity="0"
         offset="1"
         id="stop19-4" />
    </linearGradient>
    <linearGradient
       id="l-2"
       y2="36.75"
       gradientUnits="userSpaceOnUse"
       x2="45.824001"
       gradientTransform="matrix(0.90476,0,0,1,87.726876,-17.381656)"
       y1="36.75"
       x1="31.483">
      <stop
         offset="0"
         id="stop8" />
      <stop
         stop-opacity="0"
         offset="1"
         id="stop10" />
    </linearGradient>
    <linearGradient
       id="m-0"
       y2="36.363998"
       xlink:href="#f"
       gradientUnits="userSpaceOnUse"
       x2="46.164001"
       gradientTransform="matrix(1.043,0,0,1.0043,82.123176,-17.404956)"
       y1="36.363998"
       x1="1.813" />
    <linearGradient
       stop-color="#fff"
       id="linearGradient3097">
      <stop
         stop-opacity="0"
         offset="0"
         id="stop3099" />
      <stop
         offset=".1"
         id="stop3101" />
      <stop
         offset="0.76"
         id="stop3103" />
      <stop
         stop-opacity="0"
         offset="1"
         id="stop3105" />
    </linearGradient>
    <linearGradient
       y2="36.556"
       x2="46.938999"
       y1="36.379002"
       x1="1.0294"
       gradientTransform="translate(-3.5126e-5,-6.0003)"
       gradientUnits="userSpaceOnUse"
       id="linearGradient3117"
       xlink:href="#f"
       inkscape:collect="always" />
    <linearGradient
       inkscape:collect="always"
       xlink:href="#f"
       id="linearGradient4071"
       gradientUnits="userSpaceOnUse"
       gradientTransform="matrix(1.7504216,0,0,1.3895338,6.8158282,-1.0334888)"
       x1="1.813"
       y1="36.363998"
       x2="46.164001"
       y2="36.363998" />
    <linearGradient
       inkscape:collect="always"
       xlink:href="#l-2"
       id="linearGradient4073"
       gradientUnits="userSpaceOnUse"
       gradientTransform="matrix(1.5184194,0,0,1.3835845,16.220272,-1.0012505)"
       x1="31.483"
       y1="36.75"
       x2="45.824001"
       y2="36.75" />
    <linearGradient
       inkscape:collect="always"
       xlink:href="#h"
       id="linearGradient4075"
       gradientUnits="userSpaceOnUse"
       gradientTransform="matrix(1,0,0,1.0043,-3.5126e-5,-6.0236)"
       x1="0.85863"
       y1="36.363998"
       x2="46.056"
       y2="36.363998" />
    <linearGradient
       inkscape:collect="always"
       xlink:href="#c-0"
       id="linearGradient4077"
       gradientUnits="userSpaceOnUse"
       gradientTransform="matrix(1.043,0,0,1.0043,-1.0323,-6.0236)"
       x1="1.813"
       y1="36.363998"
       x2="46.164001"
       y2="36.363998" />
    <linearGradient
       inkscape:collect="always"
       xlink:href="#j"
       id="linearGradient4079"
       gradientUnits="userSpaceOnUse"
       gradientTransform="translate(-3.5126e-5,-6.0003)"
       x1="3.0539"
       y1="36.498001"
       x2="44.166"
       y2="36.498001" />
    <linearGradient
       inkscape:collect="always"
       xlink:href="#c-0"
       id="linearGradient4081"
       gradientUnits="userSpaceOnUse"
       gradientTransform="translate(-3.5126e-5,-6.0003)"
       x1="1.2812001"
       y1="42.998001"
       x2="46.658001"
       y2="42.998001" />
    <linearGradient
       inkscape:collect="always"
       xlink:href="#f"
       id="linearGradient4083"
       gradientUnits="userSpaceOnUse"
       gradientTransform="translate(-3.5126e-5,-6.0003)"
       x1="1.0294"
       y1="36.379002"
       x2="46.938999"
       y2="36.556" />
    <linearGradient
       id="am-2"
       y2="5.9877"
       gradientUnits="userSpaceOnUse"
       x2="48"
       y1="56.251999"
       x1="48">
      <stop
         stop-color="#3465a4"
         offset="0"
         id="stop68-3"
         style="stop-color:#236f19;stop-opacity:1;" />
      <stop
         stop-color="#729fcf"
         offset="1"
         id="stop70-7"
         style="stop-color:#77ba17;stop-opacity:1;" />
    </linearGradient>
    <linearGradient
       gradientTransform="translate(136.27517,5.1581876)"
       y2="5.9877"
       x2="48"
       y1="56.251999"
       x1="48"
       gradientUnits="userSpaceOnUse"
       id="linearGradient3112"
       xlink:href="#am-2"
       inkscape:collect="always" />
    <linearGradient
       id="am-5"
       y2="5.9877"
       gradientUnits="userSpaceOnUse"
       x2="48"
       y1="56.251999"
       x1="48">
      <stop
         stop-color="#3465a4"
         offset="0"
         id="stop68-7" />
      <stop
         stop-color="#729fcf"
         offset="1"
         id="stop70-6" />
    </linearGradient>
    <linearGradient
       gradientTransform="translate(3.8278809e-6,0.99999938)"
       y2="5.9877"
       x2="48"
       y1="56.251999"
       x1="48"
       gradientUnits="userSpaceOnUse"
       id="linearGradient3200"
       xlink:href="#am-5"
       inkscape:collect="always" />
  </defs>
  <g
     fill="url(#ao)"
     id="g83">
    <path
       opacity="0.08"
       d="m12 95.031c-5.5111 0-10.031-4.52-10.031-10.031v-71c0-5.5111 4.5202-10.031 10.031-10.031h72c5.5111 0 10.031 4.5202 10.031 10.031v71c0 5.5111-4.5202 10.031-10.031 10.031h-72z"
       id="path85" />
    <path
       opacity=".1"
       d="m12 94.031c-4.9716 0-9.0312-4.0596-9.0312-9.0312v-71c0-4.9722 4.0596-9.0318 9.0312-9.0318h72c4.9716 0 9.0312 4.0596 9.0312 9.0312v71c0 4.9716-4.0596 9.0312-9.0312 9.0312h-72z"
       id="path87" />
    <path
       opacity=".2"
       d="m12 93c-4.4091 0-8-3.591-8-8v-71c0-4.4091 3.5909-8 8-8h72c4.4091 0 8 3.5909 8 8v71c0 4.4091-3.5909 8-8 8h-72z"
       id="path89" />
  </g>
  <rect
     opacity=".3"
     rx="7"
     ry="7"
     height="85"
     width="86"
     y="7"
     x="5"
     fill="url(#ap)"
     id="rect91" />
  <rect
     opacity=".45"
     rx="6"
     ry="6"
     height="84"
     width="84"
     y="7"
     x="6"
     fill="url(#aq)"
     id="rect93" />
  <rect
     style="fill:url(#linearGradient3200)"
     rx="6"
     ry="6"
     height="84"
     width="84"
     y="6.9999995"
     x="6.0000038"
     id="rect95" />
  <path
     opacity=".3"
     d="m12 6c-3.324 0-6 2.676-6 6v72c0 0.33472 0.04135 0.6507 0.09375 0.96875 0.0487 0.2956 0.09704 0.59692 0.1875 0.875 0.00988 0.03038 0.020892 0.0636 0.03125 0.09375 0.098865 0.28777 0.23488 0.54745 0.375 0.8125 0.14459 0.27351 0.31562 0.53562 0.5 0.78125 0.18438 0.24564 0.37378 0.47347 0.59375 0.6875 0.43995 0.42806 0.94291 0.81453 1.5 1.0938 0.27854 0.13961 0.57347 0.24695 0.875 0.34375-0.2562-0.10022-0.48671-0.23627-0.71875-0.375-0.00741-0.0044-0.023866 0.0045-0.03125 0-0.0319-0.019-0.0622-0.042-0.0937-0.062-0.1204-0.077-0.231-0.164-0.3437-0.25-0.1062-0.081-0.2133-0.161-0.3126-0.25-0.1778-0.162-0.3473-0.346-0.4999-0.531-0.1075-0.131-0.2183-0.266-0.3124-0.407-0.0251-0.038-0.0385-0.086-0.0626-0.125-0.0647-0.103-0.1302-0.204-0.1874-0.312-0.1011-0.195-0.2057-0.416-0.2813-0.625-0.008-0.022-0.0236-0.041-0.0313-0.063-0.0318-0.092-0.0358-0.187-0.0624-0.281-0.0304-0.107-0.0704-0.203-0.0938-0.313-0.0729-0.341-0.125-0.698-0.125-1.062v-72c0-2.782 2.2182-5 5-5h72c2.7818 0 5 2.2182 5 5v72c0 0.3643-0.05212 0.72099-0.125 1.0625-0.04415 0.20689-0.08838 0.39766-0.15625 0.59375-0.0077 0.02195-0.0233 0.04069-0.03125 0.0625-0.06274 0.17374-0.13838 0.36745-0.21875 0.53125-0.04158 0.0828-0.07904 0.16995-0.125 0.25-0.0546 0.09721-0.12677 0.18835-0.1875 0.28125-0.09411 0.14096-0.20492 0.276-0.3125 0.40625-0.14317 0.17445-0.30314 0.347-0.46875 0.5-0.01117 0.0102-0.01998 0.02115-0.03125 0.03125-0.13839 0.12556-0.28509 0.23444-0.4375 0.34375-0.10257 0.07315-0.20432 0.15336-0.3125 0.21875-0.0074 0.0045-0.02384-0.0044-0.03125 0-0.23204 0.13873-0.46255 0.27478-0.71875 0.375 0.30153-0.0968 0.59646-0.20414 0.875-0.34375 0.55709-0.27922 1.0601-0.66569 1.5-1.0938 0.21997-0.21403 0.40937-0.44186 0.59375-0.6875s0.35541-0.50774 0.5-0.78125c0.14012-0.26505 0.27614-0.52473 0.375-0.8125 0.01041-0.03078 0.02133-0.06274 0.03125-0.09375 0.09046-0.27808 0.1388-0.5794 0.1875-0.875 0.053-0.318 0.094-0.634 0.094-0.969v-72c0-3.324-2.676-6-6-6h-72z"
     fill="url(#an)"
     id="path97" />
  <path
     opacity=".2"
     d="m12 90c-3.324 0-6-2.676-6-6v-72c0-0.33472 0.04135-0.6507 0.09375-0.96875 0.0487-0.2956 0.09704-0.59692 0.1875-0.875 0.0099-0.03 0.0209-0.063 0.0313-0.094 0.0989-0.2873 0.2349-0.547 0.375-0.812 0.1446-0.2735 0.3156-0.5356 0.5-0.7812 0.1844-0.2457 0.3738-0.4735 0.5937-0.6876 0.44-0.428 0.943-0.8145 1.5-1.0937 0.2786-0.1396 0.5735-0.2469 0.8748-0.3437-0.256 0.1002-0.4865 0.2362-0.7185 0.375-0.00741 0.0044-0.023866-0.0045-0.03125 0-0.031933 0.0193-0.062293 0.04251-0.09375 0.0625-0.1204 0.0767-0.23102 0.16351-0.34375 0.25-0.10617 0.0808-0.21328 0.16111-0.3125 0.25-0.1779 0.1614-0.3474 0.3453-0.5 0.5312-0.1075 0.1303-0.2183 0.2653-0.3124 0.4063-0.0251 0.0383-0.0385 0.0858-0.0626 0.125-0.0647 0.103-0.1302 0.2045-0.1874 0.3124-0.1011 0.1948-0.2057 0.4158-0.2813 0.625-0.008 0.0219-0.0236 0.0406-0.0313 0.0626-0.0318 0.0919-0.0358 0.1868-0.0624 0.2812-0.0304 0.1066-0.0704 0.203-0.0938 0.3125-0.0729 0.3415-0.125 0.6985-0.125 1.0625v72c0 2.7818 2.2182 5 5 5h72c2.7818 0 5-2.2182 5-5v-72c0-0.364-0.052-0.721-0.125-1.0625-0.044-0.2069-0.088-0.3977-0.156-0.5937-0.008-0.022-0.024-0.0407-0.031-0.0626-0.063-0.1737-0.139-0.3674-0.219-0.5312-0.042-0.0828-0.079-0.17-0.125-0.25-0.055-0.0972-0.127-0.1884-0.188-0.2812-0.094-0.141-0.205-0.276-0.312-0.4063-0.143-0.1745-0.303-0.347-0.469-0.5-0.011-0.0102-0.02-0.0211-0.031-0.0313-0.139-0.1255-0.285-0.2344-0.438-0.3437-0.102-0.0731-0.204-0.1534-0.312-0.2187-0.0074-0.0045-0.02384 0.0044-0.03125 0-0.23204-0.13873-0.46255-0.27478-0.71875-0.375 0.30153 0.0968 0.59646 0.20414 0.875 0.34375 0.55709 0.27922 1.0601 0.66569 1.5 1.0938 0.21997 0.21403 0.40937 0.44186 0.59375 0.6875s0.35541 0.50774 0.5 0.78125c0.14012 0.26505 0.27614 0.52473 0.375 0.8125 0.01041 0.03078 0.02133 0.06274 0.03125 0.09375 0.09046 0.27808 0.1388 0.5794 0.1875 0.875 0.053 0.318 0.094 0.634 0.094 0.969v72c0 3.324-2.676 6-6 6h-72z"
     fill="url(#at)"
     id="path99" />
  <rect
     height="1.4454011"
     width="93.08815"
     y="59.66782"
     x="3.7145014"
     id="rect107"
     style="opacity:0" />
  <g
     transform="matrix(1.6782566,0,0,1.3835845,8.5482915,7.3006728)"
     style="stroke-linejoin:round"
     id="g51">
    <rect
       style="fill:url(#linearGradient4075);stroke:url(#linearGradient4077)"
       rx="0"
       ry="0"
       height="24"
       width="47"
       y="18.5"
       x="0.5"
       id="rect53" />
    <path
       style="fill:url(#linearGradient4079);stroke:url(#linearGradient4081)"
       inkscape:connector-curvature="0"
       d="m 0.53121,21.545 v 17.988 h 6.6563 c 0.13641,0 0.28274,-0.02389 0.40625,-0.0625 0.19344,-0.0658 0.39032,-0.20151 0.53125,-0.34375 0.065144,-0.06897 0.13825,-0.16803 0.1875,-0.25 0.11044,-0.19428 0.1875,-0.44658 0.1875,-0.6875 v -15.301 c 0,-0.24092 -0.077064,-0.49323 -0.1875,-0.6875 -0.049249,-0.08197 -0.12236,-0.18103 -0.1875,-0.25 -0.1409,-0.141 -0.3378,-0.277 -0.5312,-0.343 -0.1236,-0.039 -0.2699,-0.063 -0.4063,-0.063 h -6.6563 z m 11.125,0 c -0.07685,0.0098 -0.17795,0.03998 -0.25,0.0625 -0.19344,0.0658 -0.39032,0.20151 -0.53125,0.34375 -0.06514,0.06897 -0.13825,0.16803 -0.1875,0.25 -0.11044,0.19427 -0.1875,0.44658 -0.1875,0.6875 v 15.301 c 0,0.24092 0.07706,0.49323 0.1875,0.6875 0.04925,0.08197 0.12236,0.18103 0.1875,0.25 0.14093,0.14224 0.33781,0.27795 0.53125,0.34375 0.12351,0.03861 0.26984,0.0625 0.40625,0.0625 h 35.656 v -17.988 h -35.656 c -0.05684,0 -0.10136,-0.007 -0.15625,0 z"
       id="path55" />
    <path
       style="fill:none;stroke:url(#linearGradient4083)"
       inkscape:connector-curvature="0"
       d="m 0.46871,22.562 v 15.892 h 6.4063 c 0.094436,0 0.20173,-0.02429 0.28125,-0.0625 0.14602,-0.07913 0.27028,-0.24139 0.3125,-0.40625 0.00805,-0.03953 0.03125,-0.08303 0.03125,-0.125 v -14.673 c 0,-0.17838 -0.096884,-0.35803 -0.21875,-0.46875 -0.029911,-0.02466 -0.090643,-0.07513 -0.125,-0.09375 -0.079524,-0.03821 -0.18681,-0.0625 -0.28125,-0.0625 h -6.4063 z m 11.531,0 c -0.07037,0.01069 -0.15862,0.06117 -0.21875,0.09375 -0.02499,0.01515 -0.07132,0.044 -0.09375,0.0625 -0.01434,0.01303 -0.04947,0.04816 -0.0625,0.0625 -0.0185,0.02243 -0.04735,0.06876 -0.0625,0.09375 -0.04654,0.08589 -0.09375,0.20757 -0.09375,0.3125 V 37.86 c 0,0.05246 0.01883,0.10776 0.03125,0.15625 0.01766,0.057 0.06114,0.13915 0.09375,0.1875 0.11033,0.14771 0.30063,0.25 0.5,0.25 h 35.406 v -15.892 h -35.406 c -0.03148,0 -0.06359,-0.0046 -0.09375,0 z"
       id="path57" />
  </g>
  <g
     transform="matrix(1.6782566,0,0,1.3835845,8.5482915,7.3006728)"
     style="stroke-linecap:round;stroke-linejoin:round"
     id="g59">
    <rect
       style="fill:#eeeeec;stroke:#888a85"
       rx="1.3"
       ry="1.3"
       height="10"
       width="11"
       y="25.5"
       x="14.5"
       id="rect61" />
    <rect
       style="fill:none;stroke:#ffffff"
       rx="0"
       ry="1.3"
       height="8"
       width="9"
       y="26.5"
       x="15.5"
       id="rect63" />
    <rect
       style="fill:#888a85;stroke:#555753"
       rx="0"
       ry="1.3"
       height="3"
       width="11"
       y="25.5"
       x="14.5"
       id="rect65" />
  </g>
  <rect
     style="opacity:0.15;fill:url(#linearGradient4073)"
     rx="0.93982369"
     ry="0.77480739"
     height="6.917923"
     width="31.886873"
     y="46.041039"
     x="57.217709"
     id="rect67" />
  <rect
     style="opacity:0.7;fill:none;stroke:url(#linearGradient4071);stroke-width:1.5238142;stroke-linejoin:round"
     rx="0"
     ry="0"
     height="30.43886"
     width="79.717186"
     y="34.280571"
     x="9.387414"
     id="rect69" />
</svg>
