<?xml version="1.0" encoding="UTF-8" standalone="no"?>
<svg xmlns="http://www.w3.org/2000/svg" height="96" width="96" version="1.1" xmlns:xlink="http://www.w3.org/1999/xlink">
 <defs>
  <linearGradient id="a" stop-color="#fff">
   <stop offset="0"/>
   <stop stop-opacity="0" offset="1"/>
  </linearGradient>
  <linearGradient id="c">
   <stop stop-color="#666" offset="0"/>
   <stop stop-color="#e6e6e6" offset=".25016"/>
   <stop stop-color="#808080" offset=".51293"/>
   <stop stop-color="#474747" offset="1"/>
  </linearGradient>
  <linearGradient id="b" y2="7.0165" gradientUnits="userSpaceOnUse" x2="45.448" gradientTransform="scale(1.0059 .99417)" y1="92.54" x1="45.448">
   <stop offset="0"/>
   <stop stop-opacity=".58824" offset="1"/>
  </linearGradient>
  <linearGradient id="r" y2="47" xlink:href="#a" gradientUnits="userSpaceOnUse" x2="82.835" gradientTransform="translate(4)" y1="47" x1="64"/>
  <linearGradient id="q" y2="24" xlink:href="#a" gradientUnits="userSpaceOnUse" x2="26" gradientTransform="matrix(.2381 0 0 1 47.19 0)" y1="90" x1="26"/>
  <linearGradient id="p" y2="72.022" xlink:href="#a" gradientUnits="userSpaceOnUse" x2="26" gradientTransform="matrix(.57143 0 0 1 50.857 0)" y1="6" x1="26"/>
  <linearGradient id="o" y2="120.02" xlink:href="#a" gradientUnits="userSpaceOnUse" x2="26" gradientTransform="translate(-2)" y1="6" x1="26"/>
  <linearGradient id="n" y2="6.05" gradientUnits="userSpaceOnUse" x2="64" y1="6.05" x1="32">
   <stop stop-color="#d9d9d9" offset="0"/>
   <stop stop-color="#c6c6c6" offset=".25016"/>
   <stop stop-color="#696969" offset="1"/>
  </linearGradient>
  <linearGradient id="m" y2="3.3074" xlink:href="#b" gradientUnits="userSpaceOnUse" x2="40" y1="91" x1="40"/>
  <linearGradient id="l" y2="7.0165" xlink:href="#b" gradientUnits="userSpaceOnUse" x2="45.448" gradientTransform="scale(1.0059 .99417)" y1="92.54" x1="45.448"/>
  <linearGradient id="k" stop-color="#250" y2="63" gradientUnits="userSpaceOnUse" x2="32.019" gradientTransform="matrix(-1,0,0,1,96,0)" y1="63" x1="6">
   <stop offset="0"/>
   <stop stop-opacity="0" offset="1"/>
  </linearGradient>
  <radialGradient id="e" gradientUnits="userSpaceOnUse" cy="90.2" cx="48" gradientTransform="matrix(1.3333 5.3333e-8 -3.8095e-8 .95238 -16 -5.9048)" r="42">
   <stop stop-color="#88ff02" offset="0"/>
   <stop stop-color="#1f8000" offset="1"/>
  </radialGradient>
  <linearGradient id="j" y2="88" xlink:href="#c" gradientUnits="userSpaceOnUse" x2="-16" gradientTransform="matrix(0,1,1,0,0,96)" y1="8" x1="-16"/>
  <linearGradient id="i" y2="88" xlink:href="#c" gradientUnits="userSpaceOnUse" x2="-16" gradientTransform="rotate(-90)" y1="8" x1="-16"/>
  <linearGradient id="h" stop-color="#fff" y2="48" gradientUnits="userSpaceOnUse" x2="-6" gradientTransform="matrix(1,0,0,-1,96,96)" y1="48" x1="-90">
   <stop stop-opacity=".48062" offset="0"/>
   <stop stop-opacity=".12403" offset="1"/>
  </linearGradient>
  <linearGradient id="f" y2="63.893" xlink:href="#a" gradientUnits="userSpaceOnUse" x2="36.357" y1="6" x1="36.357"/>
  <radialGradient id="d" xlink:href="#a" gradientUnits="userSpaceOnUse" cy="90.172" cx="48" gradientTransform="matrix(1.1573 0 0 .99591 -7.551 .19713)" r="42"/>
 </defs>
 <g fill="url(#l)">
  <path opacity="0.08" d="m61.188 0c-0.39749 0.0082548-0.78585 0.028612-1.1562 0.0625-0.02924 0.0026749-0.06474-0.0027971-0.09375 0h-26.813c-1.1688-0.084259-2.1448 0.30263-2.8125 0.875-0.68685 0.58883-1.0969 1.3061-1.4688 1.9062-0.37184 0.60015-0.72214 1.0499-1.0312 1.25-0.309 0.2001-0.614 0.3149-1.437 0.0313a0.86456 0.86456 0 0 0 -0.313 -0.0625c-5.255 0.0972-10.579-0.2163-15.937 0.1875a0.86456 0.86456 0 0 0 -0.09375 0.03125c-5.3389 0.94296-8.4565 6.2879-7.9375 11.375 0.00856 0.08388-0.010568 0.16629 0 0.25-0.099401 0.80797-0.04588 1.6719 0.34375 2.4375 0.30702 0.6033 0.91991 1.0462 1.625 1.3125v58.75c-0.3763 0.142-0.8035 0.205-1.0622 0.47-0.4553 0.466-0.6877 1.058-0.8125 1.625-0.2496 1.133-0.1455 2.323-0.125 3.125h0.03125c-0.73243 6.0642 4.4632 11.902 10.688 11.312 0.03195-0.003 0.06174 0.0034 0.09375 0 24.014-0.03087 48.043 0.04687 72.062-0.0625a0.86456 0.86456 0 0 0 0.0625 0c5.8012-0.42419 9.5489-6.1575 8.9062-11.625h0.03125c0.0643-0.82529 0.14314-1.9428-0.15625-3-0.14969-0.52861-0.42304-1.0513-0.875-1.4688-0.24078-0.2224-0.63866-0.2529-0.96875-0.375v-58.812c0.377-0.141 0.804-0.204 1.063-0.469 0.45526-0.46633 0.68768-1.0584 0.8125-1.625 0.24217-1.0992 0.15054-2.2317 0.125-3.0312-0.000263-0.0082 0.000244-0.02309 0-0.03125 0.0015-0.02141-0.0013-0.04112 0-0.0625 0.38775-6.1852-5.5513-11.05-11.5-10.281v-0.0302h-14.719c-0.24-1.1925-0.772-2.2008-1.625-2.8128-1.067-0.76532-2.403-1.1083-3.688-1.2188-0.414-0.035607-0.821-0.039455-1.218-0.0312zm-27.188 2h28c1.108 0 2 0.892 2 2v2h20c3.324 0 6 2.676 6 6v4h-2v64h2v4c0 3.324-2.676 6-6 6h-72c-3.324 0-6-2.676-6-6v-4h2v-64h-2v-4c0-3.324 2.676-6 6-6h20v-2c0-1.108 0.892-2 2-2z"/>
  <path opacity=".1" d="m61.156 0.875c-0.39 0.00527-0.761 0.02745-1.125 0.0625h-26.906c-4.0673-0.38301-3.0749 5.3636-7.0312 4-5.3 0.098-10.625-0.2105-15.906 0.1875-4.9158 0.86822-7.8479 5.9519-7.25 10.688-0.24848 1.398 0.33275 3.2201 2 3.25v59.875c-2.3992 0.14938-2.0434 2.9565-2 4.6562-0.76966 5.5857 4.1171 11.071 9.8438 10.469 24.047-0.032 48.109 0.046 72.156-0.063 5.3179-0.38886 8.8139-5.7576 8.125-10.812 0.12523-1.6073 0.2016-4.1502-2-4.25v-59.875c2.3992-0.14938 2.0434-2.9565 2-4.6562 0.415-5.6809-5.152-10.25-10.625-9.4695h-15.375c-0.049-3.2906-3.178-4.0999-5.907-4.063zm-27.156 1.125h28c1.108 0 2 0.892 2 2v2h20c3.324 0 6 2.676 6 6v4h-2v64h2v4c0 3.324-2.676 6-6 6h-72c-3.324 0-6-2.676-6-6v-4h2v-64h-2v-4c0-3.324 2.676-6 6-6h20v-2c0-1.108 0.892-2 2-2z"/>
  <path opacity=".2" d="m33.125 2c-1.685 0-3.125 1.3188-3.125 3v1h2v-2c0-1.108 0.892-2 2-2h-0.875zm28.875 0c1.108 0 2 0.892 2 2v2h2v-1c0-1.6812-1.44-3-3.125-3h-0.875zm-50.812 4.0312c-4.034 0.4098-7.188 3.8274-7.188 7.9688v3a1.0053 1.0053 0 0 0 1 1h1v62h2v-64h-2v-4c0-3.1162 2.3421-5.6626 5.375-5.9688-0.06237 0.00487-0.12554-0.00629-0.1875 0zm-5.188 73.969h-1a1.0053 1.0053 0 0 0 -1 1v4c0 4.4175 3.5825 8 8 8h72c4.4175 0 8-3.5825 8-8v-4a1.0053 1.0053 0 0 0 -1 -1h-1v4c0 3.324-2.676 6-6 6h-72c-3.324 0-6-2.676-6-6v-4zm84 0v-62h1a1.0053 1.0053 0 0 0 1 -1v-3c0-4.2048-3.253-7.6466-7.375-7.9686 3.033 0.3062 5.375 2.8526 5.375 5.9686v4h-2v64h2z"/>
  <path opacity=".3" d="m32.156 3.2188c-0.691 0.3293-1.156 0.9996-1.156 1.7812v1h1v-2c0-0.277 0.05531-0.54181 0.15625-0.78125zm31.688 0c0.101 0.2394 0.156 0.5042 0.156 0.7812v2h1v-1c0-0.7816-0.465-1.4519-1.156-1.7812zm-57.406 6.5312c-0.8995 1.177-1.4375 2.647-1.4375 4.25v3h2v63h1v-64h-2v-4c0-0.796 0.1582-1.556 0.4375-2.25zm83.125 0c0.28 0.694 0.438 1.454 0.438 2.25v4h-2v64h1v-63h2v-3c0-1.603-0.538-3.073-1.438-4.25zm-84.562 71.25v4c0 3.878 3.122 7 7 7h72c3.878 0 7-3.122 7-7v-4h-1v3c0 3.324-2.676 6-6 6h-72c-3.324 0-6-2.676-6-6v-3h-1z"/>
 </g>
 <path opacity=".45" d="m6 16v1h2v-1h-2zm82 0v1h2v-1h-2zm-82 68v1c0 3.324 2.676 6 6 6h72c3.324 0 6-2.676 6-6v-1c0 3.324-2.676 6-6 6h-72c-3.324 0-6-2.676-6-6z" fill="url(#m)"/>
 <path d="m8 36v44h80v-44h-80z" fill="url(#e)"/>
 <path opacity=".6" d="m8 78v2h80v-2h-80z" fill="#338000"/>
 <path d="m48 36v44h40v-44h-40z" fill="url(#k)"/>
 <path opacity=".4" d="m8 36v2h80v-2h-80z" fill="#aad400"/>
 <path opacity=".3" d="m8 36v44h2v-44h-2zm78 0v44h2v-44h-2z" fill="#aad400"/>
 <rect rx="2" ry="2" height="8.1" width="32" y="2" x="32" fill="url(#n)"/>
 <path d="m8 16v64h80v-64h-80z" fill="url(#h)"/>
 <path d="m12 6c-3.324 0-6 2.676-6 6v4h84v-4c0-3.324-2.676-6-6-6h-72z" fill="url(#i)"/>
 <path d="m12 90c-3.324 0-6-2.676-6-6v-4h84v4c0 3.324-2.676 6-6 6h-72z" fill="url(#j)"/>
 <path opacity=".5" d="m34 2c-1.108 0-2 0.892-2 2v1c0-1.108 0.892-2 2-2h28c1.108 0 2 0.892 2 2v-1c0-1.108-0.892-2-2-2h-28z" fill="#fff"/>
 <rect opacity=".2" height="1" width="32" y="5" x="32"/>
 <rect opacity=".4" height="84" width="21" y="6" x="14" fill="url(#o)"/>
 <rect opacity=".2" height="84" width="12" y="6" x="60" fill="url(#p)"/>
 <rect opacity="0.29" height="2" width="84" y="80" x="6" fill="#fff"/>
 <rect opacity=".1" height="2" width="84" y="14" x="6"/>
 <path opacity=".1" d="m8 16v2h80v-2h-80z"/>
 <rect opacity=".1" height="84" width="5" y="6" x="51" fill="url(#q)"/>
 <rect opacity=".4" height="20" width="2" y="16" x="8" fill="#fff"/>
 <rect opacity=".3" height="20" width="2" y="16" x="86" fill="#fff"/>
 <path opacity=".2" d="m10.156 6.3438c-0.3013 0.0968-0.5962 0.2041-0.8748 0.3437-0.557 0.2792-1.06 0.6657-1.5 1.0937-0.2199 0.2141-0.4093 0.4419-0.5937 0.6876-0.1844 0.2456-0.3554 0.5077-0.5 0.7812-0.1401 0.265-0.2761 0.5247-0.375 0.812-0.0104 0.031-0.0214 0.064-0.0313 0.094-0.0904 0.278-0.1388 0.58-0.1874 0.875-0.0524 0.318-0.0938 0.634-0.0938 0.969v4h1v-5c0-0.364 0.0521-0.721 0.125-1.0625 0.0234-0.1095 0.0634-0.2059 0.0938-0.3125 0.0266-0.0944 0.0306-0.1893 0.0624-0.2812 0.0077-0.022 0.0233-0.0407 0.0313-0.0626 0.0756-0.2092 0.1802-0.4302 0.2813-0.625 0.0572-0.1079 0.1227-0.2094 0.1874-0.3124 0.0241-0.0392 0.0375-0.0867 0.0626-0.125 0.0941-0.141 0.2049-0.276 0.3124-0.4063 0.15254-0.18586 0.32207-0.36982 0.5-0.53125 0.099219-0.088888 0.20633-0.1692 0.3125-0.25 0.11273-0.086487 0.22336-0.1733 0.34375-0.25 0.031457-0.01999 0.061817-0.0432 0.09375-0.0625 0.00738-0.0045 0.02384 0.0044 0.03125 0 0.2321-0.1388 0.4626-0.2748 0.7186-0.375zm75.688 0c0.2562 0.10022 0.48671 0.23627 0.71875 0.375 0.0074 0.0044 0.02385-0.0045 0.03125 0 0.10818 0.065386 0.20993 0.1456 0.3125 0.21875 0.15241 0.10931 0.29911 0.21819 0.4375 0.34375 0.01127 0.0101 0.02008 0.02105 0.03125 0.03125 0.16561 0.153 0.32558 0.32555 0.46875 0.5 0.10758 0.13026 0.21839 0.26528 0.3125 0.40625 0.06073 0.0929 0.1329 0.18404 0.1875 0.28125 0.04596 0.080046 0.08342 0.1672 0.125 0.25 0.08037 0.1638 0.15601 0.35751 0.21875 0.53125 0.0079 0.02181 0.02355 0.04055 0.03125 0.0625 0.06787 0.19609 0.1121 0.38686 0.15625 0.59375 0.073 0.3416 0.125 0.6986 0.125 1.0626v5h1v-4c0-0.33472-0.04135-0.6507-0.09375-0.96875-0.0487-0.2956-0.09704-0.59692-0.1875-0.875-0.01-0.031-0.021-0.063-0.031-0.094-0.099-0.2869-0.235-0.5466-0.376-0.8116-0.144-0.2735-0.315-0.5356-0.5-0.7812-0.184-0.2457-0.373-0.4735-0.593-0.6876-0.44-0.428-0.943-0.8145-1.5-1.0937-0.279-0.1396-0.574-0.2469-0.875-0.3437zm-79.844 73.656v4c0 3.324 2.676 6 6 6h72c3.324 0 6-2.676 6-6v-4h-1v3c0 2.7818-2.2182 5-5 5h-72c-2.7818 0-5-2.218-5-5v-3h-1z" fill="url(#d)"/>
 <path opacity=".2" d="m12 6c-3.324 0-6 2.676-6 6v4h1v-3c0-2.782 2.2182-5 5-5h72c2.7818 0 5 2.2182 5 5v3h1v-4c0-3.324-2.676-6-6-6h-72zm-6 74v4c0 0.33472 0.04135 0.6507 0.09375 0.96875 0.0487 0.2956 0.09704 0.59692 0.1875 0.875 0.00988 0.03038 0.020892 0.0636 0.03125 0.09375 0.098865 0.28777 0.23488 0.54745 0.375 0.8125 0.14459 0.27351 0.31562 0.53562 0.5 0.78125 0.18438 0.24564 0.37378 0.47347 0.59375 0.6875 0.43995 0.42806 0.94291 0.81453 1.5 1.0938 0.27854 0.13961 0.57347 0.24695 0.875 0.34375-0.2562-0.10022-0.48671-0.23627-0.71875-0.375-0.00741-0.0044-0.023866 0.0045-0.03125 0-0.0319-0.019-0.0622-0.042-0.0937-0.062-0.1204-0.077-0.231-0.164-0.3437-0.25-0.1062-0.081-0.2133-0.161-0.3126-0.25-0.1778-0.162-0.3473-0.346-0.4999-0.531-0.1075-0.131-0.2183-0.266-0.3124-0.407-0.0251-0.038-0.0385-0.086-0.0626-0.125-0.0647-0.103-0.1302-0.204-0.1874-0.312-0.1011-0.195-0.2057-0.416-0.2813-0.625-0.008-0.022-0.0236-0.041-0.0313-0.063-0.0318-0.092-0.0358-0.187-0.0624-0.281-0.0304-0.107-0.0704-0.203-0.0938-0.313-0.0729-0.341-0.125-0.698-0.125-1.062v-5h-1zm83 0v5c0 0.3643-0.05212 0.72099-0.125 1.0625-0.04415 0.20689-0.08838 0.39766-0.15625 0.59375-0.0077 0.02195-0.0233 0.04069-0.03125 0.0625-0.06274 0.17374-0.13838 0.36745-0.21875 0.53125-0.04158 0.0828-0.07904 0.16995-0.125 0.25-0.0546 0.09721-0.12677 0.18835-0.1875 0.28125-0.09411 0.14096-0.20492 0.276-0.3125 0.40625-0.14317 0.17445-0.30314 0.347-0.46875 0.5-0.01117 0.0102-0.01998 0.02115-0.03125 0.03125-0.13839 0.12556-0.28509 0.23444-0.4375 0.34375-0.10257 0.07315-0.20432 0.15336-0.3125 0.21875-0.0074 0.0045-0.02384-0.0044-0.03125 0-0.23204 0.13873-0.46255 0.27478-0.71875 0.375 0.30153-0.0968 0.59646-0.20414 0.875-0.34375 0.55709-0.27922 1.0601-0.66569 1.5-1.0938 0.21997-0.21403 0.40937-0.44186 0.59375-0.6875s0.35541-0.50774 0.5-0.78125c0.14012-0.26505 0.27614-0.52473 0.375-0.8125 0.01041-0.03078 0.02133-0.06274 0.03125-0.09375 0.09046-0.27808 0.1388-0.5794 0.1875-0.875 0.053-0.318 0.094-0.634 0.094-0.969v-4h-1z" fill="url(#f)"/>
 <path opacity=".8" d="m68 22v2h16v-2h-16zm0 8v2h16v-2h-16zm0 8v2h16v-2h-16zm0 8v2h16v-2h-16zm0 8v2h16v-2h-16zm0 8v2h16v-2h-16zm0 8v2h16v-2h-16z" fill="url(#r)"/>
 <path opacity=".8" d="m57.981 44v12h6.019l-6.019 16v-12h-6.0192l6.0192-16z" fill="#fff"/>
</svg>
