<?xml version="1.0" encoding="UTF-8" standalone="no"?>
<svg xmlns="http://www.w3.org/2000/svg" height="96" width="96" version="1.1" xmlns:xlink="http://www.w3.org/1999/xlink">
 <defs>
  <linearGradient id="a" stop-color="#fff">
   <stop offset="0"/>
   <stop stop-opacity="0" offset="1"/>
  </linearGradient>
  <linearGradient id="h">
   <stop offset="0"/>
   <stop stop-opacity="0" offset="1"/>
  </linearGradient>
  <filter id="q" height="1.384" width="1.384" color-interpolation-filters="sRGB" y="-.192" x="-.192">
   <feGaussianBlur stdDeviation="5.28"/>
  </filter>
  <linearGradient id="t" y2="138.66" xlink:href="#a" gradientUnits="userSpaceOnUse" x2="48" y1="20.221" x1="48"/>
  <clipPath id="o">
   <rect rx="6" ry="6" height="84" width="84" y="6" x="6" fill="#fff"/>
  </clipPath>
  <clipPath id="p">
   <path d="m20.156 18c-1.187 0-2.156 0.892-2.156 2v70h60v-70c0-1.108-0.96911-2-2.1562-2h-55.688z" fill="#f0f"/>
  </clipPath>
  <filter id="s" color-interpolation-filters="sRGB">
   <feGaussianBlur stdDeviation="0.9015067"/>
  </filter>
  <filter id="r" height="1.168" width="1.224" color-interpolation-filters="sRGB" y="-0.084" x="-.112">
   <feGaussianBlur stdDeviation="2.8"/>
  </filter>
  <linearGradient id="g">
   <stop stop-color="#818181" offset="0"/>
   <stop stop-color="#f9f9f9" offset=".2"/>
   <stop stop-color="#dcdcdc" stop-opacity="0" offset="1"/>
  </linearGradient>
  <linearGradient id="b" y2="7.0165" gradientUnits="userSpaceOnUse" x2="45.448" gradientTransform="matrix(1.0059 0 0 .99417 100 0)" y1="92.54" x1="45.448">
   <stop offset="0"/>
   <stop stop-opacity=".58824" offset="1"/>
  </linearGradient>
  <linearGradient id="n" y2="15.672" xlink:href="#a" gradientUnits="userSpaceOnUse" x2="19" y1="54" x1="19"/>
  <linearGradient id="m" y2="46.896" xlink:href="#h" gradientUnits="userSpaceOnUse" x2="11" gradientTransform="matrix(1 0 0 .58612 10 -14.334)" y1="84" x1="11"/>
  <linearGradient id="l" y2="11.465" gradientUnits="userSpaceOnUse" x2="48" gradientTransform="matrix(.9038 0 0 .9038 4.6178 4.6178)" y1="61.848" x1="48">
   <stop stop-color="#0c0c0c" offset="0"/>
   <stop stop-color="#2c2c2c" offset=".08693"/>
   <stop stop-color="#353535" offset=".09784"/>
   <stop stop-color="#383838" offset=".59720"/>
   <stop stop-color="#484848" offset=".60162"/>
   <stop stop-color="#151515" offset="1"/>
  </linearGradient>
  <linearGradient id="k" y2="6" xlink:href="#b" gradientUnits="userSpaceOnUse" x2="32.251" gradientTransform="translate(0,1)" y1="90" x1="32.251"/>
  <radialGradient id="y" xlink:href="#a" gradientUnits="userSpaceOnUse" cy="48.316" cx="72.107" gradientTransform="matrix(1 0 0 .50251 0 13.96)" r="24"/>
  <linearGradient id="j" y2="16.025" gradientUnits="userSpaceOnUse" x2="61.096" y1="19.469" x1="61.096">
   <stop stop-color="#e1e1e1" offset="0"/>
   <stop stop-color="#e0e0e0" stop-opacity=".37984" offset="1"/>
  </linearGradient>
  <radialGradient id="x" xlink:href="#a" gradientUnits="userSpaceOnUse" cy="62.5" cx="48" gradientTransform="matrix(1 0 0 .030612 .17857 60.83)" r="28"/>
  <linearGradient id="i" y2="56.171" xlink:href="#h" gradientUnits="userSpaceOnUse" x2="27.829" y1="65.136" x1="27.829"/>
  <linearGradient id="an" y2="69.628" xlink:href="#a" gradientUnits="userSpaceOnUse" x2="27.321" gradientTransform="translate(1 .53571)" y1="61.397" x1="27.321"/>
  <linearGradient id="am" y2="73" xlink:href="#g" gradientUnits="userSpaceOnUse" x2="24" gradientTransform="matrix(-1,0,0,1,96,0)" y1="73" x1="6"/>
  <linearGradient id="al" y2="61.4" gradientUnits="userSpaceOnUse" x2="58.929" y1="72.179" x1="58.929">
   <stop offset="0"/>
   <stop stop-color="#1f1f1f" offset="1"/>
  </linearGradient>
  <linearGradient id="ak" y2="73" xlink:href="#g" gradientUnits="userSpaceOnUse" x2="24" y1="73" x1="6"/>
  <radialGradient id="w" gradientUnits="userSpaceOnUse" cy="64.02" cx="12" gradientTransform="matrix(1.0714 0 0 .4375 -.85714 4.4375)" r="4">
   <stop stop-color="#59d338" offset="0"/>
   <stop stop-color="#289140" offset="1"/>
  </radialGradient>
  <radialGradient id="v" gradientUnits="userSpaceOnUse" cy="85.062" cx="18.089" gradientTransform="matrix(1.1923,0,0,1.1923,-9.5766,-52.412)" r="2.0893">
   <stop stop-color="#c1ff97" offset="0"/>
   <stop stop-color="#30c700" offset="1"/>
  </radialGradient>
  <linearGradient id="aj" y2="85.062" gradientUnits="userSpaceOnUse" x2="20.179" gradientTransform="matrix(0,1.6709,1.6638,0,-129.54,18.783)" y1="85.062" x1="16">
   <stop stop-color="#767676" offset="0"/>
   <stop stop-color="#fdfdfd" offset="1"/>
  </linearGradient>
  <radialGradient id="u" xlink:href="#a" gradientUnits="userSpaceOnUse" cy="90.172" cx="48" gradientTransform="matrix(1.1573 0 0 .99591 -7.551 .19713)" r="42"/>
  <linearGradient id="ai" y2="63.893" xlink:href="#a" gradientUnits="userSpaceOnUse" x2="36.357" y1="6" x1="36.357"/>
  <linearGradient id="ah" y2="51.892" gradientUnits="userSpaceOnUse" x2="48" y1="66.469" x1="48">
   <stop stop-color="#969696" offset="0"/>
   <stop stop-color="#808080" stop-opacity="0" offset="1"/>
  </linearGradient>
  <linearGradient id="ae" y2="5.9877" gradientUnits="userSpaceOnUse" x2="48" y1="90" x1="48">
   <stop stop-color="#bebebe" offset="0"/>
   <stop stop-color="#e6e6e6" offset="1"/>
  </linearGradient>
  <linearGradient id="aa" y2="5.9996" xlink:href="#b" gradientUnits="userSpaceOnUse" x2="32.251" gradientTransform="matrix(1.0238 0 0 1.0119 -1.1429 .929)" y1="90" x1="32.251"/>
  <linearGradient id="z" y2="90.239" xlink:href="#b" gradientUnits="userSpaceOnUse" x2="32.251" gradientTransform="matrix(1.0238,0,0,-1.0119,-1.1429,98.071)" y1="6.1317" x1="32.251"/>
 </defs>
 <g fill="url(#z)">
  <path opacity="0.08" d="m12 95.031c-5.5111 0-10.031-4.52-10.031-10.031v-71c0-5.5111 4.5202-10.031 10.031-10.031h72c5.5111 0 10.031 4.5202 10.031 10.031v71c0 5.5111-4.5202 10.031-10.031 10.031h-72z"/>
  <path opacity=".1" d="m12 94.031c-4.9716 0-9.0312-4.0596-9.0312-9.0312v-71c0-4.9722 4.0596-9.0318 9.0312-9.0318h72c4.9716 0 9.0312 4.0596 9.0312 9.0312v71c0 4.9716-4.0596 9.0312-9.0312 9.0312h-72z"/>
  <path opacity=".2" d="m12 93c-4.4091 0-8-3.591-8-8v-71c0-4.4091 3.5909-8 8-8h72c4.4091 0 8 3.5909 8 8v71c0 4.4091-3.5909 8-8 8h-72z"/>
 </g>
 <rect opacity=".3" rx="7" ry="7" height="85" width="86" y="7" x="5" fill="url(#aa)"/>
 <rect opacity=".45" rx="6" ry="6" height="84" width="84" y="7" x="6" fill="url(#k)"/>
 <rect opacity="0.98" rx="5.4" ry="5.4" height="76" width="76" y="10" x="10" fill="url(#l)"/>
 <path opacity=".2" d="m21 13.8v42.2h1v-42.2h-1zm3 0v42.2h1v-42.2h-1zm3 0v42.2h1v-42.2h-1zm3 0v42.2h1v-42.2h-1zm3 0v42.2h1v-42.2h-1zm3 0v42.2h1v-42.2h-1zm3 0v42.2h1v-42.2h-1zm3 0v42.2h1v-42.2h-1zm3 0v42.2h1v-42.2h-1zm3 0v42.2h1v-42.2h-1zm3 0v42.2h1v-42.2h-1zm3 0v42.2h1v-42.2h-1zm3 0v42.2h1v-42.2h-1zm3 0v42.2h1v-42.2h-1zm3 0v42.2h1v-42.2h-1zm3 0v42.2h1v-42.2h-1zm3 0v42.2h1v-42.2h-1zm3 0v42.2h1v-42.2h-1zm3 0v42.2h1v-42.2h-1z" fill="url(#m)"/>
 <path opacity=".1" d="m19 14v42h1v-42h-1zm3 0v42h1v-42h-1zm3 0v42h1v-42h-1zm3 0v42h1v-42h-1zm3 0v42h1v-42h-1zm3 0v42h1v-42h-1zm3 0v42h1v-42h-1zm3 0v42h1v-42h-1zm3 0v42h1v-42h-1zm3 0v42h1v-42h-1zm3 0v42h1v-42h-1zm3 0v42h1v-42h-1zm3 0v42h1v-42h-1zm3 0v42h1v-42h-1zm3 0v42h1v-42h-1zm3 0v42h1v-42h-1zm3 0v42h1v-42h-1zm3 0v42h1v-42h-1zm3 0v42h1v-42h-1zm3 0v42h1v-42h-1z" fill="url(#n)"/>
 <rect opacity="0.98" height="1" width="66" y="48" x="15" fill="#111"/>
 <rect opacity="0.98" height="4" width="8" y="49" x="44" fill="#111"/>
 <rect opacity="0.98" rx=".5" ry=".5" height="1" width="54" y="16" x="21"/>
 <rect opacity=".1" clip-path="url(#o)" rx="12" ry="12" height="66" filter="url(#q)" width="66" stroke="#fff" stroke-linecap="round" y="15" x="15" stroke-width=".5" fill="url(#t)"/>
 <path opacity=".6" d="m24 17h48v22c-4.2857 2.8571-48 2-48 2v-24z" filter="url(#s)"/>
 <path d="m24 16h48v22c-4.2857 2.8571-48 2-48 2v-24z" fill="url(#j)"/> 
 <g font-size="2px" font-family="Liberation Sans" font-weight="bold" fill="#000000">
  <text transform="scale(-1)" y="-33.60593" x="-67.514816">Lorem ipsum dolor sit amet, consectetur</text>
  <text transform="scale(-1)" y="-17.60593" x="-67.459152">convallis in tempus et, sollicitudin id velit.</text>
  <text transform="scale(-1)" y="-29.60593" x="-67.439621">adipiscing elit. Curabitur sollicitudin</text>
  <text transform="scale(-1)" y="-25.60593" x="-67.45134" >sodales eros, sit amet lobortis massa</text>
  <text transform="scale(-1)" y="-21.60593" x="-67.459152">euismod nec. Suspendisse tellns est.</text>
 </g>
 <path d="m36 26h36v12c-4.2857 2.8571-36 2-36 2v-14z" fill="url(#y)"/>
 <rect opacity=".7" transform="translate(0,-4)" clip-path="url(#p)" rx="2" ry="2" height="80" filter="url(#r)" width="60" stroke="#000" y="18" x="18" stroke-width="2" fill="none"/>
 <path d="m12 6c-3.324 0-6 2.676-6 6v62c0 3.324 2.676 6 6 6h72c3.324 0 6-2.676 6-6v-62c0-3.324-2.676-6-6-6h-72zm8.1562 8h55.688c1.187 0 2.156 0.892 2.156 2v32l-2 2v12h-56v-12l-2-2v-32c0-1.108 0.96911-2 2.1562-2z" fill="url(#ae)"/>
 <path opacity="0.98" d="m6 50v24c0 3.324 2.676 6 6 6h72c3.324 0 6-2.676 6-6v-24c0 3.324-2.676 6-6 6h-8v6h-56v-6h-8c-3.324 0-6-2.676-6-6z" fill="url(#ah)"/>
 <path opacity=".5" d="m12 6c-3.324 0-6 2.676-6 6v72c0 0.33472 0.04135 0.6507 0.09375 0.96875 0.0487 0.2956 0.09704 0.59692 0.1875 0.875 0.00988 0.03038 0.020892 0.0636 0.03125 0.09375 0.098865 0.28777 0.23488 0.54745 0.375 0.8125 0.14459 0.27351 0.31562 0.53562 0.5 0.78125 0.18438 0.24564 0.37378 0.47347 0.59375 0.6875 0.43995 0.42806 0.94291 0.81453 1.5 1.0938 0.27854 0.13961 0.57347 0.24695 0.875 0.34375-0.2562-0.10022-0.48671-0.23627-0.71875-0.375-0.00741-0.0044-0.023866 0.0045-0.03125 0-0.0319-0.019-0.0622-0.042-0.0937-0.062-0.1204-0.077-0.231-0.164-0.3437-0.25-0.1062-0.081-0.2133-0.161-0.3126-0.25-0.1778-0.162-0.3473-0.346-0.4999-0.531-0.1075-0.131-0.2183-0.266-0.3124-0.407-0.0251-0.038-0.0385-0.086-0.0626-0.125-0.0647-0.103-0.1302-0.204-0.1874-0.312-0.1011-0.195-0.2057-0.416-0.2813-0.625-0.008-0.022-0.0236-0.041-0.0313-0.063-0.0318-0.092-0.0358-0.187-0.0624-0.281-0.0304-0.107-0.0704-0.203-0.0938-0.313-0.0729-0.341-0.125-0.698-0.125-1.062v-72c0-2.782 2.2182-5 5-5h72c2.7818 0 5 2.2182 5 5v72c0 0.3643-0.05212 0.72099-0.125 1.0625-0.04415 0.20689-0.08838 0.39766-0.15625 0.59375-0.0077 0.02195-0.0233 0.04069-0.03125 0.0625-0.06274 0.17374-0.13838 0.36745-0.21875 0.53125-0.04158 0.0828-0.07904 0.16995-0.125 0.25-0.0546 0.09721-0.12677 0.18835-0.1875 0.28125-0.09411 0.14096-0.20492 0.276-0.3125 0.40625-0.14317 0.17445-0.30314 0.347-0.46875 0.5-0.01117 0.0102-0.01998 0.02115-0.03125 0.03125-0.13839 0.12556-0.28509 0.23444-0.4375 0.34375-0.10257 0.07315-0.20432 0.15336-0.3125 0.21875-0.0074 0.0045-0.02384-0.0044-0.03125 0-0.23204 0.13873-0.46255 0.27478-0.71875 0.375 0.30153-0.0968 0.59646-0.20414 0.875-0.34375 0.55709-0.27922 1.0601-0.66569 1.5-1.0938 0.21997-0.21403 0.40937-0.44186 0.59375-0.6875s0.35541-0.50774 0.5-0.78125c0.14012-0.26505 0.27614-0.52473 0.375-0.8125 0.01041-0.03078 0.02133-0.06274 0.03125-0.09375 0.09046-0.27808 0.1388-0.5794 0.1875-0.875 0.053-0.318 0.094-0.634 0.094-0.969v-72c0-3.324-2.676-6-6-6h-72z" fill="url(#ai)"/>
 <path opacity="0.98" d="m6 72v12c0 3.324 2.676 6 6 6h72c3.324 0 6-2.676 6-6v-12c0 3.324-2.676 6-6 6h-72c-3.324 0-6-2.676-6-6z" fill="#424242"/>
 <path opacity=".2" d="m12 90c-3.324 0-6-2.676-6-6v-72c0-0.33472 0.04135-0.6507 0.09375-0.96875 0.0487-0.2956 0.09704-0.59692 0.1875-0.875 0.0099-0.03 0.0209-0.063 0.0313-0.094 0.0989-0.2873 0.2349-0.547 0.375-0.812 0.1446-0.2735 0.3156-0.5356 0.5-0.7812 0.1844-0.2457 0.3738-0.4735 0.5937-0.6876 0.44-0.428 0.943-0.8145 1.5-1.0937 0.2786-0.1396 0.5735-0.2469 0.8748-0.3437-0.256 0.1002-0.4865 0.2362-0.7185 0.375-0.00741 0.0044-0.023866-0.0045-0.03125 0-0.031933 0.0193-0.062293 0.04251-0.09375 0.0625-0.1204 0.0767-0.23102 0.16351-0.34375 0.25-0.10617 0.0808-0.21328 0.16111-0.3125 0.25-0.1779 0.1614-0.3474 0.3453-0.5 0.5312-0.1075 0.1303-0.2183 0.2653-0.3124 0.4063-0.0251 0.0383-0.0385 0.0858-0.0626 0.125-0.0647 0.103-0.1302 0.2045-0.1874 0.3124-0.1011 0.1948-0.2057 0.4158-0.2813 0.625-0.008 0.0219-0.0236 0.0406-0.0313 0.0626-0.0318 0.0919-0.0358 0.1868-0.0624 0.2812-0.0304 0.1066-0.0704 0.203-0.0938 0.3125-0.0729 0.3415-0.125 0.6985-0.125 1.0625v72c0 2.7818 2.2182 5 5 5h72c2.7818 0 5-2.2182 5-5v-72c0-0.364-0.052-0.721-0.125-1.0625-0.044-0.2069-0.088-0.3977-0.156-0.5937-0.008-0.022-0.024-0.0407-0.031-0.0626-0.063-0.1737-0.139-0.3674-0.219-0.5312-0.042-0.0828-0.079-0.17-0.125-0.25-0.055-0.0972-0.127-0.1884-0.188-0.2812-0.094-0.141-0.205-0.276-0.312-0.4063-0.143-0.1745-0.303-0.347-0.469-0.5-0.011-0.0102-0.02-0.0211-0.031-0.0313-0.139-0.1255-0.285-0.2344-0.438-0.3437-0.102-0.0731-0.204-0.1534-0.312-0.2187-0.0074-0.0045-0.02384 0.0044-0.03125 0-0.23204-0.13873-0.46255-0.27478-0.71875-0.375 0.30153 0.0968 0.59646 0.20414 0.875 0.34375 0.55709 0.27922 1.0601 0.66569 1.5 1.0938 0.21997 0.21403 0.40937 0.44186 0.59375 0.6875s0.35541 0.50774 0.5 0.78125c0.14012 0.26505 0.27614 0.52473 0.375 0.8125 0.01041 0.03078 0.02133 0.06274 0.03125 0.09375 0.09046 0.27808 0.1388 0.5794 0.1875 0.875 0.053 0.318 0.094 0.634 0.094 0.969v72c0 3.324-2.676 6-6 6h-72z" fill="url(#u)"/>
 <path opacity=".6" d="m19.156 13c-1.187 0-2.156 0.892-2.156 2v32l1 1v-32c0-1.108 0.96911-2 2.1562-2h55.688c1.187 0 2.156 0.892 2.156 2v32l1-1v-32c0-1.108-0.96911-2-2.1562-2h-57.688zm-0.156 36v6l-1 1h2v-6l-1-1zm58 0-1 1v6h2l-1-1v-6z" fill="#fff"/>
 <path opacity=".15" d="m6 50v34c0 3.324 2.676 6 6 6h12v-34h-12c-3.324 0-6-2.676-6-6z" fill="url(#ak)"/>
 <path d="m20 62c0 5.54 12.488 10 28 10s28-4.46 28-10h-56z" fill="url(#al)"/>
 <path opacity=".15" d="m90 50c0 3.324-2.676 6-6 6h-12v34h12c3.324 0 6-2.676 6-6v-34z" fill="url(#am)"/>
 <path opacity=".6" d="m21 62.536c0 2.2329 2.0623 4.2768 5.5 5.9375 6.264-2.5934 14.152-4.6463 23.062-5.9375h-28.562z" fill="url(#an)"/>
 <path d="m20 56v6c0 5.54 12.488 10 28 10s28-4.46 28-10v-6h-1v5.9995c0 1.0055-0.56954 2.0455-1.8438 3.125-1.2742 1.0795-3.234 2.1237-5.6875 3-4.907 1.753-11.81 2.875-19.469 2.875s-14.562-1.122-19.469-2.875c-2.4535-0.87626-4.4133-1.9205-5.6875-3-1.274-1.079-1.844-2.12-1.844-3.125v-6h-1z" fill="url(#i)"/>
 <rect y="61" width="54" x="21" height="1"/>
 <path opacity=".4" d="m19 56v7c0 5.54 12.934 10 29 10s29-4.46 29-10v-7h-1v6c0 5.54-12.488 10-28 10s-28-4.46-28-10v-6h-1z" fill="#fff"/>
 <path opacity=".3" d="m6 71v2c0 3.324 2.676 6 6 6h72c3.324 0 6-2.676 6-6v-2c0 3.324-2.676 6-6 6h-72c-3.324 0-6-2.676-6-6z"/>
 <path opacity=".5" d="m6 49v1c0 3.324 2.676 6 6 6h8v-1h-8c-3.324 0-6-2.676-6-6zm84 0c0 3.324-2.676 6-6 6h-8v1h8c3.324 0 6-2.676 6-6v-1z" fill="#fff"/>
 <path d="m20.179 61.886c0 0.57611 0.06646 1.1531 0.15625 1.7143h55.688c0.08979-0.56119 0.15625-1.1382 0.15625-1.7143h-56z" fill="url(#x)"/>
 <rect opacity=".4" rx="1" ry="1" height="4" width="8" y="31" x="8" fill="#fff"/>
 <rect rx=".53571" ry=".4375" height="3.5" width="7.5" stroke="#008033" y="30.25" x="8.25" stroke-width=".5" fill="url(#w)"/>
 <path opacity="0.18" d="m8.75 36c-0.4155 0-0.75 0.334-0.75 0.75v2.5c0 0.416 0.3345 0.75 0.75 0.75-0.4155 0-0.75 0.334-0.75 0.75v2.5c0 0.416 0.3345 0.75 0.75 0.75h2.5c0.416 0 0.75-0.334 0.75-0.75 0 0.416 0.334 0.75 0.75 0.75h2.5c0.416 0 0.75-0.334 0.75-0.75v-2.5c0-0.416-0.334-0.75-0.75-0.75 0.416 0 0.75-0.334 0.75-0.75v-2.5c0-0.416-0.334-0.75-0.75-0.75h-2.5c-0.416 0-0.75 0.334-0.75 0.75 0-0.416-0.334-0.75-0.75-0.75h-2.5zm3.25 3.25c0 0.416 0.334 0.75 0.75 0.75-0.416 0-0.75 0.334-0.75 0.75 0-0.416-0.334-0.75-0.75-0.75 0.416 0 0.75-0.334 0.75-0.75z"/>
 <rect rx=".5" ry=".5" height="3" width="3" y="40" x="8" fill="#fff"/>
 <path d="m11.986 52.5a3.4909 3.491 0 1 0 0 -6.982 3.4909 3.491 0 1 0 0 6.982z" fill="url(#aj)"/>
 <path d="m14.482 49.006a2.491 2.491 0 1 1 -4.982 0 2.491 2.491 0 1 1 4.982 0z" stroke-opacity="0.53" stroke="#000" stroke-linecap="square" fill="url(#v)"/>
 <rect height="1" width="1" y="25" x="8" fill="#ff7600"/>
 <rect height="1" width="1" y="27" x="8" fill="#f00"/>
 <rect height="1" width="1" y="23" x="8" fill="#ff7600"/>
 <g fill="#fff">
  <rect rx=".5" ry=".5" height="3" width="3" y="40" x="12"/>
  <rect rx=".5" ry=".5" height="3" width="3" y="36" x="8"/>
  <rect rx=".5" ry=".5" height="3" width="3" y="36" x="12"/>
 </g>
 <g font-size="1.3212px" font-family="Liberation Sans" font-weight="bold" fill="#4d4d4d">
  <text y="24.004856" x="9.9991913">Power</text>
  <text y="26.004997" x="9.9991913">Network</text>
  <text y="28.005146" x="9.9991913">Error</text>
 </g>
</svg>
