<?xml version="1.0" encoding="UTF-8" standalone="no"?>
<!-- Created with Inkscape (http://www.inkscape.org/) -->

<svg
   xmlns:dc="http://purl.org/dc/elements/1.1/"
   xmlns:cc="http://creativecommons.org/ns#"
   xmlns:rdf="http://www.w3.org/1999/02/22-rdf-syntax-ns#"
   xmlns:svg="http://www.w3.org/2000/svg"
   xmlns="http://www.w3.org/2000/svg"
   xmlns:xlink="http://www.w3.org/1999/xlink"
   xmlns:inkscape="http://www.inkscape.org/namespaces/inkscape"
   version="1.0"
   width="96"
   height="96"
   id="svg2408">
  <defs
     id="defs2410">
    <linearGradient
       x1="45.447727"
       y1="92.539597"
       x2="45.447727"
       y2="7.0165396"
       id="ButtonShadow"
       gradientUnits="userSpaceOnUse"
       gradientTransform="scale(1.0058652,0.994169)">
      <stop
         id="stop3750"
         style="stop-color:#000000;stop-opacity:1"
         offset="0" />
      <stop
         id="stop3752"
         style="stop-color:#000000;stop-opacity:0.58823532"
         offset="1" />
    </linearGradient>
    <linearGradient
       id="linearGradient3737">
      <stop
         id="stop3739"
         style="stop-color:#ffffff;stop-opacity:1"
         offset="0" />
      <stop
         id="stop3741"
         style="stop-color:#ffffff;stop-opacity:0"
         offset="1" />
    </linearGradient>
    <filter
       color-interpolation-filters="sRGB"
       id="filter3174">
      <feGaussianBlur
         id="feGaussianBlur3176"
         stdDeviation="1.71" />
    </filter>
    <linearGradient
       x1="36.357143"
       y1="6"
       x2="36.357143"
       y2="63.893143"
       id="linearGradient3188"
       xlink:href="#linearGradient3737"
       gradientUnits="userSpaceOnUse" />
    <filter
       x="-0.192"
       y="-0.192"
       width="1.3839999"
       height="1.3839999"
       color-interpolation-filters="sRGB"
       id="filter3794">
      <feGaussianBlur
         id="feGaussianBlur3796"
         stdDeviation="5.28" />
    </filter>
    <linearGradient
       x1="48"
       y1="20.220806"
       x2="48"
       y2="138.66119"
       id="linearGradient3613"
       xlink:href="#linearGradient3737"
       gradientUnits="userSpaceOnUse" />
    <radialGradient
       cx="48"
       cy="90.171875"
       r="42"
       fx="48"
       fy="90.171875"
       id="radialGradient3619"
       xlink:href="#linearGradient3737"
       gradientUnits="userSpaceOnUse"
       gradientTransform="matrix(1.1573129,0,0,0.99590774,-7.5510206,0.19713193)" />
    <clipPath
       id="clipPath3613">
      <rect
         width="84"
         height="84"
         rx="6"
         ry="6"
         x="6"
         y="6"
         id="rect3615"
         style="fill:#ffffff;fill-opacity:1;fill-rule:nonzero;stroke:none" />
    </clipPath>
    <linearGradient
       x1="48"
       y1="90"
       x2="48"
       y2="5.9877172"
       id="linearGradient3617"
       xlink:href="#ButtonColor"
       gradientUnits="userSpaceOnUse" />
    <linearGradient
       x1="10.31979"
       y1="21"
       x2="10.31979"
       y2="0.99929649"
       id="ButtonColor"
       gradientUnits="userSpaceOnUse">
      <stop
         id="stop3189"
         style="stop-color:#2764bf;stop-opacity:1"
         offset="0" />
      <stop
         id="stop3191"
         style="stop-color:#71a1e8;stop-opacity:1"
         offset="1" />
    </linearGradient>
    <linearGradient
       id="linearGradient6746">
      <stop
         id="stop6748"
         style="stop-color:#19407c;stop-opacity:1"
         offset="0" />
      <stop
         id="stop6750"
         style="stop-color:#4f87dc;stop-opacity:0.50588238"
         offset="0.28121248" />
      <stop
         id="stop6752"
         style="stop-color:#2156a4;stop-opacity:1"
         offset="0.45118788" />
      <stop
         id="stop6754"
         style="stop-color:#1b4789;stop-opacity:1"
         offset="0.58596319" />
      <stop
         id="stop6756"
         style="stop-color:#1f5bb4;stop-opacity:1"
         offset="0.76171201" />
      <stop
         id="stop6758"
         style="stop-color:#9abaeb;stop-opacity:0.98039216"
         offset="1" />
    </linearGradient>
    <linearGradient
       x1="50.420731"
       y1="111.18644"
       x2="68.841461"
       y2="9.1256237"
       id="linearGradient3664"
       xlink:href="#linearGradient6746"
       gradientUnits="userSpaceOnUse"
       gradientTransform="matrix(0,0.72413795,-0.72413794,0,94.34483,1.655173)" />
    <linearGradient
       x1="45.447727"
       y1="92.539597"
       x2="45.447727"
       y2="7.0165396"
       id="ButtonShadow-0"
       gradientUnits="userSpaceOnUse"
       gradientTransform="matrix(1.0058652,0,0,0.994169,100,0)">
      <stop
         id="stop3750-8"
         style="stop-color:#000000;stop-opacity:1"
         offset="0" />
      <stop
         id="stop3752-5"
         style="stop-color:#000000;stop-opacity:0.58823532"
         offset="1" />
    </linearGradient>
    <linearGradient
       x1="32.251034"
       y1="6.1317081"
       x2="32.251034"
       y2="90.238609"
       id="linearGradient3780"
       xlink:href="#ButtonShadow-0"
       gradientUnits="userSpaceOnUse"
       gradientTransform="matrix(1.0238095,0,0,1.0119048,-1.1428571,-98.071429)" />
    <linearGradient
       x1="32.251034"
       y1="6.1317081"
       x2="32.251034"
       y2="90.238609"
       id="linearGradient3772"
       xlink:href="#ButtonShadow-0"
       gradientUnits="userSpaceOnUse"
       gradientTransform="matrix(1.0238095,0,0,1.0119048,-1.1428571,-98.071429)" />
    <linearGradient
       x1="32.251034"
       y1="6.1317081"
       x2="32.251034"
       y2="90.238609"
       id="linearGradient3725"
       xlink:href="#ButtonShadow-0"
       gradientUnits="userSpaceOnUse"
       gradientTransform="matrix(1.0238095,0,0,1.0119048,-1.1428571,-98.071429)" />
    <linearGradient
       x1="32.251034"
       y1="6.1317081"
       x2="32.251034"
       y2="90.238609"
       id="linearGradient3721"
       xlink:href="#ButtonShadow-0"
       gradientUnits="userSpaceOnUse"
       gradientTransform="translate(0,-97)" />
    <linearGradient
       x1="32.251034"
       y1="6.1317081"
       x2="32.251034"
       y2="90.238609"
       id="linearGradient3122"
       xlink:href="#ButtonShadow-0"
       gradientUnits="userSpaceOnUse"
       gradientTransform="matrix(1.0238095,0,0,1.0119048,-1.1428571,-98.071429)" />
  </defs>
  <metadata
     id="metadata2413">
    <rdf:RDF>
      <cc:Work
         rdf:about="">
        <dc:format>image/svg+xml</dc:format>
        <dc:type
           rdf:resource="http://purl.org/dc/dcmitype/StillImage" />
      </cc:Work>
    </rdf:RDF>
  </metadata>
  <g
     id="layer2"
     style="display:none">
    <rect
       width="86"
       height="85"
       rx="6"
       ry="6"
       x="5"
       y="7"
       id="rect3745"
       style="opacity:0.9;fill:url(#ButtonShadow);fill-opacity:1;fill-rule:nonzero;stroke:none;filter:url(#filter3174)" />
  </g>
  <g
     id="layer3"
     style="display:inline">
    <path
       d="m 12,-95.03125 c -5.5110903,0 -10.03125,4.52016 -10.03125,10.03125 l 0,71 c 0,5.5110902 4.5201598,10.03125 10.03125,10.03125 l 72,0 c 5.51109,0 10.03125,-4.5201597 10.03125,-10.03125 l 0,-71 c 0,-5.51109 -4.52016,-10.03125 -10.03125,-10.03125 l -72,0 z"
       transform="scale(1,-1)"
       id="path3786"
       style="opacity:0.07999998;fill:url(#linearGradient3122);fill-opacity:1;fill-rule:nonzero;stroke:none;display:inline" />
    <path
       d="m 12,-94.03125 c -4.971633,0 -9.03125,4.059617 -9.03125,9.03125 l 0,71 c 0,4.9716329 4.0596171,9.03125 9.03125,9.03125 l 72,0 c 4.971633,0 9.03125,-4.059617 9.03125,-9.03125 l 0,-71 c 0,-4.971633 -4.059617,-9.03125 -9.03125,-9.03125 l -72,0 z"
       transform="scale(1,-1)"
       id="path3778"
       style="opacity:0.1;fill:url(#linearGradient3780);fill-opacity:1;fill-rule:nonzero;stroke:none;display:inline" />
    <path
       d="m 12,-93 c -4.4091333,0 -8,3.590867 -8,8 l 0,71 c 0,4.4091333 3.5908667,8 8,8 l 72,0 c 4.409133,0 8,-3.5908667 8,-8 l 0,-71 c 0,-4.409133 -3.590867,-8 -8,-8 l -72,0 z"
       transform="scale(1,-1)"
       id="path3770"
       style="opacity:0.2;fill:url(#linearGradient3772);fill-opacity:1;fill-rule:nonzero;stroke:none;display:inline" />
    <rect
       width="86"
       height="85"
       rx="7"
       ry="7"
       x="5"
       y="-92"
       transform="scale(1,-1)"
       id="rect3723"
       style="opacity:0.3;fill:url(#linearGradient3725);fill-opacity:1;fill-rule:nonzero;stroke:none;display:inline" />
    <rect
       width="84"
       height="84"
       rx="6"
       ry="6"
       x="6"
       y="-91"
       transform="scale(1,-1)"
       id="rect3716"
       style="opacity:0.45;fill:url(#linearGradient3721);fill-opacity:1;fill-rule:nonzero;stroke:none;display:inline" />
  </g>
  <g
     id="layer1">
    <rect
       width="84"
       height="84"
       rx="6"
       ry="6"
       x="6"
       y="6"
       id="rect2419"
       style="fill:url(#linearGradient3617);fill-opacity:1;fill-rule:nonzero;stroke:none" />
    <path
       d="M 12.53125,6 C 8.920702,6 6,8.920699 6,12.53125 l 0,70.9375 C 6,87.0793 8.920702,90 12.53125,90 l 70.9375,0 C 87.079298,90 90,87.0793 90,83.46875 l 0,-70.9375 C 90,8.920699 87.079298,6 83.46875,6 l -70.9375,0 z"
       inkscape:connector-curvature="0"
       id="path3534"
       style="opacity:0.3;fill:url(#linearGradient3664);fill-opacity:1;stroke:none;display:inline" />
    <path
       d="M 12,6 C 8.676,6 6,8.676 6,12 l 0,2 0,68 0,2 c 0,0.334721 0.04135,0.6507 0.09375,0.96875 0.0487,0.295596 0.09704,0.596915 0.1875,0.875 0.00988,0.03038 0.020892,0.0636 0.03125,0.09375 0.098865,0.287771 0.2348802,0.547452 0.375,0.8125 0.1445918,0.273507 0.3156161,0.535615 0.5,0.78125 0.1843839,0.245635 0.3737765,0.473472 0.59375,0.6875 0.439947,0.428056 0.94291,0.814526 1.5,1.09375 0.278545,0.139612 0.5734731,0.246947 0.875,0.34375 -0.2562018,-0.100222 -0.4867109,-0.236272 -0.71875,-0.375 -0.00741,-0.0044 -0.023866,0.0045 -0.03125,0 -0.031933,-0.0193 -0.062293,-0.04251 -0.09375,-0.0625 -0.120395,-0.0767 -0.2310226,-0.163513 -0.34375,-0.25 -0.1061728,-0.0808 -0.2132809,-0.161112 -0.3125,-0.25 C 8.4783201,88.557317 8.3087904,88.373362 8.15625,88.1875 8.0486711,88.057245 7.9378561,87.922215 7.84375,87.78125 7.818661,87.74287 7.805304,87.69538 7.78125,87.65625 7.716487,87.553218 7.6510225,87.451733 7.59375,87.34375 7.4927417,87.149044 7.3880752,86.928049 7.3125,86.71875 7.30454,86.69694 7.288911,86.6782 7.28125,86.65625 7.2494249,86.5643 7.2454455,86.469419 7.21875,86.375 7.1884177,86.268382 7.1483606,86.171969 7.125,86.0625 7.0521214,85.720988 7,85.364295 7,85 L 7,83 7,15 7,13 C 7,10.218152 9.2181517,8 12,8 l 2,0 68,0 2,0 c 2.781848,0 5,2.218152 5,5 l 0,2 0,68 0,2 c 0,0.364295 -0.05212,0.720988 -0.125,1.0625 -0.04415,0.206893 -0.08838,0.397658 -0.15625,0.59375 -0.0077,0.02195 -0.0233,0.04069 -0.03125,0.0625 -0.06274,0.173739 -0.138383,0.367449 -0.21875,0.53125 -0.04158,0.0828 -0.07904,0.169954 -0.125,0.25 -0.0546,0.09721 -0.126774,0.18835 -0.1875,0.28125 -0.09411,0.140965 -0.204921,0.275995 -0.3125,0.40625 -0.143174,0.17445 -0.303141,0.346998 -0.46875,0.5 -0.01117,0.0102 -0.01998,0.02115 -0.03125,0.03125 -0.138386,0.125556 -0.285091,0.234436 -0.4375,0.34375 -0.102571,0.07315 -0.204318,0.153364 -0.3125,0.21875 -0.0074,0.0045 -0.02384,-0.0044 -0.03125,0 -0.232039,0.138728 -0.462548,0.274778 -0.71875,0.375 0.301527,-0.0968 0.596455,-0.204138 0.875,-0.34375 0.55709,-0.279224 1.060053,-0.665694 1.5,-1.09375 0.219973,-0.214028 0.409366,-0.441865 0.59375,-0.6875 0.184384,-0.245635 0.355408,-0.507743 0.5,-0.78125 0.14012,-0.265048 0.276135,-0.524729 0.375,-0.8125 0.01041,-0.03078 0.02133,-0.06274 0.03125,-0.09375 0.09046,-0.278085 0.1388,-0.579404 0.1875,-0.875 C 89.95865,84.6507 90,84.334721 90,84 l 0,-2 0,-68 0,-2 C 90,8.676 87.324,6 84,6 L 12,6 z"
       inkscape:connector-curvature="0"
       id="rect3728"
       style="opacity:0.3;fill:url(#linearGradient3188);fill-opacity:1;fill-rule:nonzero;stroke:none" />
    <path
       d="M 12,90 C 8.676,90 6,87.324 6,84 L 6,82 6,14 6,12 c 0,-0.334721 0.04135,-0.6507 0.09375,-0.96875 0.0487,-0.295596 0.09704,-0.596915 0.1875,-0.875 C 6.29113,10.12587 6.302142,10.09265 6.3125,10.0625 6.411365,9.774729 6.5473802,9.515048 6.6875,9.25 6.8320918,8.976493 7.0031161,8.714385 7.1875,8.46875 7.3718839,8.223115 7.5612765,7.995278 7.78125,7.78125 8.221197,7.353194 8.72416,6.966724 9.28125,6.6875 9.559795,6.547888 9.8547231,6.440553 10.15625,6.34375 9.9000482,6.443972 9.6695391,6.580022 9.4375,6.71875 c -0.00741,0.0044 -0.023866,-0.0045 -0.03125,0 -0.031933,0.0193 -0.062293,0.04251 -0.09375,0.0625 -0.120395,0.0767 -0.2310226,0.163513 -0.34375,0.25 -0.1061728,0.0808 -0.2132809,0.161112 -0.3125,0.25 C 8.4783201,7.442683 8.3087904,7.626638 8.15625,7.8125 8.0486711,7.942755 7.9378561,8.077785 7.84375,8.21875 7.818661,8.25713 7.805304,8.30462 7.78125,8.34375 7.716487,8.446782 7.6510225,8.548267 7.59375,8.65625 7.4927417,8.850956 7.3880752,9.071951 7.3125,9.28125 7.30454,9.30306 7.288911,9.3218 7.28125,9.34375 7.2494249,9.4357 7.2454455,9.530581 7.21875,9.625 7.1884177,9.731618 7.1483606,9.828031 7.125,9.9375 7.0521214,10.279012 7,10.635705 7,11 l 0,2 0,68 0,2 c 0,2.781848 2.2181517,5 5,5 l 2,0 68,0 2,0 c 2.781848,0 5,-2.218152 5,-5 l 0,-2 0,-68 0,-2 C 89,10.635705 88.94788,10.279012 88.875,9.9375 88.83085,9.730607 88.78662,9.539842 88.71875,9.34375 88.71105,9.3218 88.69545,9.30306 88.6875,9.28125 88.62476,9.107511 88.549117,8.913801 88.46875,8.75 88.42717,8.6672 88.38971,8.580046 88.34375,8.5 88.28915,8.40279 88.216976,8.31165 88.15625,8.21875 88.06214,8.077785 87.951329,7.942755 87.84375,7.8125 87.700576,7.63805 87.540609,7.465502 87.375,7.3125 87.36383,7.3023 87.35502,7.29135 87.34375,7.28125 87.205364,7.155694 87.058659,7.046814 86.90625,6.9375 86.803679,6.86435 86.701932,6.784136 86.59375,6.71875 c -0.0074,-0.0045 -0.02384,0.0044 -0.03125,0 -0.232039,-0.138728 -0.462548,-0.274778 -0.71875,-0.375 0.301527,0.0968 0.596455,0.204138 0.875,0.34375 0.55709,0.279224 1.060053,0.665694 1.5,1.09375 0.219973,0.214028 0.409366,0.441865 0.59375,0.6875 0.184384,0.245635 0.355408,0.507743 0.5,0.78125 0.14012,0.265048 0.276135,0.524729 0.375,0.8125 0.01041,0.03078 0.02133,0.06274 0.03125,0.09375 0.09046,0.278085 0.1388,0.579404 0.1875,0.875 C 89.95865,11.3493 90,11.665279 90,12 l 0,2 0,68 0,2 c 0,3.324 -2.676,6 -6,6 l -72,0 z"
       inkscape:connector-curvature="0"
       id="path3615"
       style="opacity:0.2;fill:url(#radialGradient3619);fill-opacity:1;fill-rule:nonzero;stroke:none" />
    <g
       transform="matrix(0.92267018,0,0,0.92267018,146.52795,0.627426)"
       id="g3808">
      <g
         transform="matrix(0.20238095,0,0,0.20238095,-197.85714,-7.2142874)"
         id="g3672">
        <path
           d="m 569.38574,394.10937 c -10.77441,2.88526 -22.27148,3.81299 -32.73535,7.38135 17.72266,-15.1958 16.71094,-38.70849 28.53516,-56.60595 3.7666,-5.06739 6.87988,-10.37891 11.2705,-15.1875 -7.19238,14.42773 -4.07324,33.14648 -12.33593,47.14746 -3.18067,5.56152 -7.72949,10.95703 -12.75977,15.32519 1.64356,-0.0615 3.08203,-1.48437 4.52735,-2.43457 13.42089,-13.39258 30.9541,-17.13769 45.47168,-28.01855 5.81542,-4.63379 11.1416,-10.70606 13.69824,-17.27344 -2.74707,22.21973 -24.85254,43.0459 -45.67188,49.66601 l 0,0 z"
           inkscape:connector-curvature="0"
           id="path3674"
           style="fill:#ffffff" />
        <path
           d="m 617.73535,304.14551 c -6.5664,9.34375 -14.50976,18.04199 -20.57617,27.53808 0.67676,-7.51855 1.56738,-16.76367 -1.36133,-23.88574 -5.07519,-15.33691 -9.53418,-30.90918 -10.97265,-47.74121 l 0.19824,-6.43652 c 3.81933,17.18945 20.70508,29.00586 19.63965,48.28711 0.38671,4.67285 -1.0586,8.6455 -1.9336,12.75488 l 0.29004,0.30371 0.76074,-0.85254 c 2.50391,-9.45801 3.76758,-19.40332 7.66114,-28.22754 5.5332,-12.69824 12.44238,-25.51367 9.62695,-40.8457 8.41601,18.07617 5.86621,42.22754 -3.33301,59.10547 l 0,0 z"
           inkscape:connector-curvature="0"
           id="path3676"
           style="fill:#ffffff" />
        <path
           d="m 607.37109,206.75781 c 11.07227,15.00537 13.49903,38.91797 5.43457,56.12989 -3.00586,7.29394 -5.1289,15.0664 -6.30957,23.13964 -0.56347,-1.39257 -0.69238,-3.26464 -1.19531,-4.8164 -4.4043,-16.84766 -20.33789,-28.85449 -26.89062,-44.73877 -2.07813,-5.19434 -3.84961,-10.56153 -4.83204,-16.2002 7.00196,12.9502 24.25782,19.63916 28.96094,33.91065 1.92676,3.60937 1.81836,8.11914 3.01367,12 0.25098,0 0.50196,-0.18653 0.50196,-0.44141 -2.07032,-14.70117 -1.43848,-30.0874 0.55664,-44.60596 -0.11524,-7.86425 -0.88281,-15.49267 -5.25196,-21.58007 2.80176,1.63232 4.06348,4.76757 6.01172,7.20263 l 0,0 z"
           inkscape:connector-curvature="0"
           id="path3678"
           style="fill:#ffffff" />
        <path
           d="m 599.56445,203.87744 c 2.90821,13.14893 -1.33984,25.95459 1.33203,39.22998 l -0.0996,0.11426 c -7.15333,-14.06641 -22.33985,-20.70508 -32.78907,-31.96338 -6.05566,-6.68066 -8.68847,-14.82275 -10.20312,-23.44385 5.9873,14.43457 22.14355,17.61524 31.41894,29.77881 3.10352,2.8042 4.11621,6.68897 6.11719,9.86914 l 0.32715,-0.31592 c -5.33399,-11.38671 -7.1211,-24.20117 -10.84277,-36.34521 -1.86329,-5.26221 -5.56153,-10.43262 -10.52344,-13.75049 12.17578,2.48828 22.72851,15.19971 25.26269,26.82666 l 0,0 z"
           inkscape:connector-curvature="0"
           id="path3680"
           style="fill:#ffffff" />
        <path
           d="m 567.01172,173.72168 c 9.16992,8.20703 13.31738,18.8335 15.99512,29.84375 l 1.51464,3.49658 c -13.30957,-9.57226 -25.40039,-22.43994 -33.89941,-36.02978 l -10.37988,-10.50098 c 9.125,3.86914 18.96289,6.17871 26.76953,13.19043 l 0,0 z"
           inkscape:connector-curvature="0"
           id="path3682"
           style="fill:#ffffff" />
        <path
           d="m 356.80566,162.27393 c -9.20019,8.06543 -15.58105,18.26562 -22.40625,27.77734 -6.11816,7.57519 -13.94433,12.57031 -20.87988,19.08447 3.74414,-7.76172 3.88086,-17.0332 9.19141,-24.16308 7.55664,-13.1836 21.56933,-17.82178 34.09472,-22.69873 l 0,0 z"
           inkscape:connector-curvature="0"
           id="path3684"
           style="fill:#ffffff" />
        <path
           d="m 306.49219,190.35986 c 4.47461,-5.5625 10.14746,-9.42822 16.53125,-11.06054 -12.39551,8.51513 -11.58887,23.7749 -15.51856,36.46045 -1.25293,4.69091 -3.42871,9.01269 -4.51269,13.82128 l 0.31543,0.25098 c 2.0625,-5.43603 5.6875,-10.57226 10.21191,-15.00781 8.80371,-8.12695 21.82715,-13.1919 26.1416,-25.21387 -0.19726,16.70606 -14.13379,29.83985 -27.46875,39.22901 -5.49902,4.82421 -10.80175,10.32226 -13.83008,16.52392 -0.29687,-4.21484 0.62305,-8.44678 0.32325,-12.96191 -1.4502,-14.5835 -2.50391,-31.22901 7.80664,-42.04151 l 0,0 z"
           inkscape:connector-curvature="0"
           id="path3686"
           style="fill:#ffffff" />
        <path
           d="m 281.41211,240.22754 c -0.37305,-14.77832 5.76074,-26.8418 14.4043,-37.85303 0.25097,-0.12549 0.42968,-0.37646 0.75293,-0.31592 -9.51465,14.4585 -1.64356,32.67041 -2.07715,49.11036 l -1.25489,16.83203 c 0.18653,0.12207 0.18653,0.62793 0.62793,0.43359 0.5625,-1.87598 0.68457,-3.88086 1.06055,-5.81055 2.24121,-13.57714 14.03223,-23.21093 24.33106,-32.59375 2.19921,-2.4541 4.14355,-4.9458 5.27343,-7.82568 -0.84082,6.76025 -2.95996,13.57861 -5.76464,19.83057 -8.01563,15.63183 -22.82325,28.458 -25.52833,46.35449 -1.3125,-17.15039 -12.98925,-29.97266 -11.82519,-48.16211 l 0,0 z"
           inkscape:connector-curvature="0"
           id="path3688"
           style="fill:#ffffff" />
        <path
           d="m 274.21387,261.24316 c 1.06543,-4.62207 1.87988,-9.40527 3.8916,-13.64648 -3.81152,19.53711 9.3291,33.61426 13.63965,50.54883 1.80371,6.33398 2.24511,13.13672 4.82422,19.08008 0.24023,0.12988 0.44921,-0.1211 0.59765,-0.31153 -6.41797,-17.98926 2.84668,-34.70605 12.15625,-48.79101 2.26367,-3.81641 3.56836,-8.06641 4.69434,-12.45313 0.98926,8.1416 -1.06934,17.51758 -2.25195,25.9707 -2.26368,10.75586 -5.64258,20.95606 -8.58399,31.39258 -1.93555,6.52149 -1.42676,13.87891 -0.43262,20.71192 L 301.81641,333 c -6.8252,-12.58594 -20.33985,-22.40234 -24.35352,-36.15234 -3.30273,-10.96192 -5.49805,-23.66016 -3.24902,-35.6045 l 0,0 z"
           inkscape:connector-curvature="0"
           id="path3690"
           style="fill:#ffffff" />
        <path
           d="m 273.59766,299.40137 c 1.50293,20.708 23.77148,31.65039 34.09375,48.79394 2.44238,3.50781 4.56152,7.38867 7.82519,10.3252 -0.50976,-2.20606 -2.56836,-4.0625 -3.32422,-6.32227 -3.61133,-7.19043 -4.92773,-15.75879 -4.05957,-24.44922 1,-10.57714 5.43653,-20.39257 3.74317,-31.51757 9.07031,19.55664 6.31543,43.96679 11.38672,65.1582 1.32812,4.63476 4.01074,8.77344 5.76855,13.20312 -18.63574,-12.69238 -44.04687,-24.76855 -52.31445,-48.03027 -3.48438,-8.02051 -3.87305,-17.9502 -3.11914,-27.16113 l 0,0 z"
           inkscape:connector-curvature="0"
           id="path3692"
           style="fill:#ffffff" />
        <path
           d="m 284.72949,346.95508 c 10.39063,23.50586 36.41406,25.45312 53.86231,39.7666 3.21093,2.8457 6.57519,5.26562 10.20019,6.9541 l 0.18653,-0.18945 c -4.00586,-3.62207 -8.63965,-7.74707 -11.44434,-12.44141 -10.21191,-14.19922 -6.62012,-34.08984 -14.27148,-49.36133 6.95214,8.31641 13.27441,16.96094 17.47167,26.39551 6.24317,15.40137 8.62891,32.79688 23.0752,44.43897 -15.63379,-5.15235 -33.94922,-3.71289 -47.74805,-13.33936 -15.0664,-9.25976 -28.51269,-24.96582 -31.33203,-42.22363 l 0,0 z"
           inkscape:connector-curvature="0"
           id="path3694"
           style="fill:#ffffff" />
        <path
           d="m 311.43457,390.80664 c 16.66016,18.94775 43.88281,12.62549 66.0752,17.58447 3.13476,0.42774 6.0039,1.6836 9.32617,1.17383 -2.64551,-1.67383 -6.31641,-1.49219 -9.2041,-3.01367 -17.39551,-6.11133 -19.94727,-24.94385 -29.39063,-37.64307 12.06445,8.01172 22.20703,18.81739 33.33692,29.2876 8,7.00781 17.62988,10.24219 27.77636,12.30469 -2.43847,0.89062 -5.63476,0.64648 -8.25195,1.33203 -18.22852,4.48242 -38.48047,11.80859 -57.81152,5.25 -12.56739,-3.95703 -25.53321,-13.89453 -31.85645,-26.27588 l 0,0 z"
           inkscape:connector-curvature="0"
           id="path3696"
           style="fill:#ffffff" />
        <path
           d="m 537.55664,434.97314 c -18.77344,7.00586 -38.36621,-0.32031 -53.0293,-11.43945 -5.93652,-3.77344 -11.16992,-9.20703 -18.84863,-8.72656 -2.78516,-0.0527 -5.4707,0.084 -7.83789,0.76758 14.24512,6.6289 27.47754,15.76758 39.57617,27.45508 -2.03906,2.32812 -4.67969,4.50585 -7.16699,6.51367 -11.65918,-12.5625 -24.57129,-24.6543 -39.02832,-31.7168 -2.83105,0.36719 -5.52441,2.07031 -8.07715,3.44141 -11.76953,7.4414 -23.40723,17.01367 -32.15723,28.73242 l -7.51855,-6.20899 c 12,-12.13867 25.27344,-21.58789 39.79395,-28.33789 -14.26856,-4.51953 -23.58204,7.4336 -34.41309,13.51368 -12.62109,8.8125 -30.77246,12.95117 -46.02539,6.87109 -8.20313,-3.11133 -16.15039,-7.69336 -22.08984,-15.14063 12.0039,8.26954 29.88183,9.13672 43.5332,3.76563 18.31836,-7.94531 37.35351,-18.01758 59.43652,-13.20117 3.44629,0.0605 6.79492,3.49218 10.05078,0.57031 16.41309,-4.26172 34.99512,-1.33203 49.12598,6.16992 l 14.56445,5.83789 c 13.53711,5.00586 31.03907,3.6211 42.64258,-4.62695 -5.96582,7.42578 -14.11523,12.74609 -22.53125,15.75976 l 0,0 z"
           inkscape:connector-curvature="0"
           id="path3698"
           style="fill:#ffffff" />
        <path
           d="m 557.6748,415.57471 c -21.07812,7.95898 -42.2832,-1.81055 -62.47949,-5.07422 l -3.88867,-0.49414 v -0.12305 c 9.65723,-2.19141 19.03125,-5.06641 26.71777,-12.00586 11.32129,-10.88232 21.39551,-22.08349 33.96778,-30.65869 -9.32324,11.9541 -10.31153,28.96924 -25.71289,36.65479 -3.81153,2.49414 -8.62207,2.93554 -12.55567,4.82421 5.60938,0.1211 10.74512,-1.88867 16.29981,-2.45117 20.65234,-3.24219 44.27832,0.084 58.7666,-17.50928 -5.37891,12.25928 -18.84961,22.52491 -31.11524,26.83741 l 0,0 z"
           inkscape:connector-curvature="0"
           id="path3700"
           style="fill:#ffffff" />
        <path
           d="m 595.97266,356.26855 c -8.32422,5.44825 -16.76172,10.50098 -24.76075,16.69532 v -0.76075 c 12.25196,-20.3623 6.2627,-48.33496 13.81153,-70.74414 l 2.81543,-7.50683 c -1.5752,13.95996 4.48828,25.78515 4.0625,39.79297 -0.42578,8.46191 -3.1875,15.96484 -7.63086,22.72168 h 0.75293 c 6.00293,-7.88379 10.69043,-16.26856 17.70605,-23.77832 10.88965,-10.50098 21.96094,-21.26856 23.39063,-35.84082 3.69824,24.32714 -9.95215,45.64843 -30.14746,59.42089 l 0,0 z"
           inkscape:connector-curvature="0"
           id="path3702"
           style="fill:#ffffff" />
      </g>
      <g
         transform="matrix(0.20238095,0,0,0.20238095,-197.85714,-7.2142874)"
         id="g3704">
        <polygon
           points="448.11182,303.25244 451.88867,303.25244 451.88867,398.07471 448.11182,398.07471 448.11182,303.25244 "
           id="polygon3706"
           style="fill:#ffffff;fill-rule:evenodd" />
        <polygon
           points="427.60938,293.93945 430.27734,296.61084 363.17578,363.60986 360.50781,360.93652 427.60938,293.93945 "
           id="polygon3708"
           style="fill:#ffffff;fill-rule:evenodd" />
        <polygon
           points="421.19531,274.18604 421.18945,277.9624 326.36719,277.84912 326.37109,274.07227 421.19531,274.18604 "
           id="polygon3710"
           style="fill:#ffffff;fill-rule:evenodd" />
        <polygon
           points="430.19775,255.89795 427.52588,258.56738 360.48535,191.50781 363.15674,188.83838 430.19775,255.89795 "
           id="polygon3712"
           style="fill:#ffffff;fill-rule:evenodd" />
        <polygon
           points="451.84717,248.10986 448.07031,248.10693 448.15723,153.28271 451.93408,153.28662 451.84717,248.10986 "
           id="polygon3714"
           style="fill:#ffffff;fill-rule:evenodd" />
        <polygon
           points="470.82471,257.15527 468.15674,254.48145 535.29688,187.52148 537.96484,190.19482 470.82471,257.15527 "
           id="polygon3716"
           style="fill:#ffffff;fill-rule:evenodd" />
        <polygon
           points="478.14746,278.25928 478.14355,274.48291 572.96484,274.36377 572.97168,278.14014 478.14746,278.25928 "
           id="polygon3718"
           style="fill:#ffffff;fill-rule:evenodd" />
        <polygon
           points="467.19922,297.55908 469.86719,294.88525 536.97363,361.87891 534.30566,364.55225 467.19922,297.55908 "
           id="polygon3720"
           style="fill:#ffffff;fill-rule:evenodd" />
        <path
           d="m 485.36328,181.18359 c 52.22656,19.52198 78.76856,77.75 59.2461,129.97364 -19.52247,52.22363 -77.75049,78.76611 -129.97217,59.24365 -52.22559,-19.521 -78.76416,-77.74805 -59.24561,-129.97266 19.52295,-52.22461 77.75,-78.76513 129.97168,-59.24463 l 0,0 z m -1.52832,4.09473 c 49.96289,18.67676 75.35547,74.38477 56.68066,124.34814 -18.67578,49.96485 -74.3872,75.35645 -124.3496,56.67969 -49.9629,-18.6748 -75.3545,-74.38379 -56.67969,-124.34765 18.67676,-49.96338 74.38574,-75.35596 124.34863,-56.68018 l 0,0 z"
           inkscape:connector-curvature="0"
           id="path3722"
           style="fill:#ffffff;fill-rule:evenodd" />
        <path
           d="m 477.26172,202.86133 c 40.26074,15.04883 60.71777,59.93506 45.67187,100.19385 -15.0498,40.2583 -59.93847,60.71777 -100.19433,45.66992 -40.25635,-15.04785 -60.71778,-59.93604 -45.66992,-100.19434 15.04785,-40.25781 59.93603,-60.71777 100.19238,-45.66943 l 0,0 z m -1.53613,4.11816 c 37.98242,14.19824 57.28906,56.55225 43.09082,94.5376 -14.19825,37.98584 -56.55518,57.29102 -94.53711,43.09082 -37.98584,-14.19824 -57.29297,-56.55273 -43.09278,-94.5376 14.2002,-37.98584 56.55274,-57.29101 94.53907,-43.09082 l 0,0 z"
           inkscape:connector-curvature="0"
           id="path3724"
           style="fill:#ffffff;fill-rule:evenodd" />
        <path
           d="m 469.40186,223.88623 c 28.65478,10.71045 43.2163,42.65723 32.50732,71.30957 -10.71387,28.65186 -42.66016,43.21533 -71.31055,32.50391 -28.65381,-10.71094 -43.21533,-42.65723 -32.5039,-71.30908 10.71093,-28.65186 42.65722,-43.21436 71.30713,-32.5044 l 0,0 z m -1.40772,3.76856 c 26.57324,9.9331 40.0791,39.56054 30.14551,66.1333 -9.93457,26.57226 -39.56055,40.07617 -66.1333,30.14306 -26.57227,-9.93164 -40.07617,-39.56006 -30.14453,-66.13281 9.9331,-26.57129 39.55957,-40.07617 66.13232,-30.14355 l 0,0 z"
           inkscape:connector-curvature="0"
           id="path3726"
           style="fill:#ffffff;fill-rule:evenodd" />
        <path
           d="m 460.56201,247.53662 c 15.59815,5.83057 23.52588,23.2207 17.69483,38.81934 -5.83106,15.59619 -23.21973,23.52441 -38.81836,17.69287 -15.59815,-5.82959 -23.52442,-23.21973 -17.69483,-38.81836 5.83155,-15.59717 23.22364,-23.52442 38.81836,-17.69385 l 0,0 z m -1.5249,4.07666 c 13.35059,4.98926 20.13184,19.87158 15.14453,33.21924 -4.9917,13.34717 -19.87109,20.12988 -33.21777,15.14062 -13.34912,-4.98925 -20.13184,-19.8706 -15.14453,-33.21875 4.99121,-13.34765 19.87451,-20.13085 33.21777,-15.14111 l 0,0 z"
           inkscape:connector-curvature="0"
           id="path3728"
           style="fill:#ffffff;fill-rule:evenodd" />
        <path
           d="m 508.91309,166.20703 c 61.08496,33.61572 84.2705,109.99317 51.74902,170.48242 -32.51758,60.4917 -108.48975,82.3042 -169.57422,48.68897 -61.08398,-33.61475 -84.27002,-109.99317 -51.74853,-170.4834 32.51953,-60.49121 108.48876,-82.30322 169.57373,-48.68799 l 0,0 z m -2.1377,3.97998 c 58.86719,32.39453 81.20898,105.99707 49.86816,164.29248 -31.33691,58.29346 -104.55078,79.31494 -163.41552,46.91992 -58.86865,-32.39648 -81.21045,-105.99902 -49.87012,-164.29345 31.33691,-58.29444 104.5498,-79.31446 163.41748,-46.91895 l 0,0 z"
           inkscape:connector-curvature="0"
           id="path3730"
           style="fill:#ffffff;fill-rule:evenodd" />
        <path
           d="m 523.73633,334.3999 c 0.0713,0.64893 -0.15137,2.2461 0.15137,2.6128 0.31347,0.49755 1.48339,0.3916 1.99023,0.21582 1.38477,-0.52051 2.76269,-2.3501 3.40234,-3.72168 0.4502,-0.69629 0.75293,-1.51172 0.6543,-2.42383 l -0.96875,-2.93457 c -0.24219,-1.0293 -0.56738,-2.83838 -1.66504,-3.26563 0.10254,-0.27246 0.4502,-0.69824 0.40918,-1.08838 -0.25391,-1.15966 -2.19141,-0.85498 -2.88379,-0.003 -0.34863,0.42578 -0.25,1.33544 -0.32519,1.86718 -0.0195,1.0542 -0.31446,3.18262 -0.73438,4.14014 -0.41992,0.95557 -1.59668,2.24414 -1.6123,3.29785 0.083,0.7793 0.91992,1.22998 1.58203,1.30371 l 0,0 z m -64.47998,-8.1416 0.34424,0.75684 c 0.0151,0.13037 0.17041,0.37841 0.30273,0.36718 0.87793,0.8418 2.10791,-1.10888 0.63965,-1.37011 -0.13233,0.0112 -0.40479,-0.0967 -0.52197,0.0454 -0.25733,0.0244 -0.51856,0.0474 -0.76465,0.20068 l 0,0 z m 0.97265,-1.92627 c -0.59423,0.57715 -0.81005,0.9917 0.15528,1.43018 l -0.15528,-1.43018 0,0 z M 444.56982,312.8623 c -0.95361,0.87207 -0.88134,0.34229 -1.36962,0.64893 -0.36329,0.29297 -0.0605,0.66016 -0.39356,1.21631 -0.10254,0.27246 -0.48047,0.4375 -0.45019,0.69824 -0.0874,0.40137 0.3291,0.62647 0.73388,0.72119 0.53369,0.083 2.09278,-0.0552 2.58057,-0.36133 0.48096,-0.4375 0.2915,-0.94628 0.51123,-1.36084 0.11719,-0.1416 0.34814,-0.42529 0.46533,-0.56738 0.0566,-0.66211 -1.33984,-1.45703 -2.07764,-0.99512 l 0,0 z m 37.6001,-4.03027 0.13965,1.29981 -0.15137,1.06543 c 1.41504,-0.25928 2.28614,-0.73047 3.542,-1.2378 0.375,-0.16455 1.12402,-0.4956 1.41503,-0.25879 0.417,0.22705 0.19727,0.63916 0.0947,0.91162 -0.2041,0.54297 -1.01367,1.53663 -1.3623,1.96241 -1.05567,1.14453 -2.61426,1.28466 -3.93164,2.4541 -0.70801,0.7207 -0.89649,1.39404 -1.6084,2.11523 -0.70703,0.71875 -1.21485,0.89698 -1.57813,1.1919 -0.34765,0.42578 -0.0566,0.66211 -0.79394,1.12207 l 0.41992,-0.95557 c -0.40137,-0.0967 -0.92383,-0.0493 -1.22656,-0.41797 -0.16993,-0.37646 -0.21192,-0.76855 -0.125,-1.16943 0.17871,-0.8042 0.34082,-2.92139 0.80664,-3.48926 0.11718,-0.1416 1.12793,-0.4956 1.50195,-0.66016 l -0.17383,0.8042 c 0.38965,-0.0342 1.03711,-0.0928 1.28223,-0.24609 0.63672,-0.18896 1.27539,-1.56103 1.6084,-2.11523 l -1.7627,0.6831 c 0.30664,-0.81543 1.17676,-2.46924 1.90332,-3.05957 l 0,0 z m -34.85644,3.91455 c -0.26465,1.20752 0.47314,0.74561 0.91943,1.23194 0.2876,0.23632 0.32959,0.62646 0.37109,1.01806 l -1.02539,0.22315 -0.45068,0.69629 -0.5791,0.70947 1.75976,0.49951 c -0.88134,0.34082 -1.41504,0.25732 -1.979,1.09766 l 2.20605,-0.19873 c 1.4419,0.002 2.52442,0.29882 3.88282,-0.48096 l -0.2876,-0.23633 0.39355,-1.21826 -0.97998,-0.56787 -0.34472,-0.75684 -1.64991,-1.95459 -0.54834,-0.21387 c 0.46534,-0.56738 1.40381,-1.57226 0.064,-1.84472 l -0.66211,-0.0718 0.5791,-0.70947 c -0.79492,-0.0586 -1.45703,-0.13086 -2.05127,0.44824 -0.69629,0.84961 -0.71533,1.90186 0.38233,2.3291 l 0,0 z m -0.76807,-16.87744 -0.0303,0.92139 -0.30274,-0.3667 0.0376,1.57226 c 0.23096,0.90039 1.24121,0.54688 1.47217,0.2627 0.24609,-0.15283 0.31787,-0.68652 0.2915,-0.9458 -0.0264,-0.25928 -0.18555,-0.50879 -0.3291,-0.62647 -0.27637,-0.10791 -0.40527,-0.0962 -0.66602,-0.0737 l -0.0835,-0.77929 -0.38965,0.0356 0,0 z m -107.03369,8.28955 c -0.0513,1.9751 0.46875,1.92774 0.90967,3.59668 0.229,0.89893 -0.13233,1.19385 0.583,2.96875 0.34424,0.75879 0.55616,1.52686 1.37745,1.84668 -0.23633,-2.21191 -0.50733,-3.50049 -1.24903,-5.53613 -0.52978,-1.26612 -0.93457,-1.36035 -1.3623,-2.90088 l -0.25879,0.0249 0,0 z M 518.94531,282.5415 c -0.62011,0.31787 -0.83984,0.73194 -0.76855,1.38086 -0.0605,0.66407 0.51465,1.13721 1.15039,0.94825 0.88183,-0.34082 1.0332,-2.58838 -0.38184,-2.32911 l 0,0 z m -122.77685,-0.28418 c -0.31983,0.68702 -0.38037,1.34913 0.32519,1.81104 -0.0698,-0.64893 0.11914,-1.32471 -0.32519,-1.81104 l 0,0 z m 38.36035,0.63233 0.4331,0.35547 c 0.95362,-0.87403 1.15821,-1.41895 1.8545,-2.26856 0.57861,-0.70947 0.96875,-0.74365 1.33007,-1.03857 0.23047,-0.28418 0.20215,-0.54492 0.28907,-0.94629 0.20459,-0.54492 0.58105,-0.70947 0.48437,-1.61963 0.0459,-0.79248 -0.4707,-1.92822 -1.36572,-1.7168 l -0.20068,-0.63867 c -0.38965,0.0347 -1.0254,0.22315 -1.38672,0.51758 -0.36133,0.2959 -0.17627,0.80469 -0.65284,1.2417 -0.5791,0.70801 -1.58935,1.06152 -1.83544,1.21484 -0.37647,0.16651 -0.20411,0.54492 -0.81348,0.99365 -0.85156,0.60157 -1.41358,0.25733 -1.91895,0.43506 -0.63574,0.1875 -1.57763,1.1919 -2.05468,1.62891 -0.69629,0.84961 -0.89844,1.39453 -1.18995,2.34082 -0.10205,0.27051 -0.31982,0.68457 -0.16259,0.93457 0.15674,0.24805 0.54687,0.21191 0.79443,0.0586 0.50537,-0.17578 1.61768,-0.80029 2.02295,-0.70556 0.3877,-0.0361 0.54639,0.21338 0.8208,0.31982 0.40332,0.0942 0.6626,0.0718 0.93652,0.17774 0.27246,0.10791 0.5752,0.47461 0.8628,0.71142 0.69092,0.33106 1.3872,-0.51855 1.59131,-1.06152 0.10205,-0.27246 0.20263,-0.54492 0.16113,-0.93457 l 0,0 z m 0.75488,-10.05274 0.0151,0.13038 -0.146,-0.11817 0.13086,-0.0122 0,0 z m 1.15039,0.94776 c 0.34424,0.75781 1.61182,1.56299 2.33106,2.15625 0.2456,-0.15332 0.36132,-0.29541 0.46338,-0.5669 0.31982,-0.68603 0.17968,-1.98779 -0.5127,-2.31982 -0.41602,-0.2251 -0.92334,-0.0478 -1.29785,0.1167 -0.0151,-0.12988 -0.18555,-0.5083 -0.3291,-0.62744 -1.02198,-0.95899 -2.30078,1.7832 -0.65479,1.24121 l 0,0 z m -5.43213,-1.74512 c 0.87598,0.84082 0.89112,0.97022 2.06055,0.86524 -0.17822,0.80419 -1.21875,2.08056 -2.07031,1.50048 -0.56006,-0.34423 -0.6167,-0.86474 -0.88916,-0.97168 -0.41797,-0.22509 -0.4502,0.69727 -0.68116,0.98047 -0.55273,0.96924 -1.47558,0.92139 -1.5664,2.50586 l 0.4917,-0.30859 c 0.49951,1.00683 1.42676,-0.12647 2.04931,-0.44531 -0.11572,0.14209 -0.34814,0.42675 -0.44873,0.69726 -0.0908,0.40283 0.34278,0.75879 0.71924,0.59229 0.37451,-0.16504 0.82471,-0.8628 1.18457,-1.15821 0.36328,-0.29394 0.4917,-0.30566 0.86817,-0.47216 0.36132,-0.29395 0.83838,-0.73096 1.20166,-1.02637 1.08593,-0.88526 1.14062,-0.36524 1.52099,-1.71338 -0.0303,-0.25977 0.0869,-0.40186 0.0586,-0.66211 -0.51661,-1.13623 -2.37793,-0.18066 -2.52393,-0.29785 l -0.8081,-0.19141 c -0.27247,-0.10693 -0.7793,0.0703 -1.167,0.10547 l 0,0 z m 6.00147,-0.27539 -0.64893,0.0576 0.17237,0.37842 c 0.76611,-0.19971 1.28466,-0.24707 1.31689,-1.16944 -0.64941,0.0586 -0.77979,0.0698 -0.84033,0.7334 l 0,0 z m -40.90869,2.48682 -0.60205,2.94531 0.26904,1.28857 0.54101,2.57862 c 0.33301,-0.5542 0.93067,-2.31592 0.99122,-2.97803 l 0.14794,-1.06543 c 0.0454,-0.7915 0.14747,-1.06299 -0.19677,-1.8208 l -0.84033,0.73193 -0.0513,-1.70263 -0.25879,0.0225 0,0 z m 42.2539,-3.39698 c -0.083,-0.78076 0.0605,-0.66162 0.72266,-0.59033 l -0.009,-1.31299 c -0.37646,0.16504 -0.89502,0.21241 -1.2583,0.50684 -0.5791,0.7085 -0.50684,1.36035 0.54492,1.39648 l 0,0 z m -3.85986,-1.75488 0.44482,0.48535 c 0.89502,-0.21191 1.18262,0.0244 1.99024,0.21533 l -0.31592,-0.49755 0.33301,-0.55518 c 0.77978,-0.0688 0.84033,-0.73242 0.51123,-1.35937 -0.14404,-0.11866 -0.41846,-0.2251 -0.56201,-0.34424 -1.39844,-0.79297 -1.53077,0.40088 -1.86377,0.95605 l -0.5376,1.09961 0,0 z m 3.3623,-0.43359 c 0.25928,-0.0234 0.52051,-0.0464 0.76612,-0.19922 0.47705,-0.4375 0.20849,-1.72754 -0.21192,-1.95215 -0.40283,-0.0952 -0.62011,0.31787 -0.59179,0.57813 l -0.0889,0.40332 0.0698,0.6499 0.0566,0.52002 0,0 z m -41.74902,3.2207 c 0.46338,-0.56689 0.62451,-1.50146 0.68506,-2.16406 -0.8667,0.47314 -0.7832,1.25293 -0.68506,2.16406 l 0,0 z m 4.60156,-8.42676 c 0.125,1.17139 -0.0225,2.23535 -0.43115,3.32276 -0.52246,1.22998 -1.78271,2.91943 -2.04736,4.12451 l -0.30078,-0.36719 c -0.56592,0.83936 -0.63037,2.68506 -0.27051,3.57178 0.70752,-0.72022 0.87012,-1.65479 1.30517,-2.48194 0.85743,-1.78418 2.00196,-3.33154 2.44092,-5.34228 0.0757,-0.53223 0.18164,-1.98731 -0.13623,-2.48389 -0.15722,-0.24902 -0.2876,-0.23681 -0.56006,-0.34375 l 0,0 z m 118.26416,3.4458 c 0.68164,-0.98144 0.86328,-2.96679 1.12403,-4.17431 0.61718,-2.81348 1.91894,-4.11231 1.54004,-7.62598 -0.083,-0.78027 -0.38184,-2.33008 -1.31641,-2.50977 -1.45703,-0.13134 -0.85938,1.78516 -0.94629,2.18702 0.042,0.39111 -0.0606,0.66259 -0.16309,0.93506 -0.63867,1.3706 -0.33984,2.92041 -0.31738,4.36328 l -0.27637,4.75439 0.35547,2.07031 0,0 z m -21.03222,-22.41748 c 0.0264,0.25977 0.16992,0.37891 0.3291,0.62696 0.14355,0.11914 0.28808,0.2373 0.43164,0.35595 0.83594,0.4502 1.27148,-0.37646 0.95312,-0.87451 -0.15429,-0.24853 -0.68847,-0.33203 -0.94921,-0.3081 -0.25782,0.0234 -0.51856,0.0464 -0.76465,0.1997 l 0,0 z m 19.42773,-2.26904 c 0.125,1.17139 0.59473,3.10059 1.09766,4.10596 l 1.14648,2.13037 1.35449,4.08252 c 0.69629,-0.85059 0.32618,-1.86865 0.0986,-2.76758 -0.58594,-1.78662 -1.43067,-3.55029 -2.13379,-5.19434 -0.48828,-0.87597 -0.84375,-1.76464 -1.56348,-2.35693 l 0,0 z m -7.17871,-2.11426 -0.10547,1.4541 -1.77539,-0.62939 c -0.0293,0.92383 0.38281,2.33154 1.11719,3.05322 l 1.42578,1.05469 c 1.15039,0.94824 2.31641,2.02637 3.34961,3.11523 0.9082,1.10157 0.94922,1.49219 1.26367,1.98877 0.28809,0.23633 0.5752,0.47412 0.9502,0.3086 0.24609,-0.15332 0.30664,-0.81543 0.4082,-1.08789 l 0.43555,-0.82715 c 0.18945,-0.67334 -0.31055,-1.6792 -0.63965,-2.30713 l -0.85938,-1.89307 c -0.35937,-0.88769 -0.57519,-1.65674 -1.17675,-2.39062 -1.02149,-0.95947 -1.80079,-0.88965 -2.87989,-1.1875 l -1.51367,-0.65186 0,0 z m -36.13184,1.79639 c -0.0762,0.53271 -0.12109,1.32568 -0.75683,1.51367 -0.12891,0.0117 -0.66211,-0.0718 -0.80664,-0.19092 l -0.49512,1.49024 c -0.21973,0.41308 -0.62842,1.50097 -0.58301,1.89209 -0.0605,0.66113 0.84766,0.57959 1.30957,0.0132 0.48047,-0.43701 0.54102,-1.09961 0.87403,-1.65478 0.53711,-1.09913 1.53222,-1.5835 1.65332,-2.90723 l -1.19532,-0.15625 0,0 z m 40.25293,-4.92578 c 0.38672,1.14844 0.65821,1.25537 1.29102,2.24951 0.3291,0.62744 0.24219,1.0293 1.00586,0.82959 -0.45703,-0.61572 -1.73242,-2.73486 -2.29688,-3.0791 l 0,0 z m -54.45898,6.98828 c -1.45703,-0.13135 -0.49561,1.49023 -0.68506,2.16357 -0.31787,0.68604 -1.77832,1.73682 -2.48584,1.27442 -0.375,0.16552 -0.76465,0.20068 -1.16943,0.10498 -0.40137,-0.0957 -0.68897,-0.33203 -1.07862,-0.29688 l -2.06982,1.49951 c -0.36328,0.29493 -0.85156,0.60157 -1.37354,0.64795 -0.38623,0.0352 -0.9082,0.0811 -1.13916,0.36621 -0.36328,0.29395 -0.019,1.05176 0.15528,1.43018 l 0.6167,0.86475 c -1.27149,0.37646 -1.17334,1.28662 -1.04834,2.45898 0.0718,0.6499 0.32177,2.99219 0.50732,3.50098 0.2002,0.63965 1.05176,1.21972 1.72559,1.4209 0.41992,0.22656 1.08203,0.29736 1.47168,0.26318 l 0.0908,-1.58545 0.39013,-0.0342 0.40088,1.27832 c 0.12891,-0.0127 0.38965,-0.0352 0.51856,-0.0474 l 1.61572,0.38135 c 0.14404,0.11816 0.14404,0.11816 0.2876,0.23632 0.17041,0.37842 -0.14746,1.06446 -0.10596,1.45508 0.22705,0.89844 1.16553,1.07764 1.94531,1.00733 -0.019,1.05224 0.083,0.78076 0.0225,1.44287 0.0718,0.65088 -0.31787,0.68603 0.48438,2.05859 0.15918,0.24805 0.48828,0.87598 0.87793,0.84082 0.38965,-0.0347 1.19971,-1.02734 2.06641,-1.49902 0.20019,0.63818 0.21533,0.76904 0.77539,1.11328 l -0.18897,0.67334 1.47559,-0.92041 c -0.43897,2.00976 -1.2749,1.55908 -2.18701,2.82324 -0.32178,0.68652 -0.1211,1.3252 -0.31055,1.99902 l 0.14404,0.11817 0.4917,-0.30664 0.375,-0.16455 c 1.15381,-0.23584 0.25733,1.15869 0.28369,1.41894 0.0415,0.39112 0.31787,0.49658 0.59033,0.60449 l -0.60937,0.44776 0.35937,0.88818 -2.33837,0.20996 c -1.1543,0.23487 -2.11182,1.10889 -3.08057,1.85254 l 0.0303,0.26026 0.40137,0.0952 -2.24023,1.12109 c 0.67724,0.20069 1.55908,-0.14013 2.20996,-0.19873 0.63574,-0.18896 0.51855,-0.0454 1.28662,-0.24756 l 0.41601,0.22706 -0.0757,0.53173 2.85351,0.9253 c 0.67725,0.20215 1.16944,-0.1045 1.58936,0.12109 0.56006,0.34424 0.37061,1.01758 1.30908,1.19531 1.07862,0.29737 1.93408,-0.3042 2.82715,-0.51611 l -1.05615,1.14648 0.48828,0.87598 1.27148,-0.37646 c -0.94238,1.00293 -0.89697,0.21191 -2.71337,0.37451 0.4165,0.2251 1.6538,0.77002 1.93017,0.87793 0.67725,0.20263 1.03662,-0.0947 1.99024,0.21582 0.80615,0.18896 1.78613,0.75879 2.04736,-0.44873 0.15869,0.25 0.31787,0.49804 0.46142,0.61718 0.417,0.2251 0.67774,0.20215 1.08301,0.29688 0.53321,0.0835 1.79688,0.88916 1.74024,1.55176 -0.11719,0.1416 -0.23438,0.28369 -0.34766,0.42578 -0.1748,-0.38037 -0.34473,-0.75684 -0.64746,-1.12402 -0.74512,-0.85352 -1.88867,-0.48829 -2.82666,-0.66797 l -1.88867,-0.48633 -1.45655,-0.13233 c -0.79101,-0.0605 -1.23779,-0.54492 -2.01709,-0.47509 -0.26123,0.023 -0.63574,0.1875 -0.60546,0.44824 0.0264,0.25928 0.31396,0.49805 0.458,0.61523 0.83594,0.4502 0.53321,0.083 1.80127,0.88916 0.70362,0.46192 0.94971,0.3086 1.62696,0.51075 l 0.69238,0.333 c 0.53369,0.0835 0.63574,-0.18896 1.16943,-0.10595 0.25733,-0.0225 0.79102,0.0605 1.0669,0.16845 l -2.25489,0.98975 -1.72949,-0.23828 c 0.34424,0.75683 0.48828,0.87598 -0.0908,1.58349 l -0.31787,-0.4956 c -0.34814,0.42383 -0.31787,0.68506 -0.66601,1.11035 l -0.57911,0.70801 c -0.10205,0.27246 -0.45019,0.69824 -0.71142,0.7207 -0.38965,0.0361 -0.83252,-0.45019 -1.12403,-0.68652 -0.56005,-0.34473 -0.8208,-0.32178 -1.45654,-0.13281 0.47656,0.7456 0.72266,0.59228 1.41113,0.92334 0.56397,0.34423 2.00196,1.5288 2.44873,2.01513 -0.13281,0.0112 -0.26123,0.0229 -0.36328,0.29541 -0.23095,0.28369 0.0225,1.44336 0.3252,1.8086 0.2876,0.23828 0.56396,0.34423 0.94971,0.31054 l -1.54737,1.45313 c 0.67725,0.20019 0.92334,0.0474 1.49854,0.52197 l -1.29834,0.11524 -1.71387,-1.29004 -1.78613,-0.76075 c 0.66601,0.0718 1.71777,0.10987 2.33838,-0.20996 1.11279,-0.62451 0.583,-1.89013 -0.27979,-2.60156 -0.56006,-0.34473 -0.95019,-0.30859 -1.6123,-0.38037 -0.53369,-0.0835 -1.3545,-0.40479 -1.87696,-0.35791 l -1.41504,0.25928 0.0908,-0.40284 c -0.40527,-0.0947 -0.54882,-0.21386 -0.9121,0.0815 -0.43165,-0.35596 -0.44288,-0.48438 -0.97657,-0.56787 l 0.0684,0.64892 -0.59033,-0.60351 -0.0566,0.66211 c -0.31787,-0.49756 -0.33301,-0.62598 -0.87793,-0.83985 l 0.43897,1.66699 -0.21583,0.41407 c -0.72265,0.59033 -0.71533,1.90381 -0.62841,2.68506 0.1665,1.56103 -0.18164,1.98681 -0.31397,3.18066 -0.0342,0.92139 0.26856,1.28857 0.019,2.62598 -0.0718,0.53173 -0.56787,2.02099 -0.7871,2.43554 l -0.57911,0.70752 -0.43505,0.82666 c -0.21973,0.41455 -0.57911,0.70948 -0.79834,1.12403 -0.20459,0.54297 0.083,0.78125 0.24218,1.02929 0.21533,0.76807 -0.333,0.5542 0.57129,1.65723 l -0.46191,0.56592 0.51855,-0.0474 c -0.2915,0.94629 0.29883,1.55176 1.1919,1.33985 0.63574,-0.18945 1.33203,-1.03906 1.52148,-1.71436 l 0.26123,-0.0229 1.74805,2.86475 c 0.30273,0.36719 0.37451,1.01807 0.9082,1.10107 0.53369,0.0835 0.73438,-0.45947 0.95362,-0.87402 0.23095,-0.28369 0.47705,-0.43701 0.70751,-0.7207 0.32178,-0.68506 -0.31005,-1.68018 -0.24951,-2.34278 0.0718,-0.53125 0.43506,-0.82666 0.49561,-1.48877 -0.0981,-0.91015 -0.77588,-1.11279 -1.22217,-1.59912 -0.44678,-0.48437 -0.49951,-1.00439 -0.57129,-1.65527 -0.15527,-1.43262 0.58252,-1.89209 0.71875,-3.08594 0.0454,-0.79297 -0.40088,-1.27734 -0.45801,-1.79931 -0.0415,-0.39014 0.0454,-0.79102 0.43555,-0.82715 0.89649,-0.21192 1.00635,0.83056 1.07813,1.47998 l -0.1211,1.32422 c -0.0718,0.53369 -0.29101,0.94629 -0.21924,1.59668 0.18555,0.50927 0.48828,0.87646 0.65821,1.25488 0.30273,0.3667 0.34472,0.75879 0.63232,0.99512 0.27246,0.10595 0.41602,0.22314 0.67725,0.20068 0.27246,0.10791 0.54492,0.21338 0.80615,0.19092 0.63574,-0.18945 1.29004,-1.43067 1.89551,-1.87695 0.36328,-0.29688 0.89697,-0.21192 1.28662,-0.24805 -0.21924,0.41455 -0.79834,1.12402 -1.0293,1.40625 -0.4917,0.30615 -1.38867,0.51806 -1.43408,1.31103 -0.27637,1.07666 1.15039,0.94776 1.12012,1.86914 -0.0605,0.6626 -1.0669,-0.1665 -1.37354,0.64893 -0.43506,0.82715 0.14014,1.30225 0.34033,1.94141 0.042,0.39013 -0.17382,0.80224 -0.26465,1.20556 -0.54882,0.96875 -1.01025,0.35352 -1.74853,0.81348 -0.62061,0.31982 -1.30176,1.2998 -1.9375,1.48926 -0.50293,0.17578 -0.93848,-0.18018 -1.32813,-0.146 -0.51855,0.0474 -0.95361,0.87598 -1.8164,0.16455 -0.87793,-0.8418 0.12109,-1.32422 -0.0947,-2.09424 l -0.52978,-1.26611 c -0.7378,0.45996 -1.46045,1.05225 -1.21827,2.08154 0.35938,0.88526 1.22217,1.59668 0.77198,2.29297 -0.36328,0.29541 -1.14307,0.36524 -1.74854,0.81397 -0.73779,0.46142 -1.50586,1.84277 -1.75195,1.99804 -0.36328,0.29493 -0.75293,0.32911 -1.11231,0.62403 l -1.30566,1.2998 c -0.11377,0.14209 -0.11377,0.14209 -0.23096,0.28418 l -1.62695,-0.51123 0.0981,0.91016 c -0.65087,0.0586 -0.65087,0.0586 -1.18457,-0.0244 -0.40087,-0.0967 -1.1958,-0.15527 -1.3999,0.3877 -0.21972,0.41455 0.8628,0.71142 1.13916,0.81738 1.65332,0.77197 1.97901,2.58106 1.27149,3.30371 -0.47705,0.43506 -1.29834,0.11524 -1.83155,0.0322 -1.1997,-0.15527 -3.08789,-0.64356 -4.26855,-0.66797 -1.55957,0.13818 -1.05957,1.14453 -1.36231,1.96045 -0.0762,0.5332 -0.56787,0.83984 -0.65478,1.24121 -0.11768,0.1416 -0.10205,0.27246 -0.0874,0.40283 -0.0147,-0.13037 0.42773,1.53809 0.41259,1.40772 0.18555,0.50879 1.09766,0.42773 1.63135,0.51074 0.67334,0.20068 0.84766,0.58105 1.40723,0.92529 0.54883,0.21192 0.79492,0.0586 1.30176,-0.11719 1.16601,-0.10595 2.27832,0.45215 4.01172,-0.49218 0.37451,-0.16455 0.73779,-0.45948 0.83984,-0.73194 0.34814,-0.42382 0.17432,-0.8042 0.65088,-1.24121 0.59424,-0.5791 1.74853,-0.81396 2.35742,-1.2622 0.47705,-0.43702 0.13281,-1.19385 1.01416,-1.53614 0.63574,-0.1875 1.33984,0.27442 2.22168,-0.0684 0.76416,-0.20068 1.58936,-1.06152 2.35742,-1.26172 0.7793,-0.0703 1.26367,0.80567 2.34619,1.10303 l 4.29493,0.92676 c 0.13232,-0.0112 0.40478,0.0967 0.54882,0.21582 1.15039,0.94629 -0.50732,1.3584 -1.14306,1.54785 -0.50684,0.17578 -0.63575,0.18701 -1.15772,0.23438 0.14746,0.11767 0.15869,0.24804 0.30274,0.36718 0.54882,0.21387 1.87304,0.35791 2.35351,-0.0796 0.23096,-0.28369 0.20459,-0.54492 0.16309,-0.93457 0.50293,-0.17578 0.74902,-0.3291 0.95361,-0.87402 -0.042,-0.38965 -0.21582,-0.76807 0.14746,-1.06348 0.23096,-0.28369 0.74903,-0.33105 1.14258,-0.36718 -0.60547,-0.73194 -1.09717,-0.42578 -1.89209,-0.48633 -0.40088,-0.0942 -0.56006,-0.34424 -0.96484,-0.43848 -0.38965,0.0356 -0.74903,0.33106 -1.29785,0.11719 -0.40479,-0.0967 -0.83643,-0.45215 -1.23731,-0.54688 -0.42041,-0.22509 -1.4873,-0.3916 -1.42676,-1.0542 0.10205,-0.27246 0.21924,-0.41406 0.47657,-0.43701 0.11767,-0.1416 0.24609,-0.15332 0.37841,-0.1665 l 0.18555,0.51123 c 1.38525,-0.51855 0.93457,0.17773 2.13428,0.33301 1.07861,0.29687 2.3501,-0.0796 3.44726,0.34814 0.67774,0.2002 0.45801,0.61475 1.04834,1.21826 0.71924,0.59424 1.74463,0.36914 2.65235,0.2876 -0.11328,0.14209 -0.24512,0.15527 -0.23047,0.28369 -0.21973,0.41455 0.0684,0.65088 0.34472,0.75684 0.97559,0.56982 2.42579,-0.61084 1.18457,-1.15576 l 1.99415,-0.9668 c -0.96485,-0.43896 -1.44239,-0.002 -2.70997,-0.80811 0.65137,-0.0586 0.7793,-0.0698 1.25684,-0.50732 l 0.0752,-0.5332 2.11132,-1.10889 c -0.66894,1.11084 0.084,0.78125 0.33692,1.94141 0.65136,-0.0586 1.45703,0.13037 2.1084,0.0737 0.50683,-0.17774 1.8916,-0.69629 2.25488,-0.9917 0.35937,-0.29492 0.45019,-0.69629 0.80957,-0.99121 l 1.50293,-0.66065 c 0.60937,-0.44824 1.07129,-1.01562 1.53613,-1.58349 0.23047,-0.28369 0.46192,-0.56739 0.86719,-0.47119 0.54492,0.21386 0.68457,1.51562 0.74121,2.03613 0.17383,0.37842 0.35938,0.88525 0.40137,1.27685 -0.0801,1.71436 -1.88086,2.00782 -2.9668,2.89307 -0.72266,0.59033 -1.27539,1.55908 -2.02832,1.89014 -0.96875,0.74365 -3.74316,1.78076 -5.01465,2.15722 l -2.69824,0.50489 c -0.62012,0.31982 -1.34277,0.91015 -1.54688,1.45312 -0.20507,0.54492 0.12403,1.17139 -0.49609,1.48926 -0.62109,0.31982 -3.20508,0.68115 -3.86767,0.61133 -1.0669,-0.16846 -0.70752,-0.46387 -2.26661,-0.32373 -1.42675,0.1289 -2.9707,0.39941 -4.44238,0.13623 0.23047,-0.28369 0.69629,-0.85157 0.7832,-1.25244 0.10205,-0.27247 -0.0415,-0.39161 -0.0718,-0.65088 -0.0117,-0.12891 -0.042,-0.38965 -0.18555,-0.50879 -0.30273,-0.36719 -1.33984,-0.27442 -1.72949,-0.23877 -0.89698,0.21191 -0.7378,0.45996 -2.16455,0.58838 l -4.79444,0.56201 c -2.33496,0.20849 -4.20068,1.16553 -5.10888,1.24707 -0.65088,0.0586 -2.10791,-0.0737 -2.78516,-0.27637 -0.54834,-0.21387 -1.12354,-0.68847 -1.74463,-0.36865 -0.63574,0.18896 -0.83984,0.73193 -1.58887,1.06103 -0.75341,0.33155 -2.17968,0.45997 -3.03515,1.06153 -0.85156,0.60205 -0.40674,1.08789 -1.40381,1.5708 -0.50537,0.17773 -2.20654,0.19824 -2.85693,0.25683 -1.4419,-0.001 -2.16504,0.58887 -3.42286,1.09571 l -1.3872,0.51855 c -0.50489,0.17578 -1.53076,0.39942 -1.74805,0.81348 -0.21777,0.4126 0.0981,0.91016 0.14014,1.30176 0.0415,0.38965 -0.0459,0.79101 -0.13477,1.19384 -0.6792,0.98047 -2.4292,1.79395 -2.14355,3.21485 0.22705,0.89892 0.76074,0.98193 1.76709,1.81055 1.32275,1.32666 2.31201,3.20898 3.73681,4.26318 1.84131,1.28076 4.50537,2.88135 6.78321,3.3335 l 3.95459,0.17041 c 2.11914,0.20263 3.74658,0.71533 5.97168,0.6455 l 4.88916,-0.83252 c 1.04052,-0.0928 2.58447,-0.36328 3.6665,-0.0664 1.08252,0.29687 1.29443,1.06689 3.24316,0.89111 l 2.71338,-0.37451 c 0.63574,-0.1875 1.14258,-0.36524 1.83155,-0.0322 1.67236,0.90088 -1.16163,2.59961 0.13232,3.66699 0.71924,0.59229 3.09912,0.77198 4.05273,1.08008 0.6626,0.0723 2.75098,1.19776 3.19825,1.68408 0.28711,0.23633 0.31347,0.49756 0.61621,0.86475 0.29882,0.36719 0.98047,0.56787 1.02148,0.95947 0.042,0.38965 -0.79785,1.12207 -1.0293,1.40577 -0.71093,0.7207 -2.08837,2.55224 -1.3125,3.66503 0.30274,0.3667 1.12403,0.68653 1.54395,0.91163 l 3.78809,1.10498 c 1.6416,0.6416 1.78222,1.94336 2.77734,2.6416 0.7041,0.46338 1.87305,0.35742 2.79687,0.40674 l 3.90528,0.96289 c 1.3584,0.40527 0.79101,1.24316 1.85742,1.40966 2.25195,0.19336 5.70801,-1.82568 7.54297,-3.04052 l 3.72754,-1.91114 c 1.49121,-0.79052 2.83398,-1.70068 4.17773,-2.60888 2.54688,-1.93555 4.63184,-4.48828 5.89551,-7.36035 0.43555,-0.82666 1.66895,-2.77784 1.74512,-3.30909 0.17383,-0.8042 -0.66309,-1.25488 -0.34082,-1.93945 0.41992,-0.95947 2.11523,-2.29346 2.5205,-3.37939 0.33692,-0.55616 0.23829,-1.46631 -0.32617,-1.81055 -0.54492,-0.21387 -0.9082,0.0811 -1.99023,-0.21582 0.81738,-2.17432 2.29687,-4.27832 3.52734,-6.229 0.56738,-0.8379 1.58106,-2.37452 1.60059,-3.42627 0.004,-1.18262 -1.05274,-1.22071 -1.49512,-1.70508 -0.43164,-0.35547 -0.33301,-0.62793 -0.60547,-0.73584 -0.54492,-0.21192 -1.41504,0.25928 -1.94824,0.17578 -0.39063,0.0342 -0.67773,-0.20215 -0.9502,-0.30811 -0.41992,-0.22509 -0.92382,-0.0493 -1.31347,-0.0151 -0.58594,-1.78614 0.63574,-5.04834 1.23437,-6.80957 1.16504,-3.78272 2.72461,-7.60254 2.16016,-11.62354 l -0.59766,-3.09912 c -0.16992,-0.38037 -0.48437,-0.87598 -0.99121,-0.70019 -0.76465,0.20068 -1.43847,2.49414 -1.75586,3.17871 l -1.75586,3.18066 c -0.45019,0.69629 -0.74218,1.64258 -1.33593,2.22119 -0.47754,0.4375 -1.23047,0.7666 -1.85059,1.08447 -0.20117,-0.63769 -0.5752,-0.47314 -1.08203,-0.29541 l -2.35449,1.26221 c -0.49121,0.30664 -1.45996,1.05029 -2.11133,1.10889 -0.51856,0.0474 -0.82129,-0.31983 -1.58496,-0.1211 -0.51856,0.0474 -1.40039,0.38965 -1.80567,0.29297 -0.5332,-0.083 -1.1084,-0.55615 -1.64258,-0.63916 -0.40039,-0.0967 -1.16894,0.10401 -1.54394,0.26856 -1.29883,0.11718 -3.33106,-0.49024 -4.67383,-0.7627 0.2461,-0.15332 0.50684,-0.17578 0.48047,-0.43701 0.18945,-0.67334 -0.84766,-1.76318 0.42383,-2.14014 0.1289,-0.0112 0.38965,-0.0356 0.51855,-0.0469 l 2.22071,-0.0684 1.28808,-0.24609 c 0.66211,0.0723 0.83594,0.45068 1.74414,0.36914 l 3.19043,-0.81153 c 1.30176,-0.11767 1.82715,1.15039 3.17481,0.24024 1.09765,-0.75489 2.13086,-3.34522 2.52441,-4.56201 l 1.13477,-2.86084 0.43945,-2.00928 c 0.49512,-1.49121 0.94531,-2.1875 0.76367,-3.87891 l -0.26465,-2.47314 c -0.11328,-1.04053 -0.32519,-1.81055 -1.39648,-0.79444 -0.82813,0.8628 -1.12012,1.8086 -2.44434,1.66504 -0.35156,1.6084 -0.1289,3.68946 -1.7334,4.62256 -0.60937,0.44824 -1.28613,0.24561 -1.91796,0.43506 -0.37891,0.16455 -0.8711,0.47314 -1.14356,0.36523 -0.38965,0.0337 -0.67676,-0.20263 -0.71875,-0.59228 0.0723,-0.53174 0.9541,-0.87402 1.33203,-1.03906 1.25684,-0.50684 1.89258,-0.69629 2.81934,-1.82959 0.56348,-0.83985 0.62402,-1.50244 1.07422,-2.19873 0.46191,-0.56739 0.86718,-0.47266 1.3291,-1.03858 0.34766,-0.42578 0.9873,-1.79736 1.32031,-2.35205 l 1.58887,-4.74121 c 0.76855,-1.3833 2.05566,-1.62939 2.39258,-3.36816 l 0.20019,0.63964 c 1.37403,-0.64892 1.36231,-1.96191 1.09375,-3.25048 0.7793,-0.0703 2.36524,0.0493 3.00098,-0.13819 l 2.94726,-1.84082 c 0.73829,-0.46191 1.95313,-1.35888 2.12696,-2.16308 0.2041,-0.54297 -0.63965,-2.30616 -0.94239,-2.67334 -0.15527,-0.24805 -0.29882,-0.36719 -0.57519,-0.47315 -0.67774,-0.20215 -1.57031,0.01 -2.05859,-0.8667 -0.60547,-0.73388 -1.2754,-3.30127 -1.77442,-4.3081 -1.07519,-2.66211 -1.14648,-2.13037 -1.65039,-3.13623 -0.3291,-0.62696 -0.26855,-1.28955 -0.34082,-1.94043 -0.18457,-0.50782 -0.4873,-0.875 -0.51367,-1.13623 -0.0576,-0.52002 0.30566,-0.81543 0.6543,-1.24024 0.54882,-0.96972 0.46484,-1.75 1.05957,-2.3291 0.47656,-0.43701 0.89648,-0.21094 1.1123,-0.625 0.79883,-1.12207 -1.13086,-2 -0.48047,-3.24121 0.33301,-0.55566 1.27539,-1.55908 1.92578,-1.61816 0.50391,-0.17579 0.92383,0.0483 1.42676,-0.12745 0.49219,-0.30761 0.52637,-1.22998 0.73047,-1.77392 0.50684,-1.35938 1.30176,-1.29883 1.49512,-3.15479 0.0605,-0.66259 0.0908,-1.58593 -0.22364,-2.08252 -0.60547,-0.73486 -1.45703,-0.13232 -1.66113,0.41163 -0.45019,0.69628 -0.35156,1.60839 -0.26855,2.38867 -0.0459,0.79199 -0.19336,1.85595 -0.64356,2.55322 -0.54883,0.96973 -1.67285,0.28223 -1.99023,-0.21436 -0.15528,-0.24902 -0.0527,-0.5205 -0.083,-0.78173 0.0186,-1.05274 -0.28418,-1.41895 -0.0195,-2.625 0.0723,-0.53272 0.56738,-2.02198 0.41308,-2.27051 -0.0459,-0.39063 -1.23828,-1.72754 -1.53711,-2.0957 -0.58984,-0.60352 -1.65332,-1.95362 -2.63671,-1.33936 -0.86719,0.47119 -0.68555,2.16357 -0.84766,3.09717 -0.0879,0.40185 -0.26563,1.20605 -0.65527,1.24121 -0.24219,0.15332 -0.67676,-0.20264 -0.96094,-0.43897 -0.73438,-0.72265 -1.18067,-1.208 -1.30567,-2.37939 0.40137,0.0947 1.4834,0.39258 1.5586,-0.14014 -0.0566,-0.52002 -0.67285,-1.38476 -1.19531,-1.3374 -0.53321,-0.0835 -0.60547,0.44824 -1.31348,-0.0132 -0.5752,-0.47412 -1.85059,-2.59327 -2.45606,-3.32764 -0.75976,-0.98291 -1.8955,-1.80029 -3.00781,-2.35742 -0.67383,-0.20117 -2.86523,-1.05664 -3.47363,-0.60742 -0.24609,0.15332 -0.20508,0.54296 -0.30664,0.81445 -0.14356,-0.11719 -0.28809,-0.23633 -0.54492,-0.21338 -0.93848,-0.17822 -1.21485,0.89746 -1.27539,1.56006 0.0264,0.25976 0.083,0.78125 -0.292,0.9458 -0.37793,0.16455 -0.66601,-0.0718 -0.9541,-0.30908 -0.7041,-0.46192 -0.71875,-0.59229 -1.66894,-0.90088 0.18554,0.50879 0.37109,1.01807 0.68554,1.51465 0.76368,0.98291 1.28223,0.93554 1.16114,2.26123 -1.09375,-0.42774 -2.33106,-0.97266 -3.08008,-1.82617 l 1.01074,-0.35352 -0.0273,-0.25928 c -0.41602,-0.22607 -1.84278,-1.28027 -1.89942,-1.80029 -0.042,-0.39063 0.47657,-0.43799 0.43555,-0.82813 0.0908,-0.40185 -0.3291,-0.62695 -0.125,-1.17089 0.34766,-0.42578 1.10059,-0.75586 1.04395,-1.27637 -0.0303,-0.26025 -0.31739,-0.49658 -0.58985,-0.60352 -0.56055,-0.34423 -1.55566,-1.04248 -2.14941,-0.46435 -0.47657,0.43701 -0.11719,1.32422 -0.38184,2.53027 -0.40527,-0.0942 -1.09765,-0.42724 -1.49902,-0.52197 -0.53321,-0.0835 -1.1543,0.23437 -1.84668,-0.0967 -0.95313,-0.30908 -1.29395,-1.0669 -2.11524,-1.3877 -1.51367,-0.65185 -2.78515,-0.27441 -4.20019,-0.0161 -0.64746,0.0576 -1.68848,0.15137 -2.3086,0.46924 -0.49218,0.30762 -0.71191,0.7207 -0.92773,1.13428 -0.57812,0.70947 -1.72168,1.07373 -1.60742,2.11425 0.22656,0.89991 1.02148,0.96045 1.30859,1.1958 l 0.8291,1.63477 c -0.89355,0.21094 -1.31347,-0.0132 -2.08886,0.0562 l -3.07666,0.66944 c -1.57422,0.0107 -2.0625,-0.86524 -3.02735,-1.3042 -0.54492,-0.21387 -0.93457,-0.1792 -1.35449,-0.4043 -0.43164,-0.35449 -0.47314,-0.74512 -0.61719,-0.86475 -0.30273,-0.36572 -1.62695,-0.51074 -2.0166,-0.47558 0.0264,0.26123 0.0415,0.39062 -0.18945,0.67334 -0.21924,0.41455 -1.33203,1.04004 -1.85059,1.08642 -0.2456,0.15332 -0.65088,0.0586 -0.92334,-0.0483 l 0.0723,-0.53271 c 0.0606,-0.66113 -0.32959,-0.62647 -0.83252,-0.4502 -0.76856,0.2002 -1.22998,0.76709 -1.83936,1.21582 0.21973,-0.41357 0.42383,-0.95752 0.77198,-1.38232 0.47705,-0.43701 1.11279,-0.62646 1.73339,-0.94434 l 1.96387,-1.22705 c 0.4917,-0.30664 1.24512,-0.63769 1.60449,-0.93261 1.08594,-0.88575 1.31299,-3.66407 1.0293,-5.08399 -2.00928,0.83594 -1.47607,0.91944 -2.83447,1.69873 -0.4917,0.30664 -0.75293,0.33057 -1.12744,0.49512 -0.35987,0.2959 -0.45069,0.69824 -0.5376,1.09912 l 0,0 z m 13.78223,-4.7832 1.27929,0.93652 0.97559,1.75098 c 0.75,-0.33008 0.85156,-0.60157 1.35937,-0.77832 0.24512,-0.15332 1.86133,0.22705 1.48633,-0.79004 -0.14355,-0.11914 -0.28711,-0.23731 -0.43066,-0.35547 l -0.0869,0.40185 c -0.43164,-0.35547 -1.00683,-0.82959 -1.55566,-1.04345 -0.54883,-0.21289 -2.38086,-0.17969 -3.02734,-0.12207 l 0,0 z m 4.39746,0.65673 c 1.8164,-0.16259 1.50195,-0.66064 2.54297,-0.75341 0.50293,-0.17774 1.30859,0.0137 1.84277,0.0967 l -0.0723,0.53173 c 1.09375,0.42774 1.02539,-0.22314 1.83204,-0.0332 0.82128,0.3208 1.32421,1.32764 2.67871,1.73047 0.54492,0.21484 0.82129,0.3208 1.31347,0.0142 0.31348,0.49756 0.44629,0.48633 0.96485,0.43896 0.0605,-0.6621 0.43457,-0.82763 0.26074,-1.20605 -0.16992,-0.37939 -1.54004,-0.91309 -1.65723,0.41211 -0.46191,-0.6167 -0.21582,-0.77002 -0.38574,-1.14746 -0.46191,-0.6167 -1.38477,-0.66504 -2.02148,-0.47656 -0.26856,-1.28955 -0.0977,-0.91114 -1.89551,-1.8003 -0.56348,-0.34375 -1.80078,-0.88965 -2.4668,-0.96142 -0.79101,-0.0605 -0.99512,0.4834 -1.61621,0.80224 -0.34766,0.42578 -0.75293,0.33008 -1.1123,0.62549 -0.34864,0.42481 -0.26465,1.20606 -0.20801,1.72656 l 0,0 z m 27.44336,-5.74755 1.64257,1.82421 c 0.61719,0.86377 1.2334,1.72852 1.96778,2.4502 0.57519,0.47412 1.39648,0.79492 2.16113,0.59521 0.50684,-0.17724 2.03906,-1.75976 0.78711,-2.43603 -0.41699,-0.22461 -1.04102,0.0937 -1.42676,0.12842 0.0303,-0.92237 -0.0264,-1.44287 -0.2539,-2.34229 -0.0264,-0.26025 -0.083,-0.78027 -0.59082,-0.60351 -0.62012,0.31884 0.11035,2.22314 -0.87012,1.65429 l -0.41602,-0.22509 -0.43164,-0.35547 c -0.46484,0.5664 0.083,0.78027 0.53028,1.26562 0.57519,0.4751 1.01757,0.96045 1.10449,1.74072 -1.41113,-0.92529 -1.49414,-1.70459 -2.40235,-2.80566 -0.58691,-0.60449 -1.01855,-0.96045 -1.80175,-0.89062 l 0,0 z m 5.63476,-1.29297 c 0.35547,0.8872 1.74805,2.86474 2.70215,3.17285 -0.64746,-1.12403 -1.47949,-2.75781 -2.70215,-3.17285 l 0,0 z m -96.14941,9.54638 c 0.38965,-0.0347 0.91015,-0.0815 1.16894,-0.10498 l 3.38721,1.00977 c 0.93848,0.17871 1.86182,0.22754 2.47852,1.09131 -1.68799,0.15234 -1.32813,-0.14356 -2.66797,-0.417 -1.1958,-0.15527 -1.55908,0.14014 -2.48242,0.0908 -0.5337,-0.0835 -0.80616,-0.18995 -1.21094,-0.28467 l -3.47754,0.57422 c -0.92334,-0.0483 -1.12402,-0.68702 -1.67285,-0.90088 -0.56006,-0.34424 -1.0669,-0.16748 -1.55908,0.14013 -0.87793,0.3418 -1.73292,0.94336 -2.58643,1.5459 -1.59131,1.06153 -3.42627,2.27783 -4.57129,3.82569 -0.79639,1.12207 -0.59766,1.76171 -1.39453,2.88378 -0.80957,0.99219 -2.67529,1.94776 -3.93555,3.63819 -0.91357,1.26416 -0.83056,2.04443 -1.17676,2.47021 -0.23291,0.28272 -1.8374,1.21582 -2.21386,1.38037 -0.37451,0.16456 -0.76416,0.19971 -1.01026,0.35401 -0.36133,0.29492 -0.5791,0.70849 -0.79834,1.12256 l -1.28662,1.42871 c -0.33301,0.55517 -1.68408,2.64697 -1.75781,3.17969 -0.0322,0.92236 1.45508,1.31494 0.66992,2.56738 -0.11572,0.14111 -0.23096,0.2832 -0.34668,0.42578 -0.85303,0.60156 -1.08203,-0.29785 -1.74414,-0.36963 -0.8081,-0.19043 -2.00928,0.83691 -2.72851,0.24463 -0.44629,-0.48535 -0.25538,-1.15869 -0.31006,-1.67969 -0.20069,-0.63867 -0.48828,-0.87549 -0.67383,-1.38428 -0.33106,-0.62841 -0.0679,-1.83447 -0.98779,-3.06543 -0.47266,-0.74511 -1.01954,-0.95898 -1.44141,-4.8e-4 l -0.30664,0.81445 c -0.51465,-1.13525 -0.22363,-2.08154 -1.16211,-2.26123 -1.19531,-0.1543 -1.56055,1.32373 -2.25684,2.17383 -1.7373,2.12695 -2.02636,1.89013 -3.35693,2.92822 l -1.76514,1.8667 -1.10107,0.75586 c -0.59229,0.57861 -0.98584,1.79639 -1.29053,2.61181 l -1.27344,5.23829 c -0.27832,1.0747 -0.7456,2.82666 -1.88623,3.18994 -0.375,0.16455 -1.55908,0.14013 -1.9624,0.0454 -0.41797,-0.2251 -0.71875,-0.5918 -1.12207,-0.68848 -0.38965,0.0361 -1.43017,0.12842 -2.39502,-0.31055 -0.57519,-0.47265 -1.33594,-1.45654 -1.88476,-1.66845 -0.54688,-0.21582 -1.0669,-0.16846 -1.58545,-0.1211 -0.65088,0.0566 -1.55908,0.13965 -2.09278,0.0566 -1.35449,-0.4038 -2.229,-2.42773 -2.74365,-3.56396 -0.18506,-0.50879 -0.52978,-1.2666 -0.94775,-1.4917 -0.5752,-0.47412 -1.26953,0.37646 -1.94678,0.1748 -0.53369,-0.084 -1.71436,-1.29101 -2.40479,-1.62402 -0.14404,-0.11865 -0.57714,-0.47314 -0.82128,-0.31982 -0.25928,0.0225 -0.33497,0.55615 -0.43555,0.82666 -0.0186,1.05322 0.271,1.28955 0.87256,2.02441 0.14355,0.11768 0.59033,0.60401 0.22705,0.89893 -0.60547,0.44824 -1.47949,-1.5752 -2.16065,-0.59424 -0.10254,0.27246 -0.0874,0.40234 -0.20459,0.54297 l -0.25927,0.0239 -0.62793,-2.17675 -0.0967,-0.91114 -0.87403,-2.02343 -1.0708,1.01562 -0.25586,-1.15967 -0.35742,-0.8872 c -0.20068,-0.63868 -0.71875,-0.59229 -1.21094,-0.28614 -0.96875,0.74463 -1.63867,1.85547 -2.24414,2.30371 -0.73779,0.46094 -1.2998,0.1167 -1.80468,0.29346 -0.62061,0.31885 -1.05616,1.14551 -1.24707,1.82031 l -0.99903,5.34424 c -0.86474,4.15088 -1.41699,5.11963 -0.94043,9.54346 l 0.52588,2.44873 0.49414,3.37158 0.44092,1.66846 0.26074,-0.0244 c -0.18164,-1.6914 -0.12842,-4.84961 0.35205,-6.46875 0.46924,-1.74853 1.21875,-2.07959 1.25635,-4.18554 l 0.31055,1.68213 c 0.70947,-0.72315 0.65429,-1.24317 1.6499,-1.72559 0.33105,0.62598 0.47461,0.74561 0.68848,1.51562 0.20068,0.63721 0.25537,1.15772 0.58642,1.78614 0.32959,0.62597 0.60205,0.73388 0.91797,1.23144 0.30274,0.36524 0.50147,1.00489 0.68652,1.51367 0.35987,0.8877 0.64356,2.3086 1.72364,2.60547 0.42236,-0.95752 0.29736,-2.12841 0.3125,-3.18213 0.10205,-0.27246 0.14941,-1.06347 0.39355,-1.21679 0.63574,-0.18946 0.89307,0.9707 0.93457,1.36035 0.3711,1.01807 0.6416,2.30859 1.2583,3.1709 0.64502,1.12597 1.15235,0.94824 1.9961,2.71142 l 0.19092,-0.67334 c 0.35791,0.88721 -0.0923,1.58545 0.88769,2.15332 -0.0566,-0.5205 -0.1626,-2.74365 0.0527,-3.1582 0.10254,-0.27246 0.49219,-0.30664 0.75342,-0.3291 l 0.60547,4.41211 c 0.0547,0.52051 0.25342,1.16016 0.55615,1.52734 0.73389,0.72266 1.58741,0.11914 1.91651,0.74707 l 0.51269,2.31787 c 0.44092,1.66895 1.05616,3.71631 1.74073,5.22998 0.5166,1.13672 1.20361,2.65235 2.08154,3.49268 0.30273,0.36719 0.74756,0.85352 1.25244,0.67529 0.50732,-0.17578 0.30664,-0.81543 0.39356,-1.21631 0.0757,-0.53173 0.31982,-0.68505 0.40869,-1.08789 0.0605,-0.66259 -0.15528,-1.43261 0.17773,-1.98681 -0.17383,0.8042 0.0986,0.91015 0.18359,1.6914 0.11182,1.04053 0.36719,2.20069 0.73975,3.2168 0.55664,1.52881 0.9707,2.93457 1.90381,4.29688 0.61865,0.86474 2.04346,1.91845 2.90625,2.62988 1.18066,1.20703 2.34424,2.28564 3.76904,3.33935 l 1.69922,1.16211 1.41113,0.9253 c 1.25293,0.67529 1.38526,-0.52051 2.16455,-0.58887 0.40479,0.0947 1.82764,1.14844 2.25928,1.50439 2.1875,2.0376 1.46826,1.4458 2.97803,3.28077 l 3.40576,3.63476 c 0.87793,0.84033 1.96777,2.45215 3.16553,2.60547 l 1.19775,0.15723 c 1.33985,0.27441 2.83838,0.79638 4.23828,0.40674 0.52051,-0.0474 0.88184,-0.34083 1.11426,-0.62452 0.34668,-0.42578 0.55078,-0.96875 1.07129,-1.01611 0.5332,0.0835 1.77295,0.62842 2.31934,0.84375 1.3833,0.6626 3.34179,1.80127 4.81201,2.0625 1.47168,0.26318 2.52783,-0.8833 2.28564,-1.9126 -0.37109,-1.01806 -1.92627,-2.06054 -2.75683,-3.69336 -0.8042,-1.37207 -1.36035,-2.89892 -2.28028,-4.13086 l -2.11132,-2.56933 -1.26416,-1.98877 -0.6167,-0.86426 c -0.1587,-0.24805 -0.38575,-1.14697 -0.42774,-1.53857 l -1.44531,-3.68018 c -0.65869,-1.25439 -1.96045,-1.13721 -2.8042,-2.90039 0.60351,0.73389 1.75586,1.68213 2.57519,2.00195 -0.3706,-1.01806 -1.20166,-2.65088 -1.82031,-3.51562 l -1.32226,-1.32617 c 0.71875,0.59179 1.29394,1.06689 2.23242,1.24462 l 0.27637,-1.07666 c 0.40869,-1.08789 0.7832,-1.25244 0.77392,-2.56543 -0.10791,-2.22314 -2.16113,-5.45507 -2.4541,-8.18701 -0.12695,-1.17138 0.13623,-2.37646 0.27051,-3.57031 l 0.0361,-2.10596 c -0.042,-0.39013 0.18897,-0.67578 0.26465,-1.20556 l -0.0244,-1.44336 c 0.17579,-0.8042 0.27784,-1.07666 0.19483,-1.8584 l -0.62842,-2.17578 -0.0376,-1.57422 -0.22509,-2.08106 c -0.16846,-1.56103 0.67138,-2.29345 0.81933,-3.35693 0.0757,-0.5332 -0.59814,-1.91846 -0.88769,-2.15478 -0.41797,-0.2251 -1.31104,-0.0132 -0.99317,-0.69825 0.31983,-0.68506 1.49854,0.52198 1.80127,0.88916 0.37842,-1.34716 0.0908,-1.58545 -0.16455,-2.74463 l -0.49414,-3.37158 c -0.22705,-0.89941 -0.80225,-1.37256 -0.8457,-1.76318 0.0889,-0.40234 0.47851,-0.4375 0.94043,-1.00391 0.46533,-0.56738 0.65478,-1.24121 0.71533,-1.90332 l 0.0225,-2.23584 c 0.146,-1.06396 1.04443,-2.45849 2.1875,-2.82373 1.1543,-0.23437 2.33301,0.97266 2.98193,0.91504 0.65088,-0.0591 0.96875,-0.74365 1.18799,-1.1582 l 1.49854,-4.33838 0.26123,-0.0239 c 0.64502,1.12598 1.32275,1.32715 2.19873,2.16846 l 0.74902,0.85254 c 0.14404,0.11816 0.39014,-0.0352 0.63574,-0.18848 0.46192,-0.56689 1.01807,-2.71875 0.68897,-3.34619 -0.18555,-0.50879 -0.76074,-0.98291 -0.96143,-1.62158 -0.0415,-0.39063 0.17627,-0.8042 0.39356,-1.21729 0.30664,-0.8164 0.46777,-1.75048 1.05957,-2.3291 1.17334,-1.28759 3.51172,-1.49804 4.93652,-0.44287 0.72119,0.59229 0.63037,0.99414 0.93311,1.36133 0.44629,0.48535 1.09521,0.42773 1.30908,1.19678 0.0283,0.26025 -0.0303,0.92236 -0.11914,1.32422 0.085,0.78076 0.24023,1.02929 -0.0645,1.84472 -0.43505,0.82715 -1.15771,1.41748 -1.45117,2.36328 -0.40674,1.08789 0.25733,1.16016 0.0947,2.09375 -0.2915,0.94629 -1.00098,1.667 -1.29248,2.6128 -0.33496,0.55566 -0.27783,1.07568 -0.8833,1.52441 -0.49219,0.30615 -1.28662,0.24658 -1.80518,0.29297 -0.76611,0.19971 -1.37353,0.64893 -1.99414,0.96728 0.0264,0.26075 0.0547,0.52002 0.21192,0.76905 0.21533,0.76904 0.86474,0.71045 1.49853,0.52197 1.02539,-0.22217 2.38379,-1.00195 3.39258,-0.17285 0.87598,0.8418 1.14258,3.31396 1.89014,4.16601 0.71875,0.59229 1.23925,0.5459 2.04687,0.73633 0.54688,0.21387 0.96533,0.43897 1.39648,0.79444 1.00684,0.82861 0.68897,1.51464 1.14649,2.12988 0.43164,0.35449 0.8081,0.19189 1.25293,0.67627 l 1.90869,3.1123 1.31543,-1.16894 c 0.44629,0.48584 0.9668,0.43847 1.02539,-0.22363 -0.0415,-0.38965 -0.25342,-1.15772 -0.42773,-1.53809 0.87793,0.8418 0.94824,1.49268 0.94433,2.67529 0.0283,0.25928 -0.0737,0.53174 0.085,0.78174 0.0552,0.51807 0.68701,1.51367 1.11817,1.86914 0.56201,0.34229 0.93652,0.17774 1.42871,-0.12891 0.45019,-0.69628 0.71338,-1.90332 1.40771,-2.75292 0.58106,-0.70948 1.73487,-0.94385 2.77783,-2.2212 -0.27246,-0.10595 -1.09375,-0.42578 -1.00683,-0.82861 0.2041,-0.54297 0.98389,-0.61328 1.47558,-0.92041 0.72315,-0.59033 1.2754,-1.56006 1.43653,-2.49316 l -1.58789,-0.1211 -0.93653,-0.17871 -1.2998,0.11768 -1.27881,-0.93701 -1.84668,-0.0972 c 0.31787,-0.68506 0.53711,-1.09961 1.3169,-1.16944 0.38964,-0.0351 0.93652,0.17969 1.18261,0.0264 0.50489,-0.17773 0.44825,-0.69824 0.81153,-0.99316 0.69433,-0.85059 1.71777,-1.07373 1.86767,-2.13819 1.0669,0.16651 1.29981,-0.11621 1.83155,-0.0332 1.09521,0.42676 1.43603,2.36719 1.9375,3.37354 -1.35499,-0.40381 -1.09961,0.75537 -1.13184,1.67773 0.49219,-0.30664 1.07129,-1.01514 1.57617,-1.19238 l 1.70313,-0.0215 c 0.38964,-0.0351 0.50488,-0.17627 0.88183,-0.34179 0.89453,-0.21094 1.48487,0.39257 1.95801,1.13818 0.49219,-0.30664 0.46387,-0.56738 0.14746,-1.06445 l 0.64941,-0.0586 -0.37109,-1.0166 c -0.64892,0.0576 -0.79492,-0.0606 -0.98389,0.61279 -0.56005,-0.34326 -0.56005,-0.34326 -1.22412,-0.41552 l 0.47852,-0.43604 -0.0303,-0.26123 c -1.1084,-0.55713 0.16308,-0.93359 0.35205,-1.60791 0.0889,-0.40234 -0.0679,-0.6499 -0.22705,-0.89892 l 1.63281,-0.67237 c 0.69433,-0.84961 1.28467,-0.24609 1.57617,-1.19238 1.33984,0.27441 0.89893,-1.39404 1.91113,-1.74805 0.24414,-0.15332 0.64698,-0.0576 0.90821,-0.0815 0.37451,-0.16455 0.74902,-0.3291 1.12744,-0.49463 0.51855,-0.0464 0.77978,-0.0688 1.28271,-0.24707 0.49219,-0.30615 0.94238,-1.00342 1.29053,-1.42822 0.23096,-0.28516 0.70752,-0.72119 0.81006,-0.99366 0.0869,-0.40185 -0.0835,-0.77929 -0.15137,-1.43115 0.5332,0.083 0.92334,0.0483 1.26758,-0.37646 0.36328,-0.29541 0.30664,-0.81592 -0.24219,-1.0293 -0.1289,0.0122 -0.51855,0.0474 -0.64697,0.0586 l 1.79346,-1.60644 0.35205,-1.6084 -0.50733,0.17676 0.17822,-0.8042 -1.43066,0.12891 c 0.23096,-0.2837 0.92725,-1.13428 1.1582,-1.41797 0.60938,-0.44873 1.27149,-0.37647 1.57813,-1.19336 -1.2832,0.24707 -2.86084,1.43945 -3.6709,2.43164 l -1.26416,1.68945 0.0762,-0.53174 c -1.27148,0.37744 -1.18847,1.15821 -1.68066,1.46485 l -0.24561,0.15283 c 0.38965,-0.0347 -2.22119,0.0684 -1.8164,0.16406 -0.66407,-0.0723 -1.3833,-0.66406 -1.9585,-1.13916 -0.43311,-0.35498 -0.73242,-0.72168 -1.22412,-0.41455 l -2.43311,-1.8833 c 0.23047,-0.28369 0.34815,-0.42578 0.0605,-0.66309 -0.2876,-0.23681 -0.96484,-0.43896 -1.52685,-0.78271 -1.00879,-0.82861 -0.96143,-1.62158 -1.08838,-2.79248 -0.10938,-1.04053 -0.24219,-1.0293 -0.59766,-1.91699 -0.17236,-0.3794 -0.20068,-0.63916 -0.50342,-1.00635 -0.30078,-0.36719 -1.00635,-0.82861 -1.43799,-1.18457 -0.57519,-0.47315 -1.29394,-1.06592 -1.958,-1.13819 -0.93653,-0.17773 -1.65967,0.4126 -2.46924,0.22168 -0.67725,-0.20166 -1.55371,-1.04248 -2.37451,-1.36328 -0.5337,-0.0835 -1.18262,-0.0249 -1.70313,0.0215 -0.0283,-0.26026 -0.085,-0.78028 -0.35742,-0.88721 -0.41651,-0.2251 -1.16943,0.10498 -1.68799,0.15137 -0.52002,0.0464 -0.69238,-0.33203 -1.09521,-0.42774 -0.40332,-0.0947 -2.23682,-0.0615 -2.46924,0.22168 -0.2461,0.15381 -0.0723,0.53223 -0.0454,0.79248 l 0,0 z m 92.82715,-13.58398 c 1.06347,1.34961 2.96289,3.1499 4.56347,3.40088 -0.47265,-0.74658 -0.87793,-0.84082 -1.45312,-1.31494 -0.84766,-0.58106 -2.28906,-1.76563 -3.11035,-2.08594 l 0,0 z m -10.39942,-5.24121 -0.3291,-0.62744 c 0.54883,0.21289 1.09766,0.42675 1.41211,0.92431 0.16992,0.37842 0.2002,0.63867 0.24219,1.0293 0.083,0.78076 1.44922,2.49756 2.24023,2.55713 0.27539,0.10693 0.26074,-0.0225 0.52149,-0.0464 l -0.66993,-2.56738 c -0.30273,-0.36719 -0.67675,-0.20166 -1.12304,-0.68701 l -2.70215,-3.17383 c -0.15918,-0.24902 -0.76074,-0.98291 -0.67383,-1.38428 0.23047,-0.28369 0.88184,-0.34228 1.14258,-0.36474 l -2.47461,-2.27442 c -0.28809,-0.2373 -0.73438,-0.72265 -1.24121,-0.5459 -0.50391,0.17676 -0.69336,0.85059 -0.91309,1.26368 -0.21582,0.41455 -0.56347,0.83935 -0.52246,1.22998 0.18555,0.50927 0.77637,1.11279 1.07617,1.47949 l 2.30469,1.89502 c 0.58985,0.60449 0.88867,0.97168 1.70996,1.29248 l 0,0 z m 33.67578,-0.26319 c -0.34082,-1.94043 -1.58984,-3.79834 -3.05371,-5.24316 l -2.30468,-1.89551 c -0.88965,-0.9707 -1.85059,-2.59228 -3.16016,-3.78906 -1.4375,-1.18457 -2.51953,-1.48145 -3.79883,-2.41797 l -2.17578,-1.90723 -3.88281,-3.19873 c -1.00684,-0.82861 -2.20215,-2.16748 -2.96289,-3.14941 -0.77637,-1.11328 -0.55664,-1.52686 -1.00293,-2.01221 -0.30274,-0.36718 -1.39649,-0.79492 -1.92969,-0.87793 l 0.2041,-0.54394 -0.96484,-0.43897 c 0.53711,-1.09912 -0.21582,-0.76904 -0.97657,-1.75097 -0.30273,-0.36719 -0.35546,-0.88868 -0.83203,-1.63379 -0.74609,-0.85254 -1.74121,-1.55176 -2.71777,-2.12012 l -4.7373,-2.59717 c -1.5293,-0.78222 -3.61915,-1.90918 -5.33301,-2.01758 -1.31348,-0.0137 -2.15332,0.71875 -3.44043,0.96485 -1.15332,0.23535 -3.64746,0.19678 -4.44629,1.31885 -0.80957,0.99218 1.21875,2.78125 1.95312,3.5039 l 2.05469,2.04834 c 0.59082,0.60449 0.76074,0.98291 1.36231,1.7168 0.5791,0.47412 1.69921,1.16211 2.16113,1.77685 0.45801,0.61573 -0.30664,0.81641 0.30957,1.68018 0.47363,0.74561 1.62793,1.69336 1.97266,2.45117 0.18554,0.50879 0.26855,1.28955 0.70019,1.64551 0.41602,0.2251 0.9082,-0.0825 1.29785,-0.11768 0.63574,-0.18798 2.50196,-1.14355 3.06153,-0.79931 0.56054,0.34326 2.4746,2.27344 2.92187,2.75976 0.28711,0.23633 0.87402,0.83985 0.78711,1.24317 0.0713,0.6499 -1.97559,-0.0864 -1.4873,0.78955 0.1582,0.24902 1.41113,0.92431 1.84277,1.28027 l 1.59668,1.43311 1.85449,1.40966 c 0.43164,0.35596 0.9043,1.10108 1.32422,1.32667 0.82129,0.32031 1.24121,-0.63672 1.94922,-0.1753 1.38086,0.66406 2.37207,2.54688 3.81055,3.73096 0.97656,0.56885 1.22167,0.41553 2.04296,0.73633 0.69239,0.33203 1.13965,0.81738 1.84278,1.27978 1.10937,0.55713 1.20019,0.15528 2.49414,1.22168 1.72558,1.4209 3.19433,2.86621 4.67383,4.44141 0.58984,0.60351 2.04296,1.91846 2.7207,2.12012 0.12891,-0.0112 0.25684,-0.0225 0.38965,-0.0347 l 1.4873,-0.79004 c 0,0 0.13281,-0.0127 0.11719,-0.14209 0.0869,-0.40186 0.0303,-0.92236 0.11719,-1.32471 0.0908,-0.40185 0.33691,-0.55517 0.40918,-1.08789 0.0869,-0.40088 0.004,-1.18262 0.37793,-1.34717 0.3789,-0.16552 1.09765,0.42676 1.37011,0.53369 l 0,0 z M 499.3584,189.44482 c -0.0566,-0.5205 -0.2002,-0.63867 -0.38574,-1.14746 -0.77637,-1.11279 -1.63868,-1.82324 -2.86524,-2.23974 -0.40039,-0.0942 -1.61133,-0.38037 -1.83105,0.0332 -0.33301,0.55518 1.07812,1.48047 1.49414,1.70557 0.43164,0.35498 0.98047,0.56884 1.41211,0.9248 0.83593,0.4502 1.2373,0.54541 2.17578,0.72363 l 0,0 z M 448.479,178.5083 c 1.71827,0.10791 2.36524,0.0503 4.00733,0.69043 1.49853,0.52246 2.37646,1.36328 4.09472,1.47217 l -1.92626,-2.06055 1.09765,-0.75488 c -0.57519,-0.47412 -0.83252,-0.45117 -1.39648,-0.79443 -0.2876,-0.23682 -0.31397,-0.49756 -0.60157,-0.73438 -0.26123,0.0239 -0.9121,0.0815 -1.16943,0.10498 -0.76807,0.19971 -1.40039,0.38916 -2.28174,0.73047 -0.76855,0.19971 -1.79004,0.42285 -1.82422,1.34619 l 0,0 z m 7.875,-3.59668 c -0.18945,0.67334 -0.82519,0.86182 -1.43408,1.31006 0.14356,0.11816 0.15869,0.24902 0.30274,0.36719 0.41992,0.22509 2.5542,0.55908 3.08789,0.64306 1.31299,0.0137 1.3584,-0.77832 2.90234,-1.04882 l 1.93359,-0.30469 c 1.81641,-0.16358 4.29883,-0.2544 5.91846,-1.05664 -0.6167,-0.86377 -1.00635,-0.83008 -1.95654,-1.13819 -1.48682,-0.39257 -3.07276,-0.51269 -4.58985,0.0171 -1.40039,0.38868 -1.34375,0.90918 -3.16357,1.07276 l -3.00098,0.13818 0,0 z m -27.58691,222.66113 c -30.33398,-6.47656 6.17041,1.28516 0,0 l 0,0 z"
           inkscape:connector-curvature="0"
           id="path3732"
           style="fill:#ffffff" />
      </g>
    </g>
  </g>
  <g
     id="layer5">
    <rect
       width="66"
       height="66"
       rx="12"
       ry="12"
       x="15"
       y="15"
       clip-path="url(#clipPath3613)"
       id="rect3171"
       style="opacity:0.1;fill:url(#linearGradient3613);fill-opacity:1;fill-rule:nonzero;stroke:#ffffff;stroke-width:0.5;stroke-linecap:round;stroke-linejoin:miter;stroke-miterlimit:4;stroke-opacity:1;stroke-dasharray:none;stroke-dashoffset:0;filter:url(#filter3794)" />
  </g>
</svg>
