<?xml version="1.0" encoding="UTF-8" standalone="no"?>
<svg xmlns="http://www.w3.org/2000/svg" height="96" width="96" version="1.1" xmlns:xlink="http://www.w3.org/1999/xlink">
 <defs>
  <linearGradient id="l">
   <stop stop-color="#b3b3b3" offset="0"/>
   <stop stop-color="#d2d2d2" offset="1"/>
  </linearGradient>
  <linearGradient id="i" stop-color="#fff">
   <stop offset="0"/>
   <stop stop-opacity="0" offset="1"/>
  </linearGradient>
  <linearGradient id="g">
   <stop stop-opacity="0" offset="0"/>
   <stop stop-opacity="0" offset="0.3"/>
   <stop stop-opacity=".11765" offset=".5"/>
   <stop stop-opacity="0" offset="0.7"/>
   <stop stop-opacity="0" offset="1"/>
  </linearGradient>
  <linearGradient id="h" stop-color="#fff">
   <stop stop-opacity="0" offset="0"/>
   <stop stop-opacity="0" offset="0.3"/>
   <stop stop-opacity=".6124" offset=".5"/>
   <stop stop-opacity="0" offset=".75265"/>
   <stop stop-opacity="0" offset="1"/>
  </linearGradient>
  <linearGradient id="k">
   <stop stop-color="#d6d6d6" offset="0"/>
   <stop stop-color="#eaeaea" offset="1"/>
  </linearGradient>
  <linearGradient id="j" y2="7.0165" gradientUnits="userSpaceOnUse" x2="45.448" gradientTransform="matrix(1.0059 0 0 .99417 100 0)" y1="92.54" x1="45.448">
   <stop offset="0"/>
   <stop stop-opacity=".58824" offset="1"/>
  </linearGradient>
  <linearGradient id="am" y2="6" xlink:href="#j" gradientUnits="userSpaceOnUse" x2="32.251" gradientTransform="translate(0,1)" y1="90" x1="32.251"/>
  <radialGradient id="m" xlink:href="#i" gradientUnits="userSpaceOnUse" cy="90.172" cx="48" gradientTransform="matrix(1.1573 0 0 .99591 -7.551 .19713)" r="42"/>
  <linearGradient id="al" y2="63.893" xlink:href="#i" gradientUnits="userSpaceOnUse" x2="36.357" y1="6" x1="36.357"/>
  <linearGradient id="ak" y2="5.9877" gradientUnits="userSpaceOnUse" x2="48" y1="90" x1="48">
   <stop stop-color="#b4b4b4" offset="0"/>
   <stop stop-color="#dcdcdc" offset="1"/>
  </linearGradient>
  <linearGradient id="aj" y2="33" xlink:href="#i" gradientUnits="userSpaceOnUse" x2="44" gradientTransform="matrix(0,-1,1,0,0,98)" y1="33" x1="22"/>
  <linearGradient id="ai" y2="46" xlink:href="#k" gradientUnits="userSpaceOnUse" x2="80" gradientTransform="matrix(0 .36458 -.36458 0 49.104 48.167)" y1="46" x1="16"/>
  <linearGradient id="ah" y2="81.071" xlink:href="#g" gradientUnits="userSpaceOnUse" x2="48" gradientTransform="matrix(-.35714 0 0 .35714 72.143 47.857)" y1="48" x1="6"/>
  <linearGradient id="ag" y2="81.071" xlink:href="#g" gradientUnits="userSpaceOnUse" x2="48" gradientTransform="matrix(.35714 0 0 .35714 15.857 47.857)" y1="48" x1="6"/>
  <linearGradient id="af" y2="84.286" xlink:href="#h" gradientUnits="userSpaceOnUse" x2="48" gradientTransform="matrix(.35714 0 0 -.35714 15.857 82.143)" y1="48" x1="13.321"/>
  <linearGradient id="ae" y2="84.286" xlink:href="#h" gradientUnits="userSpaceOnUse" x2="48" gradientTransform="matrix(-.35714 0 0 -.35714 72.143 82.143)" y1="48" x1="13.321"/>
  <linearGradient id="ad" y2="6" xlink:href="#l" gradientUnits="userSpaceOnUse" x2="32.071" gradientTransform="matrix(.35714 0 0 .35714 15.857 47.857)" y1="90" x1="63.536"/>
  <linearGradient id="ac" y2="33" xlink:href="#i" gradientUnits="userSpaceOnUse" x2="44" gradientTransform="matrix(0,-1,1,0,32,66)" y1="33" x1="22"/>
  <linearGradient id="ab" y2="46" xlink:href="#k" gradientUnits="userSpaceOnUse" x2="80" gradientTransform="matrix(.36458 0 0 .36458 16.167 -81.104)" y1="46" x1="16"/>
  <linearGradient id="aa" y2="81.071" xlink:href="#g" gradientUnits="userSpaceOnUse" x2="48" gradientTransform="matrix(-.35714 0 0 .35714 82.143 15.857)" y1="48" x1="6"/>
  <linearGradient id="z" y2="81.071" xlink:href="#g" gradientUnits="userSpaceOnUse" x2="48" gradientTransform="matrix(.35714 0 0 .35714 47.857 15.857)" y1="48" x1="6"/>
  <linearGradient id="y" y2="84.286" xlink:href="#h" gradientUnits="userSpaceOnUse" x2="48" gradientTransform="matrix(.35714 0 0 -.35714 47.857 50.143)" y1="48" x1="13.321"/>
  <linearGradient id="x" y2="84.286" xlink:href="#h" gradientUnits="userSpaceOnUse" x2="48" gradientTransform="matrix(-.35714 0 0 -.35714 82.143 50.143)" y1="48" x1="13.321"/>
  <linearGradient id="w" y2="6" xlink:href="#l" gradientUnits="userSpaceOnUse" x2="32.071" gradientTransform="matrix(.35714 0 0 .35714 47.857 15.857)" y1="90" x1="63.536"/>
  <linearGradient id="v" y2="33" xlink:href="#i" gradientUnits="userSpaceOnUse" x2="44" gradientTransform="matrix(0,-1,1,0,0,66)" y1="33" x1="22"/>
  <linearGradient id="u" y2="46" xlink:href="#k" gradientUnits="userSpaceOnUse" x2="80" gradientTransform="matrix(.36458 0 0 .36458 16.167 -49.104)" y1="46" x1="16"/>
  <linearGradient id="t" y2="81.071" xlink:href="#g" gradientUnits="userSpaceOnUse" x2="48" gradientTransform="matrix(-.35714 0 0 .35714 50.143 15.857)" y1="48" x1="6"/>
  <linearGradient id="s" y2="81.071" xlink:href="#g" gradientUnits="userSpaceOnUse" x2="48" gradientTransform="matrix(.35714 0 0 .35714 15.857 15.857)" y1="48" x1="6"/>
  <linearGradient id="r" y2="84.286" xlink:href="#h" gradientUnits="userSpaceOnUse" x2="48" gradientTransform="matrix(.35714 0 0 -.35714 15.857 50.143)" y1="48" x1="13.321"/>
  <linearGradient id="q" y2="84.286" xlink:href="#h" gradientUnits="userSpaceOnUse" x2="48" gradientTransform="matrix(-.35714 0 0 -.35714 50.143 50.143)" y1="48" x1="13.321"/>
  <linearGradient id="p" y2="6" xlink:href="#l" gradientUnits="userSpaceOnUse" x2="32.071" gradientTransform="matrix(.35714 0 0 .35714 15.857 15.857)" y1="90" x1="63.536"/>
  <linearGradient id="o" y2="5.9996" xlink:href="#j" gradientUnits="userSpaceOnUse" x2="32.251" gradientTransform="matrix(1.0238 0 0 1.0119 -1.1429 .929)" y1="90" x1="32.251"/>
  <linearGradient id="n" y2="90.239" xlink:href="#j" gradientUnits="userSpaceOnUse" x2="32.251" gradientTransform="matrix(1.0238,0,0,-1.0119,-1.1429,98.071)" y1="6.1317" x1="32.251"/>
 </defs>
 <g fill="url(#n)">
  <path opacity="0.08" d="m12 95.031c-5.5111 0-10.031-4.52-10.031-10.031v-71c0-5.5111 4.5202-10.031 10.031-10.031h72c5.5111 0 10.031 4.5202 10.031 10.031v71c0 5.5111-4.5202 10.031-10.031 10.031h-72z"/>
  <path opacity=".1" d="m12 94.031c-4.9716 0-9.0312-4.0596-9.0312-9.0312v-71c0-4.9718 4.0596-9.0314 9.0312-9.0314h72c4.9716 0 9.0312 4.0596 9.0312 9.0312v71c0 4.9716-4.0596 9.0312-9.0312 9.0312h-72z"/>
  <path opacity=".2" d="m12 93c-4.4091 0-8-3.591-8-8v-71c0-4.4091 3.5909-8 8-8h72c4.4091 0 8 3.5909 8 8v71c0 4.4091-3.5909 8-8 8h-72z"/>
 </g>
 <rect opacity=".3" rx="7" ry="7" height="85" width="86" y="7" x="5" fill="url(#o)"/>
 <rect opacity=".45" rx="6" ry="6" height="84" width="84" y="7" x="6" fill="url(#am)"/>
 <rect rx="6" ry="6" height="84" width="84" y="6" x="6" fill="url(#ak)"/>
 <path opacity=".5" d="m12 6c-3.324 0-6 2.676-6 6v72c0 0.33472 0.04135 0.6507 0.09375 0.96875 0.0487 0.2956 0.09704 0.59692 0.1875 0.875 0.00988 0.03038 0.020892 0.0636 0.03125 0.09375 0.098865 0.28777 0.23488 0.54745 0.375 0.8125 0.14459 0.27351 0.31562 0.53562 0.5 0.78125 0.18438 0.24564 0.37378 0.47347 0.59375 0.6875 0.43995 0.42806 0.94291 0.81453 1.5 1.0938 0.27854 0.13961 0.57347 0.24695 0.875 0.34375-0.2562-0.10022-0.48671-0.23627-0.71875-0.375-0.00741-0.0044-0.023866 0.0045-0.03125 0-0.0319-0.019-0.0622-0.042-0.0937-0.062-0.1204-0.077-0.231-0.164-0.3437-0.25-0.1062-0.081-0.2133-0.161-0.3126-0.25-0.1778-0.162-0.3473-0.346-0.4999-0.531-0.1075-0.131-0.2183-0.266-0.3124-0.407-0.0251-0.038-0.0385-0.086-0.0626-0.125-0.0647-0.103-0.1302-0.204-0.1874-0.312-0.1011-0.195-0.2057-0.416-0.2813-0.625-0.008-0.022-0.0236-0.041-0.0313-0.063-0.0318-0.092-0.0358-0.187-0.0624-0.281-0.0304-0.107-0.0704-0.203-0.0938-0.313-0.0729-0.341-0.125-0.698-0.125-1.062v-72c0-2.782 2.2182-5 5-5h72c2.7818 0 5 2.2182 5 5v72c0 0.3643-0.05212 0.72099-0.125 1.0625-0.04415 0.20689-0.08838 0.39766-0.15625 0.59375-0.0077 0.02195-0.0233 0.04069-0.03125 0.0625-0.06274 0.17374-0.13838 0.36745-0.21875 0.53125-0.04158 0.0828-0.07904 0.16995-0.125 0.25-0.0546 0.09721-0.12677 0.18835-0.1875 0.28125-0.09411 0.14096-0.20492 0.276-0.3125 0.40625-0.14317 0.17445-0.30314 0.347-0.46875 0.5-0.01117 0.0102-0.01998 0.02115-0.03125 0.03125-0.13839 0.12556-0.28509 0.23444-0.4375 0.34375-0.10257 0.07315-0.20432 0.15336-0.3125 0.21875-0.0074 0.0045-0.02384-0.0044-0.03125 0-0.23204 0.13873-0.46255 0.27478-0.71875 0.375 0.30153-0.0968 0.59646-0.20414 0.875-0.34375 0.55709-0.27922 1.0601-0.66569 1.5-1.0938 0.21997-0.21403 0.40937-0.44186 0.59375-0.6875s0.35541-0.50774 0.5-0.78125c0.14012-0.26505 0.27614-0.52473 0.375-0.8125 0.01041-0.03078 0.02133-0.06274 0.03125-0.09375 0.09046-0.27808 0.1388-0.5794 0.1875-0.875 0.053-0.318 0.094-0.634 0.094-0.969v-72c0-3.324-2.676-6-6-6h-72z" fill="url(#al)"/>
 <path opacity=".3" d="m12 90c-3.324 0-6-2.676-6-6v-72c0-0.33472 0.04135-0.6507 0.09375-0.96875 0.0487-0.2956 0.09704-0.59692 0.1875-0.875 0.0099-0.03 0.0209-0.063 0.0313-0.094 0.0989-0.2873 0.2349-0.547 0.375-0.812 0.1446-0.2735 0.3156-0.5356 0.5-0.7812 0.1844-0.2457 0.3738-0.4735 0.5937-0.6876 0.44-0.428 0.943-0.8145 1.5-1.0937 0.2786-0.1396 0.5735-0.2469 0.8748-0.3437-0.256 0.1002-0.4865 0.2362-0.7185 0.375-0.00741 0.0044-0.023866-0.0045-0.03125 0-0.031933 0.0193-0.062293 0.04251-0.09375 0.0625-0.1204 0.0767-0.23102 0.16351-0.34375 0.25-0.10617 0.0808-0.21328 0.16111-0.3125 0.25-0.1779 0.1614-0.3474 0.3453-0.5 0.5312-0.1075 0.1303-0.2183 0.2653-0.3124 0.4063-0.0251 0.0383-0.0385 0.0858-0.0626 0.125-0.0647 0.103-0.1302 0.2045-0.1874 0.3124-0.1011 0.1948-0.2057 0.4158-0.2813 0.625-0.008 0.0219-0.0236 0.0406-0.0313 0.0626-0.0318 0.0919-0.0358 0.1868-0.0624 0.2812-0.0304 0.1066-0.0704 0.203-0.0938 0.3125-0.0729 0.3415-0.125 0.6985-0.125 1.0625v72c0 2.7818 2.2182 5 5 5h72c2.7818 0 5-2.2182 5-5v-72c0-0.364-0.052-0.721-0.125-1.0625-0.044-0.2069-0.088-0.3977-0.156-0.5937-0.008-0.022-0.024-0.0407-0.031-0.0626-0.063-0.1737-0.139-0.3674-0.219-0.5312-0.042-0.0828-0.079-0.17-0.125-0.25-0.055-0.0972-0.127-0.1884-0.188-0.2812-0.094-0.141-0.205-0.276-0.312-0.4063-0.143-0.1745-0.303-0.347-0.469-0.5-0.011-0.0102-0.02-0.0211-0.031-0.0313-0.139-0.1255-0.285-0.2344-0.438-0.3437-0.102-0.0731-0.204-0.1534-0.312-0.2187-0.0074-0.0045-0.02384 0.0044-0.03125 0-0.23204-0.13873-0.46255-0.27478-0.71875-0.375 0.30153 0.0968 0.59646 0.20414 0.875 0.34375 0.55709 0.27922 1.0601 0.66569 1.5 1.0938 0.21997 0.21403 0.40937 0.44186 0.59375 0.6875s0.35541 0.50774 0.5 0.78125c0.14012 0.26505 0.27614 0.52473 0.375 0.8125 0.01041 0.03078 0.02133 0.06274 0.03125 0.09375 0.09046 0.27808 0.1388 0.5794 0.1875 0.875 0.053 0.318 0.094 0.634 0.094 0.969v72c0 3.324-2.676 6-6 6h-72z" fill="url(#m)"/>
 <path opacity=".7" style="color:#000000" d="m19 16c-1.662 0-3 1.338-3 3v60c0 1.662 1.338 3 3 3h50c1.662 0 3-1.338 3-3v-29h7c1.662 0 3-1.338 3-3v-28c0-1.662-1.338-3-3-3h-60z"/>
 <rect rx="2.1429" ry="2.1429" height="30" width="30" y="18" x="18" fill="url(#p)"/>
 <path d="m48 33v-12.857c0-1.187-0.956-2.143-2.143-2.143h-12.857v15h15z" fill="url(#q)"/>
 <path d="m18 33v-12.857c0-1.187 0.956-2.143 2.143-2.143h12.857v15h-15z" fill="url(#r)"/>
 <path d="m18 33v12.857c0 1.187 0.956 2.143 2.143 2.143h12.857v-15h-15z" fill="url(#s)"/>
 <path d="m48 33v12.857c0 1.187-0.956 2.143-2.143 2.143h-12.857v-15h15z" fill="url(#t)"/>
 <rect transform="rotate(90)" rx="2.12" ry="2.12" height="22" width="22" y="-44" x="22" fill="url(#u)"/>
 <path d="m36.939 38.735-1.3102-3.3529h-5.2248l-1.3184 3.3529h-1.6114l4.6794-11.467h1.766l4.6063 11.467h-1.5869m-3.2471-8.3498c-0.08682-0.217-0.1709-0.43674-0.25229-0.6592-0.07597-0.22244-0.14379-0.42318-0.20345-0.60223-0.05968-0.18445-0.11124-0.33637-0.15462-0.45574-0.03798-0.12477-0.05969-0.20074-0.0651-0.22787-0.01083 0.02713-0.03527 0.1031-0.07325 0.22787-0.03798 0.1248-0.08952 0.27942-0.15462 0.46388-0.05968 0.18447-0.13022 0.38792-0.21159 0.61036-0.07597 0.22245-0.15464 0.44218-0.236 0.6592l-1.4649 3.7679h4.2888l-1.473-3.784" fill="#333"/>
 <path opacity=".8" d="m22 41.875c0 1.175 0.95 2.125 2.125 2.125h17.75c1.175 0 2.125-0.95 2.125-2.125v-17.75c0-1.175-0.95-2.125-2.125-2.125h-17.75c-1.175 0-2.125 0.95-2.125 2.125v17.75zm2.0312 0.09375c-0.01281-0.0128 0-0.05119 0-0.09375v-17.75c0-0.08512 0.0087-0.09375 0.09375-0.09375h17.75c0.08503 0 0.09375 0.0086 0.09375 0.09375v17.75c0 0.08512-0.0087 0.09375-0.09375 0.09375h-17.75c-0.04251 0-0.08094 0.0128-0.09375 0z" fill="url(#v)"/>
 <path opacity=".2" d="m20.156 17c-1.726 0-3.156 1.43-3.156 3.156v25.688c0 1.726 1.43 3.156 3.156 3.156h25.688c1.726 0 3.156-1.43 3.156-3.156v-25.688c0-1.726-1.43-3.156-3.156-3.156h-25.688zm0 1h25.688c1.187 0 2.156 0.969 2.156 2.156v25.688c0 1.187-0.969 2.156-2.156 2.156h-25.688c-1.187 0-2.156-0.969-2.156-2.156v-25.688c0-1.187 0.969-2.156 2.156-2.156z" fill="#fff"/>
 <rect rx="2.1429" ry="2.1429" height="30" width="30" y="18" x="50" fill="url(#w)"/>
 <path d="m80 33v-12.857c0-1.187-0.956-2.143-2.143-2.143h-12.857v15h15z" fill="url(#x)"/>
 <path d="m50 33v-12.857c0-1.187 0.956-2.143 2.143-2.143h12.857v15h-15z" fill="url(#y)"/>
 <path d="m50 33v12.857c0 1.187 0.956 2.143 2.143 2.143h12.857v-15h-15z" fill="url(#z)"/>
 <path d="m80 33v12.857c0 1.187-0.956 2.143-2.143 2.143h-12.857v-15h15z" fill="url(#aa)"/>
 <rect transform="rotate(90)" rx="2.12" ry="2.12" height="22" width="22" y="-76" x="22" fill="url(#ab)"/>
 <path opacity=".8" d="m54 41.875c0 1.175 0.95 2.125 2.125 2.125h17.75c1.175 0 2.125-0.95 2.125-2.125v-17.75c0-1.175-0.95-2.125-2.125-2.125h-17.75c-1.175 0-2.125 0.95-2.125 2.125v17.75zm2.0312 0.09375c-0.01281-0.0128 0-0.05119 0-0.09375v-17.75c0-0.08512 0.0087-0.09375 0.09375-0.09375h17.75c0.08503 0 0.09375 0.0086 0.09375 0.09375v17.75c0 0.08512-0.0087 0.09375-0.09375 0.09375h-17.75c-0.04251 0-0.08094 0.0128-0.09375 0z" fill="url(#ac)"/>
 <path opacity=".2" d="m52.156 17c-1.726 0-3.156 1.43-3.156 3.156v25.688c0 1.726 1.43 3.156 3.156 3.156h25.688c1.726 0 3.156-1.43 3.156-3.156v-25.688c0-1.726-1.43-3.156-3.156-3.156h-25.688zm0 1h25.688c1.187 0 2.156 0.969 2.156 2.156v25.688c0 1.187-0.969 2.156-2.156 2.156h-25.688c-1.187 0-2.156-0.969-2.156-2.156v-25.688c0-1.187 0.969-2.156 2.156-2.156z" fill="#f00"/>
 <path d="m20.143 50h47.714c1.187 0 2.143 0.956 2.143 2.143v25.714c0 1.187-0.956 2.143-2.143 2.143h-47.714c-1.187 0-2.143-0.956-2.143-2.143v-25.714c0-1.187 0.956-2.143 2.143-2.143z" fill="url(#ad)"/>
 <path d="m70 65v-12.857c0-1.187-0.956-2.143-2.143-2.143h-12.857v15h15z" fill="url(#ae)"/>
 <path d="m18 65v-12.857c0-1.187 0.956-2.143 2.143-2.143h12.857v15h-15z" fill="url(#af)"/>
 <path d="m18 65v12.857c0 1.187 0.956 2.143 2.143 2.143h12.857v-15h-15z" fill="url(#ag)"/>
 <path d="m70 65v12.857c0 1.187-0.956 2.143-2.143 2.143h-12.857v-15h15z" fill="url(#ah)"/>
 <path d="m66 56.121v17.758c0 1.175-0.946 2.121-2.121 2.121h-39.758c-1.175 0-2.121-0.946-2.121-2.121v-17.758c0-1.175 0.946-2.121 2.121-2.121h39.758c1.175 0 2.121 0.946 2.121 2.121z" fill="url(#ai)"/>
 <path opacity=".8" d="m22 73.875c0 1.175 0.95 2.125 2.125 2.125h39.75c1.175 0 2.125-0.95 2.125-2.125v-17.75c0-1.175-0.95-2.125-2.125-2.125h-39.75c-1.175 0-2.125 0.95-2.125 2.125v17.75zm2.0312 0.09375c-0.01281-0.0128 0-0.05119 0-0.09375v-17.75c0-0.08512 0.0087-0.09375 0.09375-0.09375h39.75c0.08503 0 0.09375 0.0086 0.09375 0.09375v17.75c0 0.08512-0.0087 0.09375-0.09375 0.09375h-39.75c-0.04251 0-0.08094 0.0128-0.09375 0z" fill="url(#aj)"/>
 <path opacity=".2" d="m20.156 49c-1.726 0-3.156 1.43-3.156 3.156v25.688c0 1.726 1.43 3.156 3.156 3.156h47.688c1.726 0 3.156-1.43 3.156-3.156v-25.688c0-1.726-1.43-3.156-3.156-3.156h-47.688zm0 1h47.688c1.187 0 2.156 0.969 2.156 2.156v25.688c0 1.187-0.969 2.156-2.156 2.156h-47.688c-1.187 0-2.156-0.969-2.156-2.156v-25.688c0-1.187 0.969-2.156 2.156-2.156z" fill="#f00"/>
 <g fill="#333">
  <path d="m69.561 38.729h-9.125v-1.163l6.9784-9.0279h-6.3846v-1.2688h8.1496v1.1305l-6.9784 9.0606h7.3606v1.2688"/>
  <path d="m33.018 60.87c-0.60958 0.000009-1.1506 0.1016-1.6229 0.30478-0.46734 0.20319-0.86102 0.49274-1.181 0.86864-0.31494 0.37591-0.5537 0.828-0.71624 1.3563-0.16256 0.52831-0.24383 1.115-0.24383 1.7601-0.000003 0.64514 0.08636 1.2369 0.25907 1.7754 0.17779 0.53338 0.42923 0.9931 0.75435 1.3792 0.33019 0.38607 0.73148 0.68578 1.2039 0.89911 0.4775 0.21335 1.0134 0.32003 1.6078 0.32003 0.41653 0.000001 0.79498-0.05334 1.1353-0.16001 0.34542-0.11175 0.65528-0.26669 0.92959-0.4648 0.27938-0.1981 0.52829-0.43178 0.74673-0.70101 0.21842-0.2743 0.41146-0.57654 0.57909-0.90674l1.1887 0.59433c-0.19303 0.4013-0.43179 0.77466-0.71624 1.1201-0.28448 0.34543-0.61974 0.64513-1.0058 0.89911-0.381 0.25399-0.81531 0.45464-1.303 0.60195-0.48258 0.14224-1.0236 0.21335-1.6229 0.21335-0.86864 0-1.6306-0.13715-2.2858-0.41146-0.65021-0.27939-1.1963-0.66544-1.6382-1.1582-0.43686-0.49782-0.7645-1.0871-0.98293-1.7677-0.21842-0.68069-0.32764-1.4249-0.32764-2.2326 0-0.83814 0.11429-1.595 0.34289-2.2707 0.23367-0.6756 0.57147-1.2496 1.0134-1.722 0.44702-0.47748 0.99563-0.84323 1.6459-1.0972 0.6502-0.25906 1.3918-0.3886 2.225-0.3886 1.1429 0.000011 2.0979 0.22353 2.8649 0.67053 0.76703 0.44702 1.3309 1.1099 1.6916 1.9887l-1.3792 0.45718c-0.1016-0.25399-0.23876-0.49527-0.41146-0.72387-0.17272-0.23365-0.38861-0.43939-0.64767-0.61719-0.25907-0.17779-0.56386-0.32001-0.91436-0.4267-0.34543-0.10666-0.74164-0.16-1.1887-0.16001"/>
  <path d="m42.481 70.516c-0.20828 0.05588-0.42162 0.09906-0.64006 0.12954-0.21335 0.03556-0.46227 0.05334-0.74673 0.05334-1.0972 0-1.6459-0.62226-1.6459-1.8668v-5.501h-0.952v-0.99817h1.0058l0.40384-1.8439h0.91436v1.8439h1.5239v0.998h-1.524v5.2043c-0.000001 0.39623 0.0635 0.6756 0.19049 0.83816 0.13206 0.15747 0.35812 0.23621 0.67815 0.23621 0.13206 0 0.25906-0.01014 0.38098-0.03048 0.12699-0.02032 0.26415-0.04572 0.41146-0.0762v1.0134"/>
  <path d="m43.67 70.577v-6.3242c-0.000002-0.1727-0.0025-0.34796-0.0076-0.52575 0-0.18286-0.0025-0.35812-0.0076-0.52575-0.0052-0.16763-0.01014-0.3251-0.01529-0.47241-0.0052-0.14731-0.01014-0.27938-0.01529-0.39623h1.2953c0.0051 0.11685 0.01014 0.25146 0.01529 0.40384 0.01014 0.14733 0.01777 0.29971 0.02286 0.45718 0.01014 0.15749 0.01529 0.30987 0.01529 0.45718 0.0051 0.14224 0.0076 0.26416 0.0076 0.36575h0.03048c0.09652-0.31494 0.1981-0.5867 0.30478-0.8153 0.11175-0.23365 0.24128-0.42414 0.3886-0.57147 0.14731-0.15238 0.32256-0.26413 0.52575-0.33526 0.20319-0.07618 0.44955-0.11429 0.7391-0.11429 0.11175 0.000009 0.21842 0.01014 0.32003 0.03048 0.10159 0.01529 0.18033 0.03049 0.23621 0.04572v1.2572c-0.09145-0.02539-0.19812-0.04316-0.32003-0.05334-0.12192-0.01529-0.25907-0.02284-0.41146-0.02286-0.31494 0.000008-0.58417 0.07113-0.80768 0.21335-0.21844 0.14224-0.39877 0.34034-0.54099 0.59433-0.13715 0.24892-0.23876 0.54862-0.30478 0.89911-0.06604 0.34543-0.09906 0.72387-0.09906 1.1353v4.2975h-1.37"/>
  <path d="m48.851 70.577v-11.308h1.3715v11.308h-1.3715"/>
 </g>
 <path opacity=".6" style="color:#000000" d="m82 47c0 1.662-1.338 3-3 3h-7v1h7c1.662 0 3-1.338 3-3v-1zm-66 32v1c0 1.662 1.338 3 3 3h50c1.662 0 3-1.338 3-3v-1c0 1.662-1.338 3-3 3h-50c-1.662 0-3-1.338-3-3z" fill="#fff"/>
 <g fill="#f00">
  <path opacity=".3" d="m52.156 18c-1.187 0-2.156 0.969-2.156 2.156v25.688c0 1.187 0.969 2.156 2.156 2.156h25.688c1.187 0 2.156-0.969 2.156-2.156v-25.688c0-1.187-0.969-2.156-2.156-2.156h-25.688zm0 1.9688h25.688c0.10851 0 0.1875 0.07898 0.1875 0.1875v25.688c0 0.10852-0.079 0.1875-0.1875 0.1875h-25.688c-0.10851 0-0.1875-0.07898-0.1875-0.1875v-25.688c0-0.10852 0.079-0.1875 0.1875-0.1875z"/>
  <path opacity=".8" d="m52.156 18c-1.187 0-2.156 0.969-2.156 2.156v25.688c0 1.187 0.969 2.156 2.156 2.156h25.688c1.187 0 2.156-0.969 2.156-2.156v-25.688c0-1.187-0.969-2.156-2.156-2.156h-25.688zm0 0.9375h25.688c0.67346 0 1.2188 0.54529 1.2188 1.2188v25.688c0 0.67346-0.54529 1.2188-1.2188 1.2188h-25.688c-0.67346 0-1.2188-0.54529-1.2188-1.2188v-25.688c0-0.67346 0.54529-1.2188 1.2188-1.2188z"/>
  <path opacity=".3" d="m20.156 50c-1.187 0-2.156 0.969-2.156 2.156v25.688c0 1.187 0.969 2.156 2.156 2.156h47.688c1.187 0 2.156-0.969 2.156-2.156v-25.688c0-1.187-0.969-2.156-2.156-2.156h-47.688zm0 1.9688h47.688c0.10851 0 0.1875 0.07898 0.1875 0.1875v25.688c0 0.10852-0.079 0.1875-0.1875 0.1875h-47.688c-0.10851 0-0.1875-0.07898-0.1875-0.1875v-25.688c0-0.10852 0.079-0.1875 0.1875-0.1875z"/>
  <path opacity=".8" d="m20.156 50c-1.187 0-2.156 0.969-2.156 2.156v25.688c0 1.187 0.969 2.156 2.156 2.156h47.688c1.187 0 2.156-0.969 2.156-2.156v-25.688c0-1.187-0.969-2.156-2.156-2.156h-47.688zm0 0.9375h47.688c0.67346 0 1.2188 0.54529 1.2188 1.2188v25.688c0 0.67346-0.54529 1.2188-1.2188 1.2188h-47.688c-0.67346 0-1.2188-0.54529-1.2188-1.2188v-25.688c0-0.67346 0.54529-1.2188 1.2188-1.2188z"/>
 </g>
</svg>
