<?xml version="1.0" encoding="UTF-8" standalone="no"?>
<svg xmlns="http://www.w3.org/2000/svg" height="96" width="96" version="1.1" xmlns:xlink="http://www.w3.org/1999/xlink">
 <defs>
  <linearGradient id="r">
   <stop stop-color="#b3b3b3" offset="0"/>
   <stop stop-color="#d2d2d2" offset="1"/>
  </linearGradient>
  <linearGradient id="o" stop-color="#fff">
   <stop offset="0"/>
   <stop stop-opacity="0" offset="1"/>
  </linearGradient>
  <linearGradient id="m">
   <stop stop-opacity="0" offset="0"/>
   <stop stop-opacity="0" offset="0.3"/>
   <stop stop-opacity=".11765" offset=".5"/>
   <stop stop-opacity="0" offset="0.7"/>
   <stop stop-opacity="0" offset="1"/>
  </linearGradient>
  <linearGradient id="n" stop-color="#fff">
   <stop stop-opacity="0" offset="0"/>
   <stop stop-opacity="0" offset="0.3"/>
   <stop stop-opacity=".6124" offset=".5"/>
   <stop stop-opacity="0" offset=".75265"/>
   <stop stop-opacity="0" offset="1"/>
  </linearGradient>
  <linearGradient id="q">
   <stop stop-color="#d6d6d6" offset="0"/>
   <stop stop-color="#eaeaea" offset="1"/>
  </linearGradient>
  <linearGradient id="p" y2="7.0165" gradientUnits="userSpaceOnUse" x2="45.448" gradientTransform="matrix(1.0059 0 0 .99417 100 0)" y1="92.54" x1="45.448">
   <stop offset="0"/>
   <stop stop-opacity=".58824" offset="1"/>
  </linearGradient>
  <linearGradient id="be" y2="6" xlink:href="#p" gradientUnits="userSpaceOnUse" x2="32.251" gradientTransform="translate(0,1)" y1="90" x1="32.251"/>
  <radialGradient id="bf" xlink:href="#o" gradientUnits="userSpaceOnUse" cy="90.172" cx="48" gradientTransform="matrix(1.1573 0 0 .99591 -7.551 .19713)" r="42"/>
  <linearGradient id="bd" y2="63.893" xlink:href="#o" gradientUnits="userSpaceOnUse" x2="36.357" y1="6" x1="36.357"/>
  <linearGradient id="bc" y2="5.9877" gradientUnits="userSpaceOnUse" x2="48" y1="90" x1="48">
   <stop stop-color="#b4b4b4" offset="0"/>
   <stop stop-color="#dcdcdc" offset="1"/>
  </linearGradient>
  <linearGradient id="bb" y2="33" xlink:href="#o" gradientUnits="userSpaceOnUse" x2="44" gradientTransform="matrix(0,-1,1,0,0,98)" y1="33" x1="22"/>
  <linearGradient id="ba" y2="46" xlink:href="#q" gradientUnits="userSpaceOnUse" x2="80" gradientTransform="matrix(0 .36458 -.36458 0 49.104 48.167)" y1="46" x1="16"/>
  <linearGradient id="az" y2="81.071" xlink:href="#m" gradientUnits="userSpaceOnUse" x2="48" gradientTransform="matrix(-.35714 0 0 .35714 72.143 47.857)" y1="48" x1="6"/>
  <linearGradient id="ay" y2="81.071" xlink:href="#m" gradientUnits="userSpaceOnUse" x2="48" gradientTransform="matrix(.35714 0 0 .35714 15.857 47.857)" y1="48" x1="6"/>
  <linearGradient id="ax" y2="84.286" xlink:href="#n" gradientUnits="userSpaceOnUse" x2="48" gradientTransform="matrix(.35714 0 0 -.35714 15.857 82.143)" y1="48" x1="13.321"/>
  <linearGradient id="am" y2="84.286" xlink:href="#n" gradientUnits="userSpaceOnUse" x2="48" gradientTransform="matrix(-.35714 0 0 -.35714 72.143 82.143)" y1="48" x1="13.321"/>
  <linearGradient id="al" y2="6" xlink:href="#r" gradientUnits="userSpaceOnUse" x2="32.071" gradientTransform="matrix(.35714 0 0 .35714 15.857 47.857)" y1="90" x1="63.536"/>
  <linearGradient id="ak" y2="33" xlink:href="#o" gradientUnits="userSpaceOnUse" x2="44" gradientTransform="matrix(0,-1,1,0,32,66)" y1="33" x1="22"/>
  <linearGradient id="aj" y2="46" xlink:href="#q" gradientUnits="userSpaceOnUse" x2="80" gradientTransform="matrix(.36458 0 0 .36458 16.167 -81.104)" y1="46" x1="16"/>
  <linearGradient id="ai" y2="81.071" xlink:href="#m" gradientUnits="userSpaceOnUse" x2="48" gradientTransform="matrix(-.35714 0 0 .35714 82.143 15.857)" y1="48" x1="6"/>
  <linearGradient id="ah" y2="81.071" xlink:href="#m" gradientUnits="userSpaceOnUse" x2="48" gradientTransform="matrix(.35714 0 0 .35714 47.857 15.857)" y1="48" x1="6"/>
  <linearGradient id="ag" y2="84.286" xlink:href="#n" gradientUnits="userSpaceOnUse" x2="48" gradientTransform="matrix(.35714 0 0 -.35714 47.857 50.143)" y1="48" x1="13.321"/>
  <linearGradient id="af" y2="84.286" xlink:href="#n" gradientUnits="userSpaceOnUse" x2="48" gradientTransform="matrix(-.35714 0 0 -.35714 82.143 50.143)" y1="48" x1="13.321"/>
  <linearGradient id="ae" y2="6" xlink:href="#r" gradientUnits="userSpaceOnUse" x2="32.071" gradientTransform="matrix(.35714 0 0 .35714 47.857 15.857)" y1="90" x1="63.536"/>
  <linearGradient id="ad" y2="33" xlink:href="#o" gradientUnits="userSpaceOnUse" x2="44" gradientTransform="matrix(0,-1,1,0,0,66)" y1="33" x1="22"/>
  <linearGradient id="ac" y2="46" xlink:href="#q" gradientUnits="userSpaceOnUse" x2="80" gradientTransform="matrix(.36458 0 0 .36458 16.167 -49.104)" y1="46" x1="16"/>
  <linearGradient id="ab" y2="81.071" xlink:href="#m" gradientUnits="userSpaceOnUse" x2="48" gradientTransform="matrix(-.35714 0 0 .35714 50.143 15.857)" y1="48" x1="6"/>
  <linearGradient id="aa" y2="81.071" xlink:href="#m" gradientUnits="userSpaceOnUse" x2="48" gradientTransform="matrix(.35714 0 0 .35714 15.857 15.857)" y1="48" x1="6"/>
  <linearGradient id="z" y2="84.286" xlink:href="#n" gradientUnits="userSpaceOnUse" x2="48" gradientTransform="matrix(.35714 0 0 -.35714 15.857 50.143)" y1="48" x1="13.321"/>
  <linearGradient id="y" y2="84.286" xlink:href="#n" gradientUnits="userSpaceOnUse" x2="48" gradientTransform="matrix(-.35714 0 0 -.35714 50.143 50.143)" y1="48" x1="13.321"/>
  <linearGradient id="t" y2="6" xlink:href="#r" gradientUnits="userSpaceOnUse" x2="32.071" gradientTransform="matrix(.35714 0 0 .35714 15.857 15.857)" y1="90" x1="63.536"/>
  <linearGradient id="s" y2="5.9996" xlink:href="#p" gradientUnits="userSpaceOnUse" x2="32.251" gradientTransform="matrix(1.0238 0 0 1.0119 -1.1429 .929)" y1="90" x1="32.251"/>
  <linearGradient id="bg" y2="90.239" xlink:href="#p" gradientUnits="userSpaceOnUse" x2="32.251" gradientTransform="matrix(1.0238,0,0,-1.0119,-1.1429,98.071)" y1="6.1317" x1="32.251"/>
 </defs>
 <g fill="url(#bg)">
  <path opacity="0.08" d="m12 95.031c-5.5111 0-10.031-4.52-10.031-10.031v-71c0-5.5111 4.5202-10.031 10.031-10.031h72c5.5111 0 10.031 4.5202 10.031 10.031v71c0 5.5111-4.5202 10.031-10.031 10.031h-72z"/>
  <path opacity=".1" d="m12 94.031c-4.9716 0-9.0312-4.0596-9.0312-9.0312v-71c0-4.9722 4.0596-9.0318 9.0312-9.0318h72c4.9716 0 9.0312 4.0596 9.0312 9.0312v71c0 4.9716-4.0596 9.0312-9.0312 9.0312h-72z"/>
  <path opacity=".2" d="m12 93c-4.4091 0-8-3.591-8-8v-71c0-4.4091 3.5909-8 8-8h72c4.4091 0 8 3.5909 8 8v71c0 4.4091-3.5909 8-8 8h-72z"/>
 </g>
 <rect opacity=".3" rx="7" ry="7" height="85" width="86" y="7" x="5" fill="url(#s)"/>
 <rect opacity=".45" rx="6" ry="6" height="84" width="84" y="7" x="6" fill="url(#be)"/>
 <rect rx="6" ry="6" height="84" width="84" y="6" x="6" fill="url(#bc)"/>
 <path opacity=".5" d="m12 6c-3.324 0-6 2.676-6 6v72c0 0.33472 0.04135 0.6507 0.09375 0.96875 0.0487 0.2956 0.09704 0.59692 0.1875 0.875 0.00988 0.03038 0.020892 0.0636 0.03125 0.09375 0.098865 0.28777 0.23488 0.54745 0.375 0.8125 0.14459 0.27351 0.31562 0.53562 0.5 0.78125 0.18438 0.24564 0.37378 0.47347 0.59375 0.6875 0.43995 0.42806 0.94291 0.81453 1.5 1.0938 0.27854 0.13961 0.57347 0.24695 0.875 0.34375-0.2562-0.10022-0.48671-0.23627-0.71875-0.375-0.00741-0.0044-0.023866 0.0045-0.03125 0-0.0319-0.019-0.0622-0.042-0.0937-0.062-0.1204-0.077-0.231-0.164-0.3437-0.25-0.1062-0.081-0.2133-0.161-0.3126-0.25-0.1778-0.162-0.3473-0.346-0.4999-0.531-0.1075-0.131-0.2183-0.266-0.3124-0.407-0.0251-0.038-0.0385-0.086-0.0626-0.125-0.0647-0.103-0.1302-0.204-0.1874-0.312-0.1011-0.195-0.2057-0.416-0.2813-0.625-0.008-0.022-0.0236-0.041-0.0313-0.063-0.0318-0.092-0.0358-0.187-0.0624-0.281-0.0304-0.107-0.0704-0.203-0.0938-0.313-0.0729-0.341-0.125-0.698-0.125-1.062v-72c0-2.782 2.2182-5 5-5h72c2.7818 0 5 2.2182 5 5v72c0 0.3643-0.05212 0.72099-0.125 1.0625-0.04415 0.20689-0.08838 0.39766-0.15625 0.59375-0.0077 0.02195-0.0233 0.04069-0.03125 0.0625-0.06274 0.17374-0.13838 0.36745-0.21875 0.53125-0.04158 0.0828-0.07904 0.16995-0.125 0.25-0.0546 0.09721-0.12677 0.18835-0.1875 0.28125-0.09411 0.14096-0.20492 0.276-0.3125 0.40625-0.14317 0.17445-0.30314 0.347-0.46875 0.5-0.01117 0.0102-0.01998 0.02115-0.03125 0.03125-0.13839 0.12556-0.28509 0.23444-0.4375 0.34375-0.10257 0.07315-0.20432 0.15336-0.3125 0.21875-0.0074 0.0045-0.02384-0.0044-0.03125 0-0.23204 0.13873-0.46255 0.27478-0.71875 0.375 0.30153-0.0968 0.59646-0.20414 0.875-0.34375 0.55709-0.27922 1.0601-0.66569 1.5-1.0938 0.21997-0.21403 0.40937-0.44186 0.59375-0.6875s0.35541-0.50774 0.5-0.78125c0.14012-0.26505 0.27614-0.52473 0.375-0.8125 0.01041-0.03078 0.02133-0.06274 0.03125-0.09375 0.09046-0.27808 0.1388-0.5794 0.1875-0.875 0.053-0.318 0.094-0.634 0.094-0.969v-72c0-3.324-2.676-6-6-6h-72z" fill="url(#bd)"/>
 <path opacity=".3" d="m12 90c-3.324 0-6-2.676-6-6v-72c0-0.33472 0.04135-0.6507 0.09375-0.96875 0.0487-0.2956 0.09704-0.59692 0.1875-0.875 0.0099-0.03 0.0209-0.063 0.0313-0.094 0.0989-0.2873 0.2349-0.547 0.375-0.812 0.1446-0.2735 0.3156-0.5356 0.5-0.7812 0.1844-0.2457 0.3738-0.4735 0.5937-0.6876 0.44-0.428 0.943-0.8145 1.5-1.0937 0.2786-0.1396 0.5735-0.2469 0.8748-0.3437-0.256 0.1002-0.4865 0.2362-0.7185 0.375-0.00741 0.0044-0.023866-0.0045-0.03125 0-0.031933 0.0193-0.062293 0.04251-0.09375 0.0625-0.1204 0.0767-0.23102 0.16351-0.34375 0.25-0.10617 0.0808-0.21328 0.16111-0.3125 0.25-0.1779 0.1614-0.3474 0.3453-0.5 0.5312-0.1075 0.1303-0.2183 0.2653-0.3124 0.4063-0.0251 0.0383-0.0385 0.0858-0.0626 0.125-0.0647 0.103-0.1302 0.2045-0.1874 0.3124-0.1011 0.1948-0.2057 0.4158-0.2813 0.625-0.008 0.0219-0.0236 0.0406-0.0313 0.0626-0.0318 0.0919-0.0358 0.1868-0.0624 0.2812-0.0304 0.1066-0.0704 0.203-0.0938 0.3125-0.0729 0.3415-0.125 0.6985-0.125 1.0625v72c0 2.7818 2.2182 5 5 5h72c2.7818 0 5-2.2182 5-5v-72c0-0.364-0.052-0.721-0.125-1.0625-0.044-0.2069-0.088-0.3977-0.156-0.5937-0.008-0.022-0.024-0.0407-0.031-0.0626-0.063-0.1737-0.139-0.3674-0.219-0.5312-0.042-0.0828-0.079-0.17-0.125-0.25-0.055-0.0972-0.127-0.1884-0.188-0.2812-0.094-0.141-0.205-0.276-0.312-0.4063-0.143-0.1745-0.303-0.347-0.469-0.5-0.011-0.0102-0.02-0.0211-0.031-0.0313-0.139-0.1255-0.285-0.2344-0.438-0.3437-0.102-0.0731-0.204-0.1534-0.312-0.2187-0.0074-0.0045-0.02384 0.0044-0.03125 0-0.23204-0.13873-0.46255-0.27478-0.71875-0.375 0.30153 0.0968 0.59646 0.20414 0.875 0.34375 0.55709 0.27922 1.0601 0.66569 1.5 1.0938 0.21997 0.21403 0.40937 0.44186 0.59375 0.6875s0.35541 0.50774 0.5 0.78125c0.14012 0.26505 0.27614 0.52473 0.375 0.8125 0.01041 0.03078 0.02133 0.06274 0.03125 0.09375 0.09046 0.27808 0.1388 0.5794 0.1875 0.875 0.053 0.318 0.094 0.634 0.094 0.969v72c0 3.324-2.676 6-6 6h-72z" fill="url(#bf)"/>
 <path opacity=".7" style="color:#000000" d="m19 16c-1.662 0-3 1.338-3 3v60c0 1.662 1.338 3 3 3h50c1.662 0 3-1.338 3-3v-29h7c1.662 0 3-1.338 3-3v-28c0-1.662-1.338-3-3-3h-60z"/>
 <rect rx="2.1429" ry="2.1429" height="30" width="30" y="18" x="18" fill="url(#t)"/>
 <path d="m48 33v-12.857c0-1.187-0.956-2.143-2.143-2.143h-12.857v15h15z" fill="url(#y)"/>
 <path d="m18 33v-12.857c0-1.187 0.956-2.143 2.143-2.143h12.857v15h-15z" fill="url(#z)"/>
 <path d="m18 33v12.857c0 1.187 0.956 2.143 2.143 2.143h12.857v-15h-15z" fill="url(#aa)"/>
 <path d="m48 33v12.857c0 1.187-0.956 2.143-2.143 2.143h-12.857v-15h15z" fill="url(#ab)"/>
 <rect transform="rotate(90)" rx="2.12" ry="2.12" height="22" width="22" y="-44" x="22" fill="url(#ac)"/>
 <path opacity=".8" d="m22 41.875c0 1.175 0.95 2.125 2.125 2.125h17.75c1.175 0 2.125-0.95 2.125-2.125v-17.75c0-1.175-0.95-2.125-2.125-2.125h-17.75c-1.175 0-2.125 0.95-2.125 2.125v17.75zm2.0312 0.09375c-0.01281-0.0128 0-0.05119 0-0.09375v-17.75c0-0.08512 0.0087-0.09375 0.09375-0.09375h17.75c0.08503 0 0.09375 0.0086 0.09375 0.09375v17.75c0 0.08512-0.0087 0.09375-0.09375 0.09375h-17.75c-0.04251 0-0.08094 0.0128-0.09375 0z" fill="url(#ad)"/>
 <path opacity=".2" d="m20.156 17c-1.726 0-3.156 1.43-3.156 3.156v25.688c0 1.726 1.43 3.156 3.156 3.156h25.688c1.726 0 3.156-1.43 3.156-3.156v-25.688c0-1.726-1.43-3.156-3.156-3.156h-25.688zm0 1h25.688c1.187 0 2.156 0.969 2.156 2.156v25.688c0 1.187-0.969 2.156-2.156 2.156h-25.688c-1.187 0-2.156-0.969-2.156-2.156v-25.688c0-1.187 0.969-2.156 2.156-2.156z" fill="#fff"/>
 <rect rx="2.1429" ry="2.1429" height="30" width="30" y="18" x="50" fill="url(#ae)"/>
 <path d="m80 33v-12.857c0-1.187-0.956-2.143-2.143-2.143h-12.857v15h15z" fill="url(#af)"/>
 <path d="m50 33v-12.857c0-1.187 0.956-2.143 2.143-2.143h12.857v15h-15z" fill="url(#ag)"/>
 <path d="m50 33v12.857c0 1.187 0.956 2.143 2.143 2.143h12.857v-15h-15z" fill="url(#ah)"/>
 <path d="m80 33v12.857c0 1.187-0.956 2.143-2.143 2.143h-12.857v-15h15z" fill="url(#ai)"/>
 <rect transform="rotate(90)" rx="2.12" ry="2.12" height="22" width="22" y="-76" x="22" fill="url(#aj)"/>
 <path opacity=".8" d="m54 41.875c0 1.175 0.95 2.125 2.125 2.125h17.75c1.175 0 2.125-0.95 2.125-2.125v-17.75c0-1.175-0.95-2.125-2.125-2.125h-17.75c-1.175 0-2.125 0.95-2.125 2.125v17.75zm2.0312 0.09375c-0.01281-0.0128 0-0.05119 0-0.09375v-17.75c0-0.08512 0.0087-0.09375 0.09375-0.09375h17.75c0.08503 0 0.09375 0.0086 0.09375 0.09375v17.75c0 0.08512-0.0087 0.09375-0.09375 0.09375h-17.75c-0.04251 0-0.08094 0.0128-0.09375 0z" fill="url(#ak)"/>
 <path opacity=".2" d="m52.156 17c-1.726 0-3.156 1.43-3.156 3.156v25.688c0 1.726 1.43 3.156 3.156 3.156h25.688c1.726 0 3.156-1.43 3.156-3.156v-25.688c0-1.726-1.43-3.156-3.156-3.156h-25.688zm0 1h25.688c1.187 0 2.156 0.969 2.156 2.156v25.688c0 1.187-0.969 2.156-2.156 2.156h-25.688c-1.187 0-2.156-0.969-2.156-2.156v-25.688c0-1.187 0.969-2.156 2.156-2.156z" fill="#f00"/>
 <path d="m20.143 50h47.714c1.187 0 2.143 0.956 2.143 2.143v25.714c0 1.187-0.956 2.143-2.143 2.143h-47.714c-1.187 0-2.143-0.956-2.143-2.143v-25.714c0-1.187 0.956-2.143 2.143-2.143z" fill="url(#al)"/>
 <path d="m70 65v-12.857c0-1.187-0.956-2.143-2.143-2.143h-12.857v15h15z" fill="url(#am)"/>
 <path d="m18 65v-12.857c0-1.187 0.956-2.143 2.143-2.143h12.857v15h-15z" fill="url(#ax)"/>
 <path d="m18 65v12.857c0 1.187 0.956 2.143 2.143 2.143h12.857v-15h-15z" fill="url(#ay)"/>
 <path d="m70 65v12.857c0 1.187-0.956 2.143-2.143 2.143h-12.857v-15h15z" fill="url(#az)"/>
 <path d="m66 56.121v17.758c0 1.175-0.946 2.121-2.121 2.121h-39.758c-1.175 0-2.121-0.946-2.121-2.121v-17.758c0-1.175 0.946-2.121 2.121-2.121h39.758c1.175 0 2.121 0.946 2.121 2.121z" fill="url(#ba)"/>
 <path opacity=".8" d="m22 73.875c0 1.175 0.95 2.125 2.125 2.125h39.75c1.175 0 2.125-0.95 2.125-2.125v-17.75c0-1.175-0.95-2.125-2.125-2.125h-39.75c-1.175 0-2.125 0.95-2.125 2.125v17.75zm2.0312 0.09375c-0.01281-0.0128 0-0.05119 0-0.09375v-17.75c0-0.08512 0.0087-0.09375 0.09375-0.09375h39.75c0.08503 0 0.09375 0.0086 0.09375 0.09375v17.75c0 0.08512-0.0087 0.09375-0.09375 0.09375h-39.75c-0.04251 0-0.08094 0.0128-0.09375 0z" fill="url(#bb)"/>
 <path opacity=".2" d="m20.156 49c-1.726 0-3.156 1.43-3.156 3.156v25.688c0 1.726 1.43 3.156 3.156 3.156h47.688c1.726 0 3.156-1.43 3.156-3.156v-25.688c0-1.726-1.43-3.156-3.156-3.156h-47.688zm0 1h47.688c1.187 0 2.156 0.969 2.156 2.156v25.688c0 1.187-0.969 2.156-2.156 2.156h-47.688c-1.187 0-2.156-0.969-2.156-2.156v-25.688c0-1.187 0.969-2.156 2.156-2.156z" fill="#f00"/>
 <path opacity=".6" d="m82 47c0 1.662-1.338 3-3 3h-7v1h7c1.662 0 3-1.338 3-3v-1zm-66 32v1c0 1.662 1.338 3 3 3h50c1.662 0 3-1.338 3-3v-1c0 1.662-1.338 3-3 3h-50c-1.662 0-3-1.338-3-3z" fill="#fff"/>
 <g fill="#f00">
  <path opacity=".3" d="m52.156 18c-1.187 0-2.156 0.969-2.156 2.156v25.688c0 1.187 0.969 2.156 2.156 2.156h25.688c1.187 0 2.156-0.969 2.156-2.156v-25.688c0-1.187-0.969-2.156-2.156-2.156h-25.688zm0 1.9688h25.688c0.10851 0 0.1875 0.07898 0.1875 0.1875v25.688c0 0.10852-0.079 0.1875-0.1875 0.1875h-25.688c-0.10851 0-0.1875-0.07898-0.1875-0.1875v-25.688c0-0.10852 0.079-0.1875 0.1875-0.1875z"/>
  <path opacity=".8" d="m52.156 18c-1.187 0-2.156 0.969-2.156 2.156v25.688c0 1.187 0.969 2.156 2.156 2.156h25.688c1.187 0 2.156-0.969 2.156-2.156v-25.688c0-1.187-0.969-2.156-2.156-2.156h-25.688zm0 0.9375h25.688c0.67346 0 1.2188 0.54529 1.2188 1.2188v25.688c0 0.67346-0.54529 1.2188-1.2188 1.2188h-25.688c-0.67346 0-1.2188-0.54529-1.2188-1.2188v-25.688c0-0.67346 0.54529-1.2188 1.2188-1.2188z"/>
  <path opacity=".3" d="m20.156 50c-1.187 0-2.156 0.969-2.156 2.156v25.688c0 1.187 0.969 2.156 2.156 2.156h47.688c1.187 0 2.156-0.969 2.156-2.156v-25.688c0-1.187-0.969-2.156-2.156-2.156h-47.688zm0 1.9688h47.688c0.10851 0 0.1875 0.07898 0.1875 0.1875v25.688c0 0.10852-0.079 0.1875-0.1875 0.1875h-47.688c-0.10851 0-0.1875-0.07898-0.1875-0.1875v-25.688c0-0.10852 0.079-0.1875 0.1875-0.1875z"/>
  <path opacity=".8" d="m20.156 50c-1.187 0-2.156 0.969-2.156 2.156v25.688c0 1.187 0.969 2.156 2.156 2.156h47.688c1.187 0 2.156-0.969 2.156-2.156v-25.688c0-1.187-0.969-2.156-2.156-2.156h-47.688zm0 0.9375h47.688c0.67346 0 1.2188 0.54529 1.2188 1.2188v25.688c0 0.67346-0.54529 1.2188-1.2188 1.2188h-47.688c-0.67346 0-1.2188-0.54529-1.2188-1.2188v-25.688c0-0.67346 0.54529-1.2188 1.2188-1.2188z"/>
 </g>
 <g font-family="Liberation Sans" fill="#333333">
  <text font-size="15.604px" y="70.576035" x="26.983643">Ctrl</text>
  <text font-size="16.657px" y="38.729168" x="59.907333">Z</text>
  <text font-size="16.657px" y="38.727768" x="27.441668">A</text>
 </g>
</svg>
