<?xml version="1.0" encoding="UTF-8" standalone="no"?>
<svg style="enable-background:new" xmlns="http://www.w3.org/2000/svg" height="96" width="96" version="1.1" xmlns:xlink="http://www.w3.org/1999/xlink">
 <defs>
  <linearGradient id="h" stop-color="#fff">
   <stop offset="0"/>
   <stop stop-opacity="0" offset="1"/>
  </linearGradient>
  <linearGradient id="b" stop-color="#fff">
   <stop offset="0"/>
   <stop stop-opacity=".61719" offset="0.3"/>
   <stop stop-opacity=".21875" offset="0.6"/>
   <stop stop-opacity="0" offset="1"/>
  </linearGradient>
  <linearGradient id="g">
   <stop stop-color="#fff" offset="0"/>
   <stop stop-color="#98b7e5" offset="1"/>
  </linearGradient>
  <linearGradient id="a">
   <stop stop-color="#fff" stop-opacity="0" offset="0"/>
   <stop stop-color="#aac2e7" offset="1"/>
  </linearGradient>
  <linearGradient id="c">
   <stop stop-color="#fff" offset="0"/>
   <stop stop-color="#fff" offset="0.15"/>
   <stop stop-color="#fff" stop-opacity=".4375" offset="0.3"/>
   <stop stop-color="#412788" stop-opacity="0" offset="1"/>
  </linearGradient>
  <clipPath id="av">
   <rect rx="6" ry="6" height="84" width="84" y="6" x="6" fill="#fff"/>
  </clipPath>
  <filter id="j" height="1.384" width="1.384" color-interpolation-filters="sRGB" y="-.192" x="-.192">
   <feGaussianBlur stdDeviation="5.28"/>
  </filter>
  <linearGradient id="k" stop-color="#fff" y2="138.66" gradientUnits="userSpaceOnUse" x2="48" y1="20.221" x1="48">
   <stop offset="0"/>
   <stop stop-opacity="0" offset="1"/>
  </linearGradient>
  <linearGradient id="f" y2="7.0165" gradientUnits="userSpaceOnUse" x2="45.448" gradientTransform="matrix(1.0059 0 0 .99417 100 0)" y1="92.54" x1="45.448">
   <stop offset="0"/>
   <stop stop-opacity=".58824" offset="1"/>
  </linearGradient>
  <radialGradient id="y" gradientUnits="userSpaceOnUse" cy="99.413" cx="93.877" gradientTransform="matrix(-.0015832 -.80617 2.4983 -.0049063 -167.36 145.83)" r="55.625">
   <stop stop-color="#917896" offset="0"/>
   <stop stop-color="#3c356e" offset=".5"/>
   <stop stop-color="#121132" offset="1"/>
  </radialGradient>
  <linearGradient id="au" y2="6" xlink:href="#f" gradientUnits="userSpaceOnUse" x2="32.251" gradientTransform="translate(0,1)" y1="90" x1="32.251"/>
  <linearGradient id="at" y2="5.9996" xlink:href="#f" gradientUnits="userSpaceOnUse" x2="32.251" gradientTransform="matrix(1.0238 0 0 1.0119 -1.1429 .929)" y1="90" x1="32.251"/>
  <linearGradient id="as" y2="90.239" xlink:href="#f" gradientUnits="userSpaceOnUse" x2="32.251" gradientTransform="matrix(1.0238,0,0,-1.0119,-1.1429,98.071)" y1="6.1317" x1="32.251"/>
  <radialGradient id="z" xlink:href="#h" gradientUnits="userSpaceOnUse" cy="90.172" cx="48" gradientTransform="matrix(1.1573 0 0 .99591 -7.551 .19713)" r="42"/>
  <linearGradient id="ar" y2="83.295" gradientUnits="userSpaceOnUse" x2="43.179" gradientTransform="matrix(1.0294,0,0,1.0294,-1.4118,-1.4118)" y1="13" x1="43.179">
   <stop stop-color="#919191" offset="0"/>
   <stop stop-color="#fdfdfd" offset="1"/>
  </linearGradient>
  <linearGradient id="aq" y2="63.893" xlink:href="#h" gradientUnits="userSpaceOnUse" x2="36.357" y1="6" x1="36.357"/>
  <linearGradient id="ap" y2="5.9877" gradientUnits="userSpaceOnUse" x2="48" y1="90" x1="48">
   <stop stop-color="#b4b4b4" offset="0"/>
   <stop stop-color="#e6e6e6" offset="1"/>
  </linearGradient>
  <linearGradient id="ao" y2="56.034" xlink:href="#g" gradientUnits="userSpaceOnUse" x2="47.341" gradientTransform="matrix(.72247 0 0 .72247 1.6229 3.6011)" y1="49.562" x1="47.341"/>
  <radialGradient id="x" xlink:href="#b" gradientUnits="userSpaceOnUse" cy="34.052" cx="30.233" gradientTransform="matrix(.48873 0 0 .48873 17.822 24.107)" r="4.2476"/>
  <linearGradient id="an" y2="73.28" xlink:href="#a" gradientUnits="userSpaceOnUse" x2="81.455" gradientTransform="matrix(.87762 0 0 .75531 -22.011 11.235)" y1="78.777" x1="81.455"/>
  <linearGradient id="am" y2="73.28" xlink:href="#a" gradientUnits="userSpaceOnUse" x2="81.455" gradientTransform="matrix(.66544 0 0 .75531 -9.1654 13.04)" y1="78.777" x1="81.455"/>
  <linearGradient id="al" y2="92.006" xlink:href="#g" gradientUnits="userSpaceOnUse" x2="66.541" gradientTransform="matrix(.72247 0 0 .72247 1.6229 6.6011)" y1="85.295" x1="66.541"/>
  <linearGradient id="ak" y2="86.233" xlink:href="#g" gradientUnits="userSpaceOnUse" x2="86.142" gradientTransform="matrix(.72247 0 0 .72247 3.6229 3.6011)" y1="71.482" x1="86.142"/>
  <radialGradient id="w" xlink:href="#c" gradientUnits="userSpaceOnUse" cy="34.052" cx="30.233" gradientTransform="matrix(1.2003,0,0,1.2003,-9.3286,11.135)" r="4.2476"/>
  <radialGradient id="v" xlink:href="#b" gradientUnits="userSpaceOnUse" cy="34.052" cx="30.233" gradientTransform="matrix(.48873 0 0 .48873 35.224 11.853)" r="4.2476"/>
  <radialGradient id="u" xlink:href="#b" gradientUnits="userSpaceOnUse" cy="34.052" cx="30.233" gradientTransform="matrix(.36464 0 0 .36464 31.549 7.0501)" r="4.2476"/>
  <radialGradient id="t" xlink:href="#c" gradientUnits="userSpaceOnUse" cy="34.052" cx="30.233" gradientTransform="matrix(.72247 0 0 .72247 14.172 49.577)" r="4.2476"/>
  <radialGradient id="s" xlink:href="#c" gradientUnits="userSpaceOnUse" cy="34.052" cx="30.233" gradientTransform="matrix(1.02,0,0,1.02,34.51,-7.4317)" r="4.2476"/>
  <radialGradient id="r" xlink:href="#c" gradientUnits="userSpaceOnUse" cy="34.052" cx="30.233" gradientTransform="matrix(.72247 0 0 .72247 1.6229 .60111)" r="4.2476"/>
  <radialGradient id="q" gradientUnits="userSpaceOnUse" cy="65.119" cx="65.796" gradientTransform="matrix(.72247 0 0 .8033 -.37705 -4.4626)" r="16.062">
   <stop stop-color="#ffa727" offset="0"/>
   <stop stop-color="#ffe680" offset="1"/>
  </radialGradient>
  <radialGradient id="p" xlink:href="#b" gradientUnits="userSpaceOnUse" cy="34.052" cx="30.233" gradientTransform="matrix(.36464 0 0 .36464 6.7856 23.985)" r="4.2476"/>
  <radialGradient id="o" xlink:href="#b" gradientUnits="userSpaceOnUse" cy="34.052" cx="30.233" gradientTransform="matrix(.36464 0 0 .36464 45.958 9.1828)" r="4.2476"/>
  <radialGradient id="n" xlink:href="#b" gradientUnits="userSpaceOnUse" cy="34.052" cx="30.233" gradientTransform="matrix(.36464 0 0 .36464 66.088 26.207)" r="4.2476"/>
  <radialGradient id="m" xlink:href="#b" gradientUnits="userSpaceOnUse" cy="34.052" cx="30.233" gradientTransform="matrix(.48873 0 0 .48873 56.205 27.548)" r="4.2476"/>
  <radialGradient id="l" xlink:href="#b" gradientUnits="userSpaceOnUse" cy="34.052" cx="30.233" gradientTransform="matrix(.48873 0 0 .48873 4.2831 45.227)" r="4.2476"/>
  <linearGradient id="aj" y2="73.28" xlink:href="#a" gradientUnits="userSpaceOnUse" x2="81.455" gradientTransform="matrix(.74149 0 0 .95235 6.5323 -17.396)" y1="78.777" x1="81.455"/>
  <linearGradient id="ai" y2="73.28" xlink:href="#a" gradientUnits="userSpaceOnUse" x2="81.455" gradientTransform="matrix(.72116 0 0 .72247 4.2651 7.031)" y1="78.777" x1="81.455"/>
  <linearGradient id="ah" y2="73.28" xlink:href="#a" gradientUnits="userSpaceOnUse" x2="81.455" gradientTransform="matrix(.95062 0 0 .95235 -10.087 -11.8)" y1="78.777" x1="81.455"/>
  <linearGradient id="ag" y2="73.28" xlink:href="#a" gradientUnits="userSpaceOnUse" x2="81.455" gradientTransform="matrix(.72247 0 0 .72247 2.7204 3.6011)" y1="78.777" x1="81.455"/>
  <linearGradient id="af" y2="73.28" xlink:href="#a" gradientUnits="userSpaceOnUse" x2="81.455" gradientTransform="matrix(.77951 0 0 .95235 -26.581 -35.809)" y1="78.777" x1="81.455"/>
  <linearGradient id="ae" y2="73.28" xlink:href="#a" gradientUnits="userSpaceOnUse" x2="81.455" gradientTransform="matrix(.68445 0 0 .75531 -27.032 -16.316)" y1="78.777" x1="81.455"/>
  <linearGradient id="ad" y2="73.28" xlink:href="#a" gradientUnits="userSpaceOnUse" x2="81.455" gradientTransform="matrix(.57037 0 0 .62395 -7.4502 -6.5091)" y1="78.777" x1="81.455"/>
  <linearGradient id="ac" y2="73.28" xlink:href="#a" gradientUnits="userSpaceOnUse" x2="81.455" gradientTransform="matrix(.95062 0 0 .95235 -43.136 -32.56)" y1="78.777" x1="81.455"/>
  <linearGradient id="i" y2="69.688" xlink:href="#h" gradientUnits="userSpaceOnUse" x2="65.156" y1="16.125" x1="65.156"/>
  <linearGradient id="ab" stop-color="#fff" y2="72.766" gradientUnits="userSpaceOnUse" x2="76.451" y1="8.0625" x1="76.451">
   <stop offset="0"/>
   <stop stop-opacity="0" offset="1"/>
  </linearGradient>
 </defs>
 <g fill="url(#as)">
  <path opacity="0.08" d="m12 95.031c-5.5111 0-10.031-4.52-10.031-10.031v-71c0-5.5111 4.5202-10.031 10.031-10.031h72c5.5111 0 10.031 4.5202 10.031 10.031v71c0 5.5111-4.5202 10.031-10.031 10.031h-72z"/>
  <path opacity=".1" d="m12 94.031c-4.9716 0-9.0312-4.0596-9.0312-9.0312v-71c0-4.9718 4.0596-9.0314 9.0312-9.0314h72c4.9716 0 9.0312 4.0596 9.0312 9.0312v71c0 4.9716-4.0596 9.0312-9.0312 9.0312h-72z"/>
  <path opacity=".2" d="m12 93c-4.4091 0-8-3.591-8-8v-71c0-4.4091 3.5909-8 8-8h72c4.4091 0 8 3.5909 8 8v71c0 4.4091-3.5909 8-8 8h-72z"/>
 </g>
 <rect opacity=".3" rx="7" ry="7" height="85" width="86" y="7" x="5" fill="url(#at)"/>
 <rect opacity=".45" rx="6" ry="6" height="84" width="84" y="7" x="6" fill="url(#au)"/>
 <rect rx="5.9134" ry="5.6609" height="72" width="78.722" y="10.5" x="8.25" fill="url(#y)"/>
 <path opacity="0.08" d="m19 13c-3.2894 0-6 2.7106-6 6v58c0 3.2894 2.7106 6 6 6h58c3.2894 0 6-2.7106 6-6v-58c0-3.2894-2.7106-6-6-6h-58zm0 4h58c1.1426 0 2 0.85741 2 2v58c0 1.1426-0.85741 2-2 2h-58c-1.1426 0-2-0.85741-2-2v-58c0-1.1426 0.85741-2 2-2z"/>
 <g style="color:#000000">
  <path opacity=".1" d="m17 14c-1.662 0-3 1.338-3 3v62c0 1.662 1.338 3 3 3h62c1.662 0 3-1.338 3-3v-62c0-1.662-1.338-3-3-3h-62zm0 1.9375h62c0.61816 0 1.0625 0.44434 1.0625 1.0625v62c0 0.61816-0.44434 1.0625-1.0625 1.0625h-62c-0.61816 0-1.0625-0.44434-1.0625-1.0625v-62c0-0.61816 0.44434-1.0625 1.0625-1.0625z"/>
  <path opacity=".25" d="m17 14c-1.662 0-3 1.338-3 3v62c0 1.662 1.338 3 3 3h62c1.662 0 3-1.338 3-3v-62c0-1.662-1.338-3-3-3h-62zm0 0.96875h62c1.1401 0 2.0312 0.89117 2.0312 2.0312v62c0 1.1401-0.89117 2.0312-2.0312 2.0312h-62c-1.1401 0-2.0312-0.89117-2.0312-2.0312v-62c0-1.1401 0.89117-2.0312 2.0312-2.0312z"/>
 </g>
 <path d="m12 6c-3.324 0-6 2.676-6 6v72c0 3.324 2.676 6 6 6h72c3.324 0 6-2.676 6-6v-72c0-3.324-2.676-6-6-6h-72zm5 8h62c1.6838 0 3 1.3162 3 3v62c0.000001 1.6838-1.3162 3-3 3h-62c-1.6838 0.000001-3-1.3162-3-3v-62c0-1.6838 1.3162-3 3-3z" fill="url(#ap)"/>
 <path opacity=".7" d="m12 6c-3.324 0-6 2.676-6 6v72c0 0.33472 0.04135 0.6507 0.09375 0.96875 0.0487 0.2956 0.09704 0.59692 0.1875 0.875 0.00988 0.03038 0.020892 0.0636 0.03125 0.09375 0.098865 0.28777 0.23488 0.54745 0.375 0.8125 0.14459 0.27351 0.31562 0.53562 0.5 0.78125 0.18438 0.24564 0.37378 0.47347 0.59375 0.6875 0.43995 0.42806 0.94291 0.81453 1.5 1.0938 0.27854 0.13961 0.57347 0.24695 0.875 0.34375-0.2562-0.10022-0.48671-0.23627-0.71875-0.375-0.00741-0.0044-0.023866 0.0045-0.03125 0-0.0319-0.019-0.0622-0.042-0.0937-0.062-0.1204-0.077-0.231-0.164-0.3437-0.25-0.1062-0.081-0.2133-0.161-0.3126-0.25-0.1778-0.162-0.3473-0.346-0.4999-0.531-0.1075-0.131-0.2183-0.266-0.3124-0.407-0.0251-0.038-0.0385-0.086-0.0626-0.125-0.0647-0.103-0.1302-0.204-0.1874-0.312-0.1011-0.195-0.2057-0.416-0.2813-0.625-0.008-0.022-0.0236-0.041-0.0313-0.063-0.0318-0.092-0.0358-0.187-0.0624-0.281-0.0304-0.107-0.0704-0.203-0.0938-0.313-0.0729-0.341-0.125-0.698-0.125-1.062v-72c0-2.782 2.2182-5 5-5h72c2.7818 0 5 2.2182 5 5v72c0 0.3643-0.05212 0.72099-0.125 1.0625-0.04415 0.20689-0.08838 0.39766-0.15625 0.59375-0.0077 0.02195-0.0233 0.04069-0.03125 0.0625-0.06274 0.17374-0.13838 0.36745-0.21875 0.53125-0.04158 0.0828-0.07904 0.16995-0.125 0.25-0.0546 0.09721-0.12677 0.18835-0.1875 0.28125-0.09411 0.14096-0.20492 0.276-0.3125 0.40625-0.14317 0.17445-0.30314 0.347-0.46875 0.5-0.01117 0.0102-0.01998 0.02115-0.03125 0.03125-0.13839 0.12556-0.28509 0.23444-0.4375 0.34375-0.10257 0.07315-0.20432 0.15336-0.3125 0.21875-0.0074 0.0045-0.02384-0.0044-0.03125 0-0.23204 0.13873-0.46255 0.27478-0.71875 0.375 0.30153-0.0968 0.59646-0.20414 0.875-0.34375 0.55709-0.27922 1.0601-0.66569 1.5-1.0938 0.21997-0.21403 0.40937-0.44186 0.59375-0.6875s0.35541-0.50774 0.5-0.78125c0.14012-0.26505 0.27614-0.52473 0.375-0.8125 0.01041-0.03078 0.02133-0.06274 0.03125-0.09375 0.09046-0.27808 0.1388-0.5794 0.1875-0.875 0.053-0.318 0.094-0.634 0.094-0.969v-72c0-3.324-2.676-6-6-6h-72z" fill="url(#aq)"/>
 <rect stroke-linejoin="round" stroke-opacity=".7" rx="4" ry="4" height="70" width="70" stroke="url(#ar)" stroke-linecap="square" y="13" x="13" stroke-width="2" fill="none"/>
 <path opacity=".4" d="m12 90c-3.324 0-6-2.676-6-6v-72c0-0.33472 0.04135-0.6507 0.09375-0.96875 0.0487-0.2956 0.09704-0.59692 0.1875-0.875 0.0099-0.03 0.0209-0.063 0.0313-0.094 0.0989-0.2873 0.2349-0.547 0.375-0.812 0.1446-0.2735 0.3156-0.5356 0.5-0.7812 0.1844-0.2457 0.3738-0.4735 0.5937-0.6876 0.44-0.428 0.943-0.8145 1.5-1.0937 0.2786-0.1396 0.5735-0.2469 0.8748-0.3437-0.256 0.1002-0.4865 0.2362-0.7185 0.375-0.00741 0.0044-0.023866-0.0045-0.03125 0-0.031933 0.0193-0.062293 0.04251-0.09375 0.0625-0.1204 0.0767-0.23102 0.16351-0.34375 0.25-0.10617 0.0808-0.21328 0.16111-0.3125 0.25-0.1779 0.1614-0.3474 0.3453-0.5 0.5312-0.1075 0.1303-0.2183 0.2653-0.3124 0.4063-0.0251 0.0383-0.0385 0.0858-0.0626 0.125-0.0647 0.103-0.1302 0.2045-0.1874 0.3124-0.1011 0.1948-0.2057 0.4158-0.2813 0.625-0.008 0.0219-0.0236 0.0406-0.0313 0.0626-0.0318 0.0919-0.0358 0.1868-0.0624 0.2812-0.0304 0.1066-0.0704 0.203-0.0938 0.3125-0.0729 0.3415-0.125 0.6985-0.125 1.0625v72c0 2.7818 2.2182 5 5 5h72c2.7818 0 5-2.2182 5-5v-72c0-0.364-0.052-0.721-0.125-1.0625-0.044-0.2069-0.088-0.3977-0.156-0.5937-0.008-0.022-0.024-0.0407-0.031-0.0626-0.063-0.1737-0.139-0.3674-0.219-0.5312-0.042-0.0828-0.079-0.17-0.125-0.25-0.055-0.0972-0.127-0.1884-0.188-0.2812-0.094-0.141-0.205-0.276-0.312-0.4063-0.143-0.1745-0.303-0.347-0.469-0.5-0.011-0.0102-0.02-0.0211-0.031-0.0313-0.139-0.1255-0.285-0.2344-0.438-0.3437-0.102-0.0731-0.204-0.1534-0.312-0.2187-0.0074-0.0045-0.02384 0.0044-0.03125 0-0.23204-0.13873-0.46255-0.27478-0.71875-0.375 0.30153 0.0968 0.59646 0.20414 0.875 0.34375 0.55709 0.27922 1.0601 0.66569 1.5 1.0938 0.21997 0.21403 0.40937 0.44186 0.59375 0.6875s0.35541 0.50774 0.5 0.78125c0.14012 0.26505 0.27614 0.52473 0.375 0.8125 0.01041 0.03078 0.02133 0.06274 0.03125 0.09375 0.09046 0.27808 0.1388 0.5794 0.1875 0.875 0.053 0.318 0.094 0.634 0.094 0.969v72c0 3.324-2.676 6-6 6h-72z" fill="url(#z)"/>
 <rect opacity=".1" clip-path="url(#av)" rx="12" ry="12" height="66" filter="url(#j)" width="66" stroke="#fff" stroke-linecap="round" y="15" x="15" stroke-width=".5" fill="url(#k)"/>
 <path opacity=".05" d="m36.812 33c-2.4306-0.49322-3.6511 2.6043-5.7166 2.1701-2.616-0.27339-3.237 2.7935-5.1967 3.3096-2.9649 0.92196-3.9431 5.2116-1.4098 7.1703 2.4008 2.2059 6.6095 2.038 8.6668-0.55626 2.4172 0.05757 3.6667 2.6401 6.3933 2.1474 2.5456 0.17774 3.8664-2.9019 6.4638-1.6007 2.2581 0.61478 5.4939-0.25562 6.1116-2.7654 0.13252-1.359-1.4568-2.423-2.6562-1.7812-1.5431-0.4339-1.872-3.9374-4.2077-4.2171-1.9411 0.28102-3.2424-0.16092-4.1354-2.0505-1.11-1.163-2.704-1.837-4.313-1.826zm6.375 5.8438c2.137 0.60247-0.72417 0.71032-0.5625 0.21875 0.15167-0.14479 0.36153-0.19614 0.5625-0.21875zm23.719 12.344c-2.4838-0.1957-3.5799 2.909-6 1.5312-3.299-0.29467-4.7787 2.8577-7.9064 2.8851-3.3631 0.84373-3.0425 5.9741 0.40636 6.3024-0.1425 2.727 2.9756 3.091 4.7899 3.879 2.0726 1.6378 5.0283 1.3748 7.2367 1.4434 2.0949 2.153 6.0124 1.0434 6.9734-1.6973 2.2672-0.91489 4.9114-0.69201 7.033-2.088 1.32-0.357 2.3-1.989 1.311-3.163-1.109-1.528-3.063 0.112-4.438-0.562-0.909-1.473-1.703-3.257-3.565-3.766-1.359-1.803-2.472-5.06-5.841-4.765zm-17.656 14.124c-2.2482 0.9788-5.2583-0.64652-6.801 2.0826-2.2888 0.62627-4.1379 3.7029-2.1165 5.812 1.8222 2.2834 5.1127 2.2713 7.5638 1.524 2.1131 0.65362 4.4137 1.3725 6.2752-0.28642 1.8945-0.52164 3.707-1.1731 5.3228-2.3593 1.6002-2.4504-1.6088-4.3724-3.7531-4.5456-2.248-0.311-3.9-2.634-6.491-2.227z"/>
 <path opacity=".1" d="m36.812 33.906c-1.8427 0-3.3472 1.0128-4.2812 2.4062-0.34406-0.09913-0.65807-0.25-1.0625-0.25-1.8092 0-3.4016 1.1338-3.7188 2.75-0.89818 0.1379-1.7169 0.43612-2.375 0.9375-0.85156 0.64874-1.4687 1.6105-1.4688 2.7188 0 1.131 0.62198 2.1243 1.5 2.7812 0.87802 0.65693 2.0323 1.0312 3.2812 1.0312 1.8243 0 3.4502-0.81642 4.25-2.1562 0.55726 0.19068 1.072 0.46875 1.75 0.46875 0.3144 0 0.55673-0.11196 0.84375-0.15625 0.23285 0.52925 0.60467 0.9954 1.0938 1.2812 0.71842 0.41989 1.6016 0.625 2.5625 0.625 0.85337 0 1.6443-0.16718 2.3125-0.5 0.4777-0.23794 0.86262-0.62176 1.1562-1.0625 0.46222-0.06137 0.91225-0.14407 1.3125-0.3125 0.8136-0.07582 1.8814 0.28216 3.125 0.4375s2.8126-0.13296 3.9375-1.5938a0.93431 0.93431 0 0 0 -1.155 -1.408c-0.60329 0.27898-0.93701 0.28532-1.125 0.25s-0.29965-0.09883-0.46875-0.3125c-0.30083-0.38013-0.60757-1.2219-1.0312-2-0.05262-0.09664-0.06648-0.15442-0.125-0.25l-0.031 0.031c-0.44383-1.1817-1.5629-2-2.875-2-0.52051 0-0.99908 0.15212-1.4375 0.375-0.08833-0.09529-0.08974-0.26878-0.1875-0.34375-0.26366-0.20219-0.5904-0.26799-0.90625-0.375-0.69402-1.9671-2.602-3.375-4.875-3.375zm6.5312 5.4062h0.03125c-0.03129 0.36058-0.20188 0.45618-0.1875 0.4375 0.01056-0.01371 0.09977-0.22577 0.15625-0.4375zm23.562 12.781c-1.5827 0-2.8639 0.88509-3.6562 2.0938-0.72668-0.27483-1.4658-0.5625-2.3438-0.5625-1.1943 0-2.2944 0.2815-3.1562 0.78125-0.6068 0.35186-1.0204 0.89864-1.2812 1.5312-0.13843-0.0093-0.25936-0.03125-0.40625-0.03125-1.153 0-2.1926 0.22137-3.0312 0.65625-0.83868 0.43488-1.5938 1.1753-1.5938 2.1875s0.75507 1.7526 1.5938 2.1875c0.43262 0.22433 1.0326 0.23193 1.5625 0.34375-0.10995 0.23536-0.3125 0.41225-0.3125 0.6875 0 0.91826 0.65567 1.5804 1.375 1.9688 0.63376 0.34214 1.4354 0.50961 2.2812 0.59375 1.3119 1.1175 3.1637 1.8125 5.25 1.8125 0.78933 0 1.4963-0.16622 2.1875-0.34375 0.67813 0.84977 1.6514 1.4688 2.8438 1.4688 1.6654 0 3.0764-1.0704 3.5-2.5625 0.0062-0.02189 0.02549-0.04042 0.03125-0.0625 0.6104-0.09829 1.1748-0.32728 1.6562-0.65625v0.0625c1.7849-0.47456 3.3653-0.15961 6.4375-2.0625a0.93431 0.93431 0 0 0 -0.719 -1.688c-1.64 0.39299-2.5082 0.34669-2.9375 0.1875-0.42934-0.15919-0.65363-0.4495-1.0625-1.1562l-0.03125 0.03125c-0.49882-1.7126-1.9755-3.0025-3.8125-3.0625 0.005-0.0788 0.0625-0.13867 0.0625-0.21875 0-2.3277-2.0265-4.1875-4.4375-4.1875zm-17.625 14.125c-0.87388 0.02717-1.5939 0.3413-2.2812 0.6875-0.31953-0.14796-0.62395-0.33098-0.96875-0.375-1.3614-0.17383-2.7491 0.55631-3.0938 1.8438-0.47744 0.12519-0.98709 0.23653-1.375 0.5-0.5975 0.40582-1.089 1.0096-1.1875 1.7812-0.12718 0.99608 0.41944 1.895 1.1562 2.5 0.73681 0.60495 1.7115 1.0157 2.8125 1.1562 1.1979 0.15296 2.2931-0.12857 3.1875-0.625 0.29224 0.09565 0.56866 0.2069 0.90625 0.25 0.32277 0.04121 0.63241 0.01496 0.9375 0 0.42728 0.37598 0.93367 0.70096 1.5625 0.78125 1.0368 0.13239 1.9433-0.38843 2.5312-1.1562 0.56291 0.05392 1.1163 0.03005 1.5938-0.125 0.43911-0.14259 0.8817-0.49078 1.0938-1.0312 0.42315-0.02154 0.89322-0.0093 1.25-0.09375 0.32985-0.07811 0.64622-0.18612 0.9375-0.375s0.62571-0.51605 0.6875-1c0.07092-0.55548-0.21977-1.0102-0.5-1.2812-0.28023-0.27104-0.6273-0.45147-1-0.625-0.74539-0.34706-1.6801-0.61339-2.75-0.75-0.265-0.034-0.494-0.021-0.718-0.031-0.80073-1.0205-2.0481-1.7674-3.625-1.9688-0.36399-0.04648-0.75882-0.07487-1.1562-0.0625z"/>
 <path d="m49.609 34.058c3.0542 2.1191 5.0799 5.6442 5.0799 9.6405-0.000002 6.477-5.2632 11.74-11.74 11.74-1.4373-0.000001-2.8135-0.27147-4.0865-0.74505 2.3554 3.1363 6.0965 5.1702 10.318 5.1702 7.1247 0 12.892-5.7895 12.892-12.914 0-6.9788-5.5395-12.662-12.463-12.892z" fill="url(#q)"/>
 <path d="m26.534 25.203a3.0688 3.0688 0 0 1 -6.1376 0 3.0688 3.0688 0 1 1 6.1376 0z" fill="url(#r)"/>
 <path d="m69.681 27.301a4.3326 4.3326 0 0 1 -8.6652 0 4.3326 4.3326 0 1 1 8.6652 0z" fill="url(#s)"/>
 <path d="m21.135 61.869a2.076 2.076 0 0 1 -4.1519 0 2.076 2.076 0 1 1 4.1519 0z" fill="url(#l)"/>
 <path d="m73.057 44.19a2.076 2.076 0 0 1 -4.1519 0 2.076 2.076 0 1 1 4.1519 0z" fill="url(#m)"/>
 <path d="m78.661 38.624a1.5489 1.5489 0 0 1 -3.0977 0 1.5489 1.5489 0 1 1 3.0977 0z" fill="url(#n)"/>
 <path d="m58.531 21.6a1.5489 1.5489 0 0 1 -3.0977 0 1.5489 1.5489 0 1 1 3.0977 0z" fill="url(#o)"/>
 <path d="m19.359 36.402a1.5489 1.5489 0 0 1 -3.0977 0 1.5489 1.5489 0 1 1 3.0977 0z" fill="url(#p)"/>
 <path d="m39.083 74.179a3.0688 3.0688 0 0 1 -6.1376 0 3.0688 3.0688 0 1 1 6.1376 0z" fill="url(#t)"/>
 <path d="m44.122 19.467a1.5489 1.5489 0 0 1 -3.0977 0 1.5489 1.5489 0 1 1 3.0977 0z" fill="url(#u)"/>
 <path d="m52.076 28.495a2.076 2.076 0 0 1 -4.1519 0 2.076 2.076 0 1 1 4.1519 0z" fill="url(#v)"/>
 <path d="m32.059 52.008a5.0985 5.0985 0 0 1 -10.197 0 5.0985 5.0985 0 1 1 10.197 0z" fill="url(#w)"/>
 <path opacity=".3" d="m36.812 34.844c-1.7877 0-3.3283 1.0287-3.9688 2.4688-0.411-0.181-0.873-0.313-1.374-0.313-1.6051 0-2.9062 1.0508-2.9062 2.3438 0 0.08081-0.0099 0.17129 0 0.25 0.000419 0.0033-0.000436 0.02793 0 0.03125-2.0696 0.0414-3.7187 1.2871-3.7188 2.8438 0 1.5828 1.726 2.875 3.8438 2.875 1.8339 0 3.3716-0.96394 3.75-2.25 0.54829 0.33914 1.339 0.5625 2.25 0.5625 0.57609 0 1.106-0.10097 1.5625-0.25-0.01788 0.07908-0.03125 0.16796-0.03125 0.25 0 0.98087 1.3414 1.75 2.9688 1.75 1.4423 0 2.6516-0.61245 2.9062-1.4375 0.66524-0.01618 1.2714-0.17901 1.7812-0.4375 2.2081-0.20576 4.5226 1.6648 6.4062-0.78125-2.8626 1.3237-3.1192-1.3198-3.9375-2.6562-0.23828-0.8935-1.1053-1.5312-2.125-1.5312-0.65026 0-1.2253 0.2607-1.625 0.6875-0.04926-0.0068-0.10643-0.02534-0.15625-0.03125 0.002-0.02305 0.03125-0.03913 0.03125-0.0625 0-0.57904-0.65565-1.0446-1.5-1.1875-0.41696-1.7827-2.1045-3.125-4.1562-3.125zm30.094 18.188c-1.5276 0-2.8286 0.90441-3.3125 2.1562-0.68654-0.39087-1.6458-0.625-2.6875-0.625-2.0971 0-3.7812 0.98167-3.7812 2.1875 0 0.05954-0.0081 0.12916 0 0.1875-0.33754-0.05197-0.6921-0.09375-1.0625-0.09375-2.0447 0-3.6875 0.8577-3.6875 1.9062 0 1.0486 1.6428 1.9062 3.6875 1.9062 0.18142 0 0.35678-0.01831 0.53125-0.03125-0.8431 0.31238-1.375 0.78877-1.375 1.3438 0 0.87486 1.3508 1.5868 3.0938 1.6875 1.108 1.0487 2.8755 1.75 4.875 1.75 0.88736 0 1.7397-0.16561 2.5-0.40625 0.41185 0.89898 1.3807 1.5312 2.5312 1.5312 1.4615 0 2.6595-1.0226 2.75-2.3125 0.11185-0.059 0.23681-0.10358 0.34375-0.15625 0.70218-0.02886 1.3264-0.29952 1.8438-0.71875 1.9932-0.52994 3.2715-0.13137 6.1875-1.9375-3.431 0.821-4.164 0.089-5.031-1.408-0.33224-1.4719-1.6258-2.5938-3.1562-2.5938-0.37399 0-0.72834 0.06695-1.0625 0.1875 0.19912-0.40495 0.3125-0.8395 0.3125-1.3125 0-1.7825-1.5602-3.25-3.5-3.25zm-17.594 14.125c-0.95933 0.02983-1.7898 0.2761-2.375 0.6875-0.2824-0.20059-0.64191-0.32529-1.0312-0.375-1.0632-0.13575-2.0145 0.44714-2.125 1.3125-0.01236 0.09681-0.0089 0.18664 0 0.28125-1.3228 0.14533-2.3517 0.80225-2.4688 1.7188-0.15153 1.1868 1.2719 2.3532 3.1562 2.5938 1.2272 0.15669 2.3513-0.12034 3.0312-0.65625 0.32627 0.13153 0.67309 0.23153 1.0625 0.28125 0.38942 0.04972 0.77615 0.0453 1.125 0 0.30018 0.3957 0.78779 0.70627 1.375 0.78125 0.99198 0.12666 1.8881-0.4161 2.0625-1.2188 0.10147 0.02133 0.20492 0.04876 0.3125 0.0625 1.0137 0.12943 1.8775-0.15523 1.9375-0.625 0.02062-0.16148-0.06641-0.31852-0.21875-0.46875 1.6061 0.08913 2.8696-0.18695 2.9375-0.71875 0.07892-0.61812-1.4595-1.3412-3.4375-1.5938-0.3215-0.04105-0.63781-0.04949-0.9375-0.0625-0.47326-0.93767-1.7797-1.7298-3.4062-1.9375-0.33808-0.04317-0.68022-0.07245-1-0.0625z"/>
 <path d="m66.892 52.327c-1.5276 0-2.8184 0.89821-3.3023 2.1501-0.68654-0.39087-1.631-0.62957-2.6727-0.62957-2.0971 0-3.8012 0.97986-3.8012 2.1857 0 0.05954 0.0038 0.11984 0.01188 0.17818-0.33754-0.05197-0.6868-0.08315-1.0572-0.08315-2.0447 0-3.7062 0.85205-3.7062 1.9006s1.6615 1.9006 3.7062 1.9006c0.18142 0 0.36008-0.01082 0.53454-0.02376-0.8431 0.31238-1.3898 0.7992-1.3898 1.3542 0 0.87486 1.3574 1.5861 3.1004 1.6868 1.108 1.0487 2.8708 1.7343 4.8703 1.7343 0.88736 0 1.7343-0.15136 2.4945-0.392 0.41185 0.89898 1.3915 1.5324 2.5421 1.5324 1.4615 0 2.6534-1.0264 2.744-2.3164 0.11185-0.059 0.22567-0.11364 0.3326-0.1663 0.70218-0.02886 1.3476-0.28162 1.865-0.70085 1.9932-0.52994 3.2729-0.15386 6.1888-1.96-3.4314 0.82226-4.1823 0.09561-5.0485-1.4017-0.33224-1.4719-1.6055-2.5777-3.136-2.5777-0.37399 0-0.73492 0.06951-1.0691 0.19006 0.19912-0.40495 0.30885-0.85742 0.30885-1.3304 0-1.7825-1.5763-3.231-3.5161-3.231z" fill="url(#ak)"/>
 <path d="m64.999 58.53a3.4299 1.9857 0 1 1 -6.8596 0 3.4299 1.9857 0 1 1 6.8596 0z" fill="url(#ag)"/>
 <path d="m71.858 60.606a4.513 2.6175 0 1 1 -9.0259 0 4.513 2.6175 0 1 1 9.0259 0z" fill="url(#ah)"/>
 <path d="m66.431 61.96a3.4236 1.9857 0 1 1 -6.8472 0 3.4236 1.9857 0 1 1 6.8472 0z" fill="url(#ai)"/>
 <path d="m70.45 55.01a3.5201 2.6175 0 1 1 -7.0402 0 3.5201 2.6175 0 1 1 7.0402 0z" fill="url(#aj)"/>
 <path d="m50.313 66.491c-1.3523-0.17267-2.6047 0.10099-3.3851 0.64952-0.2824-0.20059-0.63093-0.34245-1.0203-0.39216-1.0632-0.13575-2.0169 0.45714-2.1274 1.3225-0.01236 0.09681-0.01107 0.18978-0.0022 0.28439-1.3228 0.14533-2.3462 0.8072-2.4633 1.7237-0.15153 1.1868 1.2582 2.3469 3.1425 2.5875 1.2272 0.15669 2.3535-0.12434 3.0334-0.66025 0.32627 0.13154 0.69142 0.22492 1.0808 0.27464 0.38942 0.04972 0.76631 0.05108 1.1152 0.0058 0.30018 0.3957 0.79492 0.6936 1.3821 0.76858 0.99198 0.12666 1.8826-0.41497 2.057-1.2176 0.10147 0.02133 0.20326 0.04872 0.31085 0.06247 1.0137 0.12943 1.8862-0.14713 1.9462-0.61689 0.02062-0.16148-0.06076-0.32106-0.2131-0.47129 1.6061 0.08913 2.8494-0.20021 2.9173-0.73201 0.07892-0.61812-1.4642-1.3256-3.4422-1.5782-0.3215-0.04105-0.62476-0.05948-0.92445-0.07249-0.47326-0.93767-1.781-1.7304-3.4076-1.9381z" fill="url(#al)"/>
 <path d="m48.197 70.465a3.1591 2.076 0 1 1 -6.3182 0 3.1591 2.076 0 1 1 6.3182 0z" fill="url(#am)"/>
 <path d="m53.642 68.66a4.1664 2.076 0 1 1 -8.3327 0 4.1664 2.076 0 1 1 8.3327 0z" fill="url(#an)"/>
 <path d="m34.674 40.749a2.076 2.076 0 0 1 -4.1519 0 2.076 2.076 0 1 1 4.1519 0z" fill="url(#x)"/>
 <path d="m36.798 34.115c-1.7877 0-3.3094 1.0248-3.9498 2.4648-0.41199-0.18036-0.88237-0.28285-1.384-0.28285-1.6051 0-2.9093 1.0507-2.9093 2.3436 0 0.08081 0.01027 0.16373 0.0202 0.24244 0.000419 0.0033-0.000437 0.0068 0 0.01011-2.0696 0.0414-3.7276 1.3022-3.7276 2.8588 0 1.5828 1.7108 2.8689 3.8286 2.8689 1.8339 0 3.3693-0.96665 3.7478-2.2527 0.54829 0.33914 1.3619 0.5556 2.2729 0.5556 0.57609 0 1.1093-0.09342 1.5658-0.24244-0.01788 0.07908-0.03031 0.16041-0.03031 0.24244 0 0.98087 1.3224 1.7779 2.9497 1.7779 1.4423 0 2.6446-0.62961 2.8992-1.4547 0.66524-0.01618 1.2782-0.17589 1.788-0.43438 2.2081-0.20576 4.531 1.6682 6.4147-0.77784-2.8626 1.3237-3.1215-1.3102-3.9397-2.6467-0.23828-0.8935-1.0916-1.5557-2.1113-1.5557-0.65026 0-1.2368 0.27022-1.6365 0.69703-0.04926-0.0068-0.10171-0.0143-0.15153-0.02021 0.002-0.02305 0.0101-0.04734 0.0101-0.07071 0-0.57904-0.63052-1.0592-1.4749-1.2021-0.41697-1.7827-2.1304-3.1215-4.1822-3.1215z" fill="url(#ao)"/>
 <path d="m38.809 39.846a4.513 2.6175 0 1 1 -9.0259 0 4.513 2.6175 0 1 1 9.0259 0z" fill="url(#ac)"/>
 <path d="m41.717 40.929a2.7078 1.7149 0 1 1 -5.4155 0 2.7078 1.7149 0 1 1 5.4155 0z" fill="url(#ad)"/>
 <path d="m31.969 41.109a3.2494 2.076 0 1 1 -6.4986 0 3.2494 2.076 0 1 1 6.4986 0z" fill="url(#ae)"/>
 <path d="m40.614 36.597a3.7006 2.6175 0 1 1 -7.4012 0 3.7006 2.6175 0 1 1 7.4012 0z" fill="url(#af)"/>
 <g fill-rule="evenodd">
  <path opacity=".4" d="m44.844 8.0625 1.3438 3.875h32.812c2.754 0 5.0625 2.3085 5.0625 5.0625v62c0.000002 2.754-2.3085 5.0625-5.0625 5.0625h-7.875l1.3438 3.875h11.531c2.2218 0 3.9375-1.7157 3.9375-3.9375v-72c0-2.2218-1.716-3.9375-3.938-3.9375h-39.156z" fill="url(#ab)"/>
  <path opacity=".6" d="m47.656 16.125 22.031 63.75h9.3125c0.5388 0 0.875-0.3362 0.875-0.875v-62c0-0.5388-0.33619-0.875-0.875-0.875h-31.344z" fill="url(#i)"/>
  <path opacity=".5" d="m47.656 16.125 22.031 63.75h1l-22.031-63.75h-1z" fill="url(#i)"/>
 </g>
</svg>
