<?xml version="1.0" encoding="UTF-8" standalone="no"?>
<svg xmlns="http://www.w3.org/2000/svg" height="96" width="96" version="1.1" xmlns:xlink="http://www.w3.org/1999/xlink">
 <defs>
  <linearGradient id="b" stop-color="#fff">
   <stop offset="0"/>
   <stop stop-opacity="0" offset="1"/>
  </linearGradient>
  <clipPath id="d">
   <rect rx="6" ry="6" height="84" width="84" y="6" x="6" fill="#fff"/>
  </clipPath>
  <filter id="e" height="1.384" width="1.384" color-interpolation-filters="sRGB" y="-.192" x="-.192">
   <feGaussianBlur stdDeviation="5.28"/>
  </filter>
  <linearGradient id="f" stop-color="#fff" y2="138.66" gradientUnits="userSpaceOnUse" x2="48" y1="20.221" x1="48">
   <stop offset="0"/>
   <stop stop-opacity="0" offset="1"/>
  </linearGradient>
  <linearGradient id="k" y2="48" gradientUnits="userSpaceOnUse" x2="63.652" y1="48" x1="32.348">
   <stop stop-color="#bd750f" offset="0"/>
   <stop stop-color="#bd750f" stop-opacity="0" offset="1"/>
  </linearGradient>
  <linearGradient id="l" y2="48" gradientUnits="userSpaceOnUse" x2="63.517" y1="48" x1="32.483">
   <stop stop-color="#ac6b0e" offset="0"/>
   <stop stop-color="#bd750f" stop-opacity="0" offset="1"/>
  </linearGradient>
  <linearGradient id="c">
   <stop stop-color="#1c1c1c" offset="0"/>
   <stop stop-color="#949494" offset="1"/>
  </linearGradient>
  <linearGradient id="a" y2="7.0165" gradientUnits="userSpaceOnUse" x2="45.448" gradientTransform="matrix(1.0059 0 0 .99417 100 0)" y1="92.54" x1="45.448">
   <stop offset="0"/>
   <stop stop-opacity=".58824" offset="1"/>
  </linearGradient>
  <linearGradient id="y" y2="6" xlink:href="#a" gradientUnits="userSpaceOnUse" x2="32.251" gradientTransform="translate(0,1)" y1="90" x1="32.251"/>
  <radialGradient id="j" stop-color="#fff" gradientUnits="userSpaceOnUse" cy="90.172" cx="48" gradientTransform="matrix(1.1573 0 0 .99591 -7.551 .19713)" r="42">
   <stop offset="0"/>
   <stop stop-opacity="0" offset="1"/>
  </radialGradient>
  <linearGradient id="x" y2="63.893" xlink:href="#b" gradientUnits="userSpaceOnUse" x2="36.357" y1="6" x1="36.357"/>
  <linearGradient id="w" y2="5.9877" gradientUnits="userSpaceOnUse" x2="48" y1="90" x1="48">
   <stop stop-color="#505050" offset="0"/>
   <stop stop-color="#8c8c8c" offset="1"/>
  </linearGradient>
  <linearGradient id="v" y2="48" xlink:href="#b" gradientUnits="userSpaceOnUse" x2="48" gradientTransform="matrix(.5 .86603 -.86603 .5 65.569 -17.569)" y1="48" x1="24"/>
  <radialGradient id="i" gradientUnits="userSpaceOnUse" cy="32.695" cx="71.418" gradientTransform="matrix(-4.7004e-8,1.4648,-2.0368,-6.5357e-8,114.59,-87.794)" r="34.449">
   <stop stop-color="#f0f0f0" offset="0"/>
   <stop stop-color="#b4b4b4" offset=".56385"/>
   <stop stop-color="#a0a0a0" offset=".64176"/>
   <stop stop-color="#787878" offset="1"/>
  </radialGradient>
  <linearGradient id="u" y2="80.731" gradientUnits="userSpaceOnUse" x2="74.863" gradientTransform="matrix(.95273 0 0 .95273 -20.042 -14.329)" y1="30.972" x1="74.863">
   <stop stop-color="#6b6b6b" offset="0"/>
   <stop stop-color="#282828" offset="1"/>
  </linearGradient>
  <linearGradient id="t" stop-color="#fff" y2="92.192" gradientUnits="userSpaceOnUse" x2="68.183" gradientTransform="matrix(.14772 0 0 .094815 37.45 39.295)" y1="31.233" x1="67.288">
   <stop offset="0"/>
   <stop stop-opacity="0" offset="1"/>
  </linearGradient>
  <linearGradient id="s" y2="99.174" gradientUnits="userSpaceOnUse" x2="59.141" gradientTransform="matrix(.20841 0 0 .20841 33.116 34.366)" y1="31.833" x1="59.141">
   <stop stop-color="#040404" offset="0"/>
   <stop stop-color="#4b4b4b" offset="1"/>
  </linearGradient>
  <radialGradient id="h" gradientUnits="userSpaceOnUse" cy="80.753" cx="86.75" gradientTransform="matrix(.52178 0 0 .52178 10.735 13.864)" r="34.497">
   <stop stop-color="#eacc72" offset="0"/>
   <stop stop-color="#d49110" offset="1"/>
  </radialGradient>
  <linearGradient id="r" y2="85.062" xlink:href="#b" gradientUnits="userSpaceOnUse" x2="20.179" gradientTransform="matrix(0,1.4359,-1.4297,0,201.62,53.026)" y1="85.062" x1="16"/>
  <linearGradient id="q" y2="85.062" gradientUnits="userSpaceOnUse" x2="20.472" gradientTransform="matrix(0,-2.1538,-2.1447,0,262.43,117.96)" y1="85.062" x1="15.707">
   <stop stop-color="#555" offset="0"/>
   <stop stop-color="#797979" offset=".43958"/>
   <stop stop-color="#999" offset=".57804"/>
   <stop stop-color="#d3d3d3" offset="1"/>
  </linearGradient>
  <linearGradient id="p" y2="85.062" xlink:href="#c" gradientUnits="userSpaceOnUse" x2="20.179" gradientTransform="matrix(0,2.8718,-2.8596,0,323.25,27.05)" y1="85.062" x1="16"/>
  <radialGradient id="g" gradientUnits="userSpaceOnUse" cy="85.062" cx="18.089" gradientTransform="matrix(1.1923 0 0 1.1923 60.923 -33.912)" r="2.0893">
   <stop stop-color="#c1ff97" offset="0"/>
   <stop stop-color="#30c700" offset="1"/>
  </radialGradient>
  <linearGradient id="o" y2="85.062" xlink:href="#c" gradientUnits="userSpaceOnUse" x2="20.179" gradientTransform="matrix(0,1.6709,1.6638,0,-59.04,37.283)" y1="85.062" x1="16"/>
  <linearGradient id="n" y2="5.9996" xlink:href="#a" gradientUnits="userSpaceOnUse" x2="32.251" gradientTransform="matrix(1.0238 0 0 1.0119 -1.1429 .929)" y1="90" x1="32.251"/>
  <linearGradient id="m" y2="90.239" xlink:href="#a" gradientUnits="userSpaceOnUse" x2="32.251" gradientTransform="matrix(1.0238,0,0,-1.0119,-1.1429,98.071)" y1="6.1317" x1="32.251"/>
 </defs>
 <g fill="url(#m)">
  <path opacity="0.08" d="m12 95.031c-5.5111 0-10.031-4.52-10.031-10.031v-71c0-5.5111 4.5202-10.031 10.031-10.031h72c5.5111 0 10.031 4.5202 10.031 10.031v71c0 5.5111-4.5202 10.031-10.031 10.031h-72z"/>
  <path opacity=".1" d="m12 94.031c-4.9716 0-9.0312-4.0596-9.0312-9.0312v-71c0-4.9718 4.0596-9.0314 9.0312-9.0314h72c4.9716 0 9.0312 4.0596 9.0312 9.0312v71c0 4.9716-4.0596 9.0312-9.0312 9.0312h-72z"/>
  <path opacity=".2" d="m12 93c-4.4091 0-8-3.591-8-8v-71c0-4.4091 3.5909-8 8-8h72c4.4091 0 8 3.5909 8 8v71c0 4.4091-3.5909 8-8 8h-72z"/>
 </g>
 <rect opacity=".3" rx="7" ry="7" height="85" width="86" y="7" x="5" fill="url(#n)"/>
 <rect opacity=".45" rx="6" ry="6" height="84" width="84" y="7" x="6" fill="url(#y)"/>
 <rect rx="6" ry="6" height="84" width="84" y="6" x="6" fill="url(#w)"/>
 <path opacity=".35" d="m12 6c-3.324 0-6 2.676-6 6v72c0 0.33472 0.04135 0.6507 0.09375 0.96875 0.0487 0.2956 0.09704 0.59692 0.1875 0.875 0.00988 0.03038 0.020892 0.0636 0.03125 0.09375 0.098865 0.28777 0.23488 0.54745 0.375 0.8125 0.14459 0.27351 0.31562 0.53562 0.5 0.78125 0.18438 0.24564 0.37378 0.47347 0.59375 0.6875 0.43995 0.42806 0.94291 0.81453 1.5 1.0938 0.27854 0.13961 0.57347 0.24695 0.875 0.34375-0.2562-0.10022-0.48671-0.23627-0.71875-0.375-0.00741-0.0044-0.023866 0.0045-0.03125 0-0.0319-0.019-0.0622-0.042-0.0937-0.062-0.1204-0.077-0.231-0.164-0.3437-0.25-0.1062-0.081-0.2133-0.161-0.3126-0.25-0.1778-0.162-0.3473-0.346-0.4999-0.531-0.1075-0.131-0.2183-0.266-0.3124-0.407-0.0251-0.038-0.0385-0.086-0.0626-0.125-0.0647-0.103-0.1302-0.204-0.1874-0.312-0.1011-0.195-0.2057-0.416-0.2813-0.625-0.008-0.022-0.0236-0.041-0.0313-0.063-0.0318-0.092-0.0358-0.187-0.0624-0.281-0.0304-0.107-0.0704-0.203-0.0938-0.313-0.0729-0.341-0.125-0.698-0.125-1.062v-72c0-2.782 2.2182-5 5-5h72c2.7818 0 5 2.2182 5 5v72c0 0.3643-0.05212 0.72099-0.125 1.0625-0.04415 0.20689-0.08838 0.39766-0.15625 0.59375-0.0077 0.02195-0.0233 0.04069-0.03125 0.0625-0.06274 0.17374-0.13838 0.36745-0.21875 0.53125-0.04158 0.0828-0.07904 0.16995-0.125 0.25-0.0546 0.09721-0.12677 0.18835-0.1875 0.28125-0.09411 0.14096-0.20492 0.276-0.3125 0.40625-0.14317 0.17445-0.30314 0.347-0.46875 0.5-0.01117 0.0102-0.01998 0.02115-0.03125 0.03125-0.13839 0.12556-0.28509 0.23444-0.4375 0.34375-0.10257 0.07315-0.20432 0.15336-0.3125 0.21875-0.0074 0.0045-0.02384-0.0044-0.03125 0-0.23204 0.13873-0.46255 0.27478-0.71875 0.375 0.30153-0.0968 0.59646-0.20414 0.875-0.34375 0.55709-0.27922 1.0601-0.66569 1.5-1.0938 0.21997-0.21403 0.40937-0.44186 0.59375-0.6875s0.35541-0.50774 0.5-0.78125c0.14012-0.26505 0.27614-0.52473 0.375-0.8125 0.01041-0.03078 0.02133-0.06274 0.03125-0.09375 0.09046-0.27808 0.1388-0.5794 0.1875-0.875 0.053-0.318 0.094-0.634 0.094-0.969v-72c0-3.324-2.676-6-6-6h-72z" fill="url(#x)"/>
 <path opacity=".2" d="m12 90c-3.324 0-6-2.676-6-6v-72c0-0.33472 0.04135-0.6507 0.09375-0.96875 0.0487-0.2956 0.09704-0.59692 0.1875-0.875 0.0099-0.03 0.0209-0.063 0.0313-0.094 0.0989-0.2873 0.2349-0.547 0.375-0.812 0.1446-0.2735 0.3156-0.5356 0.5-0.7812 0.1844-0.2457 0.3738-0.4735 0.5937-0.6876 0.44-0.428 0.943-0.8145 1.5-1.0937 0.2786-0.1396 0.5735-0.2469 0.8748-0.3437-0.256 0.1002-0.4865 0.2362-0.7185 0.375-0.00741 0.0044-0.023866-0.0045-0.03125 0-0.031933 0.0193-0.062293 0.04251-0.09375 0.0625-0.1204 0.0767-0.23102 0.16351-0.34375 0.25-0.10617 0.0808-0.21328 0.16111-0.3125 0.25-0.1779 0.1614-0.3474 0.3453-0.5 0.5312-0.1075 0.1303-0.2183 0.2653-0.3124 0.4063-0.0251 0.0383-0.0385 0.0858-0.0626 0.125-0.0647 0.103-0.1302 0.2045-0.1874 0.3124-0.1011 0.1948-0.2057 0.4158-0.2813 0.625-0.008 0.0219-0.0236 0.0406-0.0313 0.0626-0.0318 0.0919-0.0358 0.1868-0.0624 0.2812-0.0304 0.1066-0.0704 0.203-0.0938 0.3125-0.0729 0.3415-0.125 0.6985-0.125 1.0625v72c0 2.7818 2.2182 5 5 5h72c2.7818 0 5-2.2182 5-5v-72c0-0.364-0.052-0.721-0.125-1.0625-0.044-0.2069-0.088-0.3977-0.156-0.5937-0.008-0.022-0.024-0.0407-0.031-0.0626-0.063-0.1737-0.139-0.3674-0.219-0.5312-0.042-0.0828-0.079-0.17-0.125-0.25-0.055-0.0972-0.127-0.1884-0.188-0.2812-0.094-0.141-0.205-0.276-0.312-0.4063-0.143-0.1745-0.303-0.347-0.469-0.5-0.011-0.0102-0.02-0.0211-0.031-0.0313-0.139-0.1255-0.285-0.2344-0.438-0.3437-0.102-0.0731-0.204-0.1534-0.312-0.2187-0.0074-0.0045-0.02384 0.0044-0.03125 0-0.23204-0.13873-0.46255-0.27478-0.71875-0.375 0.30153 0.0968 0.59646 0.20414 0.875 0.34375 0.55709 0.27922 1.0601 0.66569 1.5 1.0938 0.21997 0.21403 0.40937 0.44186 0.59375 0.6875s0.35541 0.50774 0.5 0.78125c0.14012 0.26505 0.27614 0.52473 0.375 0.8125 0.01041 0.03078 0.02133 0.06274 0.03125 0.09375 0.09046 0.27808 0.1388 0.5794 0.1875 0.875 0.053 0.318 0.094 0.634 0.094 0.969v72c0 3.324-2.676 6-6 6h-72z" fill="url(#j)"/>
 <rect opacity=".15" clip-path="url(#d)" rx="12" ry="12" height="66" filter="url(#e)" width="66" stroke="#fff" stroke-linecap="round" y="15" x="15" stroke-width=".5" fill="url(#f)"/>
 <path opacity=".05" d="m47.999 13.924c-19.335 0-35.074 15.738-35.074 35.074 0 19.335 15.738 35.074 35.074 35.074 19.335 0 35.074-15.738 35.074-35.074 0-19.335-15.738-35.074-35.074-35.074z"/>
 <path opacity=".1" d="m47.999 15.021c-18.748 0-33.976 15.228-33.976 33.976s15.228 33.976 33.976 33.976 33.976-15.228 33.976-33.976-15.228-33.976-33.976-33.976z"/>
 <path opacity=".15" d="m47.999 15.962c-18.235 0-33.034 14.8-33.034 33.034 0 18.235 14.8 33.034 33.034 33.034 18.235 0 33.034-14.8 33.034-33.034 0-18.235-14.8-33.034-33.034-33.034z"/>
 <path opacity=".3" d="m79.996 48.998a31.998 31.998 0 0 1 -63.997 0 31.998 31.998 0 1 1 63.997 0z"/>
 <g fill-rule="evenodd">
  <path stroke-linejoin="round" d="m48 16c-17.673 0-32 14.327-32 32s14.327 32 32 32 32-14.327 32-32-14.327-32-32-32zm0 8c13.255 0 24 10.745 24 24s-10.745 24-24 24-24-10.745-24-24 10.745-24 24-24z" stroke="url(#u)" fill="url(#i)"/>
  <path fill="#323232" d="m73.003 48a25 25 0 1 1 -50 0 25 25 0 1 1 50 0z"/>
  <path opacity=".6" d="m68.785 36c-6.628-11.479-21.306-15.412-32.785-8.785-11.479 6.628-15.412 21.306-8.785 32.785 6.628 11.479 21.306 15.412 32.785 8.785 11.479-6.628 15.412-21.306 8.785-32.785zm-3.4641 2c5.522 9.566 2.245 21.798-7.321 27.321-9.566 5.522-21.798 2.245-27.321-7.321-5.522-9.566-2.245-21.798 7.321-27.321 9.566-5.522 21.798-2.245 27.321 7.321z" fill="url(#v)"/>
  <path opacity=".15" d="m48 23c-13.807 0-25 11.193-25 25s11.193 25 25 25 25-11.193 25-25-11.193-25-25-25zm0 3c12.179 0 22 9.821 22 22s-9.821 22-22 22-22-9.821-22-22 9.821-22 22-22zm0 1c-11.57 0-21 9.43-21 21s9.43 21 21 21 21-9.43 21-21-9.43-21-21-21zm0 3c9.9411 0 18 8.0589 18 18s-8.0589 18-18 18-18-8.0589-18-18 8.0589-18 18-18z"/>
  <path opacity=".3" d="m48 23c-13.807 0-25 11.193-25 25s11.193 25 25 25 25-11.193 25-25-11.193-25-25-25zm0 1.9688c12.738 0 23.031 10.293 23.031 23.031s-10.293 23.031-23.031 23.031-23.031-10.293-23.031-23.031 10.293-23.031 23.031-23.031zm0 3.0625c-11.01 0-19.969 8.9584-19.969 19.969 0 11.01 8.9584 19.969 19.969 19.969 11.01 0 19.969-8.9584 19.969-19.969 0-11.01-8.9584-19.969-19.969-19.969zm0 1.968c9.9411 0 18 8.0589 18 18s-8.0589 18-18 18-18-8.0589-18-18 8.0589-18 18-18z"/>
  <path opacity=".5" d="m48 23c-13.807 0-25 11.193-25 25s11.193 25 25 25 25-11.193 25-25-11.193-25-25-25zm0 1c13.273 0 24 10.727 24 24s-10.727 24-24 24-24-10.727-24-24 10.727-24 24-24zm0 5c-10.476 0-19 8.524-19 19s8.524 19 19 19 19-8.524 19-19-8.524-19-19-19zm0 1c9.9411 0 18 8.0589 18 18s-8.0589 18-18 18-18-8.0589-18-18 8.0589-18 18-18z"/>
  <path stroke-linejoin="round" d="m65.527 47.999a17.526 17.526 0 1 1 -35.051 0 17.526 17.526 0 1 1 35.051 0z" stroke="#c2c2c2" stroke-width="2" fill="url(#h)"/>
  <path fill="url(#s)" d="m55.001 48a7.0001 7.0001 0 1 1 -14 0 7.0001 7.0001 0 1 1 14 0z"/>
  <path opacity=".8" d="m52.962 45.498a4.9616 3.1846 0 1 1 -9.9231 0 4.9616 3.1846 0 1 1 9.9231 0z" fill="url(#t)"/>
  <path opacity=".3" d="m22 48.5c-0.0031 0.16613 0 0.33312 0 0.5 0 14.359 11.641 26 26 26s26-11.641 26-26c0-0.16688 0.0031-0.33387 0-0.5-0.266 14.129-11.807 25.5-26 25.5s-25.734-11.371-26-25.5z" fill="#fff"/>
 </g>
 <path d="m63 48a15 15 0 1 1 -30 0 15 15 0 1 1 30 0z" transform="matrix(.48333 .83716 -.83716 .48333 64.984 -15.384)" stroke-dashoffset="8.6" stroke="url(#l)" stroke-linecap="round" stroke-width="1.0345" fill="none"/>
 <path d="m63 48a15 15 0 1 1 -30 0 15 15 0 1 1 30 0z" transform="matrix(.38333 .66395 -.66395 .38333 61.47 -2.2697)" stroke-dashoffset="8.6" stroke="url(#k)" stroke-linecap="round" stroke-width="1.3043" fill="none"/>
 <path opacity=".4" d="m41.349 52.417c0.07467 0.15025 0.13789 0.30133 0.22294 0.44864 2.2091 3.8263 7.1019 5.1373 10.928 2.9282 3.8263-2.2091 5.1373-7.1019 2.9282-10.928-0.08505-0.1473-0.18428-0.2776-0.27706-0.41739 1.8649 3.7526 0.5279 8.3555-3.1511 10.48-3.679 2.1241-8.3337 0.98058-10.651-2.5108z" fill-rule="evenodd" fill="#fff"/>
 <path opacity=".4" d="m54.651 43.583c-0.075-0.151-0.138-0.302-0.223-0.449-2.209-3.826-7.102-5.137-10.928-2.928-3.8263 2.2091-5.1373 7.1019-2.9282 10.928 0.08505 0.1473 0.18428 0.2776 0.27706 0.41739-1.865-3.752-0.528-8.355 3.151-10.479 3.679-2.1241 8.3337-0.98058 10.651 2.5108z" fill-rule="evenodd" fill="#a40"/>
 <path d="m80.007 85a6 6.0001 0 1 1 0 -12 6 6.0001 0 1 1 0 12z" fill="url(#p)"/>
 <path opacity=".6" d="m79.997 73.998a5 5.0001 0 1 0 0 10 5 5.0001 0 1 0 0 -10z"/>
 <path d="m79.998 74.498a4.5 4.4999 0 1 0 0 8.9999 4.5 4.4999 0 1 0 0 -8.9999z" fill="url(#q)"/>
 <path opacity=".8" d="m80.007 82.001a2.9998 3 0 1 1 0 -6.0001 2.9998 3 0 1 1 0 6.0001z" fill="url(#r)"/>
 <path d="m82.486 71a3.491 3.491 0 1 0 0 -6.982 3.491 3.491 0 1 0 0 6.982z" fill="url(#o)"/>
 <path d="m84.983 67.506a2.4911 2.491 0 1 1 -4.9821 0 2.4911 2.491 0 1 1 4.9821 0z" stroke-opacity="0.53" stroke="#000" stroke-linecap="square" fill="url(#g)"/>
</svg>
