<?xml version="1.0" encoding="UTF-8" standalone="no"?>
<!-- Created with Inkscape (http://www.inkscape.org/) -->

<svg
   xmlns:svg="http://www.w3.org/2000/svg"
   xmlns="http://www.w3.org/2000/svg"
   xmlns:xlink="http://www.w3.org/1999/xlink"
   version="1.0"
   width="96"
   height="96"
   id="svg2408"
   style="display:inline">
  <defs
     id="defs2410">
    <linearGradient
       id="linearGradient3637">
      <stop
         id="stop3639"
         style="stop-color:#f0f0f0;stop-opacity:1"
         offset="0" />
      <stop
         id="stop3641"
         style="stop-color:#dcdcdc;stop-opacity:1"
         offset="1" />
    </linearGradient>
    <linearGradient
       x1="45.447727"
       y1="92.539597"
       x2="45.447727"
       y2="7.0165396"
       id="ButtonShadow"
       gradientUnits="userSpaceOnUse"
       gradientTransform="scale(1.0058652,0.994169)">
      <stop
         id="stop3750"
         style="stop-color:#000000;stop-opacity:1"
         offset="0" />
      <stop
         id="stop3752"
         style="stop-color:#000000;stop-opacity:0.58823532"
         offset="1" />
    </linearGradient>
    <linearGradient
       id="linearGradient3737">
      <stop
         id="stop3739"
         style="stop-color:#ffffff;stop-opacity:1"
         offset="0" />
      <stop
         id="stop3741"
         style="stop-color:#ffffff;stop-opacity:0"
         offset="1" />
    </linearGradient>
    <linearGradient
       id="linearGradient3700">
      <stop
         id="stop3702"
         style="stop-color:#2276c5;stop-opacity:1"
         offset="0" />
      <stop
         id="stop3704"
         style="stop-color:#68baf4;stop-opacity:1"
         offset="1" />
    </linearGradient>
    <filter
       color-interpolation-filters="sRGB"
       id="filter3174">
      <feGaussianBlur
         id="feGaussianBlur3176"
         stdDeviation="1.71" />
    </filter>
    <linearGradient
       x1="36.357143"
       y1="6"
       x2="36.357143"
       y2="63.893143"
       id="linearGradient3188"
       xlink:href="#linearGradient3737"
       gradientUnits="userSpaceOnUse" />
    <radialGradient
       cx="48"
       cy="90.171875"
       r="42"
       fx="48"
       fy="90.171875"
       id="radialGradient3619"
       xlink:href="#linearGradient3737"
       gradientUnits="userSpaceOnUse"
       gradientTransform="matrix(1.1573129,0,0,0.99590774,-7.5510206,0.19713193)" />
    <linearGradient
       x1="48"
       y1="90"
       x2="48"
       y2="5.9877172"
       id="linearGradient2843"
       xlink:href="#linearGradient3700"
       gradientUnits="userSpaceOnUse"
       gradientTransform="translate(0,100)" />
    <clipPath
       id="clipPath3625">
      <path
         d="M 0,0 0,96 96,96 96,0 0,0 z m 12,6 72,0 c 3.324,0 6,2.676 6,6 l 0,72 c 0,3.324 -2.676,6 -6,6 L 12,90 C 8.676,90 6,87.324 6,84 L 6,12 C 6,8.676 8.676,6 12,6 z"
         id="path3627"
         style="fill:#ffffff;fill-opacity:1;stroke:none" />
    </clipPath>
    <linearGradient
       x1="44.512066"
       y1="6"
       x2="44.512066"
       y2="90.015434"
       id="linearGradient3643"
       xlink:href="#linearGradient3637"
       gradientUnits="userSpaceOnUse" />
    <clipPath
       id="clipPath3649">
      <rect
         width="76"
         height="76"
         rx="4"
         ry="4"
         x="10"
         y="10"
         id="rect3651"
         style="fill:#ffffff;fill-opacity:1;fill-rule:nonzero;stroke:none" />
    </clipPath>
    <filter
       color-interpolation-filters="sRGB"
       id="filter3657">
      <feGaussianBlur
         id="feGaussianBlur3659"
         stdDeviation="1.14" />
    </filter>
    <linearGradient
       id="linearGradient4081">
      <stop
         id="stop4083"
         style="stop-color:#aaaaaa;stop-opacity:1"
         offset="0" />
      <stop
         id="stop4085"
         style="stop-color:#f0f0f0;stop-opacity:1"
         offset="1" />
    </linearGradient>
    <linearGradient
       x1="29.826593"
       y1="51.954468"
       x2="65.693901"
       y2="51.954468"
       id="linearGradient3034"
       xlink:href="#linearGradient4081"
       gradientUnits="userSpaceOnUse"
       gradientTransform="matrix(0,-1,-1,0,96,16)" />
    <linearGradient
       x1="29.826593"
       y1="51.954468"
       x2="65.693901"
       y2="51.954468"
       id="linearGradient3705"
       xlink:href="#linearGradient4081"
       gradientUnits="userSpaceOnUse"
       gradientTransform="matrix(0,-1,-1,0,36,16)" />
    <linearGradient
       x1="56"
       y1="72"
       x2="56"
       y2="24"
       id="linearGradient3728"
       xlink:href="#linearGradient4081"
       gradientUnits="userSpaceOnUse" />
  </defs>
  <g
     id="layer2"
     style="display:inline">
    <rect
       width="86"
       height="85"
       rx="6"
       ry="6"
       x="5"
       y="7"
       clip-path="url(#clipPath3625)"
       id="rect3745"
       style="opacity:0.9;fill:url(#ButtonShadow);fill-opacity:1;fill-rule:nonzero;stroke:none;filter:url(#filter3174)" />
  </g>
  <g
     id="layer1">
    <rect
       width="84"
       height="84"
       rx="6"
       ry="6"
       x="6"
       y="6"
       id="rect2419"
       style="opacity:0.7;fill:#000000;fill-opacity:1;fill-rule:nonzero;stroke:none" />
    <path
       d="m 14,10 c -2.216,0 -4,1.784 -4,4 l 0,68 c 0,2.216 1.784,4 4,4 l 68,0 c 2.216,0 4,-1.784 4,-4 l 0,-68 c 0,-2.216 -1.784,-4 -4,-4 l -68,0 z m 0,3.0625 68,0 c 0.578769,0 0.9375,0.358731 0.9375,0.9375 l 0,68 c 0,0.578769 -0.358731,0.9375 -0.9375,0.9375 l -68,0 c -0.578769,0 -0.9375,-0.358731 -0.9375,-0.9375 l 0,-68 c 0,-0.578769 0.358731,-0.9375 0.9375,-0.9375 z"
       id="rect3726"
       style="opacity:0.07999998;fill:#000000;fill-opacity:1;fill-rule:nonzero;stroke:none" />
    <path
       d="M 12,6 C 8.676,6 6,8.676 6,12 l 0,72 c 0,3.324 2.676,6 6,6 l 72,0 c 3.324,0 6,-2.676 6,-6 L 90,12 C 90,8.676 87.324,6 84,6 L 12,6 z m 2,4 68,0 c 2.216,0 4,1.784 4,4 l 0,68 c 0,2.216 -1.784,4 -4,4 l -68,0 c -2.216,0 -4,-1.784 -4,-4 l 0,-68 c 0,-2.216 1.784,-4 4,-4 z"
       id="rect3629"
       style="fill:url(#linearGradient3643);fill-opacity:1;fill-rule:nonzero;stroke:none" />
    <path
       d="M 12,6 C 8.676,6 6,8.676 6,12 l 0,2 0,68 0,2 c 0,0.334721 0.04135,0.6507 0.09375,0.96875 0.0487,0.295596 0.09704,0.596915 0.1875,0.875 0.00988,0.03038 0.020892,0.0636 0.03125,0.09375 0.098865,0.287771 0.2348802,0.547452 0.375,0.8125 0.1445918,0.273507 0.3156161,0.535615 0.5,0.78125 0.1843839,0.245635 0.3737765,0.473472 0.59375,0.6875 0.439947,0.428056 0.94291,0.814526 1.5,1.09375 0.278545,0.139612 0.5734731,0.246947 0.875,0.34375 -0.2562018,-0.100222 -0.4867109,-0.236272 -0.71875,-0.375 -0.00741,-0.0044 -0.023866,0.0045 -0.03125,0 -0.031933,-0.0193 -0.062293,-0.04251 -0.09375,-0.0625 -0.120395,-0.0767 -0.2310226,-0.163513 -0.34375,-0.25 -0.1061728,-0.0808 -0.2132809,-0.161112 -0.3125,-0.25 C 8.4783201,88.557317 8.3087904,88.373362 8.15625,88.1875 8.0486711,88.057245 7.9378561,87.922215 7.84375,87.78125 7.818661,87.74287 7.805304,87.69538 7.78125,87.65625 7.716487,87.553218 7.6510225,87.451733 7.59375,87.34375 7.4927417,87.149044 7.3880752,86.928049 7.3125,86.71875 7.30454,86.69694 7.288911,86.6782 7.28125,86.65625 7.2494249,86.5643 7.2454455,86.469419 7.21875,86.375 7.1884177,86.268382 7.1483606,86.171969 7.125,86.0625 7.0521214,85.720988 7,85.364295 7,85 L 7,83 7,15 7,13 C 7,10.218152 9.2181517,8 12,8 l 2,0 68,0 2,0 c 2.781848,0 5,2.218152 5,5 l 0,2 0,68 0,2 c 0,0.364295 -0.05212,0.720988 -0.125,1.0625 -0.04415,0.206893 -0.08838,0.397658 -0.15625,0.59375 -0.0077,0.02195 -0.0233,0.04069 -0.03125,0.0625 -0.06274,0.173739 -0.138383,0.367449 -0.21875,0.53125 -0.04158,0.0828 -0.07904,0.169954 -0.125,0.25 -0.0546,0.09721 -0.126774,0.18835 -0.1875,0.28125 -0.09411,0.140965 -0.204921,0.275995 -0.3125,0.40625 -0.143174,0.17445 -0.303141,0.346998 -0.46875,0.5 -0.01117,0.0102 -0.01998,0.02115 -0.03125,0.03125 -0.138386,0.125556 -0.285091,0.234436 -0.4375,0.34375 -0.102571,0.07315 -0.204318,0.153364 -0.3125,0.21875 -0.0074,0.0045 -0.02384,-0.0044 -0.03125,0 -0.232039,0.138728 -0.462548,0.274778 -0.71875,0.375 0.301527,-0.0968 0.596455,-0.204138 0.875,-0.34375 0.55709,-0.279224 1.060053,-0.665694 1.5,-1.09375 0.219973,-0.214028 0.409366,-0.441865 0.59375,-0.6875 0.184384,-0.245635 0.355408,-0.507743 0.5,-0.78125 0.14012,-0.265048 0.276135,-0.524729 0.375,-0.8125 0.01041,-0.03078 0.02133,-0.06274 0.03125,-0.09375 0.09046,-0.278085 0.1388,-0.579404 0.1875,-0.875 C 89.95865,84.6507 90,84.334721 90,84 l 0,-2 0,-68 0,-2 C 90,8.676 87.324,6 84,6 L 12,6 z"
       id="rect3728"
       style="fill:url(#linearGradient3188);fill-opacity:1;fill-rule:nonzero;stroke:none" />
    <path
       d="M 12,90 C 8.676,90 6,87.324 6,84 L 6,82 6,14 6,12 c 0,-0.334721 0.04135,-0.6507 0.09375,-0.96875 0.0487,-0.295596 0.09704,-0.596915 0.1875,-0.875 C 6.29113,10.12587 6.302142,10.09265 6.3125,10.0625 6.411365,9.774729 6.5473802,9.515048 6.6875,9.25 6.8320918,8.976493 7.0031161,8.714385 7.1875,8.46875 7.3718839,8.223115 7.5612765,7.995278 7.78125,7.78125 8.221197,7.353194 8.72416,6.966724 9.28125,6.6875 9.559795,6.547888 9.8547231,6.440553 10.15625,6.34375 9.9000482,6.443972 9.6695391,6.580022 9.4375,6.71875 c -0.00741,0.0044 -0.023866,-0.0045 -0.03125,0 -0.031933,0.0193 -0.062293,0.04251 -0.09375,0.0625 -0.120395,0.0767 -0.2310226,0.163513 -0.34375,0.25 -0.1061728,0.0808 -0.2132809,0.161112 -0.3125,0.25 C 8.4783201,7.442683 8.3087904,7.626638 8.15625,7.8125 8.0486711,7.942755 7.9378561,8.077785 7.84375,8.21875 7.818661,8.25713 7.805304,8.30462 7.78125,8.34375 7.716487,8.446782 7.6510225,8.548267 7.59375,8.65625 7.4927417,8.850956 7.3880752,9.071951 7.3125,9.28125 7.30454,9.30306 7.288911,9.3218 7.28125,9.34375 7.2494249,9.4357 7.2454455,9.530581 7.21875,9.625 7.1884177,9.731618 7.1483606,9.828031 7.125,9.9375 7.0521214,10.279012 7,10.635705 7,11 l 0,2 0,68 0,2 c 0,2.781848 2.2181517,5 5,5 l 2,0 68,0 2,0 c 2.781848,0 5,-2.218152 5,-5 l 0,-2 0,-68 0,-2 C 89,10.635705 88.94788,10.279012 88.875,9.9375 88.83085,9.730607 88.78662,9.539842 88.71875,9.34375 88.71105,9.3218 88.69545,9.30306 88.6875,9.28125 88.62476,9.107511 88.549117,8.913801 88.46875,8.75 88.42717,8.6672 88.38971,8.580046 88.34375,8.5 88.28915,8.40279 88.216976,8.31165 88.15625,8.21875 88.06214,8.077785 87.951329,7.942755 87.84375,7.8125 87.700576,7.63805 87.540609,7.465502 87.375,7.3125 87.36383,7.3023 87.35502,7.29135 87.34375,7.28125 87.205364,7.155694 87.058659,7.046814 86.90625,6.9375 86.803679,6.86435 86.701932,6.784136 86.59375,6.71875 c -0.0074,-0.0045 -0.02384,0.0044 -0.03125,0 -0.232039,-0.138728 -0.462548,-0.274778 -0.71875,-0.375 0.301527,0.0968 0.596455,0.204138 0.875,0.34375 0.55709,0.279224 1.060053,0.665694 1.5,1.09375 0.219973,0.214028 0.409366,0.441865 0.59375,0.6875 0.184384,0.245635 0.355408,0.507743 0.5,0.78125 0.14012,0.265048 0.276135,0.524729 0.375,0.8125 0.01041,0.03078 0.02133,0.06274 0.03125,0.09375 0.09046,0.278085 0.1388,0.579404 0.1875,0.875 C 89.95865,11.3493 90,11.665279 90,12 l 0,2 0,68 0,2 c 0,3.324 -2.676,6 -6,6 l -72,0 z"
       id="path3615"
       style="opacity:0.6;fill:url(#radialGradient3619);fill-opacity:1;fill-rule:nonzero;stroke:none" />
    <rect
       width="84"
       height="84"
       rx="6"
       ry="6"
       x="6"
       y="106"
       id="rect2841"
       style="fill:url(#linearGradient2843);fill-opacity:1;fill-rule:nonzero;stroke:none" />
    <rect
       width="76"
       height="76"
       rx="4"
       ry="4"
       x="10"
       y="110"
       id="rect3634"
       style="fill:#ff0000;fill-opacity:1;fill-rule:nonzero;stroke:none" />
    <path
       d="m 14,9 c -2.752703,0 -5,2.247297 -5,5 l 0,68 c 0,2.752703 2.247297,5 5,5 l 68,0 c 2.752703,0 5,-2.247297 5,-5 L 87,14 C 87,11.247297 84.752703,9 82,9 L 14,9 z m 0,2 68,0 c 1.679297,0 3,1.320703 3,3 l 0,68 c 0,1.679297 -1.320703,3 -3,3 l -68,0 c -1.679297,0 -3,-1.320703 -3,-3 l 0,-68 c 0,-1.679297 1.320703,-3 3,-3 z"
       transform="translate(-110,0)"
       clip-path="url(#clipPath3649)"
       id="rect3647"
       style="font-size:medium;font-style:normal;font-variant:normal;font-weight:normal;font-stretch:normal;text-indent:0;text-align:start;text-decoration:none;line-height:normal;letter-spacing:normal;word-spacing:normal;text-transform:none;direction:ltr;block-progression:tb;writing-mode:lr-tb;text-anchor:start;color:#000000;fill:#000000;fill-opacity:1;stroke:none;stroke-width:2;marker:none;visibility:visible;display:inline;overflow:visible;filter:url(#filter3657);enable-background:accumulate;font-family:Abandoned Bitplane;-inkscape-font-specification:Abandoned Bitplane" />
    <path
       d="m 14.089286,10 c -2.216,0 -4,1.784 -4,4 l 0,68 c 0,2.216 1.784,4 4,4 l 68,0 c 2.216,0 4,-1.784 4,-4 l 0,-68 c 0,-2.216 -1.784,-4 -4,-4 l -68,0 z m 0,2 68,0 c 1.140301,0 2,0.859699 2,2 l 0,68 c 0,1.140301 -0.859699,2 -2,2 l -68,0 c -1.140301,0 -2,-0.859699 -2,-2 l 0,-68 c 0,-1.140301 0.859699,-2 2,-2 z"
       id="path3709"
       style="opacity:0.16000001;fill:#000000;fill-opacity:1;fill-rule:nonzero;stroke:none" />
    <path
       d="m 14,10 c -2.216,0 -4,1.784 -4,4 l 0,68 c 0,2.216 1.784,4 4,4 l 68,0 c 2.216,0 4,-1.784 4,-4 l 0,-68 c 0,-2.216 -1.784,-4 -4,-4 l -68,0 z m 0,1 68,0 c 1.673848,0 3,1.326152 3,3 l 0,68 c 0,1.673848 -1.326152,3 -3,3 l -68,0 c -1.673848,0 -3,-1.326152 -3,-3 l 0,-68 c 0,-1.673848 1.326152,-3 3,-3 z"
       id="path3707"
       style="opacity:0.36000001;fill:#000000;fill-opacity:1;fill-rule:nonzero;stroke:none" />
  </g>
  <g
     id="layer3"
     style="display:inline">
    <path
       d="M 48,22.90625 C 33.610479,22.90625 21.90625,34.610479 21.90625,49 21.90625,63.389521 33.610479,75.09375 48,75.09375 62.389521,75.09375 74.09375,63.389521 74.09375,49 74.09375,34.610479 62.389521,22.90625 48,22.90625 z"
       id="path3730"
       style="opacity:0.1;fill:#000000;fill-opacity:1;stroke:none" />
    <path
       d="M 48,23.90625 C 34.159274,23.90625 22.90625,35.159274 22.90625,49 22.90625,62.840726 34.159274,74.09375 48,74.09375 61.840726,74.09375 73.09375,62.840726 73.09375,49 73.09375,35.159274 61.840726,23.90625 48,23.90625 z m -0.90625,10.1875 1.8125,0 0,7.96875 C 48.601001,42.021832 48.315851,41.90625 48,41.90625 c -0.315851,0 -0.601001,0.115582 -0.90625,0.15625 l 0,-7.96875 z m -9,3.75 5.625,5.625 c -0.473504,0.366245 -0.883755,0.776496 -1.25,1.25 l -5.625,-5.625 1.25,-1.25 z m 19.8125,0 1.25,1.25 -5.625,5.625 c -0.366245,-0.473504 -0.776496,-0.883755 -1.25,-1.25 l 5.625,-5.625 z m -24.8125,10.25 7.96875,0 c -0.04067,0.305249 -0.15625,0.590399 -0.15625,0.90625 0,0.315851 0.115582,0.601001 0.15625,0.90625 l -7.96875,0 0,-1.8125 z m 21.84375,0 7.96875,0 0,1.8125 -7.96875,0 c 0.04067,-0.305249 0.15625,-0.590399 0.15625,-0.90625 0,-0.315851 -0.115582,-0.601001 -0.15625,-0.90625 z m -12.46875,5.1875 c 0.366245,0.473504 0.776496,0.883755 1.25,1.25 l -5.625,5.625 -1.25,-1.25 5.625,-5.625 z m 11.0625,0 5.625,5.625 -1.25,1.25 -5.625,-5.625 c 0.473504,-0.366245 0.883755,-0.776496 1.25,-1.25 z m -6.4375,2.65625 c 0.305249,0.04067 0.590399,0.15625 0.90625,0.15625 0.315851,0 0.601001,-0.115582 0.90625,-0.15625 l 0,7.96875 -1.8125,0 0,-7.96875 z"
       id="path3726"
       style="opacity:0.15;fill:#000000;fill-opacity:1;stroke:none" />
    <path
       d="M 48,25 C 34.745166,25 24,35.745166 24,49 24,62.254834 34.745166,73 48,73 61.254834,73 72,62.254834 72,49 72,35.745166 61.254834,25 48,25 z m -2,8 4,0 0,10.34375 C 49.374865,43.122984 48.700711,43 48,43 c -0.700711,0 -1.374865,0.122984 -2,0.34375 L 46,33 z m -7.90625,3.28125 7.3125,7.3125 c -1.234112,0.59109 -2.22141,1.578388 -2.8125,2.8125 l -7.3125,-7.3125 2.8125,-2.8125 z m 19.8125,0 2.8125,2.8125 -7.3125,7.3125 c -0.59109,-1.234112 -1.578388,-2.22141 -2.8125,-2.8125 l 7.3125,-7.3125 z M 32,47 42.34375,47 C 42.122984,47.625135 42,48.299289 42,49 c 0,0.700711 0.122984,1.374865 0.34375,2 L 32,51 32,47 z M 53.65625,47 64,47 64,51 53.65625,51 C 53.877016,50.374865 54,49.700711 54,49 54,48.299289 53.877016,47.625135 53.65625,47 z m -11.0625,4.59375 c 0.59109,1.234112 1.578388,2.22141 2.8125,2.8125 l -7.3125,7.3125 -2.8125,-2.8125 7.3125,-7.3125 z m 10.8125,0 7.3125,7.3125 -2.8125,2.8125 -7.3125,-7.3125 c 1.234112,-0.59109 2.22141,-1.578388 2.8125,-2.8125 z M 46,54.65625 C 46.625135,54.877016 47.299289,55 48,55 c 0.700711,0 1.374865,-0.122984 2,-0.34375 L 50,65 46,65 46,54.65625 z"
       id="path3720"
       style="opacity:0.3;fill:#000000;fill-opacity:1;stroke:none" />
    <path
       d="M 48,24 C 34.745166,24 24,34.745166 24,48 24,61.254834 34.745166,72 48,72 61.254834,72 72,61.254834 72,48 72,34.745166 61.254834,24 48,24 z m -2,8 4,0 0,10.34375 C 49.374865,42.122984 48.700711,42 48,42 c -0.700711,0 -1.374865,0.122984 -2,0.34375 L 46,32 z m -7.90625,3.28125 7.3125,7.3125 c -1.234112,0.59109 -2.22141,1.578388 -2.8125,2.8125 l -7.3125,-7.3125 2.8125,-2.8125 z m 19.8125,0 2.8125,2.8125 -7.3125,7.3125 c -0.59109,-1.234112 -1.578388,-2.22141 -2.8125,-2.8125 l 7.3125,-7.3125 z M 32,46 42.34375,46 C 42.122984,46.625135 42,47.299289 42,48 c 0,0.700711 0.122984,1.374865 0.34375,2 L 32,50 32,46 z M 53.65625,46 64,46 64,50 53.65625,50 C 53.877016,49.374865 54,48.700711 54,48 54,47.299289 53.877016,46.625135 53.65625,46 z m -11.0625,4.59375 c 0.59109,1.234112 1.578388,2.22141 2.8125,2.8125 l -7.3125,7.3125 -2.8125,-2.8125 7.3125,-7.3125 z m 10.8125,0 7.3125,7.3125 -2.8125,2.8125 -7.3125,-7.3125 c 1.234112,-0.59109 2.22141,-1.578388 2.8125,-2.8125 z M 46,53.65625 C 46.625135,53.877016 47.299289,54 48,54 c 0.700711,0 1.374865,-0.122984 2,-0.34375 L 50,64 46,64 46,53.65625 z"
       id="path2928"
       style="fill:url(#linearGradient3728);fill-opacity:1;stroke:none" />
    <path
       d="m 48,29.03125 c -11.013467,0 -19.96875,8.955283 -19.96875,19.96875 0,11.013465 8.955282,19.96875 19.96875,19.96875 7.820954,0 14.601995,-4.492633 17.875,-11.0625 0.0032,-0.0064 0.02845,-0.118417 0.03125,-0.125 0.0028,-0.0066 0.06012,-0.118253 0.0625,-0.125 0.0024,-0.0067 0.0293,-0.08687 0.03125,-0.09375 0.0019,-0.0069 0.02974,-0.118006 0.03125,-0.125 0.0087,0.03386 0.02944,0.118959 0.03125,0.125 0.0022,0.0075 0.05975,0.117693 0.0625,0.125 0.0027,0.0073 0.028,0.1179 0.03125,0.125 0.0032,0.0071 0.05877,0.118142 0.0625,0.125 0.0037,0.0069 0.08956,0.118416 0.09375,0.125 0.0042,0.0066 0.05786,0.08747 0.0625,0.09375 0.0046,0.0063 0.08869,0.119057 0.09375,0.125 0.0051,0.0059 0.08829,0.08817 0.09375,0.09375 0.0055,0.0056 0.08792,0.08856 0.09375,0.09375 0.0058,0.0052 0.08757,0.08898 0.09375,0.09375 0.0062,0.0048 0.118508,0.05817 0.125,0.0625 0.0065,0.0043 0.118223,0.08987 0.125,0.09375 0.0068,0.0039 0.117972,0.0591 0.125,0.0625 0.007,0.0034 0.117754,0.0596 0.125,0.0625 0.0072,0.0029 0.11757,0.02886 0.125,0.03125 0.0074,0.0024 0.117423,0.02937 0.125,0.03125 0.0076,0.0019 0.117311,0.0299 0.125,0.03125 0.0077,0.0013 0.148486,0.03044 0.15625,0.03125 0.0078,8.13e-4 0.117199,-2.74e-4 0.125,0 0.0078,2.74e-4 0.117198,2.66e-4 0.125,0 0.0078,-2.66e-4 0.148486,8.05e-4 0.15625,0 0.0078,-8.05e-4 0.11731,-0.02991 0.125,-0.03125 0.0077,-0.0013 0.117421,-0.02938 0.125,-0.03125 0.0076,-0.0019 0.148818,-0.02886 0.15625,-0.03125 0.0074,-0.0024 0.117751,-0.02835 0.125,-0.03125 0.0072,-0.0029 0.117968,-0.05911 0.125,-0.0625 0.007,-0.0034 0.11822,-0.05863 0.125,-0.0625 0.0068,-0.0039 0.118503,-0.08942 0.125,-0.09375 0.0065,-0.0043 0.08757,-0.05773 0.09375,-0.0625 a 0.82586577,0.82586577 0 0 0 0.03125,0 l 10,-8.03125 c 0.0049,-0.0039 0.05783,-0.08953 0.0625,-0.09375 0.0047,-0.0042 0.08932,-0.05803 0.09375,-0.0625 0.0044,-0.0045 0.05833,-0.08904 0.0625,-0.09375 0.0042,-0.0047 0.08985,-0.08882 0.09375,-0.09375 0.0039,-0.0049 0.05888,-0.05736 0.0625,-0.0625 0.0036,-0.0051 0.05917,-0.08841 0.0625,-0.09375 0.0033,-0.0053 0.02822,-0.08823 0.03125,-0.09375 0.003,-0.0055 0.05979,-0.119325 0.0625,-0.125 0.0027,-0.0057 0.06011,-0.08793 0.0625,-0.09375 0.0024,-0.0058 0.02918,-0.08781 0.03125,-0.09375 0.0021,-0.0059 0.02952,-0.0877 0.03125,-0.09375 0.0017,-0.006 0.02986,-0.118865 0.03125,-0.125 0.0014,-0.0061 -0.001,-0.08755 0,-0.09375 0.001,-0.0062 0.03055,-0.118748 0.03125,-0.125 7e-4,-0.0063 -3.51e-4,-0.08747 0,-0.09375 3.51e-4,-0.0063 0,-0.118709 0,-0.125 0,-0.0063 3.51e-4,-0.118719 0,-0.125 -3.51e-4,-0.0063 7e-4,-0.0875 0,-0.09375 -7e-4,-0.0063 -0.0302,-0.118797 -0.03125,-0.125 -0.001,-0.0062 0.0014,-0.08761 0,-0.09375 -0.0014,-0.0061 -0.02952,-0.118952 -0.03125,-0.125 -0.0017,-0.006 -0.02918,-0.08781 -0.03125,-0.09375 -0.0021,-0.0059 -0.02886,-0.08793 -0.03125,-0.09375 -0.0024,-0.0058 -0.05979,-0.08808 -0.0625,-0.09375 -0.0027,-0.0057 -0.05947,-0.119485 -0.0625,-0.125 -0.003,-0.0055 -0.02792,-0.08841 -0.03125,-0.09375 -0.0033,-0.0053 -0.05888,-0.08861 -0.0625,-0.09375 -0.0036,-0.0051 -0.0586,-0.05757 -0.0625,-0.0625 -0.0039,-0.0049 -0.08958,-0.08904 -0.09375,-0.09375 -0.0042,-0.0047 -0.05807,-0.08928 -0.0625,-0.09375 -0.0044,-0.0045 -0.08908,-0.05828 -0.09375,-0.0625 -0.0047,-0.0042 -0.0576,-0.0898 -0.0625,-0.09375 a 0.82586577,0.82586577 0 0 0 -0.03125,0 L 69.21875,39.4375 c -0.0013,-0.0011 -0.02163,0.0074 -0.03125,0 -0.02245,-0.01728 -0.0593,-0.02892 -0.0625,-0.03125 -0.0046,-0.0033 -0.08901,-0.0594 -0.09375,-0.0625 -0.0047,-0.0031 -0.05761,-0.05964 -0.0625,-0.0625 -0.0049,-0.0029 -0.08872,-0.05989 -0.09375,-0.0625 -0.005,-0.0026 -0.0886,-0.02889 -0.09375,-0.03125 -0.0052,-0.0024 -0.08849,-0.02916 -0.09375,-0.03125 -0.0053,-0.0021 -0.08839,-0.02942 -0.09375,-0.03125 -0.0054,-0.0018 -0.08831,-0.02969 -0.09375,-0.03125 -0.0054,-0.0016 -0.08823,-0.02997 -0.09375,-0.03125 -0.0055,-0.0013 -0.08818,-0.03025 -0.09375,-0.03125 -0.0056,-0.001 -0.08813,7.21e-4 -0.09375,0 -0.0056,-7.21e-4 -0.0881,-0.03081 -0.09375,-0.03125 -0.0056,-4.39e-4 -0.119339,1.55e-4 -0.125,0 -0.0057,-1.55e-4 -0.08809,-1.29e-4 -0.09375,0 -0.0057,1.29e-4 -0.0881,-4.13e-4 -0.09375,0 -0.0056,4.13e-4 -0.08813,0.03055 -0.09375,0.03125 a 0.82586577,0.82586577 0 0 0 -0.03125,0 c -0.01,0.0014 -0.146418,0.02894 -0.15625,0.03125 -0.0098,0.0023 -0.177914,0.02807 -0.1875,0.03125 -0.0096,0.0032 -0.146987,0.05847 -0.15625,0.0625 -0.0093,0.004 -0.147384,0.08891 -0.15625,0.09375 -0.0089,0.0048 -0.147852,0.08814 -0.15625,0.09375 -0.0084,0.0056 -0.148388,0.08741 -0.15625,0.09375 -0.0079,0.0063 -0.117736,0.117982 -0.125,0.125 -0.0073,0.007 -0.118393,0.11736 -0.125,0.125 -0.0066,0.0076 -0.08785,0.14805 -0.09375,0.15625 -0.0059,0.0082 -0.119859,0.116306 -0.125,0.125 -0.0051,0.0087 -0.05816,0.178381 -0.0625,0.1875 -0.0043,0.0091 -0.05899,0.146779 -0.0625,0.15625 -0.0035,0.0095 -0.05985,0.146503 -0.0625,0.15625 -0.0014,0.005 -0.02182,0.05169 -0.03125,0.09375 -0.0015,-0.007 -0.0293,-0.118115 -0.03125,-0.125 -0.0019,-0.0069 -0.02887,-0.087 -0.03125,-0.09375 -0.0024,-0.0067 -0.0597,-0.118417 -0.0625,-0.125 -0.0028,-0.0066 -0.02803,-0.118608 -0.03125,-0.125 C 62.601995,33.523883 55.820954,29.03125 48,29.03125 z m 0,9.9375 c 2.961459,0 5.536494,1.31823 7.375,3.375 a 0.82586577,0.82586577 0 0 0 0.03125,0 c 0.004,0.0044 0.05825,0.05835 0.0625,0.0625 0.0042,0.0042 0.05804,0.08983 0.0625,0.09375 0.0045,0.0039 0.08909,0.05882 0.09375,0.0625 0.0047,0.0037 0.0889,0.05907 0.09375,0.0625 0.0048,0.0034 0.05748,0.05933 0.0625,0.0625 0.005,0.0032 0.08857,0.02835 0.09375,0.03125 0.0052,0.0029 0.08842,0.05988 0.09375,0.0625 0.0053,0.0026 0.08829,0.02891 0.09375,0.03125 0.0055,0.0023 0.08817,0.06045 0.09375,0.0625 0.0056,0.002 0.119325,0.0295 0.125,0.03125 0.0057,0.0018 0.08799,-0.0015 0.09375,0 0.0058,0.0015 0.08792,0.0301 0.09375,0.03125 0.0058,0.0011 0.08787,0.03041 0.09375,0.03125 0.0059,8.39e-4 0.119084,-5.28e-4 0.125,0 0.0059,5.28e-4 0.08781,-2.16e-4 0.09375,0 0.0059,2.16e-4 0.08781,9.7e-5 0.09375,0 l 7.21875,0 c 0.0072,-5.4e-5 0.117863,5.07e-4 0.125,0 0.0071,-5.07e-4 0.117909,9.59e-4 0.125,0 0.0071,-9.59e-4 0.117984,-0.02984 0.125,-0.03125 0.007,-0.0014 0.118088,-0.0294 0.125,-0.03125 0.0069,-0.0018 0.118219,-0.02897 0.125,-0.03125 0.0068,-0.0023 0.118377,-0.02854 0.125,-0.03125 0.0066,-0.0027 0.118562,-0.05938 0.125,-0.0625 0.0064,-0.0031 0.08752,-0.05898 0.09375,-0.0625 0.0062,-0.0035 0.119008,-0.05859 0.125,-0.0625 0.006,-0.0039 0.08802,-0.05822 0.09375,-0.0625 0.0057,-0.0043 0.0883,-0.08911 0.09375,-0.09375 0.0054,-0.0046 0.08861,-0.05753 0.09375,-0.0625 0.0051,-0.005 0.08893,-0.08846 0.09375,-0.09375 0.0048,-0.0053 0.05803,-0.08817 0.0625,-0.09375 0.0045,-0.0056 0.08964,-0.119143 0.09375,-0.125 0.0041,-0.0059 0.05877,-0.08765 0.0625,-0.09375 0.0037,-0.0061 0.05916,-0.11867 0.0625,-0.125 0.0033,-0.0063 0.05957,-0.08722 0.0625,-0.09375 0.0029,-0.0065 0.02874,-0.118299 0.03125,-0.125 0.0025,-0.0067 0.06042,-0.118154 0.0625,-0.125 l 0,1.46875 -14,0 c -0.0055,3.8e-5 -0.08827,-3.05e-4 -0.09375,0 -0.0055,3.05e-4 -0.08829,-5.71e-4 -0.09375,0 -0.0055,5.71e-4 -0.08832,-8.36e-4 -0.09375,0 -0.0054,8.36e-4 -0.08837,0.03015 -0.09375,0.03125 -0.0054,0.0011 -0.119681,0.02989 -0.125,0.03125 -0.0053,0.0014 -0.05725,-0.0016 -0.0625,0 -0.0052,0.0016 -0.08859,0.02938 -0.09375,0.03125 -0.0052,0.0019 -0.08868,0.06038 -0.09375,0.0625 -0.0051,0.0021 -0.08879,0.02889 -0.09375,0.03125 -0.005,0.0024 -0.08892,0.02865 -0.09375,0.03125 -0.0048,0.0026 -0.08905,0.05967 -0.09375,0.0625 -0.0047,0.0028 -0.05794,0.02819 -0.0625,0.03125 -0.0046,0.0031 -0.08935,0.05922 -0.09375,0.0625 -0.0044,0.0033 -0.05826,0.05901 -0.0625,0.0625 -0.0042,0.0035 -0.08968,0.05881 -0.09375,0.0625 -0.0041,0.0037 -0.05862,0.05862 -0.0625,0.0625 -0.0039,0.0039 -0.05881,0.05843 -0.0625,0.0625 -0.0037,0.0041 -0.05901,0.08951 -0.0625,0.09375 -0.0035,0.0042 -0.05922,0.0581 -0.0625,0.0625 -0.0033,0.0044 -0.05944,0.08919 -0.0625,0.09375 -0.0031,0.0046 -0.02842,0.0578 -0.03125,0.0625 -0.0028,0.0047 -0.0599,0.08892 -0.0625,0.09375 -0.0026,0.0048 -0.02889,0.08879 -0.03125,0.09375 -0.0024,0.005 -0.02913,0.08868 -0.03125,0.09375 -0.0021,0.0051 -0.06063,0.08859 -0.0625,0.09375 -0.0019,0.0052 -0.02963,0.0885 -0.03125,0.09375 -0.0016,0.0052 0.0014,0.05718 0,0.0625 -0.0014,0.0053 -0.03015,0.119621 -0.03125,0.125 -0.0011,0.0054 -0.03041,0.08832 -0.03125,0.09375 -8.36e-4,0.0054 5.71e-4,0.08829 0,0.09375 -5.71e-4,0.0055 3.05e-4,0.08827 0,0.09375 -3.05e-4,0.0055 3.8e-5,0.08826 0,0.09375 l 0,8 c 3.8e-5,0.0055 -3.05e-4,0.08827 0,0.09375 3.05e-4,0.0055 -5.71e-4,0.08829 0,0.09375 5.71e-4,0.0055 -8.36e-4,0.08832 0,0.09375 8.36e-4,0.0054 0.03015,0.08837 0.03125,0.09375 0.0011,0.0054 0.02989,0.119681 0.03125,0.125 0.0014,0.0053 -0.0016,0.05725 0,0.0625 0.0016,0.0052 0.02938,0.08859 0.03125,0.09375 0.0019,0.0052 0.06038,0.08868 0.0625,0.09375 0.0021,0.0051 0.02889,0.08879 0.03125,0.09375 0.0024,0.005 0.02865,0.08892 0.03125,0.09375 0.0026,0.0048 0.05967,0.08905 0.0625,0.09375 0.0028,0.0047 0.02819,0.05794 0.03125,0.0625 0.0031,0.0046 0.05922,0.08935 0.0625,0.09375 0.0033,0.0044 0.05901,0.05826 0.0625,0.0625 0.0035,0.0042 0.05881,0.08968 0.0625,0.09375 0.0037,0.0041 0.05862,0.05862 0.0625,0.0625 0.0039,0.0039 0.05843,0.05881 0.0625,0.0625 0.0041,0.0037 0.08951,0.05901 0.09375,0.0625 0.0042,0.0035 0.0581,0.05922 0.0625,0.0625 0.0044,0.0033 0.08919,0.05944 0.09375,0.0625 0.0046,0.0031 0.0578,0.02842 0.0625,0.03125 0.0047,0.0028 0.08892,0.0599 0.09375,0.0625 0.0048,0.0026 0.08879,0.02889 0.09375,0.03125 0.005,0.0024 0.08868,0.02913 0.09375,0.03125 0.0051,0.0021 0.08859,0.06063 0.09375,0.0625 0.0052,0.0019 0.0885,0.02963 0.09375,0.03125 0.0052,0.0016 0.05718,-0.0014 0.0625,0 0.0053,0.0014 0.119621,0.03015 0.125,0.03125 0.0054,0.0011 0.08832,0.03041 0.09375,0.03125 0.0054,8.36e-4 0.08829,-5.71e-4 0.09375,0 0.0055,5.71e-4 0.08827,-3.05e-4 0.09375,0 0.0055,3.05e-4 0.08826,-3.8e-5 0.09375,0 l 14,0 0,1.46875 c -0.0021,-0.0068 -0.05999,-0.118299 -0.0625,-0.125 -0.0025,-0.0067 -0.02832,-0.118472 -0.03125,-0.125 -0.0029,-0.0065 -0.05916,-0.08742 -0.0625,-0.09375 -0.0033,-0.0063 -0.05877,-0.118895 -0.0625,-0.125 -0.0037,-0.0061 -0.05839,-0.08789 -0.0625,-0.09375 -0.0041,-0.0059 -0.08928,-0.119416 -0.09375,-0.125 -0.0045,-0.0056 -0.05768,-0.08846 -0.0625,-0.09375 -0.0048,-0.0053 -0.08861,-0.08878 -0.09375,-0.09375 -0.0051,-0.005 -0.0883,-0.05786 -0.09375,-0.0625 -0.0054,-0.0046 -0.08802,-0.08947 -0.09375,-0.09375 -0.0057,-0.0043 -0.08776,-0.05859 -0.09375,-0.0625 -0.006,-0.0039 -0.118773,-0.05898 -0.125,-0.0625 -0.0062,-0.0035 -0.08731,-0.05938 -0.09375,-0.0625 -0.0064,-0.0031 -0.118377,-0.05979 -0.125,-0.0625 -0.0066,-0.0027 -0.118219,-0.02897 -0.125,-0.03125 -0.0068,-0.0023 -0.118088,-0.0294 -0.125,-0.03125 -0.0069,-0.0018 -0.117984,-0.02984 -0.125,-0.03125 -0.007,-0.0014 -0.117909,-0.03029 -0.125,-0.03125 -0.0071,-9.59e-4 -0.117863,5.07e-4 -0.125,0 -0.0071,-5.07e-4 -0.117845,5.4e-5 -0.125,0 l -7.21875,0 c -0.0059,-9.7e-5 -0.08781,-2.16e-4 -0.09375,0 -0.0059,2.16e-4 -0.08783,-5.28e-4 -0.09375,0 -0.0059,5.28e-4 -0.11912,-8.39e-4 -0.125,0 -0.0059,8.39e-4 -0.08792,0.0301 -0.09375,0.03125 -0.0058,0.0011 -0.08799,0.0298 -0.09375,0.03125 -0.0058,0.0015 -0.08808,-0.0018 -0.09375,0 -0.0057,0.0018 -0.119425,0.0292 -0.125,0.03125 -0.0056,0.002 -0.08829,0.06016 -0.09375,0.0625 -0.0055,0.0023 -0.08842,0.02863 -0.09375,0.03125 -0.0053,0.0026 -0.08857,0.0596 -0.09375,0.0625 -0.0052,0.0029 -0.08873,0.02808 -0.09375,0.03125 -0.005,0.0032 -0.05765,0.05907 -0.0625,0.0625 -0.0048,0.0034 -0.08909,0.05882 -0.09375,0.0625 -0.0047,0.0037 -0.08929,0.05858 -0.09375,0.0625 -0.0045,0.0039 -0.05825,0.0896 -0.0625,0.09375 -0.0042,0.0042 -0.05847,0.05813 -0.0625,0.0625 a 0.82586577,0.82586577 0 0 0 -0.03125,0 c -1.838506,2.05677 -4.413541,3.375 -7.375,3.375 -5.553548,0 -10.03125,-4.477702 -10.03125,-10.03125 0,-5.553548 4.477702,-10.03125 10.03125,-10.03125 z"
       transform="translate(-60,-80)"
       id="path3727"
       style="opacity:0.1;fill:#000000;fill-opacity:1;stroke:none;display:inline" />
    <path
       d="m 48,29.84375 c -10.565876,0 -19.15625,8.590374 -19.15625,19.15625 0,10.565874 8.590373,19.15625 19.15625,19.15625 7.503532,0 13.987145,-4.326418 17.125,-10.625 a 1.1642597,1.1642597 0 0 0 -1.03125,-1.6875 l -7.21875,0 A 1.1642597,1.1642597 0 0 0 56,56.21875 c -1.981667,2.216927 -4.796559,3.625 -8,3.625 -5.998267,0 -10.84375,-4.845483 -10.84375,-10.84375 0,-5.998267 4.845483,-10.84375 10.84375,-10.84375 3.203441,0 6.018333,1.408073 8,3.625 a 1.1642597,1.1642597 0 0 0 0.875,0.375 l 7.21875,0 A 1.1642597,1.1642597 0 0 0 65.125,40.46875 C 61.987145,34.170168 55.503532,29.84375 48,29.84375 z m 19.8125,10 a 1.1642597,1.1642597 0 0 0 -1,1.15625 l 0,2.84375 -14.8125,0 A 1.1642597,1.1642597 0 0 0 50.84375,45 l 0,8 A 1.1642597,1.1642597 0 0 0 52,54.15625 l 14.8125,0 0,2.84375 a 1.1642597,1.1642597 0 0 0 1.875,0.90625 l 10,-8.03125 a 1.1642597,1.1642597 0 0 0 0,-1.8125 l -10,-7.96875 a 1.1642597,1.1642597 0 0 0 -0.875,-0.25 z"
       transform="translate(-60,-80)"
       id="path3723"
       style="opacity:0.15;fill:#000000;fill-opacity:1;stroke:none;display:inline" />
    <path
       d="m -12,-49 c -9.936001,0 -18,8.063999 -18,18 0,9.936 8.063998,18 18,18 7.054325,0 13.146027,-4.083069 16.09375,-10 l -7.21875,0 c -2.18793,2.447677 -5.331564,4 -8.875,4 -6.627417,0 -12,-5.372583 -12,-12 0,-6.627417 5.372583,-12 12,-12 3.543436,0 6.68707,1.552323 8.875,4 l 7.21875,0 C 1.146027,-44.916931 -4.945675,-49 -12,-49 z m 19.96875,10 0,4 L -8,-35 l 0,8 15.96875,0 0,4 10,-8.03125 -10,-7.96875 z"
       id="path3717"
       style="opacity:0.3;fill:#000000;fill-opacity:1;stroke:none;display:inline" />
    <path
       d="m 48,28.90625 c -11.071289,0 -20.09375,9.022461 -20.09375,20.09375 0,11.071288 9.02246,20.09375 20.09375,20.09375 8.217356,0 15.175692,-5.032001 18.28125,-12.125 0.01159,0.0043 0.03262,4.48e-4 0.03125,0 -0.0058,-0.0019 0.162169,0.064 0.15625,0.0625 -0.0059,-0.0015 0.131008,0.03234 0.125,0.03125 -0.006,-0.0011 0.162319,6.72e-4 0.15625,0 -0.0061,-6.72e-4 0.162351,0.0315 0.15625,0.03125 -0.0061,-2.52e-4 0.131103,-1.69e-4 0.125,0 -0.0061,1.69e-4 0.162327,-0.03184 0.15625,-0.03125 -0.0061,5.89e-4 0.131022,-0.001 0.125,0 -0.006,0.001 0.162189,-0.03267 0.15625,-0.03125 -0.0059,0.0014 0.130827,-0.03307 0.125,-0.03125 -0.0058,0.0018 0.161937,-0.06472 0.15625,-0.0625 -0.0057,0.0022 0.13052,-0.06511 0.125,-0.0625 -0.0055,0.0026 0.130327,-0.06548 0.125,-0.0625 -0.0053,0.003 0.130109,-0.06584 0.125,-0.0625 -0.0051,0.0033 0.129867,-0.09744 0.125,-0.09375 l 8,-6.03125 c -0.0039,0.0031 0.09749,-0.09706 0.09375,-0.09375 -0.0037,0.0033 0.0973,-0.06602 0.09375,-0.0625 -0.0035,0.0035 0.09709,-0.09746 0.09375,-0.09375 -0.0033,0.0037 0.06563,-0.09764 0.0625,-0.09375 -0.0031,0.0039 0.0654,-0.09781 0.0625,-0.09375 -0.0029,0.0041 0.09642,-0.09797 0.09375,-0.09375 -0.0027,0.0042 0.03368,-0.09811 0.03125,-0.09375 -0.0024,0.0044 0.06468,-0.129494 0.0625,-0.125 -0.0022,0.0045 0.06442,-0.09836 0.0625,-0.09375 -0.0019,0.0046 0.03291,-0.12971 0.03125,-0.125 -0.0017,0.0047 0.03264,-0.09855 0.03125,-0.09375 -0.0014,0.0048 0.03237,-0.129867 0.03125,-0.125 -0.0011,0.0049 0.03209,-0.129922 0.03125,-0.125 -8.41e-4,0.0049 0.03181,-0.09871 0.03125,-0.09375 -5.62e-4,0.005 2.82e-4,-0.129985 0,-0.125 -2.82e-4,0.005 0,-0.129993 0,-0.125 0,0.005 -2.82e-4,-0.129985 0,-0.125 2.82e-4,0.005 -5.62e-4,-0.129962 0,-0.125 5.62e-4,0.005 -0.03209,-0.09867 -0.03125,-0.09375 8.41e-4,0.0049 -0.03237,-0.129867 -0.03125,-0.125 0.0011,0.0049 -0.03264,-0.129796 -0.03125,-0.125 0.0014,0.0048 -0.03291,-0.09846 -0.03125,-0.09375 0.0017,0.0047 -0.03317,-0.129609 -0.03125,-0.125 0.0019,0.0046 -0.06468,-0.09824 -0.0625,-0.09375 0.0022,0.0045 -0.06493,-0.129364 -0.0625,-0.125 0.0024,0.0044 -0.03392,-0.09797 -0.03125,-0.09375 0.0027,0.0042 -0.09665,-0.09781 -0.09375,-0.09375 0.0029,0.0041 -0.06563,-0.09764 -0.0625,-0.09375 0.0031,0.0039 -0.06584,-0.09746 -0.0625,-0.09375 0.0033,0.0037 -0.0973,-0.09727 -0.09375,-0.09375 0.0035,0.0035 -0.09749,-0.06581 -0.09375,-0.0625 0.0037,0.0033 -0.09767,-0.09684 -0.09375,-0.09375 l -7.96875,-5.96875 c 8.34e-4,6.65e-4 -0.02737,0.0027 -0.03125,0 -0.02977,-0.02087 -0.16314,-0.129401 -0.15625,-0.125 0.0078,0.005 -0.195765,-0.09789 -0.1875,-0.09375 0.0083,0.0041 -0.227401,-0.097 -0.21875,-0.09375 0.0087,0.0033 -0.196443,-0.06483 -0.1875,-0.0625 0.0089,0.0023 -0.227887,-0.03264 -0.21875,-0.03125 0.0091,0.0014 -0.227982,-0.03168 -0.21875,-0.03125 0.0092,4.29e-4 -0.227977,5.36e-4 -0.21875,0 0.0092,-5.36e-4 -0.227871,0.03274 -0.21875,0.03125 a 1.181478,1.181478 0 0 0 -0.03125,0 c 0.0076,-0.0014 -0.19494,0.0333 -0.1875,0.03125 0.0074,-0.0021 -0.163483,0.06519 -0.15625,0.0625 C 63.141324,33.945583 56.212053,28.90625 48,28.90625 z m 0,8.1875 c 4.755432,0 8.835615,2.793871 10.75,6.8125 a 1.181478,1.181478 0 0 0 0,0.03125 c -0.0028,-0.0054 0.09687,0.130201 0.09375,0.125 -0.0031,-0.0052 0.06596,0.129976 0.0625,0.125 -0.0035,-0.005 0.09755,0.129727 0.09375,0.125 -0.0038,-0.0047 0.09786,0.09821 0.09375,0.09375 -0.0041,-0.0045 0.09816,0.09791 0.09375,0.09375 -0.0044,-0.0042 0.09843,0.128853 0.09375,0.125 -0.0047,-0.0039 0.129934,0.06602 0.125,0.0625 -0.0049,-0.0035 0.130164,0.09693 0.125,0.09375 -0.0052,-0.0032 0.130369,0.06532 0.125,0.0625 -0.0054,-0.0028 0.130549,0.06494 0.125,0.0625 l -4.78125,0 c 0.0086,-8.9e-5 -0.227278,0.03217 -0.21875,0.03125 0.0085,-9.18e-4 -0.195899,0.03299 -0.1875,0.03125 0.0084,-0.0017 -0.226941,0.03379 -0.21875,0.03125 0.0082,-0.0025 -0.195407,0.06582 -0.1875,0.0625 0.0079,-0.0033 -0.195048,0.09782 -0.1875,0.09375 0.0075,-0.0041 -0.163369,0.129783 -0.15625,0.125 0.0071,-0.0048 -0.162873,0.0992 -0.15625,0.09375 0.0066,-0.0055 -0.162315,0.162315 -0.15625,0.15625 0.0061,-0.0061 -0.1617,0.162873 -0.15625,0.15625 0.0055,-0.0066 -0.09853,0.163369 -0.09375,0.15625 0.0048,-0.0071 -0.129072,0.163798 -0.125,0.15625 0.0041,-0.0075 -0.09707,0.195407 -0.09375,0.1875 0.0033,-0.0079 -0.06504,0.195691 -0.0625,0.1875 0.0025,-0.0082 -0.03299,0.227149 -0.03125,0.21875 0.0017,-0.0084 -0.03217,0.196028 -0.03125,0.1875 9.18e-4,-0.0085 -0.03134,0.227326 -0.03125,0.21875 l 0,4 c -8.9e-5,-0.0086 0.03217,0.227278 0.03125,0.21875 -9.18e-4,-0.0085 0.03299,0.195899 0.03125,0.1875 -0.0017,-0.0084 0.03379,0.226941 0.03125,0.21875 -0.0025,-0.0082 0.06582,0.195407 0.0625,0.1875 -0.0033,-0.0079 0.09782,0.195048 0.09375,0.1875 -0.0041,-0.0075 0.129783,0.163369 0.125,0.15625 -0.0048,-0.0071 0.0992,0.162873 0.09375,0.15625 -0.0055,-0.0066 0.162315,0.162315 0.15625,0.15625 -0.0061,-0.0061 0.162873,0.1617 0.15625,0.15625 -0.0066,-0.0055 0.163369,0.09853 0.15625,0.09375 -0.0071,-0.0048 0.163798,0.129072 0.15625,0.125 -0.0075,-0.0041 0.195407,0.09707 0.1875,0.09375 -0.0079,-0.0033 0.195691,0.06504 0.1875,0.0625 -0.0082,-0.0025 0.227149,0.03299 0.21875,0.03125 -0.0084,-0.0017 0.196028,0.03217 0.1875,0.03125 -0.0085,-9.18e-4 0.227326,0.03134 0.21875,0.03125 l 4.78125,0 c 0.0055,-0.0024 -0.130369,0.06532 -0.125,0.0625 0.0054,-0.0028 -0.130164,0.06568 -0.125,0.0625 0.0052,-0.0032 -0.129934,0.09727 -0.125,0.09375 0.0049,-0.0035 -0.129681,0.06635 -0.125,0.0625 0.0047,-0.0039 -0.09816,0.129164 -0.09375,0.125 0.0044,-0.0042 -0.09786,0.09821 -0.09375,0.09375 0.0041,-0.0045 -0.09755,0.09848 -0.09375,0.09375 0.0038,-0.0047 -0.09721,0.129976 -0.09375,0.125 0.0035,-0.005 -0.06562,0.130201 -0.0625,0.125 0.0031,-0.0052 -0.0965,0.130402 -0.09375,0.125 a 1.181478,1.181478 0 0 0 0,0.03125 C 56.835615,58.112379 52.755432,60.90625 48,60.90625 41.400226,60.90625 36.09375,55.599773 36.09375,49 36.09375,42.400226 41.400226,37.09375 48,37.09375 z"
       transform="translate(0,-80)"
       id="path3846"
       style="opacity:0.1;fill:#000000;fill-opacity:1;stroke:none;display:inline" />
    <path
       d="m 48,30.09375 c -10.431441,0 -18.90625,8.474809 -18.90625,18.90625 0,10.43144 8.474808,18.90625 18.90625,18.90625 8.216907,0 15.208117,-5.259977 17.8125,-12.59375 a 0.9157715,0.9157715 0 0 0 -0.875,-1.21875 l -4.3125,0 a 0.9157715,0.9157715 0 0 0 -0.8125,0.5 c -2.103154,4.414887 -6.591672,7.5 -11.8125,7.5 -7.237117,0 -13.09375,-5.856634 -13.09375,-13.09375 0,-7.237117 5.856633,-13.09375 13.09375,-13.09375 5.220828,0 9.709346,3.085113 11.8125,7.5 a 0.9157715,0.9157715 0 0 0 0.8125,0.5 l 4.3125,0 a 0.9157715,0.9157715 0 0 0 0.875,-1.21875 C 63.208117,35.353727 56.216907,30.09375 48,30.09375 z m 18.8125,12 A 0.9157715,0.9157715 0 0 0 66.0625,43 l 0,3.09375 -11.0625,0 A 0.9157715,0.9157715 0 0 0 54.09375,47 l 0,4 A 0.9157715,0.9157715 0 0 0 55,51.90625 l 11.0625,0 0,3.09375 a 0.9157715,0.9157715 0 0 0 1.46875,0.71875 l 8,-6.03125 a 0.9157715,0.9157715 0 0 0 0,-1.4375 l -8,-5.96875 a 0.9157715,0.9157715 0 0 0 -0.71875,-0.1875 z"
       transform="translate(0,-80)"
       id="path3842"
       style="opacity:0.15;fill:#000000;fill-opacity:1;stroke:none;display:inline" />
    <path
       d="m 48,-13 c -9.936002,0 -18,-8.064 -18,-18 0,-9.936001 8.063999,-18 18,-18 7.825188,0 14.459213,5.021305 16.9375,12 l -4.3125,0 c -2.249712,-4.722539 -7.04558,-8 -12.625,-8 -7.731987,0 -14,6.268013 -14,14 0,7.731986 6.268013,14 14,14 5.57942,0 10.375288,-3.277461 12.625,-8 l 4.3125,0 C 62.459213,-18.021305 55.825188,-13 48,-13 z m 18.963356,-12 0,-4 L 55,-29 l 0,-4 11.963356,0 0,-4 8.010153,5.968433 L 66.963356,-25 z"
       id="path3836"
       style="opacity:0.3;fill:#000000;fill-opacity:1;stroke:none;display:inline" />
    <path
       d="m 48,-14 c -9.936002,0 -18,-8.064 -18,-18 0,-9.936001 8.063999,-18 18,-18 7.825188,0 14.459213,5.021305 16.9375,12 l -4.3125,0 c -2.249712,-4.722539 -7.04558,-8 -12.625,-8 -7.731987,0 -14,6.268013 -14,14 0,7.731986 6.268013,14 14,14 5.57942,0 10.375288,-3.277461 12.625,-8 l 4.3125,0 C 62.459213,-19.021305 55.825188,-14 48,-14 z m 18.963356,-12 0,-4 L 55,-30 l 0,-4 11.963356,0 0,-4 8.010153,5.968433 L 66.963356,-26 z"
       id="path3771"
       style="fill:url(#linearGradient3034);fill-opacity:1;stroke:none;display:inline" />
    <path
       d="m 48,-50 c -9.936001,0 -18,8.063999 -18,18 0,0.168506 0.02664,0.332601 0.03125,0.5 C 30.298378,-41.203326 38.232505,-49 48,-49 c 7.445442,0 13.827353,4.547597 16.5625,11 l 0.375,0 C 62.459213,-44.978695 55.825188,-50 48,-50 z m 18.96875,12 0,1 7.34375,5.46875 0.65625,-0.5 -8,-5.96875 z M 55,-34 l 0,1 11.96875,0 0,-1 L 55,-34 z m -20.96875,2.5 C 34.025365,-31.33321 34,-31.168225 34,-31 c 0,7.731986 6.268013,14 14,14 5.57942,0 10.375288,-3.277461 12.625,-8 l 3.9375,0 c 0.139503,-0.329097 0.254732,-0.661333 0.375,-1 l -4.3125,0 c -2.249712,4.722539 -7.04558,8 -12.625,8 -7.563762,0 -13.704162,-6.000782 -13.96875,-13.5 z"
       id="path3827"
       style="opacity:0.8;fill:#ffffff;fill-opacity:1;stroke:none;display:inline" />
    <path
       d="m -12,-50 c -9.936001,0 -18,8.063999 -18,18 0,9.936 8.063998,18 18,18 7.054325,0 13.146027,-4.083069 16.09375,-10 l -7.21875,0 c -2.18793,2.447677 -5.331564,4 -8.875,4 -6.627417,0 -12,-5.372583 -12,-12 0,-6.627417 5.372583,-12 12,-12 3.543436,0 6.68707,1.552323 8.875,4 l 7.21875,0 C 1.146027,-45.916931 -4.945675,-50 -12,-50 z m 19.96875,10 0,4 L -8,-36 l 0,8 15.96875,0 0,4 10,-8.03125 -10,-7.96875 z"
       id="path3697"
       style="fill:url(#linearGradient3705);fill-opacity:1;stroke:none;display:inline" />
    <path
       d="m -12,-50 c -9.936001,0 -18,8.063999 -18,18 0,0.168506 0.02664,0.332601 0.03125,0.5 0.267128,-9.703326 8.201255,-17.5 17.96875,-17.5 6.653183,0 12.451821,3.623098 15.5625,9 l 0.53125,0 C 1.146027,-45.916931 -4.945675,-50 -12,-50 z m 19.96875,10 0,1 9.375,7.46875 0.625,-0.5 -10,-7.96875 z M -8,-36 l 0,1 15.96875,0 0,-1 L -8,-36 z m -15.96875,4.5 C -23.97575,-31.33169 -24,-31.170031 -24,-31 c 0,6.627417 5.372583,12 12,12 3.543436,0 6.68707,-1.552323 8.875,-4 l 6.6875,0 c 0.187553,-0.324191 0.363628,-0.663535 0.53125,-1 l -7.21875,0 c -2.18793,2.447677 -5.331564,4 -8.875,4 -6.457386,0 -11.702788,-5.107991 -11.96875,-11.5 z"
       id="path3708"
       style="fill:#ffffff;fill-opacity:1;stroke:none;display:inline" />
    <path
       d="m 116,32 0,10.34375 C 116.62514,42.122984 117.29929,42 118,42 c 0.70071,0 1.37487,0.122984 2,0.34375 L 120,32 l -4,0 z m -7.90625,3.28125 -2.8125,2.8125 7.3125,7.3125 c 0.59109,-1.234112 1.57839,-2.22141 2.8125,-2.8125 l -7.3125,-7.3125 z m 19.8125,0 -7.3125,7.3125 c 1.23411,0.59109 2.22141,1.578388 2.8125,2.8125 l 7.3125,-7.3125 -2.8125,-2.8125 z M 102,46 l 0,4 10.34375,0 C 112.12298,49.374865 112,48.700711 112,48 c 0,-0.700711 0.12298,-1.374865 0.34375,-2 L 102,46 z m 21.65625,0 C 123.87702,46.625135 124,47.299289 124,48 c 0,0.700711 -0.12298,1.374865 -0.34375,2 L 134,50 l 0,-4 -10.34375,0 z m -11.0625,4.59375 -7.3125,7.3125 2.8125,2.8125 7.3125,-7.3125 c -1.23411,-0.59109 -2.22141,-1.578388 -2.8125,-2.8125 z m 10.8125,0 c -0.59109,1.234112 -1.57839,2.22141 -2.8125,2.8125 l 7.3125,7.3125 2.8125,-2.8125 -7.3125,-7.3125 z M 116,53.65625 116,64 l 4,0 0,-10.34375 C 119.37487,53.877016 118.70071,54 118,54 c -0.70071,0 -1.37486,-0.122984 -2,-0.34375 z"
       id="path2927"
       style="opacity:0.1;fill:#000000;fill-opacity:1;stroke:none" />
    <path
       d="m 48,24 c -13.254834,0 -24,10.745166 -24,24 0,0.165582 -0.0033,0.335217 0,0.5 C 24.263839,35.473936 34.910748,25 48,25 61.089252,25 71.736161,35.473936 72,48.5 72.003338,48.335217 72,48.165582 72,48 72,34.745166 61.254834,24 48,24 z m -12.21875,14.59375 -0.5,0.5 L 42.1875,46 l 0.15625,0 c -0.01422,0.04025 -0.01785,0.08435 -0.03125,0.125 l 0.28125,0.28125 c 0.59109,-1.234112 1.578388,-2.22141 2.8125,-2.8125 l -0.625,-0.625 c -0.933921,0.59759 -1.703261,1.426477 -2.1875,2.4375 l -6.8125,-6.8125 z m 24.4375,0 -6.8125,6.8125 c -0.484239,-1.011023 -1.253579,-1.83991 -2.1875,-2.4375 l -0.625,0.625 c 1.234112,0.59109 2.22141,1.578388 2.8125,2.8125 L 53.6875,46.125 c -0.0134,-0.04065 -0.01703,-0.08475 -0.03125,-0.125 l 0.15625,0 6.90625,-6.90625 -0.5,-0.5 z M 48,42 c -0.700711,0 -1.374865,0.122984 -2,0.34375 l 0,1 C 46.625135,43.122984 47.299289,43 48,43 c 0.700711,0 1.374865,0.122984 2,0.34375 l 0,-1 C 49.374865,42.122984 48.700711,42 48,42 z m -5.90625,5 C 42.038773,47.324771 42,47.660174 42,48 c 0,0.169434 0.01723,0.333989 0.03125,0.5 0.04398,-0.520543 0.145116,-1.026025 0.3125,-1.5 l -0.25,0 z m 11.5625,0 c 0.167384,0.473975 0.268523,0.979457 0.3125,1.5 C 53.982775,48.333989 54,48.169434 54,48 c 0,-0.339826 -0.03877,-0.675229 -0.09375,-1 l -0.25,0 z M 32,50 l 0,1 10.1875,0 0.125,-0.125 C 42.218736,50.590488 42.144834,50.301778 42.09375,50 L 32,50 z m 21.90625,0 c -0.05108,0.301778 -0.124986,0.590488 -0.21875,0.875 L 53.8125,51 64,51 64,50 53.90625,50 z m -9.125,4.03125 -6.6875,6.6875 -2.3125,-2.3125 -0.5,0.5 2.8125,2.8125 7.3125,-7.3125 c -0.223089,-0.106851 -0.418924,-0.243137 -0.625,-0.375 z m 6.4375,0 c -0.206076,0.131863 -0.401911,0.268149 -0.625,0.375 l 7.3125,7.3125 2.8125,-2.8125 -0.5,-0.5 -2.3125,2.3125 -6.6875,-6.6875 z M 46,64 l 0,1 4,0 0,-1 -4,0 z"
       id="path2930"
       style="opacity:0.75;fill:#ffffff;fill-opacity:1;stroke:none" />
    <path
       d="m 46,31 0,1 4,0 0,-1 -4,0 z m -7.90625,3.28125 -2.8125,2.8125 0.5,0.5 2.3125,-2.3125 6.6875,6.6875 c 0.206076,-0.131863 0.401911,-0.268149 0.625,-0.375 l -7.3125,-7.3125 z m 19.8125,0 -7.3125,7.3125 c 0.223089,0.106851 0.418924,0.243137 0.625,0.375 l 6.6875,-6.6875 2.3125,2.3125 0.5,-0.5 -2.8125,-2.8125 z M 32,45 l 0,1 10.09375,0 c 0.05108,-0.301778 0.124986,-0.590488 0.21875,-0.875 L 42.1875,45 32,45 z m 21.8125,0 -0.125,0.125 c 0.09376,0.284512 0.167666,0.573222 0.21875,0.875 L 64,46 64,45 53.8125,45 z M 24,47.5 c -0.0033,0.164783 0,0.334418 0,0.5 0,13.254834 10.745166,24 24,24 13.254834,0 24,-10.745166 24,-24 0,-0.165582 0.0033,-0.335217 0,-0.5 C 71.736161,60.526064 61.089252,71 48,71 34.910748,71 24.263839,60.526064 24,47.5 z m 18.03125,0 C 42.017225,47.666011 42,47.830566 42,48 c 0,0.339826 0.03877,0.675229 0.09375,1 l 0.25,0 c -0.167384,-0.473975 -0.268523,-0.979457 -0.3125,-1.5 z m 11.9375,0 c -0.04398,0.520543 -0.145116,1.026025 -0.3125,1.5 l 0.25,0 C 53.961227,48.675229 54,48.339826 54,48 c 0,-0.169434 -0.01723,-0.333989 -0.03125,-0.5 z m -11.375,2.09375 -0.28125,0.28125 c 0.0134,0.04065 0.01703,0.08475 0.03125,0.125 l -0.15625,0 -6.90625,6.90625 0.5,0.5 6.8125,-6.8125 c 0.484239,1.011023 1.253579,1.83991 2.1875,2.4375 l 0.625,-0.625 c -1.234112,-0.59109 -2.22141,-1.578388 -2.8125,-2.8125 z m 10.8125,0 c -0.59109,1.234112 -1.578388,2.22141 -2.8125,2.8125 l 0.625,0.625 c 0.933921,-0.59759 1.703261,-1.426477 2.1875,-2.4375 l 6.8125,6.8125 0.5,-0.5 L 53.8125,50 53.65625,50 c 0.01422,-0.04025 0.01785,-0.08435 0.03125,-0.125 L 53.40625,49.59375 z M 46,52.65625 l 0,1 C 46.625135,53.877016 47.299289,54 48,54 c 0.700711,0 1.374865,-0.122984 2,-0.34375 l 0,-1 C 49.374865,52.877016 48.700711,53 48,53 47.299289,53 46.625135,52.877016 46,52.65625 z"
       id="path3711"
       style="opacity:0.15;fill:#000000;fill-opacity:1;stroke:none" />
  </g>
</svg>
