<?xml version="1.0" encoding="UTF-8" standalone="no"?>
<!-- Created with Inkscape (http://www.inkscape.org/) -->

<svg
   xmlns:svg="http://www.w3.org/2000/svg"
   xmlns="http://www.w3.org/2000/svg"
   xmlns:xlink="http://www.w3.org/1999/xlink"
   version="1.0"
   width="96"
   height="96"
   id="svg2408"
   style="display:inline;enable-background:new">
  <defs
     id="defs2410">
    <linearGradient
       id="linearGradient3687">
      <stop
         id="stop3689"
         style="stop-color:#ffffff;stop-opacity:1"
         offset="0" />
      <stop
         id="stop3691"
         style="stop-color:#ffffff;stop-opacity:0"
         offset="1" />
    </linearGradient>
    <linearGradient
       id="linearGradient3487">
      <stop
         id="stop3489"
         style="stop-color:#9cb7d2;stop-opacity:1"
         offset="0" />
      <stop
         id="stop3491"
         style="stop-color:#e7edf3;stop-opacity:0"
         offset="1" />
    </linearGradient>
    <radialGradient
       cx="56.065952"
       cy="-15.871236"
       r="35.9375"
       fx="56.065952"
       fy="-15.871236"
       id="radialGradient3465"
       xlink:href="#linearGradient3224"
       gradientUnits="userSpaceOnUse"
       gradientTransform="matrix(0.00225966,0.925477,-1.3844339,0,25.901984,-30.21143)" />
    <linearGradient
       x1="58.650177"
       y1="122"
       x2="58.650177"
       y2="5.4252338"
       id="ButtonColor"
       gradientUnits="userSpaceOnUse"
       gradientTransform="matrix(1.0172414,0,0,1.0172414,-1.1034483,-1.1034483)">
      <stop
         id="stop3792"
         style="stop-color:#2fc044;stop-opacity:1"
         offset="0" />
      <stop
         id="stop3794"
         style="stop-color:#246d2f;stop-opacity:1"
         offset="1" />
    </linearGradient>
    <linearGradient
       id="linearGradient3465">
      <stop
         id="stop3467"
         style="stop-color:#919191;stop-opacity:1"
         offset="0" />
      <stop
         id="stop3469"
         style="stop-color:#fdfdfd;stop-opacity:1"
         offset="1" />
    </linearGradient>
    <linearGradient
       id="linearGradient3187">
      <stop
         id="stop3189"
         style="stop-color:#b4b4b4;stop-opacity:1"
         offset="0" />
      <stop
         id="stop3191"
         style="stop-color:#e6e6e6;stop-opacity:1"
         offset="1" />
    </linearGradient>
    <linearGradient
       x1="45.447727"
       y1="92.539597"
       x2="45.447727"
       y2="7.0165396"
       id="ButtonShadow"
       gradientUnits="userSpaceOnUse"
       gradientTransform="scale(1.0058652,0.994169)">
      <stop
         id="stop3750"
         style="stop-color:#000000;stop-opacity:1"
         offset="0" />
      <stop
         id="stop3752"
         style="stop-color:#000000;stop-opacity:0.58823532"
         offset="1" />
    </linearGradient>
    <linearGradient
       id="linearGradient3737">
      <stop
         id="stop3739"
         style="stop-color:#ffffff;stop-opacity:1"
         offset="0" />
      <stop
         id="stop3741"
         style="stop-color:#ffffff;stop-opacity:0"
         offset="1" />
    </linearGradient>
    <filter
       color-interpolation-filters="sRGB"
       id="filter3174">
      <feGaussianBlur
         id="feGaussianBlur3176"
         stdDeviation="1.71" />
    </filter>
    <linearGradient
       x1="36.357143"
       y1="6"
       x2="36.357143"
       y2="63.893143"
       id="linearGradient3188"
       xlink:href="#linearGradient3737"
       gradientUnits="userSpaceOnUse" />
    <linearGradient
       x1="43.17857"
       y1="13"
       x2="43.17857"
       y2="83.294571"
       id="linearGradient3436"
       xlink:href="#linearGradient3465"
       gradientUnits="userSpaceOnUse"
       gradientTransform="matrix(1.0294118,0,0,1.0294118,-1.4117647,-1.4117647)" />
    <radialGradient
       cx="47.098362"
       cy="80.842926"
       r="38.957481"
       fx="47.098362"
       fy="80.842926"
       id="radialGradient3366"
       xlink:href="#ButtonColor"
       gradientUnits="userSpaceOnUse"
       gradientTransform="matrix(1.3112996,-5.281739e-8,4.5811678e-8,1.1373685,-14.661706,-10.847943)" />
    <linearGradient
       x1="48"
       y1="90"
       x2="48"
       y2="5.9877172"
       id="linearGradient3466"
       xlink:href="#linearGradient3187"
       gradientUnits="userSpaceOnUse" />
    <linearGradient
       x1="76.45089"
       y1="8.0625"
       x2="76.45089"
       y2="72.765785"
       id="linearGradient3693"
       xlink:href="#linearGradient3687"
       gradientUnits="userSpaceOnUse" />
    <linearGradient
       x1="65.15625"
       y1="16.125"
       x2="65.15625"
       y2="69.687508"
       id="linearGradient3701"
       xlink:href="#linearGradient3487"
       gradientUnits="userSpaceOnUse" />
    <linearGradient
       x1="65.15625"
       y1="16.125"
       x2="65.15625"
       y2="69.687508"
       id="linearGradient2675"
       xlink:href="#linearGradient3737"
       gradientUnits="userSpaceOnUse" />
    <linearGradient
       id="linearGradient3737-1">
      <stop
         id="stop3739-7"
         style="stop-color:#ffffff;stop-opacity:1"
         offset="0" />
      <stop
         id="stop3741-2"
         style="stop-color:#ffffff;stop-opacity:0"
         offset="1" />
    </linearGradient>
    <radialGradient
       cx="48"
       cy="90.171875"
       r="42"
       fx="48"
       fy="90.171875"
       id="radialGradient2893"
       xlink:href="#linearGradient3737-1"
       gradientUnits="userSpaceOnUse"
       gradientTransform="matrix(1.1573129,0,0,0.99590774,-7.551021,0.1971319)" />
    <linearGradient
       id="linearGradient3224">
      <stop
         id="stop3226"
         style="stop-color:#80a2c8;stop-opacity:1"
         offset="0" />
      <stop
         id="stop3228"
         style="stop-color:#2e4c6d;stop-opacity:1"
         offset="1" />
    </linearGradient>
    <clipPath
       id="clipPath3907">
      <path
         d="m -68,12 0,71.875 71.9375,0 L 3.9375,12 -68,12 z m 36,12 c 5.344692,0 9.687507,3.992831 9.6875,8.9375 -0.02133,0.621424 -0.07398,1.335406 -0.125,2.0625 0.730245,0.543315 0.778989,2.170384 0.0625,3.84375 -0.258603,0.603976 -0.555928,1.075565 -0.90625,1.5 -0.113311,0.524949 -0.197851,0.951157 -0.34375,1.5625 -0.396974,1.180487 -1.938671,3.498551 -3.125,5.3125 -0.07646,1.206398 -0.0877,2.400163 0.0625,3.625 3.709677,3.197549 13.39093,4.950832 13.40625,7.6875 L -12,66.84375 c 0,1.679322 -2.544846,3.197858 -6.53125,4.25 l -0.6875,2.375 A 1.4052899,1.3929762 0 0 1 -20.0625,74.375 c -0.18137,0.06953 -0.315419,0.200704 -0.8125,0.34375 C -23.493482,75.472297 -27.516862,76 -32,76 c -4.483138,0 -8.475268,-0.527703 -11.09375,-1.28125 -0.497081,-0.143046 -0.631128,-0.27418 -0.8125,-0.34375 a 1.4052899,1.3929762 0 0 1 -0.875,-0.9375 l -0.5625,-2.28125 C -49.429991,70.102441 -52,68.547059 -52,66.84375 l 1.28125,-8.3125 c -0.0144,-3.197542 9.588017,-4.598837 13.34375,-7.6875 0.261803,-1.513002 0.255123,-2.826115 0.125,-4.15625 -1.304823,-1.724246 -2.766418,-3.714925 -3.125,-4.78125 -0.11575,-0.525153 -0.18554,-0.878183 -0.28125,-1.34375 -0.01345,-0.01457 -0.04914,-0.04755 -0.0625,-0.0625 -0.400969,-0.447139 -0.802819,-0.976777 -1.09375,-1.65625 -0.754478,-1.762097 -0.627089,-3.521792 0.21875,-3.96875 -0.05944,-0.70484 -0.08077,-1.339582 -0.09375,-1.90625 C -41.6875,28.02408 -37.344692,24 -32,24 z"
         id="path3909"
         style="fill:url(#radialGradient3911);fill-opacity:1;fill-rule:nonzero;stroke:none" />
    </clipPath>
    <radialGradient
       cx="56.065952"
       cy="-15.871236"
       r="35.9375"
       fx="56.065952"
       fy="-15.871236"
       id="radialGradient3911"
       xlink:href="#linearGradient3224"
       gradientUnits="userSpaceOnUse"
       gradientTransform="matrix(-0.00226162,-1.2345585,1.3856367,0,-9.9140406,140.26707)" />
    <filter
       x="-0.27599999"
       y="-0.21230771"
       width="1.552"
       height="1.4246154"
       color-interpolation-filters="sRGB"
       id="filter3913">
      <feGaussianBlur
         id="feGaussianBlur3915"
         stdDeviation="4.5999998" />
    </filter>
    <linearGradient
       x1="45.447727"
       y1="92.539597"
       x2="45.447727"
       y2="7.0165396"
       id="ButtonShadow-0"
       gradientUnits="userSpaceOnUse"
       gradientTransform="matrix(1.0058652,0,0,0.994169,100,0)">
      <stop
         id="stop3750-8"
         style="stop-color:#000000;stop-opacity:1"
         offset="0" />
      <stop
         id="stop3752-5"
         style="stop-color:#000000;stop-opacity:0.58823532"
         offset="1" />
    </linearGradient>
    <linearGradient
       x1="32.251034"
       y1="6.1317081"
       x2="32.251034"
       y2="90.238609"
       id="linearGradient3780"
       xlink:href="#ButtonShadow-0"
       gradientUnits="userSpaceOnUse"
       gradientTransform="matrix(1.0238095,0,0,1.0119048,-1.1428571,-98.071429)" />
    <linearGradient
       x1="32.251034"
       y1="6.1317081"
       x2="32.251034"
       y2="90.238609"
       id="linearGradient3772"
       xlink:href="#ButtonShadow-0"
       gradientUnits="userSpaceOnUse"
       gradientTransform="matrix(1.0238095,0,0,1.0119048,-1.1428571,-98.071429)" />
    <linearGradient
       x1="32.251034"
       y1="6.1317081"
       x2="32.251034"
       y2="90.238609"
       id="linearGradient3725"
       xlink:href="#ButtonShadow-0"
       gradientUnits="userSpaceOnUse"
       gradientTransform="matrix(1.0238095,0,0,1.0119048,-1.1428571,-98.071429)" />
    <linearGradient
       x1="32.251034"
       y1="6.1317081"
       x2="32.251034"
       y2="90.238609"
       id="linearGradient3721"
       xlink:href="#ButtonShadow-0"
       gradientUnits="userSpaceOnUse"
       gradientTransform="translate(0,-97)" />
    <linearGradient
       x1="32.251034"
       y1="6.1317081"
       x2="32.251034"
       y2="90.238609"
       id="linearGradient3122"
       xlink:href="#ButtonShadow-0"
       gradientUnits="userSpaceOnUse"
       gradientTransform="matrix(1.0238095,0,0,1.0119048,-1.1428571,-98.071429)" />
  </defs>
  <g
     id="layer2"
     style="display:none">
    <rect
       width="86"
       height="85"
       rx="6"
       ry="6"
       x="5"
       y="7"
       id="rect3745"
       style="opacity:0.9;fill:url(#ButtonShadow);fill-opacity:1;fill-rule:nonzero;stroke:none;filter:url(#filter3174)" />
  </g>
  <g
     id="layer4"
     style="display:inline">
    <path
       d="m 12,-95.03125 c -5.5110903,0 -10.03125,4.52016 -10.03125,10.03125 l 0,71 c 0,5.5110902 4.5201598,10.03125 10.03125,10.03125 l 72,0 c 5.51109,0 10.03125,-4.5201597 10.03125,-10.03125 l 0,-71 c 0,-5.51109 -4.52016,-10.03125 -10.03125,-10.03125 l -72,0 z"
       transform="scale(1,-1)"
       id="path3786"
       style="opacity:0.07999998;fill:url(#linearGradient3122);fill-opacity:1;fill-rule:nonzero;stroke:none;display:inline" />
    <path
       d="m 12,-94.03125 c -4.971633,0 -9.03125,4.059617 -9.03125,9.03125 l 0,71 c 0,4.9716329 4.0596171,9.03125 9.03125,9.03125 l 72,0 c 4.971633,0 9.03125,-4.059617 9.03125,-9.03125 l 0,-71 c 0,-4.971633 -4.059617,-9.03125 -9.03125,-9.03125 l -72,0 z"
       transform="scale(1,-1)"
       id="path3778"
       style="opacity:0.1;fill:url(#linearGradient3780);fill-opacity:1;fill-rule:nonzero;stroke:none;display:inline" />
    <path
       d="m 12,-93 c -4.4091333,0 -8,3.590867 -8,8 l 0,71 c 0,4.4091333 3.5908667,8 8,8 l 72,0 c 4.409133,0 8,-3.5908667 8,-8 l 0,-71 c 0,-4.409133 -3.590867,-8 -8,-8 l -72,0 z"
       transform="scale(1,-1)"
       id="path3770"
       style="opacity:0.2;fill:url(#linearGradient3772);fill-opacity:1;fill-rule:nonzero;stroke:none;display:inline" />
    <rect
       width="86"
       height="85"
       rx="7"
       ry="7"
       x="5"
       y="-92"
       transform="scale(1,-1)"
       id="rect3723"
       style="opacity:0.3;fill:url(#linearGradient3725);fill-opacity:1;fill-rule:nonzero;stroke:none;display:inline" />
    <rect
       width="84"
       height="84"
       rx="6"
       ry="6"
       x="6"
       y="-91"
       transform="scale(1,-1)"
       id="rect3716"
       style="opacity:0.45;fill:url(#linearGradient3721);fill-opacity:1;fill-rule:nonzero;stroke:none;display:inline" />
  </g>
  <g
     id="layer3"
     style="display:inline">
    <rect
       width="77.914963"
       height="78.516495"
       rx="5.8527675"
       ry="6.1732869"
       x="8.1408806"
       y="8.2544327"
       id="rect3461"
       style="fill:url(#radialGradient3366);fill-opacity:1;stroke:none" />
    <path
       d="m 12.0625,12.0625 0,53.875 71.875,0 0,-53.875 -71.875,0 z"
       transform="matrix(-1.0008688,0,0,-1.3339699,96.010447,99.965928)"
       id="path3215"
       style="fill:url(#radialGradient3465);fill-opacity:1;fill-rule:nonzero;stroke:none" />
    <path
       d="m -32.000011,24.000047 c -5.344692,0 -9.677419,4.008446 -9.677419,8.953116 0.01298,0.566668 0.02121,1.213684 0.08065,1.918524 -0.845839,0.446958 -0.956091,2.194858 -0.201613,3.956955 0.290931,0.679473 0.687741,1.231568 1.08871,1.678707 0.01336,0.01495 0.02688,0.02535 0.04033,0.03992 0.09571,0.465567 0.166509,0.833802 0.282259,1.358955 0.358582,1.066325 1.840339,3.072065 3.145162,4.796311 0.130123,1.330135 0.140827,2.643804 -0.120976,4.156806 -3.755733,3.088663 -13.36117,4.476556 -13.346774,7.674098 L -52,66.847042 c 0,1.703309 2.566985,3.262871 6.653226,4.31668 l 0.564516,2.27825 a 1.4052899,1.3929762 0 0 0 0.887097,0.919293 c 0.181372,0.06957 0.30937,0.216674 0.806451,0.35972 2.618482,0.753547 6.605572,1.279012 11.08871,1.279012 4.483138,0 8.51055,-0.525465 11.129032,-1.279012 0.497081,-0.143046 0.62508,-0.290189 0.80645,-0.35972 a 1.4052899,1.3929762 0 0 0 0.846776,-0.879325 l 0.685484,-2.398156 C -14.545854,70.031642 -12,68.526364 -12,66.847042 l -1.290327,-8.313598 c -0.01532,-2.736668 -9.677421,-4.476556 -13.387098,-7.674105 -0.150198,-1.224837 -0.157125,-2.430796 -0.08066,-3.637194 1.186329,-1.813949 2.748187,-4.135429 3.145161,-5.315916 0.145899,-0.611343 0.209269,-1.033853 0.32258,-1.558802 0.350322,-0.424435 0.668816,-0.914854 0.927419,-1.51883 0.716489,-1.673366 0.649595,-3.293734 -0.08065,-3.837049 0.05102,-0.727094 0.09963,-1.417008 0.120962,-2.038432 7e-6,-4.944669 -4.332719,-8.953114 -9.677411,-8.953114 z"
       transform="translate(80,0)"
       clip-path="url(#clipPath3907)"
       id="path3126"
       style="fill:#ffffff;fill-opacity:1;stroke:none;filter:url(#filter3913)" />
    <path
       d="m 47.999989,24.000047 c -5.344692,0 -9.677419,4.008446 -9.677419,8.953116 0.01298,0.566668 0.02121,1.213684 0.08065,1.918524 -0.845839,0.446958 -0.956091,2.194858 -0.201613,3.956955 0.290931,0.679473 0.687741,1.231568 1.08871,1.678707 0.01336,0.01495 0.02688,0.02535 0.04033,0.03992 0.09571,0.465567 0.166509,0.833802 0.282259,1.358955 0.358582,1.066325 1.840339,3.072065 3.145162,4.796311 0.130123,1.330135 0.140827,2.643804 -0.120976,4.156806 -3.755733,3.088663 -13.36117,4.476556 -13.346774,7.674098 L 28,66.847042 c 0,1.703309 2.566985,3.262871 6.653226,4.31668 l 0.564516,2.27825 a 1.4052899,1.3929762 0 0 0 0.887097,0.919293 c 0.181372,0.06957 0.30937,0.216674 0.806451,0.35972 2.618482,0.753547 6.605572,1.279012 11.08871,1.279012 4.483138,0 8.51055,-0.525465 11.129032,-1.279012 0.497081,-0.143046 0.62508,-0.290189 0.80645,-0.35972 a 1.4052899,1.3929762 0 0 0 0.846776,-0.879325 l 0.685484,-2.398156 C 65.454146,70.031642 68,68.526364 68,66.847042 l -1.290327,-8.313598 c -0.01532,-2.736668 -9.677421,-4.476556 -13.387098,-7.674105 -0.150198,-1.224837 -0.157125,-2.430796 -0.08066,-3.637194 1.186329,-1.813949 2.748187,-4.135429 3.145161,-5.315916 0.145899,-0.611343 0.209269,-1.033853 0.32258,-1.558802 0.350322,-0.424435 0.668816,-0.914854 0.927419,-1.51883 0.716489,-1.673366 0.649595,-3.293734 -0.08065,-3.837049 0.05102,-0.727094 0.09963,-1.417008 0.120962,-2.038432 7e-6,-4.944669 -4.332719,-8.953114 -9.677411,-8.953114 z"
       id="path3798"
       style="fill:#000000;fill-opacity:1;stroke:none" />
    <path
       d="m 19,13 c -3.289406,0 -6,2.710594 -6,6 l 0,58 c 0,3.289406 2.710594,6 6,6 l 58,0 c 3.289406,0 6,-2.710594 6,-6 l 0,-58 c 0,-3.289406 -2.710594,-6 -6,-6 l -58,0 z m 0,4 58,0 c 1.142594,0 2,0.857406 2,2 l 0,58 c 0,1.142594 -0.857406,2 -2,2 l -58,0 c -1.142594,0 -2,-0.857406 -2,-2 l 0,-58 c 0,-1.142594 0.857406,-2 2,-2 z"
       id="rect3222"
       style="font-size:medium;font-style:normal;font-variant:normal;font-weight:normal;font-stretch:normal;text-indent:0;text-align:start;text-decoration:none;line-height:normal;letter-spacing:normal;word-spacing:normal;text-transform:none;direction:ltr;block-progression:tb;writing-mode:lr-tb;text-anchor:start;opacity:0.07999998;color:#000000;fill:#000000;fill-opacity:1;stroke:none;stroke-width:4;marker:none;visibility:visible;display:inline;overflow:visible;enable-background:accumulate;font-family:Abandoned Bitplane;-inkscape-font-specification:Abandoned Bitplane" />
    <path
       d="m 17,14 c -1.662,0 -3,1.338 -3,3 l 0,62 c 0,1.662 1.338,3 3,3 l 62,0 c 1.662,0 3,-1.338 3,-3 l 0,-62 c 0,-1.662 -1.338,-3 -3,-3 l -62,0 z m 0,1.9375 62,0 c 0.618163,0 1.0625,0.444337 1.0625,1.0625 l 0,62 c 0,0.618163 -0.444337,1.0625 -1.0625,1.0625 l -62,0 c -0.618163,0 -1.0625,-0.444337 -1.0625,-1.0625 l 0,-62 c 0,-0.618163 0.444337,-1.0625 1.0625,-1.0625 z"
       id="rect3981"
       style="opacity:0.1;color:#000000;fill:#000000;fill-opacity:1;fill-rule:nonzero;stroke:none;stroke-width:1;marker:none;visibility:visible;display:inline;overflow:visible;enable-background:accumulate" />
    <path
       d="m 17,14 c -1.662,0 -3,1.338 -3,3 l 0,62 c 0,1.662 1.338,3 3,3 l 62,0 c 1.662,0 3,-1.338 3,-3 l 0,-62 c 0,-1.662 -1.338,-3 -3,-3 l -62,0 z m 0,0.96875 62,0 c 1.140081,0 2.03125,0.891169 2.03125,2.03125 l 0,62 c 0,1.140081 -0.891169,2.03125 -2.03125,2.03125 l -62,0 c -1.140081,0 -2.03125,-0.891169 -2.03125,-2.03125 l 0,-62 c 0,-1.140081 0.891169,-2.03125 2.03125,-2.03125 z"
       id="rect3977"
       style="opacity:0.25;color:#000000;fill:#000000;fill-opacity:1;fill-rule:nonzero;stroke:none;stroke-width:1;marker:none;visibility:visible;display:inline;overflow:visible;enable-background:accumulate" />
  </g>
  <g
     id="layer1"
     style="display:inline">
    <path
       d="M 12,6 C 8.676,6 6,8.676 6,12 l 0,72 c 0,3.324 2.676,6 6,6 l 72,0 c 3.324,0 6,-2.676 6,-6 L 90,12 C 90,8.676 87.324,6 84,6 L 12,6 z m 5,8 1,0 60,0 1,0 c 1.683774,0 3,1.316227 3,3 l 0,1 0,60 0,1 c 10e-7,1.683774 -1.316227,3 -3,3 l -1,0 -60,0 -1,0 c -1.683771,10e-7 -3,-1.316227 -3,-3 l 0,-1 0,-60 0,-1 c 0,-1.683772 1.316227,-3 3,-3 z"
       id="rect2419"
       style="fill:url(#linearGradient3466);fill-opacity:1;fill-rule:nonzero;stroke:none" />
    <path
       d="M 12,6 C 8.676,6 6,8.676 6,12 l 0,2 0,68 0,2 c 0,0.334721 0.04135,0.6507 0.09375,0.96875 0.0487,0.295596 0.09704,0.596915 0.1875,0.875 0.00988,0.03038 0.020892,0.0636 0.03125,0.09375 0.098865,0.287771 0.2348802,0.547452 0.375,0.8125 0.1445918,0.273507 0.3156161,0.535615 0.5,0.78125 0.1843839,0.245635 0.3737765,0.473472 0.59375,0.6875 0.439947,0.428056 0.94291,0.814526 1.5,1.09375 0.278545,0.139612 0.5734731,0.246947 0.875,0.34375 -0.2562018,-0.100222 -0.4867109,-0.236272 -0.71875,-0.375 -0.00741,-0.0044 -0.023866,0.0045 -0.03125,0 -0.031933,-0.0193 -0.062293,-0.04251 -0.09375,-0.0625 -0.120395,-0.0767 -0.2310226,-0.163513 -0.34375,-0.25 -0.1061728,-0.0808 -0.2132809,-0.161112 -0.3125,-0.25 C 8.4783201,88.557317 8.3087904,88.373362 8.15625,88.1875 8.0486711,88.057245 7.9378561,87.922215 7.84375,87.78125 7.818661,87.74287 7.805304,87.69538 7.78125,87.65625 7.716487,87.553218 7.6510225,87.451733 7.59375,87.34375 7.4927417,87.149044 7.3880752,86.928049 7.3125,86.71875 7.30454,86.69694 7.288911,86.6782 7.28125,86.65625 7.2494249,86.5643 7.2454455,86.469419 7.21875,86.375 7.1884177,86.268382 7.1483606,86.171969 7.125,86.0625 7.0521214,85.720988 7,85.364295 7,85 L 7,83 7,15 7,13 C 7,10.218152 9.2181517,8 12,8 l 2,0 68,0 2,0 c 2.781848,0 5,2.218152 5,5 l 0,2 0,68 0,2 c 0,0.364295 -0.05212,0.720988 -0.125,1.0625 -0.04415,0.206893 -0.08838,0.397658 -0.15625,0.59375 -0.0077,0.02195 -0.0233,0.04069 -0.03125,0.0625 -0.06274,0.173739 -0.138383,0.367449 -0.21875,0.53125 -0.04158,0.0828 -0.07904,0.169954 -0.125,0.25 -0.0546,0.09721 -0.126774,0.18835 -0.1875,0.28125 -0.09411,0.140965 -0.204921,0.275995 -0.3125,0.40625 -0.143174,0.17445 -0.303141,0.346998 -0.46875,0.5 -0.01117,0.0102 -0.01998,0.02115 -0.03125,0.03125 -0.138386,0.125556 -0.285091,0.234436 -0.4375,0.34375 -0.102571,0.07315 -0.204318,0.153364 -0.3125,0.21875 -0.0074,0.0045 -0.02384,-0.0044 -0.03125,0 -0.232039,0.138728 -0.462548,0.274778 -0.71875,0.375 0.301527,-0.0968 0.596455,-0.204138 0.875,-0.34375 0.55709,-0.279224 1.060053,-0.665694 1.5,-1.09375 0.219973,-0.214028 0.409366,-0.441865 0.59375,-0.6875 0.184384,-0.245635 0.355408,-0.507743 0.5,-0.78125 0.14012,-0.265048 0.276135,-0.524729 0.375,-0.8125 0.01041,-0.03078 0.02133,-0.06274 0.03125,-0.09375 0.09046,-0.278085 0.1388,-0.579404 0.1875,-0.875 C 89.95865,84.6507 90,84.334721 90,84 l 0,-2 0,-68 0,-2 C 90,8.676 87.324,6 84,6 L 12,6 z"
       id="rect3728"
       style="opacity:0.7;fill:url(#linearGradient3188);fill-opacity:1;fill-rule:nonzero;stroke:none" />
    <rect
       width="70"
       height="70"
       rx="4"
       ry="4"
       x="13.000001"
       y="13.000001"
       id="rect3425"
       style="fill:none;stroke:url(#linearGradient3436);stroke-width:2;stroke-linecap:square;stroke-linejoin:round;stroke-miterlimit:4;stroke-opacity:0.69658119;stroke-dasharray:none;stroke-dashoffset:0" />
    <path
       d="M 12,90 C 8.676,90 6,87.324 6,84 L 6,82 6,14 6,12 c 0,-0.334721 0.04135,-0.6507 0.09375,-0.96875 0.0487,-0.295596 0.09704,-0.596915 0.1875,-0.875 C 6.29113,10.12587 6.302142,10.09265 6.3125,10.0625 6.411365,9.774729 6.5473802,9.515048 6.6875,9.25 6.8320918,8.976493 7.0031161,8.714385 7.1875,8.46875 7.3718839,8.223115 7.5612765,7.995278 7.78125,7.78125 8.221197,7.353194 8.72416,6.966724 9.28125,6.6875 9.559795,6.547888 9.8547231,6.440553 10.15625,6.34375 9.9000482,6.443972 9.6695391,6.580022 9.4375,6.71875 c -0.00741,0.0044 -0.023866,-0.0045 -0.03125,0 -0.031933,0.0193 -0.062293,0.04251 -0.09375,0.0625 -0.120395,0.0767 -0.2310226,0.163513 -0.34375,0.25 -0.1061728,0.0808 -0.2132809,0.161112 -0.3125,0.25 C 8.4783201,7.442683 8.3087904,7.626638 8.15625,7.8125 8.0486711,7.942755 7.9378561,8.077785 7.84375,8.21875 7.818661,8.25713 7.805304,8.30462 7.78125,8.34375 7.716487,8.446782 7.6510225,8.548267 7.59375,8.65625 7.4927417,8.850956 7.3880752,9.071951 7.3125,9.28125 7.30454,9.30306 7.288911,9.3218 7.28125,9.34375 7.2494249,9.4357 7.2454455,9.530581 7.21875,9.625 7.1884177,9.731618 7.1483606,9.828031 7.125,9.9375 7.0521214,10.279012 7,10.635705 7,11 l 0,2 0,68 0,2 c 0,2.781848 2.2181517,5 5,5 l 2,0 68,0 2,0 c 2.781848,0 5,-2.218152 5,-5 l 0,-2 0,-68 0,-2 C 89,10.635705 88.94788,10.279012 88.875,9.9375 88.83085,9.730607 88.78662,9.539842 88.71875,9.34375 88.71105,9.3218 88.69545,9.30306 88.6875,9.28125 88.62476,9.107511 88.549117,8.913801 88.46875,8.75 88.42717,8.6672 88.38971,8.580046 88.34375,8.5 88.28915,8.40279 88.216976,8.31165 88.15625,8.21875 88.06214,8.077785 87.951329,7.942755 87.84375,7.8125 87.700576,7.63805 87.540609,7.465502 87.375,7.3125 87.36383,7.3023 87.35502,7.29135 87.34375,7.28125 87.205364,7.155694 87.058659,7.046814 86.90625,6.9375 86.803679,6.86435 86.701932,6.784136 86.59375,6.71875 c -0.0074,-0.0045 -0.02384,0.0044 -0.03125,0 -0.232039,-0.138728 -0.462548,-0.274778 -0.71875,-0.375 0.301527,0.0968 0.596455,0.204138 0.875,0.34375 0.55709,0.279224 1.060053,0.665694 1.5,1.09375 0.219973,0.214028 0.409366,0.441865 0.59375,0.6875 0.184384,0.245635 0.355408,0.507743 0.5,0.78125 0.14012,0.265048 0.276135,0.524729 0.375,0.8125 0.01041,0.03078 0.02133,0.06274 0.03125,0.09375 0.09046,0.278085 0.1388,0.579404 0.1875,0.875 C 89.95865,11.3493 90,11.665279 90,12 l 0,2 0,68 0,2 c 0,3.324 -2.676,6 -6,6 l -72,0 z"
       id="path3615"
       style="opacity:0.4;fill:url(#radialGradient2893);fill-opacity:1;fill-rule:nonzero;stroke:none" />
  </g>
  <g
     id="layer5"
     style="opacity:0.81280787;display:inline">
    <path
       d="m 44.84375,8.0625 1.34375,3.875 31.8125,0 1,0 c 2.753976,0 5.0625,2.308526 5.0625,5.0625 l 0,1 0,60 0,1 c 2e-6,2.753977 -2.308526,5.0625 -5.0625,5.0625 l -1,0 -6.875,0 1.34375,3.875 11.53125,0 c 2.221843,0 3.9375,-1.715657 3.9375,-3.9375 l 0,-72 C 87.9375,9.7781575 86.221843,8.0625 84,8.0625 l -39.15625,0 z"
       id="path3660"
       style="opacity:0.4;fill:url(#linearGradient3693);fill-opacity:1;fill-rule:evenodd;stroke:none" />
    <path
       d="m 47.65625,16.125 22.03125,63.75 9.3125,0 c 0.538805,0 0.875,-0.336196 0.875,-0.875 l 0,-62 c 0,-0.538805 -0.336194,-0.875 -0.875,-0.875 l -31.34375,0 z"
       id="path3664"
       style="opacity:0.7;fill:url(#linearGradient3701);fill-opacity:1;fill-rule:evenodd;stroke:none" />
    <path
       d="m 47.65625,16.125 22.03125,63.75 1,0 -22.03125,-63.75 -1,0 z"
       id="path2669"
       style="opacity:0.5;fill:url(#linearGradient2675);fill-opacity:1;fill-rule:evenodd;stroke:none" />
  </g>
</svg>
