<?xml version="1.0" encoding="UTF-8" standalone="no"?>
<svg
   xmlns:dc="http://purl.org/dc/elements/1.1/"
   xmlns:cc="http://creativecommons.org/ns#"
   xmlns:rdf="http://www.w3.org/1999/02/22-rdf-syntax-ns#"
   xmlns:svg="http://www.w3.org/2000/svg"
   xmlns="http://www.w3.org/2000/svg"
   xmlns:xlink="http://www.w3.org/1999/xlink"
   xmlns:sodipodi="http://sodipodi.sourceforge.net/DTD/sodipodi-0.dtd"
   xmlns:inkscape="http://www.inkscape.org/namespaces/inkscape"
   height="96"
   width="96"
   version="1.1"
   id="svg15561"
   inkscape:version="0.48.4 r9939"
   sodipodi:docname="tablet.svg">
  <metadata
     id="metadata15697">
    <rdf:RDF>
      <cc:Work
         rdf:about="">
        <dc:format>image/svg+xml</dc:format>
        <dc:type
           rdf:resource="http://purl.org/dc/dcmitype/StillImage" />
        <dc:title />
      </cc:Work>
    </rdf:RDF>
  </metadata>
  <sodipodi:namedview
     pagecolor="#ffffff"
     bordercolor="#666666"
     borderopacity="1"
     objecttolerance="10"
     gridtolerance="10"
     guidetolerance="10"
     inkscape:pageopacity="0"
     inkscape:pageshadow="2"
     inkscape:window-width="1918"
     inkscape:window-height="1005"
     id="namedview15695"
     showgrid="false"
     inkscape:zoom="6.047236"
     inkscape:cx="66.788755"
     inkscape:cy="55.085061"
     inkscape:window-x="0"
     inkscape:window-y="25"
     inkscape:window-maximized="1"
     inkscape:current-layer="svg15561" />
  <defs
     id="defs15563">
    <linearGradient
       id="d"
       stop-color="#fff">
      <stop
         offset="0"
         id="stop15566" />
      <stop
         stop-opacity="0"
         offset="1"
         id="stop15568" />
    </linearGradient>
    <linearGradient
       id="c"
       y2="7.0165"
       gradientUnits="userSpaceOnUse"
       x2="45.448"
       gradientTransform="matrix(1.0059 0 0 .99417 100 0)"
       y1="92.54"
       x1="45.448">
      <stop
         offset="0"
         id="stop15571" />
      <stop
         stop-opacity=".58824"
         offset="1"
         id="stop15573" />
    </linearGradient>
    <radialGradient
       id="g"
       gradientUnits="userSpaceOnUse"
       cy="-15.871"
       cx="56.066"
       gradientTransform="matrix(-.0022617 -1.2346 1.3856 0 70.085 140.27)"
       r="35.938">
      <stop
         stop-color="#80a2c8"
         offset="0"
         id="stop15576" />
      <stop
         stop-color="#2e4c6d"
         offset="1"
         id="stop15578" />
    </radialGradient>
    <radialGradient
       id="f"
       gradientUnits="userSpaceOnUse"
       cy="80.843"
       cx="47.098"
       gradientTransform="matrix(1.3113,-5.2817e-8,4.5812e-8,1.1374,-14.662,-10.848)"
       r="38.957">
      <stop
         stop-color="#2fc044"
         offset="0"
         id="stop15581" />
      <stop
         stop-color="#246d2f"
         offset="1"
         id="stop15583" />
    </radialGradient>
    <linearGradient
       id="p"
       y2="69.688"
       xlink:href="#d"
       gradientUnits="userSpaceOnUse"
       x2="65.156"
       y1="16.125"
       x1="65.156" />
    <linearGradient
       id="o"
       y2="69.688"
       gradientUnits="userSpaceOnUse"
       x2="65.156"
       y1="16.125"
       x1="65.156">
      <stop
         stop-color="#9cb7d2"
         offset="0"
         id="stop15587" />
      <stop
         stop-color="#e7edf3"
         stop-opacity="0"
         offset="1"
         id="stop15589" />
    </linearGradient>
    <linearGradient
       id="n"
       stop-color="#fff"
       y2="72.766"
       gradientUnits="userSpaceOnUse"
       x2="76.451"
       y1="8.0625"
       x1="76.451">
      <stop
         offset="0"
         id="stop15592" />
      <stop
         stop-opacity="0"
         offset="1"
         id="stop15594" />
    </linearGradient>
    <radialGradient
       id="e"
       stop-color="#fff"
       gradientUnits="userSpaceOnUse"
       cy="90.172"
       cx="48"
       gradientTransform="matrix(1.1573 0 0 .99591 -7.551 .19713)"
       r="42">
      <stop
         offset="0"
         id="stop15597" />
      <stop
         stop-opacity="0"
         offset="1"
         id="stop15599" />
    </radialGradient>
    <linearGradient
       id="m"
       y2="83.295"
       gradientUnits="userSpaceOnUse"
       x2="43.179"
       gradientTransform="matrix(1.0294,0,0,1.0294,-1.4118,-1.4118)"
       y1="13"
       x1="43.179">
      <stop
         stop-color="#919191"
         offset="0"
         id="stop15602" />
      <stop
         stop-color="#fdfdfd"
         offset="1"
         id="stop15604" />
    </linearGradient>
    <linearGradient
       id="l"
       y2="63.893"
       xlink:href="#d"
       gradientUnits="userSpaceOnUse"
       x2="36.357"
       y1="6"
       x1="36.357" />
    <linearGradient
       id="k"
       y2="5.9877"
       gradientUnits="userSpaceOnUse"
       x2="48"
       y1="90"
       x1="48">
      <stop
         stop-color="#b4b4b4"
         offset="0"
         id="stop15608" />
      <stop
         stop-color="#e6e6e6"
         offset="1"
         id="stop15610" />
    </linearGradient>
    <linearGradient
       id="j"
       y2="6"
       xlink:href="#c"
       gradientUnits="userSpaceOnUse"
       x2="32.251"
       gradientTransform="translate(0,1)"
       y1="90"
       x1="32.251" />
    <linearGradient
       id="i"
       y2="5.9996"
       xlink:href="#c"
       gradientUnits="userSpaceOnUse"
       x2="32.251"
       gradientTransform="matrix(1.0238 0 0 1.0119 -1.1429 .929)"
       y1="90"
       x1="32.251" />
    <linearGradient
       id="h"
       y2="90.239"
       xlink:href="#c"
       gradientUnits="userSpaceOnUse"
       x2="32.251"
       gradientTransform="matrix(1.0238,0,0,-1.0119,-1.1429,98.071)"
       y1="6.1317"
       x1="32.251" />
    <filter
       id="filter16049"
       style="color-interpolation-filters:sRGB;"
       inkscape:label="Drop Shadow">
      <feFlood
         id="feFlood16051"
         flood-opacity="0.5"
         flood-color="rgb(0,0,0)"
         result="flood" />
      <feComposite
         id="feComposite16053"
         in2="SourceGraphic"
         in="flood"
         operator="in"
         result="composite1" />
      <feGaussianBlur
         id="feGaussianBlur16055"
         in="composite"
         stdDeviation="0.9"
         result="blur" />
      <feOffset
         id="feOffset16057"
         dx="2.8"
         dy="2.8"
         result="offset" />
      <feComposite
         id="feComposite16059"
         in2="offset"
         in="SourceGraphic"
         operator="over"
         result="composite2" />
    </filter>
    <filter
       id="filter16061"
       style="color-interpolation-filters:sRGB;"
       inkscape:label="Drop Shadow">
      <feFlood
         id="feFlood16063"
         flood-opacity="0.5"
         flood-color="rgb(0,0,0)"
         result="flood" />
      <feComposite
         id="feComposite16065"
         in2="SourceGraphic"
         in="flood"
         operator="in"
         result="composite1" />
      <feGaussianBlur
         id="feGaussianBlur16067"
         in="composite"
         stdDeviation="0.9"
         result="blur" />
      <feOffset
         id="feOffset16069"
         dx="2.8"
         dy="2.8"
         result="offset" />
      <feComposite
         id="feComposite16071"
         in2="offset"
         in="SourceGraphic"
         operator="over"
         result="composite2" />
    </filter>
  </defs>
  <g
     fill="url(#h)"
     id="g15615">
    <path
       opacity="0.08"
       d="m12 95.031c-5.5111 0-10.031-4.52-10.031-10.031v-71c0-5.5111 4.5202-10.031 10.031-10.031h72c5.5111 0 10.031 4.5202 10.031 10.031v71c0 5.5111-4.5202 10.031-10.031 10.031h-72z"
       id="path15617" />
    <path
       opacity=".1"
       d="m12 94.031c-4.9716 0-9.0312-4.0596-9.0312-9.0312v-71c0-4.9718 4.0596-9.0314 9.0312-9.0314h72c4.9716 0 9.0312 4.0596 9.0312 9.0312v71c0 4.9716-4.0596 9.0312-9.0312 9.0312h-72z"
       id="path15619" />
    <path
       opacity=".2"
       d="m12 93c-4.4091 0-8-3.591-8-8v-71c0-4.4091 3.5909-8 8-8h72c4.4091 0 8 3.5909 8 8v71c0 4.4091-3.5909 8-8 8h-72z"
       id="path15621" />
  </g>
  <rect
     opacity=".3"
     rx="7"
     ry="7"
     height="85"
     width="86"
     y="7"
     x="5"
     fill="url(#i)"
     id="rect15623" />
  <rect
     opacity=".45"
     rx="6"
     ry="6"
     height="84"
     width="84"
     y="7"
     x="6"
     fill="url(#j)"
     id="rect15625" />
  <rect
     rx="5.8528"
     ry="6.1733"
     height="78.516"
     width="77.915"
     y="8.2544"
     x="8.1409"
     fill="url(#f)"
     id="rect15627" />
  <path
     d="m83.937 83.875v-71.869h-71.94v71.869h71.94z"
     id="path15629"
     fill="url(#g)" />
  <g
     id="g15687"
     fill-rule="evenodd">
    <path
       d="m44.844 8.0625 1.3438 3.875h32.812c2.754 0 5.0625 2.3085 5.0625 5.0625v62c0.000002 2.754-2.3085 5.0625-5.0625 5.0625h-7.875l1.3438 3.875h11.531c2.2218 0 3.9375-1.7157 3.9375-3.9375v-72c0-2.2218-1.716-3.9375-3.938-3.9375h-39.156z"
       id="path15689"
       fill="url(#n)"
       opacity="0.33" />
    <path
       d="m47.656 16.125 22.031 63.75h9.3125c0.5388 0 0.875-0.3362 0.875-0.875v-62c0-0.5388-0.33619-0.875-0.875-0.875h-31.344z"
       id="path15691"
       fill="url(#o)"
       opacity="0.57" />
    <path
       d="m47.656 16.125 22.031 63.75h1l-22.031-63.75h-1z"
       id="path15693"
       fill="url(#p)"
       opacity="0.41" />
  </g>
  <g
     id="g3058"
     transform="translate(86.320428,22.654978)">
    <path
       sodipodi:nodetypes="ccccc"
       inkscape:connector-curvature="0"
       id="path3568-6"
       d="m -58.842112,20.684265 -0.274248,29.897576 c 10.072309,1.907863 29.270718,2.468699 40.760216,0 l -0.274249,-29.897576 z"
       style="fill:#d3d7cf;fill-opacity:1;stroke:#babdb6;stroke-width:1px;stroke-linecap:butt;stroke-linejoin:miter;stroke-opacity:1;display:inline;filter:url(#filter16061)" />
    <rect
       y="24.4254"
       x="-53.803181"
       height="20.393595"
       width="30.133865"
       id="rect10889"
       style="color:#000000;fill:#babdb6;fill-opacity:1;fill-rule:nonzero;stroke:#babdb6;stroke-width:0.99999982;stroke-linecap:butt;stroke-linejoin:miter;stroke-miterlimit:4;stroke-opacity:1;stroke-dasharray:none;stroke-dashoffset:0;marker:none;visibility:visible;display:inline;overflow:visible;enable-background:accumulate" />
  </g>
  <g
     style="display:inline;filter:url(#filter16049)"
     transform="matrix(0,0.19928201,-0.19928201,0,123.61833,144.04759)"
     id="g10545">
    <path
       sodipodi:nodetypes="sscsscscccccccccccccscsscsss"
       inkscape:connector-curvature="0"
       id="rect10526"
       transform="translate(-928.4063,-95.84375)"
       d="m 349.69531,384.96463 c -2.3083,0 -3.2326,1.49535 -3.69531,4.51323 L 345.53125,396 344.125,396 c -1.9944,0 -3.59375,1.59935 -3.59375,3.59375 L 340.53125,516 338,545.125 c -0.1873,2.15512 1.62589,3.92035 3.75,4.125 l 4.625,10.90625 1.53125,0 0,2.15625 3.61536,8.57242 1.18546,0.0214 0.44918,3.78119 0.33938,-3.7414 1.14797,-0.0687 3.76265,-8.53366 0,-2.1875 1.53125,0 4.65625,-10.96875 c 1.96694,-0.35188 3.54637,-2.02216 3.40625,-4.0625 L 365.53125,516 l 0,-116.40625 c 0,-1.9944 -1.59935,-3.59375 -3.59375,-3.59375 l -1.40625,0 L 360,389.47786 c -0.23272,-2.85711 -1.26201,-4.51323 -3.69531,-4.51323 z"
       style="color:#000000;fill:#d3d7cf;fill-opacity:1;fill-rule:nonzero;stroke:#babdb6;stroke-width:5.01801443px;stroke-linecap:butt;stroke-linejoin:miter;stroke-miterlimit:4;stroke-opacity:1;stroke-dasharray:none;stroke-dashoffset:0;marker:none;visibility:visible;display:inline;overflow:visible;enable-background:accumulate" />
    <rect
       style="color:#000000;fill:#eeeeec;fill-opacity:1;fill-rule:nonzero;stroke:#babdb6;stroke-width:5.01801443px;stroke-linecap:butt;stroke-linejoin:miter;stroke-miterlimit:4;stroke-opacity:1;stroke-dasharray:none;stroke-dashoffset:0;marker:none;visibility:visible;display:inline;overflow:visible;enable-background:accumulate"
       id="rect10541"
       width="8.75"
       height="22"
       x="-579.65631"
       y="385.90625"
       rx="16.308546"
       ry="16.308546" />
    <rect
       ry="16.308548"
       rx="16.308546"
       y="410.90625"
       x="-579.65631"
       height="12.25"
       width="8.75"
       id="rect10543"
       style="color:#000000;fill:#eeeeec;fill-opacity:1;fill-rule:nonzero;stroke:#babdb6;stroke-width:5.01801443px;stroke-linecap:butt;stroke-linejoin:miter;stroke-miterlimit:4;stroke-opacity:1;stroke-dasharray:none;stroke-dashoffset:0;marker:none;visibility:visible;display:inline;overflow:visible;enable-background:accumulate" />
  </g>
  <path
     opacity="0.08"
     d="m19 13c-3.2894 0-6 2.7106-6 6v58c0 3.2894 2.7106 6 6 6h58c3.2894 0 6-2.7106 6-6v-58c0-3.2894-2.7106-6-6-6h-58zm0 4h58c1.1426 0 2 0.85741 2 2v58c0 1.1426-0.85741 2-2 2h-58c-1.1426 0-2-0.85741-2-2v-58c0-1.1426 0.85741-2 2-2z"
     id="path15671" />
  <path
     opacity=".1"
     style="color:#000000;enable-background:accumulate"
     d="m17 14c-1.662 0-3 1.338-3 3v62c0 1.662 1.338 3 3 3h62c1.662 0 3-1.338 3-3v-62c0-1.662-1.338-3-3-3h-62zm0 1.9375h62c0.61816 0 1.0625 0.44434 1.0625 1.0625v62c0 0.61816-0.44434 1.0625-1.0625 1.0625h-62c-0.61816 0-1.0625-0.44434-1.0625-1.0625v-62c0-0.61816 0.44434-1.0625 1.0625-1.0625z"
     id="path15675" />
  <path
     opacity=".25"
     style="color:#000000;enable-background:accumulate"
     d="m17 14c-1.662 0-3 1.338-3 3v62c0 1.662 1.338 3 3 3h62c1.662 0 3-1.338 3-3v-62c0-1.662-1.338-3-3-3h-62zm0 0.96875h62c1.1401 0 2.0312 0.89117 2.0312 2.0312v62c0 1.1401-0.89117 2.0312-2.0312 2.0312h-62c-1.1401 0-2.0312-0.89117-2.0312-2.0312v-62c0-1.1401 0.89117-2.0312 2.0312-2.0312z"
     id="path15677" />
  <path
     d="m12 6c-3.324 0-6 2.676-6 6v72c0 3.324 2.676 6 6 6h72c3.324 0 6-2.676 6-6v-72c0-3.324-2.676-6-6-6h-72zm5 8h62c1.6838 0 3 1.3162 3 3v62c0.000001 1.6838-1.3162 3-3 3h-62c-1.6838 0.000001-3-1.3162-3-3v-62c0-1.6838 1.3162-3 3-3z"
     fill="url(#k)"
     id="path15679" />
  <path
     opacity=".7"
     d="m12 6c-3.324 0-6 2.676-6 6v72c0 0.33472 0.04135 0.6507 0.09375 0.96875 0.0487 0.2956 0.09704 0.59692 0.1875 0.875 0.00988 0.03038 0.020892 0.0636 0.03125 0.09375 0.098865 0.28777 0.23488 0.54745 0.375 0.8125 0.14459 0.27351 0.31562 0.53562 0.5 0.78125 0.18438 0.24564 0.37378 0.47347 0.59375 0.6875 0.43995 0.42806 0.94291 0.81453 1.5 1.0938 0.27854 0.13961 0.57347 0.24695 0.875 0.34375-0.2562-0.10022-0.48671-0.23627-0.71875-0.375-0.00741-0.0044-0.023866 0.0045-0.03125 0-0.0319-0.019-0.0622-0.042-0.0937-0.062-0.1204-0.077-0.231-0.164-0.3437-0.25-0.1062-0.081-0.2133-0.161-0.3126-0.25-0.1778-0.162-0.3473-0.346-0.4999-0.531-0.1075-0.131-0.2183-0.266-0.3124-0.407-0.0251-0.038-0.0385-0.086-0.0626-0.125-0.0647-0.103-0.1302-0.204-0.1874-0.312-0.1011-0.195-0.2057-0.416-0.2813-0.625-0.008-0.022-0.0236-0.041-0.0313-0.063-0.0318-0.092-0.0358-0.187-0.0624-0.281-0.0304-0.107-0.0704-0.203-0.0938-0.313-0.0729-0.341-0.125-0.698-0.125-1.062v-72c0-2.782 2.2182-5 5-5h72c2.7818 0 5 2.2182 5 5v72c0 0.3643-0.05212 0.72099-0.125 1.0625-0.04415 0.20689-0.08838 0.39766-0.15625 0.59375-0.0077 0.02195-0.0233 0.04069-0.03125 0.0625-0.06274 0.17374-0.13838 0.36745-0.21875 0.53125-0.04158 0.0828-0.07904 0.16995-0.125 0.25-0.0546 0.09721-0.12677 0.18835-0.1875 0.28125-0.09411 0.14096-0.20492 0.276-0.3125 0.40625-0.14317 0.17445-0.30314 0.347-0.46875 0.5-0.01117 0.0102-0.01998 0.02115-0.03125 0.03125-0.13839 0.12556-0.28509 0.23444-0.4375 0.34375-0.10257 0.07315-0.20432 0.15336-0.3125 0.21875-0.0074 0.0045-0.02384-0.0044-0.03125 0-0.23204 0.13873-0.46255 0.27478-0.71875 0.375 0.30153-0.0968 0.59646-0.20414 0.875-0.34375 0.55709-0.27922 1.0601-0.66569 1.5-1.0938 0.21997-0.21403 0.40937-0.44186 0.59375-0.6875s0.35541-0.50774 0.5-0.78125c0.14012-0.26505 0.27614-0.52473 0.375-0.8125 0.01041-0.03078 0.02133-0.06274 0.03125-0.09375 0.09046-0.27808 0.1388-0.5794 0.1875-0.875 0.053-0.318 0.094-0.634 0.094-0.969v-72c0-3.324-2.676-6-6-6h-72z"
     fill="url(#l)"
     id="path15681" />
  <rect
     stroke-linejoin="round"
     stroke-opacity=".7"
     rx="4"
     ry="4"
     height="70"
     width="70"
     stroke="url(#m)"
     stroke-linecap="square"
     y="13"
     x="13"
     stroke-width="2"
     fill="none"
     id="rect15683" />
  <path
     opacity=".4"
     d="m12 90c-3.324 0-6-2.676-6-6v-72c0-0.33472 0.04135-0.6507 0.09375-0.96875 0.0487-0.2956 0.09704-0.59692 0.1875-0.875 0.0099-0.03 0.0209-0.063 0.0313-0.094 0.0989-0.2873 0.2349-0.547 0.375-0.812 0.1446-0.2735 0.3156-0.5356 0.5-0.7812 0.1844-0.2457 0.3738-0.4735 0.5937-0.6876 0.44-0.428 0.943-0.8145 1.5-1.0937 0.2786-0.1396 0.5735-0.2469 0.8748-0.3437-0.256 0.1002-0.4865 0.2362-0.7185 0.375-0.00741 0.0044-0.023866-0.0045-0.03125 0-0.031933 0.0193-0.062293 0.04251-0.09375 0.0625-0.1204 0.0767-0.23102 0.16351-0.34375 0.25-0.10617 0.0808-0.21328 0.16111-0.3125 0.25-0.1779 0.1614-0.3474 0.3453-0.5 0.5312-0.1075 0.1303-0.2183 0.2653-0.3124 0.4063-0.0251 0.0383-0.0385 0.0858-0.0626 0.125-0.0647 0.103-0.1302 0.2045-0.1874 0.3124-0.1011 0.1948-0.2057 0.4158-0.2813 0.625-0.008 0.0219-0.0236 0.0406-0.0313 0.0626-0.0318 0.0919-0.0358 0.1868-0.0624 0.2812-0.0304 0.1066-0.0704 0.203-0.0938 0.3125-0.0729 0.3415-0.125 0.6985-0.125 1.0625v72c0 2.7818 2.2182 5 5 5h72c2.7818 0 5-2.2182 5-5v-72c0-0.364-0.052-0.721-0.125-1.0625-0.044-0.2069-0.088-0.3977-0.156-0.5937-0.008-0.022-0.024-0.0407-0.031-0.0626-0.063-0.1737-0.139-0.3674-0.219-0.5312-0.042-0.0828-0.079-0.17-0.125-0.25-0.055-0.0972-0.127-0.1884-0.188-0.2812-0.094-0.141-0.205-0.276-0.312-0.4063-0.143-0.1745-0.303-0.347-0.469-0.5-0.011-0.0102-0.02-0.0211-0.031-0.0313-0.139-0.1255-0.285-0.2344-0.438-0.3437-0.102-0.0731-0.204-0.1534-0.312-0.2187-0.0074-0.0045-0.02384 0.0044-0.03125 0-0.23204-0.13873-0.46255-0.27478-0.71875-0.375 0.30153 0.0968 0.59646 0.20414 0.875 0.34375 0.55709 0.27922 1.0601 0.66569 1.5 1.0938 0.21997 0.21403 0.40937 0.44186 0.59375 0.6875s0.35541 0.50774 0.5 0.78125c0.14012 0.26505 0.27614 0.52473 0.375 0.8125 0.01041 0.03078 0.02133 0.06274 0.03125 0.09375 0.09046 0.27808 0.1388 0.5794 0.1875 0.875 0.053 0.318 0.094 0.634 0.094 0.969v72c0 3.324-2.676 6-6 6h-72z"
     fill="url(#e)"
     id="path15685" />
</svg>
