<?xml version="1.0" encoding="UTF-8" standalone="no"?>
<!-- Created with Inkscape (http://www.inkscape.org/) -->

<svg
   xmlns:dc="http://purl.org/dc/elements/1.1/"
   xmlns:cc="http://creativecommons.org/ns#"
   xmlns:rdf="http://www.w3.org/1999/02/22-rdf-syntax-ns#"
   xmlns:svg="http://www.w3.org/2000/svg"
   xmlns="http://www.w3.org/2000/svg"
   xmlns:xlink="http://www.w3.org/1999/xlink"
   xmlns:inkscape="http://www.inkscape.org/namespaces/inkscape"
   version="1.0"
   width="96"
   height="96"
   id="svg2408">
  <defs
     id="defs2410">
    <linearGradient
       id="ButtonColor">
      <stop
         id="stop3189"
         style="stop-color:#1d5282;stop-opacity:1"
         offset="0" />
      <stop
         id="stop3191"
         style="stop-color:#568ec2;stop-opacity:1"
         offset="1" />
    </linearGradient>
    <linearGradient
       x1="45.447727"
       y1="92.539597"
       x2="45.447727"
       y2="7.0165396"
       id="ButtonShadow"
       gradientUnits="userSpaceOnUse"
       gradientTransform="scale(1.0058652,0.994169)">
      <stop
         id="stop3750"
         style="stop-color:#000000;stop-opacity:1"
         offset="0" />
      <stop
         id="stop3752"
         style="stop-color:#000000;stop-opacity:0.58823532"
         offset="1" />
    </linearGradient>
    <linearGradient
       id="linearGradient3737">
      <stop
         id="stop3739"
         style="stop-color:#ffffff;stop-opacity:1"
         offset="0" />
      <stop
         id="stop3741"
         style="stop-color:#ffffff;stop-opacity:0"
         offset="1" />
    </linearGradient>
    <linearGradient
       x1="48"
       y1="90"
       x2="48"
       y2="5.9877172"
       id="linearGradient3706"
       xlink:href="#ButtonColor"
       gradientUnits="userSpaceOnUse" />
    <filter
       color-interpolation-filters="sRGB"
       id="filter3218">
      <feGaussianBlur
         id="feGaussianBlur3220"
         stdDeviation="1.71" />
    </filter>
    <linearGradient
       x1="124.39286"
       y1="6"
       x2="124.39286"
       y2="63.606895"
       id="linearGradient3230"
       xlink:href="#linearGradient3737"
       gradientUnits="userSpaceOnUse"
       gradientTransform="translate(-100,0)" />
    <linearGradient
       id="linearGradient3737-6">
      <stop
         id="stop3739-6"
         style="stop-color:#ffffff;stop-opacity:1"
         offset="0" />
      <stop
         id="stop3741-4"
         style="stop-color:#ffffff;stop-opacity:0"
         offset="1" />
    </linearGradient>
    <radialGradient
       cx="48"
       cy="90.171875"
       r="42"
       fx="48"
       fy="90.171875"
       id="radialGradient2874"
       xlink:href="#linearGradient3737-6"
       gradientUnits="userSpaceOnUse"
       gradientTransform="matrix(1.1573129,0,0,0.99590774,-7.551021,0.1971319)" />
    <linearGradient
       id="linearGradient3737-2">
      <stop
         id="stop3739-5"
         style="stop-color:#ffffff;stop-opacity:1"
         offset="0" />
      <stop
         id="stop3741-8"
         style="stop-color:#ffffff;stop-opacity:0"
         offset="1" />
    </linearGradient>
    <clipPath
       id="clipPath3613">
      <rect
         width="84"
         height="84"
         rx="6"
         ry="6"
         x="6"
         y="6"
         id="rect3615"
         style="fill:#ffffff;fill-opacity:1;fill-rule:nonzero;stroke:none" />
    </clipPath>
    <filter
       x="-0.192"
       y="-0.192"
       width="1.3839999"
       height="1.3839999"
       color-interpolation-filters="sRGB"
       id="filter3794">
      <feGaussianBlur
         id="feGaussianBlur3796"
         stdDeviation="5.28" />
    </filter>
    <linearGradient
       x1="48"
       y1="20.220806"
       x2="48"
       y2="138.66119"
       id="linearGradient2908"
       xlink:href="#linearGradient3737-2"
       gradientUnits="userSpaceOnUse" />
    <linearGradient
       x1="45.447727"
       y1="92.539597"
       x2="45.447727"
       y2="7.0165396"
       id="ButtonShadow-0"
       gradientUnits="userSpaceOnUse"
       gradientTransform="matrix(1.0058652,0,0,0.994169,100,0)">
      <stop
         id="stop3750-8"
         style="stop-color:#000000;stop-opacity:1"
         offset="0" />
      <stop
         id="stop3752-5"
         style="stop-color:#000000;stop-opacity:0.58823532"
         offset="1" />
    </linearGradient>
    <linearGradient
       x1="32.251034"
       y1="6.1317081"
       x2="32.251034"
       y2="90.238609"
       id="linearGradient3780"
       xlink:href="#ButtonShadow-0"
       gradientUnits="userSpaceOnUse"
       gradientTransform="matrix(1.0238095,0,0,1.0119048,-1.1428571,-98.071429)" />
    <linearGradient
       x1="32.251034"
       y1="6.1317081"
       x2="32.251034"
       y2="90.238609"
       id="linearGradient3772"
       xlink:href="#ButtonShadow-0"
       gradientUnits="userSpaceOnUse"
       gradientTransform="matrix(1.0238095,0,0,1.0119048,-1.1428571,-98.071429)" />
    <linearGradient
       x1="32.251034"
       y1="6.1317081"
       x2="32.251034"
       y2="90.238609"
       id="linearGradient3725"
       xlink:href="#ButtonShadow-0"
       gradientUnits="userSpaceOnUse"
       gradientTransform="matrix(1.0238095,0,0,1.0119048,-1.1428571,-98.071429)" />
    <linearGradient
       x1="32.251034"
       y1="6.1317081"
       x2="32.251034"
       y2="90.238609"
       id="linearGradient3721"
       xlink:href="#ButtonShadow-0"
       gradientUnits="userSpaceOnUse"
       gradientTransform="translate(0,-97)" />
    <linearGradient
       x1="32.251034"
       y1="6.1317081"
       x2="32.251034"
       y2="90.238609"
       id="linearGradient3071"
       xlink:href="#ButtonShadow-0"
       gradientUnits="userSpaceOnUse"
       gradientTransform="matrix(1.0238095,0,0,1.0119048,-1.1428571,-98.071429)" />
  </defs>
  <metadata
     id="metadata2413">
    <rdf:RDF>
      <cc:Work
         rdf:about="">
        <dc:format>image/svg+xml</dc:format>
        <dc:type
           rdf:resource="http://purl.org/dc/dcmitype/StillImage" />
      </cc:Work>
    </rdf:RDF>
  </metadata>
  <g
     id="layer2"
     style="display:none">
    <rect
       width="86"
       height="85"
       rx="7"
       ry="7"
       x="5"
       y="7"
       id="rect3745"
       style="opacity:0.9;fill:url(#ButtonShadow);fill-opacity:1;fill-rule:nonzero;stroke:none;filter:url(#filter3218)" />
  </g>
  <g
     id="layer5"
     style="display:inline">
    <path
       d="m 12,-95.03125 c -5.5110903,0 -10.03125,4.52016 -10.03125,10.03125 l 0,71 c 0,5.5110902 4.5201598,10.03125 10.03125,10.03125 l 72,0 c 5.51109,0 10.03125,-4.5201597 10.03125,-10.03125 l 0,-71 c 0,-5.51109 -4.52016,-10.03125 -10.03125,-10.03125 l -72,0 z"
       transform="scale(1,-1)"
       id="path3786"
       style="opacity:0.07999998;fill:url(#linearGradient3071);fill-opacity:1;fill-rule:nonzero;stroke:none;display:inline" />
    <path
       d="m 12,-94.03125 c -4.971633,0 -9.03125,4.059617 -9.03125,9.03125 l 0,71 c 0,4.9716329 4.0596171,9.03125 9.03125,9.03125 l 72,0 c 4.971633,0 9.03125,-4.059617 9.03125,-9.03125 l 0,-71 c 0,-4.971633 -4.059617,-9.03125 -9.03125,-9.03125 l -72,0 z"
       transform="scale(1,-1)"
       id="path3778"
       style="opacity:0.1;fill:url(#linearGradient3780);fill-opacity:1;fill-rule:nonzero;stroke:none;display:inline" />
    <path
       d="m 12,-93 c -4.4091333,0 -8,3.590867 -8,8 l 0,71 c 0,4.4091333 3.5908667,8 8,8 l 72,0 c 4.409133,0 8,-3.5908667 8,-8 l 0,-71 c 0,-4.409133 -3.590867,-8 -8,-8 l -72,0 z"
       transform="scale(1,-1)"
       id="path3770"
       style="opacity:0.2;fill:url(#linearGradient3772);fill-opacity:1;fill-rule:nonzero;stroke:none;display:inline" />
    <rect
       width="86"
       height="85"
       rx="7"
       ry="7"
       x="5"
       y="-92"
       transform="scale(1,-1)"
       id="rect3723"
       style="opacity:0.3;fill:url(#linearGradient3725);fill-opacity:1;fill-rule:nonzero;stroke:none;display:inline" />
    <rect
       width="84"
       height="84"
       rx="6"
       ry="6"
       x="6"
       y="-91"
       transform="scale(1,-1)"
       id="rect3716"
       style="opacity:0.45;fill:url(#linearGradient3721);fill-opacity:1;fill-rule:nonzero;stroke:none;display:inline" />
  </g>
  <g
     id="layer1">
    <rect
       width="84"
       height="84"
       rx="6"
       ry="6"
       x="6"
       y="6"
       id="rect2419"
       style="fill:url(#linearGradient3706);fill-opacity:1;fill-rule:nonzero;stroke:none" />
    <path
       d="M 12,6 C 8.676,6 6,8.676 6,12 l 0,2 0,68 0,2 c 0,3.324 2.676,6 6,6 l 2,0 68,0 2,0 c 3.324,0 6,-2.676 6,-6 l 0,-2 0,-68 0,-2 C 90,8.676 87.324,6 84,6 L 82,6 14,6 12,6 z m 4,6 64,0 c 2.216,0 4,1.784 4,4 l 0,64 c 0,2.216 -1.784,4 -4,4 l -64,0 c -2.216,0 -4,-1.784 -4,-4 l 0,-64 c 0,-2.216 1.784,-4 4,-4 z"
       inkscape:connector-curvature="0"
       id="rect3312"
       style="opacity:0.7;fill:#ffffff;fill-opacity:1;fill-rule:nonzero;stroke:none" />
    <path
       d="M 12,6 C 8.676,6 6,8.676 6,12 l 0,72 c 0,2.677766 1.7440348,4.881826 4.15625,5.65625 C 8.2956908,88.928428 7,87.129852 7,85 L 7,13 C 7,10.218152 9.2181517,8 12,8 l 72,0 c 2.781848,0 5,2.218152 5,5 l 0,72 c 0,2.129852 -1.295691,3.928428 -3.15625,4.65625 C 88.255965,88.881826 90,86.677766 90,84 L 90,12 C 90,8.676 87.324,6 84,6 L 12,6 z"
       inkscape:connector-curvature="0"
       id="rect3728"
       style="opacity:0.5;fill:url(#linearGradient3230);fill-opacity:1;fill-rule:nonzero;stroke:none" />
    <path
       d="M 12,90 C 8.676,90 6,87.324 6,84 L 6,82 6,14 6,12 c 0,-0.334721 0.04135,-0.6507 0.09375,-0.96875 0.0487,-0.295596 0.09704,-0.596915 0.1875,-0.875 C 6.29113,10.12587 6.302142,10.09265 6.3125,10.0625 6.411365,9.774729 6.5473802,9.515048 6.6875,9.25 6.8320918,8.976493 7.0031161,8.714385 7.1875,8.46875 7.3718839,8.223115 7.5612765,7.995278 7.78125,7.78125 8.221197,7.353194 8.72416,6.966724 9.28125,6.6875 9.559795,6.547888 9.8547231,6.440553 10.15625,6.34375 9.9000482,6.443972 9.6695391,6.580022 9.4375,6.71875 c -0.00741,0.0044 -0.023866,-0.0045 -0.03125,0 -0.031933,0.0193 -0.062293,0.04251 -0.09375,0.0625 -0.120395,0.0767 -0.2310226,0.163513 -0.34375,0.25 -0.1061728,0.0808 -0.2132809,0.161112 -0.3125,0.25 C 8.4783201,7.442683 8.3087904,7.626638 8.15625,7.8125 8.0486711,7.942755 7.9378561,8.077785 7.84375,8.21875 7.818661,8.25713 7.805304,8.30462 7.78125,8.34375 7.716487,8.446782 7.6510225,8.548267 7.59375,8.65625 7.4927417,8.850956 7.3880752,9.071951 7.3125,9.28125 7.30454,9.30306 7.288911,9.3218 7.28125,9.34375 7.2494249,9.4357 7.2454455,9.530581 7.21875,9.625 7.1884177,9.731618 7.1483606,9.828031 7.125,9.9375 7.0521214,10.279012 7,10.635705 7,11 l 0,2 0,68 0,2 c 0,2.781848 2.2181517,5 5,5 l 2,0 68,0 2,0 c 2.781848,0 5,-2.218152 5,-5 l 0,-2 0,-68 0,-2 C 89,10.635705 88.94788,10.279012 88.875,9.9375 88.83085,9.730607 88.78662,9.539842 88.71875,9.34375 88.71105,9.3218 88.69545,9.30306 88.6875,9.28125 88.62476,9.107511 88.549117,8.913801 88.46875,8.75 88.42717,8.6672 88.38971,8.580046 88.34375,8.5 88.28915,8.40279 88.216976,8.31165 88.15625,8.21875 88.06214,8.077785 87.951329,7.942755 87.84375,7.8125 87.700576,7.63805 87.540609,7.465502 87.375,7.3125 87.36383,7.3023 87.35502,7.29135 87.34375,7.28125 87.205364,7.155694 87.058659,7.046814 86.90625,6.9375 86.803679,6.86435 86.701932,6.784136 86.59375,6.71875 c -0.0074,-0.0045 -0.02384,0.0044 -0.03125,0 -0.232039,-0.138728 -0.462548,-0.274778 -0.71875,-0.375 0.301527,0.0968 0.596455,0.204138 0.875,0.34375 0.55709,0.279224 1.060053,0.665694 1.5,1.09375 0.219973,0.214028 0.409366,0.441865 0.59375,0.6875 0.184384,0.245635 0.355408,0.507743 0.5,0.78125 0.14012,0.265048 0.276135,0.524729 0.375,0.8125 0.01041,0.03078 0.02133,0.06274 0.03125,0.09375 0.09046,0.278085 0.1388,0.579404 0.1875,0.875 C 89.95865,11.3493 90,11.665279 90,12 l 0,2 0,68 0,2 c 0,3.324 -2.676,6 -6,6 l -72,0 z"
       inkscape:connector-curvature="0"
       id="path3615"
       style="opacity:0.4;fill:url(#radialGradient2874);fill-opacity:1;fill-rule:nonzero;stroke:none" />
    <g
       transform="translate(100,0)"
       id="g3716">
      <path
         d="m -84,12 c -2.216,0 -4,1.784 -4,4 l 0,64 c 0,2.216 1.784,4 4,4 l 64,0 c 2.216,0 4,-1.784 4,-4 l 0,-64 c 0,-2.216 -1.784,-4 -4,-4 l -64,0 z m 0,3.03125 64,0 c 0.587885,0 0.96875,0.380865 0.96875,0.96875 l 0,64 c 0,0.587885 -0.380865,0.96875 -0.96875,0.96875 l -64,0 c -0.587885,0 -0.96875,-0.380865 -0.96875,-0.96875 l 0,-64 c 0,-0.587885 0.380865,-0.96875 0.96875,-0.96875 z"
         inkscape:connector-curvature="0"
         id="path3703"
         style="opacity:0.05;fill:#1a3854;fill-opacity:1;fill-rule:nonzero;stroke:none" />
      <path
         d="m -84,12 c -2.216,0 -4,1.784 -4,4 l 0,64 c 0,2.216 1.784,4 4,4 l 64,0 c 2.216,0 4,-1.784 4,-4 l 0,-64 c 0,-2.216 -1.784,-4 -4,-4 l -64,0 z m 0,1.9375 64,0 c 1.172336,0 2.0625,0.890164 2.0625,2.0625 l 0,64 c 0,1.172336 -0.890164,2.0625 -2.0625,2.0625 l -64,0 c -1.172336,0 -2.0625,-0.890164 -2.0625,-2.0625 l 0,-64 c 0,-1.172336 0.890164,-2.0625 2.0625,-2.0625 z"
         inkscape:connector-curvature="0"
         id="path3662"
         style="opacity:0.1;fill:#1a3854;fill-opacity:1;fill-rule:nonzero;stroke:none" />
      <path
         d="m -84,12 c -2.216,0 -4,1.784 -4,4 l 0,64 c 0,2.216 1.784,4 4,4 l 64,0 c 2.216,0 4,-1.784 4,-4 l 0,-64 c 0,-2.216 -1.784,-4 -4,-4 l -64,0 z m 0,1.03125 64,0 c 1.664921,0 2.96875,1.303829 2.96875,2.96875 l 0,64 c 0,1.664921 -1.303829,2.96875 -2.96875,2.96875 l -64,0 c -1.664921,0 -2.96875,-1.303829 -2.96875,-2.96875 l 0,-64 c 0,-1.664921 1.303829,-2.96875 2.96875,-2.96875 z"
         inkscape:connector-curvature="0"
         id="path3636"
         style="opacity:0.22000002;fill:#1a3854;fill-opacity:1;fill-rule:nonzero;stroke:none" />
    </g>
  </g>
  <g
     id="layer3">
    <rect
       width="66"
       height="66"
       rx="12"
       ry="12"
       x="15"
       y="15"
       clip-path="url(#clipPath3613)"
       id="rect3171"
       style="opacity:0.1;fill:url(#linearGradient2908);fill-opacity:1;fill-rule:nonzero;stroke:#ffffff;stroke-width:0.5;stroke-linecap:round;stroke-linejoin:miter;stroke-miterlimit:4;stroke-opacity:1;stroke-dasharray:none;stroke-dashoffset:0;filter:url(#filter3794)" />
  </g>
  <g
     id="layer4">
    <path
       d="m 48.28125,19.125 c -4.496504,0 -8.125,3.753611 -8.125,8.28125 0,4.527636 3.628495,8.28125 8.125,8.28125 4.495645,0 8.15625,-3.743925 8.15625,-8.28125 0,-4.537329 -3.660607,-8.28125 -8.15625,-8.28125 z M 25.6875,32.21875 c -0.558833,-0.009 -1.173585,0.106713 -1.78125,0.40625 -1.314056,0.647726 -2.045548,2.008844 -2.0625,3.375 -0.01672,1.466353 0.888741,2.651455 2.03125,3.25 a 0.89294642,0.89294642 0 0 0 0,0.03125 c 0.0023,0.0011 0.153877,0.06155 0.15625,0.0625 0.0019,7.67e-4 0.08679,0.01789 0.125,0.03125 0.0091,0.0032 0.03078,-1.43e-4 0.03125,0 l 15.375,4.96875 -0.09375,10.78125 -5.8125,18.34375 a 0.89294642,0.89294642 0 0 0 -0.03125,0.375 0.89294642,0.89294642 0 0 0 0,0.0625 c -0.53427,1.507816 -0.180462,3.26837 1.25,4.21875 1.66009,1.103073 4.043066,0.788712 5.21875,-0.96875 A 0.89294642,0.89294642 0 0 0 40.125,77.125 c 0.0011,-0.0018 0.06155,-0.123103 0.0625,-0.125 7.25e-4,-0.0015 0.01608,-0.06044 0.03125,-0.09375 0.0047,-0.01025 -1.91e-4,-0.03079 0,-0.03125 L 48,60.4375 55.625,76.84375 a 0.89294642,0.89294642 0 0 0 0.03125,0.0625 c 8.65e-4,0.0015 0.06155,0.09233 0.0625,0.09375 0.01921,0.0335 0.0424,0.0611 0.0625,0.09375 1.047473,1.701447 3.294928,2.270101 5.03125,1.28125 1.511791,-0.861021 2.017422,-2.644384 1.5625,-4.21875 a 0.89294642,0.89294642 0 0 0 0,-0.0625 c -0.003,-0.0097 0.0031,-0.02155 0,-0.03125 a 0.89294642,0.89294642 0 0 0 -0.03125,-0.34375 l -5.6875,-18.34375 0,-0.0625 L 56.625,44.65625 72.0625,39.3125 c 0.002,-6.71e-4 0.123035,-0.03044 0.125,-0.03125 0.002,-8.13e-4 0.123098,-0.06155 0.125,-0.0625 0.0019,-9.51e-4 0.12317,-0.06142 0.125,-0.0625 0.0018,-0.0011 0.092,-0.09254 0.09375,-0.09375 1.37568,-0.961485 1.985553,-2.739622 1.375,-4.34375 -0.596738,-1.567937 -2.187576,-2.452265 -3.8125,-2.3125 l 0,-0.0625 c -9.48e-4,-1.5e-5 -0.0303,-1.5e-5 -0.03125,0 A 0.89294642,0.89294642 0 0 0 70,32.375 a 0.89294642,0.89294642 0 0 0 -0.09375,0 c -0.461258,0.07644 -0.797914,0.179826 -0.84375,0.1875 L 48,36.09375 27,32.40625 c -0.29525,-0.05178 -0.763484,-0.178706 -1.3125,-0.1875 z"
       id="path3648"
       style="opacity:0.07999998;fill:#000000;fill-opacity:1;stroke:none;display:inline" />
    <path
       d="m 48.28125,20.03125 c -4.002914,0 -7.21875,3.31934 -7.21875,7.375 0,4.055656 3.215835,7.375 7.21875,7.375 4.002914,0 7.25,-3.313563 7.25,-7.375 0,-4.061441 -3.247087,-7.375 -7.25,-7.375 z M 25.6875,33.125 c -0.432702,-0.0069 -0.897939,0.07734 -1.375,0.3125 -0.998762,0.492311 -1.549276,1.496797 -1.5625,2.5625 -0.01258,1.103432 0.650015,2.007083 1.53125,2.46875 a 0.98224108,0.98224108 0 0 0 0.15625,0.0625 l 16.03125,5.1875 -0.09375,11.5 L 34.5,73.75 l 0.0625,0.03125 c -0.656726,1.229339 -0.388791,2.795628 0.8125,3.59375 1.276268,0.848037 3.074239,0.618402 3.96875,-0.71875 a 0.98224108,0.98224108 0 0 0 0.0625,-0.125 L 48,58.3125 56.4375,76.46875 A 0.98224108,0.98224108 0 0 0 56.5,76.5625 c 0.773622,1.349329 2.524019,1.800646 3.875,1.03125 C 61.638236,76.87429 62.026733,75.302544 61.4375,74 L 61.5,73.96875 55.75,55.375 55.71875,44.03125 l 16.0625,-5.5625 a 0.98224108,0.98224108 0 0 0 0.25,-0.125 c 1.047927,-0.732413 1.495401,-2.09302 1.03125,-3.3125 C 72.601162,33.819078 71.360492,33.106041 70.09375,33.25 a 0.98224108,0.98224108 0 0 0 -0.03125,0 c -0.392258,0.065 -0.655571,0.155994 -0.84375,0.1875 L 48,37 26.84375,33.28125 C 26.510237,33.222764 26.120202,33.131931 25.6875,33.125 z"
       id="path3644"
       style="opacity:0.15;fill:#000000;fill-opacity:1;stroke:none;display:inline" />
    <path
       d="m 54.565697,27.412443 c 0,3.539665 -2.80855,6.412438 -6.269082,6.412438 -3.460533,0 -6.269083,-2.872773 -6.269083,-6.412438 0,-3.539669 2.80855,-6.412443 6.269083,-6.412443 3.460532,0 6.269082,2.872774 6.269082,6.412443 z m 15.646767,6.818502 c -0.289955,0.04805 -0.536703,0.127774 -0.826261,0.176253 l -21.386862,3.580705 -21.299023,-3.73504 c -0.675248,-0.118414 -1.324667,-0.258556 -1.939877,0.0447 -0.61521,0.30325 -1.018522,1.02201 -1.027009,1.70596 -0.0078,0.684041 0.419446,1.273956 1.027009,1.59225 L 41.450303,43.01134 41.33615,55.44366 35.446971,74.063268 c -0.567199,0.847853 -0.39432,1.936741 0.45645,2.501981 0.850808,0.565333 2.057328,0.393095 2.624589,-0.45487 l 9.503949,-20.098026 9.324548,20.063294 c 0.504204,0.879418 1.628143,1.184904 2.510461,0.682416 0.882318,-0.502513 1.188855,-1.622675 0.684668,-2.502099 l -5.77986,-18.699713 -0.0082,-12.25415 16.704066,-5.772943 c 0.683798,-0.477917 0.980866,-1.382687 0.684688,-2.160846 -0.296191,-0.778246 -1.110151,-1.231666 -1.939921,-1.137367 l 5.5e-5,0 z"
       inkscape:connector-curvature="0"
       id="path2868"
       style="opacity:0.4;fill:#000000;fill-opacity:1;stroke:none;display:inline" />
    <path
       d="m 54.565697,26.412443 c 0,3.539665 -2.80855,6.412438 -6.269082,6.412438 -3.460533,0 -6.269083,-2.872773 -6.269083,-6.412438 0,-3.539669 2.80855,-6.412443 6.269083,-6.412443 3.460532,0 6.269082,2.872774 6.269082,6.412443 z m 15.646767,6.818502 c -0.289955,0.04805 -0.536703,0.127774 -0.826261,0.176253 l -21.386862,3.580705 -21.299023,-3.73504 c -0.675248,-0.118414 -1.324667,-0.258556 -1.939877,0.0447 -0.61521,0.30325 -1.018522,1.02201 -1.027009,1.70596 -0.0078,0.684041 0.419446,1.273956 1.027009,1.59225 L 41.450303,42.01134 41.33615,54.44366 35.446971,73.063268 c -0.567199,0.847853 -0.39432,1.936741 0.45645,2.501981 0.850808,0.565333 2.057328,0.393095 2.624589,-0.45487 l 9.503949,-20.098026 9.324548,20.063294 c 0.504204,0.879418 1.628143,1.184904 2.510461,0.682416 0.882318,-0.502513 1.188855,-1.622675 0.684668,-2.502099 l -5.77986,-18.699713 -0.0082,-12.25415 16.704066,-5.772943 c 0.683798,-0.477917 0.980866,-1.382687 0.684688,-2.160846 -0.296191,-0.778246 -1.110151,-1.231666 -1.939921,-1.137367 l 5.5e-5,0 z"
       inkscape:connector-curvature="0"
       id="path6668"
       style="fill:#ffffff;fill-opacity:1;stroke:none;display:inline" />
  </g>
</svg>
