<?xml version="1.0" encoding="UTF-8" standalone="no"?>
<!-- Created with Inkscape (http://www.inkscape.org/) -->

<svg
   xmlns:dc="http://purl.org/dc/elements/1.1/"
   xmlns:cc="http://creativecommons.org/ns#"
   xmlns:rdf="http://www.w3.org/1999/02/22-rdf-syntax-ns#"
   xmlns:svg="http://www.w3.org/2000/svg"
   xmlns="http://www.w3.org/2000/svg"
   xmlns:xlink="http://www.w3.org/1999/xlink"
   xmlns:inkscape="http://www.inkscape.org/namespaces/inkscape"
   version="1.0"
   width="96"
   height="96"
   id="svg2408">
  <defs
     id="defs2410">
    <linearGradient
       x1="45.447727"
       y1="92.539597"
       x2="45.447727"
       y2="7.0165396"
       id="ButtonShadow"
       gradientUnits="userSpaceOnUse"
       gradientTransform="scale(1.0058652,0.994169)">
      <stop
         id="stop3750"
         style="stop-color:#000000;stop-opacity:1"
         offset="0" />
      <stop
         id="stop3752"
         style="stop-color:#000000;stop-opacity:0.58823532"
         offset="1" />
    </linearGradient>
    <linearGradient
       id="linearGradient3737">
      <stop
         id="stop3739"
         style="stop-color:#ffffff;stop-opacity:1"
         offset="0" />
      <stop
         id="stop3741"
         style="stop-color:#ffffff;stop-opacity:0"
         offset="1" />
    </linearGradient>
    <linearGradient
       id="linearGradient3700">
      <stop
         id="stop3702"
         style="stop-color:#da8714;stop-opacity:1"
         offset="0" />
      <stop
         id="stop3704"
         style="stop-color:#f4d468;stop-opacity:1"
         offset="1" />
    </linearGradient>
    <filter
       color-interpolation-filters="sRGB"
       id="filter3174">
      <feGaussianBlur
         id="feGaussianBlur3176"
         stdDeviation="1.71" />
    </filter>
    <linearGradient
       x1="36.357143"
       y1="6"
       x2="36.357143"
       y2="63.893143"
       id="linearGradient3188"
       xlink:href="#linearGradient3737"
       gradientUnits="userSpaceOnUse" />
    <filter
       x="-0.192"
       y="-0.192"
       width="1.3839999"
       height="1.3839999"
       color-interpolation-filters="sRGB"
       id="filter3794">
      <feGaussianBlur
         id="feGaussianBlur3796"
         stdDeviation="5.28" />
    </filter>
    <linearGradient
       x1="48"
       y1="20.220806"
       x2="48"
       y2="138.66119"
       id="linearGradient3613"
       xlink:href="#linearGradient3737"
       gradientUnits="userSpaceOnUse" />
    <radialGradient
       cx="48"
       cy="90.171875"
       r="42"
       fx="48"
       fy="90.171875"
       id="radialGradient3619"
       xlink:href="#linearGradient3737"
       gradientUnits="userSpaceOnUse"
       gradientTransform="matrix(1.1573129,0,0,0.99590774,-7.5510206,0.19713193)" />
    <clipPath
       id="clipPath3613">
      <rect
         width="84"
         height="84"
         rx="6"
         ry="6"
         x="6"
         y="6"
         id="rect3615"
         style="fill:#ffffff;fill-opacity:1;fill-rule:nonzero;stroke:none" />
    </clipPath>
    <linearGradient
       x1="48"
       y1="90"
       x2="48"
       y2="5.9877172"
       id="linearGradient3617"
       xlink:href="#linearGradient3700"
       gradientUnits="userSpaceOnUse" />
    <linearGradient
       x1="45.447727"
       y1="92.539597"
       x2="45.447727"
       y2="7.0165396"
       id="ButtonShadow-0"
       gradientUnits="userSpaceOnUse"
       gradientTransform="matrix(1.0058652,0,0,0.994169,100,0)">
      <stop
         id="stop3750-8"
         style="stop-color:#000000;stop-opacity:1"
         offset="0" />
      <stop
         id="stop3752-5"
         style="stop-color:#000000;stop-opacity:0.58823532"
         offset="1" />
    </linearGradient>
    <linearGradient
       x1="32.251034"
       y1="6.1317081"
       x2="32.251034"
       y2="90.238609"
       id="linearGradient3780"
       xlink:href="#ButtonShadow-0"
       gradientUnits="userSpaceOnUse"
       gradientTransform="matrix(1.0238095,0,0,1.0119048,-1.1428571,-98.071429)" />
    <linearGradient
       x1="32.251034"
       y1="6.1317081"
       x2="32.251034"
       y2="90.238609"
       id="linearGradient3772"
       xlink:href="#ButtonShadow-0"
       gradientUnits="userSpaceOnUse"
       gradientTransform="matrix(1.0238095,0,0,1.0119048,-1.1428571,-98.071429)" />
    <linearGradient
       x1="32.251034"
       y1="6.1317081"
       x2="32.251034"
       y2="90.238609"
       id="linearGradient3725"
       xlink:href="#ButtonShadow-0"
       gradientUnits="userSpaceOnUse"
       gradientTransform="matrix(1.0238095,0,0,1.0119048,-1.1428571,-98.071429)" />
    <linearGradient
       x1="32.251034"
       y1="6.1317081"
       x2="32.251034"
       y2="90.238609"
       id="linearGradient3721"
       xlink:href="#ButtonShadow-0"
       gradientUnits="userSpaceOnUse"
       gradientTransform="translate(0,-97)" />
    <linearGradient
       x1="32.251034"
       y1="6.1317081"
       x2="32.251034"
       y2="90.238609"
       id="linearGradient3059"
       xlink:href="#ButtonShadow-0"
       gradientUnits="userSpaceOnUse"
       gradientTransform="matrix(1.0238095,0,0,1.0119048,-1.1428571,-98.071429)" />
    <linearGradient
       x1="56"
       y1="16"
       x2="56"
       y2="80"
       id="linearGradient3996"
       xlink:href="#linearGradient3853-5"
       gradientUnits="userSpaceOnUse"
       gradientTransform="matrix(0.58779071,0,0,0.59976762,-1.7139535,28.375257)" />
    <linearGradient
       id="linearGradient3853-5">
      <stop
         id="stop3855-0"
         style="stop-color:#000000;stop-opacity:1"
         offset="0" />
      <stop
         id="stop3857-4"
         style="stop-color:#313131;stop-opacity:1"
         offset="1" />
    </linearGradient>
    <linearGradient
       x1="56"
       y1="16"
       x2="56"
       y2="80"
       id="linearGradient3111"
       xlink:href="#linearGradient3853-5"
       gradientUnits="userSpaceOnUse"
       gradientTransform="matrix(0.88281208,0,0,0.89965143,5.6250204,11.562884)" />
    <linearGradient
       x1="56"
       y1="16"
       x2="56"
       y2="80"
       id="linearGradient4004"
       xlink:href="#linearGradient3853-5"
       gradientUnits="userSpaceOnUse"
       gradientTransform="matrix(0.58779071,0,0,0.59976762,41.286046,28.375257)" />
    <clipPath
       id="clipPath4097">
      <path
         d="m 12,76 c -3.324,0 -6,2.676 -6,6 l 0,72 c 0,3.324 2.676,6 6,6 l 72,0 c 3.324,0 6,-2.676 6,-6 l 0,-72 c 0,-3.324 -2.676,-6 -6,-6 l -72,0 z m 36,18 c 6.161551,0 11.156265,4.722076 11.15625,10.53125 -0.02459,0.73006 -0.09742,1.52079 -0.15625,2.375 0.841854,0.6383 0.950993,2.53409 0.125,4.5 -0.298129,0.70957 -0.689887,1.31386 -1.09375,1.8125 -0.13063,0.61672 -0.206804,1.09428 -0.375,1.8125 -0.457646,1.38687 -2.25736,4.11893 -3.625,6.25 -0.08814,1.41731 -0.04816,2.84228 0.125,4.28125 1.630607,1.43231 4.247302,2.62582 6.875,3.71875 1.665078,-0.6585 3.295977,-1.37077 4.34375,-2.25 0.20095,-1.18501 0.22488,-2.20822 0.125,-3.25 -1.001552,-1.35046 -2.16226,-2.91484 -2.4375,-3.75 -0.08885,-0.41131 -0.14529,-0.69786 -0.21875,-1.0625 -0.01032,-0.0115 -0.02099,-0.0195 -0.03125,-0.0313 -0.307775,-0.35021 -0.620439,-0.78033 -0.84375,-1.3125 -0.57912,-1.3801 -0.492997,-2.77493 0.15625,-3.125 -0.04563,-0.55204 -0.0526,-1.02493 -0.0625,-1.46875 0,-3.8727 3.335039,-7.0312 7.4375,-7.0312 4.10246,0 7.437517,3.1585 7.4375,7.03125 -0.01637,0.48671 -0.08583,1.02428 -0.125,1.59375 0.560519,0.42553 0.643709,1.68939 0.09375,3 -0.1985,0.47305 -0.449851,0.85508 -0.71875,1.1875 -0.08698,0.41115 -0.138013,0.73994 -0.25,1.21875 -0.304709,0.92458 -1.526904,2.73554 -2.4375,4.15625 -0.05869,0.94487 -0.02154,1.88444 0.09375,2.84375 2.84746,2.50437 10.26949,3.8566 10.28125,6 L 84,134 69.4375,134 c 0.07629,0.18396 0.1239,0.37077 0.125,0.5625 l 0.21875,1.4375 -43.5625,0 0.21875,-1.4375 c -8.5e-4,-0.19234 0.0388,-0.38079 0.09375,-0.5625 L 12,134 l 0.125,-0.96875 c -0.01105,-2.50437 7.367193,-3.5809 10.25,-6 0.20095,-1.18501 0.22488,-2.20822 0.125,-3.25 -1.001552,-1.35046 -2.16226,-2.91484 -2.4375,-3.75 -0.08885,-0.41131 -0.14529,-0.69786 -0.21875,-1.0625 -0.01032,-0.0115 -0.02099,-0.0195 -0.03125,-0.0313 -0.307775,-0.35021 -0.620439,-0.78033 -0.84375,-1.3125 -0.57912,-1.3801 -0.492997,-2.77493 0.15625,-3.125 -0.04563,-0.55204 -0.0526,-1.02493 -0.0625,-1.46875 0,-3.8727 3.335039,-7.0312 7.4375,-7.0312 4.10246,0 7.437517,3.1585 7.4375,7.03125 -0.01637,0.48671 -0.08583,1.02428 -0.125,1.59375 0.560519,0.42553 0.643709,1.68939 0.09375,3 -0.1985,0.47305 -0.449851,0.85508 -0.71875,1.1875 -0.08698,0.41115 -0.138013,0.73994 -0.25,1.21875 -0.304709,0.92458 -1.526904,2.73554 -2.4375,4.15625 -0.05869,0.94487 -0.02154,1.88444 0.09375,2.84375 0.943649,0.82995 2.395521,1.53906 3.90625,2.1875 2.75881,-1.07769 5.575089,-2.20017 7.3125,-3.65625 0.301816,-1.77751 0.30626,-3.34357 0.15625,-4.90625 -1.504247,-2.02569 -3.211613,-4.37225 -3.625,-5.625 -0.13344,-0.61696 -0.202159,-1.04679 -0.3125,-1.59375 -0.01552,-0.0171 -0.04709,-0.0449 -0.0625,-0.0625 -0.462251,-0.52531 -0.945855,-1.17049 -1.28125,-1.96875 -0.869788,-2.07016 -0.725114,-4.0999 0.25,-4.625 -0.06853,-0.82806 -0.07877,-1.58427 -0.09375,-2.25 C 36.84375,98.722124 41.838449,94 48,94 z"
         inkscape:connector-curvature="0"
         id="path4099"
         style="fill:url(#linearGradient4101);fill-opacity:1;fill-rule:nonzero;stroke:none" />
    </clipPath>
    <filter
       x="-0.19"
       y="-0.32571429"
       width="1.38"
       height="1.6514286"
       color-interpolation-filters="sRGB"
       id="filter4103">
      <feGaussianBlur
         id="feGaussianBlur4105"
         stdDeviation="5.7" />
    </filter>
  </defs>
  <metadata
     id="metadata2413">
    <rdf:RDF>
      <cc:Work
         rdf:about="">
        <dc:format>image/svg+xml</dc:format>
        <dc:type
           rdf:resource="http://purl.org/dc/dcmitype/StillImage" />
      </cc:Work>
    </rdf:RDF>
  </metadata>
  <g
     id="layer2"
     style="display:none">
    <rect
       width="86"
       height="85"
       rx="6"
       ry="6"
       x="5"
       y="7"
       id="rect3745"
       style="opacity:0.9;fill:url(#ButtonShadow);fill-opacity:1;fill-rule:nonzero;stroke:none;filter:url(#filter3174)" />
  </g>
  <g
     id="layer4"
     style="display:inline">
    <path
       d="m 12,-95.03125 c -5.5110903,0 -10.03125,4.52016 -10.03125,10.03125 l 0,71 c 0,5.5110902 4.5201598,10.03125 10.03125,10.03125 l 72,0 c 5.51109,0 10.03125,-4.5201597 10.03125,-10.03125 l 0,-71 c 0,-5.51109 -4.52016,-10.03125 -10.03125,-10.03125 l -72,0 z"
       transform="scale(1,-1)"
       id="path3786"
       style="opacity:0.07999998;fill:url(#linearGradient3059);fill-opacity:1;fill-rule:nonzero;stroke:none;display:inline" />
    <path
       d="m 12,-94.03125 c -4.971633,0 -9.03125,4.059617 -9.03125,9.03125 l 0,71 c 0,4.9716329 4.0596171,9.03125 9.03125,9.03125 l 72,0 c 4.971633,0 9.03125,-4.059617 9.03125,-9.03125 l 0,-71 c 0,-4.971633 -4.059617,-9.03125 -9.03125,-9.03125 l -72,0 z"
       transform="scale(1,-1)"
       id="path3778"
       style="opacity:0.1;fill:url(#linearGradient3780);fill-opacity:1;fill-rule:nonzero;stroke:none;display:inline" />
    <path
       d="m 12,-93 c -4.4091333,0 -8,3.590867 -8,8 l 0,71 c 0,4.4091333 3.5908667,8 8,8 l 72,0 c 4.409133,0 8,-3.5908667 8,-8 l 0,-71 c 0,-4.409133 -3.590867,-8 -8,-8 l -72,0 z"
       transform="scale(1,-1)"
       id="path3770"
       style="opacity:0.2;fill:url(#linearGradient3772);fill-opacity:1;fill-rule:nonzero;stroke:none;display:inline" />
    <rect
       width="86"
       height="85"
       rx="7"
       ry="7"
       x="5"
       y="-92"
       transform="scale(1,-1)"
       id="rect3723"
       style="opacity:0.3;fill:url(#linearGradient3725);fill-opacity:1;fill-rule:nonzero;stroke:none;display:inline" />
    <rect
       width="84"
       height="84"
       rx="6"
       ry="6"
       x="6"
       y="-91"
       transform="scale(1,-1)"
       id="rect3716"
       style="opacity:0.45;fill:url(#linearGradient3721);fill-opacity:1;fill-rule:nonzero;stroke:none;display:inline" />
  </g>
  <g
     id="layer1">
    <rect
       width="84"
       height="84"
       rx="6"
       ry="6"
       x="6"
       y="6"
       id="rect2419"
       style="fill:url(#linearGradient3617);fill-opacity:1;fill-rule:nonzero;stroke:none" />
    <path
       d="M 12,6 C 8.676,6 6,8.676 6,12 l 0,2 0,68 0,2 c 0,0.334721 0.04135,0.6507 0.09375,0.96875 0.0487,0.295596 0.09704,0.596915 0.1875,0.875 0.00988,0.03038 0.020892,0.0636 0.03125,0.09375 0.098865,0.287771 0.2348802,0.547452 0.375,0.8125 0.1445918,0.273507 0.3156161,0.535615 0.5,0.78125 0.1843839,0.245635 0.3737765,0.473472 0.59375,0.6875 0.439947,0.428056 0.94291,0.814526 1.5,1.09375 0.278545,0.139612 0.5734731,0.246947 0.875,0.34375 -0.2562018,-0.100222 -0.4867109,-0.236272 -0.71875,-0.375 -0.00741,-0.0044 -0.023866,0.0045 -0.03125,0 -0.031933,-0.0193 -0.062293,-0.04251 -0.09375,-0.0625 -0.120395,-0.0767 -0.2310226,-0.163513 -0.34375,-0.25 -0.1061728,-0.0808 -0.2132809,-0.161112 -0.3125,-0.25 C 8.4783201,88.557317 8.3087904,88.373362 8.15625,88.1875 8.0486711,88.057245 7.9378561,87.922215 7.84375,87.78125 7.818661,87.74287 7.805304,87.69538 7.78125,87.65625 7.716487,87.553218 7.6510225,87.451733 7.59375,87.34375 7.4927417,87.149044 7.3880752,86.928049 7.3125,86.71875 7.30454,86.69694 7.288911,86.6782 7.28125,86.65625 7.2494249,86.5643 7.2454455,86.469419 7.21875,86.375 7.1884177,86.268382 7.1483606,86.171969 7.125,86.0625 7.0521214,85.720988 7,85.364295 7,85 L 7,83 7,15 7,13 C 7,10.218152 9.2181517,8 12,8 l 2,0 68,0 2,0 c 2.781848,0 5,2.218152 5,5 l 0,2 0,68 0,2 c 0,0.364295 -0.05212,0.720988 -0.125,1.0625 -0.04415,0.206893 -0.08838,0.397658 -0.15625,0.59375 -0.0077,0.02195 -0.0233,0.04069 -0.03125,0.0625 -0.06274,0.173739 -0.138383,0.367449 -0.21875,0.53125 -0.04158,0.0828 -0.07904,0.169954 -0.125,0.25 -0.0546,0.09721 -0.126774,0.18835 -0.1875,0.28125 -0.09411,0.140965 -0.204921,0.275995 -0.3125,0.40625 -0.143174,0.17445 -0.303141,0.346998 -0.46875,0.5 -0.01117,0.0102 -0.01998,0.02115 -0.03125,0.03125 -0.138386,0.125556 -0.285091,0.234436 -0.4375,0.34375 -0.102571,0.07315 -0.204318,0.153364 -0.3125,0.21875 -0.0074,0.0045 -0.02384,-0.0044 -0.03125,0 -0.232039,0.138728 -0.462548,0.274778 -0.71875,0.375 0.301527,-0.0968 0.596455,-0.204138 0.875,-0.34375 0.55709,-0.279224 1.060053,-0.665694 1.5,-1.09375 0.219973,-0.214028 0.409366,-0.441865 0.59375,-0.6875 0.184384,-0.245635 0.355408,-0.507743 0.5,-0.78125 0.14012,-0.265048 0.276135,-0.524729 0.375,-0.8125 0.01041,-0.03078 0.02133,-0.06274 0.03125,-0.09375 0.09046,-0.278085 0.1388,-0.579404 0.1875,-0.875 C 89.95865,84.6507 90,84.334721 90,84 l 0,-2 0,-68 0,-2 C 90,8.676 87.324,6 84,6 L 12,6 z"
       inkscape:connector-curvature="0"
       id="rect3728"
       style="opacity:0.5;fill:url(#linearGradient3188);fill-opacity:1;fill-rule:nonzero;stroke:none" />
    <path
       d="M 12,90 C 8.676,90 6,87.324 6,84 L 6,82 6,14 6,12 c 0,-0.334721 0.04135,-0.6507 0.09375,-0.96875 0.0487,-0.295596 0.09704,-0.596915 0.1875,-0.875 C 6.29113,10.12587 6.302142,10.09265 6.3125,10.0625 6.411365,9.774729 6.5473802,9.515048 6.6875,9.25 6.8320918,8.976493 7.0031161,8.714385 7.1875,8.46875 7.3718839,8.223115 7.5612765,7.995278 7.78125,7.78125 8.221197,7.353194 8.72416,6.966724 9.28125,6.6875 9.559795,6.547888 9.8547231,6.440553 10.15625,6.34375 9.9000482,6.443972 9.6695391,6.580022 9.4375,6.71875 c -0.00741,0.0044 -0.023866,-0.0045 -0.03125,0 -0.031933,0.0193 -0.062293,0.04251 -0.09375,0.0625 -0.120395,0.0767 -0.2310226,0.163513 -0.34375,0.25 -0.1061728,0.0808 -0.2132809,0.161112 -0.3125,0.25 C 8.4783201,7.442683 8.3087904,7.626638 8.15625,7.8125 8.0486711,7.942755 7.9378561,8.077785 7.84375,8.21875 7.818661,8.25713 7.805304,8.30462 7.78125,8.34375 7.716487,8.446782 7.6510225,8.548267 7.59375,8.65625 7.4927417,8.850956 7.3880752,9.071951 7.3125,9.28125 7.30454,9.30306 7.288911,9.3218 7.28125,9.34375 7.2494249,9.4357 7.2454455,9.530581 7.21875,9.625 7.1884177,9.731618 7.1483606,9.828031 7.125,9.9375 7.0521214,10.279012 7,10.635705 7,11 l 0,2 0,68 0,2 c 0,2.781848 2.2181517,5 5,5 l 2,0 68,0 2,0 c 2.781848,0 5,-2.218152 5,-5 l 0,-2 0,-68 0,-2 C 89,10.635705 88.94788,10.279012 88.875,9.9375 88.83085,9.730607 88.78662,9.539842 88.71875,9.34375 88.71105,9.3218 88.69545,9.30306 88.6875,9.28125 88.62476,9.107511 88.549117,8.913801 88.46875,8.75 88.42717,8.6672 88.38971,8.580046 88.34375,8.5 88.28915,8.40279 88.216976,8.31165 88.15625,8.21875 88.06214,8.077785 87.951329,7.942755 87.84375,7.8125 87.700576,7.63805 87.540609,7.465502 87.375,7.3125 87.36383,7.3023 87.35502,7.29135 87.34375,7.28125 87.205364,7.155694 87.058659,7.046814 86.90625,6.9375 86.803679,6.86435 86.701932,6.784136 86.59375,6.71875 c -0.0074,-0.0045 -0.02384,0.0044 -0.03125,0 -0.232039,-0.138728 -0.462548,-0.274778 -0.71875,-0.375 0.301527,0.0968 0.596455,0.204138 0.875,0.34375 0.55709,0.279224 1.060053,0.665694 1.5,1.09375 0.219973,0.214028 0.409366,0.441865 0.59375,0.6875 0.184384,0.245635 0.355408,0.507743 0.5,0.78125 0.14012,0.265048 0.276135,0.524729 0.375,0.8125 0.01041,0.03078 0.02133,0.06274 0.03125,0.09375 0.09046,0.278085 0.1388,0.579404 0.1875,0.875 C 89.95865,11.3493 90,11.665279 90,12 l 0,2 0,68 0,2 c 0,3.324 -2.676,6 -6,6 l -72,0 z"
       inkscape:connector-curvature="0"
       id="path3615"
       style="opacity:0.2;fill:url(#radialGradient3619);fill-opacity:1;fill-rule:nonzero;stroke:none" />
  </g>
  <g
     id="layer5"
     style="display:none">
    <rect
       width="66"
       height="66"
       rx="12"
       ry="12"
       x="15"
       y="15"
       clip-path="url(#clipPath3613)"
       id="rect3171"
       style="opacity:0.1;fill:url(#linearGradient3613);fill-opacity:1;fill-rule:nonzero;stroke:#ffffff;stroke-width:0.5;stroke-linecap:round;stroke-linejoin:miter;stroke-miterlimit:4;stroke-opacity:1;stroke-dasharray:none;stroke-dashoffset:0;filter:url(#filter3794)" />
  </g>
  <g
     id="layer3">
    <path
       d="m 48,94 c -6.161551,0 -11.15625,4.722124 -11.15625,10.53125 0.01498,0.66573 0.02522,1.42194 0.09375,2.25 -0.975114,0.5251 -1.119788,2.55484 -0.25,4.625 0.335395,0.79826 0.818999,1.44344 1.28125,1.96875 0.01541,0.0176 0.04698,0.0454 0.0625,0.0625 0.110341,0.54696 0.17906,0.97679 0.3125,1.59375 0.413387,1.25275 2.120753,3.59931 3.625,5.625 0.15001,1.56268 0.145566,3.12874 -0.15625,4.90625 -1.737411,1.45608 -4.55369,2.57856 -7.3125,3.65625 -1.510729,-0.64844 -2.962601,-1.35755 -3.90625,-2.1875 -0.115291,-0.95931 -0.152436,-1.89888 -0.09375,-2.84375 0.910596,-1.42071 2.132791,-3.23167 2.4375,-4.15625 0.111987,-0.47881 0.163024,-0.8076 0.25,-1.21875 0.268899,-0.33242 0.52025,-0.71445 0.71875,-1.1875 0.549959,-1.31061 0.466769,-2.57447 -0.09375,-3 0.03917,-0.56947 0.10863,-1.10704 0.125,-1.59375 C 33.937517,109.1585 30.60246,106 26.5,106 c -4.102461,0 -7.4375,3.1585 -7.4375,7.03125 0.0099,0.44382 0.01687,0.91671 0.0625,1.46875 -0.649247,0.35007 -0.73537,1.7449 -0.15625,3.125 0.223311,0.53217 0.535975,0.96229 0.84375,1.3125 0.01026,0.0117 0.02093,0.0198 0.03125,0.0313 0.07346,0.36464 0.129903,0.65119 0.21875,1.0625 0.27524,0.83516 1.435948,2.39954 2.4375,3.75 0.09988,1.04178 0.07595,2.06499 -0.125,3.25 -2.882807,2.4191 -10.261052,3.49563 -10.25,6 L 12,134 l 14.53125,0 c -0.05495,0.18171 -0.0946,0.37016 -0.09375,0.5625 L 26.21875,136 l 43.5625,0 -0.21875,-1.4375 C 69.5614,134.37077 69.51379,134.18396 69.4375,134 L 84,134 83.875,133.03125 c -0.01176,-2.1434 -7.43379,-3.49563 -10.28125,-6 -0.115291,-0.95931 -0.152436,-1.89888 -0.09375,-2.84375 0.910596,-1.42071 2.132791,-3.23167 2.4375,-4.15625 0.111987,-0.47881 0.163024,-0.8076 0.25,-1.21875 0.268899,-0.33242 0.52025,-0.71445 0.71875,-1.1875 0.549959,-1.31061 0.466769,-2.57447 -0.09375,-3 0.03917,-0.56947 0.10863,-1.10704 0.125,-1.59375 C 76.937517,109.1585 73.60246,106 69.5,106 c -4.102461,0 -7.4375,3.1585 -7.4375,7.03125 0.0099,0.44382 0.01687,0.91671 0.0625,1.46875 -0.649247,0.35007 -0.73537,1.7449 -0.15625,3.125 0.223311,0.53217 0.535975,0.96229 0.84375,1.3125 0.01026,0.0117 0.02093,0.0198 0.03125,0.0313 0.07346,0.36464 0.129903,0.65119 0.21875,1.0625 0.27524,0.83516 1.435948,2.39954 2.4375,3.75 0.09988,1.04178 0.07595,2.06499 -0.125,3.25 -1.047773,0.87923 -2.678672,1.5915 -4.34375,2.25 -2.627698,-1.09293 -5.244393,-2.28644 -6.875,-3.71875 -0.173156,-1.43897 -0.213143,-2.86394 -0.125,-4.28125 1.36764,-2.13107 3.167354,-4.86313 3.625,-6.25 0.168196,-0.71822 0.24437,-1.19578 0.375,-1.8125 0.403863,-0.49864 0.795621,-1.10293 1.09375,-1.8125 0.825993,-1.96591 0.716854,-3.8617 -0.125,-4.5 0.05883,-0.85421 0.131655,-1.64494 0.15625,-2.375 C 59.156265,98.722126 54.161551,94 48,94 z"
       inkscape:connector-curvature="0"
       transform="translate(0,-68)"
       clip-path="url(#clipPath4097)"
       id="path4049"
       style="opacity:0.5;fill:#ffffff;fill-opacity:1;stroke:none;display:inline;filter:url(#filter4103);enable-background:new" />
    <path
       d="m 69.500001,38 c -4.102461,0 -7.425405,3.147137 -7.425405,7.019887 0.0099,0.443823 0.01284,0.939434 0.05847,1.491477 -0.649247,0.350066 -0.735034,1.722168 -0.155914,3.102273 0.223311,0.532174 0.530263,0.962292 0.838038,1.3125 0.01026,0.0117 0.02865,0.02836 0.03897,0.03977 0.07346,0.364638 0.125533,0.642668 0.21438,1.053977 0.27524,0.835163 1.415116,2.408062 2.416668,3.758523 0.09988,1.041783 0.103507,2.076355 -0.09744,3.261362 -2.882807,2.419095 -10.262394,3.501314 -10.251342,6.005682 L 55,66 84,66 83.863576,65.045455 c -0.01176,-2.143405 -7.423373,-3.501309 -10.270833,-6.005683 -0.115291,-0.959312 -0.136646,-1.898878 -0.07796,-2.843749 0.910596,-1.420715 2.111958,-3.25156 2.416667,-4.176137 0.111987,-0.478814 0.166383,-0.801919 0.253359,-1.213068 0.268899,-0.332425 0.522603,-0.720136 0.721103,-1.193181 0.549959,-1.310609 0.482559,-2.577308 -0.07796,-3.002841 0.03917,-0.569473 0.08107,-1.1042 0.09744,-1.590909 C 76.925409,41.147138 73.602461,38 69.500001,38 z"
       inkscape:connector-curvature="0"
       id="path4002"
       style="opacity:0.6;fill:url(#linearGradient4004);fill-opacity:1;stroke:none;display:inline;enable-background:new" />
    <path
       d="m 48,26 c -6.161551,0 -11.152331,4.720705 -11.152331,10.529831 0.01498,0.665734 0.01929,1.409151 0.08782,2.237215 -0.975114,0.525098 -1.103958,2.583252 -0.23417,4.65341 0.335395,0.798261 0.796411,1.443438 1.258662,1.96875 0.01541,0.01756 0.04302,0.04255 0.05854,0.05965 0.110341,0.546958 0.188542,0.964002 0.321982,1.580965 0.413387,1.252746 2.125383,3.612094 3.62963,5.637785 0.15001,1.562675 0.15546,3.114532 -0.146356,4.892044 -4.329732,3.628641 -15.413251,5.251969 -15.396653,9.008522 L 26.222222,68 69.777777,68 69.572879,66.568182 C 69.555214,63.353075 58.4236,61.31622 54.146954,57.559658 c -0.173156,-1.438968 -0.20523,-2.848316 -0.117087,-4.265623 1.36764,-2.131074 3.171983,-4.87734 3.629629,-6.264206 0.168196,-0.718221 0.249895,-1.202878 0.380525,-1.819601 0.403863,-0.498639 0.784906,-1.080206 1.083035,-1.789772 0.825993,-1.965914 0.724765,-3.865963 -0.117089,-4.504262 0.05883,-0.85421 0.121761,-1.6563 0.146356,-2.386363 C 59.152338,30.720707 54.161551,26 48,26 z"
       inkscape:connector-curvature="0"
       id="path3798-8"
       style="fill:url(#linearGradient3111);fill-opacity:1;stroke:none;display:inline;enable-background:new" />
    <path
       d="m 26.500001,38 c -4.102461,0 -7.425405,3.147137 -7.425405,7.019887 0.0099,0.443823 0.01284,0.939434 0.05847,1.491477 -0.649247,0.350066 -0.735034,1.722168 -0.155914,3.102273 0.223311,0.532174 0.530263,0.962292 0.838038,1.3125 0.01026,0.0117 0.02865,0.02836 0.03897,0.03977 0.07346,0.364638 0.125533,0.642668 0.21438,1.053977 0.27524,0.835163 1.415116,2.408062 2.416668,3.758523 0.09988,1.041783 0.103507,2.076355 -0.09744,3.261362 -2.882807,2.419095 -10.262394,3.501314 -10.251342,6.005682 L 12,66 41,66 40.863576,65.045455 c -0.01176,-2.143405 -7.423373,-3.501309 -10.270833,-6.005683 -0.115291,-0.959312 -0.136646,-1.898878 -0.07796,-2.843749 0.910596,-1.420715 2.111958,-3.25156 2.416667,-4.176137 0.111987,-0.478814 0.166383,-0.801919 0.253359,-1.213068 0.268899,-0.332425 0.522603,-0.720136 0.721103,-1.193181 0.549959,-1.310609 0.482559,-2.577308 -0.07796,-3.002841 0.03917,-0.569473 0.08107,-1.1042 0.09744,-1.590909 C 33.925409,41.147138 30.602461,38 26.500001,38 z"
       inkscape:connector-curvature="0"
       id="path3994"
       style="opacity:0.6;fill:url(#linearGradient3996);fill-opacity:1;stroke:none;display:inline;enable-background:new" />
    <path
       d="m 48,26 c -6.161551,0 -11.15625,4.722124 -11.15625,10.53125 0.01498,0.665734 0.02522,1.421936 0.09375,2.25 -0.975114,0.525098 -1.119788,2.554842 -0.25,4.625 0.335395,0.798261 0.818999,1.443438 1.28125,1.96875 0.01541,0.01756 0.04698,0.0454 0.0625,0.0625 0.110341,0.546958 0.17906,0.976787 0.3125,1.59375 0.413387,1.252746 2.120753,3.599309 3.625,5.625 0.15001,1.562675 0.145566,3.128738 -0.15625,4.90625 C 40.075089,59.018581 37.25881,60.141058 34.5,61.21875 32.989271,60.570308 31.537399,59.8612 30.59375,59.03125 30.478459,58.071938 30.441314,57.132371 30.5,56.1875 c 0.910596,-1.420715 2.132791,-3.231673 2.4375,-4.15625 0.111987,-0.478814 0.163024,-0.807601 0.25,-1.21875 0.268899,-0.332425 0.52025,-0.714455 0.71875,-1.1875 0.549959,-1.310609 0.466769,-2.574467 -0.09375,-3 0.03917,-0.569473 0.10863,-1.107041 0.125,-1.59375 C 33.937517,41.158501 30.60246,38 26.5,38 c -4.102461,0 -7.4375,3.1585 -7.4375,7.03125 0.0099,0.443823 0.01687,0.916707 0.0625,1.46875 -0.649247,0.350066 -0.73537,1.744895 -0.15625,3.125 0.223311,0.532174 0.535975,0.962292 0.84375,1.3125 0.01026,0.0117 0.02093,0.01984 0.03125,0.03125 0.07346,0.364638 0.129903,0.651191 0.21875,1.0625 0.27524,0.835163 1.435948,2.399539 2.4375,3.75 0.09988,1.041783 0.07595,2.064993 -0.125,3.25 -2.882807,2.419095 -10.261052,3.495632 -10.25,6 L 12,66 26.53125,66 c -0.05495,0.181713 -0.0946,0.370157 -0.09375,0.5625 L 26.21875,68 69.78125,68 69.5625,66.5625 C 69.5614,66.370773 69.51379,66.183961 69.4375,66 L 84,66 83.875,65.03125 c -0.01176,-2.143405 -7.43379,-3.495626 -10.28125,-6 C 73.478459,58.071938 73.441314,57.132371 73.5,56.1875 c 0.910596,-1.420715 2.132791,-3.231673 2.4375,-4.15625 0.111987,-0.478814 0.163024,-0.807601 0.25,-1.21875 0.268899,-0.332425 0.52025,-0.714455 0.71875,-1.1875 0.549959,-1.310609 0.466769,-2.574467 -0.09375,-3 0.03917,-0.569473 0.10863,-1.107041 0.125,-1.59375 C 76.937517,41.158501 73.60246,38 69.5,38 c -4.102461,0 -7.4375,3.1585 -7.4375,7.03125 0.0099,0.443823 0.01687,0.916707 0.0625,1.46875 -0.649247,0.350066 -0.73537,1.744895 -0.15625,3.125 0.223311,0.532174 0.535975,0.962292 0.84375,1.3125 0.01026,0.0117 0.02093,0.01984 0.03125,0.03125 0.07346,0.364638 0.129903,0.651191 0.21875,1.0625 0.27524,0.835163 1.435948,2.399539 2.4375,3.75 0.09988,1.041783 0.07595,2.064993 -0.125,3.25 -1.047773,0.879234 -2.678672,1.591501 -4.34375,2.25 -2.627698,-1.092932 -5.244393,-2.286442 -6.875,-3.71875 -0.173156,-1.438968 -0.213143,-2.863943 -0.125,-4.28125 1.36764,-2.131074 3.167354,-4.863134 3.625,-6.25 0.168196,-0.718221 0.24437,-1.195777 0.375,-1.8125 0.403863,-0.498639 0.795621,-1.102934 1.09375,-1.8125 0.825993,-1.965914 0.716854,-3.861701 -0.125,-4.5 0.05883,-0.85421 0.131655,-1.644937 0.15625,-2.375 C 59.156265,30.722126 54.161551,26 48,26 z m 0,1.09375 c 5.590715,0 10.04434,4.239085 10.0625,9.40625 3.7e-5,0.01058 0,0.02066 0,0.03125 -0.02399,0.677475 -0.09714,1.454253 -0.15625,2.3125 a 1.0949663,1.0949663 0 0 0 0.4375,0.9375 c 0.02325,0.01762 0.227889,0.302269 0.25,0.90625 0.02211,0.603981 -0.111107,1.430038 -0.46875,2.28125 -0.25144,0.598443 -0.58798,1.130957 -0.9375,1.5625 A 1.0949663,1.0949663 0 0 0 56.96875,45 c -0.129131,0.609647 -0.200531,1.061423 -0.34375,1.6875 -0.0082,0.03569 -0.0226,0.05682 -0.03125,0.09375 -0.180668,0.50885 -0.701692,1.468152 -1.34375,2.53125 -0.663913,1.099285 -1.438141,2.304728 -2.125,3.375 a 1.0949663,1.0949663 0 0 0 -0.1875,0.53125 c -0.09224,1.483156 -0.05601,2.96451 0.125,4.46875 a 1.0949663,1.0949663 0 0 0 0.375,0.6875 c 1.84037,1.616562 4.53681,2.803755 7.1875,3.90625 a 1.0949663,1.0949663 0 0 0 0.8125,0.03125 c 1.688796,-0.667879 3.402968,-1.385814 4.65625,-2.4375 a 1.0949663,1.0949663 0 0 0 0.375,-0.65625 c 0.215924,-1.273307 0.232965,-2.405135 0.125,-3.53125 A 1.0949663,1.0949663 0 0 0 66.375,55.125 c -0.500829,-0.675302 -1.038901,-1.396384 -1.46875,-2.03125 -0.429849,-0.634866 -0.754476,-1.230188 -0.8125,-1.40625 -0.0705,-0.331225 -0.122327,-0.613997 -0.1875,-0.9375 a 1.0949663,1.0949663 0 0 0 -0.25,-0.53125 c -0.01105,-0.01221 -0.02253,0.0088 -0.03125,0 C 63.367947,49.926257 63.132416,49.577534 62.96875,49.1875 62.737604,48.636655 62.668271,48.108581 62.6875,47.75 62.6971,47.570709 62.73618,47.475948 62.75,47.4375 a 1.0949663,1.0949663 0 0 0 0.46875,-1.03125 c -0.04122,-0.498699 -0.05281,-0.935514 -0.0625,-1.375 0,-0.0106 -6e-5,-0.02066 0,-0.03125 0.01823,-3.229969 2.814814,-5.90625 6.34375,-5.90625 3.528934,0 6.325533,2.676288 6.34375,5.90625 6e-5,0.01059 0,0.02065 0,0.03125 -0.01556,0.406495 -0.08382,0.932573 -0.125,1.53125 a 1.0949663,1.0949663 0 0 0 0.40625,0.90625 c -0.01063,0.0054 0.05201,0.122171 0.0625,0.375 0.01399,0.337105 -0.06248,0.822396 -0.28125,1.34375 -0.152282,0.362903 -0.341742,0.664589 -0.5625,0.9375 A 1.0949663,1.0949663 0 0 0 75.125,50.59375 c -0.08592,0.406178 -0.131293,0.705 -0.21875,1.09375 -0.0077,0.03422 -0.02288,0.05796 -0.03125,0.09375 -0.104911,0.279648 -0.454394,0.876694 -0.875,1.5625 -0.443446,0.723048 -0.944912,1.530219 -1.40625,2.25 a 1.0949663,1.0949663 0 0 0 -0.1875,0.53125 c -0.06324,1.01822 -0.02832,2.015512 0.09375,3.03125 a 1.0949663,1.0949663 0 0 0 0.375,0.6875 c 1.704579,1.499197 4.313613,2.435737 6.5,3.34375 1.093194,0.454006 2.09172,0.88632 2.71875,1.28125 0.269546,0.169772 0.41771,0.32132 0.53125,0.4375 l -13.1875,0 a 1.0949663,1.0949663 0 0 0 -1,1.5 c 0.03763,0.09074 0.03117,0.142051 0.03125,0.15625 a 1.0949663,1.0949663 0 0 0 0,0.15625 l 0.03125,0.1875 -41,0 0.03125,-0.1875 a 1.0949663,1.0949663 0 0 0 0,-0.15625 c -1.71e-4,-0.03872 0.02602,-0.129355 0.0625,-0.25 a 1.0949663,1.0949663 0 0 0 -1.0625,-1.40625 l -13.1875,0 c 0.03803,-0.118004 0.09279,-0.290502 0.59375,-0.625 0.603669,-0.403076 1.543867,-0.847249 2.625,-1.28125 2.162266,-0.868002 4.798782,-1.671207 6.53125,-3.125 a 1.0949663,1.0949663 0 0 0 0.375,-0.65625 c 0.215924,-1.273307 0.232965,-2.405135 0.125,-3.53125 A 1.0949663,1.0949663 0 0 0 23.375,55.125 c -0.500829,-0.675302 -1.038901,-1.396384 -1.46875,-2.03125 -0.429849,-0.634866 -0.754476,-1.230188 -0.8125,-1.40625 -0.0705,-0.331225 -0.122327,-0.613997 -0.1875,-0.9375 a 1.0949663,1.0949663 0 0 0 -0.25,-0.53125 c -0.01105,-0.01221 -0.02253,0.0088 -0.03125,0 C 20.367947,49.926257 20.132416,49.577534 19.96875,49.1875 19.737604,48.636655 19.668271,48.108581 19.6875,47.75 19.6971,47.570709 19.73618,47.475948 19.75,47.4375 a 1.0949663,1.0949663 0 0 0 0.46875,-1.03125 c -0.04122,-0.498699 -0.05281,-0.935514 -0.0625,-1.375 0,-0.0106 -6e-5,-0.02066 0,-0.03125 0.01823,-3.229969 2.814814,-5.90625 6.34375,-5.90625 3.528934,0 6.325533,2.676288 6.34375,5.90625 6e-5,0.01059 0,0.02065 0,0.03125 -0.01556,0.406495 -0.08382,0.932573 -0.125,1.53125 a 1.0949663,1.0949663 0 0 0 0.40625,0.90625 c -0.01063,0.0054 0.05201,0.122171 0.0625,0.375 0.01399,0.337105 -0.06248,0.822396 -0.28125,1.34375 -0.152282,0.362903 -0.341742,0.664589 -0.5625,0.9375 A 1.0949663,1.0949663 0 0 0 32.125,50.59375 c -0.08592,0.406178 -0.131293,0.705 -0.21875,1.09375 -0.0077,0.03422 -0.02288,0.05796 -0.03125,0.09375 -0.104911,0.279648 -0.454394,0.876694 -0.875,1.5625 -0.443446,0.723048 -0.944912,1.530219 -1.40625,2.25 a 1.0949663,1.0949663 0 0 0 -0.1875,0.53125 c -0.06324,1.01822 -0.02832,2.015512 0.09375,3.03125 a 1.0949663,1.0949663 0 0 0 0.375,0.6875 c 1.129606,0.993501 2.644556,1.71273 4.1875,2.375 A 1.0949663,1.0949663 0 0 0 34.90625,62.25 c 2.763586,-1.079558 5.653476,-2.191465 7.625,-3.84375 a 1.0949663,1.0949663 0 0 0 0.375,-0.65625 c 0.319286,-1.880398 0.313105,-3.553518 0.15625,-5.1875 A 1.0949663,1.0949663 0 0 0 42.84375,52 c -0.74969,-1.009568 -1.541136,-2.096226 -2.1875,-3.0625 -0.639585,-0.95614 -1.145125,-1.818877 -1.28125,-2.21875 -0.0014,-0.0042 0.0014,-0.02712 0,-0.03125 -0.109289,-0.520311 -0.17545,-0.944303 -0.28125,-1.46875 a 1.0949663,1.0949663 0 0 0 -0.25,-0.53125 C 38.81853,44.65971 38.79883,44.67301 38.78125,44.65625 38.77195,44.64563 38.75933,44.63571 38.75,44.625 c -0.0076,-0.0061 -0.02756,-0.02969 -0.03125,-0.03125 -0.398533,-0.462261 -0.771947,-1.007842 -1.03125,-1.625 -0.376999,-0.897284 -0.505553,-1.754444 -0.46875,-2.375 0.0368,-0.620556 0.261039,-0.849695 0.25,-0.84375 a 1.0949663,1.0949663 0 0 0 0.5625,-1.0625 c -0.06383,-0.771239 -0.07894,-1.491129 -0.09375,-2.15625 0,-0.01059 -3.7e-5,-0.02067 0,-0.03125 C 37.95567,31.332829 42.409285,27.09375 48,27.09375 z"
       inkscape:connector-curvature="0"
       id="path4034"
       style="opacity:0.2;fill:#000000;fill-opacity:1;stroke:none;display:inline;enable-background:new" />
    <path
       d="m 48,26 c -6.161551,0 -11.15625,4.722124 -11.15625,10.53125 0.01498,0.665734 0.02522,1.421936 0.09375,2.25 -0.975114,0.525098 -1.119788,2.554842 -0.25,4.625 0.335395,0.798261 0.818999,1.443438 1.28125,1.96875 0.01541,0.01756 0.04698,0.0454 0.0625,0.0625 0.110341,0.546958 0.17906,0.976787 0.3125,1.59375 0.413387,1.252746 2.120753,3.599309 3.625,5.625 0.15001,1.562675 0.145566,3.128738 -0.15625,4.90625 C 40.075089,59.018581 37.25881,60.141058 34.5,61.21875 32.989271,60.570308 31.537399,59.8612 30.59375,59.03125 30.478459,58.071938 30.441314,57.132371 30.5,56.1875 c 0.910596,-1.420715 2.132791,-3.231673 2.4375,-4.15625 0.111987,-0.478814 0.163024,-0.807601 0.25,-1.21875 0.268899,-0.332425 0.52025,-0.714455 0.71875,-1.1875 0.549959,-1.310609 0.466769,-2.574467 -0.09375,-3 0.03917,-0.569473 0.10863,-1.107041 0.125,-1.59375 C 33.937517,41.158501 30.60246,38 26.5,38 c -4.102461,0 -7.4375,3.1585 -7.4375,7.03125 0.0099,0.443823 0.01687,0.916707 0.0625,1.46875 -0.649247,0.350066 -0.73537,1.744895 -0.15625,3.125 0.223311,0.532174 0.535975,0.962292 0.84375,1.3125 0.01026,0.0117 0.02093,0.01984 0.03125,0.03125 0.07346,0.364638 0.129903,0.651191 0.21875,1.0625 0.27524,0.835163 1.435948,2.399539 2.4375,3.75 0.09988,1.041783 0.07595,2.064993 -0.125,3.25 -2.882807,2.419095 -10.261052,3.495632 -10.25,6 L 12,66 26.53125,66 c -0.05495,0.181713 -0.0946,0.370157 -0.09375,0.5625 L 26.21875,68 69.78125,68 69.5625,66.5625 C 69.5614,66.370773 69.51379,66.183961 69.4375,66 L 84,66 83.875,65.03125 c -0.01176,-2.143405 -7.43379,-3.495626 -10.28125,-6 C 73.478459,58.071938 73.441314,57.132371 73.5,56.1875 c 0.910596,-1.420715 2.132791,-3.231673 2.4375,-4.15625 0.111987,-0.478814 0.163024,-0.807601 0.25,-1.21875 0.268899,-0.332425 0.52025,-0.714455 0.71875,-1.1875 0.549959,-1.310609 0.466769,-2.574467 -0.09375,-3 0.03917,-0.569473 0.10863,-1.107041 0.125,-1.59375 C 76.937517,41.158501 73.60246,38 69.5,38 c -4.102461,0 -7.4375,3.1585 -7.4375,7.03125 0.0099,0.443823 0.01687,0.916707 0.0625,1.46875 -0.649247,0.350066 -0.73537,1.744895 -0.15625,3.125 0.223311,0.532174 0.535975,0.962292 0.84375,1.3125 0.01026,0.0117 0.02093,0.01984 0.03125,0.03125 0.07346,0.364638 0.129903,0.651191 0.21875,1.0625 0.27524,0.835163 1.435948,2.399539 2.4375,3.75 0.09988,1.041783 0.07595,2.064993 -0.125,3.25 -1.047773,0.879234 -2.678672,1.591501 -4.34375,2.25 -2.627698,-1.092932 -5.244393,-2.286442 -6.875,-3.71875 -0.173156,-1.438968 -0.213143,-2.863943 -0.125,-4.28125 1.36764,-2.131074 3.167354,-4.863134 3.625,-6.25 0.168196,-0.718221 0.24437,-1.195777 0.375,-1.8125 0.403863,-0.498639 0.795621,-1.102934 1.09375,-1.8125 0.825993,-1.965914 0.716854,-3.861701 -0.125,-4.5 0.05883,-0.85421 0.131655,-1.644937 0.15625,-2.375 C 59.156265,30.722126 54.161551,26 48,26 z m 0,2.0625 c 5.080836,0 9.057794,3.811719 9.09375,8.40625 1.64e-4,0.02097 0,0.04149 0,0.0625 -0.02359,0.63242 -0.09705,1.359177 -0.15625,2.21875 a 2.0700319,2.0700319 0 0 0 0.625,1.65625 c 0.01265,0.03411 0.05532,0.116468 0.0625,0.3125 0.01574,0.429895 -0.0979,1.141107 -0.40625,1.875 -0.209863,0.499488 -0.480122,0.940706 -0.78125,1.3125 A 2.0700319,2.0700319 0 0 0 56,44.78125 c -0.126869,0.598969 -0.189246,1.042427 -0.3125,1.59375 -0.102553,0.31078 -0.629961,1.359118 -1.28125,2.4375 -0.651289,1.078382 -1.435435,2.269261 -2.125,3.34375 a 2.0700319,2.0700319 0 0 0 -0.3125,1 c -0.09589,1.541795 -0.063,3.093886 0.125,4.65625 a 2.0700319,2.0700319 0 0 0 0.6875,1.3125 c 2.027164,1.78064 4.797586,2.951489 7.46875,4.0625 a 2.0700319,2.0700319 0 0 0 1.53125,0.03125 c 1.709918,-0.676232 3.501213,-1.388496 4.9375,-2.59375 a 2.0700319,2.0700319 0 0 0 0.6875,-1.25 c 0.229258,-1.351937 0.271415,-2.580037 0.15625,-3.78125 A 2.0700319,2.0700319 0 0 0 67.15625,54.5625 c -0.500876,-0.675365 -1.025396,-1.391343 -1.4375,-2 -0.399279,-0.589715 -0.650307,-1.156131 -0.65625,-1.15625 -1.91e-4,-4e-6 -0.03165,-0.03246 -0.03125,-0.03125 -0.05799,-0.275717 -0.09788,-0.522767 -0.15625,-0.8125 a 2.0700319,2.0700319 0 0 0 -0.5,-0.96875 c -0.0096,-0.01064 0.0084,-0.02175 0,-0.03125 -0.211886,-0.241099 -0.389447,-0.486541 -0.5,-0.75 -0.162443,-0.387118 -0.184731,-0.737088 -0.1875,-0.9375 a 2.0700319,2.0700319 0 0 0 0.5,-1.53125 c -0.03816,-0.461613 -0.05272,-0.869793 -0.0625,-1.3125 -2.32e-4,-0.01052 2.35e-4,-0.02069 0,-0.03125 0.01815,-2.670721 2.346834,-4.9375 5.375,-4.9375 3.016246,0 5.338896,2.249308 5.375,4.90625 -4.75e-4,0.01412 6.54e-4,0.04773 0,0.0625 -0.01515,0.342201 -0.0823,0.816668 -0.125,1.4375 a 2.0700319,2.0700319 0 0 0 0.46875,1.46875 c -4.24e-4,0.177453 -0.0607,0.498349 -0.21875,0.875 -0.111125,0.264822 -0.228361,0.467586 -0.40625,0.6875 a 2.0700319,2.0700319 0 0 0 -0.4375,0.875 c -0.08366,0.395467 -0.117949,0.678681 -0.1875,1 -0.0206,0.0625 -0.350285,0.766052 -0.78125,1.46875 -0.430965,0.702698 -0.970783,1.490577 -1.4375,2.21875 a 2.0700319,2.0700319 0 0 0 -0.3125,1 c -0.0673,1.083538 -0.03436,2.152765 0.09375,3.21875 a 2.0700319,2.0700319 0 0 0 0.6875,1.3125 c 1.849272,1.626456 4.312712,2.493931 6.40625,3.34375 l -9.1875,0 a 2.0700319,2.0700319 0 0 0 -2.0625,2 l -38.78125,0 a 2.0700319,2.0700319 0 0 0 -2.0625,-2 l -9.65625,0 c 0.02691,-0.01088 0.0354,-0.02037 0.0625,-0.03125 2.12552,-0.853251 4.78959,-1.609957 6.78125,-3.28125 a 2.0700319,2.0700319 0 0 0 0.6875,-1.25 c 0.229258,-1.351937 0.271415,-2.580037 0.15625,-3.78125 A 2.0700319,2.0700319 0 0 0 24.15625,54.5625 c -0.500876,-0.675365 -1.025396,-1.391343 -1.4375,-2 -0.399279,-0.589715 -0.650307,-1.156131 -0.65625,-1.15625 -1.91e-4,-4e-6 -0.03165,-0.03246 -0.03125,-0.03125 -0.05799,-0.275717 -0.09788,-0.522767 -0.15625,-0.8125 a 2.0700319,2.0700319 0 0 0 -0.5,-0.96875 c -0.0096,-0.01064 0.0084,-0.02175 0,-0.03125 -0.211886,-0.241099 -0.389447,-0.486541 -0.5,-0.75 -0.162443,-0.387118 -0.184731,-0.737088 -0.1875,-0.9375 a 2.0700319,2.0700319 0 0 0 0.5,-1.53125 c -0.03815,-0.461613 -0.05272,-0.869793 -0.0625,-1.3125 -2.32e-4,-0.01052 2.35e-4,-0.02069 0,-0.03125 0.01815,-2.670721 2.346834,-4.9375 5.375,-4.9375 3.016246,0 5.338896,2.249308 5.375,4.90625 -4.75e-4,0.01412 6.54e-4,0.04773 0,0.0625 -0.01515,0.342201 -0.0823,0.816668 -0.125,1.4375 a 2.0700319,2.0700319 0 0 0 0.46875,1.46875 c -4.24e-4,0.177453 -0.0607,0.498349 -0.21875,0.875 -0.111125,0.264822 -0.228361,0.467586 -0.40625,0.6875 a 2.0700319,2.0700319 0 0 0 -0.4375,0.875 c -0.08366,0.395467 -0.117949,0.678681 -0.1875,1 -0.0206,0.0625 -0.350285,0.766052 -0.78125,1.46875 -0.430965,0.702698 -0.970783,1.490577 -1.4375,2.21875 a 2.0700319,2.0700319 0 0 0 -0.3125,1 c -0.0673,1.083538 -0.03436,2.152765 0.09375,3.21875 a 2.0700319,2.0700319 0 0 0 0.6875,1.3125 c 1.2952,1.139143 2.897118,1.856667 4.46875,2.53125 a 2.0700319,2.0700319 0 0 0 1.5625,0.03125 c 2.767838,-1.081219 5.72625,-2.172996 7.90625,-4 a 2.0700319,2.0700319 0 0 0 0.6875,-1.25 c 0.334843,-1.972018 0.350451,-3.740019 0.1875,-5.4375 A 2.0700319,2.0700319 0 0 0 43.625,51.4375 c -0.747522,-1.006649 -1.527858,-2.091843 -2.15625,-3.03125 -0.609632,-0.911363 -1.042,-1.747542 -1.125,-1.96875 -0.0026,-0.0068 -0.02942,-0.05694 -0.03125,-0.0625 -0.09299,-0.453298 -0.147963,-0.837956 -0.25,-1.34375 a 2.0700319,2.0700319 0 0 0 -0.5,-1 C 39.359567,43.807658 39.337629,43.779366 39.53125,44 39.151271,43.568183 38.808191,43.104133 38.59375,42.59375 38.268307,41.819172 38.161855,41.057405 38.1875,40.625 c 0.01124,-0.189593 0.03122,-0.212897 0.03125,-0.21875 5e-6,-8.21e-4 0.0016,-0.03311 0,-0.03125 A 2.0700319,2.0700319 0 0 0 39,38.625 c -0.06048,-0.730842 -0.0788,-1.423246 -0.09375,-2.09375 0,-0.0105 -4.1e-5,-0.02076 0,-0.03125 C 38.92429,31.891373 42.907568,28.0625 48,28.0625 z"
       inkscape:connector-curvature="0"
       id="path4038"
       style="opacity:0.1;fill:#000000;fill-opacity:1;stroke:none;display:inline;enable-background:new" />
    <path
       d="m 48,26 c -6.161551,0 -11.15625,4.722124 -11.15625,10.53125 0.0046,0.205704 0.02567,0.43382 0.03125,0.65625 C 37.071732,31.540671 41.963274,27 48,27 c 5.969003,0 10.826221,4.441664 11.125,10 0.0081,-0.148848 0.0264,-0.32465 0.03125,-0.46875 C 59.156265,30.722126 54.161551,26 48,26 z M 26.5,38 c -4.102461,0 -7.4375,3.1585 -7.4375,7.03125 0.0034,0.151217 0.02691,0.340055 0.03125,0.5 C 19.366713,41.890901 22.576054,39 26.5,39 c 3.846056,0 7.02484,2.77445 7.40625,6.3125 0.0058,-0.08919 0.02835,-0.195141 0.03125,-0.28125 C 33.937517,41.158501 30.60246,38 26.5,38 z m 43,0 c -4.102461,0 -7.4375,3.1585 -7.4375,7.03125 0.0034,0.151217 0.02691,0.340055 0.03125,0.5 C 62.366713,41.890901 65.576054,39 69.5,39 c 3.846056,0 7.02484,2.77445 7.40625,6.3125 0.0058,-0.08919 0.02835,-0.195141 0.03125,-0.28125 C 76.937517,41.158501 73.60246,38 69.5,38 z m -32.625,0.8125 c -0.592948,0.371485 -0.836635,1.322942 -0.71875,2.5 0.08048,-0.731252 0.33457,-1.290713 0.78125,-1.53125 -0.02797,-0.337974 -0.04966,-0.655984 -0.0625,-0.96875 z m 22.1875,0.15625 c -0.02376,0.317595 -0.03928,0.600292 -0.0625,0.9375 0.350986,0.26612 0.574658,0.757768 0.65625,1.375 0.09144,-1.042957 -0.11538,-1.890119 -0.59375,-2.3125 z m -39.96875,7.5625 c -0.406681,0.252443 -0.564272,0.925566 -0.46875,1.75 0.0797,-0.369243 0.256532,-0.649975 0.5,-0.78125 -0.03008,-0.363954 -0.02286,-0.659254 -0.03125,-0.96875 z m 43,0 c -0.406681,0.252443 -0.564272,0.925566 -0.46875,1.75 0.0797,-0.369243 0.256532,-0.649975 0.5,-0.78125 -0.03008,-0.363954 -0.02286,-0.659254 -0.03125,-0.96875 z M 33.875,46.6875 c -0.02702,0.30879 -0.03948,0.602823 -0.0625,0.9375 0.221556,0.168201 0.343471,0.462477 0.40625,0.84375 0.118291,-0.792617 -0.0027,-1.457527 -0.34375,-1.78125 z m 43,0 c -0.02702,0.30879 -0.03948,0.602823 -0.0625,0.9375 0.221556,0.168201 0.343471,0.462477 0.40625,0.84375 0.118291,-0.792617 -0.0027,-1.457527 -0.34375,-1.78125 z m -34.8125,8.34375 c -0.02009,0.809039 -0.09909,1.642494 -0.25,2.53125 -1.737411,1.456081 -4.55369,2.578558 -7.3125,3.65625 -1.510729,-0.648442 -2.962601,-1.35755 -3.90625,-2.1875 -0.04883,-0.406313 -0.0743,-0.817618 -0.09375,-1.21875 -0.01321,0.734132 0.0041,1.472513 0.09375,2.21875 0.943649,0.82995 2.395521,1.539058 3.90625,2.1875 2.75881,-1.077692 5.575089,-2.200169 7.3125,-3.65625 0.214448,-1.262969 0.284541,-2.407147 0.25,-3.53125 z M 54,55.5625 c -0.0073,0.993601 0.0353,1.9949 0.15625,3 1.630607,1.432308 4.247302,2.625818 6.875,3.71875 1.665078,-0.658499 3.295977,-1.370766 4.34375,-2.25 0.150712,-0.888755 0.213487,-1.685923 0.1875,-2.46875 -0.02495,0.467169 -0.100472,0.955537 -0.1875,1.46875 -1.047773,0.879234 -2.678672,1.591501 -4.34375,2.25 -2.627698,-1.092932 -5.244393,-2.286442 -6.875,-3.71875 -0.08034,-0.66762 -0.132741,-1.337773 -0.15625,-2 z m -31.4375,2 c -0.02495,0.467169 -0.100472,0.955537 -0.1875,1.46875 -2.882807,2.419095 -10.261052,3.495632 -10.25,6 L 12,66 l 0.125,0 c 0.04777,-2.482984 7.378743,-3.559347 10.25,-5.96875 0.150712,-0.888755 0.213487,-1.685923 0.1875,-2.46875 z m 50.9375,0.25 c -0.01322,0.734132 0.0041,1.472513 0.09375,2.21875 C 76.428212,62.524193 83.796201,63.873528 83.875,66 L 84,66 83.875,65.03125 c -0.01176,-2.143405 -7.43379,-3.495626 -10.28125,-6 C 73.544919,58.624937 73.51945,58.213632 73.5,57.8125 z M 26.375,67 26.21875,68 26.375,68 26.4375,67.5625 C 26.43665,67.370157 26.4763,67.181713 26.53125,67 L 26.375,67 z m 43.0625,0 c 0.07629,0.183961 0.123947,0.370773 0.125,0.5625 L 69.625,68 69.78125,68 69.625,67 69.4375,67 z"
       inkscape:connector-curvature="0"
       id="path4022"
       style="opacity:0.3;fill:#000000;fill-opacity:1;stroke:none;display:inline;enable-background:new" />
    <path
       d="m 59.125,37 c -0.03308,0.605272 -0.07778,1.220644 -0.125,1.90625 0.02338,0.01773 0.04025,0.04285 0.0625,0.0625 0.03643,-0.486933 0.07886,-0.995636 0.09375,-1.4375 0,-0.181535 -0.02161,-0.351949 -0.03125,-0.53125 z m -22.25,0.1875 c -0.0041,0.116762 -0.03125,0.226065 -0.03125,0.34375 0.0089,0.394015 0.01264,0.827713 0.03125,1.28125 0.02005,-0.01256 0.04169,-0.02004 0.0625,-0.03125 -0.04736,-0.572202 -0.05001,-1.096315 -0.0625,-1.59375 z m -0.71875,4.125 c -0.09521,0.865091 0.05989,1.971888 0.53125,3.09375 0.335395,0.798261 0.818999,1.443438 1.28125,1.96875 0.01541,0.01756 0.04698,0.0454 0.0625,0.0625 0.110341,0.546958 0.17906,0.976787 0.3125,1.59375 0.413387,1.252746 2.120753,3.599309 3.625,5.625 0.0375,0.390669 0.07779,0.793157 0.09375,1.1875 0.01039,-0.741411 -0.02467,-1.467847 -0.09375,-2.1875 -1.504247,-2.025691 -3.211613,-4.372254 -3.625,-5.625 C 38.21031,46.414287 38.141591,45.984458 38.03125,45.4375 38.01573,45.4204 37.98416,45.39256 37.96875,45.375 37.506499,44.849688 37.022895,44.204511 36.6875,43.40625 36.385176,42.686697 36.221179,41.9608 36.15625,41.3125 z m 23.5,0 c -0.06011,0.647249 -0.22611,1.367498 -0.53125,2.09375 -0.298129,0.709566 -0.689887,1.313861 -1.09375,1.8125 -0.13063,0.616723 -0.206804,1.094279 -0.375,1.8125 -0.457646,1.386866 -2.25736,4.118926 -3.625,6.25 -0.02074,0.333412 0.0065,0.665657 0,1 1.36764,-2.131074 3.167354,-4.863134 3.625,-6.25 0.168196,-0.718221 0.24437,-1.195777 0.375,-1.8125 0.403863,-0.498639 0.795621,-1.102934 1.09375,-1.8125 0.475953,-1.132798 0.637552,-2.234688 0.53125,-3.09375 z m -25.75,4.0625 c -0.02776,0.398157 -0.06304,0.803474 -0.09375,1.25 0.02336,0.01773 0.04081,0.04192 0.0625,0.0625 0.01895,-0.216635 0.05575,-0.455578 0.0625,-0.65625 10e-7,-0.221039 -0.01,-0.440319 -0.03125,-0.65625 z m 43,0 c -0.02776,0.398157 -0.06304,0.803474 -0.09375,1.25 0.02335,0.01773 0.04081,0.04192 0.0625,0.0625 0.01896,-0.216635 0.05575,-0.455578 0.0625,-0.65625 10e-7,-0.221039 -0.01,-0.440319 -0.03125,-0.65625 z m -57.8125,0.15625 c -0.01242,0.165613 -0.03125,0.331481 -0.03125,0.5 0.0034,0.151217 0.02691,0.340055 0.03125,0.5 0.012,-0.0074 0.01884,-0.02456 0.03125,-0.03125 -0.03008,-0.363954 -0.02286,-0.659254 -0.03125,-0.96875 z m 43,0 c -0.01242,0.165613 -0.03125,0.331481 -0.03125,0.5 0.0034,0.151217 0.02691,0.340055 0.03125,0.5 0.012,-0.0074 0.01884,-0.02456 0.03125,-0.03125 -0.03008,-0.363954 -0.02286,-0.659254 -0.03125,-0.96875 z M 18.625,48.34375 c -0.114821,0.611345 -0.0071,1.445069 0.34375,2.28125 0.223311,0.532174 0.535975,0.962292 0.84375,1.3125 0.01026,0.0117 0.02093,0.01984 0.03125,0.03125 0.07346,0.364638 0.129903,0.651191 0.21875,1.0625 0.27524,0.835163 1.435948,2.399539 2.4375,3.75 0.02199,0.229391 0.05308,0.457984 0.0625,0.6875 0.02627,-0.578088 -0.0087,-1.126776 -0.0625,-1.6875 -1.001552,-1.350461 -2.16226,-2.914837 -2.4375,-3.75 -0.08885,-0.411309 -0.14529,-0.697862 -0.21875,-1.0625 C 19.83343,50.95734 19.82276,50.9492 19.8125,50.9375 19.504725,50.587292 19.192061,50.157174 18.96875,49.625 18.785404,49.188067 18.67823,48.750014 18.625,48.34375 z m 43,0 c -0.114821,0.611345 -0.0071,1.445069 0.34375,2.28125 0.223311,0.532174 0.535975,0.962292 0.84375,1.3125 0.01026,0.0117 0.02093,0.01984 0.03125,0.03125 0.07346,0.364638 0.129903,0.651191 0.21875,1.0625 0.27524,0.835163 1.435948,2.399539 2.4375,3.75 0.02199,0.229391 0.05308,0.457984 0.0625,0.6875 0.02627,-0.578088 -0.0087,-1.126776 -0.0625,-1.6875 -1.001552,-1.350461 -2.16226,-2.914837 -2.4375,-3.75 -0.08885,-0.411309 -0.14529,-0.697862 -0.21875,-1.0625 C 62.83343,50.95734 62.82276,50.9492 62.8125,50.9375 62.504725,50.587292 62.192061,50.157174 61.96875,49.625 61.785404,49.188067 61.67823,48.750014 61.625,48.34375 z m -27.40625,0.125 c -0.05471,0.366561 -0.145836,0.759072 -0.3125,1.15625 -0.1985,0.473045 -0.449851,0.855075 -0.71875,1.1875 -0.08698,0.411149 -0.138013,0.739936 -0.25,1.21875 -0.304709,0.924577 -1.526904,2.735535 -2.4375,4.15625 -0.03383,0.544675 -0.02647,1.079052 0,1.625 0.0038,-0.209619 -0.01303,-0.415132 0,-0.625 0.910596,-1.420715 2.132791,-3.231673 2.4375,-4.15625 0.111987,-0.478814 0.163024,-0.807601 0.25,-1.21875 0.268899,-0.332425 0.52025,-0.714455 0.71875,-1.1875 0.332577,-0.792564 0.408547,-1.572935 0.3125,-2.15625 z m 43,0 c -0.05471,0.366561 -0.145836,0.759072 -0.3125,1.15625 -0.1985,0.473045 -0.449851,0.855075 -0.71875,1.1875 -0.08698,0.411149 -0.138013,0.739936 -0.25,1.21875 -0.304709,0.924577 -1.526904,2.735535 -2.4375,4.15625 -0.03383,0.544675 -0.02647,1.079052 0,1.625 0.0038,-0.209619 -0.01304,-0.415132 0,-0.625 0.910596,-1.420715 2.132791,-3.231673 2.4375,-4.15625 0.111987,-0.478814 0.163024,-0.807601 0.25,-1.21875 0.268899,-0.332425 0.52025,-0.714455 0.71875,-1.1875 0.332577,-0.792564 0.408547,-1.572935 0.3125,-2.15625 z M 12.125,66 c -1.92e-4,0.01 -4.4e-5,0.02122 0,0.03125 L 12,67 26.375,67 26.4375,66.5625 C 26.43665,66.370157 26.4763,66.181713 26.53125,66 L 12.125,66 z m 57.3125,0 c 0.07629,0.183961 0.123947,0.370773 0.125,0.5625 L 69.625,67 84,67 83.875,66.03125 c -5.4e-5,-0.0098 3.61e-4,-0.0215 0,-0.03125 l -14.4375,0 z m -43.0625,2 -0.15625,1 43.5625,0 -0.15625,-1 -43.25,0 z"
       inkscape:connector-curvature="0"
       id="path4006"
       style="opacity:0.3;fill:#ffffff;fill-opacity:1;stroke:none;display:inline;enable-background:new" />
  </g>
</svg>
