<?xml version="1.0" encoding="UTF-8" standalone="no"?>
<!-- Created with Inkscape (http://www.inkscape.org/) -->

<svg
   xmlns:svg="http://www.w3.org/2000/svg"
   xmlns="http://www.w3.org/2000/svg"
   xmlns:xlink="http://www.w3.org/1999/xlink"
   version="1.0"
   width="96"
   height="96"
   id="svg2408">
  <defs
     id="defs2410">
    <linearGradient
       id="linearGradient3794">
      <stop
         id="stop3796"
         style="stop-color:#ae0000;stop-opacity:1"
         offset="0" />
      <stop
         id="stop3798"
         style="stop-color:#ff3131;stop-opacity:1"
         offset="1" />
    </linearGradient>
    <linearGradient
       id="linearGradient3761">
      <stop
         id="stop3763"
         style="stop-color:#333333;stop-opacity:1"
         offset="0" />
      <stop
         id="stop3765"
         style="stop-color:#515151;stop-opacity:1"
         offset="1" />
    </linearGradient>
    <linearGradient
       id="linearGradient3678">
      <stop
         id="stop3680"
         style="stop-color:#888888;stop-opacity:1"
         offset="0" />
      <stop
         id="stop3682"
         style="stop-color:#acacac;stop-opacity:1"
         offset="1" />
    </linearGradient>
    <linearGradient
       id="linearGradient3664">
      <stop
         id="stop3666"
         style="stop-color:#c8c8c8;stop-opacity:1"
         offset="0" />
      <stop
         id="stop3668"
         style="stop-color:#c8c8c8;stop-opacity:1"
         offset="0.79100895" />
      <stop
         id="stop3672"
         style="stop-color:#dadada;stop-opacity:1"
         offset="0.91459841" />
      <stop
         id="stop3670"
         style="stop-color:#f0f0f0;stop-opacity:1"
         offset="1" />
    </linearGradient>
    <linearGradient
       x1="45.447727"
       y1="92.539597"
       x2="45.447727"
       y2="7.0165396"
       id="ButtonShadow"
       gradientUnits="userSpaceOnUse"
       gradientTransform="scale(1.0058652,0.994169)">
      <stop
         id="stop3750"
         style="stop-color:#000000;stop-opacity:1"
         offset="0" />
      <stop
         id="stop3752"
         style="stop-color:#000000;stop-opacity:0.58823532"
         offset="1" />
    </linearGradient>
    <linearGradient
       id="linearGradient3737">
      <stop
         id="stop3739"
         style="stop-color:#ffffff;stop-opacity:1"
         offset="0" />
      <stop
         id="stop3741"
         style="stop-color:#ffffff;stop-opacity:0"
         offset="1" />
    </linearGradient>
    <filter
       color-interpolation-filters="sRGB"
       id="filter3174">
      <feGaussianBlur
         id="feGaussianBlur3176"
         stdDeviation="1.71" />
    </filter>
    <linearGradient
       x1="36.357143"
       y1="6"
       x2="36.357143"
       y2="63.893143"
       id="linearGradient3188"
       xlink:href="#linearGradient3737"
       gradientUnits="userSpaceOnUse" />
    <filter
       x="-0.192"
       y="-0.192"
       width="1.3839999"
       height="1.3839999"
       color-interpolation-filters="sRGB"
       id="filter3794">
      <feGaussianBlur
         id="feGaussianBlur3796"
         stdDeviation="5.28" />
    </filter>
    <linearGradient
       x1="48"
       y1="20.220806"
       x2="48"
       y2="138.66119"
       id="linearGradient3613"
       xlink:href="#linearGradient3737"
       gradientUnits="userSpaceOnUse" />
    <radialGradient
       cx="48"
       cy="90.171875"
       r="42"
       fx="48"
       fy="90.171875"
       id="radialGradient3619"
       xlink:href="#linearGradient3737"
       gradientUnits="userSpaceOnUse"
       gradientTransform="matrix(1.1573129,0,0,0.99590774,-7.5510206,0.19713193)" />
    <clipPath
       id="clipPath3613">
      <rect
         width="84"
         height="84"
         rx="6"
         ry="6"
         x="6"
         y="6"
         id="rect3615"
         style="fill:#ffffff;fill-opacity:1;fill-rule:nonzero;stroke:none" />
    </clipPath>
    <linearGradient
       x1="48"
       y1="90"
       x2="48"
       y2="5.9877172"
       id="linearGradient3617"
       xlink:href="#linearGradient3664"
       gradientUnits="userSpaceOnUse" />
    <linearGradient
       x1="45.447727"
       y1="92.539597"
       x2="45.447727"
       y2="7.0165396"
       id="ButtonShadow-0"
       gradientUnits="userSpaceOnUse"
       gradientTransform="matrix(1.0058652,0,0,0.994169,100,0)">
      <stop
         id="stop3750-8"
         style="stop-color:#000000;stop-opacity:1"
         offset="0" />
      <stop
         id="stop3752-5"
         style="stop-color:#000000;stop-opacity:0.58823532"
         offset="1" />
    </linearGradient>
    <linearGradient
       x1="32.251034"
       y1="6.1317081"
       x2="32.251034"
       y2="90.238609"
       id="linearGradient3780"
       xlink:href="#ButtonShadow-0"
       gradientUnits="userSpaceOnUse"
       gradientTransform="matrix(1.0238095,0,0,1.0119048,-1.1428571,-98.071429)" />
    <linearGradient
       x1="32.251034"
       y1="6.1317081"
       x2="32.251034"
       y2="90.238609"
       id="linearGradient3772"
       xlink:href="#ButtonShadow-0"
       gradientUnits="userSpaceOnUse"
       gradientTransform="matrix(1.0238095,0,0,1.0119048,-1.1428571,-98.071429)" />
    <linearGradient
       x1="32.251034"
       y1="6.1317081"
       x2="32.251034"
       y2="90.238609"
       id="linearGradient3725"
       xlink:href="#ButtonShadow-0"
       gradientUnits="userSpaceOnUse"
       gradientTransform="matrix(1.0238095,0,0,1.0119048,-1.1428571,-98.071429)" />
    <linearGradient
       x1="32.251034"
       y1="6.1317081"
       x2="32.251034"
       y2="90.238609"
       id="linearGradient3721"
       xlink:href="#ButtonShadow-0"
       gradientUnits="userSpaceOnUse"
       gradientTransform="translate(0,-97)" />
    <linearGradient
       x1="32.251034"
       y1="6.1317081"
       x2="32.251034"
       y2="90.238609"
       id="linearGradient3026"
       xlink:href="#ButtonShadow-0"
       gradientUnits="userSpaceOnUse"
       gradientTransform="matrix(1.0238095,0,0,1.0119048,-1.1428571,-98.071429)" />
    <linearGradient
       x1="48"
       y1="24"
       x2="48"
       y2="80"
       id="linearGradient3684"
       xlink:href="#linearGradient3678"
       gradientUnits="userSpaceOnUse" />
    <linearGradient
       x1="15"
       y1="10"
       x2="15"
       y2="6"
       id="linearGradient3767"
       xlink:href="#linearGradient3761"
       gradientUnits="userSpaceOnUse" />
    <linearGradient
       x1="15"
       y1="10"
       x2="15"
       y2="6"
       id="linearGradient3785"
       xlink:href="#linearGradient3761"
       gradientUnits="userSpaceOnUse"
       gradientTransform="translate(67,0)" />
    <linearGradient
       x1="15"
       y1="10"
       x2="15"
       y2="6"
       id="linearGradient3800"
       xlink:href="#linearGradient3794"
       gradientUnits="userSpaceOnUse"
       gradientTransform="translate(67,0)" />
  </defs>
  <g
     id="layer2"
     style="display:none">
    <rect
       width="86"
       height="85"
       rx="6"
       ry="6"
       x="5"
       y="7"
       id="rect3745"
       style="opacity:0.9;fill:url(#ButtonShadow);fill-opacity:1;fill-rule:nonzero;stroke:none;filter:url(#filter3174)" />
  </g>
  <g
     id="layer3">
    <path
       d="m 12,-95.03125 c -5.5110903,0 -10.03125,4.52016 -10.03125,10.03125 l 0,71 c 0,5.5110902 4.5201598,10.03125 10.03125,10.03125 l 72,0 c 5.51109,0 10.03125,-4.5201597 10.03125,-10.03125 l 0,-71 c 0,-5.51109 -4.52016,-10.03125 -10.03125,-10.03125 l -72,0 z"
       transform="scale(1,-1)"
       id="path3786"
       style="opacity:0.07999998;fill:url(#linearGradient3026);fill-opacity:1;fill-rule:nonzero;stroke:none;display:inline" />
    <path
       d="m 12,-94.03125 c -4.971633,0 -9.03125,4.059617 -9.03125,9.03125 l 0,71 c 0,4.9716329 4.0596171,9.03125 9.03125,9.03125 l 72,0 c 4.971633,0 9.03125,-4.059617 9.03125,-9.03125 l 0,-71 c 0,-4.971633 -4.059617,-9.03125 -9.03125,-9.03125 l -72,0 z"
       transform="scale(1,-1)"
       id="path3778"
       style="opacity:0.1;fill:url(#linearGradient3780);fill-opacity:1;fill-rule:nonzero;stroke:none;display:inline" />
    <path
       d="m 12,-93 c -4.4091333,0 -8,3.590867 -8,8 l 0,71 c 0,4.4091333 3.5908667,8 8,8 l 72,0 c 4.409133,0 8,-3.5908667 8,-8 l 0,-71 c 0,-4.409133 -3.590867,-8 -8,-8 l -72,0 z"
       transform="scale(1,-1)"
       id="path3770"
       style="opacity:0.2;fill:url(#linearGradient3772);fill-opacity:1;fill-rule:nonzero;stroke:none;display:inline" />
    <rect
       width="86"
       height="85"
       rx="7"
       ry="7"
       x="5"
       y="-92"
       transform="scale(1,-1)"
       id="rect3723"
       style="opacity:0.3;fill:url(#linearGradient3725);fill-opacity:1;fill-rule:nonzero;stroke:none;display:inline" />
    <rect
       width="84"
       height="84"
       rx="6"
       ry="6"
       x="6"
       y="-91"
       transform="scale(1,-1)"
       id="rect3716"
       style="opacity:0.45;fill:url(#linearGradient3721);fill-opacity:1;fill-rule:nonzero;stroke:none;display:inline" />
  </g>
  <g
     id="layer1">
    <rect
       width="84"
       height="84"
       rx="6"
       ry="6"
       x="6"
       y="6"
       id="rect2419"
       style="fill:url(#linearGradient3617);fill-opacity:1;fill-rule:nonzero;stroke:none" />
    <path
       d="M 12,6 C 8.676,6 6,8.676 6,12 l 0,2 0,68 0,2 c 0,0.334721 0.04135,0.6507 0.09375,0.96875 0.0487,0.295596 0.09704,0.596915 0.1875,0.875 0.00988,0.03038 0.020892,0.0636 0.03125,0.09375 0.098865,0.287771 0.2348802,0.547452 0.375,0.8125 0.1445918,0.273507 0.3156161,0.535615 0.5,0.78125 0.1843839,0.245635 0.3737765,0.473472 0.59375,0.6875 0.439947,0.428056 0.94291,0.814526 1.5,1.09375 0.278545,0.139612 0.5734731,0.246947 0.875,0.34375 -0.2562018,-0.100222 -0.4867109,-0.236272 -0.71875,-0.375 -0.00741,-0.0044 -0.023866,0.0045 -0.03125,0 -0.031933,-0.0193 -0.062293,-0.04251 -0.09375,-0.0625 -0.120395,-0.0767 -0.2310226,-0.163513 -0.34375,-0.25 -0.1061728,-0.0808 -0.2132809,-0.161112 -0.3125,-0.25 C 8.4783201,88.557317 8.3087904,88.373362 8.15625,88.1875 8.0486711,88.057245 7.9378561,87.922215 7.84375,87.78125 7.818661,87.74287 7.805304,87.69538 7.78125,87.65625 7.716487,87.553218 7.6510225,87.451733 7.59375,87.34375 7.4927417,87.149044 7.3880752,86.928049 7.3125,86.71875 7.30454,86.69694 7.288911,86.6782 7.28125,86.65625 7.2494249,86.5643 7.2454455,86.469419 7.21875,86.375 7.1884177,86.268382 7.1483606,86.171969 7.125,86.0625 7.0521214,85.720988 7,85.364295 7,85 L 7,83 7,15 7,13 C 7,10.218152 9.2181517,8 12,8 l 2,0 68,0 2,0 c 2.781848,0 5,2.218152 5,5 l 0,2 0,68 0,2 c 0,0.364295 -0.05212,0.720988 -0.125,1.0625 -0.04415,0.206893 -0.08838,0.397658 -0.15625,0.59375 -0.0077,0.02195 -0.0233,0.04069 -0.03125,0.0625 -0.06274,0.173739 -0.138383,0.367449 -0.21875,0.53125 -0.04158,0.0828 -0.07904,0.169954 -0.125,0.25 -0.0546,0.09721 -0.126774,0.18835 -0.1875,0.28125 -0.09411,0.140965 -0.204921,0.275995 -0.3125,0.40625 -0.143174,0.17445 -0.303141,0.346998 -0.46875,0.5 -0.01117,0.0102 -0.01998,0.02115 -0.03125,0.03125 -0.138386,0.125556 -0.285091,0.234436 -0.4375,0.34375 -0.102571,0.07315 -0.204318,0.153364 -0.3125,0.21875 -0.0074,0.0045 -0.02384,-0.0044 -0.03125,0 -0.232039,0.138728 -0.462548,0.274778 -0.71875,0.375 0.301527,-0.0968 0.596455,-0.204138 0.875,-0.34375 0.55709,-0.279224 1.060053,-0.665694 1.5,-1.09375 0.219973,-0.214028 0.409366,-0.441865 0.59375,-0.6875 0.184384,-0.245635 0.355408,-0.507743 0.5,-0.78125 0.14012,-0.265048 0.276135,-0.524729 0.375,-0.8125 0.01041,-0.03078 0.02133,-0.06274 0.03125,-0.09375 0.09046,-0.278085 0.1388,-0.579404 0.1875,-0.875 C 89.95865,84.6507 90,84.334721 90,84 l 0,-2 0,-68 0,-2 C 90,8.676 87.324,6 84,6 L 12,6 z"
       id="rect3728"
       style="opacity:0.5;fill:url(#linearGradient3188);fill-opacity:1;fill-rule:nonzero;stroke:none" />
    <path
       d="M 12,90 C 8.676,90 6,87.324 6,84 L 6,82 6,14 6,12 c 0,-0.334721 0.04135,-0.6507 0.09375,-0.96875 0.0487,-0.295596 0.09704,-0.596915 0.1875,-0.875 C 6.29113,10.12587 6.302142,10.09265 6.3125,10.0625 6.411365,9.774729 6.5473802,9.515048 6.6875,9.25 6.8320918,8.976493 7.0031161,8.714385 7.1875,8.46875 7.3718839,8.223115 7.5612765,7.995278 7.78125,7.78125 8.221197,7.353194 8.72416,6.966724 9.28125,6.6875 9.559795,6.547888 9.8547231,6.440553 10.15625,6.34375 9.9000482,6.443972 9.6695391,6.580022 9.4375,6.71875 c -0.00741,0.0044 -0.023866,-0.0045 -0.03125,0 -0.031933,0.0193 -0.062293,0.04251 -0.09375,0.0625 -0.120395,0.0767 -0.2310226,0.163513 -0.34375,0.25 -0.1061728,0.0808 -0.2132809,0.161112 -0.3125,0.25 C 8.4783201,7.442683 8.3087904,7.626638 8.15625,7.8125 8.0486711,7.942755 7.9378561,8.077785 7.84375,8.21875 7.818661,8.25713 7.805304,8.30462 7.78125,8.34375 7.716487,8.446782 7.6510225,8.548267 7.59375,8.65625 7.4927417,8.850956 7.3880752,9.071951 7.3125,9.28125 7.30454,9.30306 7.288911,9.3218 7.28125,9.34375 7.2494249,9.4357 7.2454455,9.530581 7.21875,9.625 7.1884177,9.731618 7.1483606,9.828031 7.125,9.9375 7.0521214,10.279012 7,10.635705 7,11 l 0,2 0,68 0,2 c 0,2.781848 2.2181517,5 5,5 l 2,0 68,0 2,0 c 2.781848,0 5,-2.218152 5,-5 l 0,-2 0,-68 0,-2 C 89,10.635705 88.94788,10.279012 88.875,9.9375 88.83085,9.730607 88.78662,9.539842 88.71875,9.34375 88.71105,9.3218 88.69545,9.30306 88.6875,9.28125 88.62476,9.107511 88.549117,8.913801 88.46875,8.75 88.42717,8.6672 88.38971,8.580046 88.34375,8.5 88.28915,8.40279 88.216976,8.31165 88.15625,8.21875 88.06214,8.077785 87.951329,7.942755 87.84375,7.8125 87.700576,7.63805 87.540609,7.465502 87.375,7.3125 87.36383,7.3023 87.35502,7.29135 87.34375,7.28125 87.205364,7.155694 87.058659,7.046814 86.90625,6.9375 86.803679,6.86435 86.701932,6.784136 86.59375,6.71875 c -0.0074,-0.0045 -0.02384,0.0044 -0.03125,0 -0.232039,-0.138728 -0.462548,-0.274778 -0.71875,-0.375 0.301527,0.0968 0.596455,0.204138 0.875,0.34375 0.55709,0.279224 1.060053,0.665694 1.5,1.09375 0.219973,0.214028 0.409366,0.441865 0.59375,0.6875 0.184384,0.245635 0.355408,0.507743 0.5,0.78125 0.14012,0.265048 0.276135,0.524729 0.375,0.8125 0.01041,0.03078 0.02133,0.06274 0.03125,0.09375 0.09046,0.278085 0.1388,0.579404 0.1875,0.875 C 89.95865,11.3493 90,11.665279 90,12 l 0,2 0,68 0,2 c 0,3.324 -2.676,6 -6,6 l -72,0 z"
       id="path3615"
       style="opacity:0.2;fill:url(#radialGradient3619);fill-opacity:1;fill-rule:nonzero;stroke:none" />
    <rect
       width="74"
       height="60"
       x="11"
       y="23"
       id="rect3674"
       style="opacity:0.98999999;color:#000000;fill:url(#linearGradient3684);fill-opacity:1;fill-rule:nonzero;stroke:none;stroke-width:1.5;marker:none;visibility:visible;display:inline;overflow:visible;enable-background:accumulate" />
    <rect
       width="72"
       height="58"
       x="12"
       y="24"
       id="rect3676"
       style="opacity:0.98999999;color:#000000;fill:#ffffff;fill-opacity:1;fill-rule:nonzero;stroke:none;stroke-width:1.5;marker:none;visibility:visible;display:inline;overflow:visible;enable-background:accumulate" />
    <g
       transform="matrix(0.64183214,0,0,0.64183214,18.906417,6.8593268)"
       id="g3715"
       style="font-size:8px;font-style:normal;font-variant:normal;font-weight:bold;font-stretch:normal;text-align:start;line-height:125%;writing-mode:lr-tb;text-anchor:start;fill:#f9f9f9;fill-opacity:1;stroke:none;font-family:Droid Sans;-inkscape-font-specification:Abandoned Bitplane Bold">
      <path
         d="m 19.026227,14.949776 c -4e-6,0.255209 -0.04427,0.485678 -0.132813,0.691406 -0.08594,0.203126 -0.213545,0.377605 -0.382812,0.523437 -0.16667,0.14323 -0.372399,0.253907 -0.617188,0.332032 -0.242189,0.07813 -0.520835,0.117187 -0.835937,0.117187 -0.276043,0 -0.54297,-0.02865 -0.800781,-0.08594 -0.255209,-0.05729 -0.492188,-0.143229 -0.710938,-0.257813 l 0,-1.125 c 0.125,0.0599 0.251302,0.118491 0.378906,0.175781 0.127604,0.05469 0.25651,0.104168 0.386719,0.148438 0.132811,0.04427 0.264322,0.07943 0.394531,0.105469 0.132811,0.02604 0.264322,0.03906 0.394532,0.03906 0.13281,1e-6 0.246091,-0.01432 0.339843,-0.04297 0.09635,-0.03125 0.173175,-0.07292 0.230469,-0.125 0.05989,-0.05469 0.102862,-0.118488 0.128906,-0.191406 0.02864,-0.07552 0.04297,-0.15755 0.04297,-0.246094 -2e-6,-0.106769 -0.02344,-0.200519 -0.07031,-0.28125 -0.04427,-0.08333 -0.108076,-0.160154 -0.191407,-0.230468 -0.08073,-0.07292 -0.179689,-0.143227 -0.296875,-0.210938 -0.114585,-0.06771 -0.243491,-0.13932 -0.386718,-0.214844 -0.119794,-0.0625 -0.253908,-0.138018 -0.402344,-0.226562 -0.148439,-0.08854 -0.289064,-0.197914 -0.421875,-0.328125 -0.130209,-0.132809 -0.239584,-0.291663 -0.328125,-0.476563 -0.08854,-0.187496 -0.132813,-0.411454 -0.132813,-0.671875 0,-0.255203 0.04167,-0.483068 0.125,-0.683593 0.08594,-0.20312 0.207031,-0.373693 0.363282,-0.511719 0.156249,-0.14062 0.345051,-0.24739 0.566406,-0.320313 0.223957,-0.07291 0.473956,-0.109369 0.75,-0.109375 0.138018,6e-6 0.272133,0.0091 0.402344,0.02734 0.132809,0.01824 0.263018,0.04428 0.390625,0.07813 0.130205,0.03386 0.260413,0.07553 0.390625,0.125 0.130205,0.04949 0.264319,0.106776 0.402343,0.171875 l -0.390625,0.941406 c -0.11719,-0.05468 -0.226565,-0.10286 -0.328125,-0.144531 -0.101565,-0.04166 -0.200523,-0.07682 -0.296875,-0.105469 -0.09636,-0.02864 -0.191408,-0.04947 -0.285156,-0.0625 -0.09115,-0.01562 -0.183596,-0.02343 -0.277344,-0.02344 -0.203127,5e-6 -0.359376,0.05469 -0.46875,0.164062 -0.106772,0.106776 -0.160157,0.250005 -0.160156,0.429688 -10e-7,0.09636 0.01562,0.182296 0.04687,0.257812 0.03385,0.07292 0.08594,0.141931 0.15625,0.207032 0.07292,0.06511 0.165363,0.131514 0.277344,0.199218 0.114581,0.06771 0.252602,0.144535 0.414062,0.230469 0.19531,0.10417 0.374998,0.210941 0.539063,0.320313 0.164059,0.106773 0.304684,0.226565 0.421875,0.359375 0.119788,0.130211 0.212236,0.278648 0.277344,0.445312 0.0651,0.166669 0.09765,0.361981 0.09766,0.585938"
         id="path3717"
         style="fill:#f9f9f9" />
      <path
         d="m 19.366071,12.168526 1.304687,0 0.703125,2.457031 c 0.04167,0.135418 0.07161,0.279949 0.08984,0.433594 0.02083,0.153647 0.03385,0.291668 0.03906,0.414062 l 0.02344,0 c 0.0052,-0.05989 0.01172,-0.126301 0.01953,-0.199219 0.01042,-0.07292 0.02213,-0.147134 0.03516,-0.222656 0.01302,-0.07552 0.02734,-0.149738 0.04297,-0.222656 0.01823,-0.07552 0.03646,-0.143227 0.05469,-0.203125 l 0.6875,-2.457031 1.3125,0 -1.726563,4.925781 c -0.161461,0.460936 -0.381512,0.803384 -0.660156,1.027344 -0.278647,0.223956 -0.627605,0.335935 -1.046875,0.335937 -0.135417,-2e-6 -0.252605,-0.0078 -0.351563,-0.02344 -0.09896,-0.01302 -0.183594,-0.02735 -0.253906,-0.04297 l 0,-0.945313 c 0.05469,0.01302 0.123698,0.02474 0.207031,0.03516 0.08333,0.01041 0.170573,0.01562 0.261719,0.01563 0.124999,-1e-6 0.23177,-0.01693 0.320313,-0.05078 0.08854,-0.03385 0.164061,-0.08203 0.226562,-0.144531 0.0651,-0.0599 0.119791,-0.132813 0.164063,-0.21875 0.04687,-0.08594 0.08724,-0.182292 0.121093,-0.289062 l 0.07422,-0.21875 -1.648437,-4.40625"
         id="path3719"
         style="fill:#f9f9f9" />
      <path
         d="m 27.213727,15.238838 c -4e-6,0.229168 -0.04167,0.429689 -0.125,0.601563 -0.08334,0.171875 -0.201826,0.315104 -0.355469,0.429687 -0.153648,0.114584 -0.339846,0.200521 -0.558594,0.257813 -0.218752,0.05729 -0.463543,0.08594 -0.734375,0.08594 -0.14323,0 -0.276043,-0.0052 -0.398437,-0.01563 -0.122397,-0.0078 -0.238282,-0.02214 -0.347656,-0.04297 -0.109376,-0.02083 -0.214845,-0.04687 -0.316407,-0.07813 -0.101563,-0.03125 -0.204427,-0.07031 -0.308593,-0.117187 l 0,-0.984375 c 0.109374,0.05469 0.223957,0.104168 0.34375,0.148437 0.122395,0.04427 0.243488,0.08333 0.363281,0.117188 0.11979,0.03125 0.235676,0.05599 0.347656,0.07422 0.114582,0.01823 0.220051,0.02734 0.316406,0.02734 0.106769,10e-7 0.197915,-0.0091 0.273438,-0.02734 0.07552,-0.02083 0.136717,-0.04818 0.183594,-0.08203 0.04948,-0.03646 0.08463,-0.07812 0.105468,-0.125 0.02344,-0.04948 0.03515,-0.101561 0.03516,-0.15625 -3e-6,-0.05469 -0.0091,-0.102863 -0.02734,-0.144531 -0.01563,-0.04427 -0.05339,-0.08984 -0.113281,-0.136719 -0.0599,-0.04948 -0.14844,-0.104165 -0.265625,-0.164062 -0.114585,-0.0625 -0.269533,-0.138019 -0.464844,-0.226563 -0.190105,-0.08593 -0.35547,-0.17057 -0.496094,-0.253906 -0.138021,-0.08593 -0.252605,-0.180987 -0.34375,-0.285156 -0.08854,-0.104164 -0.154948,-0.222654 -0.199219,-0.355469 -0.04427,-0.135414 -0.06641,-0.29557 -0.06641,-0.480469 0,-0.203121 0.03906,-0.380204 0.117188,-0.53125 0.07812,-0.153641 0.188801,-0.281246 0.332031,-0.382812 0.143228,-0.101558 0.315103,-0.177079 0.515625,-0.226563 0.203123,-0.05208 0.428384,-0.07812 0.675781,-0.07813 0.260415,5e-6 0.50781,0.02995 0.742188,0.08984 0.234372,0.0599 0.475257,0.149744 0.722656,0.269531 l -0.359375,0.84375 c -0.19792,-0.09375 -0.386721,-0.170569 -0.566406,-0.230468 -0.17969,-0.05989 -0.359377,-0.08984 -0.539063,-0.08984 -0.16146,4e-6 -0.278647,0.02865 -0.351562,0.08594 -0.07031,0.0573 -0.105471,0.13542 -0.105469,0.234375 -2e-6,0.05209 0.0091,0.09896 0.02734,0.140625 0.01823,0.03907 0.05469,0.08073 0.109375,0.125 0.05468,0.04167 0.131508,0.08854 0.230468,0.140625 0.09896,0.04948 0.227863,0.11068 0.386719,0.183594 0.184894,0.08073 0.35156,0.161461 0.5,0.242188 0.148435,0.07813 0.276039,0.167971 0.382813,0.269531 0.106767,0.101564 0.188798,0.220054 0.246093,0.355469 0.05729,0.135418 0.08593,0.29948 0.08594,0.492187"
         id="path3721"
         style="fill:#f9f9f9" />
      <path
         d="m 29.920758,15.664619 c 0.117185,10e-7 0.227862,-0.01302 0.332031,-0.03906 0.106768,-0.02604 0.214841,-0.05859 0.324219,-0.09766 l 0,0.886718 c -0.111982,0.05729 -0.251305,0.104167 -0.417969,0.140625 -0.164064,0.03906 -0.343752,0.05859 -0.539062,0.05859 -0.190106,0 -0.367189,-0.02214 -0.53125,-0.06641 -0.164064,-0.04427 -0.305991,-0.121094 -0.425781,-0.230469 -0.119793,-0.111979 -0.214845,-0.260416 -0.285157,-0.445312 -0.06771,-0.187499 -0.101563,-0.421874 -0.101562,-0.703125 l 0,-2.105469 -0.570313,0 0,-0.503906 0.65625,-0.398438 0.34375,-0.921875 0.761719,0 0,0.929688 1.0625,0 0,0.894531 -1.0625,0 0,2.105469 c -2e-6,0.169272 0.04167,0.294272 0.125,0.375 0.08333,0.08073 0.192706,0.121094 0.328125,0.121093"
         id="path3723"
         style="fill:#f9f9f9" />
      <path
         d="m 33.225446,12.934151 c -0.21094,3e-6 -0.386721,0.07422 -0.527344,0.222656 -0.138023,0.148441 -0.21745,0.381513 -0.238281,0.699219 l 1.519531,0 c -0.0026,-0.13281 -0.01953,-0.255206 -0.05078,-0.367188 -0.03125,-0.111976 -0.07813,-0.20833 -0.140625,-0.289062 -0.0625,-0.08333 -0.140628,-0.148434 -0.234375,-0.195313 -0.09375,-0.04687 -0.203128,-0.07031 -0.328125,-0.07031 m 0.152343,3.679687 c -0.312502,0 -0.600262,-0.04557 -0.863281,-0.136719 -0.263022,-0.09114 -0.489584,-0.227864 -0.679687,-0.410156 -0.190105,-0.184895 -0.338543,-0.416666 -0.445313,-0.695312 -0.104167,-0.281249 -0.15625,-0.610676 -0.15625,-0.988282 0,-0.38281 0.04818,-0.717445 0.144531,-1.003906 0.09635,-0.286455 0.230468,-0.524736 0.402344,-0.714844 0.174478,-0.192704 0.382811,-0.337235 0.625,-0.433593 0.24479,-0.09635 0.515623,-0.144527 0.8125,-0.144532 0.28906,5e-6 0.549476,0.04428 0.78125,0.132813 0.234372,0.08594 0.432288,0.213546 0.59375,0.382812 0.164059,0.169275 0.289059,0.377608 0.375,0.625 0.08854,0.244795 0.132808,0.526045 0.132813,0.84375 l 0,0.578125 -2.664063,0 c 0.0052,0.166669 0.03125,0.31771 0.07813,0.453125 0.04948,0.132814 0.117186,0.246095 0.203125,0.339844 0.08854,0.09115 0.194009,0.161459 0.316406,0.210938 0.124998,0.04948 0.266925,0.07422 0.425782,0.07422 0.132809,10e-7 0.257809,-0.0065 0.375,-0.01953 0.119788,-0.01562 0.235674,-0.03776 0.347656,-0.06641 0.111976,-0.02865 0.222653,-0.0638 0.332031,-0.105469 0.109371,-0.04427 0.221351,-0.09505 0.335938,-0.152344 l 0,0.921875 c -0.104171,0.05469 -0.209639,0.101563 -0.316407,0.140625 -0.10417,0.03646 -0.214847,0.06771 -0.332031,0.09375 -0.117191,0.02604 -0.243492,0.04427 -0.378906,0.05469 -0.13542,0.01302 -0.283857,0.01953 -0.445313,0.01953"
         id="path3725"
         style="fill:#f9f9f9" />
      <path
         d="m 39.866071,16.535713 -1.191407,0 0,-2.550781 c -3e-6,-0.315101 -0.04688,-0.550778 -0.140625,-0.707031 -0.09375,-0.158851 -0.240888,-0.238278 -0.441406,-0.238282 -0.151044,4e-6 -0.277346,0.03125 -0.378906,0.09375 -0.09896,0.0625 -0.178387,0.154952 -0.238281,0.277344 -0.0599,0.122399 -0.102867,0.273441 -0.128907,0.453125 -0.02604,0.17969 -0.03906,0.385419 -0.03906,0.617188 l 0,2.054687 -1.191406,0 0,-4.367187 0.910156,0 0.160156,0.558593 0.06641,0 c 0.0625,-0.111975 0.136717,-0.208329 0.222657,-0.289062 0.08854,-0.08073 0.184893,-0.147131 0.289062,-0.199219 0.104165,-0.05208 0.214842,-0.08984 0.332031,-0.113281 0.117185,-0.02604 0.235675,-0.03906 0.355469,-0.03906 0.299476,5e-6 0.553382,0.05209 0.761719,0.15625 0.210934,0.101567 0.372392,0.263025 0.484375,0.484375 l 0.09766,0 c 0.0625,-0.111975 0.138017,-0.208329 0.226563,-0.289062 0.08854,-0.08073 0.186193,-0.147131 0.292968,-0.199219 0.106766,-0.05208 0.218745,-0.08984 0.335938,-0.113281 0.119786,-0.02604 0.239578,-0.03906 0.359375,-0.03906 0.468744,5e-6 0.821608,0.127609 1.058594,0.382813 0.239576,0.252608 0.359368,0.658858 0.359375,1.21875 l 0,2.847656 -1.195313,0 0,-2.550781 c -5e-6,-0.315101 -0.04688,-0.550778 -0.140625,-0.707031 -0.09376,-0.158851 -0.240891,-0.238278 -0.441406,-0.238282 -0.283859,4e-6 -0.485682,0.113285 -0.605469,0.339844 -0.119796,0.223961 -0.179692,0.545576 -0.179687,0.964844 l 0,2.191406"
         id="path3727"
         style="fill:#f9f9f9" />
      <path
         d="m 49.061383,16.535713 -0.335937,-1.527344 c -0.01042,-0.04427 -0.02474,-0.106769 -0.04297,-0.1875 -0.01563,-0.08333 -0.03386,-0.175779 -0.05469,-0.277343 -0.02084,-0.104165 -0.04297,-0.21354 -0.06641,-0.328125 -0.02084,-0.117185 -0.04297,-0.233071 -0.06641,-0.347657 -0.05209,-0.268226 -0.109378,-0.557288 -0.171875,-0.867187 l -0.02344,0 c -0.0599,0.309899 -0.114586,0.600263 -0.164062,0.871094 -0.02084,0.114586 -0.04297,0.230471 -0.06641,0.347656 -0.02084,0.11719 -0.04167,0.227867 -0.0625,0.332031 -0.02084,0.101565 -0.04037,0.194012 -0.05859,0.277344 -0.01563,0.08333 -0.02865,0.148439 -0.03906,0.195312 l -0.351562,1.511719 -1.28125,0 -1.175781,-4.367187 1.183593,0 0.441407,1.933593 c 0.02344,0.101565 0.04687,0.223961 0.07031,0.367188 0.02604,0.140627 0.04948,0.283856 0.07031,0.429687 0.02343,0.143231 0.04427,0.27995 0.0625,0.410157 0.01823,0.127605 0.03255,0.229167 0.04297,0.304687 l 0.02344,0 c 0.0026,-0.04948 0.0078,-0.11328 0.01563,-0.191406 0.01042,-0.08073 0.02213,-0.166665 0.03516,-0.257813 0.01302,-0.09114 0.02604,-0.183592 0.03906,-0.277343 0.01562,-0.09635 0.02995,-0.186196 0.04297,-0.269532 0.01562,-0.08333 0.02864,-0.156247 0.03906,-0.21875 0.01302,-0.0651 0.02343,-0.110674 0.03125,-0.136718 l 0.476562,-2.09375 1.3125,0 0.457032,2.09375 c 0.01302,0.05729 0.02994,0.145835 0.05078,0.265625 0.02083,0.119793 0.04166,0.248699 0.0625,0.386718 0.02343,0.135419 0.04296,0.268231 0.05859,0.398438 0.01562,0.127605 0.02473,0.227866 0.02734,0.300781 l 0.02344,0 c 0.0078,-0.0651 0.02083,-0.161457 0.03906,-0.289062 0.02083,-0.127603 0.04297,-0.264322 0.06641,-0.410157 0.02343,-0.148435 0.04817,-0.295571 0.07422,-0.441406 0.02864,-0.145831 0.05468,-0.269529 0.07813,-0.371094 l 0.457032,-1.933593 1.167968,0 -1.191406,4.367187 -1.296875,0"
         id="path3729"
         style="fill:#f9f9f9" />
      <path
         d="m 52.127789,11.039619 c 0,-0.111973 0.01693,-0.204421 0.05078,-0.277343 0.03385,-0.07551 0.07943,-0.135411 0.136718,-0.179688 0.0599,-0.04687 0.128906,-0.07942 0.207032,-0.09766 0.08073,-0.01822 0.165363,-0.02734 0.253906,-0.02734 0.08854,6e-6 0.171874,0.0091 0.25,0.02734 0.07812,0.01823 0.145832,0.05079 0.203125,0.09766 0.05989,0.04428 0.106769,0.104173 0.140625,0.179688 0.03646,0.07292 0.05469,0.16537 0.05469,0.277343 -10e-7,0.109381 -0.01823,0.201829 -0.05469,0.277344 -0.03386,0.07553 -0.08073,0.136724 -0.140625,0.183594 -0.05729,0.04428 -0.125002,0.07683 -0.203125,0.09766 -0.07813,0.01823 -0.16146,0.02735 -0.25,0.02734 -0.08854,5e-6 -0.173178,-0.0091 -0.253906,-0.02734 -0.07813,-0.02083 -0.147136,-0.05338 -0.207032,-0.09766 -0.05729,-0.04687 -0.102865,-0.108068 -0.136718,-0.183594 -0.03385,-0.07551 -0.05078,-0.167963 -0.05078,-0.277344 m 1.242188,5.496094 -1.191406,0 0,-4.367187 1.191406,0 0,4.367187"
         id="path3731"
         style="fill:#f9f9f9" />
      <path
         d="m 58.405133,16.535713 -1.191406,0 0,-2.550781 c -3e-6,-0.315101 -0.04818,-0.550778 -0.144531,-0.707031 -0.09375,-0.158851 -0.244795,-0.238278 -0.453125,-0.238282 -0.156253,4e-6 -0.286461,0.03125 -0.390625,0.09375 -0.104169,0.0625 -0.187502,0.154952 -0.25,0.277344 -0.0599,0.122399 -0.102867,0.273441 -0.128907,0.453125 -0.02604,0.17969 -0.03906,0.385419 -0.03906,0.617188 l 0,2.054687 -1.191406,0 0,-4.367187 0.910156,0 0.160156,0.558593 0.06641,0 c 0.0625,-0.111975 0.138019,-0.208329 0.226563,-0.289062 0.09114,-0.08073 0.190102,-0.147131 0.296875,-0.199219 0.106768,-0.05208 0.22005,-0.08984 0.339844,-0.113281 0.119789,-0.02604 0.242184,-0.03906 0.367187,-0.03906 0.213539,5e-6 0.407549,0.03125 0.582031,0.09375 0.174476,0.0599 0.324215,0.154953 0.449219,0.285157 0.124996,0.130212 0.22135,0.296878 0.289063,0.5 0.0677,0.200524 0.101558,0.441409 0.101562,0.722656 l 0,2.847656"
         id="path3733"
         style="fill:#f9f9f9" />
      <path
         d="m 60.916852,16.613838 c -0.22396,0 -0.428387,-0.04818 -0.613281,-0.144531 -0.184897,-0.09635 -0.343751,-0.238281 -0.476563,-0.425781 -0.132813,-0.190104 -0.23698,-0.425781 -0.3125,-0.707032 -0.07292,-0.281248 -0.109375,-0.606769 -0.109375,-0.976562 0,-0.374998 0.03646,-0.703122 0.109375,-0.984375 0.07552,-0.283851 0.180989,-0.52083 0.316406,-0.710938 0.13802,-0.192704 0.302083,-0.337235 0.492188,-0.433593 0.190103,-0.09635 0.399738,-0.144527 0.628906,-0.144532 0.140623,5e-6 0.269529,0.01693 0.386719,0.05078 0.117185,0.03125 0.222654,0.07683 0.316406,0.136718 0.09375,0.0573 0.177081,0.125005 0.25,0.203125 0.07552,0.07553 0.141924,0.158859 0.199219,0.25 l 0.03906,0 c -0.01563,-0.101558 -0.02995,-0.204423 -0.04297,-0.308593 -0.01302,-0.08854 -0.02474,-0.182288 -0.03516,-0.28125 -0.0078,-0.101558 -0.01172,-0.195308 -0.01172,-0.28125 l 0,-1.398438 1.191406,0 0,6.078125 -0.910156,0 -0.230469,-0.566406 -0.05078,0 c -0.05469,0.08854 -0.117191,0.173177 -0.1875,0.253906 -0.07032,0.07813 -0.152347,0.145834 -0.246094,0.203125 -0.09115,0.05729 -0.195315,0.102865 -0.3125,0.136719 -0.114586,0.03385 -0.244794,0.05078 -0.390625,0.05078 m 0.433594,-0.949219 c 0.140622,10e-7 0.260414,-0.02344 0.359375,-0.07031 0.09896,-0.04948 0.178382,-0.122395 0.238281,-0.21875 0.0625,-0.09896 0.10807,-0.221353 0.136719,-0.367188 0.03125,-0.145831 0.04817,-0.316404 0.05078,-0.511718 l 0,-0.128907 c -3e-6,-0.210935 -0.01302,-0.398434 -0.03906,-0.5625 -0.02604,-0.164059 -0.06901,-0.300778 -0.128906,-0.410156 -0.0599,-0.111976 -0.140628,-0.196611 -0.242187,-0.253906 -0.101565,-0.05729 -0.229169,-0.08593 -0.382813,-0.08594 -0.250002,4e-6 -0.433595,0.113285 -0.550781,0.339844 -0.117189,0.223961 -0.175783,0.550784 -0.175781,0.980469 -2e-6,0.429689 0.05859,0.752606 0.175781,0.96875 0.11979,0.213543 0.305987,0.320313 0.558594,0.320312"
         id="path3735"
         style="fill:#f9f9f9" />
      <path
         d="m 65.483258,14.344307 c -1e-6,0.434898 0.0612,0.763022 0.183594,0.984375 0.122394,0.218751 0.321612,0.328126 0.597656,0.328125 0.273435,10e-7 0.471352,-0.110676 0.59375,-0.332031 0.122393,-0.221353 0.183591,-0.548176 0.183594,-0.980469 -3e-6,-0.434893 -0.0612,-0.759112 -0.183594,-0.972656 -0.122398,-0.216143 -0.322919,-0.324216 -0.601562,-0.324219 -0.27344,3e-6 -0.471356,0.108076 -0.59375,0.324219 -0.119794,0.213544 -0.179689,0.537763 -0.179688,0.972656 m 2.773438,0 c -5e-6,0.364585 -0.04688,0.687501 -0.140625,0.96875 -0.09115,0.281251 -0.223963,0.51823 -0.398438,0.710937 -0.171878,0.192709 -0.382816,0.339844 -0.632812,0.441407 -0.247399,0.09896 -0.526045,0.148437 -0.835938,0.148437 -0.289064,0 -0.554689,-0.04948 -0.796875,-0.148437 -0.242189,-0.101563 -0.451824,-0.248698 -0.628906,-0.441407 -0.17448,-0.192707 -0.311199,-0.429686 -0.410156,-0.710937 -0.09896,-0.281249 -0.148438,-0.604165 -0.148438,-0.96875 0,-0.361977 0.04557,-0.683591 0.136719,-0.964844 0.09375,-0.281246 0.226562,-0.516923 0.398437,-0.707031 0.174479,-0.192704 0.385416,-0.338538 0.632813,-0.4375 0.247394,-0.09895 0.527342,-0.148433 0.839844,-0.148438 0.28906,5e-6 0.554684,0.04948 0.796875,0.148438 0.242184,0.09896 0.450517,0.244796 0.625,0.4375 0.177079,0.190108 0.3151,0.425785 0.414062,0.707031 0.09895,0.281253 0.148433,0.602867 0.148438,0.964844"
         id="path3737"
         style="fill:#f9f9f9" />
      <path
         d="m 72.623883,16.535713 -0.335937,-1.527344 c -0.01042,-0.04427 -0.02474,-0.106769 -0.04297,-0.1875 -0.01563,-0.08333 -0.03386,-0.175779 -0.05469,-0.277343 -0.02084,-0.104165 -0.04297,-0.21354 -0.06641,-0.328125 -0.02084,-0.117185 -0.04297,-0.233071 -0.06641,-0.347657 -0.05209,-0.268226 -0.109378,-0.557288 -0.171875,-0.867187 l -0.02344,0 c -0.0599,0.309899 -0.114586,0.600263 -0.164062,0.871094 -0.02084,0.114586 -0.04297,0.230471 -0.06641,0.347656 -0.02084,0.11719 -0.04167,0.227867 -0.0625,0.332031 -0.02084,0.101565 -0.04037,0.194012 -0.05859,0.277344 -0.01563,0.08333 -0.02865,0.148439 -0.03906,0.195312 l -0.351562,1.511719 -1.28125,0 -1.175781,-4.367187 1.183593,0 0.441407,1.933593 c 0.02344,0.101565 0.04687,0.223961 0.07031,0.367188 0.02604,0.140627 0.04948,0.283856 0.07031,0.429687 0.02343,0.143231 0.04427,0.27995 0.0625,0.410157 0.01823,0.127605 0.03255,0.229167 0.04297,0.304687 l 0.02344,0 c 0.0026,-0.04948 0.0078,-0.11328 0.01563,-0.191406 0.01041,-0.08073 0.02213,-0.166665 0.03516,-0.257813 0.01302,-0.09114 0.02604,-0.183592 0.03906,-0.277343 0.01562,-0.09635 0.02995,-0.186196 0.04297,-0.269532 0.01562,-0.08333 0.02864,-0.156247 0.03906,-0.21875 0.01302,-0.0651 0.02343,-0.110674 0.03125,-0.136718 l 0.476562,-2.09375 1.3125,0 0.457032,2.09375 c 0.01302,0.05729 0.02994,0.145835 0.05078,0.265625 0.02083,0.119793 0.04166,0.248699 0.0625,0.386718 0.02343,0.135419 0.04296,0.268231 0.05859,0.398438 0.01562,0.127605 0.02473,0.227866 0.02734,0.300781 l 0.02344,0 c 0.0078,-0.0651 0.02083,-0.161457 0.03906,-0.289062 0.02083,-0.127603 0.04296,-0.264322 0.06641,-0.410157 0.02343,-0.148435 0.04817,-0.295571 0.07422,-0.441406 0.02864,-0.145831 0.05468,-0.269529 0.07813,-0.371094 l 0.457032,-1.933593 1.167968,0 -1.191406,4.367187 -1.296875,0"
         id="path3739"
         style="fill:#f9f9f9" />
    </g>
    <g
       transform="matrix(0.64183214,0,0,0.64183214,18.906417,6.3589584)"
       id="text3686"
       style="font-size:8px;font-style:normal;font-variant:normal;font-weight:bold;font-stretch:normal;text-align:start;line-height:125%;writing-mode:lr-tb;text-anchor:start;fill:#4d4d4d;fill-opacity:1;stroke:none;font-family:Droid Sans;-inkscape-font-specification:Abandoned Bitplane Bold">
      <path
         d="m 19.026227,14.949776 c -4e-6,0.255209 -0.04427,0.485678 -0.132813,0.691406 -0.08594,0.203126 -0.213545,0.377605 -0.382812,0.523437 -0.16667,0.14323 -0.372399,0.253907 -0.617188,0.332032 -0.242189,0.07813 -0.520835,0.117187 -0.835937,0.117187 -0.276043,0 -0.54297,-0.02865 -0.800781,-0.08594 -0.255209,-0.05729 -0.492188,-0.143229 -0.710938,-0.257813 l 0,-1.125 c 0.125,0.0599 0.251302,0.118491 0.378906,0.175781 0.127604,0.05469 0.25651,0.104168 0.386719,0.148438 0.132811,0.04427 0.264322,0.07943 0.394531,0.105469 0.132811,0.02604 0.264322,0.03906 0.394532,0.03906 0.13281,1e-6 0.246091,-0.01432 0.339843,-0.04297 0.09635,-0.03125 0.173175,-0.07292 0.230469,-0.125 0.05989,-0.05469 0.102862,-0.118488 0.128906,-0.191406 0.02864,-0.07552 0.04297,-0.15755 0.04297,-0.246094 -2e-6,-0.106769 -0.02344,-0.200519 -0.07031,-0.28125 -0.04427,-0.08333 -0.108076,-0.160154 -0.191407,-0.230468 -0.08073,-0.07292 -0.179689,-0.143227 -0.296875,-0.210938 -0.114585,-0.06771 -0.243491,-0.13932 -0.386718,-0.214844 -0.119794,-0.0625 -0.253908,-0.138018 -0.402344,-0.226562 -0.148439,-0.08854 -0.289064,-0.197914 -0.421875,-0.328125 -0.130209,-0.132809 -0.239584,-0.291663 -0.328125,-0.476563 -0.08854,-0.187496 -0.132813,-0.411454 -0.132813,-0.671875 0,-0.255203 0.04167,-0.483068 0.125,-0.683593 0.08594,-0.20312 0.207031,-0.373693 0.363282,-0.511719 0.156249,-0.14062 0.345051,-0.24739 0.566406,-0.320313 0.223957,-0.07291 0.473956,-0.109369 0.75,-0.109375 0.138018,6e-6 0.272133,0.0091 0.402344,0.02734 0.132809,0.01824 0.263018,0.04428 0.390625,0.07813 0.130205,0.03386 0.260413,0.07553 0.390625,0.125 0.130205,0.04949 0.264319,0.106776 0.402343,0.171875 l -0.390625,0.941406 c -0.11719,-0.05468 -0.226565,-0.10286 -0.328125,-0.144531 -0.101565,-0.04166 -0.200523,-0.07682 -0.296875,-0.105469 -0.09636,-0.02864 -0.191408,-0.04947 -0.285156,-0.0625 -0.09115,-0.01562 -0.183596,-0.02343 -0.277344,-0.02344 -0.203127,5e-6 -0.359376,0.05469 -0.46875,0.164062 -0.106772,0.106776 -0.160157,0.250005 -0.160156,0.429688 -10e-7,0.09636 0.01562,0.182296 0.04687,0.257812 0.03385,0.07292 0.08594,0.141931 0.15625,0.207032 0.07292,0.06511 0.165363,0.131514 0.277344,0.199218 0.114581,0.06771 0.252602,0.144535 0.414062,0.230469 0.19531,0.10417 0.374998,0.210941 0.539063,0.320313 0.164059,0.106773 0.304684,0.226565 0.421875,0.359375 0.119788,0.130211 0.212236,0.278648 0.277344,0.445312 0.0651,0.166669 0.09765,0.361981 0.09766,0.585938"
         id="path3691" />
      <path
         d="m 19.366071,12.168526 1.304687,0 0.703125,2.457031 c 0.04167,0.135418 0.07161,0.279949 0.08984,0.433594 0.02083,0.153647 0.03385,0.291668 0.03906,0.414062 l 0.02344,0 c 0.0052,-0.05989 0.01172,-0.126301 0.01953,-0.199219 0.01042,-0.07292 0.02213,-0.147134 0.03516,-0.222656 0.01302,-0.07552 0.02734,-0.149738 0.04297,-0.222656 0.01823,-0.07552 0.03646,-0.143227 0.05469,-0.203125 l 0.6875,-2.457031 1.3125,0 -1.726563,4.925781 c -0.161461,0.460936 -0.381512,0.803384 -0.660156,1.027344 -0.278647,0.223956 -0.627605,0.335935 -1.046875,0.335937 -0.135417,-2e-6 -0.252605,-0.0078 -0.351563,-0.02344 -0.09896,-0.01302 -0.183594,-0.02735 -0.253906,-0.04297 l 0,-0.945313 c 0.05469,0.01302 0.123698,0.02474 0.207031,0.03516 0.08333,0.01041 0.170573,0.01562 0.261719,0.01563 0.124999,-1e-6 0.23177,-0.01693 0.320313,-0.05078 0.08854,-0.03385 0.164061,-0.08203 0.226562,-0.144531 0.0651,-0.0599 0.119791,-0.132813 0.164063,-0.21875 0.04687,-0.08594 0.08724,-0.182292 0.121093,-0.289062 l 0.07422,-0.21875 -1.648437,-4.40625"
         id="path3693" />
      <path
         d="m 27.213727,15.238838 c -4e-6,0.229168 -0.04167,0.429689 -0.125,0.601563 -0.08334,0.171875 -0.201826,0.315104 -0.355469,0.429687 -0.153648,0.114584 -0.339846,0.200521 -0.558594,0.257813 -0.218752,0.05729 -0.463543,0.08594 -0.734375,0.08594 -0.14323,0 -0.276043,-0.0052 -0.398437,-0.01563 -0.122397,-0.0078 -0.238282,-0.02214 -0.347656,-0.04297 -0.109376,-0.02083 -0.214845,-0.04687 -0.316407,-0.07813 -0.101563,-0.03125 -0.204427,-0.07031 -0.308593,-0.117187 l 0,-0.984375 c 0.109374,0.05469 0.223957,0.104168 0.34375,0.148437 0.122395,0.04427 0.243488,0.08333 0.363281,0.117188 0.11979,0.03125 0.235676,0.05599 0.347656,0.07422 0.114582,0.01823 0.220051,0.02734 0.316406,0.02734 0.106769,10e-7 0.197915,-0.0091 0.273438,-0.02734 0.07552,-0.02083 0.136717,-0.04818 0.183594,-0.08203 0.04948,-0.03646 0.08463,-0.07812 0.105468,-0.125 0.02344,-0.04948 0.03515,-0.101561 0.03516,-0.15625 -3e-6,-0.05469 -0.0091,-0.102863 -0.02734,-0.144531 -0.01563,-0.04427 -0.05339,-0.08984 -0.113281,-0.136719 -0.0599,-0.04948 -0.14844,-0.104165 -0.265625,-0.164062 -0.114585,-0.0625 -0.269533,-0.138019 -0.464844,-0.226563 -0.190105,-0.08593 -0.35547,-0.17057 -0.496094,-0.253906 -0.138021,-0.08593 -0.252605,-0.180987 -0.34375,-0.285156 -0.08854,-0.104164 -0.154948,-0.222654 -0.199219,-0.355469 -0.04427,-0.135414 -0.06641,-0.29557 -0.06641,-0.480469 0,-0.203121 0.03906,-0.380204 0.117188,-0.53125 0.07812,-0.153641 0.188801,-0.281246 0.332031,-0.382812 0.143228,-0.101558 0.315103,-0.177079 0.515625,-0.226563 0.203123,-0.05208 0.428384,-0.07812 0.675781,-0.07813 0.260415,5e-6 0.50781,0.02995 0.742188,0.08984 0.234372,0.0599 0.475257,0.149744 0.722656,0.269531 l -0.359375,0.84375 c -0.19792,-0.09375 -0.386721,-0.170569 -0.566406,-0.230468 -0.17969,-0.05989 -0.359377,-0.08984 -0.539063,-0.08984 -0.16146,4e-6 -0.278647,0.02865 -0.351562,0.08594 -0.07031,0.0573 -0.105471,0.13542 -0.105469,0.234375 -2e-6,0.05209 0.0091,0.09896 0.02734,0.140625 0.01823,0.03907 0.05469,0.08073 0.109375,0.125 0.05468,0.04167 0.131508,0.08854 0.230468,0.140625 0.09896,0.04948 0.227863,0.11068 0.386719,0.183594 0.184894,0.08073 0.35156,0.161461 0.5,0.242188 0.148435,0.07813 0.276039,0.167971 0.382813,0.269531 0.106767,0.101564 0.188798,0.220054 0.246093,0.355469 0.05729,0.135418 0.08593,0.29948 0.08594,0.492187"
         id="path3695" />
      <path
         d="m 29.920758,15.664619 c 0.117185,10e-7 0.227862,-0.01302 0.332031,-0.03906 0.106768,-0.02604 0.214841,-0.05859 0.324219,-0.09766 l 0,0.886718 c -0.111982,0.05729 -0.251305,0.104167 -0.417969,0.140625 -0.164064,0.03906 -0.343752,0.05859 -0.539062,0.05859 -0.190106,0 -0.367189,-0.02214 -0.53125,-0.06641 -0.164064,-0.04427 -0.305991,-0.121094 -0.425781,-0.230469 -0.119793,-0.111979 -0.214845,-0.260416 -0.285157,-0.445312 -0.06771,-0.187499 -0.101563,-0.421874 -0.101562,-0.703125 l 0,-2.105469 -0.570313,0 0,-0.503906 0.65625,-0.398438 0.34375,-0.921875 0.761719,0 0,0.929688 1.0625,0 0,0.894531 -1.0625,0 0,2.105469 c -2e-6,0.169272 0.04167,0.294272 0.125,0.375 0.08333,0.08073 0.192706,0.121094 0.328125,0.121093"
         id="path3697" />
      <path
         d="m 33.225446,12.934151 c -0.21094,3e-6 -0.386721,0.07422 -0.527344,0.222656 -0.138023,0.148441 -0.21745,0.381513 -0.238281,0.699219 l 1.519531,0 c -0.0026,-0.13281 -0.01953,-0.255206 -0.05078,-0.367188 -0.03125,-0.111976 -0.07813,-0.20833 -0.140625,-0.289062 -0.0625,-0.08333 -0.140628,-0.148434 -0.234375,-0.195313 -0.09375,-0.04687 -0.203128,-0.07031 -0.328125,-0.07031 m 0.152343,3.679687 c -0.312502,0 -0.600262,-0.04557 -0.863281,-0.136719 -0.263022,-0.09114 -0.489584,-0.227864 -0.679687,-0.410156 -0.190105,-0.184895 -0.338543,-0.416666 -0.445313,-0.695312 -0.104167,-0.281249 -0.15625,-0.610676 -0.15625,-0.988282 0,-0.38281 0.04818,-0.717445 0.144531,-1.003906 0.09635,-0.286455 0.230468,-0.524736 0.402344,-0.714844 0.174478,-0.192704 0.382811,-0.337235 0.625,-0.433593 0.24479,-0.09635 0.515623,-0.144527 0.8125,-0.144532 0.28906,5e-6 0.549476,0.04428 0.78125,0.132813 0.234372,0.08594 0.432288,0.213546 0.59375,0.382812 0.164059,0.169275 0.289059,0.377608 0.375,0.625 0.08854,0.244795 0.132808,0.526045 0.132813,0.84375 l 0,0.578125 -2.664063,0 c 0.0052,0.166669 0.03125,0.31771 0.07813,0.453125 0.04948,0.132814 0.117186,0.246095 0.203125,0.339844 0.08854,0.09115 0.194009,0.161459 0.316406,0.210938 0.124998,0.04948 0.266925,0.07422 0.425782,0.07422 0.132809,10e-7 0.257809,-0.0065 0.375,-0.01953 0.119788,-0.01562 0.235674,-0.03776 0.347656,-0.06641 0.111976,-0.02865 0.222653,-0.0638 0.332031,-0.105469 0.109371,-0.04427 0.221351,-0.09505 0.335938,-0.152344 l 0,0.921875 c -0.104171,0.05469 -0.209639,0.101563 -0.316407,0.140625 -0.10417,0.03646 -0.214847,0.06771 -0.332031,0.09375 -0.117191,0.02604 -0.243492,0.04427 -0.378906,0.05469 -0.13542,0.01302 -0.283857,0.01953 -0.445313,0.01953"
         id="path3699" />
      <path
         d="m 39.866071,16.535713 -1.191407,0 0,-2.550781 c -3e-6,-0.315101 -0.04688,-0.550778 -0.140625,-0.707031 -0.09375,-0.158851 -0.240888,-0.238278 -0.441406,-0.238282 -0.151044,4e-6 -0.277346,0.03125 -0.378906,0.09375 -0.09896,0.0625 -0.178387,0.154952 -0.238281,0.277344 -0.0599,0.122399 -0.102867,0.273441 -0.128907,0.453125 -0.02604,0.17969 -0.03906,0.385419 -0.03906,0.617188 l 0,2.054687 -1.191406,0 0,-4.367187 0.910156,0 0.160156,0.558593 0.06641,0 c 0.0625,-0.111975 0.136717,-0.208329 0.222657,-0.289062 0.08854,-0.08073 0.184893,-0.147131 0.289062,-0.199219 0.104165,-0.05208 0.214842,-0.08984 0.332031,-0.113281 0.117185,-0.02604 0.235675,-0.03906 0.355469,-0.03906 0.299476,5e-6 0.553382,0.05209 0.761719,0.15625 0.210934,0.101567 0.372392,0.263025 0.484375,0.484375 l 0.09766,0 c 0.0625,-0.111975 0.138017,-0.208329 0.226563,-0.289062 0.08854,-0.08073 0.186193,-0.147131 0.292968,-0.199219 0.106766,-0.05208 0.218745,-0.08984 0.335938,-0.113281 0.119786,-0.02604 0.239578,-0.03906 0.359375,-0.03906 0.468744,5e-6 0.821608,0.127609 1.058594,0.382813 0.239576,0.252608 0.359368,0.658858 0.359375,1.21875 l 0,2.847656 -1.195313,0 0,-2.550781 c -5e-6,-0.315101 -0.04688,-0.550778 -0.140625,-0.707031 -0.09376,-0.158851 -0.240891,-0.238278 -0.441406,-0.238282 -0.283859,4e-6 -0.485682,0.113285 -0.605469,0.339844 -0.119796,0.223961 -0.179692,0.545576 -0.179687,0.964844 l 0,2.191406"
         id="path3701" />
      <path
         d="m 49.061383,16.535713 -0.335937,-1.527344 c -0.01042,-0.04427 -0.02474,-0.106769 -0.04297,-0.1875 -0.01563,-0.08333 -0.03386,-0.175779 -0.05469,-0.277343 -0.02084,-0.104165 -0.04297,-0.21354 -0.06641,-0.328125 -0.02084,-0.117185 -0.04297,-0.233071 -0.06641,-0.347657 -0.05209,-0.268226 -0.109378,-0.557288 -0.171875,-0.867187 l -0.02344,0 c -0.0599,0.309899 -0.114586,0.600263 -0.164062,0.871094 -0.02084,0.114586 -0.04297,0.230471 -0.06641,0.347656 -0.02084,0.11719 -0.04167,0.227867 -0.0625,0.332031 -0.02084,0.101565 -0.04037,0.194012 -0.05859,0.277344 -0.01563,0.08333 -0.02865,0.148439 -0.03906,0.195312 l -0.351562,1.511719 -1.28125,0 -1.175781,-4.367187 1.183593,0 0.441407,1.933593 c 0.02344,0.101565 0.04687,0.223961 0.07031,0.367188 0.02604,0.140627 0.04948,0.283856 0.07031,0.429687 0.02343,0.143231 0.04427,0.27995 0.0625,0.410157 0.01823,0.127605 0.03255,0.229167 0.04297,0.304687 l 0.02344,0 c 0.0026,-0.04948 0.0078,-0.11328 0.01563,-0.191406 0.01042,-0.08073 0.02213,-0.166665 0.03516,-0.257813 0.01302,-0.09114 0.02604,-0.183592 0.03906,-0.277343 0.01562,-0.09635 0.02995,-0.186196 0.04297,-0.269532 0.01562,-0.08333 0.02864,-0.156247 0.03906,-0.21875 0.01302,-0.0651 0.02343,-0.110674 0.03125,-0.136718 l 0.476562,-2.09375 1.3125,0 0.457032,2.09375 c 0.01302,0.05729 0.02994,0.145835 0.05078,0.265625 0.02083,0.119793 0.04166,0.248699 0.0625,0.386718 0.02343,0.135419 0.04296,0.268231 0.05859,0.398438 0.01562,0.127605 0.02473,0.227866 0.02734,0.300781 l 0.02344,0 c 0.0078,-0.0651 0.02083,-0.161457 0.03906,-0.289062 0.02083,-0.127603 0.04297,-0.264322 0.06641,-0.410157 0.02343,-0.148435 0.04817,-0.295571 0.07422,-0.441406 0.02864,-0.145831 0.05468,-0.269529 0.07813,-0.371094 l 0.457032,-1.933593 1.167968,0 -1.191406,4.367187 -1.296875,0"
         id="path3703" />
      <path
         d="m 52.127789,11.039619 c 0,-0.111973 0.01693,-0.204421 0.05078,-0.277343 0.03385,-0.07551 0.07943,-0.135411 0.136718,-0.179688 0.0599,-0.04687 0.128906,-0.07942 0.207032,-0.09766 0.08073,-0.01822 0.165363,-0.02734 0.253906,-0.02734 0.08854,6e-6 0.171874,0.0091 0.25,0.02734 0.07812,0.01823 0.145832,0.05079 0.203125,0.09766 0.05989,0.04428 0.106769,0.104173 0.140625,0.179688 0.03646,0.07292 0.05469,0.16537 0.05469,0.277343 -10e-7,0.109381 -0.01823,0.201829 -0.05469,0.277344 -0.03386,0.07553 -0.08073,0.136724 -0.140625,0.183594 -0.05729,0.04428 -0.125002,0.07683 -0.203125,0.09766 -0.07813,0.01823 -0.16146,0.02735 -0.25,0.02734 -0.08854,5e-6 -0.173178,-0.0091 -0.253906,-0.02734 -0.07813,-0.02083 -0.147136,-0.05338 -0.207032,-0.09766 -0.05729,-0.04687 -0.102865,-0.108068 -0.136718,-0.183594 -0.03385,-0.07551 -0.05078,-0.167963 -0.05078,-0.277344 m 1.242188,5.496094 -1.191406,0 0,-4.367187 1.191406,0 0,4.367187"
         id="path3705" />
      <path
         d="m 58.405133,16.535713 -1.191406,0 0,-2.550781 c -3e-6,-0.315101 -0.04818,-0.550778 -0.144531,-0.707031 -0.09375,-0.158851 -0.244795,-0.238278 -0.453125,-0.238282 -0.156253,4e-6 -0.286461,0.03125 -0.390625,0.09375 -0.104169,0.0625 -0.187502,0.154952 -0.25,0.277344 -0.0599,0.122399 -0.102867,0.273441 -0.128907,0.453125 -0.02604,0.17969 -0.03906,0.385419 -0.03906,0.617188 l 0,2.054687 -1.191406,0 0,-4.367187 0.910156,0 0.160156,0.558593 0.06641,0 c 0.0625,-0.111975 0.138019,-0.208329 0.226563,-0.289062 0.09114,-0.08073 0.190102,-0.147131 0.296875,-0.199219 0.106768,-0.05208 0.22005,-0.08984 0.339844,-0.113281 0.119789,-0.02604 0.242184,-0.03906 0.367187,-0.03906 0.213539,5e-6 0.407549,0.03125 0.582031,0.09375 0.174476,0.0599 0.324215,0.154953 0.449219,0.285157 0.124996,0.130212 0.22135,0.296878 0.289063,0.5 0.0677,0.200524 0.101558,0.441409 0.101562,0.722656 l 0,2.847656"
         id="path3707" />
      <path
         d="m 60.916852,16.613838 c -0.22396,0 -0.428387,-0.04818 -0.613281,-0.144531 -0.184897,-0.09635 -0.343751,-0.238281 -0.476563,-0.425781 -0.132813,-0.190104 -0.23698,-0.425781 -0.3125,-0.707032 -0.07292,-0.281248 -0.109375,-0.606769 -0.109375,-0.976562 0,-0.374998 0.03646,-0.703122 0.109375,-0.984375 0.07552,-0.283851 0.180989,-0.52083 0.316406,-0.710938 0.13802,-0.192704 0.302083,-0.337235 0.492188,-0.433593 0.190103,-0.09635 0.399738,-0.144527 0.628906,-0.144532 0.140623,5e-6 0.269529,0.01693 0.386719,0.05078 0.117185,0.03125 0.222654,0.07683 0.316406,0.136718 0.09375,0.0573 0.177081,0.125005 0.25,0.203125 0.07552,0.07553 0.141924,0.158859 0.199219,0.25 l 0.03906,0 c -0.01563,-0.101558 -0.02995,-0.204423 -0.04297,-0.308593 -0.01302,-0.08854 -0.02474,-0.182288 -0.03516,-0.28125 -0.0078,-0.101558 -0.01172,-0.195308 -0.01172,-0.28125 l 0,-1.398438 1.191406,0 0,6.078125 -0.910156,0 -0.230469,-0.566406 -0.05078,0 c -0.05469,0.08854 -0.117191,0.173177 -0.1875,0.253906 -0.07032,0.07813 -0.152347,0.145834 -0.246094,0.203125 -0.09115,0.05729 -0.195315,0.102865 -0.3125,0.136719 -0.114586,0.03385 -0.244794,0.05078 -0.390625,0.05078 m 0.433594,-0.949219 c 0.140622,10e-7 0.260414,-0.02344 0.359375,-0.07031 0.09896,-0.04948 0.178382,-0.122395 0.238281,-0.21875 0.0625,-0.09896 0.10807,-0.221353 0.136719,-0.367188 0.03125,-0.145831 0.04817,-0.316404 0.05078,-0.511718 l 0,-0.128907 c -3e-6,-0.210935 -0.01302,-0.398434 -0.03906,-0.5625 -0.02604,-0.164059 -0.06901,-0.300778 -0.128906,-0.410156 -0.0599,-0.111976 -0.140628,-0.196611 -0.242187,-0.253906 -0.101565,-0.05729 -0.229169,-0.08593 -0.382813,-0.08594 -0.250002,4e-6 -0.433595,0.113285 -0.550781,0.339844 -0.117189,0.223961 -0.175783,0.550784 -0.175781,0.980469 -2e-6,0.429689 0.05859,0.752606 0.175781,0.96875 0.11979,0.213543 0.305987,0.320313 0.558594,0.320312"
         id="path3709" />
      <path
         d="m 65.483258,14.344307 c -1e-6,0.434898 0.0612,0.763022 0.183594,0.984375 0.122394,0.218751 0.321612,0.328126 0.597656,0.328125 0.273435,10e-7 0.471352,-0.110676 0.59375,-0.332031 0.122393,-0.221353 0.183591,-0.548176 0.183594,-0.980469 -3e-6,-0.434893 -0.0612,-0.759112 -0.183594,-0.972656 -0.122398,-0.216143 -0.322919,-0.324216 -0.601562,-0.324219 -0.27344,3e-6 -0.471356,0.108076 -0.59375,0.324219 -0.119794,0.213544 -0.179689,0.537763 -0.179688,0.972656 m 2.773438,0 c -5e-6,0.364585 -0.04688,0.687501 -0.140625,0.96875 -0.09115,0.281251 -0.223963,0.51823 -0.398438,0.710937 -0.171878,0.192709 -0.382816,0.339844 -0.632812,0.441407 -0.247399,0.09896 -0.526045,0.148437 -0.835938,0.148437 -0.289064,0 -0.554689,-0.04948 -0.796875,-0.148437 -0.242189,-0.101563 -0.451824,-0.248698 -0.628906,-0.441407 -0.17448,-0.192707 -0.311199,-0.429686 -0.410156,-0.710937 -0.09896,-0.281249 -0.148438,-0.604165 -0.148438,-0.96875 0,-0.361977 0.04557,-0.683591 0.136719,-0.964844 0.09375,-0.281246 0.226562,-0.516923 0.398437,-0.707031 0.174479,-0.192704 0.385416,-0.338538 0.632813,-0.4375 0.247394,-0.09895 0.527342,-0.148433 0.839844,-0.148438 0.28906,5e-6 0.554684,0.04948 0.796875,0.148438 0.242184,0.09896 0.450517,0.244796 0.625,0.4375 0.177079,0.190108 0.3151,0.425785 0.414062,0.707031 0.09895,0.281253 0.148433,0.602867 0.148438,0.964844"
         id="path3711" />
      <path
         d="m 72.623883,16.535713 -0.335937,-1.527344 c -0.01042,-0.04427 -0.02474,-0.106769 -0.04297,-0.1875 -0.01563,-0.08333 -0.03386,-0.175779 -0.05469,-0.277343 -0.02084,-0.104165 -0.04297,-0.21354 -0.06641,-0.328125 -0.02084,-0.117185 -0.04297,-0.233071 -0.06641,-0.347657 -0.05209,-0.268226 -0.109378,-0.557288 -0.171875,-0.867187 l -0.02344,0 c -0.0599,0.309899 -0.114586,0.600263 -0.164062,0.871094 -0.02084,0.114586 -0.04297,0.230471 -0.06641,0.347656 -0.02084,0.11719 -0.04167,0.227867 -0.0625,0.332031 -0.02084,0.101565 -0.04037,0.194012 -0.05859,0.277344 -0.01563,0.08333 -0.02865,0.148439 -0.03906,0.195312 l -0.351562,1.511719 -1.28125,0 -1.175781,-4.367187 1.183593,0 0.441407,1.933593 c 0.02344,0.101565 0.04687,0.223961 0.07031,0.367188 0.02604,0.140627 0.04948,0.283856 0.07031,0.429687 0.02343,0.143231 0.04427,0.27995 0.0625,0.410157 0.01823,0.127605 0.03255,0.229167 0.04297,0.304687 l 0.02344,0 c 0.0026,-0.04948 0.0078,-0.11328 0.01563,-0.191406 0.01041,-0.08073 0.02213,-0.166665 0.03516,-0.257813 0.01302,-0.09114 0.02604,-0.183592 0.03906,-0.277343 0.01562,-0.09635 0.02995,-0.186196 0.04297,-0.269532 0.01562,-0.08333 0.02864,-0.156247 0.03906,-0.21875 0.01302,-0.0651 0.02343,-0.110674 0.03125,-0.136718 l 0.476562,-2.09375 1.3125,0 0.457032,2.09375 c 0.01302,0.05729 0.02994,0.145835 0.05078,0.265625 0.02083,0.119793 0.04166,0.248699 0.0625,0.386718 0.02343,0.135419 0.04296,0.268231 0.05859,0.398438 0.01562,0.127605 0.02473,0.227866 0.02734,0.300781 l 0.02344,0 c 0.0078,-0.0651 0.02083,-0.161457 0.03906,-0.289062 0.02083,-0.127603 0.04296,-0.264322 0.06641,-0.410157 0.02343,-0.148435 0.04817,-0.295571 0.07422,-0.441406 0.02864,-0.145831 0.05468,-0.269529 0.07813,-0.371094 l 0.457032,-1.933593 1.167968,0 -1.191406,4.367187 -1.296875,0"
         id="path3713" />
    </g>
    <path
       d="m 12,6 0,2.5 c 0,0.831 0.669,1.5 1.5,1.5 l 3,0 C 17.331,10 18,9.331 18,8.5 L 18,6 12,6 z"
       id="rect3741"
       style="color:#000000;fill:url(#linearGradient3767);fill-opacity:1;fill-rule:nonzero;stroke:none;stroke-width:1.5;marker:none;visibility:visible;display:inline;overflow:visible;enable-background:accumulate" />
    <path
       d="m 12,8.5 0,1 c 0,0.831 0.669,1.5 1.5,1.5 l 3,0 C 17.331,11 18,10.331 18,9.5 l 0,-1 C 18,9.331 17.331,10 16.5,10 l -3,0 C 12.669,10 12,9.331 12,8.5 z"
       id="path3756"
       style="opacity:0.8;color:#000000;fill:#ffffff;fill-opacity:1;fill-rule:nonzero;stroke:none;stroke-width:1.5;marker:none;visibility:visible;display:inline;overflow:visible;enable-background:accumulate" />
    <path
       d="m 12,6 0,1 6,0 0,-1 -6,0 z"
       id="path3769"
       style="opacity:0.2;color:#000000;fill:#ffffff;fill-opacity:1;fill-rule:nonzero;stroke:none;stroke-width:1.5;marker:none;visibility:visible;display:inline;overflow:visible;enable-background:accumulate" />
    <path
       d="m 67,6 0,2.5 c 0,0.831 0.669,1.5 1.5,1.5 l 15,0 C 84.331,10 85,9.331 85,8.5 L 85,6 67,6 z"
       id="path3779"
       style="color:#000000;fill:url(#linearGradient3785);fill-opacity:1;fill-rule:nonzero;stroke:none;stroke-width:1.5;marker:none;visibility:visible;display:inline;overflow:visible;enable-background:accumulate" />
    <path
       d="m 67,8.5 0,1 c 0,0.831 0.669,1.5 1.5,1.5 l 15,0 C 84.331,11 85,10.331 85,9.5 l 0,-1 C 85,9.331 84.331,10 83.5,10 l -15,0 C 67.669,10 67,9.331 67,8.5 z"
       id="path3781"
       style="opacity:0.8;color:#000000;fill:#ffffff;fill-opacity:1;fill-rule:nonzero;stroke:none;stroke-width:1.5;marker:none;visibility:visible;display:inline;overflow:visible;enable-background:accumulate" />
    <path
       d="m 79,6 0,4 4.5,0 C 84.331,10 85,9.331 85,8.5 L 85,6 79,6 z"
       id="path3787"
       style="color:#000000;fill:url(#linearGradient3800);fill-opacity:1;fill-rule:nonzero;stroke:none;stroke-width:1.5;marker:none;visibility:visible;display:inline;overflow:visible;enable-background:accumulate" />
    <path
       d="M 67,6 67,7 85,7 85,6 67,6 z"
       id="path3783"
       style="opacity:0.2;color:#000000;fill:#ffffff;fill-opacity:1;fill-rule:nonzero;stroke:none;stroke-width:1.5;marker:none;visibility:visible;display:inline;overflow:visible;enable-background:accumulate" />
    <path
       d="m 67,6 0,2.5 c 0,0.831 0.669,1.5 1.5,1.5 l 15,0 C 84.331,10 85,9.331 85,8.5 L 85,6 84,6 84,8 c 0,0.554 -0.446,1 -1,1 L 69,9 C 68.446,9 68,8.554 68,8 l 0,-2 -1,0 z"
       id="path3802"
       style="opacity:0.1;color:#000000;fill:#000000;fill-opacity:1;fill-rule:nonzero;stroke:none;stroke-width:1.5;marker:none;visibility:visible;display:inline;overflow:visible;enable-background:accumulate" />
    <path
       d="m 14,7.4806265 2,0 L 15,9 14,7.4806265 z"
       id="path3811"
       style="fill:#ffffff;stroke:none" />
    <rect
       width="2"
       height="0.74366587"
       x="69"
       y="8.0320415"
       id="rect3815"
       style="color:#000000;fill:#ffffff;fill-opacity:1;fill-rule:nonzero;stroke:none;stroke-width:1.5;marker:none;visibility:visible;display:inline;overflow:visible;enable-background:accumulate" />
    <path
       d="m 75,7 0,2 2,0 0,-2 -2,0 z m 0.53125,0.53125 0.9375,0 0,0.9375 -0.9375,0 0,-0.9375 z"
       id="rect3817"
       style="color:#000000;fill:#ffffff;fill-opacity:1;fill-rule:nonzero;stroke:none;stroke-width:1.5;marker:none;visibility:visible;display:inline;overflow:visible;enable-background:accumulate" />
    <path
       d="m 81.395586,7 -0.375,0.375 0.59375,0.59375 -0.59375,0.59375 0.375,0.40625 0.59375,-0.59375 0.59375,0.59375 L 82.989336,8.5625 82.395586,7.96875 82.989336,7.375 82.583086,7 81.989336,7.59375 81.395586,7 z"
       id="rect3822"
       style="color:#000000;fill:#ffffff;fill-opacity:1;fill-rule:nonzero;stroke:none;stroke-width:1.5;marker:none;visibility:visible;display:inline;overflow:visible;enable-background:accumulate" />
  </g>
  <g
     id="layer5"
     style="display:none">
    <rect
       width="66"
       height="66"
       rx="12"
       ry="12"
       x="15"
       y="15"
       clip-path="url(#clipPath3613)"
       id="rect3171"
       style="opacity:0.1;fill:url(#linearGradient3613);fill-opacity:1;fill-rule:nonzero;stroke:#ffffff;stroke-width:0.5;stroke-linecap:round;stroke-linejoin:miter;stroke-miterlimit:4;stroke-opacity:1;stroke-dasharray:none;stroke-dashoffset:0;filter:url(#filter3794)" />
  </g>
</svg>
