<?xml version="1.0" encoding="UTF-8" standalone="no"?>
<svg xmlns="http://www.w3.org/2000/svg" height="96" width="96" version="1.1" xmlns:xlink="http://www.w3.org/1999/xlink">
 <defs>
  <linearGradient id="c">
   <stop stop-color="#333" offset="0"/>
   <stop stop-color="#515151" offset="1"/>
  </linearGradient>
  <linearGradient id="b" stop-color="#fff">
   <stop offset="0"/>
   <stop stop-opacity="0" offset="1"/>
  </linearGradient>
  <linearGradient id="a" y2="7.0165" gradientUnits="userSpaceOnUse" x2="45.448" gradientTransform="matrix(1.0059 0 0 .99417 100 0)" y1="92.54" x1="45.448">
   <stop offset="0"/>
   <stop stop-opacity=".58824" offset="1"/>
  </linearGradient>
  <linearGradient id="d" y2="6" xlink:href="#a" gradientUnits="userSpaceOnUse" x2="32.251" gradientTransform="translate(0,1)" y1="90" x1="32.251"/>
  <linearGradient id="e" y2="6" gradientUnits="userSpaceOnUse" x2="15" gradientTransform="translate(67)" y1="10" x1="15">
   <stop stop-color="#ae0000" offset="0"/>
   <stop stop-color="#ff3131" offset="1"/>
  </linearGradient>
  <linearGradient id="f" y2="6" xlink:href="#c" gradientUnits="userSpaceOnUse" x2="15" gradientTransform="translate(67)" y1="10" x1="15"/>
  <linearGradient id="n" y2="6" xlink:href="#c" gradientUnits="userSpaceOnUse" x2="15" y1="10" x1="15"/>
  <linearGradient id="o" y2="80" gradientUnits="userSpaceOnUse" x2="48" y1="24" x1="48">
   <stop stop-color="#888" offset="0"/>
   <stop stop-color="#acacac" offset="1"/>
  </linearGradient>
  <radialGradient id="t" xlink:href="#b" gradientUnits="userSpaceOnUse" cy="90.172" cx="48" gradientTransform="matrix(1.1573 0 0 .99591 -7.551 .19713)" r="42"/>
  <linearGradient id="p" y2="63.893" xlink:href="#b" gradientUnits="userSpaceOnUse" x2="36.357" y1="6" x1="36.357"/>
  <linearGradient id="q" y2="5.9877" gradientUnits="userSpaceOnUse" x2="48" y1="90" x1="48">
   <stop stop-color="#c8c8c8" offset="0"/>
   <stop stop-color="#c8c8c8" offset=".79101"/>
   <stop stop-color="#dadada" offset=".91460"/>
   <stop stop-color="#f0f0f0" offset="1"/>
  </linearGradient>
  <linearGradient id="r" y2="5.9996" xlink:href="#a" gradientUnits="userSpaceOnUse" x2="32.251" gradientTransform="matrix(1.0238 0 0 1.0119 -1.1429 .929)" y1="90" x1="32.251"/>
  <linearGradient id="s" y2="90.239" xlink:href="#a" gradientUnits="userSpaceOnUse" x2="32.251" gradientTransform="matrix(1.0238,0,0,-1.0119,-1.1429,98.071)" y1="6.1317" x1="32.251"/>
 </defs>
 <g fill="url(#s)">
  <path opacity="0.08" d="m12 95.031c-5.5111 0-10.031-4.52-10.031-10.031v-71c0-5.5111 4.5202-10.031 10.031-10.031h72c5.5111 0 10.031 4.5202 10.031 10.031v71c0 5.5111-4.5202 10.031-10.031 10.031h-72z"/>
  <path opacity=".1" d="m12 94.031c-4.9716 0-9.0312-4.0596-9.0312-9.0312v-71c0-4.972 4.0596-9.0316 9.0312-9.0316h72c4.9716 0 9.0312 4.0596 9.0312 9.0312v71c0 4.9716-4.0596 9.0312-9.0312 9.0312h-72z"/>
  <path opacity=".2" d="m12 93c-4.4091 0-8-3.591-8-8v-71c0-4.4091 3.5909-8 8-8h72c4.4091 0 8 3.5909 8 8v71c0 4.4091-3.5909 8-8 8h-72z"/>
 </g>
 <rect opacity=".3" rx="7" ry="7" height="85" width="86" y="7" x="5" fill="url(#r)"/>
 <rect opacity=".45" rx="6" ry="6" height="84" width="84" y="7" x="6" fill="url(#d)"/>
 <rect rx="6" ry="6" height="84" width="84" y="6" x="6" fill="url(#q)"/>
 <path opacity=".5" d="m12 6c-3.324 0-6 2.676-6 6v72c0 0.33472 0.04135 0.6507 0.09375 0.96875 0.0487 0.2956 0.09704 0.59692 0.1875 0.875 0.00988 0.03038 0.020892 0.0636 0.03125 0.09375 0.098865 0.28777 0.23488 0.54745 0.375 0.8125 0.14459 0.27351 0.31562 0.53562 0.5 0.78125 0.18438 0.24564 0.37378 0.47347 0.59375 0.6875 0.43995 0.42806 0.94291 0.81453 1.5 1.0938 0.27854 0.13961 0.57347 0.24695 0.875 0.34375-0.2562-0.10022-0.48671-0.23627-0.71875-0.375-0.00741-0.0044-0.023866 0.0045-0.03125 0-0.0319-0.019-0.0622-0.042-0.0937-0.062-0.1204-0.077-0.231-0.164-0.3437-0.25-0.1062-0.081-0.2133-0.161-0.3126-0.25-0.1778-0.162-0.3473-0.346-0.4999-0.531-0.1075-0.131-0.2183-0.266-0.3124-0.407-0.0251-0.038-0.0385-0.086-0.0626-0.125-0.0647-0.103-0.1302-0.204-0.1874-0.312-0.1011-0.195-0.2057-0.416-0.2813-0.625-0.008-0.022-0.0236-0.041-0.0313-0.063-0.0318-0.092-0.0358-0.187-0.0624-0.281-0.0304-0.107-0.0704-0.203-0.0938-0.313-0.0729-0.341-0.125-0.698-0.125-1.062v-72c0-2.782 2.2182-5 5-5h72c2.7818 0 5 2.2182 5 5v72c0 0.3643-0.05212 0.72099-0.125 1.0625-0.04415 0.20689-0.08838 0.39766-0.15625 0.59375-0.0077 0.02195-0.0233 0.04069-0.03125 0.0625-0.06274 0.17374-0.13838 0.36745-0.21875 0.53125-0.04158 0.0828-0.07904 0.16995-0.125 0.25-0.0546 0.09721-0.12677 0.18835-0.1875 0.28125-0.09411 0.14096-0.20492 0.276-0.3125 0.40625-0.14317 0.17445-0.30314 0.347-0.46875 0.5-0.01117 0.0102-0.01998 0.02115-0.03125 0.03125-0.13839 0.12556-0.28509 0.23444-0.4375 0.34375-0.10257 0.07315-0.20432 0.15336-0.3125 0.21875-0.0074 0.0045-0.02384-0.0044-0.03125 0-0.23204 0.13873-0.46255 0.27478-0.71875 0.375 0.30153-0.0968 0.59646-0.20414 0.875-0.34375 0.55709-0.27922 1.0601-0.66569 1.5-1.0938 0.21997-0.21403 0.40937-0.44186 0.59375-0.6875s0.35541-0.50774 0.5-0.78125c0.14012-0.26505 0.27614-0.52473 0.375-0.8125 0.01041-0.03078 0.02133-0.06274 0.03125-0.09375 0.09046-0.27808 0.1388-0.5794 0.1875-0.875 0.053-0.318 0.094-0.634 0.094-0.969v-72c0-3.324-2.676-6-6-6h-72z" fill="url(#p)"/>
 <path opacity=".2" d="m12 90c-3.324 0-6-2.676-6-6v-72c0-0.33472 0.04135-0.6507 0.09375-0.96875 0.0487-0.2956 0.09704-0.59692 0.1875-0.875 0.0099-0.03 0.0209-0.063 0.0313-0.094 0.0989-0.2873 0.2349-0.547 0.375-0.812 0.1446-0.2735 0.3156-0.5356 0.5-0.7812 0.1844-0.2457 0.3738-0.4735 0.5937-0.6876 0.44-0.428 0.943-0.8145 1.5-1.0937 0.2786-0.1396 0.5735-0.2469 0.8748-0.3437-0.256 0.1002-0.4865 0.2362-0.7185 0.375-0.00741 0.0044-0.023866-0.0045-0.03125 0-0.031933 0.0193-0.062293 0.04251-0.09375 0.0625-0.1204 0.0767-0.23102 0.16351-0.34375 0.25-0.10617 0.0808-0.21328 0.16111-0.3125 0.25-0.1779 0.1614-0.3474 0.3453-0.5 0.5312-0.1075 0.1303-0.2183 0.2653-0.3124 0.4063-0.0251 0.0383-0.0385 0.0858-0.0626 0.125-0.0647 0.103-0.1302 0.2045-0.1874 0.3124-0.1011 0.1948-0.2057 0.4158-0.2813 0.625-0.008 0.0219-0.0236 0.0406-0.0313 0.0626-0.0318 0.0919-0.0358 0.1868-0.0624 0.2812-0.0304 0.1066-0.0704 0.203-0.0938 0.3125-0.0729 0.3415-0.125 0.6985-0.125 1.0625v72c0 2.7818 2.2182 5 5 5h72c2.7818 0 5-2.2182 5-5v-72c0-0.364-0.052-0.721-0.125-1.0625-0.044-0.2069-0.088-0.3977-0.156-0.5937-0.008-0.022-0.024-0.0407-0.031-0.0626-0.063-0.1737-0.139-0.3674-0.219-0.5312-0.042-0.0828-0.079-0.17-0.125-0.25-0.055-0.0972-0.127-0.1884-0.188-0.2812-0.094-0.141-0.205-0.276-0.312-0.4063-0.143-0.1745-0.303-0.347-0.469-0.5-0.011-0.0102-0.02-0.0211-0.031-0.0313-0.139-0.1255-0.285-0.2344-0.438-0.3437-0.102-0.0731-0.204-0.1534-0.312-0.2187-0.0074-0.0045-0.02384 0.0044-0.03125 0-0.23204-0.13873-0.46255-0.27478-0.71875-0.375 0.30153 0.0968 0.59646 0.20414 0.875 0.34375 0.55709 0.27922 1.0601 0.66569 1.5 1.0938 0.21997 0.21403 0.40937 0.44186 0.59375 0.6875s0.35541 0.50774 0.5 0.78125c0.14012 0.26505 0.27614 0.52473 0.375 0.8125 0.01041 0.03078 0.02133 0.06274 0.03125 0.09375 0.09046 0.27808 0.1388 0.5794 0.1875 0.875 0.053 0.318 0.094 0.634 0.094 0.969v72c0 3.324-2.676 6-6 6h-72z" fill="url(#t)"/>
 <rect height="60" width="74" y="23" x="11" fill="url(#o)"/>
 <rect height="58" width="72" y="24" x="12" fill="#fff"/>
 <g fill="#f9f9f9">
  <path d="m31.117 16.455c-0.000003 0.1638-0.02841 0.31172-0.08524 0.44377-0.05516 0.13038-0.13706 0.24236-0.2457 0.33596-0.10697 0.09193-0.23902 0.16297-0.39613 0.21311-0.15544 0.05015-0.33429 0.07522-0.53653 0.07522-0.17717 0-0.3485-0.01839-0.51396-0.05516-0.1638-0.03677-0.3159-0.09193-0.4563-0.16547v-0.72206c0.08023 0.03845 0.16129 0.07605 0.2432 0.11282 0.0819 0.0351 0.16464 0.06686 0.24821 0.09527 0.08524 0.02841 0.16965 0.05098 0.25322 0.06769 0.08524 0.01671 0.16965 0.02507 0.25322 0.02507 0.08524 0 0.15795-0.0092 0.21812-0.02758 0.06184-0.02006 0.11115-0.0468 0.14792-0.08023 0.03844-0.0351 0.06602-0.07605 0.08274-0.12285 0.01838-0.04847 0.02758-0.10112 0.02758-0.15795-0.000001-0.06853-0.01504-0.1287-0.04513-0.18052-0.02841-0.05348-0.06937-0.10279-0.12285-0.14792-0.05181-0.0468-0.11533-0.09193-0.19055-0.13539-0.07354-0.04346-0.15628-0.08942-0.24821-0.13789-0.07689-0.04011-0.16297-0.08859-0.25823-0.14541-0.09527-0.05683-0.18553-0.12702-0.27078-0.2106-0.08357-0.08524-0.15377-0.1872-0.2106-0.30587-0.05683-0.12034-0.08524-0.26408-0.08524-0.43123 0-0.1638 0.02675-0.31005 0.08023-0.43875 0.05516-0.13037 0.13288-0.23984 0.23316-0.32844 0.10029-0.09025 0.22146-0.15878 0.36354-0.20558 0.14374-0.0468 0.3042-0.0702 0.48137-0.0702 0.08858 0.000004 0.17466 0.0058 0.25823 0.01755 0.08524 0.01171 0.16881 0.02842 0.25071 0.05015 0.08357 0.02173 0.16714 0.04848 0.25071 0.08023 0.08357 0.03177 0.16965 0.06854 0.25823 0.11032l-0.25071 0.60422c-0.07522-0.0351-0.14541-0.06602-0.2106-0.09276-0.06518-0.02674-0.1287-0.04931-0.19055-0.06769s-0.12285-0.03175-0.18302-0.04012c-0.0585-0.01002-0.11784-0.01504-0.178-0.01504-0.13038 0.000003-0.23066 0.0351-0.30086 0.1053-0.06853 0.06853-0.1028 0.16046-0.1028 0.27579-0.000001 0.06185 0.01002 0.117 0.03008 0.16547 0.02173 0.0468 0.05516 0.0911 0.10029 0.13288 0.0468 0.04179 0.10613 0.08441 0.178 0.12786 0.07354 0.04346 0.16213 0.09277 0.26576 0.14792 0.12536 0.06686 0.24069 0.13539 0.34598 0.20558 0.1053 0.06853 0.19555 0.14541 0.27078 0.23066 0.07689 0.08357 0.13622 0.17885 0.17801 0.28581 0.04178 0.10697 0.06267 0.23233 0.06268 0.37607"/>
  <path d="m31.336 14.67h0.8374l0.45128 1.577c0.02674 0.08692 0.04596 0.17968 0.05766 0.27829 0.01337 0.09862 0.02173 0.1872 0.02507 0.26576h0.01504c0.0033-0.03844 0.0075-0.08106 0.01253-0.12787 0.0067-0.0468 0.0142-0.09443 0.02257-0.14291 0.0084-0.04847 0.01755-0.09611 0.02758-0.14291 0.0117-0.04847 0.0234-0.09193 0.0351-0.13037l0.44126-1.577h0.8424l-1.1082 3.1615c-0.10363 0.29584-0.24486 0.51563-0.42371 0.65935-0.17885 0.14374-0.40281 0.21562-0.67193 0.21562-0.08692-0.000001-0.16213-0.005-0.22564-0.01504-0.06351-0.0084-0.11783-0.01755-0.16297-0.02758v-0.60673c0.0351 0.0084 0.07939 0.01588 0.13288 0.02257 0.05348 0.0067 0.10948 0.01002 0.16798 0.01003 0.08023-0.000001 0.14876-0.01087 0.20558-0.03259 0.05683-0.02173 0.1053-0.05265 0.14541-0.09276 0.04178-0.03845 0.07688-0.08524 0.1053-0.1404 0.03008-0.05516 0.05599-0.117 0.07772-0.18553l0.04764-0.1404-1.058-2.828"/>
  <path d="m36.373 16.64c-0.000003 0.14709-0.02674 0.27579-0.08023 0.3861-0.05349 0.11032-0.12954 0.20224-0.22815 0.27579-0.09862 0.07354-0.21813 0.1287-0.35852 0.16547-0.1404 0.03677-0.29751 0.05516-0.47135 0.05516-0.09193 0-0.17717-0.0033-0.25573-0.01003-0.07856-0.005-0.15294-0.01421-0.22314-0.02758s-0.13789-0.03008-0.20308-0.05015c-0.06518-0.02006-0.13121-0.04513-0.19806-0.07522v-0.6318c0.0702 0.0351 0.14374 0.06686 0.22063 0.09527 0.07856 0.02841 0.15628 0.05348 0.23316 0.07522 0.07688 0.02006 0.15127 0.03594 0.22314 0.04764 0.07354 0.0117 0.14124 0.01755 0.20308 0.01755 0.06853 0.000001 0.12703-0.0058 0.1755-0.01755 0.04847-0.01337 0.08775-0.03092 0.11783-0.05265 0.03176-0.0234 0.05432-0.05014 0.06769-0.08023 0.01504-0.03176 0.02256-0.06518 0.02257-0.10029-0.000002-0.0351-0.0058-0.06602-0.01755-0.09276-0.01003-0.02841-0.03427-0.05766-0.07271-0.08775-0.03845-0.03176-0.09527-0.06685-0.17048-0.1053-0.07354-0.04011-0.17299-0.08858-0.29835-0.14541-0.12201-0.05515-0.22815-0.10948-0.3184-0.16297-0.08859-0.05515-0.16213-0.11616-0.22063-0.18302-0.05683-0.06685-0.09945-0.1429-0.12786-0.22815-0.02841-0.08691-0.04262-0.18971-0.04262-0.30838 0-0.13037 0.02507-0.24402 0.07522-0.34097 0.05014-0.09861 0.12118-0.18051 0.21311-0.2457 0.09193-0.06518 0.20224-0.11366 0.33094-0.14541 0.13037-0.03343 0.27495-0.05014 0.43374-0.05015 0.16714 0.000003 0.32593 0.01922 0.47636 0.05766 0.15042 0.03845 0.30504 0.09611 0.46382 0.17299l-0.23066 0.54154c-0.127-0.061-0.248-0.111-0.363-0.149-0.116-0.038-0.231-0.058-0.346-0.058-0.10363 0.000003-0.17885 0.01839-0.22564 0.05516-0.04513 0.03678-0.06769 0.08692-0.06769 0.15043-0.000001 0.03343 0.0058 0.06352 0.01755 0.09025 0.0117 0.02508 0.0351 0.05181 0.0702 0.08023 0.03509 0.02675 0.08441 0.05683 0.14792 0.09025 0.06352 0.03176 0.14625 0.07104 0.24821 0.11783 0.11867 0.05181 0.22564 0.10363 0.32092 0.15544 0.09527 0.05015 0.17717 0.10781 0.2457 0.17299s0.12118 0.14124 0.15795 0.22815c0.03677 0.08692 0.05515 0.19222 0.05516 0.3159"/>
  <path d="m38.11 16.914c0.07521 0.000001 0.14625-0.0084 0.21311-0.02507 0.06853-0.01671 0.13789-0.0376 0.20809-0.06268v0.56912c-0.07187 0.03677-0.16129 0.06686-0.26826 0.09025-0.1053 0.02507-0.22063 0.0376-0.34598 0.0376-0.12202 0-0.23567-0.01421-0.34097-0.04262s-0.19639-0.07772-0.27328-0.14792c-0.07688-0.07187-0.13789-0.16714-0.18302-0.28581-0.04346-0.12034-0.06518-0.27077-0.06518-0.45128v-1.3514h-0.36604v-0.32342l0.4212-0.25573 0.22063-0.59169h0.48889v0.5967h0.68194v0.57414h-0.68194v1.3514c-0.000001 0.10864 0.02674 0.18887 0.08023 0.24069 0.05348 0.05182 0.12369 0.07772 0.2106 0.07772"/>
  <path d="m40.231 15.161c-0.13539 0.000002-0.24821 0.04764-0.33846 0.14291-0.08859 0.09527-0.13957 0.24486-0.15294 0.44878h0.97526c-0.002-0.086-0.013-0.164-0.033-0.236s-0.05-0.134-0.09-0.186c-0.04-0.053-0.09-0.095-0.15-0.125-0.061-0.03-0.131-0.045-0.211-0.045m0.09778 2.3617c-0.20057 0-0.38526-0.02925-0.55408-0.08775-0.16881-0.0585-0.31423-0.14625-0.43624-0.26325-0.12201-0.11867-0.21728-0.26743-0.28581-0.44627-0.06686-0.18052-0.10029-0.39195-0.10029-0.63431 0-0.2457 0.03092-0.46048 0.09276-0.64433 0.06184-0.18386 0.14792-0.33679 0.25823-0.45881 0.11199-0.12368 0.2457-0.21645 0.40114-0.27829 0.15711-0.06184 0.33094-0.09276 0.52149-0.09276 0.18553 0.000003 0.35267 0.02842 0.50143 0.08524 0.15043 0.05516 0.27746 0.13706 0.38109 0.2457 0.1053 0.10865 0.18553 0.24236 0.24069 0.40114 0.05683 0.15712 0.08524 0.33763 0.08524 0.54154v0.37106h-1.7099c0.0033 0.10697 0.02006 0.20392 0.05015 0.29083 0.03176 0.08524 0.07522 0.15796 0.13037 0.21812 0.05683 0.0585 0.12452 0.10363 0.20308 0.13539 0.08023 0.03176 0.17132 0.04764 0.27328 0.04764 0.08524 0.000001 0.16547-0.0042 0.24069-0.01253 0.07688-0.01003 0.15126-0.02424 0.22314-0.04262 0.07187-0.01839 0.1429-0.04095 0.21311-0.06769 0.0702-0.02841 0.14207-0.06101 0.21562-0.09778v0.59169c-0.06686 0.0351-0.13455 0.06518-0.20308 0.09025-0.06686 0.0234-0.1379 0.04346-0.21311 0.06017-0.07522 0.01671-0.15628 0.02841-0.2432 0.0351-0.08692 0.0084-0.18219 0.01253-0.28581 0.01253"/>
  <path d="m44.493 17.473h-0.76468v-1.6372c-0.000002-0.20224-0.03009-0.35351-0.09025-0.45379-0.06017-0.10196-0.15461-0.15294-0.28331-0.15294-0.09694 0.000002-0.17801 0.02006-0.2432 0.06017-0.06352 0.04012-0.1145 0.09945-0.15294 0.178-0.03845 0.07856-0.06603 0.1755-0.08274 0.29083s-0.02507 0.24737-0.02507 0.39613v1.319h-0.764v-2.803h0.58417l0.1028 0.35852h0.04262c0.04011-0.07187 0.08775-0.13371 0.14291-0.18553 0.05683-0.05181 0.11867-0.09443 0.18553-0.12786 0.06685-0.03343 0.13789-0.05766 0.21311-0.07271 0.07521-0.01671 0.15127-0.02507 0.22815-0.02507 0.19222 0.000003 0.35518 0.03343 0.4889 0.10029 0.13538 0.06519 0.23901 0.16881 0.31089 0.31089h0.06268c0.04011-0.07187 0.08859-0.13371 0.14541-0.18553 0.05683-0.05182 0.1195-0.09443 0.18804-0.12786 0.06853-0.03343 0.14039-0.05766 0.21562-0.07271 0.07689-0.01671 0.15377-0.02507 0.23066-0.02507 0.30085 0.000003 0.52733 0.0819 0.67944 0.2457 0.15377 0.16213 0.23066 0.42288 0.23066 0.78226v1.8277h-0.76718v-1.6372c-0.000003-0.20224-0.03009-0.35351-0.09025-0.45379-0.06018-0.10195-0.15461-0.15294-0.28331-0.15294-0.18219 0.000003-0.31172 0.07271-0.38861 0.21812-0.07689 0.14374-0.11533 0.35017-0.11533 0.61926v1.4065"/>
  <path d="m50.395 17.473-0.216-0.98c-0.006-0.029-0.015-0.069-0.027-0.121-0.01-0.053-0.022-0.112-0.035-0.178-0.014-0.066-0.028-0.137-0.043-0.21-0.013-0.075-0.028-0.15-0.043-0.223-0.033-0.173-0.07-0.358-0.11-0.557h-0.01505c-0.03845 0.1989-0.07355 0.38526-0.1053 0.55909-0.01338 0.07355-0.02758 0.14792-0.04262 0.22314-0.01337 0.07522-0.02674 0.14625-0.04011 0.21311-0.01338 0.06518-0.02591 0.12452-0.0376 0.178-0.01003 0.05348-0.01839 0.09527-0.02507 0.12536l-0.22564 0.97026h-0.82231l-0.75466-2.803h0.75967l0.28331 1.241c0.01504 0.06518 0.03008 0.14374 0.04513 0.23567 0.01671 0.09026 0.03176 0.18219 0.04513 0.27579 0.01504 0.09193 0.02841 0.17968 0.04011 0.26325 0.0117 0.0819 0.02089 0.14709 0.02758 0.19556h0.01505c0.0017-0.03176 0.005-0.07271 0.01003-0.12285 0.0067-0.05182 0.0142-0.10697 0.02257-0.16547 0.0084-0.0585 0.01671-0.11783 0.02507-0.178 0.01003-0.06184 0.01922-0.11951 0.02758-0.17299 0.01002-0.05348 0.01838-0.10028 0.02507-0.1404 0.0084-0.04178 0.01504-0.07103 0.02006-0.08775l0.30587-1.3439h0.8424l0.29334 1.3439c0.0084 0.03677 0.01922 0.09361 0.03259 0.17048 0.01337 0.07689 0.02674 0.15962 0.04011 0.24821 0.01504 0.08692 0.02757 0.17216 0.0376 0.25573 0.01003 0.0819 0.01587 0.14625 0.01755 0.19305h0.01504c0.005-0.04178 0.01337-0.10363 0.02507-0.18553 0.01337-0.0819 0.02758-0.16965 0.04262-0.26325 0.01504-0.09527 0.03092-0.18971 0.04764-0.28331 0.01838-0.0936 0.03509-0.17299 0.05015-0.23818l0.29334-1.241h0.74966l-0.76468 2.803h-0.83239"/>
  <path d="m52.363 13.945c0-0.07187 0.01087-0.1312 0.03259-0.178 0.02173-0.04847 0.05098-0.08691 0.08775-0.11533 0.03845-0.03008 0.08274-0.05098 0.13288-0.06268 0.05181-0.01169 0.10613-0.01755 0.16297-0.01755 0.05683 0.000004 0.11031 0.0058 0.16046 0.01755 0.05014 0.0117 0.0936 0.0326 0.13037 0.06268 0.03844 0.02842 0.06853 0.06686 0.09025 0.11533 0.0234 0.0468 0.0351 0.10614 0.0351 0.178 0 0.0702-0.0117 0.12954-0.0351 0.178-0.02173 0.04848-0.05182 0.08775-0.09025 0.11783-0.03677 0.02842-0.08023 0.04931-0.13037 0.06268-0.05015 0.0117-0.10363 0.01755-0.16046 0.01755-0.05683 0.000003-0.11115-0.0058-0.16297-0.01755-0.05-0.014-0.094-0.035-0.133-0.063-0.036-0.03-0.066-0.07-0.087-0.118-0.022-0.048-0.033-0.108-0.033-0.178m0.79728 3.5276h-0.764v-2.803h0.76468v2.803"/>
  <path d="m56.392 17.473h-0.76468v-1.6372c-0.000002-0.20224-0.03092-0.35351-0.09276-0.45379-0.06017-0.10196-0.15712-0.15294-0.29083-0.15294-0.10029 0.000002-0.18386 0.02006-0.25071 0.06017-0.06686 0.04012-0.12034 0.09945-0.16046 0.178-0.03845 0.07856-0.06602 0.1755-0.08274 0.29083-0.01671 0.11533-0.02507 0.24737-0.02507 0.39613v1.319h-0.764v-2.803h0.58417l0.1028 0.35852h0.04262c0.04011-0.07187 0.08859-0.13371 0.14541-0.18553 0.0585-0.05181 0.12201-0.09443 0.19055-0.12786 0.06853-0.03343 0.14123-0.05766 0.21812-0.07271 0.07688-0.01671 0.15544-0.02507 0.23567-0.02507 0.13706 0.000003 0.26158 0.02006 0.37356 0.06017 0.11199 0.03844 0.20809 0.09945 0.28832 0.18302s0.14207 0.19055 0.18553 0.32092c0.04345 0.1287 0.06518 0.28331 0.06518 0.46382v1.8277"/>
  <path d="m58.004 17.523c-0.14374 0-0.27495-0.03092-0.39362-0.09276-0.11868-0.06184-0.22063-0.15294-0.30587-0.27328-0.08524-0.12201-0.1521-0.27328-0.20057-0.45379-0.0468-0.18051-0.0702-0.38944-0.0702-0.62678 0-0.24069 0.0234-0.45128 0.0702-0.6318 0.04847-0.18218 0.11616-0.33428 0.20308-0.4563 0.08859-0.12368 0.19388-0.21645 0.3159-0.27829 0.12201-0.06184 0.25656-0.09276 0.40365-0.09276 0.09025 0.000003 0.17299 0.01087 0.24821 0.03259 0.07521 0.02006 0.1429 0.04931 0.20308 0.08775 0.06017 0.03678 0.11366 0.08023 0.16046 0.13037 0.04847 0.04848 0.09109 0.10196 0.12786 0.16046h0.02507c-0.01003-0.06518-0.01922-0.1312-0.02758-0.19806-0.0084-0.05683-0.01588-0.117-0.02257-0.18052-0.005-0.06518-0.0075-0.12536-0.0075-0.18052v-0.89754h0.76468v3.9011h-0.584l-0.148-0.363h-0.032c-0.0351 0.05683-0.07522 0.11115-0.12034 0.16297-0.04513 0.05015-0.09778 0.0936-0.15795 0.13037-0.0585 0.03677-0.12536 0.06602-0.20057 0.08775-0.07355 0.02173-0.15711 0.03259-0.25071 0.03259m0.27829-0.60924c0.09025 0.000001 0.16714-0.01504 0.23066-0.04513 0.06352-0.03176 0.11449-0.07856 0.15294-0.1404 0.04011-0.06352 0.06936-0.14207 0.08775-0.23567 0.02006-0.0936 0.03092-0.20308 0.03259-0.32844v-0.08274c-0.000002-0.13539-0.0084-0.25572-0.02507-0.36103-0.01671-0.1053-0.04429-0.19305-0.08274-0.26325-0.03845-0.07187-0.09026-0.12619-0.15544-0.16297-0.06518-0.03677-0.14709-0.05515-0.2457-0.05516-0.16046 0.000003-0.2783 0.07271-0.35351 0.21812-0.07522 0.14374-0.11282 0.35351-0.11282 0.6293-0.000001 0.27579 0.0376 0.48305 0.11282 0.62177 0.07689 0.13706 0.19639 0.20558 0.35852 0.20558"/>
  <path d="m60.935 16.066c-0.000001 0.27913 0.03928 0.48973 0.11783 0.6318 0.07855 0.1404 0.20642 0.2106 0.3836 0.2106 0.1755 0.000001 0.30253-0.07104 0.38109-0.21311 0.07855-0.14207 0.11783-0.35184 0.11783-0.6293-0.000002-0.27913-0.03928-0.48722-0.11783-0.62428-0.07856-0.13872-0.20726-0.20809-0.3861-0.20809-0.1755 0.000002-0.30253 0.06937-0.38109 0.20809-0.07688 0.13706-0.11533 0.34515-0.11533 0.62428m1.7801 0c-0.000003 0.234-0.03009 0.44126-0.09025 0.62177-0.0585 0.18052-0.14374 0.33262-0.25573 0.4563-0.11032 0.12369-0.2457 0.21812-0.40616 0.28331-0.15879 0.06352-0.33763 0.09527-0.53653 0.09527-0.18553 0-0.35602-0.03176-0.51146-0.09527-0.15544-0.06518-0.28999-0.15962-0.40365-0.28331-0.11199-0.12369-0.19974-0.27579-0.26325-0.4563-0.06352-0.18051-0.09527-0.38777-0.09527-0.62177 0-0.23233 0.02925-0.43875 0.08775-0.61926 0.06017-0.18051 0.14541-0.33178 0.25573-0.45379 0.11199-0.12368 0.24737-0.21728 0.40616-0.2808 0.15878-0.06351 0.33846-0.09527 0.53903-0.09527 0.18553 0.000004 0.35601 0.03176 0.51146 0.09527 0.15544 0.06352 0.28916 0.15712 0.40114 0.2808 0.11366 0.12202 0.20224 0.27328 0.26576 0.45379 0.06351 0.18052 0.09527 0.38694 0.09527 0.61926"/>
  <path d="m65.518 17.473-0.216-0.98c-0.006-0.029-0.016-0.069-0.027-0.121-0.01-0.053-0.022-0.112-0.035-0.178-0.014-0.066-0.028-0.137-0.043-0.21-0.013-0.075-0.027-0.15-0.043-0.223-0.033-0.173-0.07-0.358-0.11-0.557h-0.01505c-0.03844 0.1989-0.07355 0.38526-0.1053 0.55909-0.01338 0.07355-0.02758 0.14792-0.04262 0.22314-0.01338 0.07522-0.02675 0.14625-0.04012 0.21311-0.01338 0.06518-0.02591 0.12452-0.0376 0.178-0.01003 0.05348-0.01839 0.09527-0.02507 0.12536l-0.22564 0.97026h-0.82231l-0.75466-2.803h0.75967l0.28331 1.241c0.01504 0.06518 0.03008 0.14374 0.04513 0.23567 0.01671 0.09026 0.03176 0.18219 0.04513 0.27579 0.01504 0.09193 0.02841 0.17968 0.04011 0.26325 0.0117 0.0819 0.02089 0.14709 0.02758 0.19556h0.01504c0.0017-0.03176 0.005-0.07271 0.01003-0.12285 0.0067-0.05182 0.0142-0.10697 0.02257-0.16547 0.0084-0.0585 0.01671-0.11783 0.02507-0.178 0.01002-0.06184 0.01922-0.11951 0.02758-0.17299 0.01003-0.05348 0.01838-0.10028 0.02507-0.1404 0.0084-0.04178 0.01504-0.07103 0.02006-0.08775l0.30587-1.3439h0.8424l0.29334 1.3439c0.0084 0.03677 0.01922 0.09361 0.03259 0.17048 0.01337 0.07689 0.02674 0.15962 0.04012 0.24821 0.01504 0.08692 0.02757 0.17216 0.0376 0.25573 0.01003 0.0819 0.01587 0.14625 0.01755 0.19305h0.01505c0.005-0.04178 0.01337-0.10363 0.02507-0.18553 0.01337-0.0819 0.02757-0.16965 0.04262-0.26325 0.01504-0.09527 0.03092-0.18971 0.04764-0.28331 0.01838-0.0936 0.03509-0.17299 0.05015-0.23818l0.29334-1.241h0.74966l-0.76468 2.803h-0.83239"/>
 </g>
 <g fill="#4d4d4d">
  <path d="m31.117 15.954c-0.000003 0.1638-0.02841 0.31172-0.08524 0.44377-0.05516 0.13038-0.13706 0.24236-0.2457 0.33596-0.10697 0.09193-0.23902 0.16297-0.39613 0.21311-0.15544 0.05015-0.33429 0.07522-0.53653 0.07522-0.17717 0-0.3485-0.01839-0.51396-0.05516-0.1638-0.03677-0.3159-0.09193-0.4563-0.16547v-0.72206c0.08023 0.03844 0.16129 0.07605 0.2432 0.11282 0.0819 0.0351 0.16464 0.06686 0.24821 0.09527 0.08524 0.02841 0.16965 0.05098 0.25322 0.06769 0.08524 0.01671 0.16965 0.02507 0.25322 0.02507 0.08524 0 0.15795-0.0092 0.21812-0.02758 0.06184-0.02006 0.11115-0.0468 0.14792-0.08023 0.03844-0.0351 0.06602-0.07605 0.08274-0.12285 0.01838-0.04847 0.02758-0.10112 0.02758-0.15795-0.000001-0.06853-0.01504-0.1287-0.04513-0.18052-0.02841-0.05348-0.06937-0.10279-0.12285-0.14792-0.05181-0.0468-0.11533-0.09193-0.19055-0.13539-0.07354-0.04346-0.15628-0.08942-0.24821-0.13789-0.07689-0.04011-0.16297-0.08859-0.25823-0.14541-0.09527-0.05683-0.18553-0.12702-0.27078-0.2106-0.08357-0.08524-0.15377-0.1872-0.2106-0.30587-0.05683-0.12034-0.08524-0.26408-0.08524-0.43123 0-0.1638 0.02675-0.31005 0.08023-0.43875 0.05516-0.13037 0.13288-0.23984 0.23316-0.32844 0.10029-0.09025 0.22146-0.15878 0.36354-0.20558 0.14374-0.0468 0.3042-0.0702 0.48137-0.0702 0.08858 0.000004 0.17466 0.0058 0.25823 0.01755 0.08524 0.01171 0.16881 0.02842 0.25071 0.05015 0.08357 0.02173 0.16714 0.04848 0.25071 0.08023 0.08357 0.03177 0.16965 0.06854 0.25823 0.11032l-0.25071 0.60422c-0.07522-0.03509-0.14541-0.06602-0.2106-0.09276-0.06518-0.02674-0.1287-0.04931-0.19055-0.06769s-0.12285-0.03175-0.18302-0.04012c-0.0585-0.01003-0.11784-0.01504-0.178-0.01504-0.13038 0.000003-0.23066 0.0351-0.30086 0.1053-0.06853 0.06853-0.1028 0.16046-0.1028 0.27579-0.000001 0.06185 0.01002 0.117 0.03008 0.16547 0.02173 0.0468 0.05516 0.09109 0.10029 0.13288 0.0468 0.04179 0.10613 0.08441 0.178 0.12786 0.07354 0.04346 0.16213 0.09277 0.26576 0.14792 0.12536 0.06686 0.24069 0.13539 0.34598 0.20558 0.1053 0.06853 0.19555 0.14541 0.27078 0.23066 0.07689 0.08357 0.13622 0.17885 0.17801 0.28581 0.04178 0.10697 0.06267 0.23233 0.06268 0.37607"/>
  <path d="m31.336 14.169h0.8374l0.45128 1.577c0.02674 0.08692 0.04596 0.17968 0.05766 0.27829 0.01337 0.09862 0.02173 0.1872 0.02507 0.26576h0.01504c0.0033-0.03844 0.0075-0.08106 0.01253-0.12787 0.0067-0.0468 0.0142-0.09443 0.02257-0.14291 0.0084-0.04847 0.01755-0.09611 0.02758-0.14291 0.0117-0.04847 0.0234-0.09193 0.0351-0.13037l0.44126-1.577h0.8424l-1.1082 3.1615c-0.10363 0.29584-0.24486 0.51563-0.42371 0.65935-0.17885 0.14374-0.40281 0.21562-0.67193 0.21562-0.08692-0.000001-0.16213-0.005-0.22564-0.01504-0.06351-0.0084-0.11783-0.01755-0.16297-0.02758v-0.60673c0.0351 0.0084 0.07939 0.01588 0.13288 0.02257 0.05348 0.0067 0.10948 0.01002 0.16798 0.01003 0.08023-0.000001 0.14876-0.01087 0.20558-0.03259 0.05683-0.02173 0.1053-0.05265 0.14541-0.09276 0.04178-0.03845 0.07688-0.08524 0.1053-0.1404 0.03008-0.05516 0.05599-0.117 0.07772-0.18553l0.04764-0.1404-1.058-2.828"/>
  <path d="m36.373 16.14c-0.000003 0.14709-0.02674 0.27579-0.08023 0.3861-0.05349 0.11032-0.12954 0.20224-0.22815 0.27579-0.09862 0.07354-0.21813 0.1287-0.35852 0.16547-0.1404 0.03677-0.29751 0.05516-0.47135 0.05516-0.09193 0-0.17717-0.0033-0.25573-0.01003-0.07856-0.005-0.15294-0.01421-0.22314-0.02758s-0.13789-0.03008-0.20308-0.05015c-0.06518-0.02006-0.13121-0.04513-0.19806-0.07522v-0.6318c0.0702 0.0351 0.14374 0.06686 0.22063 0.09527 0.07856 0.02841 0.15628 0.05348 0.23316 0.07522 0.07688 0.02006 0.15127 0.03594 0.22314 0.04764 0.07354 0.0117 0.14124 0.01755 0.20308 0.01755 0.06853 0.000001 0.12703-0.0058 0.1755-0.01755 0.04847-0.01337 0.08775-0.03092 0.11783-0.05265 0.03176-0.0234 0.05432-0.05014 0.06769-0.08023 0.01504-0.03176 0.02256-0.06518 0.02257-0.10029-0.000002-0.0351-0.0058-0.06602-0.01755-0.09276-0.01003-0.02841-0.03427-0.05766-0.07271-0.08775-0.03845-0.03176-0.09527-0.06685-0.17048-0.1053-0.07354-0.04011-0.17299-0.08859-0.29835-0.14541-0.12201-0.05515-0.22815-0.10948-0.3184-0.16297-0.08859-0.05515-0.16213-0.11616-0.22063-0.18302-0.05683-0.06685-0.09945-0.1429-0.12786-0.22815-0.02841-0.08691-0.04262-0.18971-0.04262-0.30838 0-0.13037 0.02507-0.24402 0.07522-0.34097 0.05014-0.09861 0.12118-0.18051 0.21311-0.2457 0.09193-0.06518 0.20224-0.11366 0.33094-0.14541 0.13037-0.03343 0.27495-0.05014 0.43374-0.05015 0.16714 0.000003 0.32593 0.01922 0.47636 0.05766 0.15042 0.03845 0.30504 0.09611 0.46382 0.17299l-0.23066 0.54154c-0.127-0.061-0.248-0.111-0.363-0.149-0.116-0.038-0.231-0.058-0.346-0.058-0.10363 0.000003-0.17885 0.01839-0.22564 0.05516-0.04513 0.03678-0.06769 0.08692-0.06769 0.15043-0.000001 0.03343 0.0058 0.06352 0.01755 0.09025 0.0117 0.02508 0.0351 0.05181 0.0702 0.08023 0.03509 0.02675 0.08441 0.05683 0.14792 0.09025 0.06352 0.03176 0.14625 0.07104 0.24821 0.11783 0.11867 0.05182 0.22564 0.10363 0.32092 0.15544 0.09527 0.05015 0.17717 0.10781 0.2457 0.17299s0.12118 0.14124 0.15795 0.22815c0.03677 0.08692 0.05515 0.19222 0.05516 0.3159"/>
  <path d="m38.11 16.413c0.07521 0.000001 0.14625-0.0084 0.21311-0.02507 0.06853-0.01671 0.13789-0.03761 0.20809-0.06268v0.56912c-0.07187 0.03677-0.16129 0.06686-0.26826 0.09025-0.1053 0.02507-0.22063 0.0376-0.34598 0.0376-0.12202 0-0.23567-0.01421-0.34097-0.04262s-0.19639-0.07772-0.27328-0.14792c-0.07688-0.07187-0.13789-0.16714-0.18302-0.28581-0.04346-0.12034-0.06518-0.27077-0.06518-0.45128v-1.3514h-0.36604v-0.32342l0.4212-0.25573 0.22063-0.59169h0.48889v0.5967h0.68194v0.57414h-0.68194v1.3514c-0.000001 0.10864 0.02674 0.18887 0.08023 0.24069 0.05348 0.05182 0.12369 0.07772 0.2106 0.07772"/>
  <path d="m40.231 14.66c-0.13539 0.000002-0.24821 0.04764-0.33846 0.14291-0.08859 0.09527-0.13957 0.24486-0.15294 0.44878h0.97526c-0.002-0.086-0.013-0.164-0.033-0.236s-0.05-0.134-0.09-0.186c-0.04-0.053-0.09-0.095-0.15-0.125-0.061-0.03-0.131-0.045-0.211-0.045m0.09778 2.3617c-0.20057 0-0.38526-0.02925-0.55408-0.08775-0.16881-0.0585-0.31423-0.14625-0.43624-0.26325-0.12201-0.11867-0.21728-0.26743-0.28581-0.44627-0.06686-0.18052-0.10029-0.39195-0.10029-0.63431 0-0.2457 0.03092-0.46048 0.09276-0.64433 0.06184-0.18386 0.14792-0.33679 0.25823-0.45881 0.11199-0.12368 0.2457-0.21645 0.40114-0.27829 0.15711-0.06184 0.33094-0.09276 0.52149-0.09276 0.18553 0.000003 0.35267 0.02842 0.50143 0.08524 0.15043 0.05516 0.27746 0.13706 0.38109 0.2457 0.1053 0.10865 0.18553 0.24236 0.24069 0.40114 0.05683 0.15712 0.08524 0.33763 0.08524 0.54154v0.37106h-1.7099c0.0033 0.10697 0.02006 0.20392 0.05015 0.29083 0.03176 0.08524 0.07522 0.15796 0.13037 0.21812 0.05683 0.0585 0.12452 0.10363 0.20308 0.13539 0.08023 0.03176 0.17132 0.04764 0.27328 0.04764 0.08524 0.000001 0.16547-0.0042 0.24069-0.01254 0.07688-0.01002 0.15126-0.02423 0.22314-0.04262 0.07187-0.01839 0.1429-0.04095 0.21311-0.06769 0.0702-0.02841 0.14207-0.06101 0.21562-0.09778v0.59169c-0.06686 0.0351-0.13455 0.06518-0.20308 0.09025-0.06686 0.0234-0.1379 0.04346-0.21311 0.06017-0.07522 0.01671-0.15628 0.02841-0.2432 0.0351-0.08692 0.0084-0.18219 0.01253-0.28581 0.01253"/>
  <path d="m44.493 16.972h-0.76468v-1.6372c-0.000002-0.20224-0.03009-0.35351-0.09025-0.45379-0.06017-0.10196-0.15461-0.15294-0.28331-0.15294-0.09694 0.000002-0.17801 0.02006-0.2432 0.06017-0.06352 0.04012-0.1145 0.09945-0.15294 0.178-0.03845 0.07856-0.06603 0.1755-0.08274 0.29083s-0.02507 0.24737-0.02507 0.39613v1.3188h-0.76468v-2.803h0.58417l0.1028 0.35852h0.04262c0.04011-0.07187 0.08775-0.13371 0.14291-0.18553 0.05683-0.05182 0.11867-0.09443 0.18553-0.12786 0.06685-0.03343 0.13789-0.05766 0.21311-0.07271 0.07521-0.01671 0.15127-0.02507 0.22815-0.02507 0.19222 0.000003 0.35518 0.03343 0.4889 0.10029 0.13538 0.06519 0.23901 0.16881 0.31089 0.31089h0.06268c0.04011-0.07187 0.08859-0.13371 0.14541-0.18553 0.05683-0.05181 0.1195-0.09443 0.18804-0.12786 0.06853-0.03343 0.14039-0.05766 0.21562-0.07271 0.07689-0.01671 0.15377-0.02507 0.23066-0.02507 0.30085 0.000003 0.52733 0.0819 0.67944 0.2457 0.15377 0.16213 0.23066 0.42288 0.23066 0.78226v1.8277h-0.76718v-1.6372c-0.000003-0.20224-0.03009-0.35351-0.09025-0.45379-0.06018-0.10195-0.15461-0.15294-0.28331-0.15294-0.18219 0.000003-0.31172 0.07271-0.38861 0.21812-0.07689 0.14374-0.11533 0.35017-0.11533 0.61926v1.4065"/>
  <path d="m50.395 16.972-0.216-0.98c-0.006-0.029-0.015-0.069-0.027-0.121-0.01-0.053-0.022-0.112-0.035-0.178-0.014-0.066-0.028-0.137-0.043-0.21-0.013-0.075-0.028-0.15-0.043-0.223-0.033-0.173-0.07-0.358-0.11-0.557h-0.01505c-0.03845 0.1989-0.07355 0.38526-0.1053 0.55909-0.01338 0.07355-0.02758 0.14792-0.04262 0.22314-0.01337 0.07522-0.02674 0.14625-0.04011 0.21311-0.01338 0.06518-0.02591 0.12452-0.0376 0.178-0.01003 0.05348-0.01839 0.09527-0.02507 0.12536l-0.22564 0.97026h-0.82231l-0.75466-2.803h0.75967l0.28331 1.241c0.01504 0.06518 0.03008 0.14374 0.04513 0.23567 0.01671 0.09026 0.03176 0.18219 0.04513 0.27579 0.01504 0.09193 0.02841 0.17968 0.04011 0.26325 0.0117 0.0819 0.02089 0.14709 0.02758 0.19556h0.01505c0.0017-0.03176 0.005-0.07271 0.01003-0.12285 0.0067-0.05182 0.0142-0.10697 0.02257-0.16547 0.0084-0.0585 0.01671-0.11783 0.02507-0.178 0.01003-0.06184 0.01922-0.11951 0.02758-0.17299 0.01002-0.05348 0.01838-0.10028 0.02507-0.1404 0.0084-0.04178 0.01504-0.07103 0.02006-0.08775l0.30587-1.3439h0.8424l0.29334 1.3439c0.0084 0.03677 0.01922 0.09361 0.03259 0.17048 0.01337 0.07689 0.02674 0.15962 0.04011 0.24821 0.01504 0.08692 0.02757 0.17216 0.0376 0.25573 0.01003 0.0819 0.01587 0.14625 0.01755 0.19305h0.01504c0.005-0.04178 0.01337-0.10363 0.02507-0.18553 0.01337-0.0819 0.02758-0.16965 0.04262-0.26325 0.01504-0.09527 0.03092-0.18971 0.04764-0.28331 0.01838-0.0936 0.03509-0.17299 0.05015-0.23818l0.29334-1.241h0.74966l-0.76468 2.803h-0.83239"/>
  <path d="m52.363 13.445c0-0.07187 0.01087-0.1312 0.03259-0.178 0.02173-0.04847 0.05098-0.08691 0.08775-0.11533 0.03845-0.03008 0.08274-0.05097 0.13288-0.06268 0.05181-0.01169 0.10613-0.01755 0.16297-0.01755 0.05683 0.000004 0.11031 0.0058 0.16046 0.01755 0.05014 0.0117 0.0936 0.0326 0.13037 0.06268 0.03844 0.02842 0.06853 0.06686 0.09025 0.11533 0.0234 0.0468 0.0351 0.10614 0.0351 0.178 0 0.0702-0.0117 0.12954-0.0351 0.178-0.02173 0.04848-0.05182 0.08775-0.09025 0.11783-0.03677 0.02842-0.08023 0.04931-0.13037 0.06268-0.05015 0.0117-0.10363 0.01755-0.16046 0.01755-0.05683 0.000003-0.11115-0.0058-0.16297-0.01755-0.05-0.014-0.094-0.035-0.133-0.063-0.036-0.03-0.066-0.07-0.087-0.118-0.022-0.048-0.033-0.108-0.033-0.178m0.79728 3.5276h-0.764v-2.803h0.76468v2.803"/>
  <path d="m56.392 16.972h-0.76468v-1.6372c-0.000002-0.20224-0.03092-0.35351-0.09276-0.45379-0.06017-0.10196-0.15712-0.15294-0.29083-0.15294-0.10029 0.000002-0.18386 0.02006-0.25071 0.06017-0.06686 0.04012-0.12034 0.09945-0.16046 0.178-0.03845 0.07856-0.06602 0.1755-0.08274 0.29083-0.01671 0.11533-0.02507 0.24737-0.02507 0.39613v1.3188h-0.76468v-2.803h0.58417l0.1028 0.35852h0.04262c0.04011-0.07187 0.08859-0.13371 0.14541-0.18553 0.0585-0.05182 0.12201-0.09443 0.19055-0.12786 0.06853-0.03343 0.14123-0.05766 0.21812-0.07271 0.07688-0.01671 0.15544-0.02507 0.23567-0.02507 0.13706 0.000003 0.26158 0.02006 0.37356 0.06017 0.11199 0.03844 0.20809 0.09945 0.28832 0.18302s0.14207 0.19055 0.18553 0.32092c0.04345 0.1287 0.06518 0.28331 0.06518 0.46382v1.8277"/>
  <path d="m58.004 17.022c-0.14374 0-0.27495-0.03092-0.39362-0.09276-0.11868-0.06184-0.22063-0.15294-0.30587-0.27328-0.08524-0.12201-0.1521-0.27328-0.20057-0.45379-0.0468-0.18051-0.0702-0.38944-0.0702-0.62678 0-0.24069 0.0234-0.45128 0.0702-0.6318 0.04847-0.18218 0.11616-0.33428 0.20308-0.4563 0.08859-0.12368 0.19388-0.21645 0.3159-0.27829 0.12201-0.06184 0.25656-0.09276 0.40365-0.09276 0.09025 0.000003 0.17299 0.01087 0.24821 0.03259 0.07521 0.02006 0.1429 0.04931 0.20308 0.08775 0.06017 0.03678 0.11366 0.08023 0.16046 0.13037 0.04847 0.04848 0.09109 0.10196 0.12786 0.16046h0.02507c-0.01003-0.06518-0.01922-0.1312-0.02758-0.19806-0.0084-0.05683-0.01588-0.117-0.02257-0.18052-0.005-0.06518-0.0075-0.12536-0.0075-0.18052v-0.89754h0.76468v3.9011h-0.584l-0.148-0.364h-0.032c-0.0351 0.05683-0.07522 0.11115-0.12034 0.16297-0.04513 0.05015-0.09778 0.0936-0.15795 0.13037-0.0585 0.03677-0.12536 0.06602-0.20057 0.08775-0.07355 0.02173-0.15711 0.03259-0.25071 0.03259m0.27829-0.60924c0.09025 0.000001 0.16714-0.01504 0.23066-0.04513 0.06352-0.03176 0.11449-0.07856 0.15294-0.1404 0.04011-0.06352 0.06936-0.14207 0.08775-0.23567 0.02006-0.0936 0.03092-0.20308 0.03259-0.32844v-0.08274c-0.000002-0.13539-0.0084-0.25572-0.02507-0.36103-0.01671-0.1053-0.04429-0.19305-0.08274-0.26325-0.03845-0.07187-0.09026-0.12619-0.15544-0.16297-0.06518-0.03677-0.14709-0.05515-0.2457-0.05516-0.16046 0.000003-0.2783 0.07271-0.35351 0.21812-0.07522 0.14374-0.11282 0.35351-0.11282 0.6293-0.000001 0.27579 0.0376 0.48305 0.11282 0.62177 0.07689 0.13706 0.19639 0.20558 0.35852 0.20558"/>
  <path d="m60.935 15.565c-0.000001 0.27913 0.03928 0.48973 0.11783 0.6318 0.07855 0.1404 0.20642 0.2106 0.3836 0.2106 0.1755 0.000001 0.30253-0.07104 0.38109-0.21311 0.07855-0.14207 0.11783-0.35184 0.11783-0.6293-0.000002-0.27913-0.03928-0.48722-0.11783-0.62428-0.07856-0.13872-0.20726-0.20809-0.3861-0.20809-0.1755 0.000002-0.30253 0.06937-0.38109 0.20809-0.07688 0.13706-0.11533 0.34515-0.11533 0.62428m1.7801 0c-0.000003 0.234-0.03009 0.44126-0.09025 0.62177-0.0585 0.18052-0.14374 0.33262-0.25573 0.4563-0.11032 0.12369-0.2457 0.21812-0.40616 0.28331-0.15879 0.06352-0.33763 0.09527-0.53653 0.09527-0.18553 0-0.35602-0.03176-0.51146-0.09527-0.15544-0.06518-0.28999-0.15962-0.40365-0.28331-0.11199-0.12369-0.19974-0.27579-0.26325-0.4563-0.06352-0.18051-0.09527-0.38777-0.09527-0.62177 0-0.23233 0.02925-0.43875 0.08775-0.61926 0.06017-0.18051 0.14541-0.33178 0.25573-0.45379 0.11199-0.12368 0.24737-0.21728 0.40616-0.2808 0.15878-0.06351 0.33846-0.09527 0.53903-0.09527 0.18553 0.000004 0.35601 0.03176 0.51146 0.09527 0.15544 0.06351 0.28916 0.15712 0.40114 0.2808 0.11366 0.12202 0.20224 0.27328 0.26576 0.45379 0.06351 0.18052 0.09527 0.38694 0.09527 0.61926"/>
  <path d="m65.518 16.972-0.216-0.98c-0.006-0.029-0.016-0.069-0.027-0.121-0.01-0.053-0.022-0.112-0.035-0.178-0.014-0.066-0.028-0.137-0.043-0.21-0.013-0.075-0.027-0.15-0.043-0.223-0.033-0.173-0.07-0.358-0.11-0.557h-0.01505c-0.03844 0.1989-0.07355 0.38526-0.1053 0.55909-0.01338 0.07355-0.02758 0.14792-0.04262 0.22314-0.01338 0.07522-0.02675 0.14625-0.04012 0.21311-0.01338 0.06518-0.02591 0.12452-0.0376 0.178-0.01003 0.05348-0.01839 0.09527-0.02507 0.12536l-0.22564 0.97026h-0.82231l-0.75466-2.803h0.75967l0.28331 1.241c0.01504 0.06518 0.03008 0.14374 0.04513 0.23567 0.01671 0.09026 0.03176 0.18219 0.04513 0.27579 0.01504 0.09193 0.02841 0.17968 0.04011 0.26325 0.0117 0.0819 0.02089 0.14709 0.02758 0.19556h0.01504c0.0017-0.03176 0.005-0.07271 0.01003-0.12285 0.0067-0.05182 0.0142-0.10697 0.02257-0.16547 0.0084-0.0585 0.01671-0.11783 0.02507-0.178 0.01002-0.06184 0.01922-0.11951 0.02758-0.17299 0.01003-0.05348 0.01838-0.10028 0.02507-0.1404 0.0084-0.04178 0.01504-0.07103 0.02006-0.08775l0.30587-1.3439h0.8424l0.29334 1.3439c0.0084 0.03677 0.01922 0.09361 0.03259 0.17048 0.01337 0.07689 0.02674 0.15962 0.04012 0.24821 0.01504 0.08692 0.02757 0.17216 0.0376 0.25573 0.01003 0.0819 0.01587 0.14625 0.01755 0.19305h0.01505c0.005-0.04178 0.01337-0.10363 0.02507-0.18553 0.01337-0.0819 0.02757-0.16965 0.04262-0.26325 0.01504-0.09527 0.03092-0.18971 0.04764-0.28331 0.01838-0.0936 0.03509-0.17299 0.05015-0.23818l0.29334-1.241h0.74966l-0.76468 2.803h-0.83239"/>
 </g>
 <path d="m12 6v2.5c0 0.831 0.669 1.5 1.5 1.5h3c0.831 0 1.5-0.669 1.5-1.5v-2.5h-6z" fill="url(#n)"/>
 <path opacity=".8" d="m12 8.5v1c0 0.831 0.669 1.5 1.5 1.5h3c0.831 0 1.5-0.669 1.5-1.5v-1c0 0.831-0.669 1.5-1.5 1.5h-3c-0.831 0-1.5-0.669-1.5-1.5z" fill="#fff"/>
 <path opacity=".2" d="m12 6v1h6v-1h-6z" fill="#fff"/>
 <path d="m67 6v2.5c0 0.831 0.669 1.5 1.5 1.5h15c0.831 0 1.5-0.669 1.5-1.5v-2.5h-18z" fill="url(#f)"/>
 <path opacity=".8" d="m67 8.5v1c0 0.831 0.669 1.5 1.5 1.5h15c0.831 0 1.5-0.669 1.5-1.5v-1c0 0.831-0.669 1.5-1.5 1.5h-15c-0.831 0-1.5-0.669-1.5-1.5z" fill="#fff"/>
 <path d="m79 6v4h4.5c0.831 0 1.5-0.669 1.5-1.5v-2.5h-6z" fill="url(#e)"/>
 <path opacity=".2" d="m67 6v1h18v-1h-18z" fill="#fff"/>
 <path opacity=".1" d="m67 6v2.5c0 0.831 0.669 1.5 1.5 1.5h15c0.831 0 1.5-0.669 1.5-1.5v-2.5h-1v2c0 0.554-0.446 1-1 1h-14c-0.554 0-1-0.446-1-1v-2h-1z"/>
 <g fill="#fff">
  <path d="m14 7.4806h2l-1 1.5194-1-1.5194z"/>
  <rect y="8" width="2" x="69" height=".75"/>
  <path d="m75 7v2h2v-2h-2zm0.53125 0.53125h0.9375v0.9375h-0.9375v-0.9375z"/>
  <path d="m81.396 7-0.375 0.375 0.594 0.5938-0.594 0.5937 0.375 0.4063 0.594-0.5938 0.59375 0.59375 0.405-0.4063-0.593-0.5937 0.593-0.5938-0.406-0.375-0.594 0.5938-0.593-0.5938z"/>
 </g>
</svg>
