<?xml version="1.0" encoding="UTF-8" standalone="no"?>
<svg
   xmlns:dc="http://purl.org/dc/elements/1.1/"
   xmlns:cc="http://creativecommons.org/ns#"
   xmlns:rdf="http://www.w3.org/1999/02/22-rdf-syntax-ns#"
   xmlns:svg="http://www.w3.org/2000/svg"
   xmlns="http://www.w3.org/2000/svg"
   xmlns:sodipodi="http://sodipodi.sourceforge.net/DTD/sodipodi-0.dtd"
   xmlns:inkscape="http://www.inkscape.org/namespaces/inkscape"
   height="16"
   width="16"
   version="1.1"
   id="svg10"
   sodipodi:docname="cinnamon-new-private-window-symbolic.svg"
   inkscape:version="0.92.3 (2405546, 2018-03-11)">
  <metadata
     id="metadata16">
    <rdf:RDF>
      <cc:Work
         rdf:about="">
        <dc:format>image/svg+xml</dc:format>
        <dc:type
           rdf:resource="http://purl.org/dc/dcmitype/StillImage" />
      </cc:Work>
    </rdf:RDF>
  </metadata>
  <defs
     id="defs14" />
  <sodipodi:namedview
     pagecolor="#ffffff"
     bordercolor="#666666"
     borderopacity="1"
     objecttolerance="10"
     gridtolerance="10"
     guidetolerance="10"
     inkscape:pageopacity="0"
     inkscape:pageshadow="2"
     inkscape:window-width="1920"
     inkscape:window-height="1012"
     id="namedview12"
     showgrid="false"
     inkscape:zoom="20.85965"
     inkscape:cx="10.704846"
     inkscape:cy="10.482951"
     inkscape:window-x="0"
     inkscape:window-y="0"
     inkscape:window-maximized="1"
     inkscape:current-layer="svg10">
    <inkscape:grid
       type="xygrid"
       id="grid823" />
  </sodipodi:namedview>
  <path
     inkscape:connector-curvature="0"
     id="path3850"
     d="m 0,3.2058632 c 1,3 -0.23501,5.34264 0.5,7.4062498 0.24262,0.68118 0.9047,1.53128 1.48438,1.875 0.57967,0.34373 2.38017,0.41788 3.51562,0.125 0.94102,-0.24273 2,-1.5 2.5,-1.5 0.5,0 1.55898,1.25727 2.5,1.5 1.13545,0.29288 2.93595,0.21873 3.51562,-0.125 0.57968,-0.34372 1.24176,-1.19382 1.48438,-1.875 C 16.23501,8.5485032 15,6.2058632 16,3.2058632 c -2.5,1 -3.84375,0.0625 -6.34375,0.0625 -0.5,0 -1.15625,0.9375 -1.65625,0.9375 -0.5,0 -1.15625,-0.9375 -1.65625,-0.9375 -2.5,0 -3.84375,0.9375 -6.34375,-0.0625 z m 4.09375,2.89063 C 5.0805,6.1269932 7,6.2031132 7,7.1121132 c -0.40505,1.84433 -1.47939,2.20331 -2.79687,2.28126 -1.76954,0.0545 -1.86988,-1.06334 -1.82813,-2.03126 0.041,-0.63707 0.73201,-1.29606 1.71875,-1.26562 z m 7.8125,0 c 0.98674,-0.0305 1.6778,0.62855 1.71875,1.26562 0.0418,0.96792 -0.0586,2.08573 -1.82813,2.03126 -1.31748,-0.0779 -2.39182,-0.43693 -2.79687,-2.28126 0,-0.909 1.9195,-0.98517 2.90625,-1.01562 z"
     style="color:#000000;font-style:normal;font-variant:normal;font-weight:normal;font-stretch:normal;font-size:medium;line-height:normal;font-family:Sans;-inkscape-font-specification:Sans;text-indent:0;text-align:start;text-decoration:none;text-decoration-line:none;letter-spacing:normal;word-spacing:normal;text-transform:none;writing-mode:lr-tb;direction:ltr;baseline-shift:baseline;text-anchor:start;display:inline;overflow:visible;visibility:visible;fill:#bebebe;fill-opacity:1;stroke:none;stroke-width:6;marker:none;enable-background:accumulate" />
</svg>
