<?xml version="1.0" encoding="UTF-8"?>
<!-- Created with Inkscape (http://www.inkscape.org/) -->
<svg id="svg7384" width="16" height="16" version="1.1" xmlns="http://www.w3.org/2000/svg" xmlns:cc="http://creativecommons.org/ns#" xmlns:dc="http://purl.org/dc/elements/1.1/" xmlns:rdf="http://www.w3.org/1999/02/22-rdf-syntax-ns#">
 <metadata id="metadata90">
  <rdf:RDF>
   <cc:Work rdf:about="">
    <dc:format>image/svg+xml</dc:format>
    <dc:type rdf:resource="http://purl.org/dc/dcmitype/StillImage"/>
    <dc:title>Gnome Symbolic Icon Theme</dc:title>
   </cc:Work>
  </rdf:RDF>
 </metadata>
 <title id="title9167">Gnome Symbolic Icon Theme</title>
 <g id="layer11" transform="translate(-162 -530)">
  <path id="rect5238-9" d="m176 530c1.1999 0 2 0.7984 2 2v4h-2v-3.75c0-0.1238-0.0566-0.25-0.1875-0.25h-11.625c-0.1309 0-0.1875 0.1262-0.1875 0.25v11.75c-1.1999 0-2-0.9234-2-2.125v-9.875c0-1.2016 0.80008-2 2-2z" style="color:#bebebe;fill:#bebebe"/>
  <path id="rect5238-8" d="m169.25 536c-0.47139 0-0.74314 0.54175-0.75 1v1h-2.5c-0.46865 0.0651-1 0.5417-1 1v6c0 0.4583 0.52685 1 1 1h10c0.47315 0 1-0.5417 1-1v-6c0-0.4583-0.52685-1-1-1h-2.5v-1c0-0.4583-0.34111-1-0.8125-1zm1.75 3c1.6568 0 3 1.3432 3 3s-1.3432 3-3 3-3-1.3432-3-3 1.3432-3 3-3z" style="color:#bebebe;fill:#bebebe"/>
  <path id="path2998" transform="matrix(2.064 0 0 1.4981 180.75 526.52)" d="m-3.7538 10.335a0.969 1.335 0 1 1-1.938 0 0.969 1.335 0 1 1 1.938 0z" style="fill:#bebebe"/>
 </g>
</svg>
