<?xml version="1.0" encoding="UTF-8"?>
<!-- Created with Inkscape (http://www.inkscape.org/) -->
<svg id="svg7384" width="16" height="16" version="1.1" xmlns="http://www.w3.org/2000/svg" xmlns:cc="http://creativecommons.org/ns#" xmlns:dc="http://purl.org/dc/elements/1.1/" xmlns:rdf="http://www.w3.org/1999/02/22-rdf-syntax-ns#">
 <metadata id="metadata90">
  <rdf:RDF>
   <cc:Work rdf:about="">
    <dc:format>image/svg+xml</dc:format>
    <dc:type rdf:resource="http://purl.org/dc/dcmitype/StillImage"/>
    <dc:title>Gnome Symbolic Icon Theme</dc:title>
   </cc:Work>
  </rdf:RDF>
 </metadata>
 <title id="title9167">Gnome Symbolic Icon Theme</title>
 <g id="layer13" transform="translate(-481 -175)">
  <path id="path3799" d="m484 180v9h9v-9h2v9c0 2-2 2-2 2h-9c-2 0-2-2-2-2v-9zm4 1h1v6h-1zm2 0h1v6h-1zm-4 0h0.99999v6h-0.99999zm-1-6c-2 0-2 2-2 2h-2v2h15v-2h-2c0-2-2-2-2-2h-7zm0 1h7v1h-7v-1z" style="fill:#bebebe"/>
 </g>
</svg>
