<?xml version="1.0" encoding="UTF-8" standalone="no"?>
<!-- Created with Inkscape (http://www.inkscape.org/) -->

<svg
   xmlns:dc="http://purl.org/dc/elements/1.1/"
   xmlns:cc="http://creativecommons.org/ns#"
   xmlns:rdf="http://www.w3.org/1999/02/22-rdf-syntax-ns#"
   xmlns:svg="http://www.w3.org/2000/svg"
   xmlns="http://www.w3.org/2000/svg"
   xmlns:sodipodi="http://sodipodi.sourceforge.net/DTD/sodipodi-0.dtd"
   xmlns:inkscape="http://www.inkscape.org/namespaces/inkscape"
   width="16"
   height="16"
   viewBox="0 0 16 16"
   id="svg2"
   version="1.1"
   inkscape:version="0.92.3 (2405546, 2018-03-11)"
   sodipodi:docname="gwl-shop-symbolic.svg">
  <defs
     id="defs4">
    <linearGradient
       id="outerBackgroundGradient-5-6">
      <stop
         style="stop-color:#1e1e1e;stop-opacity:1;"
         offset="0"
         id="stop3864-8-6-9-1" />
      <stop
         style="stop-color:#3a3a3a;stop-opacity:1;"
         offset="1"
         id="stop3866-9-1-9-3" />
    </linearGradient>
  </defs>
  <sodipodi:namedview
     id="base"
     pagecolor="#ffffff"
     bordercolor="#666666"
     borderopacity="1.0"
     inkscape:pageopacity="0.0"
     inkscape:pageshadow="2"
     inkscape:zoom="32"
     inkscape:cx="11.384671"
     inkscape:cy="5.7061218"
     inkscape:document-units="px"
     inkscape:current-layer="layer1"
     showgrid="false"
     units="px"
     inkscape:window-width="1920"
     inkscape:window-height="1012"
     inkscape:window-x="0"
     inkscape:window-y="0"
     inkscape:window-maximized="1">
    <inkscape:grid
       type="xygrid"
       id="grid4136" />
  </sodipodi:namedview>
  <metadata
     id="metadata7">
    <rdf:RDF>
      <cc:Work
         rdf:about="">
        <dc:format>image/svg+xml</dc:format>
        <dc:type
           rdf:resource="http://purl.org/dc/dcmitype/StillImage" />
        <dc:title />
      </cc:Work>
    </rdf:RDF>
  </metadata>
  <g
     inkscape:label="Ebene 1"
     inkscape:groupmode="layer"
     id="layer1"
     transform="translate(0,-1036.3622)">
    <path
       sodipodi:nodetypes="ccccccccccccccccsccccscccccccccscccccccccccccsccc"
       inkscape:connector-curvature="0"
       id="path3930-2"
       style="font-style:normal;font-variant:normal;font-weight:bold;font-stretch:normal;font-size:17.2705555px;line-height:125%;font-family:Inconsolata;-inkscape-font-specification:'Inconsolata Bold';text-align:center;letter-spacing:0px;word-spacing:0px;text-anchor:middle;display:inline;fill:#bebebe;fill-opacity:1;stroke:none;enable-background:new"
       d="M 6.99998,1037.3622 H 9 v 0.9686 c 0.59731,0.1195 1.313775,0.3513 1.819745,0.6957 0.51298,0.3373 0.97679,1.0096 1.39142,1.5086 l -1.27547,1.3585 c 0,0 -0.3821,-0.4829 -0.55869,-0.7062 -0.14056,-0.1616 -0.33029,-0.3197 -0.56922,-0.4743 C 9.575875,1040.5585 9.26704,1040.4496 9,1040.3863 v 3.4271 c 0.56921,0.1827 1.131045,0.3865 1.566745,0.6114 0.43569,0.2248 0.7976,0.4848 1.08573,0.78 0.29514,0.2951 0.5165,0.6289 0.66409,1.0014 0.14756,0.3654 0.22134,0.9325 0.22136,1.4034 -2e-5,0.4427 -0.0772,0.8679 -0.2319,1.2754 -0.15461,0.4006 -0.37949,0.766 -0.67464,1.0963 -0.28812,0.3303 -0.63949,0.6149 -1.0541,0.8538 -0.41462,0.239 -1.050245,0.4111 -1.577285,0.5165 v 1.0106 H 7 v -1 c -0.66057,-0.1125 -1.292675,-0.2811 -1.904055,-0.6114 -0.61139,-0.3303 -1.15601,-0.759 -1.63387,-1.286 l 1.31764,-1.8552 0.61142,0.7589 c 0.23894,0.26 0.49191,0.4814 0.75896,0.6641 0.27406,0.1827 0.484485,0.3127 0.849905,0.39 v -4.007 c -0.51299,-0.1897 -0.863965,-0.4006 -1.271535,-0.6325 -0.40058,-0.2318 -0.7414,-0.4883 -1.0225,-0.7694 -0.27406,-0.2882 -0.48488,-0.6044 -0.63246,-0.9487 -0.14757,-0.3514 -0.22136,-0.9886 -0.22136,-1.4032 0,-0.3935 0.0738,-0.7695 0.22136,-1.1279 0.14758,-0.3584 0.3584,-0.6817 0.63246,-0.9698 0.27408,-0.2881 0.60436,-0.5341 0.99087,-0.7379 0.39352,-0.2108 0.825325,-0.3654 1.303185,-0.4638 v -1.0002 M 9,1049.2961 c 0.37948,-0.1335 0.744585,-0.3233 0.976495,-0.5692 0.23893,-0.2459 0.35839,-0.5727 0.3584,-0.9803 -10e-6,-0.3373 -0.10537,-0.7815 -0.31623,-1.0344 -0.2038,-0.253 -0.582975,-0.4568 -1.018665,-0.6114 v 3.1953 m -2,-8.9309 c -0.29514,0.077 -0.424755,0.2144 -0.607455,0.4111 -0.18272,0.1968 -0.27407,0.4498 -0.27407,0.759 0,0.2249 0.0737,0.711 0.22136,0.9499 0.14757,0.2389 0.294745,0.4216 0.660165,0.5481 v -2.6681" />
  </g>
</svg>
