<?xml version="1.0" encoding="UTF-8" standalone="no"?>
<svg
   xmlns:dc="http://purl.org/dc/elements/1.1/"
   xmlns:cc="http://creativecommons.org/ns#"
   xmlns:rdf="http://www.w3.org/1999/02/22-rdf-syntax-ns#"
   xmlns:svg="http://www.w3.org/2000/svg"
   xmlns="http://www.w3.org/2000/svg"
   height="16"
   width="16"
   version="1.1"
   id="svg8">
  <metadata
     id="metadata14">
    <rdf:RDF>
      <cc:Work
         rdf:about="">
        <dc:format>image/svg+xml</dc:format>
        <dc:type
           rdf:resource="http://purl.org/dc/dcmitype/StillImage" />
      </cc:Work>
    </rdf:RDF>
  </metadata>
  <defs
     id="defs12" />
  <path
     id="path2"
     style="color:#bebebe;overflow:visible;fill:#bebebe;marker:none"
     overflow="visible"
     d="m -19.5,-2 c -0.554,0 -1,0.446 -1,1 v 14 c 0,0.554 0.446,1 1,1 h 10 c 0.554,0 1,-0.446 1,-1 V 3 c 0,-0.554 -4.446,-5 -5,-5 z m 0.5,1 h 5.5 v 4 h 4 v 9.5 c 0,0.277 -0.223,0.5 -0.5,0.5 h -9 a 0.499,0.499 0 0 1 -0.5,-0.5 v -13 c 0,-0.277 0.223,-0.5 0.5,-0.5 z" />
  <path
     style="color:#000000;font-style:normal;font-variant:normal;font-weight:normal;font-stretch:normal;font-size:medium;line-height:normal;font-family:Sans;-inkscape-font-specification:Sans;text-indent:0;text-align:start;text-decoration:none;text-decoration-line:none;letter-spacing:normal;word-spacing:normal;text-transform:none;writing-mode:lr-tb;direction:ltr;baseline-shift:baseline;text-anchor:start;display:inline;overflow:visible;visibility:visible;fill:#bebebe;fill-opacity:1;stroke:none;stroke-width:1px;marker:none;enable-background:accumulate"
     d="m 6.46875,7 -0.5,0.375 -0.594125,4.65625 -0.4375,-1.34375 -0.9375,0.3125 1,2.015625 0.96875,-0.03125 L 6.875,8 H 11 V 7 Z M 7.9375,8.55 7.0625,9.05 8.40625,10.79975 7.0625,12.55 7.9375,13.05 9,11.79975 10.0625,13.05 10.9375,12.55 9.59375,10.79975 10.9375,9.05 10.0625,8.55 9,9.79975 Z"
     id="path3947" />
  <path
     d="M 2.8125,0.9999999 A 1.0000999,1.0000999 0 0 0 2,2 v 13 a 1.0000999,1.0000999 0 0 0 1,1 h 10 a 1.0000999,1.0000999 0 0 0 1,-1 V 5.5625004 a 1.0000999,1.0000999 0 0 0 -0.28125,-0.71875 L 10.15625,1.2812499 A 1.0000999,1.0000999 0 0 0 9.4375,0.9999999 H 3 a 1.0000999,1.0000999 0 0 0 -0.0937,0 1.0000999,1.0000999 0 0 0 -0.0937,0 z M 4,3 h 5 v 3.0000004 h 3 V 14 H 4 Z"
     id="path35724"
     style="color:#000000;font-style:normal;font-variant:normal;font-weight:normal;font-stretch:normal;font-size:medium;line-height:normal;font-family:Sans;-inkscape-font-specification:Sans;text-indent:0;text-align:start;text-decoration:none;text-decoration-line:none;letter-spacing:normal;word-spacing:normal;text-transform:none;writing-mode:lr-tb;direction:ltr;baseline-shift:baseline;text-anchor:start;display:inline;overflow:visible;visibility:visible;fill:#bebebe;fill-opacity:1;stroke:none;stroke-width:1.99999988;marker:none;enable-background:accumulate" />
</svg>
